<svg width="48" height="48" viewBox="0 0 48 48" fill="none" xmlns="http://www.w3.org/2000/svg">
<path fill-rule="evenodd" clip-rule="evenodd" d="M29.7208 7.00916C26.5966 3.88497 21.5313 3.88497 18.4071 7.00916L12.1304 13.2858H14.1409C14.9937 13.2858 15.7612 13.6269 17.1256 14.9913L23.5214 21.3871H24.8006L31.1964 14.9913C31.7649 14.4228 33.1577 13.2858 34.1811 13.2858H35.9974L29.7208 7.00916ZM37.703 14.9913H34.1811C33.8968 15.1335 33.1577 15.5883 32.4755 16.2705C32.2177 16.5284 31.505 17.1801 30.6183 17.991C29.1592 19.3254 27.229 21.0906 26.0797 22.2399C25.6533 22.6663 25.2269 23.0927 23.9478 23.0927C23.095 23.0927 22.2422 22.6663 21.8158 22.2399L15.8464 15.8441C15.4201 15.4177 14.7063 14.9913 13.7145 14.9913H10.4249L7.00623 18.41C3.88204 21.5342 3.88204 26.5995 7.00623 29.7237L10.1821 32.8996H13.7145C14.7063 32.8996 15.4201 32.4732 15.8464 32.0468L21.8158 25.651C22.2422 25.2246 23.095 24.7982 23.9478 24.7982C25.2269 24.7982 25.6533 25.2246 26.0797 25.651C27.229 26.8003 29.1592 28.5655 30.6183 29.8999L30.6184 29.9C31.505 30.7108 32.2177 31.3626 32.4755 31.6204C33.1577 32.3026 33.8968 32.7574 34.1811 32.8996H37.9458L41.1216 29.7237C44.2458 26.5995 44.2458 21.5342 41.1216 18.41L37.703 14.9913ZM36.2402 34.6051H34.1811C33.1577 34.6051 31.7649 33.4681 31.1964 32.8996L24.8006 26.5038H23.5214L17.1256 32.8996C15.7612 34.264 14.9937 34.6051 14.1409 34.6051H11.8876L18.4071 41.1246C21.5313 44.2488 26.5966 44.2488 29.7208 41.1246L36.2402 34.6051Z" fill="#37B4AA"/>
</svg>
