<svg xmlns="http://www.w3.org/2000/svg" width="48" height="48" viewBox="0 0 48 48" fill="none">
  <g clip-path="url(#clip0_2049_3791)">
    <g filter="url(#filter0_d_2049_3791)">
      <path d="M25.8898 11.9779C26.4386 11.137 32.4239 9.41856 33.4649 10.1353C34.5059 10.8521 35.3326 17.2267 34.7474 18.0767C34.3305 18.6512 30.5827 19.9084 28.9303 21.8093C25.7735 25.4411 28.2738 30.3878 31.9928 31.6584C33.832 32.2868 35.0994 31.8623 36.4485 30.8561C37.3656 30.172 37.6365 29.128 37.8377 28.3529C37.9324 27.9879 38.0116 27.6825 38.1356 27.5024C38.7382 26.6273 42.3136 27.1539 42.9027 28.2045C43.1232 28.5979 42.6735 28.9055 41.5033 29.7061C41.3342 29.8218 41.1501 29.9477 40.9507 30.0858L40.813 30.1811C38.7727 31.5935 37.1623 32.7083 35.2533 34.5485C33.6458 36.0981 32.6498 37.1866 31.814 38.1001C31.6351 38.2956 31.4635 38.4832 31.2948 38.6655C31.1585 38.8128 31.0314 38.9502 30.9135 39.0776C30.6317 39.3821 30.1693 39.4332 29.8276 39.198L7.91371 24.1095C7.57206 23.8743 7.45485 23.424 7.63875 23.0522C7.7157 22.8966 7.7987 22.7288 7.88773 22.5489C7.99786 22.3262 8.11184 22.099 8.23069 21.8621C8.7858 20.7554 9.44734 19.4366 10.3215 17.382C11.3595 14.9422 11.8264 13.0399 12.4179 10.6301C12.4311 10.5761 12.4444 10.5219 12.4578 10.4674C12.5156 10.2319 12.5676 10.0149 12.6153 9.81566C12.9457 8.43684 13.0727 7.90702 13.5188 7.97271C14.7105 8.1482 16.4781 11.3004 15.8755 12.1755C15.7515 12.3556 15.4945 12.5386 15.1873 12.7573C14.5349 13.2217 13.6563 13.8473 13.3445 14.9481C12.8858 16.5675 12.9414 17.9029 14.1846 19.3969C16.6984 22.4178 22.2117 22.9887 24.4782 18.7438C25.6645 16.522 25.5018 12.5724 25.8898 11.9779Z" fill="url(#paint0_linear_2049_3791)"/>
    </g>
  </g>
  <defs>
    <filter id="filter0_d_2049_3791" x="1.55225" y="4.96729" width="47.4047" height="43.3781" filterUnits="userSpaceOnUse" color-interpolation-filters="sRGB">
      <feFlood flood-opacity="0" result="BackgroundImageFix"/>
      <feColorMatrix in="SourceAlpha" type="matrix" values="0 0 0 0 0 0 0 0 0 0 0 0 0 0 0 0 0 0 127 0" result="hardAlpha"/>
      <feOffset dy="3"/>
      <feGaussianBlur stdDeviation="3"/>
      <feComposite in2="hardAlpha" operator="out"/>
      <feColorMatrix type="matrix" values="0 0 0 0 0.951389 0 0 0 0 0.352014 0 0 0 0 0.0951389 0 0 0 0.37 0"/>
      <feBlend mode="normal" in2="BackgroundImageFix" result="effect1_dropShadow_2049_3791"/>
      <feBlend mode="normal" in="SourceGraphic" in2="effect1_dropShadow_2049_3791" result="shape"/>
    </filter>
    <linearGradient id="paint0_linear_2049_3791" x1="33.6155" y1="10.239" x2="18.8707" y2="31.6538" gradientUnits="userSpaceOnUse">
      <stop stop-color="#FFB834"/>
      <stop offset="1" stop-color="#FA7C2D"/>
    </linearGradient>
    <clipPath id="clip0_2049_3791">
      <rect width="48" height="48" fill="white"/>
    </clipPath>
  </defs>
</svg>