<svg xmlns="http://www.w3.org/2000/svg" width="40" height="40" viewBox="0 0 40 40" fill="none">
<path d="M36.911 25.9722C36.5188 25.5797 36.0417 25.3833 35.481 25.3833H25.7211L22.8605 28.2438C22.0472 29.0289 21.0937 29.4216 20 29.4216C18.9065 29.4216 17.9527 29.0294 17.1395 28.2438L14.2999 25.3833H4.51921C3.95841 25.3833 3.48168 25.5799 3.08893 25.9722C2.69626 26.3648 2.5 26.8416 2.5 27.4027V34.1333C2.5 34.6942 2.69626 35.1709 3.08893 35.5635C3.48161 35.9561 3.95834 36.1522 4.51921 36.1522H35.4811C36.0417 36.1522 36.5188 35.9561 36.9111 35.5635C37.3039 35.1709 37.5 34.6942 37.5 34.1333V27.4027C37.5 26.8416 37.3039 26.3648 36.911 25.9722ZM29.0238 33.0605C28.757 33.327 28.4414 33.4601 28.0768 33.4601C27.7122 33.4601 27.397 33.327 27.1304 33.0605C26.8641 32.7941 26.731 32.4787 26.731 32.1143C26.731 31.7498 26.8641 31.4338 27.1304 31.1678C27.397 30.9011 27.7122 30.7677 28.0768 30.7677C28.4414 30.7677 28.757 30.9011 29.0238 31.1678C29.29 31.4338 29.4232 31.7497 29.4232 32.1143C29.4232 32.4786 29.29 32.7941 29.0238 33.0605ZM34.4081 33.0605C34.1418 33.327 33.8262 33.4601 33.4615 33.4601C33.097 33.4601 32.7816 33.327 32.5151 33.0605C32.2489 32.7941 32.1157 32.4787 32.1157 32.1143C32.1157 31.7498 32.2489 31.4338 32.5151 31.1678C32.7815 30.9011 33.0969 30.7677 33.4615 30.7677C33.8261 30.7677 34.1417 30.9011 34.4081 31.1678C34.6745 31.4338 34.8079 31.7497 34.8079 32.1143C34.8079 32.4786 34.6748 32.7941 34.4081 33.0605Z" fill="#FFEFEF"/>
<path d="M19.0534 26.3321C19.306 26.5982 19.6214 26.7314 19.9999 26.7314C20.3786 26.7314 20.6937 26.5982 20.9464 26.3321L30.3695 16.9088C30.8041 16.5022 30.9025 16.0113 30.664 15.4364C30.426 14.8897 30.0122 14.6163 29.4231 14.616H24.0383V5.19289C24.0383 4.82836 23.9049 4.51282 23.6389 4.24642C23.3722 3.97995 23.0568 3.84668 22.6925 3.84668H17.3073C16.9429 3.84668 16.6274 3.97995 16.3609 4.24642C16.0945 4.51282 15.9613 4.82829 15.9613 5.19289V14.6161H10.5766C9.98741 14.6161 9.57396 14.8898 9.33556 15.4365C9.0973 16.0112 9.19536 16.5023 9.63017 16.9089L19.0534 26.3321Z" fill="#FFEFEF"/>
</svg>