<svg xmlns="http://www.w3.org/2000/svg" width="26" height="31" viewBox="0 0 26 31" fill="none">
<path d="M10.6006 0.660156C12.0292 -0.117154 13.8881 -0.0219791 15.2979 0.789062C19.767 3.36019 26 3.26007 26 6V15C26 25.0625 16.0469 29.7656 13.5586 30.7842L13 31C13 31 3.31541e-05 26.5 0 15V6C0 3.0146 5.74254 3.30332 10.6006 0.660156ZM13 8C10.7909 8 9 9.79086 9 12C9 13.4802 9.80487 14.7711 11 15.4629V20C11 21.1046 11.8954 22 13 22C14.1046 22 15 21.1046 15 20V15.4629C16.1951 14.7711 17 13.4802 17 12C17 9.79086 15.2091 8 13 8Z" fill="#FFEFEF"/>
</svg>