<svg xmlns="http://www.w3.org/2000/svg" width="30" height="30" viewBox="0 0 30 30" fill="none">
  <g clip-path="url(#clip0_2271_83618)">
    <path d="M30 0H0V30H30V0Z" fill="white" fill-opacity="0.01"/>
    <path fill-rule="evenodd" clip-rule="evenodd" d="M11.2422 7.48056L19.8688 2.5L22.7516 7.49306L11.2422 7.48056Z" fill="#FFA522"/>
    <path d="M2.5 8.75C2.5 8.05963 3.05964 7.5 3.75 7.5H26.25C26.9404 7.5 27.5 8.05963 27.5 8.75V26.25C27.5 26.9404 26.9404 27.5 26.25 27.5H3.75C3.05964 27.5 2.5 26.9404 2.5 26.25V8.75Z" fill="#FDD95A"/>
    <path fill-rule="evenodd" clip-rule="evenodd" d="M27.9688 21.25H22.5C20.6878 21.25 19.2188 19.8509 19.2188 18.125C19.2188 16.3991 20.6878 15 22.5 15H27.9688V21.25ZM21.9872 18.9581C22.505 18.9581 22.9247 18.5383 22.9247 18.0206C22.9247 17.5028 22.505 17.0831 21.9872 17.0831C21.4694 17.0831 21.0497 17.5028 21.0497 18.0206C21.0497 18.5383 21.4694 18.9581 21.9872 18.9581Z" fill="#FFA522"/>
  </g>
  <defs>
    <clipPath id="clip0_2271_83618">
      <rect width="30" height="30" fill="white"/>
    </clipPath>
  </defs>
</svg>