<svg width="96" height="96" viewBox="0 0 96 96" fill="none" xmlns="http://www.w3.org/2000/svg">
						<circle cx="72" cy="75" r="14" fill="white" />
						<path
							d="M72 56.2C76.48 56.2 80.64 57.8 83.84 60.36V27.08C83.84 25.48 82.88 22.92 81.6 21.64L67.52 7.24C66.24 5.96 64 5 62.08 5H14.4C10.88 5 8 7.88 8 11.4V81.16C8 84.68 10.88 87.56 14.4 87.56H57.6C54.72 84.36 52.8 79.88 52.8 75.08C52.8 64.84 61.44 56.2 72 56.2ZM60.48 13C60.48 11.08 61.44 10.76 62.72 12.04L77.12 26.44C78.4 27.72 78.08 28.68 76.16 28.68H66.88C63.36 28.68 60.48 25.8 60.48 22.28V13ZM20.16 20.68H48.64C49.92 20.68 50.88 21.64 50.88 22.92C50.88 24.2 49.92 25.16 48.64 25.16H20.16C18.88 25.16 17.92 24.2 17.92 22.92C17.92 21.64 18.88 20.68 20.16 20.68ZM20.16 33.48H72.32C73.6 33.48 74.56 34.44 74.56 35.72C74.56 37 73.6 37.96 72.32 37.96H20.16C18.88 37.96 17.92 37 17.92 35.72C17.92 34.44 18.88 33.48 20.16 33.48ZM17.92 48.52C17.92 47.24 18.88 46.28 20.16 46.28H58.24C59.52 46.28 60.48 47.24 60.48 48.52C60.48 49.8 59.52 50.76 58.24 50.76H20.16C18.88 50.76 17.92 49.8 17.92 48.52ZM72 59.4C63.04 59.4 56 66.44 56 75.4C56 84.36 63.04 91.4 72 91.4C80.96 91.4 88 84.36 88 75.4C88 66.44 80.96 59.4 72 59.4ZM72 87.88C64.96 87.88 59.2 82.12 59.2 75.08C59.2 68.04 64.96 62.28 72 62.28C79.04 62.28 84.8 68.04 84.8 75.08C84.8 82.44 79.04 87.88 72 87.88ZM80.64 71.56L76.16 70.92L73.92 66.76C73.28 65.48 71.36 65.48 70.72 66.76L68.48 70.92L64 71.56C63.36 71.56 62.72 72.2 62.4 72.84C62.08 73.48 62.4 74.12 63.04 74.44L66.56 77.64L65.6 82.44C65.6 83.08 65.92 83.72 66.24 84.04C66.56 84.36 67.52 84.68 68.16 84.36L72.32 82.12L76.48 84.36C76.8 84.68 77.12 84.68 77.12 84.68C77.76 84.68 77.76 84.36 78.08 84.36C78.72 83.72 78.72 83.4 78.72 82.76L78.4 78.28L81.92 75.08C82.24 74.44 82.24 73.48 82.24 72.84C81.6 72.2 81.28 71.88 80.64 71.56Z"
							fill="#F95959"
						/>
						<path
							d="M60.4799 13C60.4799 11.08 61.4399 10.76 62.7199 12.04L77.1199 26.44C78.3999 27.72 78.0799 28.68 76.1599 28.68H66.8799C63.3599 28.68 60.4799 25.8 60.4799 22.28V13ZM20.1599 20.68H48.6399C49.9199 20.68 50.8799 21.64 50.8799 22.92C50.8799 24.2 49.9199 25.16 48.6399 25.16H20.1599C18.8799 25.16 17.9199 24.2 17.9199 22.92C17.9199 21.64 18.8799 20.68 20.1599 20.68ZM20.1599 33.48H72.3199C73.5999 33.48 74.5599 34.44 74.5599 35.72C74.5599 37 73.5999 37.96 72.3199 37.96H20.1599C18.8799 37.96 17.9199 37 17.9199 35.72C17.9199 34.44 18.8799 33.48 20.1599 33.48ZM17.9199 48.52C17.9199 47.24 18.8799 46.28 20.1599 46.28H58.2399C59.5199 46.28 60.4799 47.24 60.4799 48.52C60.4799 49.8 59.5199 50.76 58.2399 50.76H20.1599C18.8799 50.76 17.9199 49.8 17.9199 48.52Z"
							fill="white"
						/>
					</svg>