<svg width="48" height="48" viewBox="0 0 48 48" fill="none" xmlns="http://www.w3.org/2000/svg">
<g opacity="0.4">
<path d="M21.3279 14.981H26.672V44H21.3279V14.981Z" fill="var(--norm_red-color)"/>
<path d="M15.2285 12.5162C12.9505 12.5751 11.0581 10.7194 11.0013 8.37187C10.9443 6.02431 12.7447 4.07362 15.0226 4.01512C15.6791 3.99802 16.33 4.1428 16.9212 4.43739C17.4393 4.67944 17.9038 5.02826 18.2861 5.46236L24.0828 12.5164L15.2285 12.5162Z" fill="var(--norm_red-color)"/>
<path d="M35.7575 11.2405C35.3748 11.6447 34.9175 11.9659 34.4124 12.185C33.9074 12.4041 33.3648 12.5167 32.8169 12.5162H24.0149L29.7916 5.40766C30.1781 4.97374 30.6459 4.62501 31.1668 4.38247C33.2404 3.4103 35.6867 4.35533 36.63 6.49325C37.3444 8.11306 37.005 10.0201 35.7791 11.2729L35.7575 11.2405Z" fill="var(--norm_red-color)"/>
</g>
<path d="M42.6523 24.1544V42.6846C42.6522 43.0313 42.5145 43.3636 42.2697 43.6087C42.0249 43.8537 41.6928 43.9914 41.3467 43.9913H29.5918V24.1542L42.6523 24.1544ZM19.316 44H7.60231C6.88154 43.9998 6.29715 43.4148 6.29693 42.6931V24.1546H19.3495V43.9915L19.316 44ZM6.30516 15H19.3582V21.5353H6.30516C5.959 21.5351 5.62705 21.3974 5.38221 21.1524C5.13749 20.9071 5.00001 20.5746 5 20.2279V16.3154C5.00466 15.5954 5.58628 15.0129 6.30516 15.0082V15ZM29.6416 15H42.694C43.4131 15.0044 43.9951 15.5868 44 16.307V20.2279C43.9998 20.9501 43.4152 21.5353 42.694 21.5353H29.5915L29.6416 15Z" fill="var(--norm_red-color)"/>
</svg>
