<svg xmlns="http://www.w3.org/2000/svg" width="32" height="32" viewBox="0 0 32 32" fill="none">
<path d="M4.25 2C4.25 1.58579 4.58579 1.25 5 1.25H27C27.4142 1.25 27.75 1.58579 27.75 2V28.5372C27.75 29.1144 27.1252 29.4753 26.6252 29.1868L17.6241 23.9939C16.619 23.414 15.381 23.414 14.3759 23.9939L5.37479 29.1868C4.87479 29.4753 4.25 29.1144 4.25 28.5372V2Z" stroke="#237C57" stroke-width="2.5"/>
<path fill-rule="evenodd" clip-rule="evenodd" d="M17 7C17 6.44772 16.5523 6 16 6C15.4477 6 15 6.44772 15 7V12H10C9.44772 12 9 12.4477 9 13C9 13.5523 9.44772 14 10 14H15V19C15 19.5523 15.4477 20 16 20C16.5523 20 17 19.5523 17 19V14H22C22.5523 14 23 13.5523 23 13C23 12.4477 22.5523 12 22 12H17V7Z" fill="#237C57"/>
</svg>