<svg width="32" height="33" viewBox="0 0 32 33" fill="none" xmlns="http://www.w3.org/2000/svg">
<path d="M16 23.1047C15.3813 23.1047 14.875 22.6031 14.875 21.9797V10.9922C14.875 10.3734 15.3766 9.86719 16 9.86719C16.6234 9.86719 17.125 10.3687 17.125 10.9922V21.9797C17.125 22.5984 16.6187 23.1047 16 23.1047Z" fill="var(--text_color_L1)"/>
<path d="M21.4984 17.6108H10.5016C9.88281 17.6108 9.37656 17.1093 9.37656 16.4858C9.37656 15.8671 9.87812 15.3608 10.5016 15.3608H21.4984C22.1172 15.3608 22.6234 15.8624 22.6234 16.4858C22.6234 17.1093 22.1219 17.6108 21.4984 17.6108Z" fill="var(--text_color_L1)"/>
<path d="M22.0266 31.625H9.97344C4.53125 31.625 0.875 27.8047 0.875 22.1234V10.8812C0.875 5.19531 4.53125 1.375 9.97344 1.375H22.0312C27.4734 1.375 31.125 5.19531 31.125 10.8766V22.1188C31.125 27.8047 27.4688 31.625 22.0266 31.625ZM9.97344 3.625C5.81563 3.625 3.12969 6.47031 3.12969 10.8766V22.1188C3.12969 26.525 5.81563 29.3703 9.97344 29.3703H22.0312C26.1844 29.375 28.875 26.5297 28.875 22.1234V10.8812C28.875 6.475 26.1891 3.62969 22.0312 3.62969H9.97344V3.625Z" fill="var(--text_color_L1)"/>
</svg>
