<svg width="100" height="48" viewBox="0 0 100 48" fill="none" xmlns="http://www.w3.org/2000/svg">
	<path d="M64.4259 3C64.8576 3.14781 65.3066 3.25504 65.7152 3.45212C67.4999 4.31577 68.4763 5.76196 68.4821 7.73562C68.5053 18.5342 68.4995 29.3328 68.4879 40.1315C68.4879 41.966 67.6969 43.4151 66.0976 44.3309C64.4693 45.2641 62.8121 45.2062 61.1896 44.2498C55.8266 41.0821 50.4637 37.9201 45.1008 34.7553C44.9443 34.6626 44.7937 34.5612 44.5938 34.4336C45.7788 33.7178 46.9203 33.028 48.0647 32.3412C49.0933 31.7209 50.1276 31.1152 51.1446 30.4776C51.4343 30.295 51.64 30.3095 51.9297 30.4776C54.63 32.0426 57.3419 33.5874 60.048 35.1408C60.8042 35.5755 61.1867 35.3669 61.1867 34.5061C61.1867 27.4751 61.1867 20.447 61.1867 13.4161C61.1867 12.5901 60.7926 12.3698 60.0712 12.7871C59.1788 13.303 58.2865 13.8189 57.397 14.3377C56.6379 14.7782 55.8817 14.7811 55.1197 14.3406C53.4421 13.3697 51.7617 12.4046 50.09 11.4308C49.383 11.0193 49.3772 10.5903 50.0813 10.1817C53.8565 7.98487 57.6288 5.78515 61.4184 3.61441C61.911 3.3246 62.4963 3.19997 63.038 3C63.5016 3 63.9623 3 64.4259 3Z" fill="currentColor"/>
	<path d="M43.6224 33.9422C43.605 33.7103 43.5848 33.5451 43.5848 33.3799C43.5848 30.8266 43.5905 28.2733 43.5761 25.72C43.5761 25.2998 43.7151 25.0418 44.0744 24.8245C44.8625 24.3463 45.6303 23.8304 46.4038 23.329C46.5139 23.2566 46.6182 23.1754 46.8124 23.0392C44.1584 21.5061 41.574 20.0164 38.8708 18.4572C38.8708 18.9499 38.8708 19.3122 38.8708 19.6715C38.8853 26.5779 38.8998 33.4842 38.9201 40.3906C38.9201 40.692 38.8592 40.9123 38.5724 41.0746C36.3502 42.3324 34.1366 43.6018 31.9202 44.8654C31.8419 44.9118 31.7521 44.9378 31.6073 44.9987C31.5928 44.8045 31.5696 44.6451 31.5696 44.4857C31.558 40.6543 31.5435 36.8258 31.5377 32.9944C31.529 25.1665 31.5551 17.3356 31.5001 9.50762C31.4885 7.69915 33.1921 6.78913 34.6813 7.66438C41.3683 11.5798 48.0959 15.4228 54.8032 19.3035C57.8598 21.0713 57.8917 25.3346 54.8611 27.1952C52.5288 28.6269 50.1703 30.0238 47.8264 31.4352C46.5864 32.1801 45.3492 32.9249 44.1092 33.6697C43.9701 33.7538 43.8252 33.832 43.6195 33.9451L43.6224 33.9422Z" fill="currentColor"/>
</svg>
