<svg width="70" height="70" viewBox="0 0 70 70" fill="none" xmlns="http://www.w3.org/2000/svg">
<path d="M41.8302 0.112877C41.5726 0.186485 40.9653 0.260094 40.4869 0.278496C38.573 0.3153 32.3898 1.8795 30.1447 2.87323C29.9423 2.96525 29.3718 3.20448 28.8566 3.4069C27.5132 3.92217 23.9615 5.61519 23.4094 6.02004C23.1518 6.18567 22.7286 6.40649 22.4525 6.4617C22.1765 6.53531 21.9557 6.66413 21.9557 6.73774C21.9557 6.81134 21.8084 6.92176 21.6428 6.99537C21.4588 7.05058 21.0723 7.2714 20.7595 7.47383C20.4651 7.67626 20.0234 7.91549 19.7842 8.0259C19.5449 8.11792 19.0849 8.41235 18.7536 8.66999C18.4224 8.92762 18.0912 9.13005 18.0359 9.13005C17.6127 9.13005 11.6871 13.4362 10.0125 14.9452C8.65072 16.1782 6.12959 18.8649 6.12959 19.0857C6.12959 19.1409 5.96397 19.3986 5.74314 19.6378C5.19107 20.2635 3.53486 22.8766 3.05639 23.852C2.85397 24.312 2.44912 25.1217 2.19148 25.6738C1.28976 27.514 0.921717 29.5199 1.01373 31.857C1.12414 34.1573 1.63941 35.3535 3.20361 36.9361C4.84143 38.5739 6.58965 39.2916 9.35001 39.4388C11.2455 39.5308 12.6072 39.3836 14.5027 38.8499C15.11 38.6843 15.9197 38.4819 16.3061 38.3715C16.6926 38.2794 17.1342 38.1322 17.3183 38.0218C17.7415 37.801 20.1154 36.7336 20.2258 36.7336C20.5571 36.7336 24.44 34.3597 28.0284 31.9674C30.4024 30.3848 32.4818 29.0046 32.6658 28.9126C32.8315 28.8022 33.954 28.1397 35.1502 27.422C36.3463 26.7227 37.8185 25.8762 38.4258 25.5634C39.0331 25.2505 39.898 24.7905 40.358 24.5513C40.8181 24.3304 41.683 23.9256 42.2903 23.7047C42.8976 23.4655 43.6521 23.1527 43.9465 23.0239C44.2594 22.895 44.701 22.6926 44.9586 22.5822C45.6763 22.2878 47.2957 21.9933 48.8784 21.8829C52.3012 21.6621 54.6935 23.1711 55.9265 26.3363C56.2209 27.0908 56.2761 27.7165 56.2761 29.9248C56.2761 32.6115 56.0369 34.0837 55.3192 35.8135C55.172 36.1632 54.9695 36.66 54.8591 36.9177C53.939 39.126 52.0436 42.2912 49.8721 45.1619C47.811 47.9223 43.376 52.5045 40.4501 54.9152C39.4379 55.7617 38.3154 56.6818 37.9657 56.9763C37.1928 57.6204 36.2911 58.2644 35.2974 58.9269C34.8925 59.1846 34.23 59.6262 33.8252 59.9207C32.6842 60.6936 29.6479 62.313 27.9364 63.0491C27.4396 63.2699 26.7587 63.5643 26.4274 63.7116C26.1146 63.8588 25.6913 63.9692 25.4889 63.9692C25.3049 63.9692 24.8816 64.0612 24.5504 64.1716C23.3542 64.5949 22.1397 63.7852 22.1397 62.5522C22.1397 61.0432 22.8574 60.0863 27.3844 55.5961C32.2794 50.7379 32.8131 50.0202 32.8131 48.1799C32.8131 46.2845 31.9113 44.9963 29.8871 43.9658C29.0038 43.5057 28.6725 43.4505 27.1267 43.4505C25.3233 43.4505 24.2744 43.7081 22.9678 44.4995C22.6733 44.6835 22.2133 44.9227 21.9557 45.0515C21.698 45.1803 21.4588 45.3276 21.4036 45.3828C21.3484 45.438 20.9803 45.714 20.5755 46.0269C19.6001 46.7629 17.8887 48.5112 16.9134 49.7809C16.2325 50.6643 15.7356 51.4924 14.5763 53.6638C13.6194 55.4673 12.7545 58.8165 12.7545 60.7672C12.7545 64.7237 14.8155 67.8889 17.9991 68.7906C18.9561 69.0666 22.8574 69.0666 24.2007 68.809C25.5257 68.533 28.9854 67.4656 29.2062 67.2632C29.3166 67.1712 29.5006 67.0976 29.6479 67.0976C30.1263 67.0976 35.5918 64.3188 37.4689 63.1043C37.8921 62.8282 38.3706 62.5154 38.5546 62.405C38.7202 62.313 39.5851 61.7793 40.4869 61.2272C41.3702 60.6752 42.1431 60.1599 42.1983 60.1047C42.2535 60.0311 42.8792 59.571 43.5785 59.0926C44.2962 58.5957 45.1243 58.0252 45.4187 57.8228C45.7315 57.602 46.5965 56.9395 47.351 56.3322C52.1356 52.5229 56.3681 48.456 58.8341 45.2908C59.2389 44.7939 59.607 44.3338 59.6622 44.2786C59.8094 44.1682 61.0607 42.3648 61.9257 41.003C62.3121 40.4325 62.901 39.4204 63.2322 38.7579C63.5819 38.0954 64.0603 37.1937 64.2996 36.7336C64.5388 36.2736 65.0541 35.0774 65.4589 34.0653C65.8454 33.0532 66.2318 32.0594 66.3054 31.857C66.8207 30.5504 67.612 27.1828 67.9616 24.7721C68.3481 22.0485 68.0536 17.5767 67.2992 15.1108C66.9863 14.0987 66.9127 13.9147 66.2318 12.4425C64.7596 9.27727 62.4041 6.40649 59.699 4.52945C59.3309 4.27181 58.8709 3.92217 58.6684 3.71974C58.0059 3.13087 54.6383 1.62187 52.6693 1.0514C51.6203 0.738556 50.0561 0.40731 49.1912 0.278496C47.2037 0.0208588 42.4375 -0.107956 41.8302 0.112877Z" fill="#FF0000"/>
</svg>
