<svg width="40" height="40" viewBox="0 0 40 40" fill="none" xmlns="http://www.w3.org/2000/svg">
<path d="M19.998 9.1665C12.1749 9.1665 5.83203 15.509 5.83203 23.3332C5.83203 31.1573 12.1749 37.4998 19.998 37.4998C27.8234 37.4998 34.1654 31.1573 34.1654 23.3332C34.1654 15.509 27.8237 9.1665 19.998 9.1665ZM27.2834 22.0692L24.4903 24.7921L25.1492 28.6368C25.371 29.9274 24.6334 30.4919 23.4518 29.8706L19.9983 28.0552L16.5465 29.8706C15.3877 30.4799 14.6228 29.9534 14.8486 28.6368L15.5079 24.7921L12.7149 22.0692C11.777 21.1553 12.0418 20.2659 13.3638 20.0736L17.2236 19.5126L18.9497 16.015C19.5292 14.8403 20.458 14.817 21.0488 16.015L22.7753 19.5126L26.6352 20.0736C27.9306 20.2618 28.2397 21.1374 27.2834 22.0692Z" fill="url(#paint0_linear_404_4738)"/>
<path d="M27.2154 22.5649L24.899 24.8441C24.5769 25.1611 24.43 25.6156 24.5056 26.0612L25.0526 29.2824C25.2774 30.6025 24.5298 31.1799 23.3324 30.5445L20.4809 29.0315C20.0755 28.8164 19.5898 28.8165 19.1845 29.0316L16.3346 30.5445C15.1603 31.1677 14.3852 30.6291 14.614 29.2824L15.1613 26.0612C15.237 25.6156 15.0901 25.1611 14.7679 24.844L12.4517 22.5649C11.5012 21.6302 11.7696 20.7205 13.1093 20.5238L16.2995 20.0557C16.7509 19.9895 17.1406 19.7049 17.341 19.295L18.77 16.3725C19.3573 15.171 20.2985 15.1471 20.8972 16.3725L22.3267 19.2951C22.5271 19.7049 22.9167 19.9895 23.3681 20.0557L26.5584 20.5238C27.8712 20.7162 28.1845 21.6119 27.2154 22.5649Z" fill="white"/>
<path d="M33.2536 1.01562H24.377C23.8976 1.01562 23.514 1.35369 23.4011 1.80184L20.6651 7.24771C20.6651 7.24771 26.5238 7.60409 29.9851 10.9673L34.0719 2.64365C34.1931 2.47305 34.2796 2.27611 34.2796 2.05059C34.2796 1.47896 33.82 1.01562 33.2536 1.01562ZM18.8567 7.24794L16.1207 1.80206C16.0078 1.35369 15.6233 1.01585 15.1448 1.01585H6.26771C5.70135 1.01585 5.24219 1.47896 5.24219 2.05081C5.24219 2.27633 5.32827 2.4735 5.44985 2.64387L9.53667 10.9675C12.9978 7.60409 18.8567 7.24794 18.8567 7.24794Z" fill="#FF9E8F"/>
<defs>
<linearGradient id="paint0_linear_404_4738" x1="19.9987" y1="9.1665" x2="19.9987" y2="37.4998" gradientUnits="userSpaceOnUse">
<stop stop-color="#FF7C7C"/>
<stop offset="1" stop-color="#F54545"/>
</linearGradient>
</defs>
</svg>
