<svg width="22" height="23" viewBox="0 0 22 23" fill="none" xmlns="http://www.w3.org/2000/svg">
<g id="Group 4534991">
<g id="Vector" filter="url(#filter0_i_1246_6371)">
<path d="M20.2632 11.0748V17.7222C20.2632 20.1707 18.1905 22.1538 15.6316 22.1538H6.36843C3.80948 22.1538 1.73685 20.1707 1.73685 17.7222V11.0748C1.73685 10.4654 2.2579 9.96685 2.89474 9.96685H5.17579C5.81264 9.96685 6.33369 10.4654 6.33369 11.0748V14.5536C6.33369 15.3734 6.80842 16.1268 7.56106 16.5146C7.89685 16.6919 8.26737 16.7805 8.64948 16.7805C9.08948 16.7805 9.52948 16.6586 9.91158 16.4149L11.0116 15.728L12.0305 16.3816C12.7368 16.8359 13.64 16.8913 14.3926 16.5035C15.1568 16.1157 15.6316 15.3734 15.6316 14.5425V11.0748C15.6316 10.4654 16.1526 9.96685 16.7895 9.96685H19.1053C19.7421 9.96685 20.2632 10.4654 20.2632 11.0748Z" fill="#FFF267"/>
<path d="M22 5.53522V6.64313C22 7.86183 21.3863 8.85895 19.6842 8.85895H2.31579C0.544211 8.85895 0 7.86183 0 6.64313V5.53522C0 4.31652 0.544211 3.3194 2.31579 3.3194H19.6842C21.3863 3.3194 22 4.31652 22 5.53522Z" fill="#FFF267"/>
<path d="M10.5818 3.32096H4.1902C3.79651 2.91103 3.80809 2.27952 4.22493 1.88067L5.86914 0.307445C6.29756 -0.102482 7.00388 -0.102482 7.4323 0.307445L10.5818 3.32096Z" fill="#FFF267"/>
<path d="M17.7987 3.32096H11.4071L14.5565 0.307445C14.985 -0.102482 15.6913 -0.102482 16.1197 0.307445L17.7639 1.88067C18.1808 2.27952 18.1923 2.91103 17.7987 3.32096Z" fill="#FFF267"/>
<path d="M13.2827 9.96685C13.9195 9.96685 14.4406 10.4654 14.4406 11.0748V14.5425C14.4406 15.4288 13.41 15.9606 12.6458 15.4621L11.6037 14.7973C11.2216 14.5536 10.7237 14.5536 10.33 14.7973L9.24162 15.4842C8.47742 15.9717 7.45847 15.4399 7.45847 14.5647V11.0748C7.45847 10.4654 7.97953 9.96685 8.61637 9.96685H13.2827Z" fill="#FFF267"/>
</g>
</g>
<defs>
<filter id="filter0_i_1246_6371" x="0" y="0" width="22" height="22.1538" filterUnits="userSpaceOnUse" color-interpolation-filters="sRGB">
<feFlood flood-opacity="0" result="BackgroundImageFix"/>
<feBlend mode="normal" in="SourceGraphic" in2="BackgroundImageFix" result="shape"/>
<feColorMatrix in="SourceAlpha" type="matrix" values="0 0 0 0 0 0 0 0 0 0 0 0 0 0 0 0 0 0 127 0" result="hardAlpha"/>
<feOffset dy="1"/>
<feComposite in2="hardAlpha" operator="arithmetic" k2="-1" k3="1"/>
<feColorMatrix type="matrix" values="0 0 0 0 1 0 0 0 0 0.972549 0 0 0 0 0.705882 0 0 0 1 0"/>
<feBlend mode="normal" in2="shape" result="effect1_innerShadow_1246_6371"/>
</filter>
</defs>
</svg>
