<svg xmlns="http://www.w3.org/2000/svg" width="37" height="40" viewBox="0 0 37 40" fill="none">
<rect opacity="0.4" width="36.6667" height="40" rx="8" fill="var(--main-color)"/>
<path d="M5.83301 16.6667C5.83301 15.7462 6.5792 15 7.49967 15H15.833C16.7535 15 17.4997 15.7462 17.4997 16.6667C17.4997 17.5871 16.7535 18.3333 15.833 18.3333H7.49967C6.5792 18.3333 5.83301 17.5871 5.83301 16.6667Z" fill="var(--main-color)"/>
<path d="M5.83301 9.16667C5.83301 8.24619 6.5792 7.5 7.49967 7.5H23.333C24.2535 7.5 24.9997 8.24619 24.9997 9.16667C24.9997 10.0871 24.2535 10.8333 23.333 10.8333H7.49967C6.5792 10.8333 5.83301 10.0871 5.83301 9.16667Z" fill="var(--main-color)"/>
<path d="M27.9863 14.4082V17.7692H26.209V14.4082H27.9863ZM27.7699 33.0133V36.0781H25.9925V33.0133H27.7699ZM29.0231 29.2764C29.0231 28.8434 28.9434 28.475 28.7839 28.1712C28.6319 27.8674 28.3813 27.5978 28.0319 27.3623C27.6901 27.1268 27.2268 26.899 26.6419 26.6787C25.6545 26.2989 24.7848 25.8964 24.0329 25.471C23.2885 25.0381 22.7075 24.5026 22.2897 23.8646C21.872 23.219 21.6631 22.4025 21.6631 21.415C21.6631 20.4732 21.8872 19.6567 22.3353 18.9655C22.7834 18.2743 23.4025 17.7426 24.1924 17.3704C24.9899 16.9907 25.9166 16.8008 26.9723 16.8008C27.7775 16.8008 28.5066 16.9223 29.1598 17.1654C29.813 17.4008 30.3751 17.7502 30.846 18.2135C31.3169 18.6693 31.6777 19.2275 31.9284 19.8883C32.179 20.5492 32.3044 21.3049 32.3044 22.1556H29.0345C29.0345 21.6999 28.9851 21.2973 28.8864 20.9479C28.7877 20.5985 28.6433 20.3061 28.4535 20.0706C28.2712 19.8352 28.0509 19.6605 27.7926 19.5465C27.5344 19.425 27.2496 19.3643 26.9382 19.3643C26.4748 19.3643 26.0951 19.4554 25.7988 19.6377C25.5026 19.82 25.2861 20.0668 25.1494 20.3783C25.0203 20.6821 24.9557 21.0315 24.9557 21.4264C24.9557 21.8138 25.0241 22.1518 25.1608 22.4404C25.3051 22.7291 25.552 22.9949 25.9014 23.238C26.2508 23.4734 26.7293 23.7165 27.3369 23.9671C28.3243 24.3469 29.1902 24.7571 29.9346 25.1976C30.6789 25.6381 31.26 26.1774 31.6777 26.8154C32.0955 27.4535 32.3044 28.2662 32.3044 29.2536C32.3044 30.2334 32.0765 31.0689 31.6208 31.7601C31.165 32.4437 30.527 32.9678 29.7067 33.3324C28.8864 33.6893 27.937 33.8678 26.8584 33.8678C26.1596 33.8678 25.4646 33.7767 24.7734 33.5944C24.0822 33.4045 23.4556 33.1007 22.8936 32.6829C22.3315 32.2652 21.8834 31.7107 21.5492 31.0195C21.215 30.3207 21.0479 29.4625 21.0479 28.4447H24.3291C24.3291 28.9991 24.4013 29.4625 24.5456 29.8346C24.6899 30.1992 24.8798 30.4916 25.1152 30.7119C25.3583 30.9246 25.6317 31.0765 25.9355 31.1676C26.2394 31.2588 26.547 31.3044 26.8584 31.3044C27.3445 31.3044 27.7433 31.217 28.0547 31.0423C28.3737 30.8676 28.613 30.6284 28.7725 30.3245C28.9396 30.0131 29.0231 29.6637 29.0231 29.2764Z" fill="var(--main-color)"/>
</svg>