<svg width="702" height="70" viewBox="0 0 702 70" fill="none" xmlns="http://www.w3.org/2000/svg">
<mask id="mask0_10_170301" style="mask-type:alpha" maskUnits="userSpaceOnUse" x="0" y="0" width="702" height="70">
<path d="M0 10C0 4.47715 4.47715 0 10 0H692C697.523 0 702 4.47715 702 10V70H0V10Z" fill="white"/>
</mask>
<g mask="url(#mask0_10_170301)">
<path d="M81.48 27.152H100.2V30.352H92.712V50H88.968V30.352H81.48V27.152ZM110.416 33.008C111.216 33.008 111.92 33.136 112.496 33.424V37.072C111.664 36.816 110.896 36.72 110.128 36.72C109.168 36.72 108.304 37.072 107.536 37.84C106.64 38.704 106.224 39.824 106.224 41.232V50H102.608V33.456H106.224V35.824C106.672 34.992 107.184 34.352 107.792 33.904C108.528 33.296 109.392 33.008 110.416 33.008ZM122.256 33.008C124.752 33.008 126.768 33.808 128.304 35.472C129.808 37.104 130.576 39.184 130.576 41.744C130.576 44.272 129.808 46.352 128.336 47.952C126.8 49.616 124.752 50.448 122.256 50.448C119.728 50.448 117.712 49.616 116.176 47.952C114.672 46.352 113.936 44.272 113.936 41.744C113.936 39.184 114.672 37.104 116.208 35.472C117.712 33.808 119.728 33.008 122.256 33.008ZM122.256 35.984C120.72 35.984 119.568 36.56 118.736 37.776C118.032 38.8 117.68 40.144 117.68 41.744C117.68 43.344 118.032 44.656 118.736 45.68C119.568 46.864 120.72 47.472 122.256 47.472C123.76 47.472 124.944 46.864 125.776 45.68C126.48 44.624 126.864 43.312 126.864 41.744C126.864 40.144 126.48 38.8 125.776 37.776C124.944 36.56 123.76 35.984 122.256 35.984ZM142.308 33.008C146.436 33.008 148.516 35.248 148.516 39.792V50H144.868V40.112C144.868 37.392 143.62 36.048 141.124 36.048C140.228 36.048 139.428 36.368 138.756 37.008C137.988 37.712 137.54 38.736 137.412 40.048V50H133.764V33.456H137.412V35.376C138.052 34.608 138.788 34 139.588 33.616C140.42 33.2 141.316 33.008 142.308 33.008ZM156.742 23.536H159.782C158.438 25.744 157.414 27.952 156.71 30.16C155.75 32.912 155.302 35.696 155.302 38.48C155.302 41.232 155.75 44.016 156.71 46.8C157.414 48.976 158.438 51.184 159.782 53.424H156.742C155.206 51.312 154.054 49.136 153.222 46.896C152.23 44.208 151.75 41.392 151.75 38.512C151.75 35.568 152.23 32.784 153.222 30.096C154.054 27.792 155.206 25.616 156.742 23.536ZM161.574 27.152H180.294V30.352H172.806V50H169.062V30.352H161.574V27.152ZM183.021 27.152H193.197C195.533 27.152 197.389 27.664 198.733 28.72C200.141 29.872 200.877 31.536 200.877 33.712C200.877 34.896 200.557 35.952 199.917 36.88C199.213 37.904 198.221 38.576 197.005 38.896V38.96C198.989 39.408 200.109 40.72 200.365 42.96L200.749 46.64C200.877 48.048 201.357 49.168 202.125 50H198.061C197.517 49.296 197.197 48.304 197.069 47.024L196.781 44.208C196.653 42.96 196.269 42.064 195.629 41.52C194.957 40.944 193.965 40.688 192.685 40.688H186.765V50H183.021V27.152ZM186.765 30.352V37.488H192.685C194.157 37.488 195.277 37.168 196.045 36.56C196.749 35.92 197.101 35.024 197.101 33.872C197.101 32.624 196.749 31.728 196.045 31.184C195.341 30.608 194.221 30.352 192.685 30.352H186.765ZM215.254 26.704C217.942 26.704 220.182 27.408 221.91 28.816C223.574 30.16 224.566 32.016 224.918 34.32H221.27C220.886 32.816 220.182 31.728 219.126 31.024C218.102 30.32 216.79 30 215.19 30C212.79 30 210.998 30.8 209.782 32.464C208.662 33.936 208.118 35.984 208.118 38.608C208.118 41.296 208.662 43.376 209.75 44.816C210.934 46.352 212.79 47.152 215.286 47.152C216.918 47.152 218.262 46.736 219.286 45.968C220.374 45.104 221.142 43.792 221.59 42.064H225.238C224.726 44.752 223.542 46.832 221.654 48.336C219.894 49.744 217.782 50.448 215.318 50.448C211.51 50.448 208.662 49.232 206.806 46.864C205.174 44.816 204.374 42.064 204.374 38.608C204.374 35.216 205.206 32.432 206.902 30.32C208.822 27.888 211.606 26.704 215.254 26.704ZM236.483 26.704C238.691 26.704 240.515 27.344 241.955 28.624C243.363 29.904 244.067 31.536 244.067 33.584C244.067 35.568 243.299 37.36 241.827 38.992C240.931 39.952 239.331 41.168 237.091 42.672C234.755 44.208 233.347 45.552 232.835 46.704H244.099V50H228.163C228.163 47.664 228.899 45.648 230.435 43.92C231.267 42.96 233.027 41.552 235.683 39.728C237.155 38.704 238.179 37.84 238.819 37.168C239.811 36.048 240.323 34.832 240.323 33.552C240.323 32.304 239.971 31.376 239.331 30.768C238.659 30.16 237.667 29.872 236.355 29.872C234.947 29.872 233.891 30.352 233.187 31.312C232.483 32.208 232.099 33.584 232.035 35.376H228.291C228.323 32.816 229.059 30.768 230.531 29.2C232.035 27.536 234.019 26.704 236.483 26.704ZM255.319 26.704C257.975 26.704 260.055 27.792 261.559 30.032C262.967 32.144 263.671 34.992 263.671 38.576C263.671 42.16 262.967 45.008 261.559 47.12C260.055 49.328 257.975 50.448 255.319 50.448C252.631 50.448 250.551 49.328 249.079 47.12C247.671 45.008 246.967 42.16 246.967 38.576C246.967 34.992 247.671 32.144 249.079 30.032C250.551 27.792 252.631 26.704 255.319 26.704ZM255.319 29.872C253.495 29.872 252.215 30.864 251.479 32.912C250.967 34.288 250.711 36.176 250.711 38.576C250.711 40.944 250.967 42.832 251.479 44.24C252.215 46.256 253.495 47.28 255.319 47.28C257.111 47.28 258.391 46.256 259.159 44.24C259.671 42.832 259.927 40.944 259.927 38.576C259.927 36.176 259.671 34.288 259.159 32.912C258.391 30.864 257.111 29.872 255.319 29.872ZM266.218 23.536H269.258C270.762 25.616 271.946 27.792 272.778 30.096C273.738 32.784 274.25 35.568 274.25 38.512C274.25 41.392 273.738 44.208 272.778 46.896C271.946 49.136 270.762 51.312 269.258 53.424H266.218C267.53 51.184 268.554 48.976 269.29 46.8C270.218 44.016 270.698 41.232 270.698 38.48C270.698 35.696 270.218 32.912 269.29 30.16C268.554 27.952 267.53 25.744 266.218 23.536Z" fill="white"/>
<path fill-rule="evenodd" clip-rule="evenodd" d="M690.847 21.138C707.178 38.335 706.477 65.5153 689.28 81.8469C672.083 98.1785 644.903 97.477 628.571 80.28C612.239 63.083 612.941 35.9027 630.138 19.5711C647.335 3.23949 674.515 3.94101 690.847 21.138ZM660.283 28.6248L659.005 44.5061L632.046 46.4145L660.283 28.6248ZM661.457 23.7932C661.233 23.846 661.009 23.9377 660.795 24.0729L625.31 46.4289C624.449 46.9712 624.179 47.8735 624.351 48.6804C624.235 49.5409 624.614 50.4685 625.587 50.9134L679.708 75.675C681.086 76.3053 682.419 75.4002 682.706 74.1949C682.944 73.8309 683.074 73.3786 683.035 72.8608L679.503 25.6135C679.455 24.9784 679.162 24.4698 678.745 24.1258C678.377 23.4952 677.694 23.0454 676.842 23.066L662.632 23.4093C662.197 23.4198 661.792 23.5598 661.457 23.7932ZM662.919 40.4756L664.007 26.9556L673.867 26.7174L662.919 40.4756ZM632.176 49.9929L659.809 48.0368L676.048 70.065L632.176 49.9929ZM676.207 29.5241L679.089 68.0688L662.92 46.2222L676.207 29.5241Z" fill="white" fill-opacity="0.36"/>
</g>
</svg>
