<svg width="48" height="48" viewBox="0 0 48 48" fill="none" xmlns="http://www.w3.org/2000/svg">
<g clip-path="url(#clip0_6487_39735)">
<path opacity="0.4" d="M45.7147 17.1445V33.314C45.7147 38.2775 41.6758 42.2874 36.7033 42.2874H11.2976C6.32499 42.2874 2.28613 38.2775 2.28613 33.314V17.1445H45.7147Z" fill="var(--main-color)"/>
<path d="M45.7147 14.5957V17.7275H2.28613V14.5957C2.28613 9.68333 6.32499 5.71484 11.2976 5.71484H36.7033C41.6758 5.71484 45.7147 9.68333 45.7147 14.5957ZM15.3147 35.4291H10.9718C10.0816 35.4291 9.34328 34.6998 9.34328 33.8203C9.34328 32.9408 10.0816 32.2114 10.9718 32.2114H15.3147C16.205 32.2114 16.9433 32.9408 16.9433 33.8203C16.9433 34.6998 16.205 35.4291 15.3147 35.4291ZM29.429 35.4291H20.7433C19.853 35.4291 19.1147 34.6998 19.1147 33.8203C19.1147 32.9408 19.853 32.2114 20.7433 32.2114H29.429C30.3193 32.2114 31.0576 32.9408 31.0576 33.8203C31.0576 34.6998 30.3193 35.4291 29.429 35.4291Z" fill="var(--main-color)"/>
</g>
<defs>
<clipPath id="clip0_6487_39735">
<rect width="48" height="48" fill="white"/>
</clipPath>
</defs>
</svg>
