<svg xmlns="http://www.w3.org/2000/svg" width="49" height="48" viewBox="0 0 49 48" fill="none">
<g clip-path="url(#clip0_2093_19994)">
<path d="M44.9609 38V44H4.96094V38C4.96094 36.9 5.86094 36 6.96094 36H42.9609C44.0609 36 44.9609 36.9 44.9609 38Z" fill="var(--main-color)"/>
<path d="M16.9609 22H8.96094V36H16.9609V22Z" fill="var(--main-color)"/>
<path d="M28.9609 22H20.9609V36H28.9609V22Z" fill="var(--main-color)"/>
<path d="M40.9609 22H32.9609V36H40.9609V22Z" fill="var(--main-color)"/>
<path d="M46.9609 45.4997H2.96094C2.14094 45.4997 1.46094 44.8197 1.46094 43.9997C1.46094 43.1797 2.14094 42.4997 2.96094 42.4997H46.9609C47.7809 42.4997 48.4609 43.1797 48.4609 43.9997C48.4609 44.8197 47.7809 45.4997 46.9609 45.4997ZM43.7009 11.4997L25.7009 4.29969C25.3009 4.13969 24.6209 4.13969 24.2209 4.29969L6.22094 11.4997C5.52094 11.7797 4.96094 12.5997 4.96094 13.3597V19.9997C4.96094 21.0997 5.86094 21.9997 6.96094 21.9997H42.9609C44.0609 21.9997 44.9609 21.0997 44.9609 19.9997V13.3597C44.9609 12.5997 44.4009 11.7797 43.7009 11.4997ZM24.9609 16.9997C23.3009 16.9997 21.9609 15.6597 21.9609 13.9997C21.9609 12.3397 23.3009 10.9997 24.9609 10.9997C26.6209 10.9997 27.9609 12.3397 27.9609 13.9997C27.9609 15.6597 26.6209 16.9997 24.9609 16.9997Z" fill="var(--main-color)"/>
</g>
<defs>
<clipPath id="clip0_2093_19994">
<rect width="48" height="48" fill="white" transform="translate(0.960938)"/>
</clipPath>
</defs>
</svg>
