<svg width="70" height="70" viewBox="0 0 70 70" fill="none" xmlns="http://www.w3.org/2000/svg">
<path d="M0.0332029 34.9543C0.0332029 28.5512 -0.0578035 22.1463 0.0615189 15.7454C0.160054 10.464 2.10146 5.98753 6.55829 2.85183C8.86257 1.23062 11.4674 0.448946 14.2515 0.166534C15.6089 0.0288521 16.9652 0.003611 18.3257 0.00377491C29.932 0.00606961 41.5384 -0.0122872 53.1446 0.0159049C56.5288 0.0241002 59.8148 0.561387 62.754 2.4101C66.6491 4.86002 68.9105 8.3932 69.6589 12.9113C69.935 14.5787 70.0016 16.2612 70 17.9519C69.9885 29.6688 70.0072 41.3857 69.9861 53.1025C69.9795 56.7502 69.3618 60.2637 67.2168 63.338C64.3954 67.3817 60.4324 69.4006 55.5854 69.85C54.2273 69.9759 52.8703 69.9957 51.5099 69.9956C39.9854 69.9943 28.4607 70.0121 16.9362 69.9843C13.4664 69.9759 10.0964 69.4306 7.10334 67.4971C3.2973 65.0385 1.07388 61.538 0.341576 57.0798C0.067576 55.4116 -0.00247982 53.7299 0.00243057 52.0392C0.0189622 46.3443 0.00865072 40.6493 0.00865072 34.9543C0.0168347 34.9543 0.0250189 34.9543 0.0332029 34.9543Z" fill="#FEE412"/>
<path d="M38.1666 14.1537C37.9433 14.4628 37.6544 14.4843 37.4212 14.6004C31.1832 17.703 27.0532 22.543 25.4569 29.3736C24.6675 32.7514 25.0655 36.0984 26.3473 39.3151C27.176 41.3951 30.1111 44.0473 30.3566 44.2931C30.6021 44.539 30.9455 44.7578 31.175 44.9487C33.9698 47.2744 37.7417 46.7406 40.0284 43.9104C42.7778 40.5079 42.2777 34.9898 38.9614 32.1366C36.2858 29.8344 32.5948 30.0706 30.2718 32.7318C28.5499 34.7044 28.0401 37.0406 28.3681 39.5952C28.3993 39.8381 28.4483 40.0787 28.4823 40.3213C28.4895 40.3723 28.4823 40.4939 28.457 40.4939C28.3106 40.4413 28.1587 40.2197 28.0758 40.0599C25.9525 35.9627 25.7171 31.7018 27.2407 27.3974C29.0249 22.3561 32.3908 18.6179 37.0956 16.0827C39.6495 14.7066 42.4362 14.6676 45.1778 14.9574C52.7197 15.7544 58.584 21.3602 59.9011 28.8262C61.3047 36.7813 56.7036 44.6544 49.0667 47.4167C46.3417 48.4023 43.5821 49.1943 40.6758 49.4174C32.4701 50.0469 25.8088 47.0338 20.563 40.8086C16.6909 36.2135 14.5111 30.9486 14.7393 24.8432C14.9745 18.5502 18.7897 13.492 24.5627 12.0619C29.2544 10.8997 33.7528 11.6261 37.9594 14.0411C38.0263 14.0795 38.0949 14.1149 38.1666 14.1537Z" fill="#0090C6"/>
<path d="M44.528 50.4153C41.1087 55.9847 36.0134 58.5097 29.603 58.4185C19.6597 58.2773 11.5942 51.2251 10.0466 41.3699C9.37127 37.0693 10.3358 33.148 13.1528 29.7543C13.3182 29.5548 13.4451 29.2988 13.7815 29.1901C13.8787 29.6489 13.9502 30.1003 14.0705 30.5381C16.8162 40.5218 22.8953 47.3061 33.0326 50.0868C36.4426 51.0222 39.9337 50.9042 43.4056 50.2992C43.6466 50.2573 43.8639 50.2315 44.1057 50.1938C44.3749 50.1518 44.5308 50.105 44.528 50.4153Z" fill="#0090C6"/>
<path d="M44.528 50.4137C44.4556 50.2334 44.2532 50.2433 44.1057 50.1931C44.4077 50.1198 44.647 50.0795 44.6797 50.1113C44.7067 50.138 44.5967 50.2749 44.528 50.4137Z" fill="#0090C6"/>
</svg>
