<svg width="70" height="70" viewBox="0 0 70 70" fill="none" xmlns="http://www.w3.org/2000/svg">
<path d="M0.0332029 34.9543C0.0332029 28.5512 -0.0578035 22.1463 0.0615189 15.7454C0.160054 10.464 2.10146 5.98753 6.55829 2.85183C8.86257 1.23062 11.4674 0.448946 14.2515 0.166534C15.6089 0.0288521 16.9652 0.003611 18.3257 0.00377491C29.932 0.00606961 41.5384 -0.0122872 53.1446 0.0159049C56.5288 0.0241002 59.8148 0.561387 62.754 2.4101C66.6491 4.86002 68.9105 8.3932 69.6589 12.9113C69.935 14.5787 70.0016 16.2612 70 17.9519C69.9885 29.6688 70.0072 41.3857 69.9861 53.1025C69.9795 56.7502 69.3618 60.2637 67.2168 63.338C64.3954 67.3817 60.4324 69.4006 55.5854 69.85C54.2273 69.9759 52.8703 69.9957 51.5099 69.9956C39.9854 69.9943 28.4607 70.0121 16.9362 69.9843C13.4664 69.9759 10.0964 69.4306 7.10334 67.4971C3.2973 65.0385 1.07388 61.538 0.341576 57.0798C0.067576 55.4116 -0.00247982 53.7299 0.00243057 52.0392C0.0189622 46.3443 0.00865072 40.6493 0.00865072 34.9543C0.0168347 34.9543 0.0250189 34.9543 0.0332029 34.9543Z" fill="#0053AA"/>
<path d="M55.871 49.0046C56.534 47.3427 57.1256 45.8627 57.7148 44.3815C58.3691 42.7366 59.0163 41.0889 59.6763 39.4464C59.9982 38.6454 60.4559 38.3729 61.0431 38.6011C61.6104 38.8217 61.8016 39.4062 61.4904 40.1444C59.805 44.143 58.1263 48.1448 56.403 52.1274C55.8152 53.4858 55.028 54.7238 53.4231 55.1068C52.3729 55.3574 51.3333 55.2542 50.3228 54.8974C49.7927 54.7103 49.4985 54.3245 49.6986 53.7659C49.896 53.2148 50.3386 53.1183 50.8965 53.2614C52.9195 53.7804 53.7486 53.4154 54.6306 51.7226C54.8576 51.2871 54.8367 50.9337 54.628 50.501C53.0356 47.2001 51.4645 43.889 49.8894 40.5799C49.7644 40.3174 49.6259 40.0544 49.5517 39.7764C49.4156 39.2668 49.5969 38.8484 50.0832 38.6327C50.5562 38.4228 51.0032 38.5129 51.3124 38.9586C51.4493 39.156 51.5451 39.3835 51.644 39.6042C52.9036 42.4151 54.1601 45.2275 55.4186 48.039C55.5362 48.3011 55.6623 48.5595 55.871 49.0046Z" fill="#FDFDFD"/>
<path d="M7.51204 51.4646C6.5243 51.4649 5.53583 51.4432 4.5488 51.4734C3.99953 51.4902 3.76356 51.3097 3.76965 50.7216C3.79094 48.6402 3.77674 46.5584 3.77906 44.4768C3.77935 44.2119 3.73358 43.9007 4.0566 43.7905C4.33862 43.6944 4.48884 43.95 4.65353 44.117C6.75142 46.2443 8.847 48.3743 10.9407 50.5059C11.1397 50.7085 11.427 50.9014 11.2608 51.2465C11.1149 51.5494 10.8024 51.4597 10.5477 51.4615C9.53591 51.4684 8.52398 51.4643 7.51204 51.4646Z" fill="#FDFDFD"/>
<path d="M62.4287 14.9256C63.4634 14.9255 64.4986 14.9412 65.5327 14.9185C66.0278 14.9077 66.236 15.0552 66.2302 15.5745C66.2069 17.6654 66.2213 19.7566 66.2203 21.8477C66.2201 22.0609 66.2662 22.3093 66.0183 22.421C65.7309 22.5504 65.5634 22.3206 65.3934 22.1551C63.1962 20.0159 61.0012 17.8743 58.8074 15.7317C58.6526 15.5805 58.4569 15.4275 58.5491 15.1785C58.6571 14.8865 58.9342 14.9272 59.1768 14.9266C60.2607 14.9244 61.3448 14.9258 62.4287 14.9256Z" fill="#FCFDFD"/>
<path fill-rule="evenodd" clip-rule="evenodd" d="M21.0884 40.6238C21.0887 41.3164 21.089 42.0089 21.089 42.7015C21.0891 43.6093 21.089 44.5172 21.089 45.425C21.0889 46.8783 21.0888 48.3316 21.0891 49.7849C21.0894 50.8713 21.4417 51.4155 22.1295 51.3986C22.8009 51.3821 23.1313 50.8677 23.1334 49.827C23.134 49.4811 23.1369 49.1352 23.1397 48.7893C23.1472 47.8691 23.1547 46.9489 23.1218 46.0302C23.1005 45.4332 23.258 45.2511 23.8765 45.2508C24.3154 45.2506 24.7549 45.262 25.1945 45.2734C26.4101 45.305 27.6266 45.3367 28.8323 45.1227C30.9841 44.7409 32.7746 43.7992 33.6101 41.6409C35.0162 38.0089 32.6564 34.4384 28.709 34.2557C27.2127 34.1864 25.7128 34.1927 24.213 34.1989C23.643 34.2013 23.073 34.2037 22.5033 34.2019C21.3393 34.1982 21.0925 34.4485 21.0903 35.6181C21.0871 37.2867 21.0878 38.9552 21.0884 40.6238ZM23.1377 38.8178C23.1367 39.1145 23.1357 39.4112 23.1357 39.7079V41.8233C23.1355 43.3962 23.1357 43.412 24.6827 43.3914C25.0653 43.3863 25.4488 43.3952 25.8323 43.4041C26.7869 43.4263 27.7418 43.4484 28.6845 43.2546C30.0956 42.9644 31.2349 42.2759 31.7271 40.8334C32.551 38.4186 30.9715 36.2326 28.236 36.0686C27.3022 36.0126 26.3652 36.0137 25.428 36.0148C24.8327 36.0155 24.2374 36.0163 23.6428 36.0023C23.1958 35.992 23.1224 36.189 23.1293 36.5716C23.1427 37.3202 23.1402 38.069 23.1377 38.8178Z" fill="#FDFDFD"/>
<path fill-rule="evenodd" clip-rule="evenodd" d="M38.734 51.2647C41.0772 51.9584 43.1508 51.4437 45.0085 49.6021C45.0151 49.7141 45.0223 49.8099 45.0288 49.8953C45.0407 50.0537 45.0499 50.176 45.0474 50.298C45.0338 50.9304 45.3104 51.3348 45.9562 51.3991C46.506 51.4539 46.9605 51.042 46.9599 50.3869C46.9593 49.6329 46.972 48.8785 46.9848 48.1241C47.0173 46.2009 47.0499 44.2776 46.8608 42.3604C46.7303 41.0381 46.111 39.8972 44.9283 39.2489C42.4091 37.8681 39.8521 38.2446 37.3376 39.3164C36.9305 39.4899 36.7427 39.909 36.92 40.3667C37.1043 40.8424 37.4869 41.0184 37.9808 40.9072C38.1172 40.8765 38.2484 40.8239 38.3798 40.7712C38.4524 40.7421 38.525 40.713 38.5986 40.6876C39.8329 40.2606 41.0843 40.0298 42.3965 40.2792C43.9873 40.5815 44.8512 41.5257 45.0316 43.1465C45.0962 43.727 45.0088 43.9078 44.3548 43.7535C42.4875 43.3129 40.5957 43.1743 38.7266 43.7557C36.8003 44.3549 35.7754 45.7054 35.7872 47.5492C35.7986 49.334 36.8485 50.7066 38.734 51.2647ZM43.1475 49.4462C44.4057 48.8146 45.1065 47.8124 45.0657 46.2366L45.0657 46.2258C45.0689 45.3903 45.069 45.3681 44.1357 45.1893C42.6987 44.9145 41.249 44.7283 39.8042 45.1133C38.463 45.4707 37.7763 46.3326 37.8045 47.5372C37.831 48.6666 38.5825 49.5068 39.8871 49.8264C41.0163 50.1029 42.1144 49.9647 43.1475 49.4462Z" fill="#F2F5F7"/>
<path fill-rule="evenodd" clip-rule="evenodd" d="M51.7636 15.2574C52.5719 15.925 52.6936 17.1308 52.0355 17.9507L41.22 31.4252C40.5619 32.2451 39.3731 32.3686 38.5649 31.701C37.7566 31.0335 37.6349 29.8276 38.293 29.0078L49.1085 15.5333C49.7666 14.7134 50.9553 14.5899 51.7636 15.2574Z" fill="white"/>
<path fill-rule="evenodd" clip-rule="evenodd" d="M38.1596 16.4474C38.1596 15.5121 38.907 14.7539 39.8291 14.7539H50.572C51.494 14.7539 52.2415 15.5121 52.2415 16.4474C52.2415 17.3827 51.494 18.1409 50.572 18.1409H39.8291C38.907 18.1409 38.1596 17.3827 38.1596 16.4474Z" fill="white"/>
<path fill-rule="evenodd" clip-rule="evenodd" d="M38.3773 30.4373C38.3773 29.502 39.1248 28.7438 40.0468 28.7438H50.7897C51.7118 28.7438 52.4592 29.502 52.4592 30.4373C52.4592 31.3726 51.7118 32.1308 50.7897 32.1308H40.0468C39.1248 32.1308 38.3773 31.3726 38.3773 30.4373Z" fill="white"/>
<path fill-rule="evenodd" clip-rule="evenodd" d="M5.67079 14.7539C6.72082 14.7539 7.57204 15.6047 7.57204 16.6542V30.3946C7.57204 31.4441 6.72082 32.2949 5.67079 32.2949C4.62075 32.2949 3.76953 31.4441 3.76953 30.3946V16.6542C3.76953 15.6047 4.62075 14.7539 5.67079 14.7539Z" fill="white"/>
<path fill-rule="evenodd" clip-rule="evenodd" d="M17.1898 15.3317C17.9207 16.0853 17.902 17.2883 17.148 18.0188L7.94472 26.9353C7.19077 27.6658 5.98711 27.6471 5.25627 26.8935C4.52543 26.1399 4.54416 24.9369 5.29811 24.2064L14.5014 15.2899C15.2553 14.5594 16.459 14.5781 17.1898 15.3317Z" fill="white"/>
<path fill-rule="evenodd" clip-rule="evenodd" d="M17.2934 31.8506C16.4627 32.4925 15.2686 32.3398 14.6263 31.5095L9.06601 24.3214C8.42375 23.4911 8.57653 22.2976 9.40724 21.6557C10.238 21.0138 11.432 21.1665 12.0743 21.9967L17.6346 29.1849C18.2769 30.0152 18.1241 31.2087 17.2934 31.8506Z" fill="white"/>
<path fill-rule="evenodd" clip-rule="evenodd" d="M22.7383 14.918C23.7976 14.918 24.6564 15.6241 24.6564 16.6759V30.4464C24.6564 31.4982 23.7976 32.1311 22.7383 32.1311C21.679 32.1311 20.8203 31.4982 20.8203 30.4464V16.6759C20.8203 15.6241 21.679 14.918 22.7383 14.918Z" fill="white"/>
<path fill-rule="evenodd" clip-rule="evenodd" d="M30.4842 14.918H22.8859V23.2682H30.4842C32.8066 23.2682 34.6892 21.3989 34.6892 19.0931C34.6892 16.7872 32.8066 14.918 30.4842 14.918ZM24.9515 18.2873C24.87 18.2873 24.8039 18.3529 24.8039 18.4338V21.6567C24.8039 21.7376 24.87 21.8032 24.9515 21.8032H29.0826C30.0604 21.8032 30.8531 21.0162 30.8531 20.0453C30.8531 19.0744 30.0604 18.2873 29.0826 18.2873H24.9515Z" fill="white"/>
<path fill-rule="evenodd" clip-rule="evenodd" d="M30.4316 32.1311H22.8859V23.1949H31.7173C33.8475 23.1949 35.5744 24.9096 35.5744 27.0247C35.5744 29.8449 33.2719 32.1311 30.4316 32.1311ZM24.92 28.6885C24.8559 28.6885 24.8039 28.6369 24.8039 28.5732V25.1414C24.8039 25.0777 24.8559 25.0261 24.92 25.0261H30.0416C31.0602 25.0261 31.8859 25.8459 31.8859 26.8573C31.8859 27.8686 31.0602 28.6885 30.0416 28.6885H24.92Z" fill="white"/>
</svg>
