<svg width="100" height="50" viewBox="0 0 100 50" fill="none" xmlns="http://www.w3.org/2000/svg">
<path fill-rule="evenodd" clip-rule="evenodd" d="M51.1216 14.2603L48.8091 9H66.8884C68.7805 9.07306 72.9429 10.2274 74.4565 14.2603C75.9701 18.2932 73.966 20.7626 72.7747 21.4932V22.1507C73.6156 23.1005 74.877 25.4384 74.877 27.411C74.877 29.1644 73.1952 33.5479 68.9907 34.4247C66.1899 35.0087 62.0288 35.6839 59.1773 36.1465C58.6043 36.2395 58.0841 36.3239 57.6386 36.3973L58.4795 30.9178L66.2578 29.8219C67.2388 29.6758 69.1168 28.8575 68.7805 26.7534C68.4441 24.6493 66.3979 24.4155 65.4169 24.5616L57.6386 25L55.7465 36.6164C54.6254 36.8356 52.2989 37.2301 51.9625 37.0548C51.9218 37.0336 51.8674 37.0083 51.8023 36.9781C51.1956 36.696 49.6704 35.9872 49.8603 34.2055C50.0284 32.6274 52.0326 21.5662 53.0136 16.2329C53.1538 15.5753 52.9716 14.2603 51.1216 14.2603ZM59.5306 14.0411H66.468C67.3089 14.0411 68.7805 15.0493 68.7805 16.4521C68.7805 17.8548 67.5191 19.0822 66.6782 19.0822L58.4795 19.5205L59.5306 14.0411Z" fill="currentColor"/>
<path fill-rule="evenodd" clip-rule="evenodd" d="M24.0027 9H41.0308C42.5026 9 46.7069 10.4904 48.3887 13.8219C50.4909 17.9863 47.3378 22.3699 46.4967 23.0274C46.3088 23.1743 46.3565 23.5388 46.4967 23.6849C47.3376 24.5616 49.0194 27.0164 49.0194 29.8219C49.0194 33.3288 45.6558 36.8356 44.1842 37.4932C42.7126 38.1507 32.8323 39.9041 31.3605 39.9041C31.1505 39.9041 32.2014 34.4247 32.2014 34.4247L39.7695 33.3288C40.6805 33.1096 42.5865 32.2329 42.9228 30.4795C43.3433 28.2877 41.8717 26.3151 39.5593 25.8767C37.7093 25.526 33.4628 25.8767 31.5707 26.0959L30.5196 32.8904L24.6333 33.5479L27.3663 15.5753C27.2962 15.0639 26.8197 14.0848 25.4742 14.2603C25.2642 14.2877 23.9326 12.1416 24.0027 10.9726V9ZM33.6732 14.0409H39.4806C41.4515 14.0411 43.1333 15.3562 43.1333 16.8902C43.1333 18.8749 41.6617 20.1779 40.6106 20.397C39.7697 20.5724 34.9345 20.7623 32.6221 20.8354L33.6732 14.0409Z" fill="currentColor"/>
<path d="M30.0992 34.6438L24.2129 35.5206C24.1428 36.3242 24.0027 38.1507 24.0027 39.0274C24.0027 40.1233 24.8436 40.7808 25.8947 40.7808C26.7356 40.7808 28.4875 40.3425 29.2583 40.1233L30.0992 34.6438Z" fill="currentColor"/>
<path d="M74.6667 41H36.4059C46.4967 39.4658 67.2668 36.3096 69.6213 35.9589C71.9759 35.6082 73.1251 36.9817 73.4054 37.7123L74.6667 40.5616V41Z" fill="currentColor"/>
</svg>
