<svg width="100" height="50" viewBox="0 0 100 50" fill="none" xmlns="http://www.w3.org/2000/svg">
<path d="M68.6609 30.5413C68.6609 32.0875 68.6976 33.6348 68.6524 35.1797C68.5813 37.6184 66.6531 39.7005 64.2981 39.9503C61.6831 40.2276 59.4273 38.7221 58.7802 36.2497C58.6833 35.8793 58.6196 35.4887 58.6182 35.1071C58.6074 31.9567 58.626 28.806 58.6052 25.6556C58.6021 25.1818 58.7489 25.0664 59.1958 25.0898C59.8754 25.1252 60.5608 25.1357 61.2387 25.0877C61.8011 25.0479 61.991 25.1758 61.9825 25.7928C61.941 28.8075 61.9557 31.8231 61.9599 34.8383C61.9614 35.9249 62.6704 36.6472 63.6724 36.6154C64.4723 36.5899 65.1202 36.0477 65.2634 35.2612C65.308 35.0161 65.3156 34.7618 65.316 34.5116C65.3194 31.593 65.3341 28.6742 65.3041 25.756C65.2983 25.204 65.4698 25.0693 65.9894 25.1011C66.6875 25.144 67.3917 25.1377 68.0908 25.1024C68.5397 25.0798 68.6908 25.1982 68.6818 25.6706C68.6509 27.2937 68.67 28.9177 68.67 30.5412C68.6668 30.5413 68.6638 30.5413 68.6609 30.5413Z" fill="currentColor"/>
<path d="M68.6702 18.5024C68.6697 20.1267 68.6598 21.7512 68.6777 23.3754C68.6816 23.7262 68.594 23.8448 68.226 23.8317C67.4285 23.8035 66.628 23.7979 65.8311 23.8332C65.4047 23.8521 65.3252 23.702 65.3275 23.3112C65.3436 20.3913 65.3375 17.4714 65.334 14.5513C65.3336 14.3013 65.3262 14.047 65.2813 13.8019C65.1142 12.8907 64.3983 12.3365 63.5005 12.4041C62.6304 12.4695 61.9737 13.1612 61.97 14.0744C61.9576 17.1102 61.9458 20.1465 61.9744 23.1821C61.9797 23.7335 61.8116 23.8628 61.2951 23.8335C60.5379 23.7907 59.7765 23.8156 59.017 23.8202C58.7816 23.8216 58.6081 23.815 58.6126 23.4946C58.6583 20.1313 58.46 16.7612 58.7042 13.4057C58.8951 10.7828 61.3405 8.84281 63.9588 9.01995C66.6866 9.20441 68.6906 11.3424 68.6724 14.0354C68.6624 15.5245 68.6706 17.0134 68.6702 18.5024Z" fill="currentColor"/>
<path d="M49.5441 25.0992C51.3862 25.0992 53.0588 25.1074 54.731 25.0916C55.0337 25.0887 55.186 25.2308 55.3396 25.4457C56.2637 26.7384 56.6286 28.1989 56.636 29.7579C56.6443 31.5166 56.6502 33.276 56.613 35.0341C56.553 37.881 54.29 40.0229 51.4453 39.9648C48.6544 39.9077 46.5537 37.7166 46.569 34.8809C46.5724 34.2624 46.5846 33.6433 46.5635 33.0256C46.5525 32.7051 46.6424 32.5797 46.9855 32.5882C47.8416 32.6092 48.6988 32.6087 49.5549 32.5882C49.8734 32.5805 49.9494 32.6938 49.9387 32.9877C49.9149 33.6442 49.906 34.3021 49.9204 34.9588C49.941 35.8925 50.5701 36.5533 51.4587 36.6083C52.3681 36.6646 53.2119 36.0632 53.2413 35.1488C53.3004 33.2993 53.4152 31.4379 53.1074 29.599C52.892 28.3115 52.209 27.2732 51.1799 26.4565C50.6669 26.0494 50.1713 25.6209 49.5441 25.0992Z" fill="currentColor"/>
<path d="M53.6502 23.8225C51.7828 23.8225 50.0762 23.8175 48.3696 23.8276C48.0982 23.8292 48.005 23.6501 47.8851 23.479C47.0957 22.3534 46.6908 21.0893 46.6621 19.7332C46.621 17.7823 46.6272 15.8296 46.6585 13.8784C46.6967 11.4996 48.6101 9.36923 50.9221 9.07241C53.5016 8.74123 55.793 10.1888 56.5117 12.597C56.8629 13.7735 56.649 14.9782 56.7088 16.1692C56.7204 16.4003 56.5677 16.4024 56.4024 16.4021C55.4875 16.4007 54.5726 16.3947 53.6578 16.4057C53.3957 16.4089 53.3276 16.3042 53.332 16.0617C53.344 15.4049 53.346 14.7474 53.3326 14.0906C53.3124 13.1065 52.6427 12.4149 51.7118 12.3956C50.7758 12.3762 50.0381 13.0302 50.0164 14.0098C49.9816 15.5728 49.8836 17.1381 50.0337 18.7011C50.1769 20.1926 50.8139 21.4338 51.9585 22.412C52.4739 22.8523 52.9996 23.2806 53.6502 23.8225Z" fill="currentColor"/>
<path d="M23.5252 32.5221C23.5252 30.2214 23.5393 27.9205 23.5132 25.6202C23.5081 25.1691 23.6458 25.0861 24.0679 25.0893C26.6383 25.1092 29.209 25.1153 31.7792 25.0851C32.2754 25.0793 32.2799 25.2834 32.293 25.6577C32.3074 26.0722 32.2214 26.226 31.7586 26.2142C30.299 26.1769 28.8378 26.2082 27.3779 26.1797C26.9832 26.1719 26.9013 26.2968 26.9027 26.6651C26.9143 29.8164 26.9142 32.9679 26.893 36.1191C26.8902 36.532 27.007 36.6254 27.4083 36.6193C28.8684 36.5973 30.3293 36.6331 31.7893 36.6089C32.2133 36.6018 32.3084 36.7374 32.2924 37.1301C32.2593 37.9409 32.2605 38.7539 32.2781 39.5655C32.2851 39.8911 32.1924 39.9943 31.8554 39.9927C29.2265 39.9799 26.5976 39.9785 23.9688 39.9937C23.607 39.9958 23.5145 39.8957 23.5169 39.5402C23.5332 37.2009 23.5252 34.8615 23.5252 32.5221Z" fill="currentColor"/>
<path d="M74.3288 17.6021C74.3288 19.1676 74.3423 20.7331 74.3195 22.2983C74.3136 22.6986 74.4149 22.8255 74.8327 22.8183C76.3117 22.7929 77.7918 22.8274 79.2706 22.7972C79.7281 22.7878 79.7539 22.9845 79.7595 23.3442C79.7652 23.7089 79.6807 23.8354 79.2835 23.8326C76.6557 23.8141 74.0276 23.8136 71.3998 23.833C70.992 23.836 70.9308 23.691 70.9315 23.3357C70.9418 18.736 70.9434 14.1362 70.9294 9.53653C70.9282 9.135 71.0286 9.01578 71.4436 9.01799C74.0324 9.03146 76.6215 9.026 79.2102 9.00081C79.6385 8.99663 79.7873 9.09275 79.764 9.5407C79.7227 10.331 79.7278 11.1257 79.7571 11.9169C79.7713 12.303 79.6503 12.4072 79.2689 12.402C77.7897 12.3817 76.3098 12.4097 74.8308 12.3838C74.4102 12.3765 74.314 12.5083 74.3196 12.9058C74.3419 14.471 74.3288 16.0366 74.3288 17.6021Z" fill="currentColor"/>
<path d="M23.5363 16.3897C23.5363 14.109 23.5494 11.828 23.5249 9.54742C23.5202 9.1077 23.6391 8.99894 24.0735 9.003C26.6431 9.02761 29.2131 9.03248 31.7828 9.01577C32.2033 9.01298 32.3011 9.13649 32.2848 9.5314C32.2522 10.3226 32.2467 11.1171 32.2808 11.908C32.2991 12.3328 32.1469 12.4182 31.7519 12.4115C30.2921 12.3863 28.8317 12.408 27.3719 12.3843C27.0009 12.3783 26.882 12.4636 26.8843 12.8541C26.9013 16.0047 26.9011 19.1555 26.8846 22.306C26.8825 22.7004 26.966 22.8289 27.3876 22.8208C28.8667 22.7929 30.3473 22.8325 31.826 22.7973C32.3129 22.7857 32.2762 23.0233 32.2944 23.3554C32.3149 23.7319 32.2029 23.8353 31.8177 23.8326C29.209 23.8147 26.6001 23.8145 23.9913 23.8327C23.5988 23.8355 23.5144 23.7172 23.5171 23.3482C23.5335 21.0288 23.5254 18.7093 23.5254 16.3898C23.529 16.3897 23.5327 16.3897 23.5363 16.3897Z" fill="currentColor"/>
<path d="M87.7916 18.1502C87.7916 19.8909 87.7817 21.6316 87.7997 23.3721C87.8034 23.7242 87.7164 23.8435 87.3485 23.8315C86.5312 23.8047 85.7111 23.7966 84.8947 23.8338C84.4593 23.8536 84.3965 23.691 84.3982 23.3078C84.4126 19.8652 84.3958 16.4225 84.4186 12.98C84.4219 12.4879 84.282 12.358 83.8027 12.383C83.0256 12.4234 82.2446 12.3827 81.4657 12.3993C81.1564 12.4059 81.0104 12.345 81.0209 11.9908C81.0469 11.1213 81.0409 10.2503 81.0281 9.38016C81.0241 9.1076 81.1059 9.00592 81.3893 9.00661C84.4282 9.01369 87.4673 9.01427 90.5062 9.00638C90.8138 9.00557 90.8469 9.15276 90.8437 9.3999C90.8327 10.2702 90.8246 11.1408 90.8419 12.0107C90.8483 12.33 90.7174 12.4035 90.4283 12.3982C89.7079 12.3847 88.986 12.4155 88.2664 12.3853C87.8782 12.3689 87.7792 12.4953 87.7831 12.8704C87.802 14.6301 87.7916 16.3902 87.7916 18.1502Z" fill="currentColor"/>
<path d="M41.3972 18.1799C41.3972 19.8808 41.3847 21.5817 41.4064 23.2823C41.4115 23.6858 41.3543 23.863 40.8834 23.8359C40.088 23.7898 39.2871 23.8022 38.4901 23.8323C38.1042 23.8469 38.0088 23.73 38.0104 23.3529C38.0252 19.9127 38.0042 16.4723 38.0342 13.0322C38.039 12.4798 37.8685 12.3644 37.3611 12.3921C36.6042 12.4333 35.8429 12.3891 35.0842 12.4092C34.7577 12.4179 34.6395 12.3235 34.6492 11.987C34.6736 11.1373 34.6747 10.2864 34.6624 9.43623C34.6575 9.10157 34.7896 9.01927 35.1107 9.01996C38.0696 9.02635 41.0286 9.0231 43.9875 9.00534C44.3411 9.00325 44.4579 9.08845 44.4452 9.45376C44.4156 10.3032 44.4209 11.1545 44.4383 12.0045C44.4446 12.3103 44.3465 12.4066 44.0417 12.3983C43.3609 12.3795 42.6751 12.438 41.9992 12.3783C41.4458 12.3294 41.3786 12.5455 41.3862 13.0197C41.414 14.7393 41.3972 16.4597 41.3972 18.1799Z" fill="currentColor"/>
<path d="M70.9385 32.5712C70.9385 30.2525 70.9469 27.9338 70.9302 25.6152C70.9274 25.2256 71.0136 25.0862 71.4377 25.0893C74.0455 25.1091 76.6537 25.1147 79.2613 25.0857C79.7685 25.08 79.7533 25.313 79.7693 25.6727C79.7866 26.0617 79.695 26.2099 79.2658 26.2021C77.8066 26.1755 76.3464 26.2095 74.8872 26.1812C74.4514 26.1727 74.3373 26.2859 74.3389 26.7226C74.3546 30.9348 74.3356 35.1472 74.3563 39.3594C74.3588 39.8719 74.2312 40.0276 73.7138 39.9961C72.9577 39.95 72.1953 39.9593 71.4379 39.994C71.0124 40.0135 70.9267 39.8622 70.9297 39.4695C70.9475 37.17 70.9385 34.8706 70.9385 32.5712Z" fill="currentColor"/>
<path d="M41.3877 32.5122C41.3877 34.8324 41.3787 37.1525 41.3964 39.4725C41.3995 39.8641 41.3153 40.0132 40.8905 39.9954C40.074 39.9613 39.2547 39.9723 38.4373 39.9922C38.1253 39.9997 38.002 39.9412 38.0032 39.5917C38.0179 34.8935 38.0205 30.1953 38.0117 25.4971C38.011 25.1463 38.1427 25.0868 38.4522 25.0931C39.2892 25.1107 40.1277 25.1209 40.9639 25.0894C41.3464 25.075 41.4064 25.2143 41.4045 25.5519C41.3909 27.8719 41.3974 30.192 41.3974 32.5121C41.394 32.5122 41.3908 32.5122 41.3877 32.5122Z" fill="currentColor"/>
<path d="M87.7916 32.5106C87.7916 34.8292 87.7829 37.1478 87.8 39.4663C87.8029 39.8572 87.7162 40.0106 87.2914 39.9937C86.4754 39.9611 85.6568 39.9722 84.8398 39.9902C84.5286 39.997 84.3983 39.9347 84.3991 39.5847C84.4103 34.8896 84.4103 30.1944 84.3991 25.4994C84.3983 25.15 84.5276 25.086 84.84 25.093C85.6569 25.1112 86.4756 25.1233 87.2916 25.0893C87.7163 25.0715 87.8034 25.2194 87.8003 25.6129C87.7824 27.9121 87.7916 30.2114 87.7916 32.5106Z" fill="currentColor"/>
<path d="M97.8566 30.268C97.0004 29.3785 96.1538 28.4793 95.2851 27.6019C94.344 26.6514 93.3825 25.7209 92.4294 24.7822C92.2671 24.6224 92.0741 24.513 92.3507 24.2441C94.1993 22.4464 96.0302 20.6306 97.8687 18.8225C97.891 18.8006 97.9376 18.8028 98 18.7868C98 22.5835 98 26.3718 98 30.1601C97.9522 30.1961 97.9044 30.2321 97.8566 30.268Z" fill="currentColor"/>
<path d="M2 18.5268C2.45885 19.0237 2.79764 19.4163 3.16332 19.7824C4.6162 21.2375 6.07926 22.6827 7.53285 24.1371C7.6701 24.2744 7.95686 24.3727 7.65572 24.6643C5.79027 26.47 3.93944 28.2905 2.00012 30.1879C2 26.2932 2 22.5125 2 18.5268Z" fill="currentColor"/>
<path fill-rule="evenodd" clip-rule="evenodd" d="M11.0034 14.6928C11.0027 15.2789 11.002 15.8649 11.002 16.4509C11.002 16.6404 11.002 16.83 11.0021 17.0195C11.0022 17.392 11.0024 17.7645 11.0027 18.1369C11.0037 19.8931 11.0048 21.6492 10.9956 23.4052C10.9939 23.7322 11.0334 23.8809 11.4272 23.8782C14.151 23.8597 16.8751 23.8635 19.5991 23.8756C19.8995 23.8769 20.0546 23.7639 20.1874 23.5171C20.6198 22.7138 20.788 21.8553 20.7845 20.9536C20.7823 20.3691 20.7795 19.7846 20.7767 19.2001V19.1997C20.7686 17.505 20.7604 15.8103 20.7658 14.1157C20.7749 11.2264 18.6292 9.03889 15.726 9.01497C15.1706 9.01035 14.6151 9.01247 14.0597 9.0146C13.2141 9.01786 12.3685 9.02109 11.5235 9.00057C11.0631 8.98943 10.9887 9.14046 10.9923 9.55462C11.0074 11.2672 11.0054 12.98 11.0034 14.6928ZM14.3435 16.3502C14.3429 16.7679 14.3423 17.1856 14.3423 17.6034C14.3423 18.994 14.3423 20.3847 14.3422 21.7753C14.3422 22.2929 14.3422 22.5541 14.4737 22.6847C14.6077 22.8177 14.8782 22.8152 15.4242 22.8101C16.752 22.7977 17.3665 22.1804 17.3664 20.8468C17.3663 20.2066 17.3602 19.5661 17.3541 18.9257L17.354 18.9213C17.3411 17.5734 17.3282 16.2255 17.3719 14.8794C17.4369 12.8783 16.7471 12.2721 14.7772 12.38C14.4024 12.4006 14.3325 12.5168 14.3356 12.8522C14.3467 14.0181 14.3451 15.1841 14.3435 16.3502Z" fill="currentColor"/>
<path fill-rule="evenodd" clip-rule="evenodd" d="M11.0117 30.7746C11.011 31.3529 11.0104 31.9312 11.0104 32.5095C11.0104 33.0959 11.011 33.6823 11.0116 34.2688C11.0134 36.0202 11.0152 37.7717 11.0009 39.5231C10.9978 39.9079 11.1082 39.9999 11.4836 39.9945C12.4423 39.9805 13.4013 39.9824 14.3603 39.9843C14.8804 39.9853 15.4005 39.9864 15.9205 39.9849C18.9522 39.9762 21.1314 37.7851 21.1158 34.7804C21.1038 32.4426 21.1024 30.1049 21.1054 27.7672C21.1065 26.9783 20.9107 26.2449 20.5705 25.5375C20.4269 25.2389 20.2353 25.133 19.8928 25.1348C17.0906 25.1502 14.2882 25.1503 11.4858 25.1353C11.1099 25.1332 10.9972 25.224 11.0006 25.6119C11.0154 27.3313 11.0136 29.0507 11.0117 30.7702V30.7746ZM14.3937 30.1503C14.3928 30.5744 14.392 30.9985 14.392 31.4226C14.392 32.6971 14.3921 33.9716 14.3921 35.2461C14.3921 35.939 14.3921 36.2836 14.5656 36.4544C14.7373 36.6233 15.0788 36.622 15.7582 36.6194C17.0885 36.6144 17.6994 36.0013 17.7076 34.6636C17.71 34.2751 17.7127 33.8865 17.7155 33.498C17.7214 32.6701 17.7272 31.8423 17.7296 31.0144C17.73 30.8572 17.7312 30.6998 17.7328 30.5425C17.7341 30.4093 17.7356 30.2761 17.7372 30.1429C17.7465 29.3518 17.7557 28.5605 17.7129 27.7722C17.6617 26.8303 17.0138 26.2572 16.084 26.2114C15.9045 26.2025 15.7242 26.2052 15.5439 26.2078H15.543C15.3145 26.2112 15.0861 26.2146 14.8597 26.1944C14.4696 26.1597 14.3785 26.3002 14.3833 26.6723C14.3983 27.8306 14.396 28.989 14.3937 30.1475V30.1503Z" fill="currentColor"/>
</svg>
