<svg width="100" height="48" viewBox="0 0 100 48" fill="none" xmlns="http://www.w3.org/2000/svg">
<g clip-path="url(#clip0_1746_120760)">
<path d="M100.416 32.6167H99.6039V15.2852H100.416V32.6167Z" fill="currentColor"/>
<path d="M7.55529 24.616C7.9738 24.616 8.36779 24.739 8.56474 25.059C8.81076 25.4282 8.85983 25.8712 8.85983 26.3142C8.85983 26.7573 8.78606 27.2248 8.49075 27.5448C8.21995 27.8156 7.80117 27.9147 7.38265 27.9147H5.90633V24.616H7.55529Z" fill="currentColor"/>
<path d="M7.03823 19.9871C7.5306 19.9871 7.87557 20.0855 8.17099 20.3809C8.46639 20.6763 8.54008 21.1198 8.54008 21.5383C8.51545 21.932 8.44152 22.3502 8.17099 22.6455C7.92483 22.9163 7.60462 23.0894 7.16154 23.0895H5.90633V19.9871H7.03823Z" fill="currentColor"/>
<path fill-rule="evenodd" clip-rule="evenodd" d="M13.2914 15.2852C13.6605 15.2852 13.9865 15.5879 14.0057 15.9502V31.853C14.0057 32.2715 13.6852 32.592 13.2667 32.592H1.15418C0.735857 32.5918 0.416016 32.2714 0.416016 31.853V16.0233C0.416213 15.6051 0.735986 15.2854 1.15418 15.2852H13.2914ZM3.76412 29.7363H7.89971C8.78585 29.7117 9.64774 29.4409 10.337 28.8502C10.9771 28.3086 11.2971 27.4467 11.2971 26.3389C11.2971 25.6742 11.1494 25.1568 10.8294 24.6644C10.5094 24.1722 10.0416 23.8274 9.47554 23.729C9.94326 23.532 10.3375 23.212 10.5836 22.7688C10.8543 22.3258 10.9527 21.8332 10.9527 21.3163C10.9526 20.381 10.6571 19.5192 9.94327 18.9777C9.22937 18.4362 8.4166 18.1902 7.40732 18.1902H3.76412V29.7363Z" fill="currentColor"/>
<path d="M28.3821 32.592H27.6439V15.2852H28.3821V32.592Z" fill="currentColor"/>
<path d="M42.7839 32.592H41.9718V15.2852H42.7839V32.592Z" fill="currentColor"/>
<path d="M57.1858 32.592H56.3983V15.2852H57.1858V32.592Z" fill="currentColor"/>
<path d="M71.5876 32.592H70.7755V15.2852H71.5876V32.592Z" fill="currentColor"/>
<path d="M85.9895 32.592H85.1773V15.2852H85.9895V32.592Z" fill="currentColor"/>
<path d="M20.8984 18.0184C21.9077 18.0184 22.8676 18.2399 23.6061 18.9292C24.2953 19.5692 24.6155 20.4796 24.6402 21.415V21.4643H23.0899C23.1145 20.8737 22.9172 20.2584 22.5235 19.8153C22.1296 19.3968 21.5385 19.249 20.923 19.249C20.283 19.249 19.6671 19.5195 19.2732 20.0365C18.8547 20.5534 18.683 21.2679 18.683 22.2526V25.6985C18.683 26.6833 18.9041 27.4224 19.3472 27.9394C19.7903 28.4564 20.431 28.7269 21.1203 28.7269C21.5633 28.7269 22.031 28.6533 22.4002 28.4318C22.6956 28.2595 22.8929 27.9882 23.0406 27.6928V25.0837H21.071V23.8523H24.6402V28.038C24.3202 28.5549 23.8772 28.9979 23.3603 29.2933C22.6711 29.7117 21.8834 29.8596 21.0957 29.8596C20.0125 29.8596 18.9291 29.5147 18.166 28.7516C17.4275 28.0377 17.0579 26.9546 17.0579 25.6007V22.228C17.0579 20.8986 17.4273 19.8642 18.1167 19.1503C18.8306 18.3872 19.8399 18.0184 20.8984 18.0184Z" fill="currentColor"/>
<path d="M92.8583 17.9929C93.8676 17.9929 94.8276 18.2145 95.5661 18.9037C96.2554 19.5438 96.5756 20.4548 96.6002 21.3903V21.4396H94.975C94.9996 20.8488 94.8025 20.233 94.4087 19.7898C94.0148 19.3716 93.4243 19.2235 92.809 19.2234C92.1689 19.2234 91.5531 19.4948 91.1592 20.0118C90.7408 20.5287 90.5682 21.2426 90.5682 22.2271V25.6739C90.5682 26.6585 90.7901 27.3969 91.2332 27.9139C91.6763 28.4308 92.3162 28.7022 93.0055 28.7022C93.4486 28.7022 93.9169 28.6278 94.2862 28.4063C94.5813 28.234 94.7781 27.9633 94.9257 27.6681V25.0828H93.0301V23.8523H96.6002V28.0372C96.2801 28.5542 95.8364 28.997 95.3195 29.2924C94.6302 29.7109 93.8425 29.8588 93.0548 29.8588C91.9716 29.8588 90.8882 29.5138 90.1251 28.7507C89.3868 28.0368 89.0178 26.9537 89.0178 25.5999V22.2025C89.0179 20.8734 89.3867 19.8395 90.0758 19.1257C90.7897 18.3625 91.7997 17.9929 92.8583 17.9929Z" fill="currentColor"/>
<path fill-rule="evenodd" clip-rule="evenodd" d="M39.5098 29.7117H37.8855L37.0478 26.8066H33.3553L32.5185 29.7117H30.8687L34.4388 18.1902H35.9899L39.5098 29.7117ZM33.6997 25.5514H36.6294L35.2016 20.5288H35.1523L33.6997 25.5514Z" fill="currentColor"/>
<path d="M49.5788 27.299L52.0407 18.1902H54.1583V29.7117H52.5331V25.2801L52.6811 20.8486H52.6318L50.1205 29.7117H49.0371L46.5258 20.8486H46.502L46.6244 25.2801V29.7117H45.0248V18.1902H47.0922L49.5788 27.299Z" fill="currentColor"/>
<path d="M66.6884 19.4454H64.7681V28.4318H66.6884V29.7117H61.2482V28.4071H63.1685V19.4207H61.2482V18.1902H66.6884V19.4454Z" fill="currentColor"/>
<path d="M80.5238 26.7573L80.5978 26.7327V18.1902H82.1983V29.7117H80.5978L76.2403 21.1445H76.1672V29.7117H74.5667V18.1902H76.1672L80.5238 26.7573Z" fill="currentColor"/>
</g>
<defs>
<clipPath id="clip0_1746_120760">
<rect width="100" height="48" fill="currentColor"/>
</clipPath>
</defs>
</svg>
