<svg width="100" height="50" viewBox="0 0 100 50" fill="none" xmlns="http://www.w3.org/2000/svg">
<path d="M26.9014 14.223V10.4223C28.5813 10.2816 31.9412 10.4223 34.0412 12.1115C35.9534 13.6498 36.9811 15.4899 36.9811 19.7129C36.9811 23.5136 31.5212 25.2029 32.7812 25.2029C34.0412 25.2029 37.821 26.4698 37.821 30.6928C37.821 34.9158 36.6724 36.8378 35.3011 37.8719C33.6212 39.1388 29.2813 40.1242 27.3214 39.9834V36.605C28.5813 36.605 29.0013 35.4789 29.0013 34.9158V29.0036C29.0013 27.3144 29.0013 26.4698 27.7414 26.4698C26.7334 26.4698 26.0614 26.4698 25.6414 25.6252C25.3614 24.7806 25.2215 23.0914 26.9014 23.0914C28.5813 23.0914 29.0013 22.2468 29.0013 21.8245V15.0676C29.0013 14.392 27.6014 14.223 26.9014 14.223Z" fill="currentColor"/>
<path d="M51.2606 13.8007V10.4223C41.6009 11.6892 40.7609 21.8245 40.7609 22.2467C40.7609 22.669 39.921 30.2705 43.2808 35.3381C45.6676 38.9379 49.4406 39.9834 50.8406 39.9834V36.605C50.5606 36.605 49.9166 36.5205 49.5806 36.1827C49.2446 35.8448 49.1606 35.1973 49.1606 34.9158V15.4899C49.1606 14.1386 50.5606 13.8007 51.2606 13.8007Z" fill="currentColor"/>
<path d="M54.2005 22.669C51.5126 22.669 50.0006 23.5136 49.5806 23.9359V27.7367L51.2606 26.8921C51.9326 26.5542 52.5205 26.8921 52.5205 28.159V34.4935C52.5205 36.5205 51.6806 36.605 51.2606 36.605V39.9834C51.2606 39.9834 60.0803 39.5611 60.5003 30.2705C60.7291 25.2081 57.5604 22.669 54.2005 22.669Z" fill="currentColor"/>
<path d="M75.1998 11.6892C71.7733 11.6892 67.22 10.9854 65.1201 10.4223L64.7001 18.0237C64.7001 18.0237 73.5198 19.7129 77.2997 16.7568C79.6718 14.9017 81.0796 11.6892 81.4995 10C81.4995 10 78.5596 11.6892 75.1998 11.6892Z" fill="currentColor"/>
<path d="M67.64 19.713L64.7001 19.2906L64.2801 24.3582C64.2801 25.2028 64.2925 26.0599 64.7001 26.4698C65.5401 27.3144 66.8 26.8921 68.06 26.0475C69.068 25.3718 70.4399 24.9213 70.9999 24.7805V20.9798C70.9999 20.9798 67.92 22.106 67.22 22.669L67.64 19.713Z" fill="currentColor"/>
<path d="M71.4199 24.7805V20.9798C77.2997 20.5575 81.4523 23.8832 81.9195 28.5813C82.3395 32.8043 81.0796 36.1827 78.9796 37.8719C77.1245 39.3642 72.8781 40.1242 71.3382 39.9834V37.0273C71.3382 37.0273 73.9398 36.8865 73.9398 34.4935V26.8921C73.9398 25.2029 71.9799 24.7805 71.4199 24.7805Z" fill="currentColor"/>
<path d="M26.4813 14.223V10.4223C21.0215 10.8446 19.3416 14.6453 18.9216 16.7568C18.5016 18.8683 19.7616 22.2467 22.7015 22.2467C25.6414 22.2467 27.3213 20.1352 27.3213 18.0237C27.3213 15.9122 25.2214 15.0676 25.2214 14.6453C25.2214 14.3075 26.0613 14.223 26.4813 14.223Z" fill="currentColor"/>
<path d="M51.6805 13.8007V10.4223C57.1403 10.8446 59.2402 13.8007 59.6602 15.9122C60.1811 18.5313 58.8202 21.8244 55.8803 21.8244C52.9404 21.8244 51.6806 19.7129 51.6806 18.0237C51.6806 15.9122 53.3604 15.0676 53.3604 14.6453C53.3604 13.8844 52.1005 13.8007 51.6805 13.8007Z" fill="currentColor"/>
<path d="M26.9801 36.605V39.9834C21.5202 39.5611 18.5016 36.605 18.0814 34.0712C17.5929 31.1257 19.3416 28.159 22.2815 28.159C25.2214 28.159 26.4813 30.2705 26.4813 32.382C26.4813 34.4935 24.8014 35.7604 24.8014 36.1827C24.8014 36.5205 26.5601 36.605 26.9801 36.605Z" fill="currentColor"/>
<path d="M70.9998 37.0273L71.0003 39.9834C65.5405 39.5611 63.96 36.1602 63.4405 34.0712C62.8494 31.6944 64.2807 28.5813 66.8004 28.5813C69.7403 28.5813 71.0003 30.2705 71.0003 32.382C71.0003 34.4935 68.8999 35.3381 68.9004 36.1827C68.9006 36.5205 70.5798 37.0273 70.9998 37.0273Z" fill="currentColor"/>
</svg>
