<!-- <svg width="48" height="48" viewBox="0 0 48 48" fill="none" xmlns="http://www.w3.org/2000/svg">
<circle cx="30" cy="24" r="18" fill="#FFF4F4"/>
<line x1="17.4375" y1="19.125" x2="17.4375" y2="23.375" stroke="#FFCDCB" stroke-width="4" stroke-linecap="round"/>
<line x1="29.125" y1="19.125" x2="29.125" y2="23.375" stroke="#FFCDCB" stroke-width="4" stroke-linecap="round"/>
<path d="M39.5469 32.0192C42.1287 28.9816 43.6344 25.2175 43.6344 21.2328C43.6344 11.6544 34.9341 3.35014 23.5 3.35014C12.0659 3.35014 3.36559 11.6544 3.36559 21.2328C3.36559 29.4476 9.76503 36.7251 18.8 38.6308V42.0409C8.07347 40.0735 0 31.505 0 21.2328C0 9.50625 10.5213 0 23.5 0C36.4787 0 47 9.50625 47 21.2328C47 26.1009 45.1868 30.5864 42.1373 34.1679L39.5469 32.0192Z" fill="#FFCDCB"/>
<path fill-rule="evenodd" clip-rule="evenodd" d="M32.8274 39.1807C33.4277 39.8869 33.3392 40.9439 32.6297 41.5414L27.2077 47.1082C25.7525 48.3339 23.6088 48.2916 22.2035 47.0094L17.2588 41.4975C16.5737 40.8724 16.5274 39.8128 17.1554 39.1308C17.7834 38.4489 18.8479 38.4028 19.533 39.0279L24.4777 44.5398C24.6339 44.6823 24.8721 44.687 25.0338 44.5508L30.4558 38.984C31.1652 38.3864 32.2271 38.4745 32.8274 39.1807Z" fill="#FFCDCB"/>
<path d="M41.9426 31.931C42.6223 32.5619 42.6595 33.6218 42.0257 34.2984C41.3918 34.975 40.327 35.0121 39.6473 34.3811C38.9676 33.7502 38.9304 32.6903 39.5642 32.0137C40.198 31.3371 41.2629 31.3001 41.9426 31.931Z" fill="#FFCDCB"/>
</svg> -->

<svg width="48" height="48" viewBox="0 0 48 48" fill="none" xmlns="http://www.w3.org/2000/svg">
<circle cx="30" cy="24" r="18" fill="#FEAAA1"/>
<line x1="17.4375" y1="19.1251" x2="17.4375" y2="23.3751" stroke="#F74747" stroke-width="4" stroke-linecap="round"/>
<line x1="29.125" y1="19.1251" x2="29.125" y2="23.3751" stroke="#F74747" stroke-width="4" stroke-linecap="round"/>
<path d="M39.5469 32.0192C42.1287 28.9816 43.6344 25.2175 43.6344 21.2328C43.6344 11.6544 34.9341 3.35014 23.5 3.35014C12.0659 3.35014 3.36559 11.6544 3.36559 21.2328C3.36559 29.4476 9.76503 36.7251 18.8 38.6308V42.0409C8.07347 40.0735 0 31.505 0 21.2328C0 9.50625 10.5213 0 23.5 0C36.4787 0 47 9.50625 47 21.2328C47 26.1009 45.1868 30.5864 42.1373 34.1679L39.5469 32.0192Z" fill="#F74747"/>
<path fill-rule="evenodd" clip-rule="evenodd" d="M32.8274 39.1807C33.4277 39.8869 33.3392 40.9439 32.6297 41.5414L27.2077 47.1082C25.7525 48.3339 23.6088 48.2916 22.2035 47.0094L17.2588 41.4975C16.5737 40.8724 16.5274 39.8128 17.1554 39.1308C17.7834 38.4489 18.8479 38.4028 19.533 39.0279L24.4777 44.5398C24.6339 44.6823 24.8721 44.687 25.0338 44.5508L30.4558 38.984C31.1652 38.3864 32.2271 38.4745 32.8274 39.1807Z" fill="#F74747"/>
<path d="M41.9426 31.931C42.6223 32.5619 42.6595 33.6218 42.0257 34.2984C41.3918 34.975 40.327 35.0121 39.6473 34.3811C38.9676 33.7502 38.9304 32.6903 39.5642 32.0137C40.198 31.3371 41.2629 31.3001 41.9426 31.931Z" fill="#F74747"/>
</svg>

