<svg width="60" height="60" viewBox="0 0 60 60" fill="none" xmlns="http://www.w3.org/2000/svg">
<mask id="mask0_186_1863" style="mask-type:luminance" maskUnits="userSpaceOnUse" x="0" y="0" width="60" height="60">
<path d="M60 0H0V60H60V0Z" fill="white"/>
</mask>
<g mask="url(#mask0_186_1863)">
<path fill-rule="evenodd" clip-rule="evenodd" d="M18.7107 56.7194C22.3053 58.2398 26.0684 59 30 59C33.9316 59 37.6947 58.2398 41.2893 56.7194C44.7593 55.2517 47.8316 53.1806 50.5061 50.5061C53.1806 47.8316 55.2517 44.7593 56.7194 41.2893C58.2398 37.6947 59 33.9316 59 30C59 26.0684 58.2398 22.3053 56.7194 18.7107C55.2517 15.2407 53.1806 12.1684 50.5061 9.4939C47.8316 6.81938 44.7593 4.74833 41.2893 3.28064C37.6947 1.76024 33.9316 1 30 1C26.0684 1 22.3053 1.76024 18.7107 3.28064C15.2407 4.74832 12.1684 6.81938 9.4939 9.4939C6.81938 12.1684 4.7483 15.2407 3.28061 18.7107C1.76021 22.3053 1 26.0684 1 30C1 33.9316 1.76021 37.6947 3.28061 41.2893C4.74829 44.7593 6.81938 47.8316 9.4939 50.5061C12.1684 53.1806 15.2407 55.2517 18.7107 56.7194ZM55 30C55 43.8071 43.8071 55 30 55C16.1929 55 5 43.8071 5 30C5 16.1929 16.1929 5 30 5C43.8071 5 55 16.1929 55 30Z" fill="white"/>
<path d="M15.5858 41.5858L41.5858 15.5858C41.6321 15.5395 41.6806 15.4955 41.7312 15.454C41.7819 15.4124 41.8344 15.3734 41.8889 15.337C41.9434 15.3006 41.9995 15.2671 42.0572 15.2362C42.115 15.2053 42.1741 15.1773 42.2346 15.1522C42.2951 15.1272 42.3567 15.1051 42.4194 15.0861C42.4821 15.067 42.5456 15.0512 42.6098 15.0385C42.6741 15.0257 42.7388 15.0161 42.804 15.0096C42.8691 15.0032 42.9345 15 43 15C43.0655 15 43.1309 15.0032 43.196 15.0096C43.2612 15.0161 43.3259 15.0257 43.3902 15.0385C43.4544 15.0512 43.5179 15.067 43.5806 15.0861C43.6433 15.1051 43.7049 15.1272 43.7654 15.1522C43.8259 15.1773 43.885 15.2053 43.9428 15.2362C44.0005 15.2671 44.0566 15.3006 44.1111 15.337C44.1656 15.3734 44.2181 15.4124 44.2688 15.454C44.3194 15.4955 44.3679 15.5395 44.4142 15.5858C44.4605 15.6321 44.5045 15.6806 44.546 15.7312C44.5876 15.7818 44.6266 15.8344 44.6629 15.8889C44.6993 15.9434 44.7329 15.9995 44.7638 16.0573C44.7947 16.115 44.8227 16.1741 44.8478 16.2346C44.8729 16.2951 44.8949 16.3568 44.9139 16.4194C44.9329 16.4821 44.9488 16.5456 44.9616 16.6099C44.9743 16.6741 44.9839 16.7388 44.9904 16.804C44.9968 16.8691 45 16.9345 45 17C45 17.0655 44.9968 17.1309 44.9904 17.196C44.9839 17.2612 44.9743 17.3259 44.9616 17.3901C44.9488 17.4544 44.9329 17.5179 44.9139 17.5806C44.8949 17.6432 44.8729 17.7049 44.8478 17.7654C44.8227 17.8259 44.7947 17.885 44.7638 17.9427C44.7329 18.0005 44.6993 18.0566 44.6629 18.1111C44.6266 18.1656 44.5876 18.2182 44.546 18.2688C44.5045 18.3194 44.4605 18.3679 44.4142 18.4142L18.4142 44.4142C18.3679 44.4605 18.3194 44.5045 18.2688 44.546C18.2182 44.5876 18.1656 44.6265 18.1111 44.6628C18.0567 44.6992 18.0006 44.7329 17.9428 44.7638C17.885 44.7947 17.8259 44.8227 17.7654 44.8478C17.7049 44.8728 17.6432 44.8949 17.5806 44.9139C17.5179 44.9329 17.4544 44.9487 17.3902 44.9615C17.3259 44.9743 17.2612 44.9839 17.196 44.9904C17.1309 44.9968 17.0655 45 17 45C16.9345 45 16.8691 44.9968 16.804 44.9904C16.7388 44.9839 16.6741 44.9743 16.6098 44.9615C16.5456 44.9487 16.4821 44.9329 16.4194 44.9139C16.3568 44.8949 16.2951 44.8728 16.2346 44.8478C16.1741 44.8227 16.115 44.7947 16.0572 44.7638C15.9994 44.7329 15.9433 44.6992 15.8889 44.6628C15.8344 44.6265 15.7818 44.5876 15.7312 44.546C15.6806 44.5045 15.6321 44.4605 15.5858 44.4142C15.5395 44.3679 15.4955 44.3194 15.454 44.2688C15.4124 44.2181 15.3735 44.1656 15.3371 44.1111C15.3007 44.0566 15.267 44.0005 15.2361 43.9427C15.2053 43.8849 15.1773 43.8258 15.1523 43.7654C15.1272 43.7048 15.1051 43.6432 15.0861 43.5806C15.0671 43.5178 15.0512 43.4545 15.0384 43.3903C15.0256 43.326 15.0161 43.2612 15.0096 43.196C15.0032 43.1309 15 43.0655 15 43C15 42.9345 15.0032 42.8691 15.0096 42.804C15.0161 42.7388 15.0256 42.674 15.0384 42.6097C15.0512 42.5455 15.0671 42.4822 15.0861 42.4194C15.1051 42.3568 15.1272 42.2952 15.1523 42.2346C15.1773 42.1742 15.2053 42.1151 15.2361 42.0573C15.267 41.9995 15.3007 41.9434 15.3371 41.8889C15.3735 41.8344 15.4124 41.7819 15.454 41.7312C15.4955 41.6806 15.5395 41.6321 15.5858 41.5858ZM19 43C19 43.0655 18.9968 43.1309 18.9904 43.196C18.9839 43.2612 18.9744 43.326 18.9616 43.3903C18.9488 43.4545 18.9329 43.5178 18.9139 43.5806C18.8949 43.6432 18.8728 43.7048 18.8477 43.7654C18.8227 43.8258 18.7947 43.8849 18.7639 43.9427C18.733 44.0005 18.6993 44.0566 18.6629 44.1111C18.6265 44.1656 18.5876 44.2181 18.546 44.2688C18.5045 44.3194 18.4605 44.3679 18.4142 44.4142C18.3679 44.4605 18.3194 44.5045 18.2688 44.546C18.2182 44.5876 18.1656 44.6265 18.1111 44.6628C18.0567 44.6992 18.0006 44.7329 17.9428 44.7638C17.885 44.7947 17.8259 44.8227 17.7654 44.8478C17.7049 44.8728 17.6432 44.8949 17.5806 44.9139C17.5179 44.9329 17.4544 44.9487 17.3902 44.9615C17.3259 44.9743 17.2612 44.9839 17.196 44.9904C17.1309 44.9968 17.0655 45 17 45C16.9345 45 16.8691 44.9968 16.804 44.9904C16.7388 44.9839 16.6741 44.9743 16.6098 44.9615C16.5456 44.9487 16.4821 44.9329 16.4194 44.9139C16.3568 44.8949 16.2951 44.8728 16.2346 44.8478C16.1741 44.8227 16.115 44.7947 16.0572 44.7638C15.9994 44.7329 15.9433 44.6992 15.8889 44.6628C15.8344 44.6265 15.7818 44.5876 15.7312 44.546C15.6806 44.5045 15.6321 44.4605 15.5858 44.4142C15.5395 44.3679 15.4955 44.3194 15.454 44.2688C15.4124 44.2181 15.3735 44.1656 15.3371 44.1111C15.3007 44.0566 15.267 44.0005 15.2361 43.9427C15.2053 43.8849 15.1773 43.8258 15.1523 43.7654C15.1272 43.7048 15.1051 43.6432 15.0861 43.5806C15.0671 43.5178 15.0512 43.4545 15.0384 43.3903C15.0256 43.326 15.0161 43.2612 15.0096 43.196C15.0032 43.1309 15 43.0655 15 43C15 42.9345 15.0032 42.8691 15.0096 42.804C15.0161 42.7388 15.0256 42.674 15.0384 42.6097C15.0512 42.5455 15.0671 42.4822 15.0861 42.4194C15.1051 42.3568 15.1272 42.2952 15.1523 42.2346C15.1773 42.1742 15.2053 42.1151 15.2361 42.0573C15.267 41.9995 15.3007 41.9434 15.3371 41.8889C15.3735 41.8344 15.4124 41.7819 15.454 41.7312C15.4955 41.6806 15.5395 41.6321 15.5858 41.5858C15.6321 41.5395 15.6806 41.4955 15.7312 41.454C15.7818 41.4124 15.8344 41.3735 15.8889 41.3372C15.9433 41.3008 15.9994 41.2671 16.0572 41.2362C16.115 41.2053 16.1741 41.1773 16.2346 41.1522C16.2951 41.1272 16.3568 41.1051 16.4194 41.0861C16.4821 41.0671 16.5456 41.0513 16.6098 41.0385C16.6741 41.0257 16.7388 41.0161 16.804 41.0096C16.8691 41.0032 16.9345 41 17 41C17.0655 41 17.1309 41.0032 17.196 41.0096C17.2612 41.0161 17.3259 41.0257 17.3902 41.0385C17.4544 41.0513 17.5179 41.0671 17.5806 41.0861C17.6432 41.1051 17.7049 41.1272 17.7654 41.1522C17.8259 41.1773 17.885 41.2053 17.9428 41.2362C18.0006 41.2671 18.0567 41.3008 18.1111 41.3372C18.1656 41.3735 18.2182 41.4124 18.2688 41.454C18.3194 41.4955 18.3679 41.5395 18.4142 41.5858C18.4605 41.6321 18.5045 41.6806 18.546 41.7312C18.5876 41.7819 18.6265 41.8344 18.6629 41.8889C18.6993 41.9434 18.733 41.9995 18.7639 42.0573C18.7947 42.1151 18.8227 42.1742 18.8477 42.2346C18.8728 42.2952 18.8949 42.3568 18.9139 42.4194C18.9329 42.4822 18.9488 42.5455 18.9616 42.6097C18.9744 42.674 18.9839 42.7388 18.9904 42.804C18.9968 42.8691 19 42.9345 19 43ZM45 17C45 17.0655 44.9968 17.1309 44.9904 17.196C44.9839 17.2612 44.9743 17.3259 44.9616 17.3901C44.9488 17.4544 44.9329 17.5179 44.9139 17.5806C44.8949 17.6432 44.8729 17.7049 44.8478 17.7654C44.8227 17.8259 44.7947 17.885 44.7638 17.9427C44.7329 18.0005 44.6993 18.0566 44.6629 18.1111C44.6266 18.1656 44.5876 18.2182 44.546 18.2688C44.5045 18.3194 44.4605 18.3679 44.4142 18.4142C44.3679 18.4605 44.3194 18.5045 44.2688 18.546C44.2181 18.5876 44.1656 18.6266 44.1111 18.663C44.0566 18.6994 44.0005 18.7329 43.9428 18.7638C43.885 18.7947 43.8259 18.8227 43.7654 18.8478C43.7049 18.8728 43.6433 18.8949 43.5806 18.9139C43.5179 18.933 43.4544 18.9488 43.3902 18.9615C43.3259 18.9743 43.2612 18.9839 43.196 18.9904C43.1309 18.9968 43.0655 19 43 19C42.9345 19 42.8691 18.9968 42.804 18.9904C42.7388 18.9839 42.6741 18.9743 42.6098 18.9615C42.5456 18.9488 42.4821 18.933 42.4194 18.9139C42.3567 18.8949 42.2951 18.8728 42.2346 18.8478C42.1741 18.8227 42.115 18.7947 42.0572 18.7638C41.9995 18.7329 41.9434 18.6994 41.8889 18.663C41.8344 18.6266 41.7819 18.5876 41.7312 18.546C41.6806 18.5045 41.6321 18.4605 41.5858 18.4142C41.5395 18.3679 41.4955 18.3194 41.454 18.2688C41.4124 18.2182 41.3734 18.1656 41.3371 18.1111C41.3007 18.0566 41.2671 18.0005 41.2362 17.9427C41.2053 17.885 41.1773 17.8259 41.1522 17.7654C41.1271 17.7049 41.1051 17.6432 41.0861 17.5806C41.0671 17.5179 41.0512 17.4544 41.0384 17.3901C41.0257 17.3259 41.0161 17.2612 41.0096 17.196C41.0032 17.1309 41 17.0655 41 17C41 16.9345 41.0032 16.8691 41.0096 16.804C41.0161 16.7388 41.0257 16.6741 41.0384 16.6099C41.0512 16.5456 41.0671 16.4821 41.0861 16.4194C41.1051 16.3568 41.1271 16.2951 41.1522 16.2346C41.1773 16.1741 41.2053 16.115 41.2362 16.0573C41.2671 15.9995 41.3007 15.9434 41.3371 15.8889C41.3734 15.8344 41.4124 15.7818 41.454 15.7312C41.4955 15.6806 41.5395 15.6321 41.5858 15.5858C41.6321 15.5395 41.6806 15.4955 41.7312 15.454C41.7819 15.4124 41.8344 15.3734 41.8889 15.337C41.9434 15.3006 41.9995 15.2671 42.0572 15.2362C42.115 15.2053 42.1741 15.1773 42.2346 15.1522C42.2951 15.1272 42.3567 15.1051 42.4194 15.0861C42.4821 15.067 42.5456 15.0512 42.6098 15.0385C42.6741 15.0257 42.7388 15.0161 42.804 15.0096C42.8691 15.0032 42.9345 15 43 15C43.0655 15 43.1309 15.0032 43.196 15.0096C43.2612 15.0161 43.3259 15.0257 43.3902 15.0385C43.4544 15.0512 43.5179 15.067 43.5806 15.0861C43.6433 15.1051 43.7049 15.1272 43.7654 15.1522C43.8259 15.1773 43.885 15.2053 43.9428 15.2362C44.0005 15.2671 44.0566 15.3006 44.1111 15.337C44.1656 15.3734 44.2181 15.4124 44.2688 15.454C44.3194 15.4955 44.3679 15.5395 44.4142 15.5858C44.4605 15.6321 44.5045 15.6806 44.546 15.7312C44.5876 15.7818 44.6266 15.8344 44.6629 15.8889C44.6993 15.9434 44.7329 15.9995 44.7638 16.0573C44.7947 16.115 44.8227 16.1741 44.8478 16.2346C44.8729 16.2951 44.8949 16.3568 44.9139 16.4194C44.9329 16.4821 44.9488 16.5456 44.9616 16.6099C44.9743 16.6741 44.9839 16.7388 44.9904 16.804C44.9968 16.8691 45 16.9345 45 17Z" fill="white"/>
<path d="M41.5858 44.4142L15.5858 18.4142C15.5395 18.3679 15.4955 18.3194 15.454 18.2688C15.4124 18.2182 15.3735 18.1656 15.3371 18.1111C15.3007 18.0566 15.267 18.0005 15.2361 17.9427C15.2053 17.885 15.1773 17.8259 15.1523 17.7654C15.1272 17.7049 15.1051 17.6432 15.0861 17.5806C15.0671 17.5179 15.0512 17.4544 15.0384 17.3901C15.0256 17.3259 15.0161 17.2612 15.0096 17.196C15.0032 17.1309 15 17.0655 15 17C15 16.9345 15.0032 16.8691 15.0096 16.804C15.0161 16.7388 15.0256 16.6741 15.0384 16.6099C15.0512 16.5456 15.0671 16.4821 15.0861 16.4194C15.1051 16.3568 15.1272 16.2951 15.1523 16.2346C15.1773 16.1741 15.2053 16.115 15.2361 16.0573C15.267 15.9995 15.3007 15.9434 15.3371 15.8889C15.3735 15.8344 15.4124 15.7818 15.454 15.7312C15.4955 15.6806 15.5395 15.6321 15.5858 15.5858C15.6321 15.5395 15.6806 15.4955 15.7312 15.454C15.7818 15.4124 15.8344 15.3734 15.8889 15.337C15.9433 15.3006 15.9994 15.2671 16.0572 15.2362C16.115 15.2053 16.1741 15.1773 16.2346 15.1522C16.2951 15.1272 16.3568 15.1051 16.4194 15.0861C16.4821 15.067 16.5456 15.0512 16.6098 15.0385C16.6741 15.0257 16.7388 15.0161 16.804 15.0096C16.8691 15.0032 16.9345 15 17 15C17.0655 15 17.1309 15.0032 17.196 15.0096C17.2612 15.0161 17.3259 15.0257 17.3902 15.0385C17.4544 15.0512 17.5179 15.067 17.5806 15.0861C17.6432 15.1051 17.7049 15.1272 17.7654 15.1522C17.8259 15.1773 17.885 15.2053 17.9428 15.2362C18.0006 15.2671 18.0567 15.3006 18.1111 15.337C18.1656 15.3734 18.2182 15.4124 18.2688 15.454C18.3194 15.4955 18.3679 15.5395 18.4142 15.5858L44.4142 41.5858C44.4605 41.6321 44.5045 41.6806 44.546 41.7312C44.5876 41.7819 44.6266 41.8344 44.6629 41.8889C44.6993 41.9434 44.7329 41.9995 44.7638 42.0573C44.7947 42.1151 44.8227 42.1742 44.8478 42.2346C44.8729 42.2952 44.8949 42.3568 44.9139 42.4194C44.9329 42.4822 44.9488 42.5455 44.9616 42.6097C44.9743 42.674 44.9839 42.7388 44.9904 42.804C44.9968 42.8691 45 42.9345 45 43C45 43.0655 44.9968 43.1309 44.9904 43.196C44.9839 43.2612 44.9743 43.326 44.9616 43.3903C44.9488 43.4545 44.9329 43.5178 44.9139 43.5806C44.8949 43.6432 44.8729 43.7048 44.8478 43.7654C44.8227 43.8258 44.7947 43.8849 44.7638 43.9427C44.7329 44.0005 44.6993 44.0566 44.6629 44.1111C44.6266 44.1656 44.5876 44.2181 44.546 44.2688C44.5045 44.3194 44.4605 44.3679 44.4142 44.4142C44.3679 44.4605 44.3194 44.5045 44.2688 44.546C44.2181 44.5876 44.1656 44.6265 44.1111 44.6628C44.0566 44.6992 44.0005 44.7329 43.9428 44.7638C43.885 44.7947 43.8259 44.8227 43.7654 44.8478C43.7049 44.8728 43.6433 44.8949 43.5806 44.9139C43.5179 44.9329 43.4544 44.9487 43.3902 44.9615C43.3259 44.9743 43.2612 44.9839 43.196 44.9904C43.1309 44.9968 43.0655 45 43 45C42.9345 45 42.8691 44.9968 42.804 44.9904C42.7388 44.9839 42.6741 44.9743 42.6098 44.9615C42.5456 44.9487 42.4821 44.9329 42.4194 44.9139C42.3567 44.8949 42.2951 44.8728 42.2346 44.8478C42.1741 44.8227 42.115 44.7947 42.0572 44.7638C41.9995 44.7329 41.9434 44.6992 41.8889 44.6628C41.8344 44.6265 41.7819 44.5876 41.7312 44.546C41.6806 44.5045 41.6321 44.4605 41.5858 44.4142ZM45 43C45 43.0655 44.9968 43.1309 44.9904 43.196C44.9839 43.2612 44.9743 43.326 44.9616 43.3903C44.9488 43.4545 44.9329 43.5178 44.9139 43.5806C44.8949 43.6432 44.8729 43.7048 44.8478 43.7654C44.8227 43.8258 44.7947 43.8849 44.7638 43.9427C44.7329 44.0005 44.6993 44.0566 44.6629 44.1111C44.6266 44.1656 44.5876 44.2181 44.546 44.2688C44.5045 44.3194 44.4605 44.3679 44.4142 44.4142C44.3679 44.4605 44.3194 44.5045 44.2688 44.546C44.2181 44.5876 44.1656 44.6265 44.1111 44.6628C44.0566 44.6992 44.0005 44.7329 43.9428 44.7638C43.885 44.7947 43.8259 44.8227 43.7654 44.8478C43.7049 44.8728 43.6433 44.8949 43.5806 44.9139C43.5179 44.9329 43.4544 44.9487 43.3902 44.9615C43.3259 44.9743 43.2612 44.9839 43.196 44.9904C43.1309 44.9968 43.0655 45 43 45C42.9345 45 42.8691 44.9968 42.804 44.9904C42.7388 44.9839 42.6741 44.9743 42.6098 44.9615C42.5456 44.9487 42.4821 44.9329 42.4194 44.9139C42.3567 44.8949 42.2951 44.8728 42.2346 44.8478C42.1741 44.8227 42.115 44.7947 42.0572 44.7638C41.9995 44.7329 41.9434 44.6992 41.8889 44.6628C41.8344 44.6265 41.7819 44.5876 41.7312 44.546C41.6806 44.5045 41.6321 44.4605 41.5858 44.4142C41.5395 44.3679 41.4955 44.3194 41.454 44.2688C41.4124 44.2181 41.3734 44.1656 41.3371 44.1111C41.3007 44.0566 41.2671 44.0005 41.2362 43.9427C41.2053 43.8849 41.1773 43.8258 41.1522 43.7654C41.1271 43.7048 41.1051 43.6432 41.0861 43.5806C41.0671 43.5178 41.0512 43.4545 41.0384 43.3903C41.0257 43.326 41.0161 43.2612 41.0096 43.196C41.0032 43.1309 41 43.0655 41 43C41 42.9345 41.0032 42.8691 41.0096 42.804C41.0161 42.7388 41.0257 42.674 41.0384 42.6097C41.0512 42.5455 41.0671 42.4822 41.0861 42.4194C41.1051 42.3568 41.1271 42.2952 41.1522 42.2346C41.1773 42.1742 41.2053 42.1151 41.2362 42.0573C41.2671 41.9995 41.3007 41.9434 41.3371 41.8889C41.3734 41.8344 41.4124 41.7819 41.454 41.7312C41.4955 41.6806 41.5395 41.6321 41.5858 41.5858C41.6321 41.5395 41.6806 41.4955 41.7312 41.454C41.7819 41.4124 41.8344 41.3735 41.8889 41.3372C41.9434 41.3008 41.9995 41.2671 42.0572 41.2362C42.115 41.2053 42.1741 41.1773 42.2346 41.1522C42.2951 41.1272 42.3567 41.1051 42.4194 41.0861C42.4821 41.0671 42.5456 41.0513 42.6098 41.0385C42.6741 41.0257 42.7388 41.0161 42.804 41.0096C42.8691 41.0032 42.9345 41 43 41C43.0655 41 43.1309 41.0032 43.196 41.0096C43.2612 41.0161 43.3259 41.0257 43.3902 41.0385C43.4544 41.0513 43.5179 41.0671 43.5806 41.0861C43.6433 41.1051 43.7049 41.1272 43.7654 41.1522C43.8259 41.1773 43.885 41.2053 43.9428 41.2362C44.0005 41.2671 44.0566 41.3008 44.1111 41.3372C44.1656 41.3735 44.2181 41.4124 44.2688 41.454C44.3194 41.4955 44.3679 41.5395 44.4142 41.5858C44.4605 41.6321 44.5045 41.6806 44.546 41.7312C44.5876 41.7819 44.6266 41.8344 44.6629 41.8889C44.6993 41.9434 44.7329 41.9995 44.7638 42.0573C44.7947 42.1151 44.8227 42.1742 44.8478 42.2346C44.8729 42.2952 44.8949 42.3568 44.9139 42.4194C44.9329 42.4822 44.9488 42.5455 44.9616 42.6097C44.9743 42.674 44.9839 42.7388 44.9904 42.804C44.9968 42.8691 45 42.9345 45 43ZM19 17C19 17.0655 18.9968 17.1309 18.9904 17.196C18.9839 17.2612 18.9744 17.3259 18.9616 17.3901C18.9488 17.4544 18.9329 17.5179 18.9139 17.5806C18.8949 17.6432 18.8728 17.7049 18.8477 17.7654C18.8227 17.8259 18.7947 17.885 18.7639 17.9427C18.733 18.0005 18.6993 18.0566 18.6629 18.1111C18.6265 18.1656 18.5876 18.2182 18.546 18.2688C18.5045 18.3194 18.4605 18.3679 18.4142 18.4142C18.3679 18.4605 18.3194 18.5045 18.2688 18.546C18.2182 18.5876 18.1656 18.6266 18.1111 18.663C18.0567 18.6994 18.0006 18.7329 17.9428 18.7638C17.885 18.7947 17.8259 18.8227 17.7654 18.8478C17.7049 18.8728 17.6432 18.8949 17.5806 18.9139C17.5179 18.933 17.4544 18.9488 17.3902 18.9615C17.3259 18.9743 17.2612 18.9839 17.196 18.9904C17.1309 18.9968 17.0655 19 17 19C16.9345 19 16.8691 18.9968 16.804 18.9904C16.7388 18.9839 16.6741 18.9743 16.6098 18.9615C16.5456 18.9488 16.4821 18.933 16.4194 18.9139C16.3568 18.8949 16.2951 18.8728 16.2346 18.8478C16.1741 18.8227 16.115 18.7947 16.0572 18.7638C15.9994 18.7329 15.9433 18.6994 15.8889 18.663C15.8344 18.6266 15.7818 18.5876 15.7312 18.546C15.6806 18.5045 15.6321 18.4605 15.5858 18.4142C15.5395 18.3679 15.4955 18.3194 15.454 18.2688C15.4124 18.2182 15.3735 18.1656 15.3371 18.1111C15.3007 18.0566 15.267 18.0005 15.2361 17.9427C15.2053 17.885 15.1773 17.8259 15.1523 17.7654C15.1272 17.7049 15.1051 17.6432 15.0861 17.5806C15.0671 17.5179 15.0512 17.4544 15.0384 17.3901C15.0256 17.3259 15.0161 17.2612 15.0096 17.196C15.0032 17.1309 15 17.0655 15 17C15 16.9345 15.0032 16.8691 15.0096 16.804C15.0161 16.7388 15.0256 16.6741 15.0384 16.6099C15.0512 16.5456 15.0671 16.4821 15.0861 16.4194C15.1051 16.3568 15.1272 16.2951 15.1523 16.2346C15.1773 16.1741 15.2053 16.115 15.2361 16.0573C15.267 15.9995 15.3007 15.9434 15.3371 15.8889C15.3735 15.8344 15.4124 15.7818 15.454 15.7312C15.4955 15.6806 15.5395 15.6321 15.5858 15.5858C15.6321 15.5395 15.6806 15.4955 15.7312 15.454C15.7818 15.4124 15.8344 15.3734 15.8889 15.337C15.9433 15.3006 15.9994 15.2671 16.0572 15.2362C16.115 15.2053 16.1741 15.1773 16.2346 15.1522C16.2951 15.1272 16.3568 15.1051 16.4194 15.0861C16.4821 15.067 16.5456 15.0512 16.6098 15.0385C16.6741 15.0257 16.7388 15.0161 16.804 15.0096C16.8691 15.0032 16.9345 15 17 15C17.0655 15 17.1309 15.0032 17.196 15.0096C17.2612 15.0161 17.3259 15.0257 17.3902 15.0385C17.4544 15.0512 17.5179 15.067 17.5806 15.0861C17.6432 15.1051 17.7049 15.1272 17.7654 15.1522C17.8259 15.1773 17.885 15.2053 17.9428 15.2362C18.0006 15.2671 18.0567 15.3006 18.1111 15.337C18.1656 15.3734 18.2182 15.4124 18.2688 15.454C18.3194 15.4955 18.3679 15.5395 18.4142 15.5858C18.4605 15.6321 18.5045 15.6806 18.546 15.7312C18.5876 15.7818 18.6265 15.8344 18.6629 15.8889C18.6993 15.9434 18.733 15.9995 18.7639 16.0573C18.7947 16.115 18.8227 16.1741 18.8477 16.2346C18.8728 16.2951 18.8949 16.3568 18.9139 16.4194C18.9329 16.4821 18.9488 16.5456 18.9616 16.6099C18.9744 16.6741 18.9839 16.7388 18.9904 16.804C18.9968 16.8691 19 16.9345 19 17Z" fill="white"/>
</g>
</svg>
