<svg width="100" height="50" viewBox="0 0 100 50" fill="none" xmlns="http://www.w3.org/2000/svg">
<path fill-rule="evenodd" clip-rule="evenodd" d="M27.9793 19.0423L29.5005 16H10.7403C7.19096 16 4.90927 19.0423 4.40223 19.8028C3.89519 20.5634 0.345823 27.1549 1.10639 30.1972C1.71484 32.631 4.14857 33.493 5.6697 33.493H21.388L22.6556 30.4507C20.4955 30.389 16.4875 30.4174 13.6928 30.4372C12.6608 30.4446 11.7942 30.4507 11.2472 30.4507C9.21907 30.4507 9.10658 28.6024 9.47229 27.662C10.0638 26.1408 11.5005 22.693 12.5145 21.0704C13.5286 19.4479 14.6272 19.0423 15.0498 19.0423H27.9793ZM31.5289 34H26.205L33.8106 16L46.7402 16.2535L46.9937 27.4085L56.6275 16L69.8106 16.2535L62.712 34H52.5712L57.3881 21.5775L46.7402 34H38.374L37.3599 20.5634L31.5289 34ZM67.5289 34L73.867 16.2535H94.6557C95.6698 16.2535 97.698 16.7606 98.4586 18.0282C99.211 19.2823 98.543 22.507 97.9515 23.8592L95.1627 30.4507C94.4022 31.9718 91.5121 34 88.0642 34H67.5289ZM81.2192 19.549H88.5714C88.9939 19.6335 89.7375 20.1068 89.3319 21.3237C88.9263 22.5406 86.9657 27.4082 86.0361 29.6899C85.8671 30.1124 85.0728 30.9575 83.2474 30.9575H76.9094L81.2192 19.549Z" fill="currentColor"/>
</svg>
