<svg width="100" height="50" viewBox="0 0 100 50" fill="none" xmlns="http://www.w3.org/2000/svg">
<path d="M39.6316 26.4505C39.6591 26.7809 39.6926 27.1027 39.7253 27.4171C39.9128 29.2203 40.0747 30.777 38.9306 32.2873C35.5213 36.5138 30.9671 37.7817 26.7849 37.7817C19.724 37.7817 14 32.1049 14 25.1022C14 18.0995 19.724 12.4227 26.7849 12.4227C30.3496 12.4227 33.8418 14.3153 36.1605 16.6492C35.5213 17.4945 34.4559 18.5511 34.006 19.1713C32.2862 17.1141 29.6899 15.8039 26.7849 15.8039C21.6069 15.8039 17.4093 19.9669 17.4093 25.1022C17.4093 30.2375 21.6069 34.4005 26.7849 34.4005C29.6964 34.4005 33.5361 33.4811 36.1605 30.5967C37.3142 29.3287 37.1924 28.9701 37.2259 28.4834C38.2887 27.6247 38.8285 26.8982 39.6316 26.4505Z" fill="currentColor"/>
<path fill-rule="evenodd" clip-rule="evenodd" d="M49.3716 37.7817C56.4325 37.7817 62.1565 32.1049 62.1565 25.1022C62.1565 18.0995 56.4325 12.4227 49.3716 12.4227C42.3107 12.4227 36.5867 18.0995 36.5867 25.1022C36.5867 32.1049 42.3107 37.7817 49.3716 37.7817ZM49.3716 34.4005C54.5496 34.4005 58.7472 30.2375 58.7472 25.1022C58.7472 19.9669 54.5496 15.8039 49.3716 15.8039C44.1936 15.8039 39.996 19.9669 39.996 25.1022C39.996 30.2375 44.1936 34.4005 49.3716 34.4005Z" fill="currentColor"/>
<path fill-rule="evenodd" clip-rule="evenodd" d="M74.9414 32.2873C80.5902 32.2873 85.1694 27.7458 85.1694 22.1436C85.1694 16.5415 80.5902 12 74.9414 12C69.2927 12 64.7135 16.5415 64.7135 22.1436C64.7135 27.7458 69.2927 32.2873 74.9414 32.2873ZM74.9414 28.9061C78.7073 28.9061 81.7601 25.8784 81.7601 22.1436C81.7601 18.4089 78.7073 15.3812 74.9414 15.3812C71.1756 15.3812 68.1228 18.4089 68.1228 22.1436C68.1228 25.8784 71.1756 28.9061 74.9414 28.9061Z" fill="currentColor"/>
<path d="M49.3716 26.5815C45.9623 26.5815 43.2633 26.9337 42.3399 27.2155C42.553 28.0608 43.6184 30.5967 43.6184 30.5967C43.6184 30.5967 53.3833 28.5724 58.7472 32.7099C66.4182 38.627 72.8106 38.2044 75.3676 37.7817C77.9246 37.3591 81.547 36.0911 83.6778 32.0759C85.8086 28.0608 85.1694 22.1436 85.1694 22.1436H83.6778L80.6946 30.174C80.9077 31.2306 77.8394 34.0624 73.2368 34.4005C67.4836 34.8232 64.5323 32.171 61.0911 29.9627C57.4687 27.6381 53.6332 26.5815 49.3716 26.5815Z" fill="currentColor"/>
</svg>
