<svg width="48" height="49" viewBox="0 0 48 49" fill="none" xmlns="http://www.w3.org/2000/svg">
<path d="M33.5405 40.3898H14.4605C13.6205 40.3898 12.8605 39.8498 12.5805 39.0698L4.26048 15.7698C3.60048 13.9098 5.72048 12.3298 7.30048 13.4698L15.3005 19.1898C16.3605 19.9498 17.8805 19.4898 18.3405 18.2698L22.1205 8.18977C22.7605 6.44977 25.2205 6.44977 25.8605 8.18977L29.6405 18.2698C29.7485 18.5573 29.9214 18.8161 30.1456 19.026C30.3698 19.236 30.6393 19.3914 30.9333 19.4804C31.2273 19.5694 31.5378 19.5894 31.8408 19.539C32.1438 19.4886 32.4311 19.3691 32.6805 19.1898L40.6805 13.4698C42.2805 12.3298 44.3805 13.9298 43.7205 15.7698L35.4005 39.0698C35.1405 39.8498 34.3805 40.3898 33.5405 40.3898Z" fill="var(--main-color)"/>
<path d="M29 31.9297H19C18.18 31.9297 17.5 31.2497 17.5 30.4297C17.5 29.6097 18.18 28.9297 19 28.9297H29C29.82 28.9297 30.5 29.6097 30.5 30.4297C30.5 31.2497 29.82 31.9297 29 31.9297Z" fill="white"/>
</svg>
