<svg width="48" height="48" viewBox="0 0 48 48" fill="none" xmlns="http://www.w3.org/2000/svg">
<path fill-rule="evenodd" clip-rule="evenodd" d="M14.7132 9.27145C17.6886 7.28532 21.135 6.35465 24.5462 6.46825C27.9574 6.58025 31.3329 7.73278 34.1708 9.91039C37.0572 12.1237 39.0598 15.1552 40.0326 18.4885C40.4929 18.5024 41.0294 18.5547 41.5238 18.6971C42.7041 19.0357 43.7265 19.9797 44.4129 21.4661C45.0966 22.9525 45.3969 24.9109 45.0881 26.936C44.782 28.9547 43.9297 30.6181 42.863 31.6517C41.7937 32.6848 40.5713 33.0768 39.3852 32.7691L37.9275 32.3824C35.6049 35.8848 32.038 38.3963 27.9516 39.3936V39.8571C27.9516 40.7877 27.2049 41.5376 26.2742 41.5376H21.7244C20.7932 41.5376 20.0433 40.7877 20.0433 39.8571V38.9707C20.0433 38.0405 20.7932 37.2907 21.7244 37.2907H25.3329C30.7521 36.7824 35.4353 33.2016 37.3244 28.032L38.1713 22.3877C37.9462 18.3376 35.9964 14.4795 32.638 11.9045C27.8102 8.19838 21.1745 7.98185 16.1132 11.3627C12.3318 13.8907 10.071 18.0016 9.82675 22.3685L11.038 30.4373C11.2881 32.1019 10.4022 32.3872 8.61555 32.7685C7.41555 33.0208 6.20755 32.6848 5.13768 31.6512C4.07102 30.6181 3.21822 28.9541 2.91262 26.9355C2.60488 24.9104 2.89662 22.9488 3.58835 21.4656C4.12168 20.3275 5.30782 19.0352 6.88488 18.5877C7.30728 18.4683 7.66302 18.4523 7.96008 18.4885C9.03582 14.8021 11.3713 11.5045 14.7132 9.27145ZM32.0518 23.1644C32.0491 21.9585 31.0742 20.9836 29.8715 20.9836C28.6662 20.9836 27.688 21.9591 27.688 23.1644C27.688 24.3671 28.6657 25.3447 29.8715 25.3447C31.0742 25.3447 32.0491 24.3671 32.0518 23.1644ZM26.1798 23.1644C26.1798 21.9585 25.2048 20.9836 23.9995 20.9836C22.7931 20.9836 21.8182 21.9591 21.8182 23.1644C21.8182 24.3671 22.7931 25.3447 23.9995 25.3447C25.2048 25.3447 26.1798 24.3671 26.1798 23.1644ZM20.3099 23.1644C20.3099 21.9585 19.3323 20.9836 18.1296 20.9836C16.9243 20.9836 15.9488 21.9591 15.9488 23.1644C15.9488 24.3671 16.9243 25.3447 18.1296 25.3447C19.3323 25.3447 20.3099 24.3671 20.3099 23.1644ZM12.4518 23.1644C12.4518 16.6007 17.6048 11.6172 23.9995 11.6172C30.3963 11.6172 35.5462 16.6007 35.5462 23.1644C35.5462 29.7313 30.3963 34.7116 23.9995 34.7116C22.3238 34.7116 20.7382 34.3676 19.3046 33.7452L16.288 35.4279C15.3744 35.9367 14.6694 35.2529 14.8966 34.2364L15.5856 31.1473C13.6438 29.1031 12.4518 26.3169 12.4518 23.1644Z" fill="url(#paint0_linear_12182_56529)"/>
<defs>
<linearGradient id="paint0_linear_12182_56529" x1="26.4239" y1="41.5376" x2="26.4239" y2="6.45899" gradientUnits="userSpaceOnUse">
<stop offset="0.201885" stop-color="var(--main-color)"/>
<stop offset="1" stop-color="var(--main-color)"/>
</linearGradient>
</defs>
</svg>
