<svg width="100" height="50" viewBox="0 0 100 50" fill="none" xmlns="http://www.w3.org/2000/svg">
<path fill-rule="evenodd" clip-rule="evenodd" d="M11 23.0483C12.0007 23.4057 14.3453 24.1205 15.7177 24.1205H33.8382C33.4808 22.4764 33.3021 17.8326 33.3021 12.3261C33.3021 12.2637 33.847 12.2285 34.7069 12.173C36.8015 12.0378 40.7651 11.782 43.2736 10.7178C46.4903 9.35317 49.0636 7.39394 49.5997 6H49.9214C50.3503 7.39394 53.1378 9.75281 56.998 11.0395C59.6174 11.9125 63.4657 11.9664 65.5248 11.9952C65.7414 11.9982 65.9383 12.001 66.1118 12.0044C66.2548 14.4705 66.3262 20.2391 65.4685 24.4422C65.451 24.528 72.4611 24.4079 78.6695 24.3015L78.67 24.3015L78.6706 24.3015L78.6712 24.3015L78.6719 24.3015L78.6732 24.3014C80.2239 24.2749 81.7244 24.2492 83.0528 24.2277C85.9474 24.1811 87.8132 23.3443 88.3066 23.0483C88.4139 22.984 87.1302 27.5579 81.9806 27.6588C76.5123 27.7661 66.9696 27.8732 66.7551 27.8732C66.5407 27.8732 63.324 28.6222 63.324 32.4837C63.324 38.5954 68.3635 38.1664 68.3635 38.1664V33.3415H71.7945V41.4903L67.184 41.5975C65.6829 41.5975 61.8229 40.2037 60.5363 36.022C60.5117 35.942 60.1716 36.3599 59.7003 36.9391L59.7003 36.9392C59.3178 37.4092 58.8488 37.9856 58.3919 38.4882C57.3196 39.6676 53.0308 43.0986 49.8142 43.0986C44.3459 43.0986 38.9848 36.1292 38.9848 36.1292C38.9848 36.1292 38.2342 38.2445 36.197 40.0965C34.8032 41.3637 32.7659 41.5976 32.5515 41.5976L27.5121 41.4903V33.3415H31.0504L31.1576 38.0592H32.6587C33.8382 38.0592 36.0898 36.2365 36.0898 33.8776C36.0898 30.2321 35.232 27.766 31.6937 27.6587C31.2127 27.6442 29.5168 27.6555 27.38 27.6698L27.3787 27.6698L27.3772 27.6698L27.3767 27.6698H27.3763H27.3761H27.376H27.376H27.3759H27.3757H27.3755H27.3754H27.3753C23.7992 27.6937 18.9908 27.7259 16.5755 27.6587C15.0702 27.6169 11.1716 25.7932 11 23.0483ZM13.5733 27.8732C14.2524 28.2306 15.8679 28.9454 16.8972 28.9454H31.0504V32.4837H19.1488C17.5048 32.0191 14.088 30.4465 13.5733 27.8732ZM19.3633 33.4487C18.2911 33.4487 16.8614 32.8768 16.4683 32.5909C16.3611 34.6282 19.5777 36.8799 21.186 36.987H26.2254V33.4487H19.3633ZM18.9344 36.987C19.3633 37.3444 20.993 38.0592 21.9366 38.0592H26.2254V41.4903H23.0088C21.9366 41.3832 19.3633 39.5604 18.9344 36.987ZM82.0878 28.8382H68.3635V32.4837H78.9784C84.5539 32.4837 85.8405 27.7874 85.7333 27.8732C84.8755 28.5594 82.9456 28.8024 82.0878 28.8382ZM73.0812 33.3415H79.9434C81.0156 33.3415 82.4095 33.0199 83.0528 32.591C83.305 32.4229 81.7661 36.8798 77.4773 36.8798H73.0812V33.3415ZM77.6917 38.1664H73.0812V41.4903L75.5473 41.4904C79.4073 41.4904 80.5331 36.9871 80.3723 37.0943C79.5497 37.6427 78.335 38.1664 77.6917 38.1664ZM44.1312 13.3986C41.3435 14.4708 37.7337 15.0427 36.1968 15.1142C35.6607 16.0792 36.1968 20.5825 37.3762 25.3002C38.5557 30.018 40.5929 33.6635 41.0218 33.3418C41.2968 33.1355 44.4382 31.915 47.2786 30.8114C48.8672 30.1942 50.3617 29.6135 51.2078 29.2674C53.5667 28.3024 54.1028 27.0158 53.9956 25.0858C53.8883 23.1558 52.6017 22.7269 51.5295 22.5125C50.6717 22.3409 50.3143 22.8699 50.2428 23.1558C51.0291 23.2988 52.28 23.5847 50.9934 23.5847C49.7759 23.5847 49.6644 23.8304 49.589 23.9964C49.5648 24.0497 49.5444 24.0947 49.4923 24.1208C49.2778 24.228 49.385 24.7641 49.4923 25.0858C49.578 25.3431 49.8139 25.5504 49.9212 25.6219H47.6695V25.9436H47.2406C46.2756 25.9436 44.3027 26.2223 44.1312 27.3374C43.9596 28.4525 45.0604 28.8028 45.6323 28.8385L45.8467 29.2674C45.2034 29.2674 43.7452 29.246 43.059 29.1602C42.3728 29.0744 41.272 28.2667 40.8073 27.8735H40.0568C40.021 27.6948 39.971 27.0587 40.0568 25.9436C40.164 24.5497 41.0218 23.7991 41.2362 24.1208C41.297 24.2119 41.3147 24.3203 41.3308 24.4191C41.3717 24.6688 41.4025 24.857 42.094 24.5497C42.866 24.2066 43.3449 22.5482 43.4879 21.7619L42.6301 21.6547L42.8445 21.4403L43.9168 21.1186C44.1312 20.9399 44.603 20.5396 44.7745 20.368C44.9461 20.1965 44.846 19.7962 44.7745 19.6175C44.4529 18.724 44.3242 16.6582 46.3828 15.5431C48.4415 14.428 52.3872 15.0068 52.3872 15.0068C52.3872 15.0068 48.849 15.3285 47.3479 15.9718C46.147 16.4865 46.0612 17.9018 46.4901 17.7947L47.6695 16.7224L47.7767 17.4731L48.9562 16.5081C48.5273 17.3658 48.6988 18.4809 48.9562 17.3658C49.2778 15.972 51.315 15.4359 52.3872 15.3286C53.2377 15.2436 54.4255 15.4958 54.9339 15.6038L54.9339 15.6038C55.0665 15.632 55.1528 15.6503 55.175 15.6503C55.2008 15.6503 55.3812 15.706 55.6555 15.7906C56.5228 16.0582 58.3276 16.6151 59.1423 16.6151C60 16.6151 60.3217 16.2577 60.4289 16.079C60.5361 16.4007 60.3645 17.0656 59.2494 17.1514C58.2908 17.2251 57.6365 17.096 56.4844 16.8687C55.9612 16.7655 55.3353 16.642 54.5317 16.5081C51.9584 16.0792 51.3256 16.6047 50.7789 17.1514C50.4573 17.4731 50.3501 17.7947 50.4573 17.7947C50.4905 17.7947 50.5578 17.7885 50.6551 17.7796C51.2596 17.724 53.0212 17.5621 54.9606 18.1162C56.7619 18.6309 58.07 20.368 58.3916 21.1186L57.3194 20.7969C57.3194 20.9756 57.5694 21.7118 58.7134 22.5125C59.7856 23.2629 61.1795 23.3701 61.1795 23.3701C61.1795 23.3701 60.7506 24.1208 59.8928 24.0134C59.035 23.9061 58.4989 23.7991 58.4989 23.7991C58.4989 23.7991 59.1423 26.1578 58.7134 28.4095C58.2845 30.6611 54.9606 33.2346 53.3522 33.8779C52.0656 34.3926 51.1006 34.6642 50.7789 34.7357C53.0306 35.0572 53.674 35.8541 53.1378 35.8079C48.1627 35.379 45.6323 37.0588 44.989 37.9523C44.6674 38.399 47.6681 40.2962 49.814 40.0966C54.7462 39.6378 58.9278 34.0548 60.7506 29.5889C62.3602 25.6452 63.5383 17.6875 63.5383 14.8997L63.4842 14.8972C61.952 14.8243 58.3993 14.6554 56.2472 13.8275C53.4595 12.7552 50.4573 10.6108 49.9212 10.0747C49.7671 9.92051 49.5996 10.0747 49.5996 10.0747C48.9562 10.7179 46.8544 12.3513 44.1312 13.3986ZM46.0612 21.7616C45.9897 21.4042 46.0183 20.5608 46.7045 20.0461C47.3907 19.5314 48.0627 19.6887 48.3129 19.8316C48.3844 20.1176 48.3772 20.8181 47.7768 21.3328C47.1764 21.8474 46.3829 21.8331 46.0612 21.7616Z" fill="currentColor"/>
</svg>
