<svg xmlns="http://www.w3.org/2000/svg" width="48" height="48" viewBox="0 0 48 48" fill="none">
<path d="M24 8C30.7913 8 36.3874 13.1173 37.1427 19.7063C42.1128 20.1803 46 24.3667 46 29.461C46 34.8732 41.6126 39.2606 36.2004 39.2606H11.7996C6.38741 39.2606 2 34.8732 2 29.461C2 24.3667 5.88724 20.1803 10.8573 19.7062C11.6127 13.1173 17.2088 8 24 8Z" fill="var(--main-color)"/>
<path fill-rule="evenodd" clip-rule="evenodd" d="M24.0713 16C24.6236 16 25.0713 16.4477 25.0713 17L25.0713 29.6569L30.4353 24.2929C30.8258 23.9024 31.459 23.9024 31.8495 24.2929C32.2401 24.6834 32.2401 25.3166 31.8495 25.7071L24.7785 32.7782C24.6083 32.9483 24.3922 33.0443 24.1701 33.0662C23.8822 33.0947 23.5844 32.9987 23.364 32.7782L16.2929 25.7071C15.9024 25.3166 15.9024 24.6834 16.2929 24.2929C16.6834 23.9024 17.3166 23.9024 17.7071 24.2929L23.0713 29.6571L23.0713 17C23.0713 16.4477 23.519 16 24.0713 16Z" fill="var(--text_color_L4)"/>
</svg>