<svg width="100" height="50" viewBox="0 0 100 50" fill="none" xmlns="http://www.w3.org/2000/svg">
<path d="M69.5 6.52637C68.1848 9.64453 66.9503 12.5478 65.7424 15.4621C65.5432 15.9423 65.146 16.025 64.73 16.1284C53.6686 18.883 42.6049 21.6312 31.5476 24.4012C30.7533 24.6 30.4817 24.4811 30.5076 23.6228C30.5671 21.645 30.5801 19.6619 30.5029 17.6852C30.467 16.769 30.7592 16.3898 31.682 16.1577C40.978 13.8203 50.2622 11.4374 59.5494 9.0672C62.7702 8.24457 65.9904 7.42252 69.5 6.52637Z" fill="currentColor"/>
<path d="M62.8898 21.7534C61.7413 24.5068 60.6689 27.0706 59.6053 29.6373C59.4191 30.0871 59.0785 30.2325 58.6054 30.2951C49.5115 31.4997 40.4182 32.7089 31.3296 33.9526C30.6626 34.044 30.5076 33.9199 30.5158 33.2955C30.5453 31.1895 30.5483 29.083 30.5141 26.977C30.5035 26.3359 30.7386 26.1073 31.3838 26.0211C41.7994 24.6234 52.2114 23.2039 62.8898 21.7534Z" fill="currentColor"/>
<path d="M57.2866 35.6123C56.1965 38.1692 55.1553 40.6026 54.1241 43.0394C53.9309 43.4967 53.5461 43.4599 53.1536 43.4599C45.9212 43.4576 38.6887 43.4479 31.4569 43.4737C30.6909 43.4766 30.5159 43.2204 30.5294 42.5299C30.5701 40.5107 30.5524 38.4903 30.5383 36.4705C30.5347 35.9564 30.5548 35.5985 31.2701 35.6002C39.8837 35.6186 48.498 35.6123 57.2866 35.6123Z" fill="currentColor"/>
</svg>
