<svg xmlns="http://www.w3.org/2000/svg" width="48" height="48" viewBox="0 0 48 48" fill="none">
  <mask id="mask0_2094_41544" style="mask-type:alpha" maskUnits="userSpaceOnUse" x="6" y="6" width="36" height="36">
    <circle cx="24" cy="24" r="18" fill="#D9D9D9"/>
  </mask>
  <g mask="url(#mask0_2094_41544)">
    <path fill-rule="evenodd" clip-rule="evenodd" d="M20.4705 12.992C17.2079 14.0478 13.802 13.3906 11.2254 11.5176C8.65115 14.157 6.94305 17.5424 6.35131 21.184C9.24189 22.2447 11.6331 24.5757 12.6547 27.7324C13.6762 30.8888 13.1042 34.1786 11.3832 36.7317C14.3198 39.6583 18.2092 41.4967 22.3564 41.8918C23.627 39.7355 25.661 38.0177 28.2295 37.1865C30.8181 36.3488 33.4945 36.5589 35.7997 37.5825C38.9641 34.833 41.0645 31.0476 41.7397 26.9331C39.0138 25.7686 36.7873 23.4755 35.8028 20.4338C34.7996 17.3337 35.2977 14.1078 36.8953 11.5428C34.2573 8.83606 30.8169 7.02579 27.0991 6.38029C26.1085 9.40788 23.7332 11.9361 20.4705 12.992ZM28.0728 35.9093C33.8105 34.0525 36.9566 27.8958 35.0998 22.158C33.243 16.4202 27.0863 13.2741 21.3485 15.131C15.6107 16.9879 12.4646 23.1445 14.3215 28.8823C16.1784 34.62 22.335 37.7661 28.0728 35.9093Z" fill="currentColor"/>
    <path d="M27.0008 29.6018C26.7496 29.841 26.425 30.0249 26.0271 30.1538C25.6331 30.2812 25.2622 30.3223 24.9146 30.2768C24.5659 30.2276 24.2672 30.1024 24.0184 29.9012C23.7686 29.6961 23.5893 29.4254 23.4805 29.0894C23.3692 28.7456 23.3561 28.4148 23.441 28.0971C23.5286 27.7743 23.6987 27.4887 23.9513 27.2406C24.2026 26.9885 24.5195 26.8006 24.9019 26.6768C25.2882 26.5518 25.6551 26.5184 26.0026 26.5767C26.3488 26.6311 26.652 26.7635 26.9122 26.9737C27.171 27.1801 27.3561 27.4554 27.4674 27.7992C27.5761 28.1352 27.5874 28.4602 27.5012 28.774C27.4176 29.0828 27.2508 29.3587 27.0008 29.6018Z" fill="currentColor"/>
    <path d="M25.1322 24.3616C24.9171 24.5807 24.6434 24.7439 24.3113 24.8514C23.979 24.959 23.6616 24.987 23.359 24.9356C23.0564 24.8841 22.7929 24.7623 22.5686 24.5703C22.3443 24.3784 22.1815 24.1259 22.0802 23.8129C21.9802 23.5039 21.9642 23.2103 22.0321 22.9322C22.1026 22.6491 22.2461 22.3999 22.4624 22.1849C22.6775 21.9659 22.953 21.802 23.2892 21.6932C23.6291 21.5832 23.9485 21.5546 24.2472 21.6073C24.5447 21.6561 24.805 21.7745 25.0281 21.9627C25.2499 22.147 25.4108 22.3937 25.5108 22.7027C25.612 23.0157 25.6281 23.3157 25.5588 23.6027C25.4895 23.8897 25.3473 24.1427 25.1322 24.3616Z" fill="currentColor"/>
    <path fill-rule="evenodd" clip-rule="evenodd" d="M27.4489 33.9791C32.1208 32.4673 34.6824 27.4544 33.1705 22.7825C31.6586 18.1106 26.6457 15.549 21.9739 17.0608C17.302 18.5727 14.7403 23.5857 16.2522 28.2575C17.7641 32.9294 22.777 35.4911 27.4489 33.9791ZM24.1012 32.3326C24.8904 32.3974 25.7311 32.2853 26.6234 31.9965C27.5159 31.7077 28.261 31.3066 28.8588 30.793C29.4591 30.2743 29.8745 29.6982 30.1047 29.0647C30.335 28.431 30.3483 27.793 30.1446 27.1504C29.9807 26.6571 29.716 26.2413 29.3504 25.903C28.9874 25.5596 28.5665 25.3138 28.0875 25.1658C27.6112 25.0126 27.123 24.9743 26.6227 25.0509L26.5965 24.9697C27.1772 24.6409 27.5878 24.1688 27.8282 23.5532C28.0686 22.9377 28.085 22.3029 27.8776 21.6487C27.6762 21.0396 27.3183 20.5536 26.8041 20.1909C26.2885 19.8242 25.6709 19.6037 24.9512 19.5294C24.2353 19.4537 23.4775 19.5453 22.6778 19.8041C21.8781 20.0629 21.2084 20.4332 20.6687 20.9152C20.1316 21.392 19.7617 21.9301 19.5586 22.5292C19.3543 23.1245 19.3516 23.7293 19.5504 24.3435C19.7605 24.9926 20.1419 25.4986 20.6947 25.8617C21.2463 26.221 21.8595 26.3619 22.5343 26.2843L22.5605 26.3655C22.1026 26.599 21.7237 26.918 21.4235 27.3224C21.1221 27.723 20.9249 28.1688 20.8319 28.6597C20.7417 29.1456 20.7766 29.6358 20.9366 30.1303C21.1441 30.7716 21.5268 31.2815 22.0846 31.66C22.6425 32.0386 23.3146 32.2628 24.1012 32.3326Z" fill="currentColor"/>
    <path d="M-5.27379 33.5341C-3.83367 37.9843 0.941276 40.4243 5.39135 38.9841C9.8414 37.5441 12.2814 32.7691 10.8414 28.319C9.4012 23.869 4.62629 21.4289 0.176219 22.869C-4.27386 24.3092 -6.71391 29.0841 -5.27379 33.5341Z" fill="currentColor"/>
    <path d="M14.6506 -4.99372C10.3306 -3.59569 8.01311 1.19803 9.47439 5.71338C10.9356 10.2287 15.6222 12.7558 19.9422 11.3577C24.2622 9.95969 26.5796 5.16597 25.1185 0.650652C23.6572 -3.86467 18.9706 -6.39174 14.6506 -4.99372Z" fill="currentColor"/>
    <path d="M34.1591 55.51C29.4706 57.0272 24.4777 54.5736 23.0072 50.0295C21.5368 45.4855 24.1454 40.5719 28.8339 39.0546C33.5223 37.5373 38.5152 39.991 39.9857 44.535C41.4562 49.079 38.8476 53.9928 34.1591 55.51Z" fill="currentColor"/>
    <path d="M54.1353 14.5011C55.6056 19.0444 53.1145 23.9194 48.5712 25.3896C44.028 26.8598 39.1531 24.3687 37.6829 19.8255C36.2125 15.2823 38.7036 10.4074 43.2469 8.93712C47.7902 7.46678 52.6651 9.9579 54.1353 14.5011Z" fill="currentColor"/>
  </g>
</svg>