<svg width="750" height="112" viewBox="0 0 750 112" fill="none" xmlns="http://www.w3.org/2000/svg">
<mask id="path-1-inside-1_11306_61981" fill="white">
<path d="M0 0H750V112H0V0Z"/>
</mask>
<path d="M0 0H750V112H0V0Z" fill="white"/>
<path d="M0 1H750V-1H0V1Z" fill="#D5D5D5" mask="url(#path-1-inside-1_11306_61981)"/>
<path d="M98.3088 43.1849V38.3849C98.3088 30.7481 92.9568 29.0585 89.5296 29.0585H76.4016C76.4208 28.9865 76.4352 28.9049 76.4352 28.8281V25.7417C76.4352 25.2569 76.0416 24.8633 75.5568 24.8633C75.072 24.8633 74.6784 25.2569 74.6784 25.7417V28.8281C74.6784 28.9097 74.688 28.9865 74.712 29.0585H74.5296H60.8544C57.4272 29.0585 52.0752 30.7481 52.0752 38.3849V43.1897V44.5913V52.2521C52.0752 55.0457 54.3408 57.3113 57.1344 57.3113C57.9504 57.3113 58.7664 57.3113 59.5776 57.3113C59.5776 57.3113 62.304 57.4841 63.6096 56.0201C64.3872 55.1465 64.7904 54.5273 64.7904 54.5273C65.7552 53.2265 67.1424 52.5593 68.7264 52.3433C69.072 52.2953 69.4272 52.2665 69.7776 52.2521H73.344H79.4208C79.7712 52.2665 81.3024 52.2953 81.6528 52.3433C83.2368 52.5593 84.624 53.2265 85.5888 54.5273C85.5888 54.5273 85.9968 55.1465 86.7696 56.0201C88.0752 57.4889 90.8016 57.3113 90.8016 57.3113C91.6176 57.3113 92.4336 57.3113 93.2448 57.3113C96.0384 57.3113 98.304 55.0457 98.304 52.2521V44.5865L98.3088 43.1849ZM69.8064 41.9321L64.4544 41.9465L64.44 47.3081C64.44 47.7929 64.0464 48.1865 63.5616 48.1865C63.0768 48.1865 62.6832 47.7929 62.6832 47.3081L62.6928 41.9513L57.3456 41.9657C56.8608 41.9657 56.4672 41.5721 56.4672 41.0873C56.4672 40.6025 56.856 40.2089 57.3456 40.2089L62.7024 40.1945L62.712 34.8281C62.712 34.3433 63.1056 33.9497 63.5904 33.9497C64.0752 33.9497 64.4688 34.3433 64.4688 34.8281L64.4592 40.1897L69.8064 40.1753C70.2912 40.1753 70.6848 40.5689 70.6848 41.0537C70.6848 41.5337 70.2912 41.9273 69.8064 41.9321ZM83.2608 40.8809C81.7968 40.8809 80.6064 39.6905 80.6064 38.2265C80.6064 36.7625 81.7968 35.5769 83.2608 35.5769C84.7248 35.5769 85.9152 36.7673 85.9152 38.2265C85.9104 39.6905 84.7248 40.8809 83.2608 40.8809ZM90.12 47.1209C88.608 47.1209 87.3792 45.8921 87.3792 44.3849C87.3792 42.8729 88.608 41.6441 90.12 41.6441C91.632 41.6441 92.8608 42.8729 92.8608 44.3849C92.8608 45.8921 91.632 47.1209 90.12 47.1209Z" fill="#237C57"/>
<path d="M45.9966 76.12C45.5326 75.144 44.8606 74.392 43.9806 73.864C43.1006 73.32 42.0766 73.048 40.9086 73.048C39.7406 73.048 38.6846 73.32 37.7406 73.864C36.8126 74.392 36.0766 75.16 35.5326 76.168C35.0046 77.16 34.7406 78.312 34.7406 79.624C34.7406 80.936 35.0046 82.088 35.5326 83.08C36.0766 84.072 36.8126 84.84 37.7406 85.384C38.6846 85.912 39.7406 86.176 40.9086 86.176C42.5406 86.176 43.8846 85.688 44.9406 84.712C45.9966 83.736 46.6126 82.416 46.7886 80.752H40.1166V78.976H49.1166V80.656C48.9886 82.032 48.5566 83.296 47.8206 84.448C47.0846 85.584 46.1166 86.488 44.9166 87.16C43.7166 87.816 42.3806 88.144 40.9086 88.144C39.3566 88.144 37.9406 87.784 36.6606 87.064C35.3806 86.328 34.3646 85.312 33.6126 84.016C32.8766 82.72 32.5086 81.256 32.5086 79.624C32.5086 77.992 32.8766 76.528 33.6126 75.232C34.3646 73.92 35.3806 72.904 36.6606 72.184C37.9406 71.448 39.3566 71.08 40.9086 71.08C42.6846 71.08 44.2526 71.52 45.6126 72.4C46.9886 73.28 47.9886 74.52 48.6126 76.12H45.9966ZM51.1883 81.376C51.1883 80.032 51.4603 78.856 52.0043 77.848C52.5483 76.824 53.2923 76.032 54.2363 75.472C55.1963 74.912 56.2603 74.632 57.4283 74.632C58.5803 74.632 59.5803 74.88 60.4283 75.376C61.2763 75.872 61.9083 76.496 62.3243 77.248V74.848H64.5323V88H62.3243V85.552C61.8923 86.32 61.2443 86.96 60.3803 87.472C59.5323 87.968 58.5403 88.216 57.4043 88.216C56.2363 88.216 55.1803 87.928 54.2363 87.352C53.2923 86.776 52.5483 85.968 52.0043 84.928C51.4603 83.888 51.1883 82.704 51.1883 81.376ZM62.3243 81.4C62.3243 80.408 62.1243 79.544 61.7243 78.808C61.3243 78.072 60.7803 77.512 60.0923 77.128C59.4203 76.728 58.6763 76.528 57.8603 76.528C57.0443 76.528 56.3003 76.72 55.6283 77.104C54.9563 77.488 54.4203 78.048 54.0203 78.784C53.6203 79.52 53.4203 80.384 53.4203 81.376C53.4203 82.384 53.6203 83.264 54.0203 84.016C54.4203 84.752 54.9563 85.32 55.6283 85.72C56.3003 86.104 57.0443 86.296 57.8603 86.296C58.6763 86.296 59.4203 86.104 60.0923 85.72C60.7803 85.32 61.3243 84.752 61.7243 84.016C62.1243 83.264 62.3243 82.392 62.3243 81.4ZM84.039 74.608C85.063 74.608 85.975 74.824 86.775 75.256C87.575 75.672 88.207 76.304 88.671 77.152C89.135 78 89.367 79.032 89.367 80.248V88H87.207V80.56C87.207 79.248 86.879 78.248 86.223 77.56C85.583 76.856 84.711 76.504 83.607 76.504C82.471 76.504 81.567 76.872 80.895 77.608C80.223 78.328 79.887 79.376 79.887 80.752V88H77.727V80.56C77.727 79.248 77.399 78.248 76.743 77.56C76.103 76.856 75.231 76.504 74.127 76.504C72.991 76.504 72.087 76.872 71.415 77.608C70.743 78.328 70.407 79.376 70.407 80.752V88H68.223V74.848H70.407V76.744C70.839 76.056 71.415 75.528 72.135 75.16C72.871 74.792 73.679 74.608 74.559 74.608C75.663 74.608 76.639 74.856 77.487 75.352C78.335 75.848 78.967 76.576 79.383 77.536C79.751 76.608 80.359 75.888 81.207 75.376C82.055 74.864 82.999 74.608 84.039 74.608ZM104.95 80.92C104.95 81.336 104.926 81.776 104.878 82.24H94.3656C94.4456 83.536 94.8856 84.552 95.6856 85.288C96.5016 86.008 97.4856 86.368 98.6376 86.368C99.5816 86.368 100.366 86.152 100.99 85.72C101.63 85.272 102.078 84.68 102.334 83.944H104.686C104.334 85.208 103.63 86.24 102.574 87.04C101.518 87.824 100.206 88.216 98.6376 88.216C97.3896 88.216 96.2696 87.936 95.2776 87.376C94.3016 86.816 93.5336 86.024 92.9736 85C92.4136 83.96 92.1336 82.76 92.1336 81.4C92.1336 80.04 92.4056 78.848 92.9496 77.824C93.4936 76.8 94.2536 76.016 95.2296 75.472C96.2216 74.912 97.3576 74.632 98.6376 74.632C99.8856 74.632 100.99 74.904 101.95 75.448C102.91 75.992 103.646 76.744 104.158 77.704C104.686 78.648 104.95 79.72 104.95 80.92ZM102.694 80.464C102.694 79.632 102.51 78.92 102.142 78.328C101.774 77.72 101.27 77.264 100.63 76.96C100.006 76.64 99.3096 76.48 98.5416 76.48C97.4376 76.48 96.4936 76.832 95.7096 77.536C94.9416 78.24 94.5016 79.216 94.3896 80.464H102.694ZM112.488 88.216C111.48 88.216 110.576 88.048 109.776 87.712C108.976 87.36 108.344 86.88 107.88 86.272C107.416 85.648 107.16 84.936 107.112 84.136H109.368C109.432 84.792 109.736 85.328 110.28 85.744C110.84 86.16 111.568 86.368 112.464 86.368C113.296 86.368 113.952 86.184 114.432 85.816C114.912 85.448 115.152 84.984 115.152 84.424C115.152 83.848 114.896 83.424 114.384 83.152C113.872 82.864 113.08 82.584 112.008 82.312C111.032 82.056 110.232 81.8 109.608 81.544C109 81.272 108.472 80.88 108.024 80.368C107.592 79.84 107.376 79.152 107.376 78.304C107.376 77.632 107.576 77.016 107.976 76.456C108.376 75.896 108.944 75.456 109.68 75.136C110.416 74.8 111.256 74.632 112.2 74.632C113.656 74.632 114.832 75 115.728 75.736C116.624 76.472 117.104 77.48 117.168 78.76H114.984C114.936 78.072 114.656 77.52 114.144 77.104C113.648 76.688 112.976 76.48 112.128 76.48C111.344 76.48 110.72 76.648 110.256 76.984C109.792 77.32 109.56 77.76 109.56 78.304C109.56 78.736 109.696 79.096 109.968 79.384C110.256 79.656 110.608 79.88 111.024 80.056C111.456 80.216 112.048 80.4 112.8 80.608C113.744 80.864 114.512 81.12 115.104 81.376C115.696 81.616 116.2 81.984 116.616 82.48C117.048 82.976 117.272 83.624 117.288 84.424C117.288 85.144 117.088 85.792 116.688 86.368C116.288 86.944 115.72 87.4 114.984 87.736C114.264 88.056 113.432 88.216 112.488 88.216Z" fill="#999999"/>
<mask id="path-5-inside-2_11306_61981" fill="white">
<rect x="209" y="26" width="14" height="14" rx="2"/>
</mask>
<rect x="209" y="26" width="14" height="14" rx="2" stroke="#999999" stroke-width="5" mask="url(#path-5-inside-2_11306_61981)"/>
<mask id="path-6-inside-3_11306_61981" fill="white">
<rect x="227" y="26" width="14" height="14" rx="2"/>
</mask>
<rect x="227" y="26" width="14" height="14" rx="2" stroke="#999999" stroke-width="5" mask="url(#path-6-inside-3_11306_61981)"/>
<mask id="path-7-inside-4_11306_61981" fill="white">
<rect x="209" y="44" width="14" height="14" rx="2"/>
</mask>
<rect x="209" y="44" width="14" height="14" rx="2" stroke="#999999" stroke-width="5" mask="url(#path-7-inside-4_11306_61981)"/>
<mask id="path-8-inside-5_11306_61981" fill="white">
<rect x="227" y="44" width="14" height="14" rx="2"/>
</mask>
<rect x="227" y="44" width="14" height="14" rx="2" stroke="#999999" stroke-width="5" mask="url(#path-8-inside-5_11306_61981)"/>
<path d="M206.162 84.28H198.866L197.522 88H195.218L201.266 71.368H203.786L209.81 88H207.506L206.162 84.28ZM205.538 82.504L202.514 74.056L199.49 82.504H205.538ZM214.63 77.272C215.062 76.52 215.702 75.896 216.55 75.4C217.414 74.888 218.414 74.632 219.55 74.632C220.718 74.632 221.774 74.912 222.718 75.472C223.678 76.032 224.43 76.824 224.974 77.848C225.518 78.856 225.79 80.032 225.79 81.376C225.79 82.704 225.518 83.888 224.974 84.928C224.43 85.968 223.678 86.776 222.718 87.352C221.774 87.928 220.718 88.216 219.55 88.216C218.43 88.216 217.438 87.968 216.574 87.472C215.726 86.96 215.078 86.328 214.63 85.576V94.24H212.446V74.848H214.63V77.272ZM223.558 81.376C223.558 80.384 223.358 79.52 222.958 78.784C222.558 78.048 222.014 77.488 221.326 77.104C220.654 76.72 219.91 76.528 219.094 76.528C218.294 76.528 217.55 76.728 216.862 77.128C216.19 77.512 215.646 78.08 215.23 78.832C214.83 79.568 214.63 80.424 214.63 81.4C214.63 82.392 214.83 83.264 215.23 84.016C215.646 84.752 216.19 85.32 216.862 85.72C217.55 86.104 218.294 86.296 219.094 86.296C219.91 86.296 220.654 86.104 221.326 85.72C222.014 85.32 222.558 84.752 222.958 84.016C223.358 83.264 223.558 82.384 223.558 81.376ZM230.848 77.272C231.28 76.52 231.92 75.896 232.768 75.4C233.632 74.888 234.632 74.632 235.768 74.632C236.936 74.632 237.992 74.912 238.936 75.472C239.896 76.032 240.648 76.824 241.192 77.848C241.736 78.856 242.008 80.032 242.008 81.376C242.008 82.704 241.736 83.888 241.192 84.928C240.648 85.968 239.896 86.776 238.936 87.352C237.992 87.928 236.936 88.216 235.768 88.216C234.648 88.216 233.656 87.968 232.792 87.472C231.944 86.96 231.296 86.328 230.848 85.576V94.24H228.664V74.848H230.848V77.272ZM239.776 81.376C239.776 80.384 239.576 79.52 239.176 78.784C238.776 78.048 238.232 77.488 237.544 77.104C236.872 76.72 236.128 76.528 235.312 76.528C234.512 76.528 233.768 76.728 233.08 77.128C232.408 77.512 231.864 78.08 231.448 78.832C231.048 79.568 230.848 80.424 230.848 81.4C230.848 82.392 231.048 83.264 231.448 84.016C231.864 84.752 232.408 85.32 233.08 85.72C233.768 86.104 234.512 86.296 235.312 86.296C236.128 86.296 236.872 86.104 237.544 85.72C238.232 85.32 238.776 84.752 239.176 84.016C239.576 83.264 239.776 82.384 239.776 81.376ZM249.539 88.216C248.531 88.216 247.627 88.048 246.827 87.712C246.027 87.36 245.395 86.88 244.931 86.272C244.467 85.648 244.211 84.936 244.163 84.136H246.419C246.483 84.792 246.787 85.328 247.331 85.744C247.891 86.16 248.619 86.368 249.515 86.368C250.347 86.368 251.003 86.184 251.483 85.816C251.963 85.448 252.203 84.984 252.203 84.424C252.203 83.848 251.947 83.424 251.435 83.152C250.923 82.864 250.131 82.584 249.059 82.312C248.083 82.056 247.283 81.8 246.659 81.544C246.051 81.272 245.523 80.88 245.075 80.368C244.643 79.84 244.427 79.152 244.427 78.304C244.427 77.632 244.627 77.016 245.027 76.456C245.427 75.896 245.995 75.456 246.731 75.136C247.467 74.8 248.307 74.632 249.251 74.632C250.707 74.632 251.883 75 252.779 75.736C253.675 76.472 254.155 77.48 254.219 78.76H252.035C251.987 78.072 251.707 77.52 251.195 77.104C250.699 76.688 250.027 76.48 249.179 76.48C248.395 76.48 247.771 76.648 247.307 76.984C246.843 77.32 246.611 77.76 246.611 78.304C246.611 78.736 246.747 79.096 247.019 79.384C247.307 79.656 247.659 79.88 248.075 80.056C248.507 80.216 249.099 80.4 249.851 80.608C250.795 80.864 251.563 81.12 252.155 81.376C252.747 81.616 253.251 81.984 253.667 82.48C254.099 82.976 254.323 83.624 254.339 84.424C254.339 85.144 254.139 85.792 253.739 86.368C253.339 86.944 252.771 87.4 252.035 87.736C251.315 88.056 250.483 88.216 249.539 88.216Z" fill="#999999"/>
<mask id="path-10-inside-6_11306_61981" fill="white">
<rect x="360" y="25" width="30" height="34" rx="2"/>
</mask>
<rect x="360" y="25" width="30" height="34" rx="2" stroke="#999999" stroke-width="5" mask="url(#path-10-inside-6_11306_61981)"/>
<path fill-rule="evenodd" clip-rule="evenodd" d="M366 32C365.448 32 365 32.4477 365 33C365 33.5523 365.448 34 366 34H373C373.552 34 374 33.5523 374 33C374 32.4477 373.552 32 373 32H366ZM366 38C365.448 38 365 38.4477 365 39C365 39.5523 365.448 40 366 40H373C373.552 40 374 39.5523 374 39C374 38.4477 373.552 38 373 38H366ZM365 45C365 44.4477 365.448 44 366 44H373C373.552 44 374 44.4477 374 45C374 45.5523 373.552 46 373 46H366C365.448 46 365 45.5523 365 45ZM366 50C365.448 50 365 50.4477 365 51C365 51.5523 365.448 52 366 52H373C373.552 52 374 51.5523 374 51C374 50.4477 373.552 50 373 50H366ZM376 33C376 32.4477 376.448 32 377 32H384C384.552 32 385 32.4477 385 33C385 33.5523 384.552 34 384 34H377C376.448 34 376 33.5523 376 33ZM377 38C376.448 38 376 38.4477 376 39C376 39.5523 376.448 40 377 40H384C384.552 40 385 39.5523 385 39C385 38.4477 384.552 38 384 38H377ZM376 45C376 44.4477 376.448 44 377 44H384C384.552 44 385 44.4477 385 45C385 45.5523 384.552 46 384 46H377C376.448 46 376 45.5523 376 45ZM377 50C376.448 50 376 50.4477 376 51C376 51.5523 376.448 52 377 52H384C384.552 52 385 51.5523 385 51C385 50.4477 384.552 50 384 50H377Z" fill="#999999"/>
<path d="M322.543 71.392V88H320.359V75.616L314.839 88H313.303L307.759 75.592V88H305.575V71.392H307.927L314.071 85.12L320.215 71.392H322.543ZM331.982 88.216C330.75 88.216 329.63 87.936 328.622 87.376C327.63 86.816 326.846 86.024 326.27 85C325.71 83.96 325.43 82.76 325.43 81.4C325.43 80.056 325.718 78.872 326.294 77.848C326.886 76.808 327.686 76.016 328.694 75.472C329.702 74.912 330.83 74.632 332.078 74.632C333.326 74.632 334.454 74.912 335.462 75.472C336.47 76.016 337.262 76.8 337.838 77.824C338.43 78.848 338.726 80.04 338.726 81.4C338.726 82.76 338.422 83.96 337.814 85C337.222 86.024 336.414 86.816 335.39 87.376C334.366 87.936 333.23 88.216 331.982 88.216ZM331.982 86.296C332.766 86.296 333.502 86.112 334.19 85.744C334.878 85.376 335.43 84.824 335.846 84.088C336.278 83.352 336.494 82.456 336.494 81.4C336.494 80.344 336.286 79.448 335.87 78.712C335.454 77.976 334.91 77.432 334.238 77.08C333.566 76.712 332.838 76.528 332.054 76.528C331.254 76.528 330.518 76.712 329.846 77.08C329.19 77.432 328.662 77.976 328.262 78.712C327.862 79.448 327.662 80.344 327.662 81.4C327.662 82.472 327.854 83.376 328.238 84.112C328.638 84.848 329.166 85.4 329.822 85.768C330.478 86.12 331.198 86.296 331.982 86.296ZM346.494 85.984L350.574 74.848H352.902L347.742 88H345.198L340.038 74.848H342.39L346.494 85.984ZM356.179 72.712C355.763 72.712 355.411 72.568 355.123 72.28C354.835 71.992 354.691 71.64 354.691 71.224C354.691 70.808 354.835 70.456 355.123 70.168C355.411 69.88 355.763 69.736 356.179 69.736C356.579 69.736 356.915 69.88 357.187 70.168C357.475 70.456 357.619 70.808 357.619 71.224C357.619 71.64 357.475 71.992 357.187 72.28C356.915 72.568 356.579 72.712 356.179 72.712ZM357.235 74.848V88H355.051V74.848H357.235ZM372.957 80.92C372.957 81.336 372.933 81.776 372.885 82.24H362.373C362.453 83.536 362.893 84.552 363.693 85.288C364.509 86.008 365.493 86.368 366.645 86.368C367.589 86.368 368.373 86.152 368.997 85.72C369.637 85.272 370.085 84.68 370.341 83.944H372.693C372.341 85.208 371.637 86.24 370.581 87.04C369.525 87.824 368.213 88.216 366.645 88.216C365.397 88.216 364.277 87.936 363.285 87.376C362.309 86.816 361.541 86.024 360.981 85C360.421 83.96 360.141 82.76 360.141 81.4C360.141 80.04 360.413 78.848 360.957 77.824C361.501 76.8 362.261 76.016 363.237 75.472C364.229 74.912 365.365 74.632 366.645 74.632C367.893 74.632 368.997 74.904 369.957 75.448C370.917 75.992 371.653 76.744 372.165 77.704C372.693 78.648 372.957 79.72 372.957 80.92ZM370.701 80.464C370.701 79.632 370.517 78.92 370.149 78.328C369.781 77.72 369.277 77.264 368.637 76.96C368.013 76.64 367.317 76.48 366.549 76.48C365.445 76.48 364.501 76.832 363.717 77.536C362.949 78.24 362.509 79.216 362.397 80.464H370.701ZM380.496 88.216C379.488 88.216 378.584 88.048 377.784 87.712C376.984 87.36 376.352 86.88 375.888 86.272C375.424 85.648 375.168 84.936 375.12 84.136H377.376C377.44 84.792 377.744 85.328 378.288 85.744C378.848 86.16 379.576 86.368 380.472 86.368C381.304 86.368 381.96 86.184 382.44 85.816C382.92 85.448 383.16 84.984 383.16 84.424C383.16 83.848 382.904 83.424 382.392 83.152C381.88 82.864 381.088 82.584 380.016 82.312C379.04 82.056 378.24 81.8 377.616 81.544C377.008 81.272 376.48 80.88 376.032 80.368C375.6 79.84 375.384 79.152 375.384 78.304C375.384 77.632 375.584 77.016 375.984 76.456C376.384 75.896 376.952 75.456 377.688 75.136C378.424 74.8 379.264 74.632 380.208 74.632C381.664 74.632 382.84 75 383.736 75.736C384.632 76.472 385.112 77.48 385.176 78.76H382.992C382.944 78.072 382.664 77.52 382.152 77.104C381.656 76.688 380.984 76.48 380.136 76.48C379.352 76.48 378.728 76.648 378.264 76.984C377.8 77.32 377.568 77.76 377.568 78.304C377.568 78.736 377.704 79.096 377.976 79.384C378.264 79.656 378.616 79.88 379.032 80.056C379.464 80.216 380.056 80.4 380.808 80.608C381.752 80.864 382.52 81.12 383.112 81.376C383.704 81.616 384.208 81.984 384.624 82.48C385.056 82.976 385.28 83.624 385.296 84.424C385.296 85.144 385.096 85.792 384.696 86.368C384.296 86.944 383.728 87.4 382.992 87.736C382.272 88.056 381.44 88.216 380.496 88.216ZM407.618 88L405.434 85.792C404.618 86.64 403.746 87.272 402.818 87.688C401.89 88.088 400.842 88.288 399.674 88.288C398.522 88.288 397.498 88.08 396.602 87.664C395.722 87.248 395.034 86.656 394.538 85.888C394.058 85.12 393.818 84.224 393.818 83.2C393.818 82.032 394.146 81.008 394.802 80.128C395.474 79.232 396.458 78.528 397.754 78.016C397.242 77.408 396.874 76.848 396.65 76.336C396.426 75.824 396.314 75.264 396.314 74.656C396.314 73.952 396.49 73.32 396.842 72.76C397.21 72.184 397.73 71.736 398.402 71.416C399.074 71.096 399.85 70.936 400.73 70.936C401.594 70.936 402.346 71.104 402.986 71.44C403.626 71.776 404.106 72.248 404.426 72.856C404.746 73.448 404.89 74.112 404.858 74.848H402.674C402.69 74.192 402.506 73.68 402.122 73.312C401.738 72.928 401.242 72.736 400.634 72.736C399.994 72.736 399.474 72.92 399.074 73.288C398.69 73.64 398.498 74.096 398.498 74.656C398.498 75.136 398.626 75.6 398.882 76.048C399.154 76.496 399.602 77.048 400.226 77.704L405.218 82.72L405.65 82.048L407.282 79.312H409.634L407.666 82.72C407.394 83.2 407.074 83.704 406.706 84.232L410.474 88H407.618ZM399.674 86.416C400.538 86.416 401.314 86.248 402.002 85.912C402.706 85.576 403.37 85.056 403.994 84.352L399.074 79.408C397.026 80.192 396.002 81.432 396.002 83.128C396.002 84.072 396.338 84.856 397.01 85.48C397.698 86.104 398.586 86.416 399.674 86.416ZM429.214 71.272V73.048H424.654V88H422.47V73.048H417.886V71.272H429.214ZM445.727 71.272L439.415 88H436.895L430.583 71.272H432.911L438.167 85.696L443.423 71.272H445.727Z" fill="#999999"/>
<mask id="path-13-inside-7_11306_61981" fill="white">
<rect x="510" y="25" width="30" height="34" rx="2"/>
</mask>
<rect x="510" y="25" width="30" height="34" rx="2" stroke="#999999" stroke-width="5" mask="url(#path-13-inside-7_11306_61981)"/>
<path d="M525.746 33.9899L525.746 33.9899C525.287 33.7144 524.713 33.7144 524.254 33.9899L521.25 35.7923V26.25H528.75V35.7923L525.746 33.9899Z" stroke="#999999" stroke-width="2.5"/>
<path d="M500.068 79.384C500.676 79.48 501.228 79.728 501.724 80.128C502.236 80.528 502.636 81.024 502.924 81.616C503.228 82.208 503.38 82.84 503.38 83.512C503.38 84.36 503.164 85.128 502.732 85.816C502.3 86.488 501.668 87.024 500.836 87.424C500.02 87.808 499.052 88 497.932 88H491.692V71.272H497.692C498.828 71.272 499.796 71.464 500.596 71.848C501.396 72.216 501.996 72.72 502.396 73.36C502.796 74 502.996 74.72 502.996 75.52C502.996 76.512 502.724 77.336 502.18 77.992C501.652 78.632 500.948 79.096 500.068 79.384ZM493.876 78.496H497.548C498.572 78.496 499.364 78.256 499.924 77.776C500.484 77.296 500.764 76.632 500.764 75.784C500.764 74.936 500.484 74.272 499.924 73.792C499.364 73.312 498.556 73.072 497.5 73.072H493.876V78.496ZM497.74 86.2C498.828 86.2 499.676 85.944 500.284 85.432C500.892 84.92 501.196 84.208 501.196 83.296C501.196 82.368 500.876 81.64 500.236 81.112C499.596 80.568 498.74 80.296 497.668 80.296H493.876V86.2H497.74ZM512.147 88.216C510.915 88.216 509.795 87.936 508.787 87.376C507.795 86.816 507.011 86.024 506.435 85C505.875 83.96 505.595 82.76 505.595 81.4C505.595 80.056 505.883 78.872 506.459 77.848C507.051 76.808 507.851 76.016 508.859 75.472C509.867 74.912 510.995 74.632 512.243 74.632C513.491 74.632 514.619 74.912 515.627 75.472C516.635 76.016 517.427 76.8 518.003 77.824C518.595 78.848 518.891 80.04 518.891 81.4C518.891 82.76 518.587 83.96 517.979 85C517.387 86.024 516.579 86.816 515.555 87.376C514.531 87.936 513.395 88.216 512.147 88.216ZM512.147 86.296C512.931 86.296 513.667 86.112 514.355 85.744C515.043 85.376 515.595 84.824 516.011 84.088C516.443 83.352 516.659 82.456 516.659 81.4C516.659 80.344 516.451 79.448 516.035 78.712C515.619 77.976 515.075 77.432 514.403 77.08C513.731 76.712 513.003 76.528 512.219 76.528C511.419 76.528 510.683 76.712 510.011 77.08C509.355 77.432 508.827 77.976 508.427 78.712C508.027 79.448 507.827 80.344 507.827 81.4C507.827 82.472 508.019 83.376 508.403 84.112C508.803 84.848 509.331 85.4 509.987 85.768C510.643 86.12 511.363 86.296 512.147 86.296ZM527.498 88.216C526.266 88.216 525.146 87.936 524.138 87.376C523.146 86.816 522.362 86.024 521.786 85C521.226 83.96 520.946 82.76 520.946 81.4C520.946 80.056 521.234 78.872 521.81 77.848C522.402 76.808 523.202 76.016 524.21 75.472C525.218 74.912 526.346 74.632 527.594 74.632C528.842 74.632 529.97 74.912 530.978 75.472C531.986 76.016 532.778 76.8 533.354 77.824C533.946 78.848 534.242 80.04 534.242 81.4C534.242 82.76 533.938 83.96 533.33 85C532.738 86.024 531.93 86.816 530.906 87.376C529.882 87.936 528.746 88.216 527.498 88.216ZM527.498 86.296C528.282 86.296 529.018 86.112 529.706 85.744C530.394 85.376 530.946 84.824 531.362 84.088C531.794 83.352 532.01 82.456 532.01 81.4C532.01 80.344 531.802 79.448 531.386 78.712C530.97 77.976 530.426 77.432 529.754 77.08C529.082 76.712 528.354 76.528 527.57 76.528C526.77 76.528 526.034 76.712 525.362 77.08C524.706 77.432 524.178 77.976 523.778 78.712C523.378 79.448 523.178 80.344 523.178 81.4C523.178 82.472 523.37 83.376 523.754 84.112C524.154 84.848 524.682 85.4 525.338 85.768C525.994 86.12 526.714 86.296 527.498 86.296ZM544.458 88L539.298 82.192V88H537.114V70.24H539.298V80.68L544.362 74.848H547.41L541.218 81.4L547.434 88H544.458ZM554.121 88.216C553.113 88.216 552.209 88.048 551.409 87.712C550.609 87.36 549.977 86.88 549.513 86.272C549.049 85.648 548.793 84.936 548.745 84.136H551.001C551.065 84.792 551.369 85.328 551.913 85.744C552.473 86.16 553.201 86.368 554.097 86.368C554.929 86.368 555.585 86.184 556.065 85.816C556.545 85.448 556.785 84.984 556.785 84.424C556.785 83.848 556.529 83.424 556.017 83.152C555.505 82.864 554.713 82.584 553.641 82.312C552.665 82.056 551.865 81.8 551.241 81.544C550.633 81.272 550.105 80.88 549.657 80.368C549.225 79.84 549.009 79.152 549.009 78.304C549.009 77.632 549.209 77.016 549.609 76.456C550.009 75.896 550.577 75.456 551.313 75.136C552.049 74.8 552.889 74.632 553.833 74.632C555.289 74.632 556.465 75 557.361 75.736C558.257 76.472 558.737 77.48 558.801 78.76H556.617C556.569 78.072 556.289 77.52 555.777 77.104C555.281 76.688 554.609 76.48 553.761 76.48C552.977 76.48 552.353 76.648 551.889 76.984C551.425 77.32 551.193 77.76 551.193 78.304C551.193 78.736 551.329 79.096 551.601 79.384C551.889 79.656 552.241 79.88 552.657 80.056C553.089 80.216 553.681 80.4 554.433 80.608C555.377 80.864 556.145 81.12 556.737 81.376C557.329 81.616 557.833 81.984 558.249 82.48C558.681 82.976 558.905 83.624 558.921 84.424C558.921 85.144 558.721 85.792 558.321 86.368C557.921 86.944 557.353 87.4 556.617 87.736C555.897 88.056 555.065 88.216 554.121 88.216Z" fill="#999999"/>
<path d="M673.857 24.9631C674.401 24.1479 675.599 24.1479 676.143 24.9631L680.73 31.8305C681.242 32.5984 682.012 33.1579 682.901 33.4083L690.85 35.6478C691.793 35.9136 692.163 37.0532 691.556 37.8228L686.442 44.3066C685.87 45.0316 685.576 45.9369 685.613 46.8595L685.939 55.111C685.978 56.0905 685.009 56.7948 684.089 56.4553L676.342 53.5951C675.476 53.2752 674.524 53.2752 673.658 53.5951L665.911 56.4553C664.991 56.7948 664.022 56.0905 664.061 55.111L664.387 46.8595C664.424 45.9369 664.13 45.0316 663.558 44.3066L658.444 37.8228C657.837 37.0532 658.207 35.9136 659.15 35.6478L667.099 33.4083C667.988 33.1579 668.758 32.5984 669.27 31.8305L673.857 24.9631Z" stroke="#999999" stroke-width="2.5"/>
<path d="M661.404 88L654.516 80.368V88H652.332V71.272H654.516V79.024L661.428 71.272H664.188L656.604 79.648L664.26 88H661.404ZM667.828 72.712C667.412 72.712 667.06 72.568 666.772 72.28C666.484 71.992 666.34 71.64 666.34 71.224C666.34 70.808 666.484 70.456 666.772 70.168C667.06 69.88 667.412 69.736 667.828 69.736C668.228 69.736 668.564 69.88 668.836 70.168C669.124 70.456 669.268 70.808 669.268 71.224C669.268 71.64 669.124 71.992 668.836 72.28C668.564 72.568 668.228 72.712 667.828 72.712ZM668.884 74.848V88H666.7V74.848H668.884ZM671.79 81.376C671.79 80.032 672.062 78.856 672.606 77.848C673.15 76.824 673.894 76.032 674.838 75.472C675.798 74.912 676.87 74.632 678.054 74.632C679.078 74.632 680.03 74.872 680.91 75.352C681.79 75.816 682.462 76.432 682.926 77.2V70.24H685.134V88H682.926V85.528C682.494 86.312 681.854 86.96 681.006 87.472C680.158 87.968 679.166 88.216 678.03 88.216C676.862 88.216 675.798 87.928 674.838 87.352C673.894 86.776 673.15 85.968 672.606 84.928C672.062 83.888 671.79 82.704 671.79 81.376ZM682.926 81.4C682.926 80.408 682.726 79.544 682.326 78.808C681.926 78.072 681.382 77.512 680.694 77.128C680.022 76.728 679.278 76.528 678.462 76.528C677.646 76.528 676.902 76.72 676.23 77.104C675.558 77.488 675.022 78.048 674.622 78.784C674.222 79.52 674.022 80.384 674.022 81.376C674.022 82.384 674.222 83.264 674.622 84.016C675.022 84.752 675.558 85.32 676.23 85.72C676.902 86.104 677.646 86.296 678.462 86.296C679.278 86.296 680.022 86.104 680.694 85.72C681.382 85.32 681.926 84.752 682.326 84.016C682.726 83.264 682.926 82.392 682.926 81.4ZM693.481 88.216C692.473 88.216 691.569 88.048 690.769 87.712C689.969 87.36 689.337 86.88 688.873 86.272C688.409 85.648 688.153 84.936 688.105 84.136H690.361C690.425 84.792 690.729 85.328 691.273 85.744C691.833 86.16 692.561 86.368 693.457 86.368C694.289 86.368 694.945 86.184 695.425 85.816C695.905 85.448 696.145 84.984 696.145 84.424C696.145 83.848 695.889 83.424 695.377 83.152C694.865 82.864 694.073 82.584 693.001 82.312C692.025 82.056 691.225 81.8 690.601 81.544C689.993 81.272 689.465 80.88 689.017 80.368C688.585 79.84 688.369 79.152 688.369 78.304C688.369 77.632 688.569 77.016 688.969 76.456C689.369 75.896 689.937 75.456 690.673 75.136C691.409 74.8 692.249 74.632 693.193 74.632C694.649 74.632 695.825 75 696.721 75.736C697.617 76.472 698.097 77.48 698.161 78.76H695.977C695.929 78.072 695.649 77.52 695.137 77.104C694.641 76.688 693.969 76.48 693.121 76.48C692.337 76.48 691.713 76.648 691.249 76.984C690.785 77.32 690.553 77.76 690.553 78.304C690.553 78.736 690.689 79.096 690.961 79.384C691.249 79.656 691.601 79.88 692.017 80.056C692.449 80.216 693.041 80.4 693.793 80.608C694.737 80.864 695.505 81.12 696.097 81.376C696.689 81.616 697.193 81.984 697.609 82.48C698.041 82.976 698.265 83.624 698.281 84.424C698.281 85.144 698.081 85.792 697.681 86.368C697.281 86.944 696.713 87.4 695.977 87.736C695.257 88.056 694.425 88.216 693.481 88.216Z" fill="#999999"/>
</svg>
