<svg width="120" height="32" viewBox="0 0 120 32"  xmlns="http://www.w3.org/2000/svg">
<path d="M68.4801 1.31378C69.1889 1.09426 69.9348 0.975243 70.678 1.00433C72.7056 1.08099 74.5193 1.80222 74.5213 1.803H74.5187L73.6642 6.62757C73.6625 6.62618 73.5726 6.55248 73.4023 6.43721C72.8998 6.10396 72.3259 5.88687 71.7308 5.79429C71.0484 5.68849 70.3262 5.75203 69.6729 5.97949C69.1862 6.14877 68.7314 6.40551 68.3347 6.73348C67.9405 7.06146 67.6019 7.45819 67.3454 7.90256C67.0809 8.36013 66.9169 8.85744 66.8244 9.3785L66.1763 13.0443H70.321L69.5618 17.3347H65.4171L64.3459 23.3759C63.8778 26.3383 62.0394 28.9462 59.4527 30.1708C57.3023 31.1891 54.3292 31.242 52.073 30.4803C51.3906 30.2475 50.732 29.9461 50.1184 29.5679C48.333 28.4623 47.1243 26.7112 46.6561 24.6692C46.3414 23.307 46.2592 21.7755 46.521 20.3974C46.812 18.8633 47.6028 17.435 48.637 16.2739C50.3774 14.3192 52.9326 13.0469 55.5696 13.0469H59.8202L59.0611 17.3373H55.2152C52.9167 17.3373 50.9303 18.9957 50.5733 21.2625L50.5547 21.3787C50.1077 24.2115 52.3534 26.7561 55.2206 26.7561C57.5191 26.756 59.3916 25.0871 59.7461 22.8151L62.2986 8.41554C62.833 5.02466 65.3193 2.29507 68.4801 1.31378Z" />
<path fill-rule="evenodd" clip-rule="evenodd" d="M109.88 6.61698C110.94 6.58524 111.975 6.75714 112.914 7.11422C113.797 7.44897 114.595 7.9443 115.261 8.58241L115.395 8.70665C116.741 10.0741 117.4 11.9362 117.299 14.0972C117.262 14.888 117.072 16.5675 116.828 17.9058C116.022 22.1193 113.213 24.6138 109.126 24.7434C106.986 24.8121 104.965 24.045 103.58 22.6405C102.238 21.281 101.582 19.4242 101.68 17.2738C101.72 16.3877 101.908 14.716 102.151 13.4517C102.958 9.23824 105.772 6.74663 109.88 6.61698ZM109.896 10.7274C107.819 10.7935 106.642 11.9362 106.187 14.3273C106.039 15.1526 105.873 16.6603 105.846 17.2237C105.791 18.2843 106.066 19.1306 106.664 19.7416C107.253 20.342 108.166 20.6858 109.107 20.6568C109.856 20.6329 112.131 20.5614 112.795 17.0462C112.953 16.2183 113.101 14.7558 113.141 14.1739L113.147 14.1579C113.231 13.1132 112.977 12.2722 112.398 11.6691C111.803 11.0475 110.869 10.6956 109.896 10.7274Z" />
<path d="M82.3321 6.63558C82.3599 6.6356 83.5707 6.65169 85.0008 7.08787L84.2022 11.595C83.6414 11.2617 82.9774 11.1822 82.3558 11.1822C80.3615 11.1822 78.7453 12.6397 78.4358 14.6102V14.6076L76.6427 24.7302H72.1673L74.1165 13.6978C74.7513 9.67476 78.2587 6.63558 82.3321 6.63558Z" />
<path fill-rule="evenodd" clip-rule="evenodd" d="M93.6739 6.63558C95.0678 6.63559 96.3612 6.96616 97.4218 7.57451C97.8688 7.82843 98.2763 8.13273 98.6307 8.48451C98.7946 8.64317 98.948 8.80975 99.0881 8.98691C99.7018 9.75396 100.085 10.6085 100.133 11.5924C100.186 12.7191 100.051 13.8432 99.8605 14.9514C99.8605 14.9514 99.4982 17.0383 99.4268 17.3293H89.082C88.9313 18.1413 88.4975 22.5452 98.3633 20.0218L98.657 19.94L97.9351 24.0106C94.1527 25.1717 83.9587 26.063 84.9665 17.1573C85.1226 15.7184 85.4796 14.0123 85.5854 13.5204C85.6065 13.4252 85.6278 13.3352 85.6489 13.2427C86.0298 11.6293 86.6962 10.2777 87.6061 9.22765C89.0582 7.54806 91.1373 6.63558 93.6739 6.63558ZM93.5047 10.5739C90.9232 10.5739 90.1454 12.3222 89.7831 13.6395C89.7778 13.6606 89.7302 13.8667 89.7407 13.9277H96.1073L96.1469 13.7534C96.3532 12.7403 96.2553 11.9678 95.8586 11.4467C95.2741 10.6904 94.1342 10.5739 93.5047 10.5739Z" />
</svg>
