<svg xmlns="http://www.w3.org/2000/svg" width="100" height="48" viewBox="0 0 100 48" fill="none">
<path d="M43.6878 16.486C44.5405 14.0391 46.1748 12.4697 46.8854 11.9909C38.1732 2.7693 28.1653 10.0802 27.283 17.0882C25.9854 27.3945 33.8635 30.6662 38.4513 30.6662L33.0293 40.3516H40.2586C42.7456 35.563 47.8864 25.6521 48.5537 24.3175C49.221 22.9828 49.4104 21.6558 49.8049 20.634C53.1415 11.9909 62.2707 14.0303 64.6805 16.9492L68.3414 12.9177C56.3854 3.00071 45.6538 13.1256 44.1976 20.0079C42.8032 26.8329 32.646 25.7584 33.0293 18.803C33.407 13.8247 39.6057 11.7761 42.8756 15.5488L43.6878 16.486Z" fill="currentColor"/>
<path d="M46.0512 31.1766L49.4805 24.7815C50.0349 28.6069 52.9674 31.6586 56.766 32.3736C57.7703 32.5626 58.8014 32.5807 59.8117 32.4264L60.6743 32.2946C63.3042 31.8928 65.4877 30.0524 66.329 27.5286L66.7195 26.3571H58.2853V20.5181H72.5585C74.3604 29.3329 67.8713 37.6762 58.8842 38.0996L58.2853 38.1278C53.3837 38.1278 48.8268 35.6058 46.224 31.4523L46.0512 31.1766Z" fill="currentColor"/>
</svg>