<svg width="28" height="28" viewBox="0 0 28 28" fill="none" xmlns="http://www.w3.org/2000/svg">
<g id="Group 4534993">
<g id="Group 4534994">
<path id="Vector" d="M6.08824 13.9949C6.08824 13.0878 6.22017 12.2097 6.4696 11.3851L1.78614 7.68909C0.810139 9.62993 0.303862 11.773 0.308132 13.9454C0.308132 16.1923 0.835846 18.3402 1.7779 20.2532L6.46342 16.5695C6.21322 15.7335 6.08682 14.8654 6.08824 13.9928V13.9949Z" fill="#FFB900"/>
<path id="Vector_2" d="M14.507 5.57615C16.4334 5.60691 18.2779 6.36031 19.6749 7.68701L23.5359 3.66113C21.2045 1.38124 18.0217 0.000118529 14.3545 0.000118529C11.7522 -0.0105783 9.1982 0.702926 6.97824 2.06082C4.75828 3.41872 2.95987 5.36746 1.78418 7.68907L6.46764 11.3831C7.49421 7.98179 10.5079 5.48339 14.507 5.57409V5.57615Z" fill="#FE2727"/>
<path id="Vector_3" d="M14.507 22.4135C10.4976 22.4135 7.47766 19.9605 6.46346 16.5695L1.77588 20.2511C4.0805 24.9346 8.84642 28.1875 14.3544 27.9916C18.2298 27.8535 21.3528 26.6517 23.5997 24.5862L19.0667 21.1478C17.8237 21.9992 16.2694 22.4135 14.507 22.4135Z" fill="#00AC47"/>
<path id="Vector_4" d="M14.2021 11.4594V16.8354H21.8664C21.3778 18.8061 20.4028 20.2305 19.067 21.1458L23.5979 24.5842C26.2592 22.1373 27.6918 18.4825 27.6918 13.9433C27.6918 13.0961 27.6259 12.2654 27.496 11.4594" fill="#2485FC"/>
</g>
</g>
</svg>
