<svg width="80" height="80" viewBox="0 0 80 80" fill="none" xmlns="http://www.w3.org/2000/svg">
    <path opacity="0.4" fill-rule="evenodd" clip-rule="evenodd"
        d="M39.5 67C54.6878 67 67 54.6878 67 39.5C67 24.3122 54.6878 12 39.5 12C24.3122 12 12 24.3122 12 39.5C12 54.6878 24.3122 67 39.5 67ZM39.4992 48.2601C34.6616 48.2601 30.7399 44.3384 30.7399 39.5008C30.7399 34.6632 34.6616 30.7415 39.4992 30.7415C44.3368 30.7415 48.2585 34.6632 48.2585 39.5008C48.2585 44.3384 44.3368 48.2601 39.4992 48.2601Z"
        fill="var(--main-color)" />
    <path fill-rule="evenodd" clip-rule="evenodd"
        d="M45.9771 12.7737C50.8866 13.9635 55.3735 16.4826 58.9454 20.0546L51.8936 27.1065C49.6169 24.8298 46.7572 23.2243 43.6282 22.466C40.4992 21.7077 37.2217 21.8259 34.1554 22.8076C31.0892 23.7894 28.3526 25.5968 26.2459 28.0315C24.1392 30.4661 22.7438 33.4341 22.2129 36.6096C21.6819 39.7851 22.0359 43.0456 23.236 46.0331C24.4361 49.0207 26.4359 51.62 29.016 53.5459C31.5962 55.4717 34.6569 56.6496 37.8624 56.9505C41.068 57.2513 44.2944 56.6633 47.1878 55.2511L51.5621 64.2135C47.0224 66.4292 41.9601 67.3517 36.9307 66.8797C31.9012 66.4077 27.0989 64.5596 23.0507 61.5379C19.0025 58.5163 15.8648 54.438 13.9818 49.7505C12.0989 45.063 11.5435 39.9474 12.3765 34.965C13.2096 29.9826 15.3989 25.3259 18.7043 21.5059C22.0097 17.6859 26.3034 14.8501 31.1144 13.3097C35.9254 11.7693 41.0677 11.5839 45.9771 12.7737ZM39.7009 18.9243C38.5759 18.9243 37.6639 18.0123 37.6639 16.8873C37.6639 15.7623 38.5759 14.8503 39.7009 14.8503C40.826 14.8503 41.738 15.7623 41.738 16.8873C41.738 18.0123 40.826 18.9243 39.7009 18.9243ZM21.3716 23.6119C21.3716 24.7369 22.2836 25.6489 23.4086 25.6489C24.5336 25.6489 25.4456 24.7369 25.4456 23.6119C25.4456 22.4869 24.5336 21.5749 23.4086 21.5749C22.2836 21.5749 21.3716 22.4869 21.3716 23.6119ZM16.8881 41.5402C15.7631 41.5402 14.8511 40.6282 14.8511 39.5032C14.8511 38.3782 15.7631 37.4661 16.8881 37.4661C18.0131 37.4661 18.9251 38.3782 18.9251 39.5032C18.9251 40.6282 18.0131 41.5402 16.8881 41.5402ZM21.3716 55.7955C21.3716 56.9205 22.2836 57.8325 23.4086 57.8325C24.5336 57.8325 25.4456 56.9205 25.4456 55.7955C25.4456 54.6705 24.5336 53.7585 23.4086 53.7585C22.2836 53.7585 21.3716 54.6705 21.3716 55.7955ZM39.4968 64.353C38.3718 64.353 37.4598 63.441 37.4598 62.316C37.4598 61.191 38.3718 60.279 39.4968 60.279C40.6219 60.279 41.5339 61.191 41.5339 62.316C41.5339 63.441 40.6219 64.353 39.4968 64.353Z"
        fill="var(--main-color)" />
    <rect x="37.0547" y="37.0547" width="27.7037" height="5.09259" rx="2.5463" fill="var(--main-color)" />
</svg>