<svg width="40" height="40" viewBox="0 0 40 40" fill="none" xmlns="http://www.w3.org/2000/svg">
<g id="Frame" clip-path="url(#clip0_1_36012)">
<path id="Vector" d="M0 13.5467C0 12.8031 0.262051 12.1729 0.786154 11.658C1.31077 11.1426 1.94103 10.8852 2.67846 10.8852H5.3559V22.9488H2.67795C1.94103 22.9488 1.31077 22.6913 0.786154 22.1759C0.262051 21.6606 0 21.0308 0 20.2867V13.5467ZM29.7554 2.47081C30.9744 1.29747 32.0795 0.653372 33.0718 0.5385C34.0636 0.423628 34.9421 0.688757 35.7077 1.33235C36.4723 1.97645 37.1241 2.92106 37.6626 4.16568C38.201 5.41081 38.64 6.79901 38.9805 8.32978C39.3294 9.91634 39.5849 11.522 39.7456 13.1385C39.9154 14.8129 40.0005 16.4082 40.0005 17.9252C40.0005 19.4421 39.8944 20.959 39.6815 22.4759C39.4692 23.9929 39.1574 25.4164 38.7467 26.7477C38.3354 28.0785 37.8538 29.2447 37.301 30.2462C36.7487 31.2482 36.1323 31.9923 35.4523 32.4785C34.7723 32.9657 34.0421 33.137 33.2626 32.9939C32.4836 32.8508 31.6687 32.2929 30.819 31.3195C29.9969 30.3467 28.8846 29.538 27.4821 28.8939C26.079 28.2503 24.5487 27.7062 22.8913 27.2631C21.2317 26.8189 19.5503 26.4605 17.8538 26.1893C16.1533 25.9175 14.5949 25.6744 13.1779 25.4595C11.761 25.2447 10.5779 25.0375 9.62872 24.837C8.67949 24.637 8.14769 24.3934 8.03436 24.1072V10.6703C8.14769 10.2698 8.59436 9.94055 9.37333 9.68312C10.1528 9.42568 11.1446 9.18209 12.3492 8.95337C13.5533 8.72414 14.9133 8.47389 16.4297 8.20209C17.9942 7.91851 19.5412 7.54576 21.0631 7.08568C22.6464 6.60934 24.1888 6.00637 25.6754 5.2826C27.1702 4.55762 28.5461 3.60951 29.7559 2.47081H29.7554ZM14.4528 28.7872C14.5944 29.1308 14.7646 29.5026 14.9626 29.9036C15.1685 30.3436 15.3956 30.7733 15.6431 31.1913C15.9625 31.7338 16.3029 32.2636 16.6636 32.7795C17.1446 33.4667 17.6338 34.1898 18.1297 34.9477C18.6256 35.7067 19.0015 36.3934 19.2559 37.0088C19.5113 37.6241 19.5892 38.1318 19.4897 38.5323C19.3908 38.9334 18.9872 39.1334 18.2785 39.1334H15.8554C15.2887 39.1334 14.7646 39.0262 14.2826 38.8118C13.8005 38.5965 13.3405 38.2682 12.901 37.8241C12.4621 37.3806 12.0087 36.8154 11.541 36.1282C11.0733 35.4411 10.5703 34.6257 10.0318 33.6811C9.38051 32.5939 8.92667 31.6421 8.67179 30.8267C8.41641 30.0108 8.24615 29.3308 8.16154 28.7872C8.04821 28.1575 8.04821 27.6139 8.16154 27.1559C8.3882 27.1847 8.65744 27.2416 8.96923 27.3277C9.2241 27.3847 9.5359 27.4559 9.90462 27.5421C10.2728 27.6282 10.6979 27.7139 11.1795 27.8C11.6615 27.9144 12.0933 28.0216 12.4759 28.1216C12.8585 28.2221 13.2056 28.3293 13.5174 28.4436C13.8325 28.5489 14.1445 28.6635 14.4528 28.7872Z" fill="url(#paint0_linear_1_36012)"/>
</g>
<defs>
<linearGradient id="paint0_linear_1_36012" x1="20.0003" y1="0.512451" x2="20.0003" y2="39.1334" gradientUnits="userSpaceOnUse">
<stop stop-color="#F84948"/>
<stop offset="1" stop-color="#FF7857"/>
</linearGradient>
<clipPath id="clip0_1_36012">
<rect width="40" height="40" fill="white"/>
</clipPath>
</defs>
</svg>
