<svg width="100" height="50" viewBox="0 0 100 50" fill="none" xmlns="http://www.w3.org/2000/svg">
<path d="M55.543 25.6357C56.2213 24.6748 56.843 23.8039 57.4525 22.9248C57.6331 22.6641 57.7557 22.7219 57.9189 22.9389C58.3739 23.5437 58.8873 24.0931 59.5231 24.5163C60.3262 25.0508 61.1982 25.3177 62.1692 25.1558C62.8906 25.0355 63.3154 24.6435 63.3913 24.0518C63.4709 23.4305 63.1563 22.9494 62.4603 22.6482C62.0053 22.4512 61.525 22.3428 61.0447 22.2344C60.9424 22.2113 60.8402 22.1882 60.7382 22.1643C60.6883 22.1526 60.6384 22.1406 60.5886 22.1284C60.5332 22.1148 60.478 22.1009 60.423 22.0864C60.2814 22.0492 60.139 22.0153 59.9969 21.9805C59.9315 21.9645 59.8663 21.9483 59.8012 21.9315C59.7598 21.9208 59.7185 21.9099 59.6772 21.8986C56.8713 21.1303 55.6666 19.5148 55.7365 16.6144C55.7524 15.9565 55.8161 15.3032 56.0085 14.6712C56.5457 12.9067 57.7034 11.7398 59.4937 11.2862C62.181 10.6052 64.5749 11.1021 66.5376 13.1797C66.8419 13.502 66.8553 13.7348 66.5869 14.0818C65.9991 14.8419 65.4367 15.6226 64.8925 16.4144C64.6732 16.7337 64.5309 16.7807 64.2395 16.4844C63.5875 15.8215 62.8252 15.3297 61.8781 15.1851C61.4595 15.1212 61.0443 15.1308 60.6379 15.2529C60.2406 15.3723 59.9611 15.616 59.8806 16.0396C59.7981 16.473 59.9422 16.8295 60.2833 17.1019C60.6416 17.3879 61.0708 17.5271 61.505 17.6443C61.7917 17.7217 62.0797 17.7946 62.3676 17.8674L62.3718 17.8683C62.798 17.9761 63.2241 18.0838 63.6459 18.2063C66.4179 19.0105 67.6078 20.7191 67.41 23.8543C67.3716 24.4622 67.2276 25.0532 67.0304 25.6319C66.9582 25.8438 66.8568 25.9313 66.618 25.9247C63.6724 25.8433 60.7269 25.7681 57.7284 25.6915L55.543 25.6357Z" fill="currentColor"/>
<path d="M47.7629 22.0191C47.1176 22.9613 46.5171 23.8386 45.9166 24.7161C45.9077 24.7292 45.8942 24.7457 45.8961 24.7588C45.9915 25.4449 45.5993 25.4092 45.2153 25.3744C45.1757 25.3708 45.1361 25.3672 45.0972 25.3644C45.0612 25.3618 45.0257 25.36 44.9911 25.3593C44.6245 25.3532 44.2578 25.3436 43.8912 25.3339C43.3265 25.3191 42.762 25.3043 42.1974 25.3022C41.884 25.3009 41.7498 25.2422 41.7509 24.8842C41.7634 20.6102 41.7623 16.3362 41.7534 12.0622C41.7526 11.7011 41.8404 11.5462 42.2391 11.5557C43.2824 11.5807 44.3271 11.5832 45.3703 11.5547C45.7927 11.5432 45.8776 11.7052 45.8742 12.0852C45.8627 13.4056 45.8643 14.7261 45.866 16.0466C45.8666 16.519 45.8673 16.9913 45.8673 17.4636V17.9539C45.9747 17.8923 46.0417 17.8173 46.0933 17.7397C46.1094 17.7157 46.1238 17.6915 46.1376 17.6673L46.1525 17.6408L46.1679 17.6128L46.1688 17.6111L46.1712 17.6068C46.1882 17.5757 46.205 17.5453 46.2234 17.5161L46.5131 17.0539C47.5816 15.3491 48.6501 13.6443 49.7064 11.9319C49.878 11.6537 50.0692 11.5428 50.4015 11.5477C51.2303 11.5596 52.0592 11.5587 52.8882 11.5577L53.3121 11.5574C53.6588 11.5571 54.0055 11.5573 54.3522 11.5588C54.365 11.5588 54.3782 11.5583 54.3917 11.5574L54.401 11.5567L54.4218 11.5548L54.4612 11.5506C54.5869 11.5366 54.7202 11.5217 54.7848 11.6637C54.8456 11.7971 54.7593 11.9018 54.6773 12.001C54.6541 12.0292 54.6312 12.057 54.6121 12.0848L54.3214 12.5098C53.116 14.2719 51.9105 16.0341 50.6907 17.7863C50.5109 18.0446 50.502 18.2337 50.6331 18.5184C51.423 20.235 52.1998 21.9576 52.9766 23.6801C53.1928 24.1596 53.4091 24.6392 53.6257 25.1186L53.6263 25.1197C53.7316 25.3531 53.7844 25.4701 53.7466 25.527C53.7422 25.5337 53.7365 25.5395 53.7296 25.5446C53.7261 25.5472 53.7222 25.5496 53.7181 25.5518L53.7102 25.5556C53.6895 25.5646 53.662 25.5702 53.6269 25.5736C53.5934 25.5767 53.5529 25.5778 53.5049 25.5776C53.4489 25.5775 53.3825 25.5756 53.3048 25.5736C53.0262 25.5661 52.7476 25.5576 52.469 25.549C51.6237 25.5231 50.7784 25.4971 49.9335 25.503C49.4342 25.5065 49.1715 25.3612 48.9949 24.8669C48.7554 24.1967 48.4732 23.5415 48.1786 22.8576L48.1752 22.85C48.0511 22.5619 47.9247 22.2686 47.7985 21.9669L47.7629 22.0191Z" fill="currentColor"/>
<path d="M88.8499 19.9569C88.7713 20.4541 88.6924 20.9512 88.6135 21.4483C88.3662 23.0057 88.1188 24.5632 87.8833 26.1225C87.8395 26.4127 87.7324 26.4846 87.4527 26.4745C86.0882 26.4252 84.7231 26.3866 83.3579 26.3668C83.0622 26.3624 82.9453 26.2539 82.8696 25.9825C81.5766 21.3453 80.2783 16.7094 78.9694 12.0766C78.8545 11.6698 78.9293 11.5346 79.3727 11.5451C80.4485 11.5705 81.5256 11.5714 82.6013 11.5439C82.9989 11.5337 83.1568 11.658 83.2477 12.0482C83.708 14.0253 84.1841 15.9988 84.6601 17.9723L84.6692 18.0095C84.8128 18.6048 84.9563 19.2001 85.0996 19.7955L85.1037 19.8124C85.1058 19.8208 85.1079 19.8292 85.1102 19.8376C85.1143 19.8524 85.1186 19.8672 85.1235 19.882C85.1352 19.9173 85.1499 19.9526 85.1706 19.9885C85.1955 20.032 85.2291 20.0763 85.2764 20.1221L85.3697 19.6617L85.3739 19.6406L85.4335 19.3477C85.5424 18.8126 85.6512 18.2775 85.7573 17.7418C85.8366 17.3407 85.9163 16.9397 85.996 16.5387L85.9976 16.5303C86.2948 15.0353 86.592 13.5403 86.8702 12.0419C86.9413 11.6595 87.0977 11.5473 87.4725 11.5563C88.4359 11.5795 89.4014 11.5933 90.3635 11.5517C90.8429 11.5309 90.9927 11.7114 91.0758 12.1499C91.4551 14.1538 91.8494 16.1548 92.2442 18.1582C92.3758 18.8262 92.5074 19.4944 92.6386 20.1631C92.7619 20.0917 92.7804 19.9799 92.7988 19.8692C92.8037 19.8397 92.8086 19.8101 92.8154 19.7815C92.9676 19.1468 93.1204 18.5122 93.2732 17.8776L93.2806 17.847L93.2879 17.8161C93.7443 15.9207 94.2007 14.0254 94.6413 12.1265C94.743 11.688 94.9175 11.5348 95.3812 11.5517C96.3526 11.5871 97.3261 11.5753 98.2987 11.5633L98.6097 11.5596C98.96 11.5554 99.065 11.6488 98.9627 12.0105C97.6188 16.7658 96.284 21.5238 94.9552 26.2834C94.8862 26.5303 94.8184 26.6654 94.516 26.6528C93.168 26.5969 91.8189 26.5594 90.4698 26.5362C90.189 26.5314 90.08 26.4446 90.038 26.169C89.7891 24.5352 89.5324 22.9026 89.2758 21.2699C89.1969 20.7687 89.1181 20.2674 89.0395 19.7661C88.8846 19.689 88.8874 19.7676 88.8902 19.8461C88.8921 19.8981 88.8939 19.9502 88.8499 19.9569Z" fill="currentColor"/>
<path d="M14.7266 19.6405C14.7272 19.1358 14.7277 18.6311 14.7277 18.1264C14.7277 17.6109 14.7272 17.0953 14.7267 16.5798C14.7255 15.0622 14.7243 13.5447 14.734 12.0272C14.7361 11.6737 14.627 11.5513 14.2657 11.5572C13.1257 11.576 11.9846 11.584 10.8452 11.5541C10.3955 11.5423 10.2667 11.6834 10.2723 12.1257C10.2839 13.0298 10.2831 13.9339 10.2824 14.8381C10.2822 15.1059 10.282 15.3737 10.282 15.6416C10.2821 15.9264 10.2826 16.2112 10.2838 16.496C10.2844 16.6508 10.2853 16.8057 10.2864 16.9606L10.2876 17.1123C10.2885 17.211 10.2895 17.3097 10.2907 17.4083C10.2949 17.7746 10.1902 17.8743 9.8323 17.8575C9.20728 17.8283 8.57839 17.8234 7.95403 17.8588C7.55819 17.8813 7.47797 17.7432 7.48174 17.3745C7.49228 16.3779 7.49181 15.3812 7.49134 14.3845C7.49097 13.6043 7.49059 12.824 7.49549 12.0438C7.49756 11.7084 7.41959 11.5507 7.04136 11.557C5.86919 11.5766 4.69645 11.5738 3.52419 11.5582C3.17722 11.5536 3.08306 11.6957 3.08353 12.0151C3.08946 15.9852 3.0905 19.9554 3.08099 23.9255C3.08023 24.2299 3.1888 24.2984 3.47033 24.3024C4.69071 24.3199 5.91128 24.3478 7.13072 24.3964C7.44605 24.4088 7.5113 24.2977 7.49991 24.0145C7.49407 23.8681 7.4921 23.7216 7.49181 23.575C7.49172 23.4925 7.4921 23.4099 7.49257 23.3273L7.49332 23.2265V23.2206L7.49436 23.0827C7.49501 22.9848 7.4953 22.8869 7.49464 22.7891L7.49398 22.7098C7.49351 22.6729 7.49285 22.636 7.4921 22.5991L7.49125 22.5678C7.49097 22.5539 7.49068 22.5399 7.49021 22.526C7.48306 22.2819 7.55528 22.1842 7.8143 22.1893C8.52077 22.2032 9.2278 22.2046 9.93417 22.1887C10.2061 22.1827 10.3019 22.265 10.2914 22.5419C10.2822 22.7845 10.2846 23.0276 10.2871 23.2707C10.2881 23.3783 10.2891 23.4859 10.2891 23.5934C10.2892 23.6791 10.2887 23.7649 10.2869 23.8505C10.2861 23.8874 10.2851 23.9243 10.2839 23.9612C10.2826 24.0002 10.2811 24.0392 10.2792 24.0782C10.2634 24.3963 10.3711 24.4845 10.6845 24.488C11.8888 24.5011 13.0936 24.5256 14.2965 24.5832C14.6807 24.6015 14.7381 24.4713 14.7354 24.1295C14.7236 22.6332 14.7251 21.1369 14.7266 19.6405Z" fill="currentColor"/>
<path fill-rule="evenodd" clip-rule="evenodd" d="M76.0296 26.1576C77.4855 26.1931 78.9414 26.2288 80.3968 26.2802C80.7912 26.2942 80.8445 26.2087 80.7399 25.8406C79.4282 21.2254 78.1276 16.6069 76.8365 11.9859C76.7467 11.6649 76.6051 11.5523 76.271 11.5571C75.0345 11.5749 73.7971 11.5814 72.5608 11.5544C72.1515 11.5454 71.9788 11.6705 71.8649 12.07C70.5902 16.5456 69.3008 21.0171 67.9949 25.4837C67.876 25.8905 67.9602 25.9682 68.3541 25.975C69.8734 26.0013 71.3924 26.0402 72.9115 26.0792L76.0296 26.1576ZM74.5997 16.9156C74.5533 16.5423 74.5061 16.1633 74.3683 15.7875C74.3619 15.7943 74.3558 15.8006 74.3499 15.8065C74.3368 15.8196 74.3251 15.8305 74.3149 15.8399C74.2908 15.8622 74.2758 15.8761 74.2733 15.8921C74.1468 16.6705 74.021 17.4491 73.8952 18.2276C73.6748 19.5918 73.4544 20.9561 73.2305 22.3196C73.1909 22.5611 73.3039 22.5834 73.493 22.5813L73.7196 22.5785C74.189 22.5727 74.6586 22.5669 75.1272 22.585C75.4421 22.5972 75.4449 22.4728 75.4041 22.2151C75.3355 21.7812 75.2688 21.347 75.203 20.9127C75.1523 20.5783 75.1021 20.2437 75.0519 19.9091C74.9671 19.3444 74.8825 18.7796 74.7953 18.2153C74.7501 17.9232 74.7043 17.6312 74.6576 17.3393C74.635 17.1992 74.6174 17.0578 74.5997 16.9156Z" fill="currentColor"/>
<path fill-rule="evenodd" clip-rule="evenodd" d="M22.6343 24.6493C22.1375 24.6493 21.6407 24.6487 21.144 24.6481C19.7457 24.6465 18.3475 24.6449 16.9493 24.6561C16.5541 24.6593 16.5071 24.5592 16.6149 24.1896C17.7919 20.151 18.9548 16.1081 20.1059 12.062C20.2104 11.6944 20.3537 11.5442 20.7596 11.5536C21.9959 11.5824 23.2336 11.5786 24.4702 11.5553C24.849 11.5482 24.9962 11.6828 25.095 12.0375C26.2525 16.1979 27.4217 20.3552 28.6032 24.509C28.706 24.8704 28.6732 24.9712 28.2699 24.9562C26.886 24.905 25.5017 24.8694 24.1172 24.8338C23.7861 24.8253 23.4551 24.8168 23.124 24.808L22.6339 24.7949L22.6343 24.6493ZM22.7774 16.6323C22.7233 16.2939 22.6691 15.9555 22.6153 15.617L22.5429 15.6186L22.2846 17.2409C22.0145 18.9374 21.7445 20.634 21.4698 22.3297C21.429 22.582 21.5664 22.5812 21.7382 22.5802H21.7444C21.8195 22.5798 21.8947 22.5793 21.9698 22.5787L22.0899 22.5777C22.3366 22.5756 22.5833 22.5736 22.83 22.5747C23.014 22.5756 23.198 22.5784 23.3819 22.5842C23.6597 22.5932 23.692 22.4933 23.6514 22.2458C23.5453 21.5987 23.448 20.9502 23.3507 20.3016C23.2891 19.8903 23.2274 19.4789 23.1635 19.0679C23.1213 18.797 23.0787 18.5262 23.036 18.2554C22.9977 18.0136 22.9593 17.7717 22.9207 17.5299L22.7774 16.6323Z" fill="currentColor"/>
<path d="M32.7902 25.0418C33.0597 25.0472 33.3293 25.0526 33.5989 25.0577C34.1536 25.111 34.709 25.1031 35.2644 25.0951C35.4297 25.0928 35.5949 25.0904 35.7602 25.0897C35.8948 25.0891 36.0295 25.0896 36.164 25.0919C36.2528 25.0935 36.3174 25.0617 36.3089 24.9562C35.6116 24.6639 35.0815 24.1767 34.7866 23.4913C33.8631 21.3452 33.7959 19.1446 34.7215 17.01C35.6063 14.9697 38.1249 14.677 39.6039 16.3462C39.6148 16.3585 39.6247 16.3731 39.635 16.3882C39.677 16.45 39.7239 16.5192 39.8692 16.4715V15.2997C39.8693 14.5728 39.8694 13.8434 39.8693 13.113L39.8688 11.7565C39.8688 11.5271 39.6888 11.4724 39.5191 11.4224C38.9493 11.2549 38.3727 11.1439 37.7755 11.0965C35.2964 10.8999 33.1611 11.6623 31.6233 13.5991C28.945 16.9724 28.7327 20.7534 30.089 24.7172C30.1648 24.9393 30.2993 25 30.5177 25.0027C31.2753 25.0114 32.0327 25.0266 32.7902 25.0418Z" fill="currentColor"/>
<path d="M20.5088 25.4567C22.4193 25.5097 24.3297 25.5667 26.2404 25.611C26.494 25.6168 26.6375 25.6581 26.7121 25.9442C26.9863 26.9962 27.2918 28.0401 27.5943 29.0846C27.6881 29.4081 27.6264 29.5605 27.2483 29.556C26.0599 29.5419 24.8711 29.5422 23.6828 29.5566C23.3594 29.5605 23.2282 29.4326 23.1686 29.1281C23.0582 28.5636 22.9059 28.0073 22.7863 27.4445C22.7353 27.2044 22.6317 27.1097 22.3689 27.1127C21.0841 27.1272 19.7991 27.1259 18.5142 27.1138C18.2525 27.1113 18.1488 27.2017 18.0991 27.4524C17.984 28.0329 17.8291 28.6056 17.7119 29.1859C17.657 29.4579 17.5205 29.5561 17.2491 29.5543C16.0446 29.5463 14.8398 29.5445 13.6353 29.5552C13.3073 29.558 13.1919 29.4503 13.2867 29.1261C13.6327 27.9443 13.9835 26.7636 14.3058 25.5754C14.3866 25.2774 14.5691 25.3168 14.7767 25.3169C16.6874 25.3188 18.5981 25.318 20.5088 25.318C20.5088 25.3643 20.5088 25.4105 20.5088 25.4567Z" fill="currentColor"/>
<path d="M32.9817 25.9004C34.442 25.9004 35.9024 25.9067 37.3627 25.8952C37.6618 25.8928 37.7785 25.9621 37.7713 26.2908C37.7486 27.3143 37.7532 28.3388 37.7689 29.3626C37.7736 29.6704 37.6726 29.8228 37.3683 29.9051C34.2054 30.761 30.3203 29.9545 28.3266 26.1455C28.0749 25.6645 28.0832 25.6652 28.6015 25.6679C30.0615 25.6756 31.5216 25.6706 32.9817 25.6706C32.9817 25.7472 32.9817 25.8237 32.9817 25.9004Z" fill="currentColor"/>
<path d="M59.0856 26.5926C60.8183 26.5926 62.551 26.5894 64.2837 26.5944C64.8586 26.596 64.8657 26.6126 64.5728 27.1353C63.6075 28.8579 62.0955 29.8008 60.1692 30.0301C57.4195 30.3575 55.1233 29.4342 53.3078 27.3435C53.1642 27.1782 53.0164 26.9475 53.1402 26.7579C53.2951 26.5216 53.4412 26.3818 53.7594 26.3942C55.5231 26.4646 57.321 26.5461 59.0856 26.5926Z" fill="currentColor"/>
<path d="M72.2532 26.7971C74.2921 26.8506 76.3309 26.9102 78.3701 26.9493C78.663 26.955 78.7934 27.0391 78.8622 27.3275C78.9993 27.9023 79.1662 28.4708 79.3445 29.0344C79.461 29.4026 79.398 29.5646 78.9679 29.5575C77.8118 29.5383 76.655 29.5378 75.4991 29.5586C75.1309 29.5653 74.9877 29.4222 74.9232 29.0807C74.8196 28.5311 74.6691 27.9905 74.5521 27.4433C74.501 27.2041 74.3957 27.1097 74.1333 27.1127C72.8486 27.1273 71.5636 27.1259 70.2789 27.1139C70.0193 27.1115 69.9115 27.1968 69.8614 27.4493C69.7463 28.0297 69.593 28.6024 69.4726 29.1818C69.4174 29.4474 69.2876 29.5567 69.0117 29.5547C67.7911 29.5457 66.5705 29.546 65.3499 29.5541C65.0238 29.5562 64.9624 29.4141 65.0457 29.1337C65.2598 28.4136 65.4802 27.6949 65.6701 26.9683C65.741 26.697 65.86 26.6244 66.1368 26.6333C68.1752 26.6981 70.2143 26.7443 72.2532 26.7971Z" fill="currentColor"/>
<path d="M41.7204 35.8233C41.5828 36.2821 41.4208 36.7354 41.3147 37.2012C41.2092 37.6636 40.8654 37.5047 40.5907 37.5214C40.3422 37.5366 40.0937 37.5823 40.0101 37.207C39.8997 36.7107 39.7164 36.2304 39.4622 35.74C39.4622 35.9739 39.4615 36.2078 39.4623 36.4417C39.4644 37.0818 39.4548 37.7222 39.476 38.3616C39.4844 38.6151 39.412 38.6808 39.1581 38.6873C38.0627 38.7152 38.0629 38.7246 38.0629 37.6418C38.0629 36.3137 38.0723 34.9856 38.056 33.6576C38.0522 33.3492 38.1282 33.2478 38.4522 33.2452C39.7553 33.2347 39.7545 33.2234 40.1574 34.4661C40.3189 34.9642 40.4846 35.461 40.6828 36.0625C40.9696 35.1688 41.2325 34.3882 41.4663 33.599C41.5427 33.3408 41.6522 33.2226 41.9321 33.2494C42.3601 33.2903 42.9107 33.0768 43.1872 33.3364C43.4431 33.5765 43.2589 34.1244 43.2619 34.5362C43.2713 35.7842 43.2559 37.0325 43.2722 38.2803C43.2761 38.5836 43.213 38.7192 42.881 38.6861C42.5629 38.6545 42.2402 38.6703 41.9195 38.6652C41.7709 37.8675 41.8994 37.0624 41.8538 36.2621C41.8451 36.1096 41.905 35.9475 41.8005 35.8064C41.7948 35.7986 41.7738 35.7973 41.7618 35.8003C41.7469 35.8038 41.7341 35.8153 41.7204 35.8233Z" fill="currentColor"/>
<path d="M3.17825 25.0622C3.80467 25.0622 4.43129 25.0722 5.05733 25.0576C5.33501 25.0511 5.41118 25.1567 5.40867 25.4231C5.39701 26.656 5.39643 27.889 5.408 29.1219C5.41118 29.4611 5.27465 29.5608 4.94703 29.5566C3.77449 29.5419 2.60157 29.544 1.42894 29.5556C1.12542 29.5585 0.996987 29.4707 1.00036 29.147C1.01386 27.8661 1.01299 26.5849 1.00007 25.3041C0.997374 25.0337 1.06843 24.9489 1.34814 24.9596C1.9574 24.9829 2.56811 24.9668 3.17825 24.9668C3.17825 24.9986 3.17825 25.0304 3.17825 25.0622Z" fill="currentColor"/>
<path d="M10.3703 25.2542C10.9961 25.2542 11.622 25.2617 12.2477 25.2505C12.4989 25.2461 12.62 25.2976 12.616 25.591C12.5998 26.7747 12.6039 27.9588 12.613 29.1427C12.6152 29.4271 12.5168 29.5461 12.2229 29.544C11.003 29.5354 9.78307 29.5357 8.56319 29.5436C8.26025 29.5457 8.17656 29.3974 8.17723 29.1279C8.18022 27.912 8.18485 26.696 8.1675 25.4802C8.16325 25.18 8.28975 25.1455 8.5414 25.152C9.15067 25.1677 9.7606 25.1571 10.3703 25.1571C10.3703 25.1894 10.3703 25.2218 10.3703 25.2542Z" fill="currentColor"/>
<path d="M73.2388 36.1934C73.2388 36.9094 73.2259 37.6257 73.2454 38.3412C73.2529 38.6166 73.1668 38.6834 72.8979 38.687C71.8059 38.7013 71.806 38.7111 71.806 37.604C71.806 36.2931 71.8182 34.9819 71.7977 33.6713C71.7923 33.3268 71.901 33.2445 72.231 33.2482C73.1372 33.2585 73.1373 33.2436 73.5021 34.0785C73.757 34.662 74.0123 35.2454 74.3772 35.8213C74.3772 35.136 74.4085 34.4489 74.3661 33.7662C74.3388 33.3274 74.485 33.2326 74.8992 33.246C75.8206 33.276 75.8214 33.2539 75.8214 34.1814C75.8214 35.5403 75.8126 36.8994 75.828 38.2581C75.8316 38.5703 75.7757 38.6596 75.4241 38.7006C74.6844 38.7865 74.283 38.5457 74.0692 37.8224C73.8998 37.2493 73.5946 36.716 73.3498 36.1651C73.3127 36.1745 73.2758 36.1839 73.2388 36.1934Z" fill="currentColor"/>
<path d="M89.2462 35.9804C89.2462 35.4359 89.2375 34.8913 89.2484 34.3471C89.2618 33.6764 89.5583 33.3348 90.2338 33.2825C90.7929 33.2391 91.3579 33.2448 91.9191 33.2635C92.7941 33.2928 93.0968 33.6169 93.1051 34.4778C93.1114 35.1401 93.1114 35.1401 92.4521 35.1401C92.3397 35.1401 92.2258 35.1288 92.115 35.1421C91.7187 35.1895 91.4598 35.1114 91.5471 34.6219C91.594 34.3589 91.4527 34.2594 91.1829 34.2567C90.9001 34.2538 90.8245 34.3723 90.8271 34.631C90.8363 35.5276 90.8361 36.4244 90.8276 37.3211C90.8252 37.5784 90.9036 37.7049 91.1832 37.7037C91.4602 37.7026 91.5826 37.5747 91.5338 37.3218C91.4842 37.064 91.7531 36.6972 91.1991 36.5889C90.9569 36.5415 91.1148 36.105 91.1033 35.8471C91.0935 35.628 91.2947 35.6782 91.4285 35.6768C91.8943 35.6719 92.3603 35.6818 92.826 35.6719C93.0284 35.6676 93.112 35.7301 93.1079 35.9432C93.0961 36.5515 93.1183 37.1607 93.095 37.7683C93.0749 38.2937 92.6389 38.6858 92.1111 38.6901C91.5011 38.695 90.891 38.6924 90.2809 38.6909C89.6971 38.6895 89.2769 38.3055 89.2536 37.7095C89.2311 37.1339 89.2487 36.5568 89.2487 35.9804C89.2479 35.9804 89.247 35.9804 89.2462 35.9804Z" fill="currentColor"/>
<path d="M3.23657 35.9573C3.2359 35.4129 3.22838 34.8684 3.23792 34.3243C3.24901 33.6952 3.52438 33.3538 4.14261 33.2842C4.81281 33.2087 5.49303 33.2054 6.16275 33.2822C6.93149 33.3702 7.46333 34.3248 7.05568 35.0015C6.83218 35.3725 6.2879 35.0799 5.89249 35.1355C5.77506 35.1521 5.58174 35.2285 5.53613 35.0149C5.50991 34.892 5.51627 34.7591 5.52678 34.6322C5.54848 34.3699 5.45398 34.2576 5.17293 34.2598C4.90016 34.2619 4.80172 34.3637 4.80403 34.6285C4.81175 35.525 4.81165 36.4216 4.80403 37.3182C4.80182 37.5771 4.88936 37.7 5.1655 37.6997C5.43219 37.6994 5.56303 37.6023 5.52341 37.331C5.48195 37.0471 5.70438 36.6748 5.15017 36.5723C4.97845 36.5406 5.07882 36.0759 5.09319 35.813C5.10495 35.5979 5.31331 35.6776 5.44078 35.675C5.89037 35.6659 6.34045 35.6806 6.78985 35.668C7.02029 35.6615 7.09954 35.7434 7.09415 35.9736C7.08065 36.5497 7.10485 37.1269 7.08286 37.7024C7.05837 38.3427 6.62826 38.7013 5.9731 38.6878C5.42747 38.6765 4.88117 38.6763 4.33554 38.6868C3.67922 38.6994 3.25846 38.3342 3.24072 37.6863C3.22481 37.1103 3.23725 36.5336 3.23657 35.9573Z" fill="currentColor"/>
<path fill-rule="evenodd" clip-rule="evenodd" d="M24.5024 38.6794C24.6423 38.6804 24.7847 38.6815 24.9306 38.6815C24.8275 38.2922 24.7262 37.9065 24.6256 37.5236C24.3712 36.5548 24.1214 35.6035 23.8573 34.6562C23.819 34.5185 23.7954 34.3635 23.7719 34.2082C23.7168 33.8459 23.6616 33.482 23.4173 33.3324C23.163 33.1767 22.7958 33.204 22.4287 33.2313C22.2684 33.2433 22.1082 33.2552 21.9574 33.2519C21.9454 33.2516 21.9333 33.252 21.9212 33.2523C21.901 33.2529 21.8809 33.2535 21.8611 33.2513C21.6705 33.2298 21.571 33.3094 21.5207 33.4995C21.1709 34.8242 20.817 36.1478 20.458 37.4902C20.3524 37.885 20.2464 38.2813 20.1399 38.6799C20.2658 38.6799 20.3881 38.6772 20.5078 38.6747C20.7735 38.6689 21.026 38.6635 21.2756 38.6878C21.6079 38.7202 21.7507 38.5918 21.7623 38.2827C21.7743 37.9594 21.9311 37.828 22.2544 37.8705C22.3965 37.8892 22.5461 37.8928 22.687 37.8701C23.0874 37.8053 23.2869 37.9554 23.3047 38.3673C23.3051 38.3774 23.3054 38.3878 23.3058 38.3983C23.3103 38.5354 23.3155 38.6949 23.5553 38.686C23.8663 38.6745 24.1777 38.6769 24.5024 38.6794ZM22.6343 35.3247C22.5933 35.1822 22.5446 35.0133 22.4725 35.0956C22.4643 35.1549 22.4578 35.2131 22.4516 35.2697C22.4456 35.3234 22.4399 35.3758 22.4328 35.4263C22.4074 35.5279 22.3817 35.6294 22.356 35.7309C22.2882 35.9984 22.2205 36.266 22.1572 36.5346C22.1557 36.541 22.1541 36.5475 22.1525 36.5541C22.1283 36.6534 22.0978 36.7786 22.2645 36.7851C22.3159 36.7871 22.3694 36.7935 22.4233 36.8C22.5834 36.8192 22.7469 36.8388 22.8682 36.744C22.9653 36.6681 22.9189 36.5428 22.8744 36.4224C22.8591 36.3813 22.8442 36.3408 22.8352 36.303C22.8013 36.1609 22.7773 36.0191 22.7533 35.8773C22.7279 35.7269 22.7025 35.5767 22.6654 35.4263C22.6553 35.3976 22.6451 35.362 22.6343 35.3247Z" fill="currentColor"/>
<path d="M47.2138 26.2616C48.6685 26.2616 50.092 26.2625 51.5155 26.2603C51.687 26.26 51.7688 26.3501 51.8336 26.4966C52.2215 27.3726 52.6096 28.2487 53.0119 29.1182C53.1588 29.4357 53.0853 29.554 52.7343 29.5519C51.468 29.5444 50.2015 29.5457 48.9352 29.552C48.7013 29.5532 48.5457 29.4923 48.4509 29.2574C48.0447 28.2528 47.6249 27.2537 47.2138 26.2616Z" fill="currentColor"/>
<path d="M41.659 26.06C42.2358 26.06 42.813 26.0707 43.3893 26.0554C43.6705 26.0479 43.7803 26.1207 43.7727 26.4291C43.7505 27.3233 43.7552 28.2185 43.7698 29.113C43.7752 29.4431 43.6615 29.5623 43.3236 29.557C42.2499 29.5404 41.1755 29.5403 40.1018 29.5571C39.7644 29.5624 39.65 29.4456 39.655 29.1148C39.6693 28.1723 39.6675 27.2294 39.655 26.2869C39.6517 26.0393 39.7159 25.9569 39.9766 25.9672C40.5366 25.9893 41.0982 25.974 41.659 25.974C41.659 26.0027 41.659 26.0313 41.659 26.06Z" fill="currentColor"/>
<path d="M83.3078 27.0351C83.6977 27.0351 84.7101 27.0676 85.385 27.1156C85.5921 27.1141 85.7159 27.1674 85.6709 27.427C85.5646 28.0404 85.4774 28.6572 85.3771 29.2717C85.3433 29.4796 85.2081 29.5544 84.9991 29.5532C83.9715 29.5476 82.9438 29.5463 81.9163 29.5541C81.6844 29.5558 81.5679 29.4688 81.5083 29.2451C81.3398 28.6124 81.1633 27.9817 80.9725 27.3555C80.8902 27.0855 80.9782 27.0256 81.2374 27.0306C81.9273 27.044 82.6176 27.0351 83.3078 27.0351C83.3078 27.0007 83.3079 27.0695 83.3078 27.0351Z" fill="currentColor"/>
<path d="M90.3533 27.3237C91.0429 27.3237 91.7326 27.3268 92.4222 27.3218C92.6453 27.3202 92.7415 27.3601 92.6579 27.6232C92.4887 28.155 92.3509 28.6973 92.2137 29.2388C92.1503 29.489 92.0024 29.5564 91.7587 29.5541C90.7641 29.5445 89.7692 29.5457 88.7745 29.5532C88.533 29.5551 88.3821 29.5004 88.3429 29.2286C88.2567 28.6291 88.1558 28.0315 88.0459 27.4359C87.993 27.1496 88.1797 27.2102 88.333 27.2101C89.0065 27.2096 89.68 27.2099 90.3534 27.2099C90.3533 27.2478 90.3533 27.2857 90.3533 27.3237Z" fill="currentColor"/>
<path d="M56.7545 35.9283C56.7545 35.1456 56.7637 34.3627 56.7492 33.5803C56.7445 33.327 56.8297 33.262 57.0765 33.2519C58.3207 33.2009 58.3203 33.1936 58.3203 34.441C58.3203 35.7188 58.3136 36.9968 58.3256 38.2746C58.3282 38.5559 58.3021 38.6922 57.9517 38.6906C56.7546 38.6854 56.7545 38.7024 56.7545 37.5097C56.7544 36.9826 56.7544 36.4555 56.7545 35.9283Z" fill="currentColor"/>
<path d="M39.7731 23.7901C39.8383 23.8668 39.8549 23.8772 39.8559 23.8889C39.963 25.2383 39.9629 25.2378 38.6467 25.2151C38.4154 25.2111 38.1839 25.2145 37.9473 25.1586C38.2621 24.9058 38.6401 24.8275 38.9483 24.6079C39.262 24.3843 39.5212 24.1075 39.7731 23.7901Z" fill="currentColor"/>
<path d="M41.7204 35.8233C41.703 35.6957 41.6953 35.5718 41.9195 35.4656C41.9195 36.559 41.9195 37.6121 41.9195 38.6652C41.7266 38.5368 41.8389 38.3443 41.8349 38.1874C41.8188 37.5634 41.8335 36.9387 41.8248 36.3145C41.8224 36.1482 41.8919 35.9575 41.7204 35.8233Z" fill="currentColor"/>
<path d="M33.5989 25.0577C34.3393 24.9743 35.0806 25.0755 35.821 25.0457C35.9854 25.039 36.1718 25.1209 36.3089 24.9562C36.4284 24.9862 36.5477 25.0161 36.6672 25.0461C35.638 25.1404 34.6179 25.179 33.5989 25.0577Z" fill="currentColor"/>
<path d="M88.8499 19.9569C88.8499 19.7892 88.8499 19.6215 88.8499 19.4406C89.0918 19.4867 89.0655 19.6264 89.0395 19.7661C88.9763 19.8298 88.913 19.8934 88.8499 19.9569Z" fill="currentColor"/>
</svg>
