<svg width="100" height="50" viewBox="0 0 100 50" fill="none" xmlns="http://www.w3.org/2000/svg">
<g id="ODIN&#231;&#148;&#181;&#229;&#173;&#144;">
<path id="Union" fill-rule="evenodd" clip-rule="evenodd" d="M53.8406 23.7016C53.2211 23.749 51.9071 23.6952 51.6027 21.969C51.4022 20.8318 51.3912 20.3863 51.3767 19.8005C51.3671 19.4134 51.356 18.965 51.2877 18.2154C51.139 16.5823 50.3053 15.1414 49.3325 14.6392C49.2212 14.5818 51.0516 14.0418 52.3114 15.223C52.5525 15.4491 52.399 11.528 50.3464 10.1138C50.151 9.9792 52.8472 9.44858 54.4454 11.6341C55.235 12.7138 55.3527 13.473 55.3936 13.7371C55.4006 13.7823 55.4054 13.813 55.4109 13.8283C55.8121 13.2432 56.6146 11.7445 56.6146 10.8316C56.6146 9.83848 56.2886 8.87968 56.1256 8.52441C56.9657 8.55371 58.565 9.67976 58.834 10.8316C59.1621 12.2364 59.0212 13.1197 58.9895 13.3183C58.9871 13.3335 58.9853 13.3446 58.9844 13.3518C60.0602 13.1556 62.368 12.2136 62.9938 10.2582C63.0265 10.1561 63.513 11.1834 63.5092 12.1717C63.5059 13.0116 63.0739 13.8192 63.0029 13.9519C62.9982 13.9607 62.995 13.9666 62.9938 13.9692C62.9889 13.9792 63.0423 13.9907 63.1448 14.0128C63.9602 14.1886 67.8856 15.035 70.4199 21.114C73.3102 28.0467 68.4091 37.0424 65.7616 39.4862C63.3217 41.7385 60.5549 44.265 55.7232 45.6698C56.1098 45.5315 56.5688 45.3394 57.079 45.0747C55.8822 45.5963 54.5776 45.995 53.1683 46.2073C45.5949 47.3484 40.1239 43.8168 40.3292 43.8407C45.2654 44.4154 48.9224 42.3333 50.1339 41.2205C50.1339 41.2205 46.8224 43.2779 40.3292 41.9389C32.9056 40.4081 29.9047 32.7095 30.0595 32.841C34.3393 36.476 39.8247 35.921 39.5685 35.8532C35.2578 34.7122 31.7604 32.5835 29.8061 27.8658C27.3243 21.8748 29.778 16.8778 29.8061 17.4272C30.0762 22.7014 34.1731 25.8795 36.1876 26.8092C34.9081 25.6266 32.6804 21.9564 32.7644 17.6385C32.9248 9.39552 39.1589 6.1019 39.1036 6.18556C35.9699 10.9322 38.4238 17.6385 38.512 16.8778C39.5263 8.1296 45.1185 4.65355 50.5143 3.73435C55.7353 2.84493 59.7115 5.75832 59.5454 5.74115C57.8451 5.56536 53.1683 5.72045 50.1339 8.76329C47.0996 11.8061 45.1048 15.2293 46.3304 20.7656C47.556 26.3019 53.1683 30.2745 57.6119 29.7673C62.0556 29.2602 62.8013 26.4236 62.6448 25.299C62.3979 23.524 59.7954 21.4633 57.6119 23.1385C55.7347 24.5788 56.589 26.6294 56.8768 27.3202C56.9404 27.4727 56.9763 27.5589 56.9491 27.5576C54.6318 27.4473 53.9276 25.0896 53.8406 23.7016ZM54.4445 46.003C54.8864 45.9006 55.3123 45.7893 55.7232 45.6698C54.8833 45.9702 54.3849 46.0168 54.4445 46.003Z" fill="currentColor"/>
</g>
</svg>
