<svg width="100" height="50" viewBox="0 0 100 50" fill="none" xmlns="http://www.w3.org/2000/svg">
<path fill-rule="evenodd" clip-rule="evenodd" d="M47.8039 1.5C47.1109 1.5 46.549 2.06184 46.549 2.7549V3.38235C46.549 4.07542 47.1109 4.63725 47.8039 4.63725C48.497 4.63725 49.0588 4.07542 49.0588 3.38235V2.7549C49.0588 2.06184 48.497 1.5 47.8039 1.5ZM55.0196 10.598C55.0196 9.90498 55.5814 9.34314 56.2745 9.34314C56.9676 9.34314 57.5294 9.90498 57.5294 10.598V11.2255C57.5294 11.9186 56.9676 12.4804 56.2745 12.4804C55.5814 12.4804 55.0196 11.9186 55.0196 11.2255V10.598ZM56.2745 13.1078C55.5814 13.1078 55.0196 13.6697 55.0196 14.3627V16.8233L55.0129 16.82C54.962 17.2039 54.6333 17.5 54.2353 17.5C53.8021 17.5 53.451 17.1489 53.451 16.7157V16.0544V10.9118C53.451 10.2187 52.8891 9.65686 52.1961 9.65686C51.503 9.65686 50.9412 10.2187 50.9412 10.9118V14.8241V15.4608C50.9412 15.894 50.5901 16.2451 50.1569 16.2451C49.7237 16.2451 49.3725 15.894 49.3725 15.4608V14.6703V13.8922C49.3725 13.1125 48.7405 12.4804 47.9608 12.4804C47.1811 12.4804 46.549 13.1125 46.549 13.8922V16.0544V16.0882V17.3431C46.549 17.7764 46.1979 18.1275 45.7647 18.1275C45.3315 18.1275 44.9804 17.7764 44.9804 17.3431V16.8234V12.4804C44.9804 11.7873 44.4186 11.2255 43.7255 11.2255C43.0324 11.2255 42.4706 11.7873 42.4706 12.4804V18.0536V19.0686V19.5392C42.4706 19.9724 42.1195 20.3235 41.6863 20.3235C41.2531 20.3235 40.902 19.9724 40.902 19.5392V18.8226V17.1863C40.902 16.4932 40.3401 15.9314 39.6471 15.9314C38.954 15.9314 38.3922 16.4932 38.3922 17.1863V20.0529V20.6373V22.6765C38.3922 23.1097 38.0411 23.4608 37.6078 23.4608C37.1746 23.4608 36.8235 23.1097 36.8235 22.6765V20.8218V20.4804C36.8235 19.7007 36.1915 19.0686 35.4118 19.0686C34.6321 19.0686 34 19.7007 34 20.4804V22.2059V23.6176V39.5718C34 40.2805 34.3751 40.9363 34.986 41.2957L46.9579 48.338C48.8356 49.4425 51.1644 49.4425 53.0421 48.338L65.014 41.2957C65.6249 40.9363 66 40.2805 66 39.5718V23.6176V22.2059V20.4804C66 19.7007 65.3679 19.0686 64.5882 19.0686C63.8085 19.0686 63.1765 19.7007 63.1765 20.4804V20.8217V21.7353C63.1765 22.1685 62.8254 22.5196 62.3922 22.5196C61.9589 22.5196 61.6078 22.1685 61.6078 21.7353V20.951V20.0529V17.5C61.6078 16.8069 61.046 16.2451 60.3529 16.2451C59.6599 16.2451 59.098 16.8069 59.098 17.5V18.8225L59.0695 18.8085C58.9776 19.1394 58.674 19.3824 58.3137 19.3824C57.8805 19.3824 57.5294 19.0313 57.5294 18.598V18.0536L57.5085 18.0433C57.5222 17.9689 57.5294 17.8922 57.5294 17.8137V14.3627C57.5294 13.6697 56.9676 13.1078 56.2745 13.1078ZM47.9608 5.89216C47.1811 5.89216 46.549 6.52423 46.549 7.30392V9.81373C46.549 10.5934 47.1811 11.2255 47.9608 11.2255C48.7405 11.2255 49.3725 10.5934 49.3725 9.81373V7.30392C49.3725 6.52423 48.7405 5.89216 47.9608 5.89216ZM50.6275 4.16667C50.6275 3.38697 51.2595 2.7549 52.0392 2.7549C52.8189 2.7549 53.451 3.38697 53.451 4.16667V6.9902C53.451 7.76989 52.8189 8.40196 52.0392 8.40196C51.2595 8.40196 50.6275 7.76989 50.6275 6.9902V4.16667ZM42.4706 25.6567H48.1177V29.1077H52.1961V25.6567H57.8432V37.4214H52.353V34.1273H48.1177V37.4214H42.4706V25.6567Z" fill="currentColor"/>
</svg>
