<!-- <svg width="48" height="48" viewBox="0 0 48 48" fill="none" xmlns="http://www.w3.org/2000/svg">
<circle cx="27" cy="28" r="18" fill="#FFF4F4"/>
<path fill-rule="evenodd" clip-rule="evenodd" d="M23.6595 5.2783L5.75999 17.3577V42.8647H15.84V32.4247C15.84 29.6412 18.0965 27.3847 20.88 27.3847H27.24C30.0235 27.3847 32.28 29.6412 32.28 32.4247V36.8047H28.92V32.4247C28.92 31.4968 28.1678 30.7447 27.24 30.7447H20.88C19.9522 30.7447 19.2 31.4968 19.2 32.4247V43.5847C19.2 45.0427 18.018 46.2247 16.56 46.2247H5.03999C3.58196 46.2247 2.39999 45.0427 2.39999 43.5847V16.975C2.39999 16.0976 2.83592 15.2775 3.56322 14.7867L22.4373 2.04955C23.1548 1.56531 24.0922 1.55624 24.819 2.02652L44.5142 14.7705C45.266 15.257 45.72 16.0914 45.72 16.9869V43.5847C45.72 45.0427 44.538 46.2247 43.08 46.2247H30.6V42.8647H42.36V17.3786L23.6595 5.2783Z" fill="#FFCDCB"/>
<path d="M32.4 44.5447C32.4 45.4726 31.6478 46.2247 30.72 46.2247C29.7922 46.2247 29.04 45.4726 29.04 44.5447C29.04 43.6169 29.7922 42.8647 30.72 42.8647C31.6478 42.8647 32.4 43.6169 32.4 44.5447Z" fill="#FFCDCB"/>
<path d="M32.28 36.7447C32.28 37.6726 31.5278 38.4247 30.6 38.4247C29.6722 38.4247 28.92 37.6726 28.92 36.7447C28.92 35.8169 29.6722 35.0647 30.6 35.0647C31.5278 35.0647 32.28 35.8169 32.28 36.7447Z" fill="#FFCDCB"/>
</svg> -->

<svg width="48" height="48" viewBox="0 0 48 48" fill="none" xmlns="http://www.w3.org/2000/svg">
<circle cx="27" cy="28" r="18" fill="#FFF4F4"/>
<path fill-rule="evenodd" clip-rule="evenodd" d="M23.6594 5.27836L5.7599 17.3578V42.8647H15.8399V32.4247C15.8399 29.6412 18.0964 27.3847 20.8799 27.3847H27.2399C30.0234 27.3847 32.2799 29.6412 32.2799 32.4247V36.8047H28.9199V32.4247C28.9199 31.4969 28.1677 30.7447 27.2399 30.7447H20.8799C19.9521 30.7447 19.1999 31.4969 19.1999 32.4247V43.5847C19.1999 45.0428 18.0179 46.2247 16.5599 46.2247H5.0399C3.58187 46.2247 2.3999 45.0428 2.3999 43.5847V16.975C2.3999 16.0976 2.83583 15.2775 3.56312 14.7867L22.4372 2.04961C23.1547 1.56538 24.0921 1.55631 24.8189 2.02658L44.5141 14.7705C45.2659 15.257 45.7199 16.0915 45.7199 16.987V43.5847C45.7199 45.0428 44.5379 46.2247 43.0799 46.2247H30.5999V42.8647H42.3599V17.3787L23.6594 5.27836Z" fill="#FFCDCB"/>
<path d="M32.3999 44.5448C32.3999 45.4726 31.6477 46.2248 30.7199 46.2248C29.7921 46.2248 29.0399 45.4726 29.0399 44.5448C29.0399 43.6169 29.7921 42.8648 30.7199 42.8648C31.6477 42.8648 32.3999 43.6169 32.3999 44.5448Z" fill="#FFCDCB"/>
<path d="M32.2799 36.7448C32.2799 37.6726 31.5277 38.4248 30.5999 38.4248C29.6721 38.4248 28.9199 37.6726 28.9199 36.7448C28.9199 35.8169 29.6721 35.0648 30.5999 35.0648C31.5277 35.0648 32.2799 35.8169 32.2799 36.7448Z" fill="#FFCDCB"/>
</svg>
