<svg width="347" height="98" viewBox="0 0 347 98" fill="none" xmlns="http://www.w3.org/2000/svg">
<path d="M13.8087 13.4219C15.0722 5.68288 21.7581 0 29.5996 0H331C339.837 0 347 7.16344 347 16V82C347 90.8366 339.837 98 331 98H18.8241C8.9585 98 1.4435 89.1586 3.03316 79.4219L13.8087 13.4219Z" fill="url(#paint0_linear_10044_13262)"/>
<mask id="mask0_10044_13262" style="mask-type:alpha" maskUnits="userSpaceOnUse" x="2" y="0" width="345" height="98">
<path d="M13.8087 13.4219C15.0722 5.68288 21.7581 0 29.5996 0H331C339.837 0 347 7.16344 347 16V82C347 90.8366 339.837 98 331 98H18.8241C8.9585 98 1.4435 89.1586 3.03316 79.4219L13.8087 13.4219Z" fill="url(#paint1_linear_10044_13262)"/>
</mask>
<g mask="url(#mask0_10044_13262)">
<path fill-rule="evenodd" clip-rule="evenodd" d="M238.987 25.9183C240.255 24.017 241.875 22.3704 243.754 21.0717L204.597 -52.6855L204.188 -52.3514C197.55 -48.8684 191.377 -44.6808 185.71 -39.8934C185.655 -39.8608 185.608 -39.8187 185.561 -39.7768L185.561 -39.7766C185.514 -39.7347 185.468 -39.6927 185.413 -39.6601C185.411 -39.6245 185.338 -39.5929 185.338 -39.5929L185.076 -39.3577C185.039 -39.3241 185.003 -39.3261 185.003 -39.3261L184.181 -38.5868C184.179 -38.5512 184.106 -38.5196 184.106 -38.5196L183.657 -38.1163C183.584 -38.0847 183.47 -37.9483 183.47 -37.9483L182.835 -37.377C180.663 -35.3567 178.594 -33.2592 176.593 -31.0864L238.987 25.9183ZM236.129 33.5049C236.406 31.4221 237.038 29.4518 237.964 27.657L169.825 -22.8258L168.153 -22.2415C165.628 -18.8485 163.344 -15.299 161.267 -11.5951C161.229 -11.5437 161.199 -11.483 161.169 -11.4222C161.14 -11.3615 161.11 -11.3004 161.071 -11.249L160.995 -11.1462C160.958 -11.1126 160.92 -11.079 160.918 -11.0434C160.879 -10.9742 160.799 -10.8001 160.799 -10.8001C160.762 -10.7665 160.724 -10.7329 160.723 -10.6973C160.685 -10.6637 160.646 -10.5945 160.646 -10.5945C160.609 -10.5609 160.57 -10.4917 160.57 -10.4917L160.491 -10.3532C160.454 -10.3196 160.452 -10.284 160.45 -10.2484C160.413 -10.2148 160.409 -10.1436 160.409 -10.1436C160.372 -10.11 160.37 -10.0744 160.368 -10.0388C160.331 -10.0052 160.328 -9.93396 160.328 -9.93396C160.29 -9.90035 160.288 -9.86474 160.287 -9.82913C160.249 -9.79553 160.246 -9.72432 160.246 -9.72432C160.208 -9.69071 160.205 -9.61949 160.205 -9.61949C160.167 -9.58588 160.164 -9.51467 160.164 -9.51467C160.128 -9.51667 160.125 -9.44546 160.125 -9.44546C160.123 -9.40985 160.052 -9.41386 160.052 -9.41386L160.045 -9.27142C160.007 -9.23781 160.004 -9.1666 160.004 -9.1666L160.002 -9.13099C159.965 -9.09739 159.961 -9.02617 159.961 -9.02617L159.954 -8.88374C159.917 -8.85013 159.915 -8.81452 159.915 -8.81452L159.913 -8.77891C159.876 -8.7453 159.872 -8.67409 159.872 -8.67409L159.87 -8.63848C159.833 -8.60487 159.83 -8.53366 159.83 -8.53366L159.824 -8.42683L159.749 -8.35962L159.744 -8.2528C159.709 -8.2548 159.705 -8.18358 159.705 -8.18358L159.703 -8.14797C159.668 -8.14997 159.664 -8.07876 159.664 -8.07876L159.593 -6.65441L159.519 -6.5872L159.476 -5.73259C159.439 -5.69898 159.435 -5.62777 159.435 -5.62777C159.398 -5.59417 159.396 -5.55856 159.394 -5.52295C159.357 -5.48934 159.355 -5.45373 159.354 -5.41812L159.348 -5.3113C159.311 -5.27769 159.309 -5.24208 159.307 -5.20647C159.27 -5.17287 159.268 -5.13726 159.266 -5.10165C159.229 -5.06805 159.227 -5.03244 159.225 -4.99683L159.222 -4.92561C159.185 -4.89201 159.145 -4.8228 159.144 -4.78719C159.106 -4.75359 159.105 -4.71798 159.103 -4.68237C159.064 -4.61315 159.062 -4.57754 159.06 -4.54193C159.058 -4.50632 159.039 -4.47171 159.019 -4.43711C159 -4.40251 158.98 -4.3679 158.978 -4.33229C158.941 -4.29868 158.939 -4.26307 158.937 -4.22747C158.9 -4.19386 158.898 -4.15826 158.896 -4.12265C158.893 -4.11445 158.89 -4.10604 158.886 -4.09746L158.877 -4.07537L158.867 -4.05364L158.857 -4.03348C158.844 -4.00577 158.83 -3.97719 158.816 -3.94861C158.806 -3.92815 158.796 -3.90768 158.787 -3.88754L158.769 -3.85089C158.757 -3.82423 158.746 -3.79853 158.736 -3.77457C158.702 -3.63867 158.647 -3.52517 158.588 -3.40041L158.569 -3.36174L158.552 -3.32604L158.533 -3.28608C158.46 -3.25447 158.457 -3.18325 158.455 -3.14764C158.382 -3.11604 158.379 -3.04483 158.377 -3.00922C158.334 -2.86879 158.174 -2.52071 158.174 -2.52071C158.154 -2.4683 158.124 -2.40749 158.094 -2.34668C158.064 -2.28587 158.034 -2.22506 158.014 -2.17265C157.976 -2.13904 157.973 -2.06783 157.971 -2.03222C156.473 1.52573 155.185 5.16692 154.072 8.88934L236.129 33.5049ZM236.788 41.2789C236.257 39.5803 235.971 37.7736 235.971 35.9001C235.971 35.6866 235.975 35.4741 235.982 35.2624L151.629 19.2501L151.598 20.6052C151.548 20.8881 151.499 21.162 151.45 21.436C151.4 21.71 151.351 21.9839 151.301 22.2668L151.268 22.9434C150.809 25.7028 150.494 28.4703 150.281 31.315L149.894 39.1133C149.952 44.437 150.408 49.6404 151.262 54.7589L236.788 41.2789ZM240.189 47.4838C239.185 46.2896 238.334 44.9631 237.664 43.5344L154.141 65.8476C156.26 73.5369 159.218 80.8806 162.949 87.7679C162.983 87.8055 163.017 87.8432 163.015 87.8788C163.049 87.9164 163.081 87.9896 163.081 87.9896C163.113 88.0628 163.213 88.2113 163.213 88.2113C163.234 88.2352 163.256 88.2591 163.268 88.2825C163.275 88.2959 163.279 88.3092 163.279 88.3221C163.312 88.3597 163.345 88.4329 163.345 88.4329C163.378 88.4706 163.411 88.5438 163.411 88.5438C163.444 88.5814 163.476 88.6546 163.476 88.6546C163.489 88.6684 163.501 88.6868 163.511 88.7048C163.529 88.7359 163.542 88.7654 163.542 88.7654C163.576 88.8031 163.608 88.8763 163.608 88.8763C163.642 88.9139 163.674 88.9871 163.674 88.9871C163.708 89.0247 163.74 89.0979 163.74 89.0979C163.776 89.1 163.808 89.1732 163.808 89.1732C163.824 89.1909 163.839 89.2166 163.851 89.2387C163.865 89.2636 163.874 89.284 163.874 89.284C163.91 89.286 163.942 89.3592 163.942 89.3592C163.977 89.3612 164.009 89.4345 164.009 89.4345C164.045 89.4365 164.077 89.5097 164.077 89.5097C164.111 89.5473 164.109 89.5829 164.109 89.5829C164.145 89.5849 164.177 89.6581 164.177 89.6581L164.175 89.6937C164.211 89.6957 164.207 89.767 164.207 89.767L164.205 89.8026C164.22 89.8191 164.228 89.8352 164.233 89.8481L164.234 89.8544L164.236 89.8592C164.236 89.8622 164.237 89.8648 164.237 89.8671L164.237 89.8725L164.237 89.8758L164.236 89.9114C164.27 89.949 164.268 89.9846 164.268 89.9846C164.302 90.0222 164.3 90.0578 164.3 90.0578L164.296 90.1291C164.33 90.1667 164.328 90.2023 164.328 90.2023C164.334 90.209 164.339 90.2156 164.343 90.222C164.349 90.2314 164.353 90.2402 164.356 90.248C164.358 90.2556 164.359 90.2621 164.36 90.2668C164.361 90.2723 164.361 90.2755 164.361 90.2755L164.359 90.3111C164.393 90.3487 164.391 90.3843 164.391 90.3843L164.389 90.42C164.423 90.4576 164.421 90.4932 164.421 90.4932C164.455 90.5308 164.452 90.602 164.452 90.602C164.485 90.6396 164.484 90.6752 164.484 90.6752L164.48 90.7464C164.514 90.784 164.512 90.8197 164.512 90.8197C164.546 90.8573 164.544 90.8929 164.544 90.8929L164.542 90.9285L164.61 91.0037C164.644 91.0413 164.676 91.1145 164.676 91.1145C164.693 91.133 164.709 91.16 164.721 91.1827C164.734 91.2063 164.742 91.2254 164.742 91.2254C164.776 91.263 164.808 91.3362 164.808 91.3362C164.842 91.3738 164.838 91.445 164.838 91.445C164.874 91.4471 164.906 91.5203 164.906 91.5203C164.942 91.5223 164.974 91.5955 164.974 91.5955C165.008 91.6331 165.04 91.7064 165.04 91.7064C165.107 91.7816 165.141 91.8192 165.173 91.8924C165.207 91.93 165.241 91.9676 165.239 92.0032C165.273 92.0408 165.307 92.0785 165.305 92.1141L165.503 92.4466C166.528 94.1111 167.624 95.7796 168.759 97.3789L240.189 47.4838ZM245.68 51.8894C244.452 51.2505 243.308 50.4745 242.267 49.5817L175.962 106.997C182.078 114.054 189.128 120.271 196.908 125.458C196.976 125.515 197.054 125.565 197.132 125.614C197.21 125.663 197.288 125.711 197.356 125.769C197.425 125.826 197.503 125.875 197.581 125.924C197.659 125.973 197.737 126.022 197.805 126.08C197.839 126.117 197.873 126.155 197.909 126.157C197.943 126.195 197.976 126.232 198.012 126.234L198.029 126.244L198.04 126.251C198.053 126.26 198.065 126.268 198.076 126.275L198.077 126.276L198.078 126.276L198.078 126.277C198.092 126.287 198.105 126.295 198.116 126.302C198.128 126.309 198.14 126.313 198.151 126.313L198.359 126.432C198.393 126.47 198.427 126.508 198.463 126.51C198.497 126.547 198.566 126.587 198.566 126.587C198.6 126.624 198.634 126.662 198.669 126.664L198.741 126.668L198.737 126.739L198.88 126.747C198.878 126.783 198.949 126.787 198.949 126.787C198.983 126.824 199.054 126.828 199.054 126.828C199.086 126.902 199.158 126.906 199.158 126.906L199.264 126.912C199.263 126.947 199.334 126.951 199.334 126.951C199.368 126.989 199.437 127.029 199.437 127.029L199.505 127.104L199.576 127.108C199.61 127.145 199.646 127.147 199.646 127.147L199.681 127.149C199.68 127.185 199.751 127.189 199.751 127.189L200.178 127.213C200.176 127.249 200.248 127.253 200.248 127.253L200.283 127.255C200.282 127.29 200.353 127.294 200.353 127.294L200.388 127.296C200.392 127.3 200.396 127.304 200.4 127.308C200.402 127.31 200.405 127.312 200.407 127.314L200.412 127.317L200.422 127.323C200.429 127.328 200.436 127.331 200.442 127.333L200.447 127.334L200.453 127.335L200.457 127.336L200.458 127.336L200.494 127.338C200.506 127.352 200.519 127.361 200.53 127.367C200.538 127.371 200.545 127.374 200.551 127.375C200.558 127.377 200.563 127.378 200.563 127.378L200.599 127.38C200.597 127.415 200.668 127.419 200.668 127.419L200.704 127.421C200.738 127.459 200.809 127.463 200.809 127.463L200.844 127.465C200.878 127.502 200.95 127.506 200.95 127.506L200.985 127.508C201.019 127.546 201.055 127.548 201.055 127.548L201.09 127.55C201.124 127.588 201.16 127.59 201.16 127.59L201.195 127.592C201.194 127.627 201.265 127.631 201.265 127.631L201.3 127.633C201.334 127.671 201.406 127.675 201.406 127.675L201.441 127.677C201.475 127.715 201.546 127.719 201.546 127.719C201.58 127.756 201.651 127.76 201.651 127.76C201.685 127.798 201.756 127.802 201.756 127.802C201.771 127.803 201.791 127.81 201.809 127.818C201.821 127.823 201.833 127.828 201.842 127.833C201.854 127.839 201.862 127.843 201.862 127.843C201.895 127.881 201.967 127.885 201.967 127.885C202 127.923 202.072 127.927 202.072 127.927C202.106 127.964 202.177 127.968 202.177 127.968C202.211 128.006 202.282 128.01 202.282 128.01C202.318 128.012 202.387 128.051 202.387 128.051C202.421 128.089 202.49 128.129 202.49 128.129C202.524 128.166 202.558 128.204 202.594 128.206C202.699 128.248 202.768 128.287 202.838 128.327L202.838 128.327C202.872 128.364 202.905 128.402 202.941 128.404L245.68 51.8894ZM252.065 53.8132C250.438 53.6407 248.875 53.2515 247.406 52.675L212.758 133.563L213.298 133.791L213.301 133.793C214.477 134.291 215.634 134.781 216.82 135.22C216.855 135.222 216.899 135.242 216.943 135.262L216.943 135.262L216.943 135.262C216.987 135.283 217.03 135.303 217.066 135.305C217.099 135.342 217.135 135.344 217.171 135.346C217.205 135.384 217.24 135.386 217.276 135.388C217.31 135.426 217.381 135.43 217.381 135.43C217.415 135.467 217.45 135.469 217.486 135.471L218.092 135.505C218.109 135.506 218.126 135.516 218.139 135.526C218.145 135.53 218.149 135.533 218.153 135.537L218.158 135.542L218.161 135.545L218.588 135.569L218.587 135.605L218.694 135.611C218.719 135.621 218.747 135.631 218.776 135.641L218.869 135.674L218.918 135.691C218.941 135.699 218.964 135.707 218.986 135.715L219.02 135.728L219.044 135.737C227.785 138.836 237.047 140.785 246.695 141.435L247.051 141.455L252.065 53.8132ZM258.929 53.2278C257.587 53.6097 256.182 53.84 254.733 53.8992L258.652 140.18C259.762 140.135 260.871 140.09 261.983 140.01C262.127 139.982 262.234 139.988 262.376 139.996L265.012 140.145C271.869 139.459 278.582 138.052 285.004 136.056C285.077 136.024 285.148 136.028 285.148 136.028C285.292 136.001 285.547 135.908 285.547 135.908C285.62 135.876 285.691 135.88 285.691 135.88C285.764 135.849 285.946 135.788 285.946 135.788C285.983 135.754 286.055 135.758 286.055 135.758C286.092 135.724 286.128 135.726 286.163 135.728C286.236 135.697 286.418 135.636 286.418 135.636C286.455 135.602 286.491 135.604 286.526 135.606C286.564 135.572 286.599 135.574 286.635 135.576C286.672 135.543 286.744 135.547 286.744 135.547C286.781 135.513 286.817 135.515 286.852 135.517L286.854 135.482L286.961 135.488C286.998 135.454 287.034 135.456 287.07 135.458C287.107 135.425 287.178 135.429 287.178 135.429C287.216 135.395 287.251 135.397 287.287 135.399C287.324 135.365 287.36 135.367 287.395 135.369C287.433 135.336 287.468 135.338 287.504 135.34C287.542 135.306 287.577 135.308 287.613 135.31L287.615 135.275L287.721 135.281C287.759 135.247 287.83 135.251 287.83 135.251C287.867 135.217 287.939 135.221 287.939 135.221C287.976 135.188 288.047 135.192 288.047 135.192C288.085 135.158 288.156 135.162 288.156 135.162C288.193 135.129 288.265 135.133 288.265 135.133C288.302 135.099 288.373 135.103 288.373 135.103C288.411 135.069 288.482 135.073 288.482 135.073C288.484 135.038 288.555 135.042 288.555 135.042C288.592 135.008 288.663 135.012 288.663 135.012L288.699 135.014C288.736 134.981 288.808 134.985 288.808 134.985L288.843 134.987C288.845 134.951 288.916 134.955 288.916 134.955L289.059 134.963C289.096 134.929 289.167 134.933 289.167 134.933L289.203 134.935C289.24 134.902 289.312 134.906 289.312 134.906L289.561 134.92L289.636 134.853L289.743 134.859C289.744 134.823 289.816 134.827 289.816 134.827L290.029 134.839C290.031 134.803 290.102 134.807 290.102 134.807L290.209 134.813C290.247 134.78 290.282 134.782 290.282 134.782L290.389 134.788C290.391 134.752 290.462 134.756 290.462 134.756L290.498 134.758C290.535 134.725 290.606 134.729 290.606 134.729L290.678 134.733C290.715 134.699 290.786 134.703 290.786 134.703L290.822 134.705C290.859 134.671 290.93 134.675 290.93 134.675C290.968 134.642 291.039 134.646 291.039 134.646C291.063 134.635 291.088 134.621 291.112 134.607L291.113 134.606C291.162 134.577 291.211 134.548 291.258 134.551C291.296 134.518 291.331 134.519 291.367 134.521C291.379 134.516 291.39 134.511 291.401 134.505L291.437 134.486C291.468 134.469 291.491 134.457 291.513 134.458C291.525 134.453 291.538 134.447 291.55 134.44L291.586 134.419C291.635 134.39 291.684 134.361 291.732 134.363C291.769 134.33 291.805 134.332 291.84 134.334C291.878 134.3 291.915 134.267 291.951 134.269C291.975 134.258 292 134.244 292.024 134.229C292.073 134.2 292.122 134.171 292.17 134.174C292.207 134.14 292.28 134.109 292.316 134.111L292.387 134.115L258.929 53.2278ZM265.471 49.779C263.982 51.0124 262.291 52.0108 260.456 52.7174L302.042 129.587C312.536 123.965 321.978 116.533 329.88 107.729L265.471 49.779ZM270.199 43.7612C269.575 45.0445 268.804 46.2427 267.907 47.3336L337.849 98.2862C338.54 97.3252 339.231 96.3643 339.887 95.3657C339.944 95.2975 339.993 95.2199 340.041 95.1422L340.041 95.1421C340.09 95.0646 340.138 94.9869 340.195 94.9188C340.233 94.8852 340.27 94.8516 340.272 94.816L340.348 94.7132C340.386 94.6796 340.425 94.6104 340.425 94.6104C340.462 94.5768 340.5 94.5431 340.501 94.5075C340.539 94.4739 340.576 94.4403 340.578 94.4047C340.615 94.3711 340.653 94.3375 340.654 94.3019C340.729 94.2347 340.768 94.1655 340.808 94.0963C340.845 94.0627 340.882 94.029 340.884 93.9934C340.921 93.9598 340.961 93.8906 340.961 93.8906C340.998 93.857 341.035 93.8234 341.037 93.7878C341.075 93.7542 341.114 93.685 341.114 93.685C341.151 93.6514 341.19 93.5822 341.19 93.5822C341.228 93.5486 341.267 93.4794 341.267 93.4794C341.304 93.4458 341.343 93.3765 341.343 93.3765C341.381 93.3429 341.42 93.2737 341.42 93.2737C341.457 93.2401 341.496 93.1709 341.496 93.1709C341.534 93.1373 341.573 93.0681 341.573 93.0681C341.61 93.0345 341.649 92.9653 341.649 92.9653C341.687 92.9317 341.726 92.8624 341.726 92.8624C341.763 92.8288 341.767 92.7576 341.767 92.7576C341.804 92.724 341.808 92.6528 341.808 92.6528C341.845 92.6192 341.849 92.548 341.849 92.548C341.886 92.5144 341.925 92.4452 341.925 92.4452C341.963 92.4116 341.966 92.3403 341.966 92.3403C342.004 92.3067 342.007 92.2355 342.007 92.2355L342.078 92.2395L342.084 92.1327C342.121 92.0991 342.125 92.0279 342.125 92.0279C342.162 91.9943 342.165 91.923 342.165 91.923C342.203 91.8895 342.206 91.8182 342.206 91.8182L342.283 91.7154L342.354 91.7194L342.359 91.6126C342.397 91.579 342.4 91.5078 342.4 91.5078C342.438 91.4742 342.44 91.4386 342.44 91.4386L342.441 91.4029C342.479 91.3693 342.48 91.3337 342.48 91.3337L342.482 91.2981C342.52 91.2645 342.523 91.1933 342.523 91.1933L342.525 91.1577C342.562 91.1241 342.566 91.0529 342.566 91.0529C342.601 91.0549 342.605 90.9837 342.605 90.9837L342.607 90.9481C342.642 90.9501 342.646 90.8788 342.646 90.8788C342.683 90.8452 342.687 90.774 342.687 90.774L342.689 90.7384C342.726 90.7048 342.729 90.6336 342.729 90.6336L342.731 90.598C342.767 90.6 342.77 90.5287 342.77 90.5287L342.772 90.4931C342.81 90.4595 342.811 90.4239 342.811 90.4239C342.849 90.3903 342.852 90.3191 342.852 90.3191C342.89 90.2855 342.895 90.1787 342.895 90.1787C342.932 90.1451 342.936 90.0739 342.936 90.0739C342.971 90.0759 342.975 90.0047 342.975 90.0047C343.011 90.0067 343.014 89.9354 343.014 89.9354C343.052 89.9018 343.055 89.8306 343.055 89.8306L343.057 89.795C343.094 89.7614 343.098 89.6902 343.098 89.6902L343.1 89.6546C343.137 89.621 343.14 89.5497 343.14 89.5497C343.176 89.5518 343.18 89.4805 343.18 89.4805C343.217 89.4469 343.221 89.3757 343.221 89.3757C343.258 89.3421 343.263 89.2353 343.263 89.2353C343.301 89.2017 343.304 89.1305 343.304 89.1305L343.375 89.1345L343.381 89.0276L343.452 89.0317L343.457 88.9248C343.495 88.8912 343.5 88.7844 343.5 88.7844C343.537 88.7508 343.541 88.6796 343.541 88.6796C343.578 88.646 343.582 88.5748 343.582 88.5748C343.619 88.5412 343.623 88.4699 343.623 88.4699C343.66 88.4363 343.664 88.3651 343.664 88.3651C343.701 88.3315 343.704 88.2603 343.704 88.2603L343.776 88.2643L343.781 88.1575C343.818 88.1239 343.822 88.0526 343.822 88.0526C343.859 88.019 343.861 87.9834 343.863 87.9478C343.9 87.9142 343.904 87.843 343.904 87.843C343.941 87.8094 343.943 87.7738 343.945 87.7382L344.062 87.5305C344.1 87.4969 344.101 87.4613 344.103 87.4257C344.14 87.3921 344.142 87.3565 344.144 87.3209C344.181 87.2873 344.22 87.2181 344.22 87.2181C344.258 87.1845 344.295 87.1508 344.297 87.1152C344.334 87.0816 344.336 87.046 344.338 87.0104C344.375 86.9768 344.377 86.9412 344.379 86.9056C344.416 86.872 344.418 86.8364 344.42 86.8008C344.461 86.696 344.5 86.6268 344.539 86.5575C344.576 86.5239 344.578 86.4883 344.58 86.4527C344.617 86.4191 344.619 86.3835 344.621 86.3479C344.64 86.3133 344.66 86.2698 344.68 86.2263L344.681 86.226C344.701 86.1826 344.721 86.1392 344.74 86.1047C344.777 86.0711 344.779 86.0354 344.781 85.9998C344.818 85.9662 344.82 85.9306 344.822 85.895L344.898 85.7922L345.018 85.5489C345.055 85.5154 345.092 85.4817 345.094 85.4461C345.132 85.4125 345.133 85.3769 345.135 85.3413C345.213 85.2029 345.333 84.9596 345.333 84.9596L345.411 84.8212C345.451 84.7345 345.49 84.6566 345.53 84.5788L345.53 84.5783C345.57 84.5003 345.609 84.4216 345.649 84.3347C348.235 79.0168 350.405 73.4256 352.05 67.6263L270.199 43.7612ZM271.945 34.4858C271.982 34.9525 272 35.4241 272 35.9001C272 37.6951 271.737 39.4287 271.249 41.0648L354.686 56.241C354.765 55.7276 354.844 55.2232 354.923 54.7188C355.001 54.2144 355.08 53.71 355.159 53.1966L355.242 51.523C355.287 51.0823 355.336 50.6418 355.385 50.2001C355.486 49.2896 355.588 48.3738 355.659 47.44L355.694 47.4421L355.74 46.5162L355.776 46.5182L355.949 43.0286L355.913 43.0266L356.01 41.0681L355.903 41.0621L356.009 38.9256C355.978 33.0677 355.477 27.3262 354.506 21.7011L271.945 34.4858ZM271.62 32.2004L354.041 9.46279C353.096 6.19588 352.04 2.99418 350.803 -0.146332C350.771 -0.236961 350.74 -0.319115 350.708 -0.400898L350.708 -0.401241L350.708 -0.401642L350.708 -0.401791C350.676 -0.483856 350.645 -0.565922 350.614 -0.656876C350.58 -0.694489 350.548 -0.767712 350.548 -0.767712C350.514 -0.805325 350.48 -0.842937 350.482 -0.878548C350.448 -0.916161 350.416 -0.98938 350.416 -0.98938C350.382 -1.02699 350.348 -1.06461 350.35 -1.10022C350.316 -1.13783 350.282 -1.17544 350.284 -1.21105L350.152 -1.43272L350.152 -1.43274C350.118 -1.47035 350.084 -1.50795 350.086 -1.54355C350.052 -1.58116 350.018 -1.61877 350.02 -1.65438C349.986 -1.692 349.952 -1.72961 349.954 -1.76522C349.92 -1.80283 349.922 -1.83844 349.924 -1.87405C349.89 -1.91166 349.892 -1.94727 349.893 -1.98288L349.822 -1.98689L349.827 -2.09371C349.794 -2.13133 349.795 -2.16693 349.797 -2.20255C349.763 -2.24016 349.765 -2.27576 349.767 -2.31137C349.733 -2.34899 349.737 -2.4202 349.737 -2.4202C349.703 -2.45782 349.708 -2.56464 349.708 -2.56464C349.674 -2.60226 349.678 -2.67348 349.678 -2.67348C349.642 -2.67548 349.647 -2.78231 349.647 -2.78231C349.613 -2.81992 349.617 -2.89114 349.617 -2.89114L349.619 -2.92674C349.585 -2.96436 349.588 -3.03557 349.588 -3.03557L349.59 -3.07118C349.555 -3.07319 349.56 -3.18001 349.56 -3.18001C349.524 -3.18201 349.528 -3.25323 349.528 -3.25323L349.457 -3.25724L349.462 -3.36407C349.428 -3.40168 349.433 -3.50851 349.433 -3.50851C349.399 -3.54612 349.403 -3.61734 349.403 -3.61734C349.367 -3.61934 349.371 -3.69056 349.371 -3.69056L349.373 -3.72617C349.339 -3.76378 349.341 -3.79939 349.341 -3.79939L349.342 -3.835C349.308 -3.87261 349.312 -3.94383 349.312 -3.94383L349.314 -3.97944C349.278 -3.98144 349.282 -4.05266 349.282 -4.05266L349.283 -4.08827C349.248 -4.09027 349.251 -4.16149 349.251 -4.16149L349.253 -4.19709C349.219 -4.23471 349.221 -4.27032 349.221 -4.27032L349.223 -4.30593C349.189 -4.34354 349.191 -4.37915 349.191 -4.37915C349.157 -4.41676 349.16 -4.48798 349.16 -4.48798L349.162 -4.52359C349.126 -4.52559 349.13 -4.59681 349.13 -4.59681L349.132 -4.63242C349.098 -4.67003 349.1 -4.70564 349.1 -4.70564L349.109 -4.88368C349.075 -4.9213 349.076 -4.95691 349.076 -4.95691L349.078 -4.99251C349.043 -4.99452 349.046 -5.06573 349.046 -5.06573L349.048 -5.10134C349.012 -5.10335 349.016 -5.17456 349.016 -5.17456L349.018 -5.21017C348.984 -5.24779 348.985 -5.28339 348.985 -5.28339L348.987 -5.319C348.953 -5.35662 348.955 -5.39223 348.955 -5.39223L348.957 -5.42783C348.923 -5.46545 348.925 -5.50106 348.925 -5.50106L348.927 -5.53667C348.891 -5.53867 348.894 -5.60989 348.894 -5.60989L348.896 -5.6455C348.861 -5.6475 348.864 -5.71872 348.864 -5.71872L348.866 -5.75433C348.832 -5.79194 348.834 -5.82755 348.834 -5.82755L348.843 -6.00559C348.807 -6.00759 348.811 -6.07881 348.811 -6.07881L348.812 -6.11442C348.777 -6.11642 348.78 -6.18764 348.78 -6.18764L348.782 -6.22325C348.748 -6.26086 348.75 -6.29647 348.75 -6.29647L348.766 -6.61695C348.732 -6.65456 348.734 -6.69017 348.734 -6.69017C348.735 -6.72578 348.664 -6.72979 348.664 -6.72979L348.67 -6.83662C348.636 -6.87423 348.637 -6.90984 348.637 -6.90984L348.645 -7.05227C348.611 -7.08988 348.612 -7.12549 348.612 -7.12549L348.618 -7.23232C348.584 -7.26993 348.586 -7.30554 348.586 -7.30554L348.587 -7.34115C348.554 -7.37877 348.555 -7.41437 348.555 -7.41437L348.561 -7.52119C348.527 -7.55881 348.529 -7.59442 348.529 -7.59442L348.536 -7.73685C348.502 -7.77447 348.503 -7.81007 348.503 -7.81007L348.505 -7.84568C348.471 -7.8833 348.473 -7.91891 348.473 -7.91891L348.475 -7.95451C348.441 -7.99213 348.443 -8.02774 348.443 -8.02774L348.457 -8.31261C348.421 -8.31461 348.425 -8.38583 348.425 -8.38583L348.427 -8.42143C348.393 -8.45905 348.395 -8.49466 348.395 -8.49466L348.396 -8.53027C348.362 -8.56788 348.364 -8.60349 348.364 -8.60349L348.371 -8.74592C348.337 -8.78354 348.339 -8.81915 348.339 -8.81915C348.305 -8.85676 348.307 -8.89236 348.307 -8.89236L348.309 -8.92797C348.275 -8.96559 348.277 -9.0012 348.277 -9.0012C348.279 -9.03681 348.207 -9.04081 348.207 -9.04081L348.216 -9.21886C348.182 -9.25647 348.184 -9.29208 348.184 -9.29208L348.189 -9.3989C348.155 -9.43652 348.157 -9.47212 348.157 -9.47212L348.159 -9.50773C348.125 -9.54535 348.127 -9.58096 348.127 -9.58096L348.129 -9.61656C348.095 -9.65417 348.097 -9.68979 348.097 -9.68979L348.102 -9.79661C348.068 -9.83422 348.07 -9.86983 348.07 -9.86983L348.075 -9.97666C348.041 -10.0143 348.043 -10.0499 348.043 -10.0499L348.045 -10.0855C348.009 -10.0875 348.013 -10.1587 348.013 -10.1587L348.014 -10.1943C347.981 -10.2319 347.982 -10.2675 347.982 -10.2675L347.988 -10.3744C347.954 -10.412 347.956 -10.4476 347.956 -10.4476C347.922 -10.4852 347.923 -10.5208 347.923 -10.5208L347.925 -10.5564C347.89 -10.5584 347.893 -10.6296 347.893 -10.6296L347.895 -10.6652C347.859 -10.6673 347.827 -10.7405 347.827 -10.7405C347.793 -10.7781 347.795 -10.8137 347.795 -10.8137L347.797 -10.8493C347.763 -10.8869 347.765 -10.9225 347.765 -10.9225C347.729 -10.9245 347.733 -10.9957 347.733 -10.9957L347.734 -11.0314C347.699 -11.0334 347.667 -11.1066 347.667 -11.1066L347.635 -11.1798L347.636 -11.2154C347.603 -11.253 347.604 -11.2886 347.604 -11.2886L347.606 -11.3242C347.572 -11.3619 347.574 -11.3975 347.574 -11.3975C347.538 -11.3995 347.506 -11.4727 347.506 -11.4727C347.471 -11.4747 347.439 -11.5479 347.439 -11.5479L347.44 -11.5835C347.405 -11.5855 347.408 -11.6567 347.408 -11.6567L347.41 -11.6924C347.376 -11.73 347.378 -11.7656 347.378 -11.7656L347.38 -11.8012C347.346 -11.8388 347.348 -11.8744 347.348 -11.8744L347.349 -11.91C347.314 -11.912 347.317 -11.9832 347.317 -11.9832L347.319 -12.0188L347.287 -12.0921L347.289 -12.1277C347.255 -12.1653 347.257 -12.2009 347.257 -12.2009L347.258 -12.2365C347.225 -12.2741 347.226 -12.3097 347.226 -12.3097C347.191 -12.3117 347.159 -12.385 347.159 -12.385C347.123 -12.387 347.091 -12.4602 347.091 -12.4602C347.055 -12.4622 347.023 -12.5354 347.023 -12.5354C346.989 -12.573 346.991 -12.6086 346.991 -12.6086L346.993 -12.6442C346.959 -12.6818 346.961 -12.7175 346.961 -12.7175L346.963 -12.7531C346.927 -12.7551 346.895 -12.8283 346.895 -12.8283C346.859 -12.8303 346.827 -12.9035 346.827 -12.9035L346.829 -12.9391C346.793 -12.9411 346.761 -13.0143 346.761 -13.0143C346.727 -13.052 346.729 -13.0876 346.729 -13.0876L346.731 -13.1232C346.697 -13.1608 346.699 -13.1964 346.699 -13.1964C346.663 -13.1984 346.631 -13.2716 346.631 -13.2716L346.633 -13.3072L346.565 -13.3825L346.567 -13.4181C346.533 -13.4557 346.535 -13.4913 346.535 -13.4913C346.501 -13.5289 346.503 -13.5645 346.503 -13.5645C346.469 -13.6021 346.471 -13.6377 346.471 -13.6377L346.472 -13.6733C346.437 -13.6753 346.405 -13.7486 346.405 -13.7486C346.369 -13.7506 346.337 -13.8238 346.337 -13.8238L346.339 -13.8594C346.303 -13.8614 346.271 -13.9346 346.271 -13.9346C346.237 -13.9722 346.239 -14.0079 346.239 -14.0079L346.104 -14.1583C346.068 -14.1603 346.036 -14.2335 346.036 -14.2335C346 -14.2355 345.968 -14.3088 345.968 -14.3088C345.934 -14.3464 345.936 -14.382 345.936 -14.382L345.938 -14.4176L345.802 -14.568L345.804 -14.6036C345.768 -14.6056 345.736 -14.6789 345.736 -14.6789C345.703 -14.7165 345.704 -14.7521 345.704 -14.7521L345.706 -14.7877C345.672 -14.8253 345.674 -14.8609 345.674 -14.8609L345.676 -14.8965C345.642 -14.9341 345.644 -14.9697 345.644 -14.9697L345.645 -15.0054C345.612 -15.043 345.613 -15.0786 345.613 -15.0786L345.615 -15.1142C345.581 -15.1518 345.583 -15.1874 345.583 -15.1874L345.585 -15.223C345.551 -15.2606 345.553 -15.2962 345.553 -15.2962L345.554 -15.3318C345.521 -15.3695 345.522 -15.4051 345.522 -15.4051L345.524 -15.4407C345.49 -15.4783 345.492 -15.5139 345.492 -15.5139L345.494 -15.5495L345.426 -15.6247L345.428 -15.6603C345.394 -15.698 345.396 -15.7336 345.396 -15.7336L345.398 -15.7692C345.364 -15.8068 345.365 -15.8424 345.365 -15.8424L345.332 -15.88C345.298 -15.9176 345.299 -15.9532 345.299 -15.9532L345.301 -15.9888C345.267 -16.0265 345.269 -16.0621 345.269 -16.0621L345.271 -16.0977C345.237 -16.1353 345.239 -16.1709 345.239 -16.1709L345.241 -16.2065C345.207 -16.2441 345.209 -16.2797 345.209 -16.2797C345.175 -16.3173 345.176 -16.3529 345.176 -16.3529L345.178 -16.3885C345.144 -16.4262 345.146 -16.4618 345.146 -16.4618L345.148 -16.4974C345.114 -16.535 345.116 -16.5706 345.116 -16.5706C345.082 -16.6082 345.084 -16.6438 345.084 -16.6438C345.048 -16.6458 345.05 -16.6814 345.05 -16.6814L345.052 -16.717C345.016 -16.719 344.984 -16.7923 344.984 -16.7923L344.986 -16.8279C344.916 -16.8675 344.918 -16.9031 344.918 -16.9031L344.92 -16.9387C344.85 -16.9783 344.852 -17.0139 344.852 -17.0139L344.854 -17.0495L344.82 -17.0872C344.786 -17.1248 344.788 -17.1604 344.788 -17.1604C344.754 -17.198 344.756 -17.2336 344.756 -17.2336L344.758 -17.2692C344.722 -17.2712 344.69 -17.3444 344.69 -17.3444L344.692 -17.38C344.656 -17.382 344.624 -17.4553 344.624 -17.4553C344.59 -17.4929 344.558 -17.5661 344.558 -17.5661C344.524 -17.6037 344.526 -17.6393 344.526 -17.6393C344.527 -17.6571 344.51 -17.6759 344.493 -17.6947C344.476 -17.7135 344.459 -17.7324 344.46 -17.7502C344.424 -17.7522 344.392 -17.8254 344.392 -17.8254C344.358 -17.863 344.326 -17.9362 344.326 -17.9362C344.259 -18.0114 344.193 -18.1223 344.127 -18.2331C344.128 -18.2687 344.061 -18.3439 344.061 -18.3439C343.844 -18.6595 343.627 -18.9666 343.41 -19.2732C343.193 -19.5799 342.976 -19.887 342.76 -20.2025L269.5 26.7393C270.486 28.4058 271.212 30.2449 271.62 32.2004ZM268.399 25.0928L330.096 -29.1992C322.215 -38.1054 312.84 -45.7031 302.341 -51.5072L262.981 20.2887C265.096 21.5101 266.94 23.149 268.399 25.0928ZM252.08 17.9854L248.969 -64.3652L248.095 -62.5933L246.706 -62.6714C246.562 -62.6438 246.277 -62.6599 246.277 -62.6599C246.097 -62.6343 245.882 -62.6107 245.704 -62.6207C242.3 -62.4194 238.925 -62.0737 235.613 -61.5458L235.073 -61.4691C234.966 -61.4751 234.678 -61.4199 234.678 -61.4199L234.393 -61.4359C234.37 -61.4298 234.349 -61.4235 234.329 -61.4175C234.252 -61.3948 234.189 -61.376 234.104 -61.3808L230.115 -61.6052C230.113 -61.5696 230.042 -61.5736 230.042 -61.5736L228.831 -61.6417C228.758 -61.6101 228.722 -61.6121 228.687 -61.6141L228.615 -61.6182C228.542 -61.5866 228.507 -61.5886 228.471 -61.5906L228.364 -61.5966C228.327 -61.563 228.291 -61.565 228.256 -61.567C228.183 -61.5354 228.11 -61.5038 228.038 -61.5078C228.001 -61.4742 227.93 -61.4782 227.894 -61.4802C227.84 -61.4654 227.777 -61.4511 227.713 -61.4368L227.713 -61.4367C227.65 -61.4225 227.587 -61.4082 227.533 -61.3934C227.495 -61.3598 227.424 -61.3638 227.388 -61.3658C222.904 -60.2612 218.511 -58.8301 214.284 -57.1396L245.517 19.9964C247.511 18.9326 249.728 18.2327 252.08 17.9854ZM253.75 17.8873C253.828 17.8863 253.907 17.8858 253.986 17.8858C256.36 17.8858 258.628 18.3452 260.703 19.1801L292.45 -56.6342C284.999 -59.8029 277.112 -62.1035 268.856 -63.4606C268.75 -63.4785 268.644 -63.5004 268.538 -63.5222C268.326 -63.5659 268.113 -63.6096 267.9 -63.6216C267.759 -63.6652 267.474 -63.6812 267.474 -63.6812L267.332 -63.6893C267.226 -63.7309 267.084 -63.7389 266.942 -63.7469L257.823 -64.2599L253.75 17.8873Z" fill="url(#paint2_radial_10044_13262)"/>
<path opacity="0.3" d="M128.955 2.04545C123.363 -4.1053 123.227 -18 117.5 -18C111.773 -18 111.637 -4.1053 106.045 2.04545C100.454 8.19621 86 7.77273 86 13.5C86 19.2273 100.454 18.8038 106.045 24.9545C111.637 31.1053 111.773 45 117.5 45C123.227 45 123.363 31.1053 128.955 24.9545C134.546 18.8038 149 19.2273 149 13.5C149 7.77273 134.546 8.19621 128.955 2.04545Z" fill="url(#paint3_linear_10044_13262)"/>
<path opacity="0.5" d="M340.273 79.7273C336.723 75.822 336.636 67 333 67C329.364 67 329.277 75.822 325.727 79.7273C322.177 83.6325 313 83.3636 313 87C313 90.6364 322.177 90.3675 325.727 94.2727C329.277 98.178 329.364 107 333 107C336.636 107 336.723 98.178 340.273 94.2727C343.823 90.3675 353 90.6364 353 87C353 83.3636 343.823 83.6325 340.273 79.7273Z" fill="url(#paint4_linear_10044_13262)"/>
<g filter="url(#filter0_d_10044_13262)">
<path d="M254.884 133.967L194 58.9785L220.663 76.0245L254.884 133.967Z" fill="url(#paint5_linear_10044_13262)"/>
<path d="M254.898 133.977L314 58.9785L287.429 76.0245L254.898 133.977Z" fill="url(#paint6_linear_10044_13262)"/>
<path d="M287.431 76.0234H220.573L254.898 133.973L287.431 76.0234Z" fill="#D9D9D9"/>
<mask id="mask1_10044_13262" style="mask-type:alpha" maskUnits="userSpaceOnUse" x="220" y="75" width="68" height="59">
<path d="M287.458 75.9873H220.489L254.897 134L287.458 75.9873Z" fill="#D9D9D9"/>
</mask>
<g mask="url(#mask1_10044_13262)">
<path d="M254.892 133.963L220.014 75.1377H243.7L254.892 133.963Z" fill="url(#paint7_linear_10044_13262)"/>
<path d="M254.869 134.031L288.467 75.1377L264.072 75.1379L254.869 134.031Z" fill="url(#paint8_linear_10044_13262)"/>
<path d="M264.191 75.6943H243.695L254.875 133.98L264.191 75.6943Z" fill="url(#paint9_linear_10044_13262)"/>
<g filter="url(#filter1_f_10044_13262)">
<path d="M276.837 86.746C262.602 81.4005 241.129 83.6812 232.3 86.746L256.625 132.851C262.784 119.468 275.058 91.5096 276.837 86.746Z" fill="url(#paint10_linear_10044_13262)"/>
</g>
</g>
<mask id="mask2_10044_13262" style="mask-type:alpha" maskUnits="userSpaceOnUse" x="220" y="48" width="68" height="29">
<path d="M277.158 48.751H232.572L220.572 76.0245H287.43L277.158 48.751Z" fill="#D9D9D9"/>
</mask>
<g mask="url(#mask2_10044_13262)">
<path d="M253.984 59.0049L231.749 48.5576L277.142 48.7257L253.984 59.0049Z" fill="url(#paint11_linear_10044_13262)"/>
<path d="M253.994 58.9795L220.538 76.0385L232.478 48.7051L253.994 58.9795Z" fill="url(#paint12_linear_10044_13262)"/>
<path d="M253.974 58.9922L287.436 76.0377L277.143 48.7109L253.974 58.9922Z" fill="url(#paint13_linear_10044_13262)"/>
<g filter="url(#filter2_i_10044_13262)">
<path d="M287.456 76.0433H220.525L253.967 58.9707L287.456 76.0433Z" fill="url(#paint14_linear_10044_13262)"/>
</g>
</g>
<path d="M314 58.9815L296.857 38.5264L277.162 48.735L287.415 76.0478L314 58.9815Z" fill="#D9D9D9"/>
<mask id="mask3_10044_13262" style="mask-type:alpha" maskUnits="userSpaceOnUse" x="277" y="38" width="37" height="39">
<path d="M314 58.9835L296.857 38.5283L277.148 48.7488L287.407 76.0639L314 58.9835Z" fill="#D9D9D9"/>
</mask>
<g mask="url(#mask3_10044_13262)">
<path d="M294.604 54.3262L277.138 48.7583L296.999 37.9492L294.604 54.3262Z" fill="url(#paint15_linear_10044_13262)"/>
<path d="M294.614 54.3157L277.129 48.7354L287.408 76.0355L294.614 54.3157Z" fill="url(#paint16_linear_10044_13262)"/>
<g filter="url(#filter3_ii_10044_13262)">
<path d="M294.578 54.3047L287.392 76.1015L314.005 58.9723L294.578 54.3047Z" fill="url(#paint17_linear_10044_13262)"/>
</g>
<path d="M296.853 38.501L294.573 54.3176L313.999 58.9921L296.853 38.501Z" fill="url(#paint18_linear_10044_13262)"/>
</g>
<path d="M194 58.9815L212.857 38.5264L232.571 48.7539L220.571 76.0275L194 58.9815Z" fill="#D9D9D9"/>
<mask id="mask4_10044_13262" style="mask-type:alpha" maskUnits="userSpaceOnUse" x="194" y="38" width="39" height="39">
<path d="M194 58.9835L212.857 38.5283L232.571 48.7559L220.571 76.0294L194 58.9835Z" fill="#D9D9D9"/>
</mask>
<g mask="url(#mask4_10044_13262)">
<path d="M233.039 48.7799L212.849 38.4229L213.693 53.2715L233.039 48.7799Z" fill="url(#paint19_linear_10044_13262)"/>
<path d="M212.872 38.458L213.714 53.3557L193.672 59.0755L212.872 38.458Z" fill="url(#paint20_linear_10044_13262)"/>
<g filter="url(#filter4_ii_10044_13262)">
<path d="M220.599 76.1228L193.793 59.0369L213.714 53.2627L220.599 76.1228Z" fill="url(#paint21_linear_10044_13262)"/>
</g>
<path d="M232.62 48.7354L213.687 53.2511L220.564 76.0435L232.62 48.7354Z" fill="url(#paint22_linear_10044_13262)"/>
</g>
<path d="M276.436 30.0029H233.274C232.81 30.0029 232.35 30.0981 231.923 30.2826L219.439 35.6795C216.804 36.8187 216.674 40.507 219.223 41.8291L231.832 48.3708C232.317 48.6223 232.855 48.7535 233.401 48.7535H276.31C276.856 48.7535 277.394 48.6222 277.879 48.3708L290.488 41.8291C293.037 40.507 292.907 36.8187 290.272 35.6795L277.788 30.2826C277.361 30.0981 276.901 30.0029 276.436 30.0029Z" fill="#D9D9D9"/>
<mask id="mask5_10044_13262" style="mask-type:alpha" maskUnits="userSpaceOnUse" x="212" y="30" width="85" height="19">
<path d="M277.141 30H232.57L212.856 38.523L232.57 48.7506H277.141L296.856 38.523L277.141 30Z" fill="#D9D9D9"/>
</mask>
<g mask="url(#mask5_10044_13262)">
<g filter="url(#filter5_i_10044_13262)">
<path d="M253.999 38.5186L232.389 48.8256L277.809 48.8951L253.999 38.5186Z" fill="url(#paint23_linear_10044_13262)"/>
</g>
<g filter="url(#filter6_i_10044_13262)">
<path d="M254 38.5186L232.571 29.9956H277.142L254 38.5186Z" fill="url(#paint24_linear_10044_13262)"/>
</g>
<path d="M277.37 29.8799L253.999 38.523L277.423 48.8631L296.856 38.523L277.37 29.8799Z" fill="url(#paint25_linear_10044_13262)"/>
<path d="M231.88 29.7002L253.999 38.5232L232.349 48.8503L211.622 38.5232L231.88 29.7002Z" fill="url(#paint26_linear_10044_13262)"/>
</g>
</g>
<g filter="url(#filter7_d_10044_13262)">
<g filter="url(#filter8_i_10044_13262)">
<path d="M242.853 17.3999L241.093 26.7862L249.306 25.0263L242.853 17.3999Z" fill="url(#paint27_linear_10044_13262)"/>
<path d="M264.266 17.3999L258.399 25.0263L266.612 26.7862L264.266 17.3999Z" fill="url(#paint28_linear_10044_13262)"/>
</g>
<g filter="url(#filter9_ii_10044_13262)">
<path d="M237.572 39.6899L234.346 19.4506L243.364 24.4899C243.902 24.7905 244.581 24.6236 244.918 24.1077L254.292 9.771L262.18 24.1867C262.512 24.7932 263.293 24.9827 263.866 24.5957L273.651 17.984C272.869 23.8505 270.953 36.4047 270.718 39.6899C255.231 45.5564 242.07 42.1343 237.572 39.6899Z" fill="url(#paint29_linear_10044_13262)"/>
</g>
<mask id="mask6_10044_13262" style="mask-type:alpha" maskUnits="userSpaceOnUse" x="234" y="9" width="40" height="34">
<path d="M237.573 39.6899L234.346 19.4506L243.364 24.4899C243.902 24.7905 244.581 24.6236 244.918 24.1077L254.292 9.771L262.18 24.1867C262.512 24.7932 263.293 24.9827 263.866 24.5957L273.651 17.984C272.869 23.8505 270.953 36.4047 270.718 39.6899C255.231 45.5564 242.07 42.1343 237.573 39.6899Z" fill="#D9D9D9"/>
</mask>
<g mask="url(#mask6_10044_13262)">
<g filter="url(#filter10_i_10044_13262)">
<path d="M233.76 18.8647C237.769 22.9713 243.44 28.8377 245.493 22.9713C243.616 22.2673 236.791 19.9403 233.76 18.8647Z" fill="url(#paint30_linear_10044_13262)"/>
</g>
<g filter="url(#filter11_i_10044_13262)">
<path d="M272.771 18.8647C268.762 22.9713 263.385 28.8377 261.625 22.9713C263.502 22.2673 269.74 19.9403 272.771 18.8647Z" fill="url(#paint31_linear_10044_13262)"/>
</g>
</g>
<g filter="url(#filter12_d_10044_13262)">
<path d="M259.382 27.2888C257.046 26.0974 255.422 27.5602 254.65 28.8539C254.408 29.2601 254.422 29.758 254.608 30.193C254.705 30.4203 254.811 30.6658 254.917 30.9089C255.324 31.8451 255.855 33.4028 256.793 32.9998C257.065 32.8827 257.249 32.5699 257.337 32.3067C257.938 30.9696 259.116 28.3603 259.48 27.581C259.531 27.473 259.489 27.3429 259.382 27.2888Z" fill="url(#paint32_linear_10044_13262)"/>
<path d="M253.203 29.6235C252.099 26.566 249.428 26.6958 248.046 27.1956C247.93 27.2375 247.878 27.3685 247.926 27.4818C248.813 29.5603 250.51 33.5132 250.856 34.2049C253.538 39.2332 256.22 34.4284 256.443 33.9814C255.46 34.5178 254.693 33.2365 254.432 32.5288C254.32 32.2681 253.918 31.322 253.203 29.6235Z" fill="url(#paint33_linear_10044_13262)"/>
<mask id="mask7_10044_13262" style="mask-type:alpha" maskUnits="userSpaceOnUse" x="247" y="26" width="10" height="11">
<path d="M253.202 29.622C252.098 26.5645 249.427 26.6944 248.046 27.1941C247.93 27.236 247.878 27.367 247.926 27.4804C248.812 29.5588 250.51 33.5118 250.856 34.2034C253.538 39.2318 256.22 34.4269 256.443 33.98C255.46 34.5163 254.692 33.235 254.432 32.5273C254.32 32.2666 253.918 31.3205 253.202 29.622Z" fill="url(#paint34_linear_10044_13262)"/>
</mask>
<g mask="url(#mask7_10044_13262)">
<g filter="url(#filter13_i_10044_13262)">
<path d="M254.99 32.7531C252.576 29.2668 249.775 29.6615 248.509 30.2947C249.217 31.7101 250.386 34.6527 250.744 35.0997C254.431 39.3458 256.778 34.3175 256.778 33.7588C255.661 33.7588 255.214 33.2001 254.99 32.7531Z" fill="url(#paint35_linear_10044_13262)"/>
</g>
</g>
</g>
<path d="M270.918 35.7088C255.413 42.1463 242.637 38.9103 237.214 35.9573C236.771 35.716 236.227 36.0743 236.319 36.5703C236.601 38.0812 237.036 40.0803 237.239 41.2187C237.266 41.3693 237.351 41.5054 237.475 41.5949C250.478 50.9749 264.759 45.8495 270.813 41.5945C270.943 41.5029 271.024 41.3642 271.047 41.2064L271.743 36.3372C271.808 35.882 271.342 35.5324 270.918 35.7088Z" fill="url(#paint36_linear_10044_13262)"/>
<mask id="mask8_10044_13262" style="mask-type:alpha" maskUnits="userSpaceOnUse" x="236" y="35" width="36" height="13">
<path d="M270.918 35.7088C255.413 42.1463 242.638 38.9103 237.214 35.9573C236.771 35.716 236.228 36.0743 236.32 36.5703C236.603 38.0888 237.041 40.1004 237.243 41.2358C237.268 41.3763 237.343 41.5046 237.455 41.5938C249.951 51.6113 264.747 45.8645 270.814 41.5943C270.944 41.5026 271.025 41.3642 271.048 41.2064L271.743 36.3372C271.808 35.882 271.343 35.5324 270.918 35.7088Z" fill="url(#paint37_linear_10044_13262)"/>
</mask>
<g mask="url(#mask8_10044_13262)">
<path opacity="0.7" d="M273.653 34.999C257.52 44.6786 240.41 39.9854 235.228 35.5855L236.694 35.5855C255.174 44.3853 271.893 34.119 273.653 34.999Z" fill="url(#paint38_linear_10044_13262)"/>
</g>
<g filter="url(#filter14_ii_10044_13262)">
<circle cx="254.294" cy="9.77258" r="2.93323" fill="url(#paint39_linear_10044_13262)"/>
</g>
<g filter="url(#filter15_f_10044_13262)">
<ellipse cx="255.174" cy="9.18653" rx="0.835969" ry="1.11463" transform="rotate(42 255.174 9.18653)" fill="#FFFDE7" fill-opacity="0.92"/>
</g>
<g filter="url(#filter16_ii_10044_13262)">
<circle cx="273.654" cy="17.9892" r="2.34658" fill="url(#paint40_linear_10044_13262)"/>
</g>
<g filter="url(#filter17_f_10044_13262)">
<ellipse cx="274.358" cy="17.5198" rx="0.668776" ry="0.891701" transform="rotate(42 274.358 17.5198)" fill="#FFFDE7" fill-opacity="0.92"/>
</g>
<g filter="url(#filter18_ii_10044_13262)">
<circle cx="234.347" cy="17.9892" r="2.34658" fill="url(#paint41_linear_10044_13262)"/>
</g>
<g filter="url(#filter19_f_10044_13262)">
<ellipse cx="235.05" cy="17.5198" rx="0.668776" ry="0.891701" transform="rotate(42 235.05 17.5198)" fill="#FFFDE7" fill-opacity="0.92"/>
</g>
</g>
<g filter="url(#filter20_di_10044_13262)">
<path d="M204.448 29.4091C203.218 28.0562 203.188 25 201.929 25C200.669 25 200.639 28.0562 199.409 29.4091C198.179 30.762 195 30.6688 195 31.9286C195 33.1883 198.179 33.0952 199.409 34.4481C200.639 35.8009 200.669 38.8571 201.929 38.8571C203.188 38.8571 203.218 35.8009 204.448 34.4481C205.678 33.0952 208.857 33.1883 208.857 31.9286C208.857 30.6688 205.678 30.762 204.448 29.4091Z" fill="url(#paint42_linear_10044_13262)"/>
</g>
<g filter="url(#filter21_di_10044_13262)">
<path d="M294.558 19.5273C293.575 18.445 293.551 16 292.543 16C291.535 16 291.511 18.445 290.527 19.5273C289.543 20.6096 287 20.5351 287 21.5429C287 22.5507 289.543 22.4761 290.527 23.5584C291.511 24.6408 291.535 27.0857 292.543 27.0857C293.551 27.0857 293.575 24.6408 294.558 23.5584C295.542 22.4761 298.086 22.5507 298.086 21.5429C298.086 20.5351 295.542 20.6096 294.558 19.5273Z" fill="url(#paint43_linear_10044_13262)"/>
</g>
<g filter="url(#filter22_di_10044_13262)">
<path d="M273.669 5.64545C272.931 4.83372 272.913 3 272.157 3C271.401 3 271.383 4.83372 270.645 5.64545C269.907 6.45719 268 6.4013 268 7.15714C268 7.91299 269.907 7.8571 270.645 8.66883C271.383 9.48056 271.401 11.3143 272.157 11.3143C272.913 11.3143 272.931 9.48056 273.669 8.66883C274.407 7.8571 276.314 7.91299 276.314 7.15714C276.314 6.4013 274.407 6.45719 273.669 5.64545Z" fill="url(#paint44_linear_10044_13262)"/>
</g>
<rect width="117.421" height="29.9218" transform="matrix(-1 0 0 1 312.669 81.3906)" fill="url(#paint45_linear_10044_13262)"/>
<g filter="url(#filter23_d_10044_13262)">
<path d="M51.488 21.456L44.32 41H39.56L32.392 21.456H36.592L41.968 36.996L47.316 21.456H51.488ZM57.7583 21.456V41H53.8383V21.456H57.7583ZM75.8832 27.504C75.8832 28.5493 75.6312 29.5293 75.1272 30.444C74.6419 31.3587 73.8672 32.096 72.8032 32.656C71.7579 33.216 70.4326 33.496 68.8272 33.496H65.5512V41H61.6312V21.456H68.8272C70.3392 21.456 71.6272 21.7173 72.6912 22.24C73.7552 22.7627 74.5486 23.4813 75.0712 24.396C75.6126 25.3107 75.8832 26.3467 75.8832 27.504ZM68.6592 30.332C69.7419 30.332 70.5446 30.0893 71.0672 29.604C71.5899 29.1 71.8512 28.4 71.8512 27.504C71.8512 25.6 70.7872 24.648 68.6592 24.648H65.5512V30.332H68.6592ZM37.852 58.728C38.356 58.0187 39.0467 57.4307 39.924 56.964C40.82 56.4787 41.8373 56.236 42.976 56.236C44.3013 56.236 45.496 56.5627 46.56 57.216C47.6427 57.8693 48.492 58.8027 49.108 60.016C49.7427 61.2107 50.06 62.6013 50.06 64.188C50.06 65.7747 49.7427 67.184 49.108 68.416C48.492 69.6293 47.6427 70.572 46.56 71.244C45.496 71.916 44.3013 72.252 42.976 72.252C41.8373 72.252 40.8293 72.0187 39.952 71.552C39.0933 71.0853 38.3933 70.4973 37.852 69.788V79.392H33.932V56.488H37.852V58.728ZM46.056 64.188C46.056 63.2547 45.86 62.452 45.468 61.78C45.0947 61.0893 44.5907 60.5667 43.956 60.212C43.34 59.8573 42.668 59.68 41.94 59.68C41.2307 59.68 40.5587 59.8667 39.924 60.24C39.308 60.5947 38.804 61.1173 38.412 61.808C38.0387 62.4987 37.852 63.3107 37.852 64.244C37.852 65.1773 38.0387 65.9893 38.412 66.68C38.804 67.3707 39.308 67.9027 39.924 68.276C40.5587 68.6307 41.2307 68.808 41.94 68.808C42.668 68.808 43.34 68.6213 43.956 68.248C44.5907 67.8747 45.0947 67.3427 45.468 66.652C45.86 65.9613 46.056 65.14 46.056 64.188ZM56.8286 58.896C57.3326 58.0747 57.9859 57.4307 58.7886 56.964C59.6099 56.4973 60.5432 56.264 61.5886 56.264V60.38H60.5526C59.3206 60.38 58.3872 60.6693 57.7526 61.248C57.1366 61.8267 56.8286 62.8347 56.8286 64.272V72H52.9086V56.488H56.8286V58.896ZM66.2169 54.64C65.5262 54.64 64.9475 54.4253 64.4809 53.996C64.0329 53.548 63.8089 52.9973 63.8089 52.344C63.8089 51.6907 64.0329 51.1493 64.4809 50.72C64.9475 50.272 65.5262 50.048 66.2169 50.048C66.9075 50.048 67.4769 50.272 67.9249 50.72C68.3915 51.1493 68.6249 51.6907 68.6249 52.344C68.6249 52.9973 68.3915 53.548 67.9249 53.996C67.4769 54.4253 66.9075 54.64 66.2169 54.64ZM68.1489 56.488V72H64.2289V56.488H68.1489ZM78.4898 68.388L82.4098 56.488H86.5818L80.8418 72H76.0818L70.3698 56.488H74.5698L78.4898 68.388ZM90.7716 54.64C90.0809 54.64 89.5022 54.4253 89.0356 53.996C88.5876 53.548 88.3636 52.9973 88.3636 52.344C88.3636 51.6907 88.5876 51.1493 89.0356 50.72C89.5022 50.272 90.0809 50.048 90.7716 50.048C91.4622 50.048 92.0316 50.272 92.4796 50.72C92.9462 51.1493 93.1796 51.6907 93.1796 52.344C93.1796 52.9973 92.9462 53.548 92.4796 53.996C92.0316 54.4253 91.4622 54.64 90.7716 54.64ZM92.7036 56.488V72H88.7836V56.488H92.7036ZM100.497 51.28V72H96.5765V51.28H100.497ZM118.79 63.908C118.79 64.468 118.752 64.972 118.678 65.42H107.338C107.431 66.54 107.823 67.4173 108.514 68.052C109.204 68.6867 110.054 69.004 111.062 69.004C112.518 69.004 113.554 68.3787 114.17 67.128H118.398C117.95 68.6213 117.091 69.8533 115.822 70.824C114.552 71.776 112.994 72.252 111.146 72.252C109.652 72.252 108.308 71.9253 107.114 71.272C105.938 70.6 105.014 69.6573 104.342 68.444C103.688 67.2307 103.361 65.8307 103.361 64.244C103.361 62.6387 103.688 61.2293 104.342 60.016C104.995 58.8027 105.91 57.8693 107.086 57.216C108.262 56.5627 109.615 56.236 111.146 56.236C112.62 56.236 113.936 56.5533 115.094 57.188C116.27 57.8227 117.175 58.728 117.81 59.904C118.463 61.0613 118.79 62.396 118.79 63.908ZM114.73 62.788C114.711 61.78 114.347 60.9773 113.638 60.38C112.928 59.764 112.06 59.456 111.034 59.456C110.063 59.456 109.242 59.7547 108.57 60.352C107.916 60.9307 107.515 61.7427 107.366 62.788H114.73ZM127.727 56.236C128.884 56.236 129.901 56.4693 130.779 56.936C131.656 57.384 132.347 57.972 132.851 58.7V56.488H136.799V72.112C136.799 73.5493 136.509 74.828 135.931 75.948C135.352 77.0867 134.484 77.9827 133.327 78.636C132.169 79.308 130.769 79.644 129.127 79.644C126.924 79.644 125.113 79.1307 123.695 78.104C122.295 77.0773 121.501 75.6773 121.315 73.904H125.207C125.412 74.6133 125.851 75.1733 126.523 75.584C127.213 76.0133 128.044 76.228 129.015 76.228C130.153 76.228 131.077 75.8827 131.787 75.192C132.496 74.52 132.851 73.4933 132.851 72.112V69.704C132.347 70.432 131.647 71.0387 130.751 71.524C129.873 72.0093 128.865 72.252 127.727 72.252C126.42 72.252 125.225 71.916 124.143 71.244C123.06 70.572 122.201 69.6293 121.567 68.416C120.951 67.184 120.643 65.7747 120.643 64.188C120.643 62.62 120.951 61.2293 121.567 60.016C122.201 58.8027 123.051 57.8693 124.115 57.216C125.197 56.5627 126.401 56.236 127.727 56.236ZM132.851 64.244C132.851 63.292 132.664 62.48 132.291 61.808C131.917 61.1173 131.413 60.5947 130.779 60.24C130.144 59.8667 129.463 59.68 128.735 59.68C128.007 59.68 127.335 59.8573 126.719 60.212C126.103 60.5667 125.599 61.0893 125.207 61.78C124.833 62.452 124.647 63.2547 124.647 64.188C124.647 65.1213 124.833 65.9427 125.207 66.652C125.599 67.3427 126.103 67.8747 126.719 68.248C127.353 68.6213 128.025 68.808 128.735 68.808C129.463 68.808 130.144 68.6307 130.779 68.276C131.413 67.9027 131.917 67.38 132.291 66.708C132.664 66.0173 132.851 65.196 132.851 64.244ZM155.047 63.908C155.047 64.468 155.01 64.972 154.935 65.42H143.595C143.689 66.54 144.081 67.4173 144.771 68.052C145.462 68.6867 146.311 69.004 147.319 69.004C148.775 69.004 149.811 68.3787 150.427 67.128H154.655C154.207 68.6213 153.349 69.8533 152.079 70.824C150.81 71.776 149.251 72.252 147.403 72.252C145.91 72.252 144.566 71.9253 143.371 71.272C142.195 70.6 141.271 69.6573 140.599 68.444C139.946 67.2307 139.619 65.8307 139.619 64.244C139.619 62.6387 139.946 61.2293 140.599 60.016C141.253 58.8027 142.167 57.8693 143.343 57.216C144.519 56.5627 145.873 56.236 147.403 56.236C148.878 56.236 150.194 56.5533 151.351 57.188C152.527 57.8227 153.433 58.728 154.067 59.904C154.721 61.0613 155.047 62.396 155.047 63.908ZM150.987 62.788C150.969 61.78 150.605 60.9773 149.895 60.38C149.186 59.764 148.318 59.456 147.291 59.456C146.321 59.456 145.499 59.7547 144.827 60.352C144.174 60.9307 143.773 61.7427 143.623 62.788H150.987ZM163.845 72.252C162.575 72.252 161.437 72.028 160.429 71.58C159.421 71.1133 158.618 70.488 158.021 69.704C157.442 68.92 157.125 68.052 157.069 67.1H161.017C161.091 67.6973 161.381 68.192 161.885 68.584C162.407 68.976 163.051 69.172 163.817 69.172C164.563 69.172 165.142 69.0227 165.553 68.724C165.982 68.4253 166.197 68.0427 166.197 67.576C166.197 67.072 165.935 66.6987 165.413 66.456C164.909 66.1947 164.097 65.9147 162.977 65.616C161.819 65.336 160.867 65.0467 160.121 64.748C159.393 64.4493 158.758 63.992 158.217 63.376C157.694 62.76 157.433 61.9293 157.433 60.884C157.433 60.0253 157.675 59.2413 158.161 58.532C158.665 57.8227 159.374 57.2627 160.289 56.852C161.222 56.4413 162.314 56.236 163.565 56.236C165.413 56.236 166.887 56.7027 167.989 57.636C169.09 58.5507 169.697 59.792 169.809 61.36H166.057C166.001 60.744 165.739 60.2587 165.273 59.904C164.825 59.5307 164.218 59.344 163.453 59.344C162.743 59.344 162.193 59.4747 161.801 59.736C161.427 59.9973 161.241 60.3613 161.241 60.828C161.241 61.3507 161.502 61.752 162.025 62.032C162.547 62.2933 163.359 62.564 164.461 62.844C165.581 63.124 166.505 63.4133 167.233 63.712C167.961 64.0107 168.586 64.4773 169.109 65.112C169.65 65.728 169.93 66.5493 169.949 67.576C169.949 68.472 169.697 69.2747 169.193 69.984C168.707 70.6933 167.998 71.2533 167.065 71.664C166.15 72.056 165.077 72.252 163.845 72.252Z" fill="white"/>
</g>
</g>
<defs>
<filter id="filter0_d_10044_13262" x="175.538" y="13.8462" width="156.923" height="140.923" filterUnits="userSpaceOnUse" color-interpolation-filters="sRGB">
<feFlood flood-opacity="0" result="BackgroundImageFix"/>
<feColorMatrix in="SourceAlpha" type="matrix" values="0 0 0 0 0 0 0 0 0 0 0 0 0 0 0 0 0 0 127 0" result="hardAlpha"/>
<feOffset dy="2.30769"/>
<feGaussianBlur stdDeviation="9.23077"/>
<feComposite in2="hardAlpha" operator="out"/>
<feColorMatrix type="matrix" values="0 0 0 0 0.0313726 0 0 0 0 0.205359 0 0 0 0 0.505882 0 0 0 0.35 0"/>
<feBlend mode="normal" in2="BackgroundImageFix" result="effect1_dropShadow_10044_13262"/>
<feBlend mode="normal" in="SourceGraphic" in2="effect1_dropShadow_10044_13262" result="shape"/>
</filter>
<filter id="filter1_f_10044_13262" x="231.789" y="83.0252" width="45.5586" height="50.3367" filterUnits="userSpaceOnUse" color-interpolation-filters="sRGB">
<feFlood flood-opacity="0" result="BackgroundImageFix"/>
<feBlend mode="normal" in="SourceGraphic" in2="BackgroundImageFix" result="shape"/>
<feGaussianBlur stdDeviation="0.255444" result="effect1_foregroundBlur_10044_13262"/>
</filter>
<filter id="filter2_i_10044_13262" x="220.525" y="58.1192" width="66.9309" height="17.9242" filterUnits="userSpaceOnUse" color-interpolation-filters="sRGB">
<feFlood flood-opacity="0" result="BackgroundImageFix"/>
<feBlend mode="normal" in="SourceGraphic" in2="BackgroundImageFix" result="shape"/>
<feColorMatrix in="SourceAlpha" type="matrix" values="0 0 0 0 0 0 0 0 0 0 0 0 0 0 0 0 0 0 127 0" result="hardAlpha"/>
<feOffset dy="-0.85148"/>
<feGaussianBlur stdDeviation="0.85148"/>
<feComposite in2="hardAlpha" operator="arithmetic" k2="-1" k3="1"/>
<feColorMatrix type="matrix" values="0 0 0 0 1 0 0 0 0 0.975025 0 0 0 0 0.375635 0 0 0 0.85 0"/>
<feBlend mode="normal" in2="shape" result="effect1_innerShadow_10044_13262"/>
</filter>
<filter id="filter3_ii_10044_13262" x="286.541" y="53.4532" width="27.464" height="24.3513" filterUnits="userSpaceOnUse" color-interpolation-filters="sRGB">
<feFlood flood-opacity="0" result="BackgroundImageFix"/>
<feBlend mode="normal" in="SourceGraphic" in2="BackgroundImageFix" result="shape"/>
<feColorMatrix in="SourceAlpha" type="matrix" values="0 0 0 0 0 0 0 0 0 0 0 0 0 0 0 0 0 0 127 0" result="hardAlpha"/>
<feOffset dx="-0.85148" dy="1.70296"/>
<feGaussianBlur stdDeviation="0.85148"/>
<feComposite in2="hardAlpha" operator="arithmetic" k2="-1" k3="1"/>
<feColorMatrix type="matrix" values="0 0 0 0 1 0 0 0 0 0.752941 0 0 0 0 0.231373 0 0 0 0.45 0"/>
<feBlend mode="normal" in2="shape" result="effect1_innerShadow_10044_13262"/>
<feColorMatrix in="SourceAlpha" type="matrix" values="0 0 0 0 0 0 0 0 0 0 0 0 0 0 0 0 0 0 127 0" result="hardAlpha"/>
<feOffset dy="-0.85148"/>
<feGaussianBlur stdDeviation="0.85148"/>
<feComposite in2="hardAlpha" operator="arithmetic" k2="-1" k3="1"/>
<feColorMatrix type="matrix" values="0 0 0 0 1 0 0 0 0 0.97744 0 0 0 0 0.436003 0 0 0 1 0"/>
<feBlend mode="normal" in2="effect1_innerShadow_10044_13262" result="effect2_innerShadow_10044_13262"/>
</filter>
<filter id="filter4_ii_10044_13262" x="192.941" y="52.4112" width="27.6574" height="25.4148" filterUnits="userSpaceOnUse" color-interpolation-filters="sRGB">
<feFlood flood-opacity="0" result="BackgroundImageFix"/>
<feBlend mode="normal" in="SourceGraphic" in2="BackgroundImageFix" result="shape"/>
<feColorMatrix in="SourceAlpha" type="matrix" values="0 0 0 0 0 0 0 0 0 0 0 0 0 0 0 0 0 0 127 0" result="hardAlpha"/>
<feOffset dx="-0.85148" dy="1.70296"/>
<feGaussianBlur stdDeviation="0.85148"/>
<feComposite in2="hardAlpha" operator="arithmetic" k2="-1" k3="1"/>
<feColorMatrix type="matrix" values="0 0 0 0 1 0 0 0 0 0.752941 0 0 0 0 0.231373 0 0 0 0.45 0"/>
<feBlend mode="normal" in2="shape" result="effect1_innerShadow_10044_13262"/>
<feColorMatrix in="SourceAlpha" type="matrix" values="0 0 0 0 0 0 0 0 0 0 0 0 0 0 0 0 0 0 127 0" result="hardAlpha"/>
<feOffset dy="-0.85148"/>
<feGaussianBlur stdDeviation="0.85148"/>
<feComposite in2="hardAlpha" operator="arithmetic" k2="-1" k3="1"/>
<feColorMatrix type="matrix" values="0 0 0 0 1 0 0 0 0 0.97744 0 0 0 0 0.436003 0 0 0 1 0"/>
<feBlend mode="normal" in2="effect1_innerShadow_10044_13262" result="effect2_innerShadow_10044_13262"/>
</filter>
<filter id="filter5_i_10044_13262" x="232.389" y="37.6671" width="45.4204" height="11.2279" filterUnits="userSpaceOnUse" color-interpolation-filters="sRGB">
<feFlood flood-opacity="0" result="BackgroundImageFix"/>
<feBlend mode="normal" in="SourceGraphic" in2="BackgroundImageFix" result="shape"/>
<feColorMatrix in="SourceAlpha" type="matrix" values="0 0 0 0 0 0 0 0 0 0 0 0 0 0 0 0 0 0 127 0" result="hardAlpha"/>
<feOffset dy="-0.85148"/>
<feGaussianBlur stdDeviation="0.85148"/>
<feComposite in2="hardAlpha" operator="arithmetic" k2="-1" k3="1"/>
<feColorMatrix type="matrix" values="0 0 0 0 0.96276 0 0 0 0 0.536288 0 0 0 0 0.133508 0 0 0 0.5 0"/>
<feBlend mode="normal" in2="shape" result="effect1_innerShadow_10044_13262"/>
</filter>
<filter id="filter6_i_10044_13262" x="232.571" y="29.9956" width="44.5715" height="10.2259" filterUnits="userSpaceOnUse" color-interpolation-filters="sRGB">
<feFlood flood-opacity="0" result="BackgroundImageFix"/>
<feBlend mode="normal" in="SourceGraphic" in2="BackgroundImageFix" result="shape"/>
<feColorMatrix in="SourceAlpha" type="matrix" values="0 0 0 0 0 0 0 0 0 0 0 0 0 0 0 0 0 0 127 0" result="hardAlpha"/>
<feOffset dy="1.70296"/>
<feGaussianBlur stdDeviation="0.85148"/>
<feComposite in2="hardAlpha" operator="arithmetic" k2="-1" k3="1"/>
<feColorMatrix type="matrix" values="0 0 0 0 1 0 0 0 0 0.995822 0 0 0 0 0.945687 0 0 0 1 0"/>
<feBlend mode="normal" in2="shape" result="effect1_innerShadow_10044_13262"/>
</filter>
<filter id="filter7_d_10044_13262" x="229.654" y="6.25271" width="48.6934" height="44.7312" filterUnits="userSpaceOnUse" color-interpolation-filters="sRGB">
<feFlood flood-opacity="0" result="BackgroundImageFix"/>
<feColorMatrix in="SourceAlpha" type="matrix" values="0 0 0 0 0 0 0 0 0 0 0 0 0 0 0 0 0 0 127 0" result="hardAlpha"/>
<feOffset dy="1.75994"/>
<feGaussianBlur stdDeviation="1.17329"/>
<feComposite in2="hardAlpha" operator="out"/>
<feColorMatrix type="matrix" values="0 0 0 0 0.817074 0 0 0 0 0.557113 0 0 0 0 0.0433804 0 0 0 0.2 0"/>
<feBlend mode="normal" in2="BackgroundImageFix" result="effect1_dropShadow_10044_13262"/>
<feBlend mode="normal" in="SourceGraphic" in2="effect1_dropShadow_10044_13262" result="shape"/>
</filter>
<filter id="filter8_i_10044_13262" x="241.093" y="17.3999" width="25.519" height="9.38623" filterUnits="userSpaceOnUse" color-interpolation-filters="sRGB">
<feFlood flood-opacity="0" result="BackgroundImageFix"/>
<feBlend mode="normal" in="SourceGraphic" in2="BackgroundImageFix" result="shape"/>
<feColorMatrix in="SourceAlpha" type="matrix" values="0 0 0 0 0 0 0 0 0 0 0 0 0 0 0 0 0 0 127 0" result="hardAlpha"/>
<feOffset dy="0.879968"/>
<feComposite in2="hardAlpha" operator="arithmetic" k2="-1" k3="1"/>
<feColorMatrix type="matrix" values="0 0 0 0 1 0 0 0 0 0.99189 0 0 0 0 0.840511 0 0 0 0.3 0"/>
<feBlend mode="normal" in2="shape" result="effect1_innerShadow_10044_13262"/>
</filter>
<filter id="filter9_ii_10044_13262" x="234.346" y="9.36034" width="39.3052" height="35.3288" filterUnits="userSpaceOnUse" color-interpolation-filters="sRGB">
<feFlood flood-opacity="0" result="BackgroundImageFix"/>
<feBlend mode="normal" in="SourceGraphic" in2="BackgroundImageFix" result="shape"/>
<feColorMatrix in="SourceAlpha" type="matrix" values="0 0 0 0 0 0 0 0 0 0 0 0 0 0 0 0 0 0 127 0" result="hardAlpha"/>
<feOffset dy="-4.10652"/>
<feGaussianBlur stdDeviation="0.205326"/>
<feComposite in2="hardAlpha" operator="arithmetic" k2="-1" k3="1"/>
<feColorMatrix type="matrix" values="0 0 0 0 1 0 0 0 0 0.929412 0 0 0 0 0.670588 0 0 0 1 0"/>
<feBlend mode="normal" in2="shape" result="effect1_innerShadow_10044_13262"/>
<feColorMatrix in="SourceAlpha" type="matrix" values="0 0 0 0 0 0 0 0 0 0 0 0 0 0 0 0 0 0 127 0" result="hardAlpha"/>
<feOffset dy="2.34658"/>
<feGaussianBlur stdDeviation="0.879968"/>
<feComposite in2="hardAlpha" operator="arithmetic" k2="-1" k3="1"/>
<feColorMatrix type="matrix" values="0 0 0 0 1 0 0 0 0 0.979685 0 0 0 0 0.845101 0 0 0 1 0"/>
<feBlend mode="normal" in2="effect1_innerShadow_10044_13262" result="effect2_innerShadow_10044_13262"/>
</filter>
<filter id="filter10_i_10044_13262" x="232" y="18.8647" width="13.4928" height="6.58301" filterUnits="userSpaceOnUse" color-interpolation-filters="sRGB">
<feFlood flood-opacity="0" result="BackgroundImageFix"/>
<feBlend mode="normal" in="SourceGraphic" in2="BackgroundImageFix" result="shape"/>
<feColorMatrix in="SourceAlpha" type="matrix" values="0 0 0 0 0 0 0 0 0 0 0 0 0 0 0 0 0 0 127 0" result="hardAlpha"/>
<feOffset dx="-1.75994"/>
<feGaussianBlur stdDeviation="1.02663"/>
<feComposite in2="hardAlpha" operator="arithmetic" k2="-1" k3="1"/>
<feColorMatrix type="matrix" values="0 0 0 0 1 0 0 0 0 0.740987 0 0 0 0 0.367269 0 0 0 1 0"/>
<feBlend mode="normal" in2="shape" result="effect1_innerShadow_10044_13262"/>
</filter>
<filter id="filter11_i_10044_13262" x="261.625" y="18.8647" width="12.9062" height="6.58301" filterUnits="userSpaceOnUse" color-interpolation-filters="sRGB">
<feFlood flood-opacity="0" result="BackgroundImageFix"/>
<feBlend mode="normal" in="SourceGraphic" in2="BackgroundImageFix" result="shape"/>
<feColorMatrix in="SourceAlpha" type="matrix" values="0 0 0 0 0 0 0 0 0 0 0 0 0 0 0 0 0 0 127 0" result="hardAlpha"/>
<feOffset dx="1.75994"/>
<feGaussianBlur stdDeviation="1.02663"/>
<feComposite in2="hardAlpha" operator="arithmetic" k2="-1" k3="1"/>
<feColorMatrix type="matrix" values="0 0 0 0 1 0 0 0 0 0.724703 0 0 0 0 0.32749 0 0 0 1 0"/>
<feBlend mode="normal" in2="shape" result="effect1_innerShadow_10044_13262"/>
</filter>
<filter id="filter12_d_10044_13262" x="247.439" y="26.8481" width="12.0626" height="10.1026" filterUnits="userSpaceOnUse" color-interpolation-filters="sRGB">
<feFlood flood-opacity="0" result="BackgroundImageFix"/>
<feColorMatrix in="SourceAlpha" type="matrix" values="0 0 0 0 0 0 0 0 0 0 0 0 0 0 0 0 0 0 127 0" result="hardAlpha"/>
<feOffset dx="-0.469316" dy="0.469316"/>
<feComposite in2="hardAlpha" operator="out"/>
<feColorMatrix type="matrix" values="0 0 0 0 1 0 0 0 0 0.917647 0 0 0 0 0.654902 0 0 0 1 0"/>
<feBlend mode="normal" in2="BackgroundImageFix" result="effect1_dropShadow_10044_13262"/>
<feBlend mode="normal" in="SourceGraphic" in2="effect1_dropShadow_10044_13262" result="shape"/>
</filter>
<filter id="filter13_i_10044_13262" x="248.509" y="29.3573" width="8.2688" height="7.43177" filterUnits="userSpaceOnUse" color-interpolation-filters="sRGB">
<feFlood flood-opacity="0" result="BackgroundImageFix"/>
<feBlend mode="normal" in="SourceGraphic" in2="BackgroundImageFix" result="shape"/>
<feColorMatrix in="SourceAlpha" type="matrix" values="0 0 0 0 0 0 0 0 0 0 0 0 0 0 0 0 0 0 127 0" result="hardAlpha"/>
<feOffset dy="-0.938632"/>
<feGaussianBlur stdDeviation="0.258124"/>
<feComposite in2="hardAlpha" operator="arithmetic" k2="-1" k3="1"/>
<feColorMatrix type="matrix" values="0 0 0 0 0.440592 0 0 0 0 0.748267 0 0 0 0 1 0 0 0 0.25 0"/>
<feBlend mode="normal" in2="shape" result="effect1_innerShadow_10044_13262"/>
</filter>
<filter id="filter14_ii_10044_13262" x="250.774" y="6.83936" width="6.74642" height="6.45286" filterUnits="userSpaceOnUse" color-interpolation-filters="sRGB">
<feFlood flood-opacity="0" result="BackgroundImageFix"/>
<feBlend mode="normal" in="SourceGraphic" in2="BackgroundImageFix" result="shape"/>
<feColorMatrix in="SourceAlpha" type="matrix" values="0 0 0 0 0 0 0 0 0 0 0 0 0 0 0 0 0 0 127 0" result="hardAlpha"/>
<feOffset dx="-0.586645" dy="0.586645"/>
<feGaussianBlur stdDeviation="0.674642"/>
<feComposite in2="hardAlpha" operator="arithmetic" k2="-1" k3="1"/>
<feColorMatrix type="matrix" values="0 0 0 0 1 0 0 0 0 0.942801 0 0 0 0 0.626302 0 0 0 1 0"/>
<feBlend mode="normal" in2="shape" result="effect1_innerShadow_10044_13262"/>
<feColorMatrix in="SourceAlpha" type="matrix" values="0 0 0 0 0 0 0 0 0 0 0 0 0 0 0 0 0 0 127 0" result="hardAlpha"/>
<feOffset dx="0.293323"/>
<feGaussianBlur stdDeviation="0.146661"/>
<feComposite in2="hardAlpha" operator="arithmetic" k2="-1" k3="1"/>
<feColorMatrix type="matrix" values="0 0 0 0 0.980392 0 0 0 0 0.952941 0 0 0 0 0.639216 0 0 0 0.48 0"/>
<feBlend mode="normal" in2="effect1_innerShadow_10044_13262" result="effect2_innerShadow_10044_13262"/>
</filter>
<filter id="filter15_f_10044_13262" x="253.088" y="7.07239" width="4.17066" height="4.22827" filterUnits="userSpaceOnUse" color-interpolation-filters="sRGB">
<feFlood flood-opacity="0" result="BackgroundImageFix"/>
<feBlend mode="normal" in="SourceGraphic" in2="BackgroundImageFix" result="shape"/>
<feGaussianBlur stdDeviation="0.557312" result="effect1_foregroundBlur_10044_13262"/>
</filter>
<filter id="filter16_ii_10044_13262" x="270.838" y="15.6426" width="5.39709" height="5.16268" filterUnits="userSpaceOnUse" color-interpolation-filters="sRGB">
<feFlood flood-opacity="0" result="BackgroundImageFix"/>
<feBlend mode="normal" in="SourceGraphic" in2="BackgroundImageFix" result="shape"/>
<feColorMatrix in="SourceAlpha" type="matrix" values="0 0 0 0 0 0 0 0 0 0 0 0 0 0 0 0 0 0 127 0" result="hardAlpha"/>
<feOffset dx="-0.469316" dy="0.469316"/>
<feGaussianBlur stdDeviation="0.539714"/>
<feComposite in2="hardAlpha" operator="arithmetic" k2="-1" k3="1"/>
<feColorMatrix type="matrix" values="0 0 0 0 1 0 0 0 0 0.942801 0 0 0 0 0.626302 0 0 0 1 0"/>
<feBlend mode="normal" in2="shape" result="effect1_innerShadow_10044_13262"/>
<feColorMatrix in="SourceAlpha" type="matrix" values="0 0 0 0 0 0 0 0 0 0 0 0 0 0 0 0 0 0 127 0" result="hardAlpha"/>
<feOffset dx="0.234658"/>
<feGaussianBlur stdDeviation="0.117329"/>
<feComposite in2="hardAlpha" operator="arithmetic" k2="-1" k3="1"/>
<feColorMatrix type="matrix" values="0 0 0 0 0.980392 0 0 0 0 0.952941 0 0 0 0 0.639216 0 0 0 0.48 0"/>
<feBlend mode="normal" in2="effect1_innerShadow_10044_13262" result="effect2_innerShadow_10044_13262"/>
</filter>
<filter id="filter17_f_10044_13262" x="272.689" y="15.8285" width="3.33662" height="3.38252" filterUnits="userSpaceOnUse" color-interpolation-filters="sRGB">
<feFlood flood-opacity="0" result="BackgroundImageFix"/>
<feBlend mode="normal" in="SourceGraphic" in2="BackgroundImageFix" result="shape"/>
<feGaussianBlur stdDeviation="0.44585" result="effect1_foregroundBlur_10044_13262"/>
</filter>
<filter id="filter18_ii_10044_13262" x="231.531" y="15.6426" width="5.39709" height="5.16268" filterUnits="userSpaceOnUse" color-interpolation-filters="sRGB">
<feFlood flood-opacity="0" result="BackgroundImageFix"/>
<feBlend mode="normal" in="SourceGraphic" in2="BackgroundImageFix" result="shape"/>
<feColorMatrix in="SourceAlpha" type="matrix" values="0 0 0 0 0 0 0 0 0 0 0 0 0 0 0 0 0 0 127 0" result="hardAlpha"/>
<feOffset dx="-0.469316" dy="0.469316"/>
<feGaussianBlur stdDeviation="0.539714"/>
<feComposite in2="hardAlpha" operator="arithmetic" k2="-1" k3="1"/>
<feColorMatrix type="matrix" values="0 0 0 0 1 0 0 0 0 0.942801 0 0 0 0 0.626302 0 0 0 1 0"/>
<feBlend mode="normal" in2="shape" result="effect1_innerShadow_10044_13262"/>
<feColorMatrix in="SourceAlpha" type="matrix" values="0 0 0 0 0 0 0 0 0 0 0 0 0 0 0 0 0 0 127 0" result="hardAlpha"/>
<feOffset dx="0.234658"/>
<feGaussianBlur stdDeviation="0.117329"/>
<feComposite in2="hardAlpha" operator="arithmetic" k2="-1" k3="1"/>
<feColorMatrix type="matrix" values="0 0 0 0 0.980392 0 0 0 0 0.952941 0 0 0 0 0.639216 0 0 0 0.48 0"/>
<feBlend mode="normal" in2="effect1_innerShadow_10044_13262" result="effect2_innerShadow_10044_13262"/>
</filter>
<filter id="filter19_f_10044_13262" x="233.382" y="15.8285" width="3.33662" height="3.38252" filterUnits="userSpaceOnUse" color-interpolation-filters="sRGB">
<feFlood flood-opacity="0" result="BackgroundImageFix"/>
<feBlend mode="normal" in="SourceGraphic" in2="BackgroundImageFix" result="shape"/>
<feGaussianBlur stdDeviation="0.44585" result="effect1_foregroundBlur_10044_13262"/>
</filter>
<filter id="filter20_di_10044_13262" x="192.447" y="22.4474" width="24.0677" height="24.0675" filterUnits="userSpaceOnUse" color-interpolation-filters="sRGB">
<feFlood flood-opacity="0" result="BackgroundImageFix"/>
<feColorMatrix in="SourceAlpha" type="matrix" values="0 0 0 0 0 0 0 0 0 0 0 0 0 0 0 0 0 0 127 0" result="hardAlpha"/>
<feOffset dx="2.55263" dy="2.55263"/>
<feGaussianBlur stdDeviation="2.55263"/>
<feComposite in2="hardAlpha" operator="out"/>
<feColorMatrix type="matrix" values="0 0 0 0 0.0583019 0 0 0 0 0.381305 0 0 0 0 0.803695 0 0 0 0.38 0"/>
<feBlend mode="normal" in2="BackgroundImageFix" result="effect1_dropShadow_10044_13262"/>
<feBlend mode="normal" in="SourceGraphic" in2="effect1_dropShadow_10044_13262" result="shape"/>
<feColorMatrix in="SourceAlpha" type="matrix" values="0 0 0 0 0 0 0 0 0 0 0 0 0 0 0 0 0 0 127 0" result="hardAlpha"/>
<feOffset dx="0.76579" dy="0.76579"/>
<feGaussianBlur stdDeviation="0.638158"/>
<feComposite in2="hardAlpha" operator="arithmetic" k2="-1" k3="1"/>
<feColorMatrix type="matrix" values="0 0 0 0 1 0 0 0 0 0.919944 0 0 0 0 0.636111 0 0 0 1 0"/>
<feBlend mode="normal" in2="shape" result="effect2_innerShadow_10044_13262"/>
</filter>
<filter id="filter21_di_10044_13262" x="284.447" y="13.4474" width="21.2962" height="21.2965" filterUnits="userSpaceOnUse" color-interpolation-filters="sRGB">
<feFlood flood-opacity="0" result="BackgroundImageFix"/>
<feColorMatrix in="SourceAlpha" type="matrix" values="0 0 0 0 0 0 0 0 0 0 0 0 0 0 0 0 0 0 127 0" result="hardAlpha"/>
<feOffset dx="2.55263" dy="2.55263"/>
<feGaussianBlur stdDeviation="2.55263"/>
<feComposite in2="hardAlpha" operator="out"/>
<feColorMatrix type="matrix" values="0 0 0 0 0.0583019 0 0 0 0 0.381305 0 0 0 0 0.803695 0 0 0 0.38 0"/>
<feBlend mode="normal" in2="BackgroundImageFix" result="effect1_dropShadow_10044_13262"/>
<feBlend mode="normal" in="SourceGraphic" in2="effect1_dropShadow_10044_13262" result="shape"/>
<feColorMatrix in="SourceAlpha" type="matrix" values="0 0 0 0 0 0 0 0 0 0 0 0 0 0 0 0 0 0 127 0" result="hardAlpha"/>
<feOffset dx="0.76579" dy="0.76579"/>
<feGaussianBlur stdDeviation="0.638158"/>
<feComposite in2="hardAlpha" operator="arithmetic" k2="-1" k3="1"/>
<feColorMatrix type="matrix" values="0 0 0 0 1 0 0 0 0 0.919944 0 0 0 0 0.636111 0 0 0 1 0"/>
<feBlend mode="normal" in2="shape" result="effect2_innerShadow_10044_13262"/>
</filter>
<filter id="filter22_di_10044_13262" x="265.447" y="0.447368" width="18.5247" height="18.525" filterUnits="userSpaceOnUse" color-interpolation-filters="sRGB">
<feFlood flood-opacity="0" result="BackgroundImageFix"/>
<feColorMatrix in="SourceAlpha" type="matrix" values="0 0 0 0 0 0 0 0 0 0 0 0 0 0 0 0 0 0 127 0" result="hardAlpha"/>
<feOffset dx="2.55263" dy="2.55263"/>
<feGaussianBlur stdDeviation="2.55263"/>
<feComposite in2="hardAlpha" operator="out"/>
<feColorMatrix type="matrix" values="0 0 0 0 0.0583019 0 0 0 0 0.381305 0 0 0 0 0.803695 0 0 0 0.38 0"/>
<feBlend mode="normal" in2="BackgroundImageFix" result="effect1_dropShadow_10044_13262"/>
<feBlend mode="normal" in="SourceGraphic" in2="effect1_dropShadow_10044_13262" result="shape"/>
<feColorMatrix in="SourceAlpha" type="matrix" values="0 0 0 0 0 0 0 0 0 0 0 0 0 0 0 0 0 0 127 0" result="hardAlpha"/>
<feOffset dx="0.76579" dy="0.76579"/>
<feGaussianBlur stdDeviation="0.638158"/>
<feComposite in2="hardAlpha" operator="arithmetic" k2="-1" k3="1"/>
<feColorMatrix type="matrix" values="0 0 0 0 1 0 0 0 0 0.919944 0 0 0 0 0.636111 0 0 0 1 0"/>
<feBlend mode="normal" in2="shape" result="effect2_innerShadow_10044_13262"/>
</filter>
<filter id="filter23_d_10044_13262" x="24.3921" y="15.4561" width="153.556" height="74.188" filterUnits="userSpaceOnUse" color-interpolation-filters="sRGB">
<feFlood flood-opacity="0" result="BackgroundImageFix"/>
<feColorMatrix in="SourceAlpha" type="matrix" values="0 0 0 0 0 0 0 0 0 0 0 0 0 0 0 0 0 0 127 0" result="hardAlpha"/>
<feOffset dy="2"/>
<feGaussianBlur stdDeviation="4"/>
<feComposite in2="hardAlpha" operator="out"/>
<feColorMatrix type="matrix" values="0 0 0 0 0.18786 0 0 0 0 0.544718 0 0 0 0 0.952555 0 0 0 1 0"/>
<feBlend mode="normal" in2="BackgroundImageFix" result="effect1_dropShadow_10044_13262"/>
<feBlend mode="normal" in="SourceGraphic" in2="effect1_dropShadow_10044_13262" result="shape"/>
</filter>
<linearGradient id="paint0_linear_10044_13262" x1="165.957" y1="1.0421e-07" x2="166.558" y2="98.0426" gradientUnits="userSpaceOnUse">
<stop stop-color="#3A6BFF"/>
<stop offset="1" stop-color="#34D9FA"/>
</linearGradient>
<linearGradient id="paint1_linear_10044_13262" x1="167.522" y1="-1.40833e-07" x2="168.129" y2="98.0426" gradientUnits="userSpaceOnUse">
<stop stop-color="#A83AFF"/>
<stop offset="1" stop-color="#F334FA"/>
</linearGradient>
<radialGradient id="paint2_radial_10044_13262" cx="0" cy="0" r="1" gradientUnits="userSpaceOnUse" gradientTransform="translate(252.814 38.6151) rotate(90) scale(88.3124 88.2534)">
<stop stop-color="#49B6FF" stop-opacity="0.63"/>
<stop offset="1" stop-color="#C2E7FF" stop-opacity="0"/>
</radialGradient>
<linearGradient id="paint3_linear_10044_13262" x1="131.818" y1="-0.818182" x2="97.4545" y2="33.5455" gradientUnits="userSpaceOnUse">
<stop stop-color="#22ADF3"/>
<stop offset="1" stop-color="#19A8EF"/>
</linearGradient>
<linearGradient id="paint4_linear_10044_13262" x1="342.091" y1="77.9091" x2="320.273" y2="99.7273" gradientUnits="userSpaceOnUse">
<stop stop-color="#65EDFF"/>
<stop offset="1" stop-color="#A9F5FF"/>
</linearGradient>
<linearGradient id="paint5_linear_10044_13262" x1="208.366" y1="66.9847" x2="249.785" y2="134.191" gradientUnits="userSpaceOnUse">
<stop stop-color="#FFBA2E"/>
<stop offset="1" stop-color="#FA6406"/>
</linearGradient>
<linearGradient id="paint6_linear_10044_13262" x1="299.634" y1="66.9847" x2="258.215" y2="134.191" gradientUnits="userSpaceOnUse">
<stop stop-color="#FFBA2E"/>
<stop offset="1" stop-color="#FA6406"/>
</linearGradient>
<linearGradient id="paint7_linear_10044_13262" x1="233.077" y1="75.1377" x2="253.778" y2="134.035" gradientUnits="userSpaceOnUse">
<stop stop-color="#FA7312"/>
<stop offset="1" stop-color="#FFE150"/>
</linearGradient>
<linearGradient id="paint8_linear_10044_13262" x1="274.953" y1="75.1377" x2="254.274" y2="134.062" gradientUnits="userSpaceOnUse">
<stop stop-color="#FA7312"/>
<stop offset="1" stop-color="#FFE150"/>
</linearGradient>
<linearGradient id="paint9_linear_10044_13262" x1="253.943" y1="75.6943" x2="253.943" y2="133.98" gradientUnits="userSpaceOnUse">
<stop stop-color="#FF8E26"/>
<stop offset="1" stop-color="#FFE145"/>
</linearGradient>
<linearGradient id="paint10_linear_10044_13262" x1="253.602" y1="84.2661" x2="253.602" y2="132.851" gradientUnits="userSpaceOnUse">
<stop stop-color="#FFD159" stop-opacity="0.15"/>
<stop offset="0.887252" stop-color="#FFF037" stop-opacity="0.85"/>
</linearGradient>
<linearGradient id="paint11_linear_10044_13262" x1="242.805" y1="53.7812" x2="273.865" y2="48.4997" gradientUnits="userSpaceOnUse">
<stop stop-color="#FFFDE9"/>
<stop offset="1" stop-color="#FEFEFD"/>
</linearGradient>
<linearGradient id="paint12_linear_10044_13262" x1="241.388" y1="53.4036" x2="220.685" y2="74.738" gradientUnits="userSpaceOnUse">
<stop stop-color="#FFF9CA"/>
<stop offset="1" stop-color="#FFFBA0"/>
</linearGradient>
<linearGradient id="paint13_linear_10044_13262" x1="283.37" y1="63.7371" x2="259.552" y2="58.6944" gradientUnits="userSpaceOnUse">
<stop stop-color="#FFF8CD"/>
<stop offset="1" stop-color="#FFE181"/>
</linearGradient>
<linearGradient id="paint14_linear_10044_13262" x1="220.623" y1="67.2065" x2="288.32" y2="67.2065" gradientUnits="userSpaceOnUse">
<stop stop-color="#FE7A1B"/>
<stop offset="1" stop-color="#FEF073"/>
</linearGradient>
<linearGradient id="paint15_linear_10044_13262" x1="287.676" y1="44.0318" x2="292.529" y2="54.5016" gradientUnits="userSpaceOnUse">
<stop offset="0.0796308" stop-color="#FFEE9D"/>
<stop offset="1" stop-color="#FEE765"/>
</linearGradient>
<linearGradient id="paint16_linear_10044_13262" x1="294.614" y1="54.5677" x2="282.186" y2="61.4524" gradientUnits="userSpaceOnUse">
<stop stop-color="#FBE792"/>
<stop offset="1" stop-color="#FBB732"/>
</linearGradient>
<linearGradient id="paint17_linear_10044_13262" x1="302.418" y1="56.5646" x2="288.82" y2="72.5035" gradientUnits="userSpaceOnUse">
<stop stop-color="#FFEB8E"/>
<stop offset="1" stop-color="#FFB74A"/>
</linearGradient>
<linearGradient id="paint18_linear_10044_13262" x1="295.761" y1="46.1606" x2="312.996" y2="59.4003" gradientUnits="userSpaceOnUse">
<stop stop-color="#FFD84A"/>
<stop offset="1" stop-color="#FEE954"/>
</linearGradient>
<linearGradient id="paint19_linear_10044_13262" x1="221.082" y1="42.2622" x2="214.356" y2="53.4454" gradientUnits="userSpaceOnUse">
<stop offset="0.0796308" stop-color="#FFEE9D"/>
<stop offset="1" stop-color="#FEE765"/>
</linearGradient>
<linearGradient id="paint20_linear_10044_13262" x1="213.641" y1="44.0015" x2="196.745" y2="58.9149" gradientUnits="userSpaceOnUse">
<stop stop-color="#FFD84A"/>
<stop offset="1" stop-color="#FEE954"/>
</linearGradient>
<linearGradient id="paint21_linear_10044_13262" x1="206.213" y1="56.0991" x2="219.143" y2="76.6034" gradientUnits="userSpaceOnUse">
<stop stop-color="#FFEB8E"/>
<stop offset="1" stop-color="#FFB74A"/>
</linearGradient>
<linearGradient id="paint22_linear_10044_13262" x1="213.691" y1="53.5305" x2="226.572" y2="62.7947" gradientUnits="userSpaceOnUse">
<stop stop-color="#FBE792"/>
<stop offset="1" stop-color="#FBB732"/>
</linearGradient>
<linearGradient id="paint23_linear_10044_13262" x1="254.855" y1="39.0841" x2="254.855" y2="47.6071" gradientUnits="userSpaceOnUse">
<stop stop-color="#FFBA37"/>
<stop offset="0.516975" stop-color="#FFDD6A"/>
<stop offset="1" stop-color="#FFC926"/>
</linearGradient>
<linearGradient id="paint24_linear_10044_13262" x1="253.999" y1="38.2318" x2="253.999" y2="29.7088" gradientUnits="userSpaceOnUse">
<stop stop-color="#FFC73F"/>
<stop offset="0.649579" stop-color="#FFF575"/>
<stop offset="1" stop-color="#FEE65D"/>
</linearGradient>
<linearGradient id="paint25_linear_10044_13262" x1="275.666" y1="30.7067" x2="275.67" y2="49.5426" gradientUnits="userSpaceOnUse">
<stop stop-color="#FFFDE5"/>
<stop offset="0.234176" stop-color="#FFE34E"/>
<stop offset="0.822737" stop-color="#FF700D"/>
<stop offset="1" stop-color="#FF470D"/>
</linearGradient>
<linearGradient id="paint26_linear_10044_13262" x1="232.576" y1="30.5371" x2="232.571" y2="49.6031" gradientUnits="userSpaceOnUse">
<stop stop-color="#FFFDE5"/>
<stop offset="0.234176" stop-color="#FFE34E"/>
<stop offset="0.822737" stop-color="#FF700D"/>
<stop offset="1" stop-color="#FF470D"/>
</linearGradient>
<linearGradient id="paint27_linear_10044_13262" x1="253.853" y1="17.3999" x2="253.706" y2="25.3196" gradientUnits="userSpaceOnUse">
<stop offset="0.205" stop-color="#FFD482"/>
<stop offset="1" stop-color="#F9A20A"/>
</linearGradient>
<linearGradient id="paint28_linear_10044_13262" x1="253.853" y1="17.3999" x2="253.706" y2="25.3196" gradientUnits="userSpaceOnUse">
<stop offset="0.205" stop-color="#FFD482"/>
<stop offset="1" stop-color="#F9A20A"/>
</linearGradient>
<linearGradient id="paint29_linear_10044_13262" x1="236.399" y1="30.3036" x2="272.185" y2="30.0103" gradientUnits="userSpaceOnUse">
<stop stop-color="#FFD896"/>
<stop offset="0.175343" stop-color="#FFF983"/>
<stop offset="0.322647" stop-color="#FFA72A"/>
<stop offset="0.665958" stop-color="#FFFCC7"/>
<stop offset="0.986264" stop-color="#FFD087"/>
</linearGradient>
<linearGradient id="paint30_linear_10044_13262" x1="240.506" y1="22.9713" x2="245.493" y2="25.6112" gradientUnits="userSpaceOnUse">
<stop stop-color="#FFD485"/>
<stop offset="1" stop-color="#FFB329"/>
</linearGradient>
<linearGradient id="paint31_linear_10044_13262" x1="267.198" y1="22.5039" x2="262.269" y2="24.7868" gradientUnits="userSpaceOnUse">
<stop stop-color="#FFD485"/>
<stop offset="1" stop-color="#FEB838"/>
</linearGradient>
<linearGradient id="paint32_linear_10044_13262" x1="258.633" y1="26.8232" x2="256.286" y2="32.9243" gradientUnits="userSpaceOnUse">
<stop stop-color="#1E9AFF"/>
<stop offset="1" stop-color="#4BAEFF"/>
</linearGradient>
<linearGradient id="paint33_linear_10044_13262" x1="254.905" y1="26.8829" x2="252.986" y2="32.2966" gradientUnits="userSpaceOnUse">
<stop stop-color="#1E9AFF"/>
<stop offset="1" stop-color="#4BAEFF"/>
</linearGradient>
<linearGradient id="paint34_linear_10044_13262" x1="252.141" y1="26.9199" x2="252.141" y2="36.48" gradientUnits="userSpaceOnUse">
<stop stop-color="#D9D9D9"/>
<stop offset="1" stop-color="#737373"/>
</linearGradient>
<linearGradient id="paint35_linear_10044_13262" x1="250.297" y1="29.0823" x2="254.431" y2="36.6807" gradientUnits="userSpaceOnUse">
<stop stop-color="#0083EE"/>
<stop offset="1" stop-color="#1596FF"/>
</linearGradient>
<linearGradient id="paint36_linear_10044_13262" x1="237.28" y1="39.9861" x2="270.719" y2="39.9861" gradientUnits="userSpaceOnUse">
<stop stop-color="#138DF0"/>
<stop offset="0.0880189" stop-color="#0D7EDB"/>
<stop offset="0.299718" stop-color="#1692F8"/>
<stop offset="0.433966" stop-color="#078AF6"/>
<stop offset="0.625011" stop-color="#0E8DF4"/>
<stop offset="0.743769" stop-color="#87C6F9"/>
<stop offset="0.810893" stop-color="#39A0F5"/>
<stop offset="0.934815" stop-color="#0D8BF2"/>
<stop offset="1" stop-color="#1F98FB"/>
</linearGradient>
<linearGradient id="paint37_linear_10044_13262" x1="237.28" y1="39.9861" x2="270.719" y2="39.9861" gradientUnits="userSpaceOnUse">
<stop stop-color="#F013B9"/>
<stop offset="0.0880189" stop-color="#DD05A7"/>
<stop offset="0.299718" stop-color="#F816C0"/>
<stop offset="0.433966" stop-color="#F601B9"/>
<stop offset="0.625011" stop-color="#F309B9"/>
<stop offset="0.743769" stop-color="#F987DD"/>
<stop offset="0.810893" stop-color="#F539C6"/>
<stop offset="0.934815" stop-color="#EE06B4"/>
<stop offset="1" stop-color="#FB1FC4"/>
</linearGradient>
<linearGradient id="paint38_linear_10044_13262" x1="235.521" y1="37.5458" x2="273.653" y2="37.5458" gradientUnits="userSpaceOnUse">
<stop stop-color="#50B0FF"/>
<stop offset="0.488315" stop-color="#95CFFF"/>
<stop offset="1" stop-color="#50B0FF"/>
</linearGradient>
<linearGradient id="paint39_linear_10044_13262" x1="256.054" y1="6.83936" x2="253.12" y2="11.5325" gradientUnits="userSpaceOnUse">
<stop stop-color="#FFE798"/>
<stop offset="0.81" stop-color="#FFC16B"/>
<stop offset="1" stop-color="#FFB043"/>
</linearGradient>
<linearGradient id="paint40_linear_10044_13262" x1="275.062" y1="15.6426" x2="272.715" y2="19.3971" gradientUnits="userSpaceOnUse">
<stop stop-color="#FFE798"/>
<stop offset="0.81" stop-color="#FFC16B"/>
<stop offset="1" stop-color="#FFB043"/>
</linearGradient>
<linearGradient id="paint41_linear_10044_13262" x1="235.755" y1="15.6426" x2="233.408" y2="19.3971" gradientUnits="userSpaceOnUse">
<stop stop-color="#FFE798"/>
<stop offset="0.81" stop-color="#FFC16B"/>
<stop offset="1" stop-color="#FFB043"/>
</linearGradient>
<linearGradient id="paint42_linear_10044_13262" x1="205.078" y1="28.7792" x2="197.52" y2="36.3377" gradientUnits="userSpaceOnUse">
<stop stop-color="#FFCF65"/>
<stop offset="1" stop-color="#FF9D43"/>
</linearGradient>
<linearGradient id="paint43_linear_10044_13262" x1="295.062" y1="19.0234" x2="289.016" y2="25.0701" gradientUnits="userSpaceOnUse">
<stop stop-color="#FFCF65"/>
<stop offset="1" stop-color="#FF9D43"/>
</linearGradient>
<linearGradient id="paint44_linear_10044_13262" x1="274.047" y1="5.26753" x2="269.512" y2="9.8026" gradientUnits="userSpaceOnUse">
<stop stop-color="#FFCF65"/>
<stop offset="1" stop-color="#FFB967"/>
</linearGradient>
<linearGradient id="paint45_linear_10044_13262" x1="52.8395" y1="29.9218" x2="52.8395" y2="0" gradientUnits="userSpaceOnUse">
<stop stop-color="#35D3FB" stop-opacity="0.65"/>
<stop offset="1" stop-color="#45C7FB" stop-opacity="0"/>
</linearGradient>
</defs>
</svg>
