<svg width="48" height="48" viewBox="0 0 48 48" fill="none" xmlns="http://www.w3.org/2000/svg">
<path opacity="0.4" d="M45 12.5V35.5C45 42.4 41.5 47 33.3333 47H14.6667C6.5 47 3 42.4 3 35.5V12.5C3 5.6 6.5 1 14.6667 1H33.3333C41.5 1 45 5.6 45 12.5Z" fill="var(--main-color)"/>
<path d="M32.675 1V19.3009C32.675 20.3254 31.479 20.8376 30.743 20.1624L25.407 15.1797C25.1954 14.978 24.9157 14.8657 24.625 14.8657C24.3343 14.8657 24.0546 14.978 23.843 15.1797L18.507 20.1624C18.3424 20.3169 18.1368 20.4193 17.9155 20.4569C17.6942 20.4946 17.4668 20.4658 17.2614 20.3742C17.056 20.2826 16.8816 20.1322 16.7596 19.9415C16.6376 19.7508 16.5735 19.5281 16.575 19.3009V1H32.675ZM37.275 30.6866H27.5C26.557 30.6866 25.775 29.8949 25.775 28.9403C25.775 27.9857 26.557 27.194 27.5 27.194H37.275C38.218 27.194 39 27.9857 39 28.9403C39 29.8949 38.218 30.6866 37.275 30.6866ZM37.275 40H17.725C16.782 40 16 39.2084 16 38.2537C16 37.2991 16.782 36.5075 17.725 36.5075H37.275C38.218 36.5075 39 37.2991 39 38.2537C39 39.2084 38.218 40 37.275 40Z" fill="var(--main-color)"/>
</svg>
