<svg xmlns="http://www.w3.org/2000/svg" width="32" height="32" viewBox="0 0 32 32" fill="none">
<path d="M22.2078 2L27.8273 10.6311L22.4224 20L10.5776 20L5.1727 10.6311L10.7922 2L22.2078 2Z" stroke="#333333" stroke-width="2"/>
<path fill-rule="evenodd" clip-rule="evenodd" d="M23.1805 8.48591C23.5204 8.14599 23.5204 7.59487 23.1805 7.25494C22.8405 6.91502 22.2894 6.91502 21.9495 7.25494L14.5636 14.6409L11.4859 11.5632C11.146 11.2233 10.5949 11.2233 10.2549 11.5632C9.91502 11.9031 9.91502 12.4543 10.2549 12.7942L13.9479 16.4871C14.0415 16.5808 14.1512 16.6486 14.2681 16.6907C14.5755 16.8014 14.9328 16.7336 15.1791 16.4872L23.1805 8.48591Z" fill="#333333"/>
<path d="M10 21H23V31L16.5 26.5L10 31V21Z" fill="#333333"/>
</svg>