<svg xmlns="http://www.w3.org/2000/svg" width="32" height="32" viewBox="0 0 32 32" fill="none">
<path d="M1.23999 16.296C1.23999 17.7948 1.83541 19.2323 2.89526 20.2921C3.9551 21.352 5.39257 21.9474 6.89142 21.9474C8.39027 21.9474 9.82773 21.352 10.8876 20.2921C11.9474 19.2323 12.5428 17.7948 12.5428 16.296C12.5428 14.7971 11.9474 13.3596 10.8876 12.2998C9.82773 11.2399 8.39027 10.6445 6.89142 10.6445C5.39257 10.6445 3.9551 11.2399 2.89526 12.2998C1.83541 13.3596 1.23999 14.7971 1.23999 16.296Z" fill="#237C57"/>
<path d="M19.08 27.5992C19.08 28.7662 19.5436 29.8853 20.3687 30.7105C21.1939 31.5356 22.3131 31.9992 23.48 31.9992C24.647 31.9992 25.7661 31.5356 26.5913 30.7105C27.4164 29.8853 27.88 28.7662 27.88 27.5992C27.88 26.4323 27.4164 25.3131 26.5913 24.4879C25.7661 23.6628 24.647 23.1992 23.48 23.1992C22.3131 23.1992 21.1939 23.6628 20.3687 24.4879C19.5436 25.3131 19.08 26.4323 19.08 27.5992Z" fill="#237C57"/>
<path d="M21.9657 4.4C21.9657 5.56695 22.4293 6.68611 23.2544 7.51127C24.0796 8.33643 25.1987 8.8 26.3657 8.8C27.5327 8.8 28.6518 8.33643 29.477 7.51127C30.3021 6.68611 30.7657 5.56695 30.7657 4.4C30.7657 3.23305 30.3021 2.11389 29.477 1.28873C28.6518 0.46357 27.5327 0 26.3657 0C25.1987 0 24.0796 0.46357 23.2544 1.28873C22.4293 2.11389 21.9657 3.23305 21.9657 4.4Z" fill="#237C57"/>
<path d="M8.82739 20.4687L10.0845 18.2915L22.2285 25.3024L20.9714 27.4795L8.82739 20.4687ZM9.17139 13.1167L22.8645 5.21094L24.1217 7.38808L10.4285 15.2949L9.17139 13.1167Z" fill="#237C57"/>
</svg>