<svg width="42" height="42" viewBox="0 0 42 42" fill="none" xmlns="http://www.w3.org/2000/svg">
<path fill-rule="evenodd" clip-rule="evenodd" d="M5.69169 33.991C2.40432 30.3827 0.40443 25.6189 0.40443 20.3957C0.40443 9.13149 9.70091 0 21.1686 0C32.6364 0 41.9329 9.13149 41.9329 20.3957C41.9329 28.3604 37.2834 35.2559 30.5064 38.6136C26.36 40.7753 21.6297 42 16.6083 42C10.4556 42 4.73991 40.1614 0 37.0131C0 37.0131 3.17858 36.6664 5.69087 33.9918L5.69169 33.991ZM30.9227 30.4898C36.2947 25.118 36.2947 16.4085 30.9227 11.0366C28.4317 8.54569 25.2231 7.21059 21.9624 7.02989C21.864 4.58346 23.1809 2.93048 23.1873 2.92242L23.186 2.92268L23.187 2.92138C19.4394 3.64532 15.8608 5.45837 12.9589 8.36029C10.7334 10.5857 9.14881 13.2092 8.20411 16.0014C8.34241 15.6352 8.49661 15.2736 8.66671 14.9178C8.47091 15.4171 8.29401 15.9273 8.13401 16.4493C6.56076 21.2252 7.67121 26.6916 11.4694 30.4898C16.8414 35.8618 25.5509 35.8618 30.9227 30.4898Z" fill="var(--main-color)"/>
<path fill-rule="evenodd" clip-rule="evenodd" d="M14.2129 19.3493V22.1965C14.2129 23.3327 15.1339 24.2537 16.2702 24.2537C17.4064 24.2537 18.3273 23.3327 18.3273 22.1965V19.3493C18.3273 18.2133 17.4064 17.292 16.2702 17.292C15.1339 17.292 14.2129 18.2133 14.2129 19.3493Z" fill="var(--main-color)"/>
<path fill-rule="evenodd" clip-rule="evenodd" d="M24.3955 19.3493V22.1965C24.3955 23.3327 25.3166 24.2537 26.4527 24.2537C27.5889 24.2537 28.51 23.3327 28.51 22.1965V19.3493C28.51 18.2133 27.5889 17.292 26.4527 17.292C25.3166 17.292 24.3955 18.2133 24.3955 19.3493Z" fill="var(--main-color)"/>
</svg>
