<svg xmlns="http://www.w3.org/2000/svg" width="32" height="32" viewBox="0 0 32 32" fill="none">
<path fill-rule="evenodd" clip-rule="evenodd" d="M21.707 8.70696C22.0975 8.31643 22.7306 8.31643 23.1212 8.70696L29.4851 15.0709C29.5229 15.1086 29.5569 15.1486 29.5874 15.1904C29.8374 15.3722 30 15.667 30 15.9998C30 16.2555 29.9041 16.4888 29.7462 16.6656C29.703 16.8325 29.616 16.9905 29.4853 17.1212L23.1213 23.4852C22.7308 23.8757 22.0976 23.8757 21.7071 23.4852C21.3166 23.0946 21.3166 22.4615 21.7071 22.0709L26.7782 16.9998H3C2.44771 16.9998 2 16.5521 2 15.9998C2 15.4476 2.44772 14.9998 3 14.9998H26.5856L21.707 10.1212C21.3164 9.73064 21.3164 9.09748 21.707 8.70696Z" fill="#333333"/>
</svg>