<svg xmlns="http://www.w3.org/2000/svg" width="32" height="32" viewBox="0 0 32 32" fill="none">
<path d="M7.78509 13.5156C4.8498 14.2137 2.66663 16.8527 2.66663 20.0016C2.66663 23.6835 5.65139 26.6683 9.33329 26.6683C9.96489 26.6683 10.576 26.5805 11.155 26.4164" stroke="#333333" stroke-width="2.66667" stroke-linecap="round" stroke-linejoin="round"/>
<path d="M24.0365 13.5156C26.9718 14.2137 29.155 16.8527 29.155 20.0016C29.155 23.6835 26.1702 26.6683 22.4883 26.6683C21.8567 26.6683 21.2456 26.5805 20.6666 26.4164" stroke="#333333" stroke-width="2.66667" stroke-linecap="round" stroke-linejoin="round"/>
<path d="M24 13.332C24 8.91376 20.4183 5.33203 16 5.33203C11.5817 5.33203 8 8.91376 8 13.332" stroke="#333333" stroke-width="2.66667" stroke-linecap="round" stroke-linejoin="round"/>
<path d="M20.7545 17.9714L16.1315 13.3332L11.3769 18.0508" stroke="#333333" stroke-width="2.66667" stroke-linecap="round" stroke-linejoin="round"/>
<path d="M16.1315 24.7188L16.1315 15.6933" stroke="#333333" stroke-width="2.66667" stroke-linecap="round" stroke-linejoin="round"/>
</svg>