<svg width="36" height="36" viewBox="0 0 36 36" fill="none" xmlns="http://www.w3.org/2000/svg">
<path d="M23.6759 7.73494L25.8078 11.9986C26.095 12.5882 26.8661 13.1476 27.5162 13.2686L31.3716 13.9036C33.8361 14.3118 34.4106 16.0959 32.6417 17.88L29.6329 20.8887C29.134 21.3876 28.8467 22.3704 29.013 23.081L29.8748 26.8003C30.5552 29.7335 28.9828 30.8825 26.3974 29.3404L22.7839 27.1934C22.1338 26.8003 21.0452 26.8003 20.3951 27.1934L16.7816 29.3404C14.1962 30.8674 12.6238 29.7335 13.3041 26.8003L14.1659 23.081C14.3322 22.3855 14.045 21.4028 13.546 20.8887L10.5373 17.88C8.76834 16.111 9.34287 14.3269 11.8073 13.9036L15.6627 13.2686C16.3129 13.1628 17.0839 12.5882 17.3712 11.9986L19.503 7.73494C20.637 5.42169 22.5118 5.42169 23.6759 7.73494Z" fill="var(--main-color)"/>
<path d="M12.5056 8.54914H3.43399C2.8141 8.54914 2.30005 8.03508 2.30005 7.41519C2.30005 6.79531 2.8141 6.28125 3.43399 6.28125H12.5056C13.1254 6.28125 13.6395 6.79531 13.6395 7.41519C13.6395 8.03508 13.1254 8.54914 12.5056 8.54914ZM7.96977 29.7161H3.43399C2.8141 29.7161 2.30005 29.2021 2.30005 28.5822C2.30005 27.9623 2.8141 27.4482 3.43399 27.4482H7.96977C8.58966 27.4482 9.10372 27.9623 9.10372 28.5822C9.10372 29.2021 8.58966 29.7161 7.96977 29.7161ZM4.94592 19.1326H3.43399C2.8141 19.1326 2.30005 18.6186 2.30005 17.9987C2.30005 17.3788 2.8141 16.8647 3.43399 16.8647H4.94592C5.56581 16.8647 6.07987 17.3788 6.07987 17.9987C6.07987 18.6186 5.56581 19.1326 4.94592 19.1326Z" fill="var(--main-color)"/>
</svg>
