<svg xmlns="http://www.w3.org/2000/svg" width="32" height="32" viewBox="0 0 32 32" fill="none">
<path d="M23.3333 10.6667C25.1743 10.6667 26.6667 9.17427 26.6667 7.33333C26.6667 5.49239 25.1743 4 23.3333 4C21.4924 4 20 5.49239 20 7.33333C20 9.17427 21.4924 10.6667 23.3333 10.6667Z" stroke="#333333" stroke-width="2.66667" stroke-linejoin="round"/>
<path d="M8.66671 19.3346C10.5076 19.3346 12 17.8422 12 16.0013C12 14.1604 10.5076 12.668 8.66671 12.668C6.82577 12.668 5.33337 14.1604 5.33337 16.0013C5.33337 17.8422 6.82577 19.3346 8.66671 19.3346Z" stroke="#333333" stroke-width="2.66667" stroke-linejoin="round"/>
<path d="M20.0003 9.05078L11.5596 14.1647" stroke="#333333" stroke-width="2.66667" stroke-linecap="round" stroke-linejoin="round"/>
<path d="M11.559 17.707L20.4526 22.9624" stroke="#333333" stroke-width="2.66667" stroke-linecap="round" stroke-linejoin="round"/>
<path d="M23.3333 21.332C25.1743 21.332 26.6667 22.8244 26.6667 24.6654C26.6667 26.5063 25.1743 27.9987 23.3333 27.9987C21.4924 27.9987 20 26.5063 20 24.6654C20 22.8244 21.4924 21.332 23.3333 21.332Z" stroke="#333333" stroke-width="2.66667" stroke-linejoin="round"/>
</svg>