<svg xmlns="http://www.w3.org/2000/svg" width="32" height="32" viewBox="0 0 32 32" fill="none">
<path d="M14.5783 1.43677C15.3611 0.645734 16.6389 0.645734 17.4217 1.43677L19.5924 3.6306C20.0134 4.0561 20.6029 4.27064 21.1989 4.21532L24.272 3.93009C25.3801 3.82724 26.359 4.64866 26.4501 5.75775L26.7029 8.83366C26.7519 9.43023 27.0655 9.97349 27.5577 10.3142L30.0951 12.0711C31.01 12.7045 31.232 13.963 30.5888 14.8712L28.8053 17.3899C28.4594 17.8784 28.3505 18.4962 28.5084 19.0736L29.323 22.0504C29.6167 23.1238 28.9777 24.2305 27.9013 24.5128L24.916 25.2958C24.337 25.4477 23.8565 25.8509 23.6064 26.3947L22.3168 29.1987C21.8519 30.2098 20.6511 30.6468 19.645 30.1712L16.8548 28.8521C16.3136 28.5963 15.6864 28.5963 15.1452 28.8521L12.355 30.1712C11.3489 30.6468 10.1481 30.2098 9.68315 29.1987L8.39364 26.3947C8.14354 25.8509 7.663 25.4477 7.084 25.2958L4.09871 24.5128C3.02229 24.2305 2.38334 23.1238 2.67704 22.0504L3.49157 19.0736C3.64955 18.4962 3.54062 17.8784 3.1947 17.3899L1.41115 14.8712C0.768049 13.963 0.989952 12.7045 1.90489 12.0711L4.44234 10.3142C4.93448 9.97349 5.24813 9.43023 5.29714 8.83366L5.54988 5.75775C5.64101 4.64866 6.61993 3.82724 7.728 3.93009L10.8011 4.21532C11.3971 4.27064 11.9866 4.0561 12.4076 3.6306L14.5783 1.43677Z" fill="#1F71E2"/>
<path fill-rule="evenodd" clip-rule="evenodd" d="M23.5566 12.1212C23.9471 11.7306 23.9471 11.0975 23.5566 10.707C23.166 10.3164 22.5329 10.3164 22.1424 10.707L13.657 19.1924L10.1212 15.6566C9.73064 15.266 9.09748 15.266 8.70696 15.6566C8.31643 16.0471 8.31643 16.6803 8.70696 17.0708L12.9496 21.3134C13.0572 21.421 13.1832 21.499 13.3175 21.5473C13.6707 21.6745 14.0811 21.5966 14.3642 21.3136L23.5566 12.1212Z" fill="white"/>
</svg>