<svg width="100" height="50" viewBox="0 0 100 50" fill="none" xmlns="http://www.w3.org/2000/svg">
<path fill-rule="evenodd" clip-rule="evenodd" d="M50 44C60.4934 44 69 35.4934 69 25C69 14.5066 60.4934 6 50 6C39.5066 6 31 14.5066 31 25C31 35.4934 39.5066 44 50 44ZM36.0565 17.8302C35.2438 17.8302 34.5849 18.4988 34.5849 19.3236V30.2757C34.5849 31.1005 35.2438 31.7691 36.0565 31.7691C36.8692 31.7691 37.5281 31.1005 37.5281 30.2757V19.3236C37.5281 18.4988 36.8692 17.8302 36.0565 17.8302ZM43.4144 17.8302C42.6016 17.8302 41.9428 18.4988 41.9428 19.3236V30.2757C41.9428 31.1005 42.6016 31.7691 43.4144 31.7691C44.2271 31.7691 44.8859 31.1005 44.8859 30.2757V23.004L52.5702 31.3386C53.1085 31.9226 54.0047 31.972 54.6022 31.4507C55.2364 30.8974 55.2887 29.9194 54.7174 29.2997L44.6472 18.3771C44.492 18.2088 44.3072 18.0849 44.1083 18.0063C43.9016 17.8939 43.6653 17.8302 43.4144 17.8302ZM52.9161 18.2651C52.282 18.8184 52.2297 19.7963 52.801 20.4161L62.8712 31.3386C63.4096 31.9226 64.3058 31.972 64.9033 31.4507C65.5374 30.8974 65.5898 29.9194 65.0184 29.2997L54.9482 18.3771C54.4099 17.7932 53.5137 17.7438 52.9161 18.2651Z" fill="currentColor"/>
</svg>
