<svg width="100" height="48" viewBox="0 0 100 48" fill="none" xmlns="http://www.w3.org/2000/svg">
<path d="M34.627 12.4102H34.7295C35.1149 12.4102 35.4586 12.4114 35.7832 12.4219L35.7578 12.417H36.458C36.6353 12.417 36.8131 12.436 36.9863 12.4736L38.4219 12.7852C39.1535 12.9442 39.7981 13.3763 40.2227 13.9932C40.5604 14.484 40.7411 15.0662 40.7412 15.6621V16.0889C40.7412 16.4661 40.6914 16.8426 40.5938 17.207L36.9766 30.71C36.682 31.8092 36.0131 32.7719 35.0859 33.4316C34.6148 33.7668 34.0873 34.0156 33.5293 34.167L33.1377 34.2734C32.2344 34.5184 31.3087 34.6738 30.375 34.7383L29.8721 34.7725L25.3359 37.6094L24.127 37.6084L19.7822 34.8398H10.6689C9.32 34.8398 8.48744 34.8393 7.16113 34.4219C6.3929 34.18 5.90176 33.8501 5.51953 33.3887C5.04584 32.8166 5.00129 32.2056 5.00098 32.2012C5.00098 32.1773 5.0031 30.313 5.15918 29.6514C6.00803 26.054 6.21672 25.738 7.16113 22.2646C7.7122 20.238 8.06093 19.0994 8.64551 17.1211C9.17605 15.3257 9.4554 15.0391 10.5117 14.1533C10.9941 13.7489 11.309 13.5629 11.8828 13.2959C12.4632 13.0259 13.4441 12.7931 13.457 12.79L13.8613 12.7119C14.0914 12.6695 14.3782 12.6198 14.6035 12.5918C15.0492 12.5366 15.751 12.498 15.751 12.498L24.2988 12.458L28.8535 9.55859H30.0635L34.627 12.4102ZM95.002 15.0547C94.7154 16.1447 93.8728 19.4512 93.8477 19.5283H88.5811L86.9141 25.7217C86.0068 29.1119 85.195 32.1523 85.1709 32.249H79.6777C79.7015 32.1774 80.5616 29.248 81.4531 25.9209C82.3432 22.5978 83.0989 19.7978 83.1328 19.6875L83.1885 19.5127H77.8867C77.9109 19.4411 78.2368 18.3344 78.5234 17.2441C78.8094 16.1482 79.0641 15.1149 79.0811 15.0547H95.002ZM51.4824 15.0947C55.3109 15.1027 55.9644 15.1269 56.4023 15.2383C58.2012 15.716 58.7659 16.7665 58.3359 18.8359C58.1603 19.682 56.0038 27.7675 55.7646 28.46C55.2951 29.8528 54.4435 30.9761 53.4961 31.4775C52.1432 32.1857 51.2745 32.2733 45.9102 32.2256C42.4564 32.2017 41.636 32.1698 41.2061 32.0664C40.2191 31.8356 39.6693 31.4528 39.335 30.7764C39.0486 30.1794 39.0486 29.2717 39.335 28.0781C39.6055 26.9404 41.6573 19.2973 41.8184 18.8125C42.3517 17.2126 43.3075 16.0974 44.5811 15.5879C45.0613 15.399 46.7238 15.1406 46.7617 15.1348C46.7617 15.1348 49.0548 15.0868 51.4824 15.0947ZM66.4834 15.0547C66.4801 15.1228 65.7336 18.0153 64.8203 21.3828L63.1396 27.5527H68.9111C68.9428 27.505 69.7477 24.6145 70.6631 21.2236L72.3262 15.0547H77.707C77.7009 15.1018 76.9156 18.1017 75.9482 21.6855C74.9055 25.5778 74.0696 28.5233 73.8945 28.9453C73.1304 30.8077 72.1036 31.6763 70.1855 32.0664C69.5407 32.1937 69.0065 32.209 64.8125 32.209C59.7895 32.209 59.6057 32.1934 58.6104 31.7715C57.584 31.3257 57.2339 30.3461 57.5283 28.7227C57.6079 28.269 60.9176 15.6335 61.1104 15.0547H66.4834ZM8.49805 32.2012H13.5928L16.4277 21.6494H11.29L8.49805 32.2012ZM16.3682 32.2012H20.8779L23.7764 23.4521L23.7861 23.4863L26.6338 32.2012H32.6924C32.7019 32.1727 32.707 32.1572 32.707 32.1572L34.6855 24.793L37.3721 15.0547H32.6572L29.668 23.7598H29.667L26.5664 15.0547H20.875L16.3682 32.2012ZM46.834 19.9268C46.6264 20.6613 44.7959 27.505 44.7959 27.5527H50.6709L50.7578 27.29C50.8374 27.0513 52.6837 20.2008 52.7959 19.7275L52.8516 19.5127H46.9531L46.834 19.9268ZM11.9053 19.4951H17.0059L18.1992 15.0547H13.0049L11.9053 19.4951Z" fill="currentColor"/>
</svg>
