<svg width="100" height="50" viewBox="0 0 100 50" fill="none" xmlns="http://www.w3.org/2000/svg">
<path d="M42.384 8H32.5708L35.9396 12.7454L31.2521 31.8799C31.1056 32.3391 30.579 33.9005 29.0557 35.2476C27.5325 36.5946 25.1011 35.9109 24.0758 35.4007C23.3429 36.4722 21 39.8399 21 39.8399C21 39.8399 24.8837 42.11 30.0809 40.2991C33.1561 39.2276 35.646 35.4007 36.2325 32.7984L42.384 8Z" fill="currentColor"/>
<path fill-rule="evenodd" clip-rule="evenodd" d="M42.8229 8.15308L72.702 8C74.7525 8 79 9.98999 79 14.5823C79 18.103 77.0959 20.2461 76.0707 20.8584L76.0773 20.8661C76.5202 21.3804 77.5353 22.559 77.5353 25.9099C77.5353 30.043 72.9949 33.8699 68.4544 33.8699H40.4794L45.8987 12.8984L42.8229 8.15308ZM50.8785 12.7454L46.7775 28.8184L46.8117 28.8214C48.5785 28.9753 51.9227 29.2667 54.8331 27.5938C57.7624 25.9099 60.6917 21.7769 60.5453 17.6438C60.3988 13.5107 57.1766 12.7454 55.2725 12.7454H50.8785ZM70.4134 23.3076H63.914C63.3281 25.7568 61.2776 28.0529 60.2523 28.9714C62.216 28.9714 65.4706 28.8952 67.3863 28.8503L67.3873 28.8503C68.186 28.8316 68.7517 28.8183 68.8938 28.8183C70.0656 28.8184 72.8582 27.8999 72.702 25.4507C72.5848 23.6138 71.2373 23.3077 70.4134 23.3076ZM65.0857 18.4092H70.9993C71.9696 18.4092 74.0202 17.6438 74.0202 15.5007C74.0202 13.3577 72.7477 12.7454 71.3838 12.7454C71.1506 12.7454 70.0853 12.7454 68.7325 12.7454C67.2818 12.7454 65.5005 12.7454 64.0605 12.7454C64.6463 13.8169 65.2322 16.2661 65.0857 18.4092Z" fill="currentColor"/>
</svg>
