<svg width="100" height="50" viewBox="0 0 100 50" fill="none" xmlns="http://www.w3.org/2000/svg">
<path d="M25.2238 34.1448V15.0757C25.2238 14.5836 24.7361 14.4605 24.2974 14.4605C23.7827 14.4605 22.7534 14.4605 22.7534 13.5378C22.7534 12.3076 23.371 12.3076 23.6798 12.3076H34.7968C35.1056 12.3076 35.4145 12.6151 35.4145 13.5378C35.4144 14.153 34.7968 14.4605 34.488 14.4605C33.5616 14.4605 33.5616 15.0757 33.5616 15.0757V32.2994C33.5616 34.1448 32.3264 35.3751 30.4735 36.6053C28.1299 38.1615 25.3268 38.1432 23.9886 37.8356V35.3751C23.9886 35.3751 25.2238 34.7599 25.2238 34.1448Z" fill="currentColor"/>
<path d="M16.8861 35.0675C18.1213 36.9129 21.2093 37.8356 22.4446 37.8356V35.6826C21.3123 35.7852 21.0089 35.1341 21.2093 35.0675C23.9886 34.1448 24.2974 31.9918 23.9886 30.7616C23.7639 29.8664 22.1358 26.7632 18.7389 27.9935C15.6132 29.1255 15.4126 32.866 16.8861 35.0675Z" fill="currentColor"/>
<path d="M37.2673 13.2303C37.2673 12.5508 37.8203 12 38.5025 12H49.0019C49.6841 12 50.2372 12.5508 50.2372 13.2303V13.3926C50.2372 13.8586 49.9728 14.2846 49.5544 14.493L48.3843 15.0757V34.7599L49.3926 35.0947C49.897 35.2621 50.2372 35.7323 50.2372 36.2618V36.6053C50.2372 37.2848 49.6841 37.8356 49.0019 37.8356H38.5025C37.8203 37.8356 37.2673 37.2848 37.2673 36.6053V36.2618C37.2673 35.7323 37.6075 35.2621 38.1119 35.0947L39.1201 34.7599V15.0757L37.9501 14.493C37.5316 14.2846 37.2673 13.8586 37.2673 13.3926V13.2303Z" fill="currentColor"/>
<path d="M71.8536 13.2303C71.8536 12.5508 72.4067 12 73.0889 12H83.5883C84.2705 12 84.8235 12.5508 84.8235 13.2303V13.3926C84.8235 13.8586 84.5592 14.2846 84.1407 14.493L82.9707 15.0757V34.7599L83.9789 35.0947C84.4833 35.2621 84.8235 35.7323 84.8235 36.2618V36.6053C84.8235 37.2848 84.2705 37.8356 83.5883 37.8356H73.0889C72.4067 37.8356 71.8536 37.2848 71.8536 36.6053V36.2618C71.8536 35.7323 72.1939 35.2621 72.6983 35.0947L73.7065 34.7599V15.0757L72.5365 14.493C72.118 14.2846 71.8536 13.8586 71.8536 13.3926V13.2303Z" fill="currentColor"/>
<path d="M52.09 13.2303C52.09 12.5508 52.643 12 53.3252 12H63.8247C64.5069 12 65.0599 12.5508 65.0599 13.2303V13.3926C65.0599 13.8586 64.7956 14.2846 64.3771 14.493L63.2071 15.0757V37.8356H53.3252C52.643 37.8356 52.09 37.2848 52.09 36.6053V36.2618C52.09 35.7323 52.4302 35.2621 52.9346 35.0947L53.9429 34.7599V15.0757L52.7728 14.493C52.3544 14.2846 52.09 13.8586 52.09 13.3926V13.2303Z" fill="currentColor"/>
<path d="M67.2215 32.607C68.2297 31.2013 68.8428 29.6645 69.1471 28.767C69.2998 28.3165 69.7181 27.9935 70.1956 27.9935C70.7702 27.9935 71.236 28.4574 71.236 29.0298V37.8356H63.8247V35.3751C63.8247 35.3751 65.6775 34.7599 67.2215 32.607Z" fill="currentColor"/>
</svg>
