<svg width="100" height="50" viewBox="0 0 100 50" fill="none" xmlns="http://www.w3.org/2000/svg">
<path fill-rule="evenodd" clip-rule="evenodd" d="M30.2252 14.0019C24.5543 13.9231 21.4628 16.3648 20.2814 17.7431C20.254 17.7751 20.2125 17.8179 20.1581 17.8739L20.158 17.8741L20.1579 17.8742L20.1577 17.8744L20.1577 17.8744L20.1576 17.8744L20.1575 17.8746L20.1574 17.8747L20.1568 17.8753C20.1301 17.9028 20.1003 17.9336 20.0676 17.9677L21.069 14.8879H12.2082C11.5951 16.9544 10.4917 20.6866 9.68739 23.4422L7.87627 20.1059C6.89174 20.9264 4.80452 22.6854 4.33195 23.158C4.23896 23.251 4.12645 23.3537 4.00288 23.4664C3.34144 24.07 2.36291 24.963 2.36288 26.2101C2.36286 26.8992 2.85515 27.5884 3.05207 27.6869L2.73525 28.4789L2.55979 28.4745L0 36.2523C0.88608 36.2523 7.08864 36.3508 7.08864 36.3508C7.08864 36.3508 13.3897 36.3508 15.851 30.9358L16.1202 30.1077C16.908 33.3206 19.4031 34.8501 20.0448 35.2435L20.0845 35.2679C21.3644 36.0555 29.4375 38.2215 34.754 32.6096C34.8097 32.5509 34.8646 32.492 34.9188 32.433L33.7695 36.2523H43.1226L44.5994 31.8219L46.8638 36.2523H82.2086L83.9807 30.542H86.3436L87.525 36.2523H96.7796C96.6626 35.638 96.496 34.7952 96.3215 33.9121C95.9084 31.8229 95.4508 29.5079 95.4998 29.459C95.5369 29.4219 95.5975 29.3657 95.6776 29.2916L95.6776 29.2915C96.6597 28.382 100.567 24.7632 99.9302 20.3028C99.3788 16.4434 95.7951 14.8879 93.8261 14.9863H52.5741L48.8329 18.4322L50.0143 14.9863H40.169L38.6578 20.0081C38.6372 19.9032 38.6157 19.8045 38.5937 19.7122C38.1671 17.8416 35.8961 14.0806 30.2252 14.0019ZM84.4732 24.0439L84.473 24.0445H91.3647C91.9786 24.0445 92.905 23.357 93.1 22.4274C92.9047 23.3567 91.9786 24.0439 91.3648 24.0439H84.4732ZM76.1045 22.8625L72.8555 25.6192L74.4308 28.5728L77.7782 25.6192L76.1045 22.8625ZM55.3308 23.0595C53.7525 23.0596 53.493 24.1096 53.5587 24.7331C51.5896 24.3392 51.3411 27.0507 52.6726 27.2929C53.1813 27.3855 53.4407 27.2142 53.5658 27.1317C53.614 27.0998 53.6423 27.0811 53.6571 27.096C53.8039 27.2428 53.2961 27.8838 52.968 28.0807V28.2774H55.0355V28.0807C54.5432 27.4571 54.5687 27.0595 54.6417 27.096C55.9216 27.7368 57.0046 26.8006 57.103 25.8162C57.1934 24.9129 56.5451 24.7332 56.1185 24.7332C56.5123 24.2081 56.6107 23.0594 55.3308 23.0595ZM27.6654 24.2408C27.7967 23.9454 28.2758 23.3744 29.1422 23.4532C30.2252 23.5516 30.3721 24.98 29.7329 25.6192C29.2604 26.0918 27.3701 27.6539 26.484 28.3759C26.484 28.3759 25.2264 26.4737 25.0072 25.8161C24.788 25.1585 24.7709 24.2014 25.7948 23.6501C26.8187 23.0988 27.567 23.7486 27.6654 24.2408ZM8.66435 24.6347C8.55944 24.4948 8.36655 24.2139 8.14427 23.8901L8.14424 23.8901L8.14423 23.8901L8.14421 23.8901C7.86587 23.4847 7.54147 23.0123 7.28603 22.6656C7.19646 22.7328 7.00606 22.8385 6.75815 22.9762C5.91615 23.444 4.41065 24.2803 3.93813 25.2254C3.24901 26.6037 4.92313 27.096 5.41544 27.1944C5.54521 27.2204 5.08726 27.7852 4.72627 27.9821V28.2774H6.89177L6.89219 27.9821C6.89219 27.9821 6.30102 27.5883 6.3995 27.2929C6.41055 27.2598 6.58682 27.2532 6.81945 27.2446H6.81948H6.81949H6.8195C7.16721 27.2316 7.64079 27.214 7.87673 27.096C9.25508 26.4068 9.05817 25.1597 8.66435 24.6347ZM29.8153 15.5791C25.204 15.5792 22.3076 17.5992 21.2954 18.7775C21.2678 18.8095 21.2202 18.8554 21.1551 18.918C20.708 19.3482 19.4383 20.5699 18.2139 23.5522C15.3469 30.5353 19.8705 33.3128 20.9693 33.9875L20.9705 33.9883C22.0672 34.6616 29.3326 36.0961 33.671 31.5269C37.5876 27.4021 37.6652 22.2815 37.2154 20.4018C36.8498 18.8026 34.9509 15.5791 29.8153 15.5791ZM28.8468 19.9095C25.6176 19.752 24.1539 22.7318 23.8257 24.2414C23.3334 26.2761 22.843 30.234 26.1886 30.3455C29.1422 30.444 30.6846 27.5888 31.0128 26.3089C31.6363 24.1758 32.0761 20.067 28.8468 19.9095ZM47.6514 16.4636H41.6458L35.6401 34.6775H41.9411L44.304 27.4904L47.553 34.6775H54.5432L50.605 26.5058L60.7457 16.3651H53.4602L45.2885 23.8476L47.6514 16.4636ZM18.903 16.562H13.1394C12.7589 17.8347 11.9026 20.3856 11.0876 22.8133C10.2885 25.1939 9.52908 27.4561 9.29694 28.2789C8.82804 29.9409 7.76186 30.2456 7.28738 30.1902L3.34741 30.1071L1.96906 34.5944C2.72264 34.5944 7.60391 34.6775 7.60391 34.6775C7.60391 34.6775 12.1098 34.9728 14.4653 30.1071L18.903 16.562ZM81.224 16.4636L75.2184 34.6775H81.1256L82.9962 29.0656H87.4266L88.608 34.6775H94.909L93.6291 28.7703C95.1716 27.8185 97.9581 24.9851 98.158 21.2878C98.3549 17.645 95.2372 16.5292 93.826 16.4636L81.224 16.4636ZM76.3013 21.2878L78.9596 16.4636C75.6122 16.4636 67.3414 16.5176 65.9637 16.562C62.9117 16.6605 60.4503 19.1218 58.8751 22.1739C57.2998 25.2259 56.4138 28.7703 56.5122 31.4285C56.591 33.5551 58.4485 34.6118 59.3674 34.8744H71.9694L74.7261 29.7548C74.1788 29.7548 73.2824 29.7622 72.2179 29.7711C68.4943 29.802 62.7132 29.85 62.6163 29.6563C62.2225 28.8687 62.5179 27.7857 62.8132 27.7857L70.9849 27.7857L73.5446 23.06C73.0194 23.06 72.0517 23.0677 70.9315 23.0767H70.9314C68.062 23.0997 64.1916 23.1308 64.1916 23.06C64.1916 22.1148 65.0777 21.2878 65.4715 21.2878H76.3013Z" fill="currentColor"/>
<path fill-rule="evenodd" clip-rule="evenodd" d="M84.4722 24.0444L85.4567 21.1892L92.1515 21.2877C92.6438 21.2877 93.1361 21.583 93.1361 22.0753C93.1361 23.178 92.0531 24.0444 91.3639 24.0444H84.4722Z" fill="currentColor"/>
</svg>
