<svg width="100" height="48" viewBox="0 0 100 48" fill="none" xmlns="http://www.w3.org/2000/svg">
<path d="M86.7982 20.083V16.6125C86.7982 16.2742 87.0724 16 87.4107 16H99.3875C99.7258 16 100 16.2742 100 16.6125V20.083C100 20.4213 99.7258 20.6955 99.3875 20.6955H95.985C95.8347 20.6955 95.7128 20.8173 95.7128 20.9677V31.5155C95.7128 31.8349 95.4538 32.0939 95.1344 32.0939H91.6638C91.3444 32.0939 91.0854 31.8349 91.0854 31.5155V20.9677C91.0854 20.8173 90.9635 20.6955 90.8132 20.6955H87.4107C87.0724 20.6955 86.7982 20.4213 86.7982 20.083Z" fill="currentColor"/>
<path d="M4.42327 16H0.612453C0.274205 16 0 16.2742 0 16.6125V31.5155C0 31.8537 0.274205 32.1279 0.612453 32.1279H4.73919C4.92536 32.1279 5.10015 32.0383 5.20883 31.8872L8.38721 27.4665L11.7387 32.1279H17.9653L11.5644 23.3381C11.521 23.2785 11.5209 23.1977 11.5642 23.1381L15.7223 17.404C16.1464 16.8191 15.7286 16 15.0061 16H10.8936C10.6763 16 10.4721 16.1038 10.3439 16.2794L5.03573 23.5536V16.6125C5.03573 16.2742 4.76152 16 4.42327 16Z" fill="currentColor"/>
<path d="M24.2649 16C28.7185 16 32.3288 19.6104 32.3288 24.064C32.3288 28.5176 28.7185 32.1279 24.2649 32.1279C19.8113 32.1279 16.2009 28.5176 16.2009 24.064C16.2009 19.6104 19.8113 16 24.2649 16ZM24.2649 20.6785C22.3951 20.6785 20.8794 22.1942 20.8794 24.064C20.8794 25.9337 22.3951 27.4495 24.2649 27.4495C26.1346 27.4495 27.6504 25.9337 27.6504 24.064C27.6504 22.1942 26.1346 20.6785 24.2649 20.6785Z" fill="currentColor"/>
<path d="M34.9609 16C39.4145 16 43.0248 19.6104 43.0248 24.064C43.0248 28.5176 39.4145 32.1279 34.9609 32.1279C33.3774 32.1279 31.9005 31.6715 30.6546 30.8831C31.8517 29.9729 32.7898 28.6206 33.3074 27.0189C33.7964 27.2931 34.3604 27.4495 34.9609 27.4495C36.8306 27.4495 38.3464 25.9337 38.3464 24.064C38.3464 22.1942 36.8306 20.6785 34.9609 20.6785C34.3408 20.6785 33.7597 20.8452 33.2599 21.1362C32.7152 19.5432 31.7514 18.2075 30.5321 17.3239C31.8032 16.487 33.3252 16 34.9609 16Z" fill="currentColor"/>
<path d="M48.7241 16.034H45.3228C44.9841 16.034 44.7097 16.309 44.7104 16.6478L44.7415 31.313C44.7424 31.7445 45.0925 32.0939 45.524 32.0939H55.8013C56.1395 32.0939 56.4137 31.8197 56.4137 31.4815V27.8408C56.4137 27.5025 56.1395 27.2283 55.8013 27.2283H49.6768C49.4888 27.2283 49.3365 27.076 49.3365 26.8881V16.6465C49.3365 16.3082 49.0623 16.034 48.7241 16.034Z" fill="currentColor"/>
<path fill-rule="evenodd" clip-rule="evenodd" d="M64.2395 16.034C65.8319 16.034 66.2598 16.051 66.868 16.3147C70.969 18.0928 70.296 21.9034 69.4114 23.2899C72.6778 26.803 70.211 31.7707 66.0429 32.1109H59.0847C58.6149 32.1109 58.2341 31.7301 58.2341 31.2603V16.6125C58.2341 16.293 58.493 16.034 58.8125 16.034H64.2395ZM63.0827 25.7993C62.9511 25.7993 62.8445 25.9059 62.8445 26.0374V27.8408C62.8445 27.9723 62.9511 28.0789 63.0827 28.0789H65.7537C66.3738 28.0789 66.8765 27.5762 66.8765 26.9561V26.9221C66.8765 26.302 66.3738 25.7993 65.7537 25.7993H63.0827ZM63.0827 20.015C62.9511 20.015 62.8445 20.1216 62.8445 20.2531V21.5971C62.8445 21.7287 62.9511 21.8353 63.0827 21.8353H65.2093C65.679 21.8353 66.0599 21.4545 66.0599 20.9847V20.8656C66.0599 20.3958 65.679 20.015 65.2093 20.015H63.0827Z" fill="currentColor"/>
<path d="M84.2804 16.034H73.1541C72.8723 16.034 72.6438 16.2625 72.6438 16.5444V31.1922C72.6438 31.662 73.0246 32.0429 73.4944 32.0429H84.2804C84.581 32.0429 84.8248 31.7991 84.8248 31.4985V28.3511C84.8248 28.0505 84.581 27.8067 84.2804 27.8067H77.6114C77.4047 27.8067 77.2372 27.6392 77.2372 27.4325V26.7179C77.2372 26.5112 77.4047 26.3437 77.6114 26.3437H84.2804C84.581 26.3437 84.8248 26.0999 84.8248 25.7993V22.6009C84.8248 22.3002 84.581 22.0565 84.2804 22.0565H77.6114C77.4047 22.0565 77.2372 21.8889 77.2372 21.6822V21.0017C77.2372 20.795 77.4047 20.6274 77.6114 20.6274H84.2804C84.581 20.6274 84.8248 20.3837 84.8248 20.083V16.5784C84.8248 16.2778 84.581 16.034 84.2804 16.034Z" fill="currentColor"/>
</svg>
