<svg xmlns="http://www.w3.org/2000/svg" width="61" height="60" viewBox="0 0 61 60" fill="none">
<path opacity="0.4" d="M19.7721 52.275C19.6971 52.275 19.5971 52.325 19.5221 52.325C14.6721 49.925 10.7221 45.95 8.29711 41.1C8.29711 41.025 8.34711 40.925 8.34711 40.85C11.3971 41.75 14.5471 42.425 17.6721 42.95C18.2221 46.1 18.8721 49.225 19.7721 52.275ZM52.9996 41.125C50.5246 46.1 46.3996 50.125 41.3746 52.55C42.3246 49.375 43.1246 46.175 43.6496 42.95C46.7996 42.425 49.8996 41.75 52.9496 40.85C52.9246 40.95 52.9996 41.05 52.9996 41.125ZM53.1996 19.275C50.0496 18.325 46.8746 17.55 43.6496 17C43.1246 13.775 42.3496 10.575 41.3746 7.44995C46.5496 9.92495 50.7246 14.1 53.1996 19.275ZM19.7746 7.72245C18.8746 10.7725 18.2246 13.8725 17.6996 17.0225C14.4746 17.5225 11.2746 18.3225 8.09961 19.2725C10.5246 14.2475 14.5496 10.1225 19.5246 7.64745C19.5996 7.64745 19.6996 7.72245 19.7746 7.72245Z" fill="var(--main-color)"/>
<path d="M39.3804 16.475C33.5804 15.825 27.7304 15.825 21.9304 16.475C22.5554 13.05 23.3554 9.625 24.4804 6.325C24.5304 6.125 24.5054 5.975 24.5304 5.775C26.5054 5.3 28.5304 5 30.6554 5C32.7554 5 34.8054 5.3 36.7554 5.775C36.7804 5.975 36.7804 6.125 36.8304 6.325C37.9554 9.65 38.7554 13.05 39.3804 16.475ZM17.1254 38.73C13.6754 38.105 10.2754 37.305 6.97539 36.18C6.77539 36.13 6.62539 36.155 6.42539 36.13C5.95039 34.155 5.65039 32.13 5.65039 30.005C5.65039 27.905 5.95039 25.855 6.42539 23.905C6.62539 23.88 6.77539 23.88 6.97539 23.83C10.3004 22.73 13.6754 21.905 17.1254 21.28C16.5004 27.08 16.5004 32.93 17.1254 38.73ZM55.6504 30.005C55.6504 32.13 55.3504 34.155 54.8754 36.13C54.6754 36.155 54.5254 36.13 54.3254 36.18C51.0004 37.28 47.6004 38.105 44.1754 38.73C44.8254 32.93 44.8254 27.08 44.1754 21.28C47.6004 21.905 51.0254 22.705 54.3254 23.83C54.5254 23.88 54.6754 23.905 54.8754 23.905C55.3504 25.88 55.6504 27.905 55.6504 30.005ZM39.3804 43.525C38.7554 46.975 37.9554 50.375 36.8304 53.675C36.7804 53.875 36.7804 54.025 36.7554 54.225C34.8054 54.7 32.7554 55 30.6554 55C28.5304 55 26.5054 54.7 24.5304 54.225C24.5054 54.025 24.5304 53.875 24.4804 53.675C23.3933 50.3557 22.5412 46.964 21.9304 43.525C24.8304 43.85 27.7304 44.075 30.6554 44.075C33.5804 44.075 36.5054 43.85 39.3804 43.525ZM40.0579 39.4075C33.811 40.1964 27.4898 40.1964 21.2429 39.4075C20.4541 33.1606 20.4541 26.8394 21.2429 20.5925C27.4898 19.8037 33.811 19.8037 40.0579 20.5925C40.8468 26.8394 40.8468 33.1606 40.0579 39.4075Z" fill="var(--main-color)"/>
</svg>