<svg width="30" height="31" viewBox="0 0 30 31" fill="none" xmlns="http://www.w3.org/2000/svg">
<path fill-rule="evenodd" clip-rule="evenodd" d="M14.9946 30.4322C23.0148 30.4322 29.5165 23.7194 29.5165 15.4388C29.5165 7.15811 23.0148 0.445312 14.9946 0.445312C6.97433 0.445312 0.472656 7.15811 0.472656 15.4388C0.472656 23.7194 6.97433 30.4322 14.9946 30.4322ZM10.0356 7.31738C9.29556 7.31738 8.616 7.72604 8.26904 8.37971L5.96505 12.7204C5.5728 13.4594 5.68198 14.3644 6.23872 14.9889L13.5008 23.1351C14.2961 24.0273 15.6913 24.0273 16.4866 23.1351L23.7487 14.9889C24.3054 14.3644 24.4146 13.4594 24.0224 12.7204L21.7184 8.37971C21.3714 7.72603 20.6918 7.31738 19.9518 7.31738H10.0356Z" fill="var(--main-color)"/>
</svg>
