<!-- <svg width="48" height="48" viewBox="0 0 48 48" fill="none" xmlns="http://www.w3.org/2000/svg">
<circle cx="28" cy="24" r="18" fill="#FFF4F4"/>
<path fill-rule="evenodd" clip-rule="evenodd" d="M24.0801 5.27992C13.7413 5.27992 5.36006 13.6612 5.36006 23.9999C5.36006 34.3387 13.7413 42.7199 24.0801 42.7199C34.4188 42.7199 42.8001 34.3387 42.8001 23.9999V15.2399H46.1601V23.9999C46.1601 36.1944 36.2745 46.0799 24.0801 46.0799C11.8856 46.0799 2.00006 36.1944 2.00006 23.9999C2.00006 11.8055 11.8856 1.91992 24.0801 1.91992H44.3601V5.27992H24.0801Z" fill="#FFCDCB"/>
<path d="M46.1601 3.59992C46.1601 4.52776 45.4079 5.27992 44.4801 5.27992C43.5522 5.27992 42.8001 4.52776 42.8001 3.59992C42.8001 2.67208 43.5522 1.91992 44.4801 1.91992C45.4079 1.91992 46.1601 2.67208 46.1601 3.59992Z" fill="#FFCDCB"/>
<path d="M46.1601 15.1199C46.1601 16.0478 45.4079 16.7999 44.4801 16.7999C43.5522 16.7999 42.8001 16.0478 42.8001 15.1199C42.8001 14.1921 43.5522 13.4399 44.4801 13.4399C45.4079 13.4399 46.1601 14.1921 46.1601 15.1199Z" fill="#FFCDCB"/>
<path fill-rule="evenodd" clip-rule="evenodd" d="M15.8061 29.5823C16.5007 28.9671 17.5624 29.0315 18.1776 29.726C19.3272 31.0239 20.9262 32.5199 23.64 32.5199C26.5114 32.5199 28.4968 31.0922 29.4445 29.9866C30.0483 29.2821 31.1089 29.2006 31.8133 29.8044C32.5178 30.4082 32.5994 31.4688 31.9956 32.1733C30.5432 33.8676 27.6806 35.8799 23.64 35.8799C19.4418 35.8799 16.9928 33.4559 15.6624 31.9538C15.0472 31.2593 15.1115 30.1975 15.8061 29.5823Z" fill="#FFCDCB"/>
</svg> -->

<svg width="48" height="48" viewBox="0 0 48 48" fill="none" xmlns="http://www.w3.org/2000/svg">
<circle cx="28" cy="24" r="18" fill="#FFF4F4"/>
<path fill-rule="evenodd" clip-rule="evenodd" d="M24.08 5.28004C13.7412 5.28004 5.36 13.6613 5.36 24C5.36 34.3388 13.7412 42.72 24.08 42.72C34.4188 42.72 42.8 34.3388 42.8 24V15.24H46.16V24C46.16 36.1945 36.2744 46.08 24.08 46.08C11.8856 46.08 2 36.1945 2 24C2 11.8056 11.8856 1.92004 24.08 1.92004H44.36V5.28004H24.08Z" fill="#FFCDCB"/>
<path d="M46.16 3.60004C46.16 4.52788 45.4078 5.28004 44.48 5.28004C43.5522 5.28004 42.8 4.52788 42.8 3.60004C42.8 2.67221 43.5522 1.92004 44.48 1.92004C45.4078 1.92004 46.16 2.67221 46.16 3.60004Z" fill="#FFCDCB"/>
<path d="M46.16 15.12C46.16 16.0479 45.4078 16.8 44.48 16.8C43.5522 16.8 42.8 16.0479 42.8 15.12C42.8 14.1922 43.5522 13.44 44.48 13.44C45.4078 13.44 46.16 14.1922 46.16 15.12Z" fill="#FFCDCB"/>
<path fill-rule="evenodd" clip-rule="evenodd" d="M15.8064 29.5824C16.5009 28.9672 17.5627 29.0316 18.1779 29.7262C19.3275 31.0241 20.9264 32.5201 23.6403 32.5201C26.5116 32.5201 28.497 31.0924 29.4447 29.9867C30.0485 29.2823 31.1091 29.2007 31.8136 29.8045C32.5181 30.4083 32.5996 31.4689 31.9958 32.1734C30.5435 33.8677 27.6809 35.8801 23.6403 35.8801C19.4421 35.8801 16.993 33.456 15.6626 31.954C15.0474 31.2594 15.1118 30.1976 15.8064 29.5824Z" fill="#FFCDCB"/>
</svg>
