<svg width="464" height="324" viewBox="0 0 464 324" fill="none" xmlns="http://www.w3.org/2000/svg">
<g opacity="0.7">
<path d="M254.032 284.236H160.858C158.804 284.236 157.138 282.571 157.138 280.519V127.214C157.138 120.176 162.864 114.454 169.907 114.454H244.983C252.026 114.454 257.752 120.176 257.752 127.214V280.519C257.752 282.571 256.085 284.236 254.032 284.236ZM164.573 276.807H250.312V127.214C250.312 124.275 247.919 121.889 244.983 121.889H169.907C166.965 121.889 164.578 124.28 164.578 127.214V276.807H164.573Z" fill="#BAC0D0"/>
<path d="M157.138 276.661H257.752V297.911C257.752 300.678 255.505 302.923 252.736 302.923H162.153C159.384 302.923 157.138 300.678 157.138 297.911V276.661Z" fill="#CACFE0"/>
<path d="M207.442 295.723C210.616 295.723 213.189 293.152 213.189 289.98C213.189 286.808 210.616 284.237 207.442 284.237C204.267 284.237 201.694 286.808 201.694 289.98C201.694 293.152 204.267 295.723 207.442 295.723Z" fill="#B1B7C6"/>
<g opacity="0.7">
<path d="M203.935 138.983H175.914C173.978 138.983 172.408 140.551 172.408 142.486V247.951C172.408 249.885 173.978 251.454 175.914 251.454H203.935C205.871 251.454 207.44 249.885 207.44 247.951V142.486C207.44 140.551 205.871 138.983 203.935 138.983Z" fill="#CACFE0"/>
<path d="M189.574 160.164C193.144 160.164 196.038 157.273 196.038 153.706C196.038 150.139 193.144 147.248 189.574 147.248C186.005 147.248 183.111 150.139 183.111 153.706C183.111 157.273 186.005 160.164 189.574 160.164Z" fill="url(#paint0_linear_3021_93)"/>
<path d="M201.956 175.697H177.791V178.861H201.956V175.697Z" fill="url(#paint1_linear_3021_93)"/>
<path d="M201.956 166.644H177.791V169.808H201.956V166.644Z" fill="url(#paint2_linear_3021_93)"/>
<path d="M201.956 184.75H177.791V187.914H201.956V184.75Z" fill="url(#paint3_linear_3021_93)"/>
<path d="M201.956 194.373H177.791V197.537H201.956V194.373Z" fill="url(#paint4_linear_3021_93)"/>
<path d="M201.956 203.65H177.791V206.814H201.956V203.65Z" fill="url(#paint5_linear_3021_93)"/>
<path d="M201.956 212.928H177.791V216.092H201.956V212.928Z" fill="url(#paint6_linear_3021_93)"/>
<path d="M201.956 221.856H182.268V225.02H201.956V221.856Z" fill="url(#paint7_linear_3021_93)"/>
</g>
<g opacity="0.7">
<path d="M240.772 221.856H212.751C210.815 221.856 209.245 223.424 209.245 225.359V247.956C209.245 249.891 210.815 251.459 212.751 251.459H240.772C242.708 251.459 244.278 249.891 244.278 247.956V225.359C244.278 223.424 242.708 221.856 240.772 221.856Z" fill="#CACFE0"/>
<path d="M238.791 231.415H214.626V234.579H238.791V231.415Z" fill="url(#paint8_linear_3021_93)"/>
<path d="M238.79 240.343H219.103V243.507H238.79V240.343Z" fill="url(#paint9_linear_3021_93)"/>
</g>
<path d="M402.493 259.332H396.866V304.243H402.493V259.332Z" fill="#9A9DA7"/>
<path d="M440.8 259.332H435.173V304.243H440.8V259.332Z" fill="#9A9DA7"/>
<path d="M447.483 261.723H391.139V279.532H447.483V261.723Z" fill="#CACFE0"/>
<path fill-rule="evenodd" clip-rule="evenodd" d="M405.454 279.532H412.816L418.265 261.723H410.903L405.454 279.532ZM419.17 279.532H426.532L431.981 261.723H424.62L419.17 279.532ZM440.246 279.532H432.884L438.334 261.723H445.695L440.246 279.532ZM391.916 279.532H399.273L404.722 261.723H397.366L391.916 279.532Z" fill="url(#paint10_linear_3021_93)"/>
<path d="M156.769 299.712H129.224C128.488 299.712 127.891 300.308 127.891 301.043V301.048C127.891 301.784 128.488 302.38 129.224 302.38H156.769C157.505 302.38 158.101 301.784 158.101 301.048V301.043C158.101 300.308 157.505 299.712 156.769 299.712Z" fill="url(#paint11_linear_3021_93)"/>
<path d="M140.777 272.463L130.63 299.665H155.365L145.218 272.463C144.45 270.406 141.54 270.406 140.777 272.463Z" fill="#CACFE0"/>
<path d="M133.354 292.361L130.627 299.665H155.361L152.634 292.361H133.354Z" fill="url(#paint12_linear_3021_93)"/>
<path d="M150.133 285.647L147.401 278.322H138.592L135.859 285.647H150.133Z" fill="url(#paint13_linear_3021_93)"/>
<path d="M288.549 299.712H261.004C260.268 299.712 259.672 300.308 259.672 301.043V301.048C259.672 301.784 260.268 302.38 261.004 302.38H288.549C289.285 302.38 289.882 301.784 289.882 301.048V301.043C289.882 300.308 289.285 299.712 288.549 299.712Z" fill="url(#paint14_linear_3021_93)"/>
<path d="M272.558 272.463L262.411 299.665H287.145L276.999 272.463C276.231 270.406 273.32 270.406 272.558 272.463Z" fill="#CACFE0"/>
<path d="M265.137 292.361L262.409 299.665H287.144L284.416 292.361H265.137Z" fill="url(#paint15_linear_3021_93)"/>
<path d="M281.916 285.647L279.183 278.322H270.374L267.641 285.647H281.916Z" fill="url(#paint16_linear_3021_93)"/>
<path d="M357.038 271.675H330.934C330.36 271.675 329.89 271.205 329.89 270.631V14.6126C329.89 14.3411 329.994 14.0852 330.182 13.8868L343.234 0.317402C343.631 -0.0950585 344.347 -0.0950585 344.738 0.317402L357.79 13.8868C357.978 14.08 358.083 14.3411 358.083 14.6126V270.625C358.083 271.2 357.612 271.67 357.038 271.67V271.675ZM331.979 269.586H355.993V15.0355L343.986 2.552L331.979 15.0355V269.586Z" fill="#BAC0D0"/>
<path d="M357.039 59.4246H330.936C330.503 59.4246 330.111 59.1531 329.959 58.7511C329.808 58.3439 329.917 57.8844 330.247 57.5972L354.27 36.4678H330.936C330.492 36.4678 330.1 36.1911 329.949 35.7734C329.797 35.3557 329.933 34.891 330.278 34.6143L354.077 15.4427H330.936V13.3543H357.039C357.484 13.3543 357.875 13.631 358.027 14.0487C358.178 14.4664 358.043 14.9311 357.698 15.2078L333.899 34.3794H357.039C357.473 34.3794 357.865 34.6509 358.017 35.0529C358.168 35.4601 358.058 35.9196 357.729 36.2067L333.705 57.3362H357.039V59.4246Z" fill="#BAC0D0"/>
<path d="M331.593 271.148L330.271 269.529L354.112 250.023H330.934C330.49 250.023 330.098 249.747 329.952 249.329C329.806 248.911 329.931 248.447 330.276 248.17L354.106 228.742H330.939C330.495 228.742 330.103 228.46 329.952 228.043C329.806 227.625 329.936 227.16 330.281 226.884L354.07 207.77H330.934C330.49 207.77 330.098 207.493 329.952 207.075C329.806 206.657 329.936 206.193 330.281 205.916L354.091 186.645H330.939C330.495 186.645 330.103 186.369 329.957 185.951C329.811 185.533 329.941 185.069 330.286 184.792L354.096 165.521H330.945C330.501 165.521 330.109 165.239 329.957 164.821C329.811 164.404 329.941 163.939 330.286 163.662L354.075 144.548H330.939C330.495 144.548 330.098 144.266 329.952 143.849C329.806 143.431 329.941 142.966 330.286 142.689L354.059 123.711H330.939C330.501 123.711 330.103 123.434 329.957 123.022C329.811 122.609 329.936 122.145 330.276 121.863L354.132 102.232H330.945C330.495 102.232 330.098 101.945 329.952 101.522C329.811 101.094 329.952 100.629 330.312 100.357L353.923 82.559H330.939V80.4706H357.043C357.492 80.4706 357.889 80.7577 358.035 81.1806C358.176 81.6088 358.035 82.0734 357.675 82.3449L334.064 100.143H357.048C357.487 100.143 357.884 100.42 358.03 100.833C358.176 101.245 358.051 101.71 357.711 101.992L333.855 121.623H357.043C357.487 121.623 357.884 121.905 358.03 122.322C358.176 122.74 358.041 123.205 357.696 123.481L333.923 142.46H357.043C357.487 142.46 357.879 142.742 358.03 143.159C358.176 143.577 358.046 144.042 357.701 144.318L333.912 163.433H357.048C357.492 163.433 357.884 163.709 358.035 164.127C358.182 164.545 358.051 165.009 357.706 165.286L333.897 184.557H357.048C357.492 184.557 357.884 184.834 358.035 185.251C358.182 185.669 358.051 186.134 357.706 186.41L333.897 205.681H357.048C357.492 205.681 357.884 205.963 358.035 206.381C358.182 206.798 358.051 207.263 357.706 207.54L333.918 226.654H357.053C357.497 226.654 357.889 226.931 358.035 227.348C358.182 227.766 358.056 228.231 357.711 228.507L333.881 247.935H357.048C357.487 247.935 357.884 248.212 358.03 248.629C358.176 249.047 358.051 249.506 357.706 249.788L331.603 271.148H331.593Z" fill="#BAC0D0"/>
<path d="M405.809 59.4245H208.347C207.772 59.4245 207.302 58.9546 207.302 58.3803V36.3842C207.302 35.8099 207.772 35.34 208.347 35.34H405.809C406.383 35.34 406.853 35.8099 406.853 36.3842V58.3803C406.853 58.9546 406.383 59.4245 405.809 59.4245ZM209.392 57.3361H404.764V37.4284H209.392V57.3361Z" fill="#BAC0D0"/>
<path d="M379.586 59.4245C379.434 59.4245 379.283 59.3932 379.147 59.3253C378.776 59.153 378.541 58.7823 378.541 58.3803V36.3842H380.631V56.1405L405.135 35.5853C405.449 35.3243 405.882 35.2669 406.248 35.4392C406.619 35.6115 406.854 35.9821 406.854 36.3842V58.3803H404.764V38.624L380.26 59.1791C380.066 59.341 379.826 59.4245 379.586 59.4245Z" fill="#BAC0D0"/>
<path d="M357.039 59.4246C356.904 59.4246 356.762 59.3985 356.632 59.341C356.245 59.1792 355.994 58.798 355.994 58.3804V36.3842H358.084V55.9004L378.853 35.6376C379.156 35.3452 379.6 35.2617 379.987 35.4235C380.373 35.5854 380.624 35.9665 380.624 36.3842V58.3804H378.534V38.8642L357.766 59.127C357.567 59.3201 357.301 59.4246 357.034 59.4246H357.039Z" fill="#BAC0D0"/>
<path d="M330.936 59.4245C330.784 59.4245 330.638 59.3932 330.497 59.3253C330.126 59.153 329.891 58.7823 329.891 58.3803V36.3842H331.981V56.1301L356.365 35.5853C356.679 35.3243 357.112 35.2669 357.478 35.4392C357.849 35.6115 358.084 35.9821 358.084 36.3842V58.3803H355.994V38.6344L331.61 59.1791C331.417 59.341 331.176 59.4245 330.936 59.4245Z" fill="#BAC0D0"/>
<path d="M306.417 59.4246C306.27 59.4246 306.129 59.3932 305.993 59.3358C305.617 59.1687 305.372 58.7928 305.372 58.3804V36.3842H307.462V56.0361L330.237 35.6063C330.545 35.3296 330.984 35.2617 331.36 35.4288C331.736 35.5958 331.982 35.9717 331.982 36.3842V58.3804H329.892V38.7284L307.117 59.1583C306.924 59.3358 306.673 59.4246 306.417 59.4246Z" fill="#BAC0D0"/>
<path d="M281.902 59.4246C281.756 59.4246 281.615 59.3932 281.479 59.3358C281.103 59.1687 280.857 58.7928 280.857 58.3804V36.3842H282.947V56.0361L305.722 35.6063C306.03 35.3296 306.469 35.2617 306.845 35.4288C307.222 35.5958 307.467 35.9717 307.467 36.3842V58.3804H305.377V38.7284L282.602 59.1583C282.409 59.3358 282.158 59.4246 281.902 59.4246Z" fill="#BAC0D0"/>
<path d="M257.381 59.4246C257.234 59.4246 257.093 59.3932 256.957 59.3358C256.581 59.1687 256.336 58.7928 256.336 58.3804V36.3842H258.425V56.0361L281.2 35.6063C281.509 35.3296 281.948 35.2617 282.324 35.4288C282.7 35.5958 282.946 35.9717 282.946 36.3842V58.3804H280.856V38.7284L258.081 59.1583C257.887 59.3358 257.637 59.4246 257.381 59.4246Z" fill="#BAC0D0"/>
<path d="M232.866 59.4246C232.72 59.4246 232.578 59.3932 232.443 59.3358C232.066 59.1687 231.821 58.7928 231.821 58.3804V36.3842H233.911V56.0361L256.686 35.6063C256.994 35.3296 257.433 35.2617 257.809 35.4288C258.185 35.5958 258.431 35.9717 258.431 36.3842V58.3804H256.341V38.7284L233.566 59.1583C233.373 59.3358 233.122 59.4246 232.866 59.4246Z" fill="#BAC0D0"/>
<path d="M208.347 59.4246C208.2 59.4246 208.059 59.3932 207.923 59.3358C207.547 59.1687 207.302 58.7928 207.302 58.3804V36.3842H209.392V56.0361L232.167 35.6063C232.475 35.3296 232.914 35.2617 233.29 35.4288C233.666 35.5958 233.912 35.9717 233.912 36.3842V58.3804H231.822V38.7284L209.047 59.1583C208.853 59.3358 208.603 59.4246 208.347 59.4246Z" fill="#BAC0D0"/>
<path d="M302.017 76.4956L302.015 76.4937C301.659 76.1495 301.46 75.6788 301.46 75.1817V58.9538H356.459V93.4406H320.14C319.661 93.4406 319.199 93.2503 318.857 92.9159L318.857 92.9157L302.017 76.4956ZM328.317 75.9378C329.457 75.9378 330.38 75.0161 330.38 73.8765V66.0501C330.38 64.9105 329.457 63.9888 328.317 63.9888H313.578C312.438 63.9888 311.515 64.9105 311.515 66.0501V73.8765C311.515 75.0161 312.438 75.9378 313.578 75.9378H328.317ZM350.925 75.9378C352.064 75.9378 352.987 75.0161 352.987 73.8765V66.0501C352.987 64.9105 352.064 63.9888 350.925 63.9888H336.186C335.046 63.9888 334.123 64.9105 334.123 66.0501V73.8765C334.123 75.0161 335.046 75.9378 336.186 75.9378H350.925Z" fill="#AFB0B4" fill-opacity="0.7" stroke="#A0A8BD" stroke-width="1.15714"/>
<path d="M229.563 37.3814L228.947 35.387L343.679 0.0459015C343.966 -0.0428558 344.279 -0.00108766 344.535 0.155543L401.721 35.4966L400.624 37.2718L343.841 2.1813L229.563 37.3814Z" fill="#BAC0D0"/>
<path d="M210.931 58.3805H208.841V80.8727H210.931V58.3805Z" fill="#BAC0D0"/>
<path d="M209.886 92.5206C213.935 92.5206 217.217 89.2411 217.217 85.1955C217.217 81.15 213.935 77.8704 209.886 77.8704C205.838 77.8704 202.556 81.15 202.556 85.1955C202.556 89.2411 205.838 92.5206 209.886 92.5206Z" fill="#BAC0D0"/>
<path d="M235.033 122.993L211.547 110.703C210.048 109.92 208.318 109.706 206.673 110.108L183.641 115.7L183.375 114.593L206.406 109.001C208.318 108.536 210.335 108.782 212.08 109.695L235.566 121.986L235.038 122.993H235.033Z" fill="#9B9FAC"/>
<path d="M209.887 112.653C205.269 112.653 201.512 108.899 201.512 104.284H203.602C203.602 107.745 206.423 110.565 209.887 110.565C213.351 110.565 216.173 107.745 216.173 104.284C216.173 100.822 213.351 98.0027 209.887 98.0027H208.842V90.9439H210.932V95.977C215.06 96.4939 218.263 100.018 218.263 104.284C218.263 108.899 214.506 112.653 209.887 112.653Z" fill="#BAC0D0"/>
<path d="M209.886 59.4246H188.203C187.791 59.4246 187.414 59.1792 187.247 58.8033C187.08 58.4222 187.153 57.9836 187.43 57.6756L207.572 35.6794C207.864 35.3609 208.319 35.2565 208.721 35.4131C209.124 35.5697 209.39 35.9561 209.39 36.3842V57.3362H209.886V59.4246ZM190.581 57.3362H207.3V39.073L190.581 57.3362Z" fill="#BAC0D0"/>
<path d="M382.024 297.691H305.945V302.416H382.024V297.691Z" fill="url(#paint17_linear_3021_93)"/>
<path d="M317.802 270.631H370.176C371.252 270.631 372.13 271.502 372.13 272.583V280.686H315.853V272.583C315.853 271.508 316.726 270.631 317.808 270.631H317.802Z" fill="url(#paint18_linear_3021_93)"/>
<path d="M382.024 297.691H305.945L310.282 283.474C310.81 281.746 312.403 280.566 314.211 280.566H373.764C375.572 280.566 377.165 281.746 377.693 283.474L382.029 297.691H382.024Z" fill="#CACFDD"/>
<g opacity="0.5">
<path d="M91.7632 299.261V301.837H32.7982V299.261H91.7632Z" fill="#9099B1" stroke="#5C6C80" stroke-width="1.15714"/>
<path opacity="0.5" d="M83.9411 284.66H40.6193V278.51C40.6193 277.753 41.2335 277.136 41.9948 277.136H82.5656C83.3238 277.136 83.9411 277.75 83.9411 278.51V284.66Z" fill="#9099B1" stroke="#4A5766" stroke-width="1.15714"/>
<path d="M91.5607 298.104H33.0014L36.2006 287.617C36.2006 287.617 36.2007 287.617 36.2007 287.617C36.5446 286.496 37.5799 285.729 38.751 285.729H85.811C86.9823 285.729 88.0177 286.496 88.3615 287.617L91.5607 298.104Z" fill="#9099B1" stroke="#5C6C80" stroke-width="1.15714"/>
<path d="M51.1445 277.298V56.9778C51.1445 56.7638 51.2281 56.5601 51.3744 56.4035L61.6882 45.6795C62.0017 45.3558 62.566 45.3558 62.8795 45.6795L73.1933 56.4035C73.3396 56.5549 73.4232 56.7638 73.4232 56.9778V277.298C73.4232 277.752 73.0522 278.123 72.5977 278.123H51.97C51.5155 278.123 51.1445 277.752 51.1445 277.298ZM71.7722 57.3068L62.2839 47.4442L52.7956 57.3068V276.467H71.7722V57.3068Z" fill="#989FB1"/>
<path d="M51.9684 110.387H72.596C72.9409 110.387 73.2491 110.173 73.3693 109.854C73.4895 109.531 73.4007 109.17 73.1446 108.946L54.1576 92.2489H72.596C72.9461 92.2489 73.2596 92.0297 73.3745 91.7007C73.4895 91.3718 73.385 91.0011 73.1133 90.7818L54.3091 75.6304H72.596V73.9806H51.9684C51.6183 73.9806 51.3049 74.1999 51.1899 74.5288C51.075 74.8577 51.1795 75.2284 51.4512 75.4477L70.2553 90.5991H51.9684C51.6236 90.5991 51.3153 90.8132 51.1951 91.1317C51.075 91.4554 51.1638 91.8156 51.4198 92.0401L70.4068 108.737H51.9684V110.387Z" fill="#989FB1"/>
<path d="M51.9684 92.4062H72.596C72.9409 92.4062 73.2491 92.1921 73.3693 91.8736C73.4895 91.5499 73.4007 91.1897 73.1446 90.9652L54.1576 74.2684H72.596C72.9461 74.2684 73.2596 74.0491 73.3745 73.7201C73.4895 73.3912 73.385 73.0205 73.1133 72.8013L54.3091 57.6498H72.596V56H51.9684C51.6183 56 51.3049 56.2193 51.1899 56.5482C51.075 56.8771 51.1795 57.2478 51.4512 57.4671L70.2553 72.6185H51.9684C51.6236 72.6185 51.3153 72.8326 51.1951 73.1511C51.075 73.4748 51.1638 73.835 51.4198 74.0595L70.4068 90.7563H51.9684V92.4062Z" fill="#989FB1"/>
<path d="M72.0735 277.705L73.1185 276.426L54.2777 261.013H72.596C72.9461 261.013 73.2543 260.794 73.3745 260.465C73.4894 260.136 73.3902 259.771 73.1185 259.551L54.2882 244.196H72.596C72.9461 244.196 73.2595 243.977 73.3745 243.643C73.4894 243.314 73.3849 242.943 73.1132 242.724L54.3143 227.62H72.596C72.9461 227.62 73.2595 227.4 73.3745 227.071C73.4894 226.743 73.3902 226.377 73.1185 226.153L54.3039 210.923H72.6012C72.9513 210.923 73.2648 210.704 73.3797 210.375C73.4947 210.046 73.3954 209.68 73.1237 209.456L54.3091 194.226H72.6064C72.9565 194.226 73.27 194.007 73.3849 193.673C73.4999 193.344 73.3954 192.973 73.1237 192.754L54.3248 177.649H72.6064C72.9565 177.649 73.27 177.43 73.3849 177.096C73.4999 176.767 73.3954 176.396 73.1185 176.177L54.33 161.182H72.6012C72.9513 161.182 73.2595 160.963 73.3797 160.634C73.4999 160.305 73.3954 159.94 73.1289 159.72L54.2777 144.209H72.6064C72.9617 144.209 73.2752 143.984 73.3902 143.645C73.5051 143.311 73.3902 142.94 73.1028 142.726L54.4449 128.66H72.6064V127.011H51.9788C51.6235 127.011 51.31 127.235 51.1951 127.574C51.0801 127.909 51.1951 128.279 51.4825 128.493L70.1403 142.559H51.9788C51.6287 142.559 51.3205 142.778 51.2003 143.107C51.0801 143.436 51.1846 143.801 51.4511 144.021L70.3023 159.532H51.9736C51.6235 159.532 51.31 159.752 51.1951 160.086C51.0801 160.415 51.1846 160.785 51.4616 161.005L70.25 175.999H51.9788C51.6287 175.999 51.3153 176.219 51.2003 176.553C51.0854 176.882 51.1899 177.252 51.4616 177.472L70.2605 192.576H51.9788C51.6287 192.576 51.3153 192.795 51.2003 193.124C51.0854 193.453 51.1899 193.819 51.4616 194.043L70.2762 209.273H51.9788C51.6287 209.273 51.3153 209.492 51.2003 209.821C51.0854 210.15 51.1899 210.516 51.4616 210.74L70.2762 225.97H51.9788C51.6287 225.97 51.3153 226.189 51.2003 226.523C51.0854 226.852 51.1899 227.223 51.4616 227.442L70.2605 242.547H51.9788C51.6287 242.547 51.3205 242.766 51.2003 243.095C51.0854 243.424 51.1846 243.789 51.4563 244.008L70.2866 259.363H51.9788C51.6287 259.363 51.3205 259.583 51.2003 259.912C51.0801 260.241 51.1846 260.606 51.4563 260.825L72.084 277.705H72.0735Z" fill="#989FB1"/>
<path d="M12.5996 91.562V74.1812C12.5996 73.727 12.9706 73.3563 13.4251 73.3563H169.47C169.924 73.3563 170.295 73.727 170.295 74.1812V91.562C170.295 92.0162 169.924 92.3869 169.47 92.3869H13.4251C12.9706 92.3869 12.5996 92.0162 12.5996 91.562ZM168.644 75.0061H14.2559V90.737H168.65V75.0061H168.644Z" fill="#989FB1"/>
<path d="M34.1461 92.3867C34.2663 92.3867 34.3812 92.3606 34.4962 92.3084C34.7887 92.1726 34.9716 91.8803 34.9716 91.5618V74.181H33.3206V89.7919L13.9574 73.5493C13.7118 73.3404 13.367 73.2987 13.0796 73.4344C12.787 73.5702 12.6041 73.8625 12.6041 74.181V91.5618H14.2552V75.9509L33.6184 92.1935C33.7699 92.3188 33.958 92.3867 34.1513 92.3867H34.1461Z" fill="#989FB1"/>
<path d="M51.9694 92.3868C52.0791 92.3868 52.1888 92.366 52.2881 92.3242C52.5964 92.1937 52.7949 91.8961 52.7949 91.5619V74.1812H51.1439V89.6041L34.7274 73.5912C34.4871 73.3614 34.137 73.2936 33.8288 73.4189C33.5205 73.5494 33.322 73.847 33.322 74.1812V91.5619H34.973V76.139L51.3894 92.1519C51.5462 92.3033 51.7552 92.3868 51.9641 92.3868H51.9694Z" fill="#989FB1"/>
<path d="M72.5948 92.3867C72.715 92.3867 72.83 92.3606 72.9449 92.3084C73.2375 92.1726 73.4204 91.8803 73.4204 91.5618V74.181H71.7693V89.7866L52.5001 73.5493C52.2546 73.3404 51.9097 73.2987 51.6224 73.4344C51.3298 73.5702 51.1469 73.8625 51.1469 74.181V91.5618H52.798V75.9562L72.0671 92.1935C72.2186 92.3241 72.4067 92.3867 72.6001 92.3867H72.5948Z" fill="#989FB1"/>
<path d="M91.9697 92.3868C92.0847 92.3868 92.1996 92.3659 92.3041 92.3137C92.6019 92.1832 92.7953 91.8856 92.7953 91.5619V74.1811H91.1442V89.7137L73.1447 73.5703C72.9043 73.351 72.5543 73.2988 72.2565 73.4293C71.9586 73.5598 71.7653 73.8574 71.7653 74.1811V91.5619H73.4164V76.0294L91.4159 92.1728C91.5726 92.3137 91.766 92.3816 91.9697 92.3816V92.3868Z" fill="#989FB1"/>
<path d="M111.343 92.3868C111.458 92.3868 111.573 92.3659 111.677 92.3137C111.975 92.1832 112.168 91.8856 112.168 91.5619V74.1811H110.517V89.7137L92.5178 73.5703C92.2774 73.351 91.9274 73.2988 91.6296 73.4293C91.3317 73.5598 91.1384 73.8574 91.1384 74.1811V91.5619H92.7895V76.0294L110.789 92.1728C110.946 92.3137 111.139 92.3816 111.343 92.3816V92.3868Z" fill="#989FB1"/>
<path d="M130.72 92.3868C130.835 92.3868 130.95 92.3659 131.055 92.3137C131.353 92.1832 131.546 91.8856 131.546 91.5619V74.1811H129.895V89.7137L111.895 73.5703C111.65 73.351 111.305 73.2988 111.007 73.4293C110.709 73.5598 110.516 73.8574 110.516 74.1811V91.5619H112.167V76.0294L130.167 92.1728C130.323 92.3137 130.517 92.3816 130.72 92.3816V92.3868Z" fill="#989FB1"/>
<path d="M150.096 92.3868C150.211 92.3868 150.326 92.3659 150.43 92.3137C150.728 92.1832 150.921 91.8856 150.921 91.5619V74.1811H149.27V89.7137L131.271 73.5703C131.03 73.351 130.68 73.2988 130.383 73.4293C130.085 73.5598 129.891 73.8574 129.891 74.1811V91.5619H131.542V76.0294L149.542 92.1728C149.699 92.3137 149.892 92.3816 150.096 92.3816V92.3868Z" fill="#989FB1"/>
<path d="M169.471 92.3868C169.586 92.3868 169.701 92.3659 169.806 92.3137C170.103 92.1832 170.297 91.8856 170.297 91.5619V74.1811H168.646V89.7137L150.646 73.5703C150.406 73.351 150.056 73.2988 149.758 73.4293C149.46 73.5598 149.267 73.8574 149.267 74.1811V91.5619H150.918V76.0294L168.917 92.1728C169.074 92.3137 169.267 92.3816 169.471 92.3816V92.3868Z" fill="#989FB1"/>
<path d="M52.5457 110.141H95.763V122.839C95.763 123.202 95.6206 123.543 95.3638 123.792L95.3629 123.793L82.0553 136.772L82.0533 136.774C81.8081 137.016 81.474 137.151 81.1269 137.151H52.5457V110.141ZM74.6638 113.876C73.6968 113.876 72.9096 114.661 72.9096 115.629V121.816C72.9096 122.783 73.6968 123.569 74.6638 123.569H86.3099C87.277 123.569 88.0641 122.783 88.0641 121.816V115.629C88.0641 114.661 87.277 113.876 86.3099 113.876H74.6638ZM56.7949 113.876C55.8279 113.876 55.0407 114.661 55.0407 115.629V121.816C55.0407 122.783 55.8279 123.569 56.7949 123.569H68.441C69.408 123.569 70.1952 122.783 70.1952 121.816V115.629C70.1952 114.661 69.408 113.876 68.441 113.876H56.7949Z" fill="#AFB0B4" fill-opacity="0.7" stroke="#6E7689" stroke-width="1.15714"/>
<path d="M152.702 74.9696L153.188 73.3928L62.5211 45.4656C62.2965 45.3977 62.0457 45.429 61.8419 45.5543L16.6523 73.4816L17.5197 74.886L62.3905 47.152L152.696 74.9696H152.702Z" fill="#989FB1"/>
<path d="M168.252 90.7371H168.644V74.1812C168.644 73.8418 168.853 73.5338 169.172 73.4137C169.49 73.2884 169.851 73.3772 170.081 73.6278L185.995 91.0085C186.215 91.2487 186.272 91.5985 186.142 91.8961C186.011 92.1937 185.713 92.3869 185.384 92.3869H168.252V90.7371ZM170.295 76.3061V90.7371H183.508L170.295 76.3061Z" fill="#989FB1"/>
</g>
<path d="M36.7382 253.584H30.3953V304.243H36.7382V253.584Z" fill="#9A9DA7"/>
<path d="M79.948 253.584H73.605V304.243H79.948V253.584Z" fill="#9A9DA7"/>
<path d="M87.4879 256.283H23.9383V276.374H87.4879V256.283Z" fill="#CACFE0"/>
<path fill-rule="evenodd" clip-rule="evenodd" d="M24.8107 276.374H33.1129L39.2625 256.283H30.9603L24.8107 276.374ZM40.0884 276.374H48.3855L54.5351 256.283H46.2328L40.0884 276.374ZM55.5584 276.374H63.8555L70.0051 256.283H61.7028L55.5584 276.374ZM79.3262 276.374H71.0239L77.1735 256.283H85.4758L79.3262 276.374Z" fill="url(#paint19_linear_3021_93)"/>
<path d="M461.599 306.071H2.399C1.39061 306.071 0.570312 305.251 0.570312 304.244C0.570312 303.236 1.39061 302.416 2.399 302.416H461.599C462.607 302.416 463.427 303.236 463.427 304.244C463.427 305.251 462.607 306.071 461.599 306.071Z" fill="#B6B9BC"/>
<path d="M376.95 324H129.047C128.039 324 127.219 323.18 127.219 322.172C127.219 321.165 128.039 320.345 129.047 320.345H376.955C377.963 320.345 378.784 321.165 378.784 322.172C378.784 323.18 377.963 324 376.955 324H376.95Z" fill="#B6B9BC"/>
<path d="M75.0336 324H58.0842C57.0759 324 56.2556 323.18 56.2556 322.172C56.2556 321.165 57.0759 320.345 58.0842 320.345H75.0336C76.042 320.345 76.8623 321.165 76.8623 322.172C76.8623 323.18 76.042 324 75.0336 324Z" fill="#B6B9BC"/>
<path fill-rule="evenodd" clip-rule="evenodd" d="M211.171 110.52L211.172 110.507L212.566 109.949L212.081 109.695C210.336 108.782 208.319 108.536 206.406 109.001L183.375 114.593L183.642 115.699L206.673 110.108C208.182 109.739 209.762 109.889 211.171 110.52Z" fill="#B3BACC"/>
<g filter="url(#filter0_d_3021_93)">
<path d="M235.745 119.974L180.963 113.281C177.918 112.909 175.148 115.074 174.776 118.117L170.188 155.617C169.816 158.659 171.982 161.427 175.027 161.799L229.809 168.492C232.854 168.863 235.624 166.699 235.996 163.656L240.584 126.156C240.956 123.113 238.79 120.346 235.745 119.974Z" fill="#A1A7C0"/>
</g>
<path d="M231.679 123.658L184.023 117.836C181.33 117.507 178.881 119.421 178.552 122.112L174.884 152.092C174.555 154.782 176.47 157.23 179.163 157.559L226.819 163.381C229.511 163.71 231.961 161.795 232.29 159.105L235.958 129.125C236.287 126.434 234.371 123.986 231.679 123.658Z" fill="#F2F2F1"/>
<path d="M195.119 129.788L188.329 132.672L189.11 134.508L195.9 131.624L195.119 129.788Z" fill="#99A0AE"/>
<path d="M194.185 142.431C195.812 142.431 197.132 141.113 197.132 139.486C197.132 137.86 195.812 136.542 194.185 136.542C192.557 136.542 191.238 137.86 191.238 139.486C191.238 141.113 192.557 142.431 194.185 142.431Z" fill="#99A0AE"/>
<path d="M216.194 134.114L222.088 138.547L223.288 136.954L217.394 132.52L216.194 134.114Z" fill="#99A0AE"/>
<path d="M215.972 145.094C217.599 145.094 218.919 143.775 218.919 142.149C218.919 140.523 217.599 139.205 215.972 139.205C214.344 139.205 213.025 140.523 213.025 142.149C213.025 143.775 214.344 145.094 215.972 145.094Z" fill="#99A0AE"/>
<path d="M207.719 148.155C207.892 146.735 206.468 145.393 204.537 145.157C202.607 144.922 200.901 145.881 200.728 147.301C200.554 148.721 201.978 150.063 203.909 150.298C205.839 150.534 207.545 149.575 207.719 148.155Z" fill="#99A0AE"/>
</g>
<defs>
<filter id="filter0_d_3021_93" x="142.375" y="90.0967" width="139.908" height="124.722" filterUnits="userSpaceOnUse" color-interpolation-filters="sRGB">
<feFlood flood-opacity="0" result="BackgroundImageFix"/>
<feColorMatrix in="SourceAlpha" type="matrix" values="0 0 0 0 0 0 0 0 0 0 0 0 0 0 0 0 0 0 127 0" result="hardAlpha"/>
<feOffset dx="6.94286" dy="11.5714"/>
<feGaussianBlur stdDeviation="17.3571"/>
<feColorMatrix type="matrix" values="0 0 0 0 0.337255 0 0 0 0 0.443137 0 0 0 0 0.6 0 0 0 0.2 0"/>
<feBlend mode="normal" in2="BackgroundImageFix" result="effect1_dropShadow_3021_93"/>
<feBlend mode="normal" in="SourceGraphic" in2="effect1_dropShadow_3021_93" result="shape"/>
</filter>
<linearGradient id="paint0_linear_3021_93" x1="183.111" y1="153.706" x2="196.038" y2="153.706" gradientUnits="userSpaceOnUse">
<stop stop-color="#ADB8C9"/>
<stop offset="0.99" stop-color="#98A0B0"/>
</linearGradient>
<linearGradient id="paint1_linear_3021_93" x1="177.791" y1="177.279" x2="201.951" y2="177.279" gradientUnits="userSpaceOnUse">
<stop stop-color="#ADB8C9"/>
<stop offset="0.99" stop-color="#98A0B0"/>
</linearGradient>
<linearGradient id="paint2_linear_3021_93" x1="177.791" y1="168.226" x2="201.951" y2="168.226" gradientUnits="userSpaceOnUse">
<stop stop-color="#ADB8C9"/>
<stop offset="0.99" stop-color="#98A0B0"/>
</linearGradient>
<linearGradient id="paint3_linear_3021_93" x1="177.791" y1="186.332" x2="201.951" y2="186.332" gradientUnits="userSpaceOnUse">
<stop stop-color="#ADB8C9"/>
<stop offset="0.99" stop-color="#98A0B0"/>
</linearGradient>
<linearGradient id="paint4_linear_3021_93" x1="177.791" y1="195.955" x2="201.951" y2="195.955" gradientUnits="userSpaceOnUse">
<stop stop-color="#ADB8C9"/>
<stop offset="0.99" stop-color="#98A0B0"/>
</linearGradient>
<linearGradient id="paint5_linear_3021_93" x1="177.791" y1="205.232" x2="201.951" y2="205.232" gradientUnits="userSpaceOnUse">
<stop stop-color="#ADB8C9"/>
<stop offset="0.99" stop-color="#98A0B0"/>
</linearGradient>
<linearGradient id="paint6_linear_3021_93" x1="177.791" y1="214.51" x2="201.951" y2="214.51" gradientUnits="userSpaceOnUse">
<stop stop-color="#ADB8C9"/>
<stop offset="0.99" stop-color="#98A0B0"/>
</linearGradient>
<linearGradient id="paint7_linear_3021_93" x1="182.268" y1="223.438" x2="201.95" y2="223.438" gradientUnits="userSpaceOnUse">
<stop stop-color="#ADB8C9"/>
<stop offset="0.99" stop-color="#98A0B0"/>
</linearGradient>
<linearGradient id="paint8_linear_3021_93" x1="214.626" y1="232.997" x2="238.786" y2="232.997" gradientUnits="userSpaceOnUse">
<stop stop-color="#ADB8C9"/>
<stop offset="0.99" stop-color="#98A0B0"/>
</linearGradient>
<linearGradient id="paint9_linear_3021_93" x1="219.103" y1="241.925" x2="238.785" y2="241.925" gradientUnits="userSpaceOnUse">
<stop stop-color="#ADB8C9"/>
<stop offset="0.99" stop-color="#98A0B0"/>
</linearGradient>
<linearGradient id="paint10_linear_3021_93" x1="415.407" y1="280.029" x2="421.193" y2="261.514" gradientUnits="userSpaceOnUse">
<stop stop-color="#B6BBC4"/>
<stop offset="0.99" stop-color="#C8CDD3"/>
</linearGradient>
<linearGradient id="paint11_linear_3021_93" x1="142.996" y1="302.374" x2="142.996" y2="299.712" gradientUnits="userSpaceOnUse">
<stop stop-color="#CED5E0"/>
<stop offset="0.99" stop-color="#DFE5EC"/>
</linearGradient>
<linearGradient id="paint12_linear_3021_93" x1="130.627" y1="296.01" x2="155.361" y2="296.01" gradientUnits="userSpaceOnUse">
<stop stop-color="#B3B8BE"/>
<stop offset="0.99" stop-color="#808488"/>
</linearGradient>
<linearGradient id="paint13_linear_3021_93" x1="135.859" y1="281.981" x2="150.133" y2="281.981" gradientUnits="userSpaceOnUse">
<stop stop-color="#B3B8BE"/>
<stop offset="0.99" stop-color="#808488"/>
</linearGradient>
<linearGradient id="paint14_linear_3021_93" x1="274.777" y1="302.374" x2="274.777" y2="299.712" gradientUnits="userSpaceOnUse">
<stop stop-color="#CED5E0"/>
<stop offset="0.99" stop-color="#DFE5EC"/>
</linearGradient>
<linearGradient id="paint15_linear_3021_93" x1="262.409" y1="296.01" x2="287.144" y2="296.01" gradientUnits="userSpaceOnUse">
<stop stop-color="#B3B8BE"/>
<stop offset="0.99" stop-color="#808488"/>
</linearGradient>
<linearGradient id="paint16_linear_3021_93" x1="267.641" y1="281.981" x2="281.916" y2="281.981" gradientUnits="userSpaceOnUse">
<stop stop-color="#B3B8BE"/>
<stop offset="0.99" stop-color="#808488"/>
</linearGradient>
<linearGradient id="paint17_linear_3021_93" x1="305.945" y1="300.056" x2="382.024" y2="300.056" gradientUnits="userSpaceOnUse">
<stop stop-color="#ADB8C9"/>
<stop offset="0.99" stop-color="#98A0B0"/>
</linearGradient>
<linearGradient id="paint18_linear_3021_93" x1="315.848" y1="275.653" x2="372.125" y2="275.653" gradientUnits="userSpaceOnUse">
<stop stop-color="#ADB8C9"/>
<stop offset="0.99" stop-color="#98A0B0"/>
</linearGradient>
<linearGradient id="paint19_linear_3021_93" x1="51.3095" y1="276.933" x2="57.8367" y2="256.047" gradientUnits="userSpaceOnUse">
<stop stop-color="#B6BBC4"/>
<stop offset="0.99" stop-color="#C8CDD3"/>
</linearGradient>
</defs>
</svg>
