<svg width="100" height="50" viewBox="0 0 100 50" fill="none" xmlns="http://www.w3.org/2000/svg">
<g id="Marbles&#231;&#148;&#181;&#229;&#173;&#144;">
<path id="Marbles logo" fill-rule="evenodd" clip-rule="evenodd" d="M36.3138 25.0006C36.3138 16.0743 43.5499 8.83819 52.4762 8.83819C57.1891 8.83819 61.4279 10.852 64.3859 14.0742C65.3782 15.1552 67.0589 15.227 68.1398 14.2347C69.2208 13.2424 69.2926 11.5617 68.3003 10.4807C64.3783 6.20838 58.7387 3.52441 52.4762 3.52441C40.6152 3.52441 31 13.1396 31 25.0006C31 36.8615 40.6152 46.4767 52.4762 46.4767C58.5825 46.4767 64.0972 43.9248 68.0043 39.8365C69.0181 38.7757 68.9799 37.0939 67.9191 36.0801C66.8583 35.0663 65.1764 35.1044 64.1627 36.1652C61.2165 39.248 57.0722 41.163 52.4762 41.163C43.5499 41.163 36.3138 33.9268 36.3138 25.0006ZM65.542 25.0005C65.542 31.927 59.927 37.542 53.0005 37.542C46.074 37.542 40.459 31.927 40.459 25.0005C40.459 18.074 46.074 12.459 53.0005 12.459C59.927 12.459 65.542 18.074 65.542 25.0005ZM57.5809 16.36L61.6745 31.7196H59.6504L57.1605 22.4696L52.9414 32.427L48.7315 22.4696L46.1832 31.7242H44.1215L48.3212 16.3783L52.9414 27.3472L57.5809 16.36Z" fill="currentColor"/>
</g>
</svg>
