<svg width="73" height="52" viewBox="0 0 73 52" fill="none" xmlns="http://www.w3.org/2000/svg">
<mask id="mask0_2654_24939" style="mask-type:luminance" maskUnits="userSpaceOnUse" x="13" y="3" width="45" height="45">
<path d="M57.3233 3.98438H13.4302V47.8775H57.3233V3.98438Z" fill="white"/>
</mask>
<g mask="url(#mask0_2654_24939)">
<path fill-rule="evenodd" clip-rule="evenodd" d="M35.5282 5.49028C35.5882 6.35397 34.9367 7.10277 34.073 7.16277C30.4802 7.41237 27.0346 8.68803 24.1455 10.8383C21.2564 12.9885 19.0453 15.9229 17.7748 19.2928C16.5043 22.6627 16.2279 26.3264 16.9784 29.8488C17.7288 33.3712 19.4747 36.6042 22.0085 39.1635C24.5422 41.7229 27.7574 43.5011 31.2721 44.2869C34.7867 45.0728 38.4531 44.8332 41.8356 43.5966C45.2181 42.3601 48.1745 40.1785 50.3537 37.3112C52.5329 34.4438 53.8431 31.0112 54.1288 27.4211C54.1975 26.5581 54.9528 25.9141 55.8158 25.9828C56.6789 26.0515 57.3228 26.8068 57.2541 27.6698C56.9208 31.8583 55.3922 35.863 52.8499 39.2083C50.3075 42.5535 46.8583 45.0986 42.9121 46.5412C38.9658 47.9839 34.6884 48.2634 30.588 47.3466C26.4875 46.4298 22.7365 44.3552 19.7804 41.3692C16.8243 38.3833 14.7875 34.6116 13.912 30.5022C13.0364 26.3927 13.3589 22.1183 14.8411 18.1868C16.3234 14.2552 18.903 10.8318 22.2736 8.32318C25.6443 5.81458 29.6642 4.32628 33.8557 4.03508C34.7194 3.97508 35.4682 4.62659 35.5282 5.49028Z" fill="#768096"/>
<path fill-rule="evenodd" clip-rule="evenodd" d="M48.3339 4.04129C48.8782 4.19205 49.2993 4.62392 49.4363 5.17182L50.7758 10.5298L56.1337 11.8693C56.6816 12.0062 57.1135 12.4274 57.2643 12.9717C57.415 13.5159 57.2613 14.0992 56.862 14.4986L50.5916 20.769C50.2022 21.1583 49.6371 21.3149 49.1029 21.1813L43.6935 19.829L36.4831 27.0394C35.8708 27.6516 34.8783 27.6516 34.2661 27.0394C33.6539 26.4273 33.6539 25.4347 34.2661 24.8225L41.4766 17.6121L40.1242 12.2027C39.9907 11.6685 40.1472 11.1034 40.5365 10.714L46.807 4.44356C47.2064 4.0442 47.7897 3.89054 48.3339 4.04129ZM44.5053 16.8002L49.0022 17.9245L52.6873 14.2394L49.1029 13.3433C48.5412 13.2029 48.1027 12.7643 47.9623 12.2027L47.0662 8.61826L43.3811 12.3033L44.5053 16.8002ZM33.3855 16.6122C33.7012 17.4184 33.3035 18.3278 32.4973 18.6435C31.2841 19.1183 30.2085 19.8882 29.3677 20.8833C28.5268 21.8784 27.9473 23.0675 27.6814 24.3428C27.4156 25.6182 27.4719 26.9398 27.8452 28.188C28.2185 29.4361 28.897 30.5715 29.8194 31.4916C30.7418 32.4116 31.879 33.0872 33.1281 33.4573C34.3773 33.8274 35.6989 33.8802 36.9737 33.6111C38.2484 33.3421 39.4359 32.7594 40.4288 31.9161C41.4218 31.0726 42.1888 29.995 42.6607 28.7807C42.9742 27.9737 43.8825 27.5736 44.6895 27.8872C45.4966 28.2007 45.8966 29.1091 45.583 29.9161C44.9225 31.6162 43.8486 33.1248 42.4585 34.3056C41.0684 35.4864 39.4058 36.302 37.6213 36.6788C35.8367 37.0555 33.9863 36.9815 32.2376 36.4634C30.4888 35.9453 28.8967 34.9994 27.6054 33.7114C26.314 32.4233 25.364 30.8337 24.8414 29.0863C24.3188 27.3388 24.24 25.4887 24.6122 23.7031C24.9844 21.9176 25.7957 20.253 26.9729 18.8598C28.1501 17.4666 29.656 16.3889 31.3544 15.724C32.1606 15.4083 33.07 15.806 33.3855 16.6122Z" fill="#768096"/>
</g>
</svg>
