<svg width="73" height="52" viewBox="0 0 73 52" fill="none" xmlns="http://www.w3.org/2000/svg">
<path fill-rule="evenodd" clip-rule="evenodd" d="M45.2104 47.6695H36.1491L36.147 47.6715H26.952C25.0998 47.6715 23.2559 47.297 21.5766 46.5129C19.6256 45.6033 17.5676 44.0289 17.1416 41.3741C16.2896 36.0645 14.3757 22.7618 14.3757 22.7618C14.3757 22.7618 13.6328 18.3968 16.5037 15.8079C19.3766 13.219 31.9426 6.30004 31.9426 6.30004C31.9426 6.30004 34.194 4.88621 35.9433 4.78125H36.2191C37.9684 4.88621 40.2198 6.30004 40.2198 6.30004C40.2198 6.30004 52.7878 13.219 55.6587 15.8079C58.5296 18.3968 57.7867 22.7597 57.7867 22.7597C57.7867 22.7597 55.8748 36.0645 55.0207 41.3721C54.5927 44.0269 52.5368 45.6012 50.5858 46.5108C48.9065 47.297 47.0646 47.6695 45.2104 47.6695ZM29.7955 33.453C28.7136 33.0309 27.4944 33.5657 27.0724 34.6476C26.6503 35.7294 27.1851 36.9486 28.267 37.3707L29.2979 37.7729C33.7044 39.4894 38.5996 39.4712 42.9945 37.7242L43.8956 37.3653C44.9745 36.9356 45.5008 35.7127 45.0711 34.6338C44.6414 33.555 43.4185 33.0287 42.3396 33.4584L41.4391 33.817C38.0326 35.1709 34.2387 35.1841 30.8243 33.8544L29.7955 33.453Z" fill="white"/>
</svg>
