<svg width="74" height="52" viewBox="0 0 74 52" fill="none" xmlns="http://www.w3.org/2000/svg">
<path fill-rule="evenodd" clip-rule="evenodd" d="M37.1975 32.0121C39.1776 32.0474 41.1506 32.2947 42.97 32.7381C46.0294 33.5295 48.9048 34.9513 51.5246 36.7036C52.5598 37.3956 53.5086 38.1202 54.438 38.83L54.4381 38.8301C56.7136 40.5679 58.8731 42.2171 61.9018 43.0837C64.2336 43.7514 67.7275 44.299 69.6636 42.4107C71.4413 40.678 71.0852 37.7984 70.7984 35.4794C70.7694 35.2453 70.7412 35.0169 70.7159 34.7959C69.81 26.8879 67.9379 17.3901 62.165 11.4816C58.9963 8.2385 54.1761 6.23545 50.2155 9.39017C43.7684 14.5268 37.005 14.5409 37.005 14.5409H36.5916C36.5916 14.5409 29.8264 14.525 23.3809 9.39017C19.4207 6.23545 14.6003 8.23677 11.4314 11.4816C5.6589 17.3901 3.78476 26.8861 2.88042 34.7942C2.85505 35.016 2.82666 35.2454 2.79755 35.4806C2.51065 37.7988 2.15465 40.6754 3.93316 42.409C5.87087 44.2972 9.36475 43.7497 11.6946 43.0819C14.7223 42.2153 16.8825 40.5658 19.1587 38.8279L19.1587 38.8279C20.0882 38.1182 21.037 37.3937 22.072 36.7018C24.6915 34.9496 27.5672 33.5295 30.6266 32.7363C32.6791 32.2047 34.9436 31.9697 37.1992 32.0104L37.1975 32.0121ZM22.3734 17.5703C22.3734 18.7147 21.4457 19.6424 20.3012 19.6424C19.1568 19.6424 18.229 18.7147 18.229 17.5703C18.229 16.4258 19.1568 15.498 20.3012 15.498C21.4457 15.498 22.3734 16.4258 22.3734 17.5703ZM22.3734 26.4121C22.3734 27.5565 21.4457 28.4843 20.3012 28.4843C19.1568 28.4843 18.229 27.5565 18.229 26.4121C18.229 25.2676 19.1568 24.3398 20.3012 24.3398C21.4457 24.3398 22.3734 25.2676 22.3734 26.4121ZM15.8813 24.0624C17.0258 24.0624 17.9535 23.1346 17.9535 21.9902C17.9535 20.8457 17.0258 19.918 15.8813 19.918C14.7368 19.918 13.8091 20.8457 13.8091 21.9902C13.8091 23.1346 14.7368 24.0624 15.8813 24.0624ZM26.7992 21.9902C26.7992 23.1346 25.8714 24.0624 24.727 24.0624C23.5825 24.0624 22.6548 23.1346 22.6548 21.9902C22.6548 20.8457 23.5825 19.918 24.727 19.918C25.8714 19.918 26.7992 20.8457 26.7992 21.9902ZM56.6606 16.814C57.4494 16.814 58.0888 17.4534 58.0888 18.2422V21.3394H61.2291C62.0178 21.3394 62.6572 21.9788 62.6572 22.7676C62.6572 23.5563 62.0178 24.1957 61.2291 24.1957H58.0888V27.4014C58.0888 28.1902 57.4494 28.8296 56.6606 28.8296C55.8719 28.8296 55.2325 28.1902 55.2325 27.4014V24.1957H52.0688C51.2801 24.1957 50.6407 23.5563 50.6407 22.7676C50.6407 21.9788 51.2801 21.3394 52.0688 21.3394H55.2325V18.2422C55.2325 17.4534 55.8719 16.814 56.6606 16.814Z" fill="#768096"/>
</svg>
