<svg width="74" height="52" viewBox="0 0 74 52" fill="none" xmlns="http://www.w3.org/2000/svg">
<path fill-rule="evenodd" clip-rule="evenodd" d="M57.5699 28.3477L58.0524 23.2146C58.4317 19.1856 58.6213 17.169 57.9323 16.3367C57.7585 16.1197 57.5432 15.9395 57.299 15.8067C57.0548 15.674 56.7865 15.5912 56.51 15.5634C55.5079 15.475 54.2513 16.9051 51.738 19.7654L51.7308 19.7735C50.4286 21.257 49.7775 21.9966 49.0526 22.1125C48.648 22.1757 48.2392 22.1104 47.8683 21.9229C47.1961 21.5857 46.7494 20.6712 45.856 18.8379L41.1422 9.17859L41.1402 9.17442C39.4516 5.7151 38.6068 3.98438 37.3219 3.98438C36.037 3.98438 35.1922 5.71502 33.5037 9.1742L33.5015 9.17859L28.7877 18.8379L28.7686 18.8772C27.8858 20.6822 27.4428 21.5881 26.7754 21.9229C26.4105 22.1093 25.996 22.1756 25.5912 22.1125C24.8663 21.9966 24.2152 21.257 22.9129 19.7735L22.9056 19.7652C20.3924 16.905 19.1358 15.475 18.1338 15.5634C17.8572 15.5912 17.589 15.674 17.3447 15.8067C17.1005 15.9395 16.8852 16.1197 16.7115 16.3367C16.0203 17.169 16.2099 19.1856 16.5892 23.2146L17.0739 28.3477L17.0762 28.3719C17.8712 36.8098 18.2689 41.0312 20.7594 43.5784C23.2522 46.1282 26.9861 46.1282 34.4561 46.1282H40.1876C47.6597 46.1282 51.3937 46.1282 53.8822 43.5784C56.3749 41.0311 56.7733 36.8024 57.5697 28.3496L57.5699 28.3477ZM39.8554 36.4375L40.6039 36.7521C41.3187 37.0525 42.0971 36.4869 42.0323 35.7143L41.771 32.5985C41.7477 32.3221 41.8368 32.0479 42.0181 31.8379L44.0609 29.4708C44.5675 28.8838 44.2702 27.9688 43.5154 27.7917L40.4713 27.0773C40.2012 27.014 39.968 26.8446 39.8243 26.6073L38.2043 23.9329C37.8026 23.2698 36.8405 23.2698 36.4388 23.9329L34.8187 26.6073C34.675 26.8446 34.4418 27.014 34.1718 27.0773L31.1277 27.7917C30.3729 27.9688 30.0755 28.8838 30.5821 29.4708L32.625 31.8379C32.8062 32.0479 32.8953 32.3221 32.8721 32.5985L32.6107 35.7143C32.5459 36.4869 33.3243 37.0525 34.0391 36.7521L34.7805 36.4405C34.9676 36.3691 35.1744 36.2809 35.4041 36.1784L36.9216 35.5407C37.1774 35.4332 37.4656 35.4332 37.7214 35.5407L39.2511 36.1836C39.4731 36.2825 39.6735 36.3679 39.8554 36.4375Z" fill="#768096"/>
</svg>
