<svg width="48" height="48" viewBox="0 0 48 48" fill="none" xmlns="http://www.w3.org/2000/svg">
<path d="M34 41H14C8 41 4 38 4 31V17C4 10 8 7 14 7H34C40 7 44 10 44 17V31C44 38 40 41 34 41Z" fill="#B247FF" fill-opacity="0.5"/>
<path d="M23.9979 25.744C22.3179 25.744 20.6179 25.224 19.3179 24.164L13.0579 19.164C12.7668 18.9112 12.5845 18.5558 12.5491 18.1719C12.5136 17.788 12.6277 17.4053 12.8676 17.1035C13.1075 16.8017 13.4547 16.6042 13.8366 16.5521C14.2186 16.5 14.606 16.5974 14.9179 16.824L21.1779 21.824C22.6979 23.044 25.2779 23.044 26.7979 21.824L33.0579 16.824C33.6979 16.304 34.6579 16.404 35.1579 17.064C35.6779 17.704 35.5779 18.664 34.9179 19.164L28.6579 24.164C27.3779 25.224 25.6779 25.744 23.9979 25.744Z" fill="white"/>
</svg>
