<svg width="37" height="37" viewBox="0 0 37 37" fill="none" xmlns="http://www.w3.org/2000/svg">
<g id="&#228;&#191;&#161;&#230;&#129;&#175;">
<path id="Subtract" fill-rule="evenodd" clip-rule="evenodd" d="M30.8162 0.537109H5.97017C4.41822 0.538169 2.93015 1.10858 1.83275 2.12308C0.735353 3.13758 0.118333 4.51323 0.117188 5.94795V24.4522C0.118316 25.8835 0.732365 27.2561 1.82509 28.2701C2.91782 29.284 4.40034 29.8567 5.94854 29.8631L12.8305 35.8157C13.4978 36.3929 14.5312 35.886 14.4832 35.0051L14.3182 31.9717C14.2559 30.8262 15.168 29.8631 16.3152 29.8631H30.8162C32.3682 29.862 33.8562 29.2916 34.9536 28.2771C36.051 27.2626 36.668 25.887 36.6692 24.4522V5.94795C36.668 4.51323 36.051 3.13758 34.9536 2.12308C33.8562 1.10858 32.3682 0.538169 30.8162 0.537109ZM8.71766 10.551C8.71766 9.53372 9.54234 8.70904 10.5596 8.70904H16.5685C17.5858 8.70904 18.4105 9.53372 18.4105 10.551C18.4105 11.5683 17.5858 12.393 16.5685 12.393H10.5596C9.54234 12.393 8.71766 11.5683 8.71766 10.551ZM10.7177 16.881C9.61309 16.881 8.71766 17.7764 8.71766 18.881V18.9669C8.71766 20.0715 9.61309 20.9669 10.7177 20.9669H26.0687C27.1733 20.9669 28.0687 20.0715 28.0687 18.9669V18.881C28.0687 17.7764 27.1733 16.881 26.0687 16.881H10.7177Z" fill="var(--main-color)"/>
</g>
</svg>
