<svg width="48" height="48" viewBox="0 0 48 48" fill="none" xmlns="http://www.w3.org/2000/svg">
<g id="icon">
<path id="Vector" opacity="0.4" d="M34 41H14C8 41 4 38 4 31V17C4 10 8 7 14 7H34C40 7 44 10 44 17V31C44 38 40 41 34 41Z" fill="#F95959"/>
<path id="Vector_2" d="M23.9981 25.7438C22.3181 25.7438 20.6181 25.2239 19.3181 24.1638L13.0581 19.1638C12.767 18.9111 12.5848 18.5557 12.5493 18.1718C12.5139 17.7879 12.628 17.4052 12.8679 17.1034C13.1078 16.8016 13.4549 16.604 13.8369 16.552C14.2189 16.4999 14.6062 16.5973 14.9181 16.8238L21.1781 21.8238C22.6981 23.0438 25.2781 23.0438 26.7981 21.8238L33.0581 16.8238C33.6981 16.3038 34.6581 16.4038 35.1581 17.0638C35.6781 17.7038 35.5781 18.6638 34.9181 19.1638L28.6581 24.1638C27.3781 25.2239 25.6781 25.7438 23.9981 25.7438Z" fill="#F95959"/>
</g>
</svg>
