<svg width="100" height="50" viewBox="0 0 100 50" fill="none" xmlns="http://www.w3.org/2000/svg">
<path fill-rule="evenodd" clip-rule="evenodd" d="M50 45C61.0457 45 70 36.0457 70 25C70 13.9543 61.0457 5 50 5C38.9543 5 30 13.9543 30 25C30 27.0918 30.3211 29.1085 30.9168 31.0037C30.9236 30.9921 30.9307 30.9808 30.938 30.9698C33.2837 28.1303 37.2986 22.4097 38.7158 19.8587C40.5677 16.5254 42.4195 12.5748 43.1602 10.9698C43.4072 10.476 44.1973 9.19195 45.3825 9.48825C46.5041 9.76866 46.4979 11.322 46.494 12.2924C46.4938 12.3473 46.4936 12.4004 46.4936 12.4513C46.4936 13.8504 46.4497 15.5277 46.4026 17.3261C46.2128 24.5723 45.9716 33.7832 48.3454 34.6735C49.8962 35.2552 55.0108 26.1548 57.2331 19.1178C57.2534 19.0568 57.2735 18.9959 57.2935 18.9351C57.6388 17.8882 57.966 16.8957 59.0862 16.8957C60.0458 16.8957 60.1791 17.8669 60.3916 19.4162C60.4416 19.7803 60.4959 20.1764 60.5664 20.5993C60.5913 20.7488 60.6179 20.9133 60.6466 21.0911C61.0448 23.5555 61.8521 28.5514 64.2701 30.9696C65.5794 32.279 65.7516 33.5622 62.7886 31.34C62.2948 30.9696 60.5664 29.4882 59.8257 26.5252C59.0849 23.5622 58.4936 23.9324 58.3454 24.6733C57.9751 26.5252 52.7899 38.0069 48.7158 38.0069C42.888 38.0069 43.2868 28.384 43.4794 23.7355C43.5072 23.0664 43.5306 22.5004 43.5306 22.0809C43.5306 18.7476 41.6788 22.0809 40.5677 24.3032C40.4276 24.5833 40.2358 24.9794 40.0038 25.4587C38.5045 28.556 35.323 35.1283 33.5286 36.3475C37.1365 41.5746 43.1682 45 50 45Z" fill="currentColor"/>
</svg>
