<svg width="70" height="70" viewBox="0 0 70 70" fill="none" xmlns="http://www.w3.org/2000/svg">
<path d="M65.1044 32.2732C63.6587 32.2732 62.4801 31.1182 62.4801 29.696C62.4801 28.2739 63.6587 27.111 65.1044 27.111C66.558 27.111 67.7366 28.2739 67.7366 29.696C67.7366 31.1182 66.558 32.2732 65.1044 32.2732ZM69.9524 28.3053C69.4495 23.7009 64.7116 25.5474 64.7116 25.5474C61.3487 26.8281 60.5786 26.286 60.5786 26.286L61.2072 17.3208C60.8536 13.1329 55.2514 14.5865 55.2514 14.5865C58.2843 15.9615 57.6636 17.5723 57.6636 17.5723C57.6636 17.5723 54.3635 50.5728 53.9864 52.6864C53.6092 54.8 50.6863 53.9357 50.6863 53.9357V57.55H54.4893C57.2786 57.55 57.53 53.81 57.53 53.81L59.3922 36.2883C62.3308 35.8011 64.633 35.1333 64.633 35.1333C70.8717 33.0511 69.9524 28.3053 69.9524 28.3053ZM66.5737 29.696C66.5737 30.4896 65.9137 31.1339 65.1044 31.1339C64.303 31.1339 63.643 30.4818 63.643 29.696C63.643 28.9103 64.303 28.2503 65.1044 28.2503C65.9137 28.2503 66.5737 28.8946 66.5737 29.696ZM39.8905 19.9137C39.9062 19.8902 39.9219 19.8666 39.9376 19.8509C40.3698 18.7666 41.3755 17.9809 42.5777 17.8237C41.3912 17.8551 40.244 18.4837 39.6547 19.5995L30.6896 35.2936L29.1653 40.6098L39.8905 19.9137ZM3.62918 57.0629C2.00273 56.2222 1.36629 54.2186 2.23059 52.6314L24.4038 11.2786C24.8752 10.3907 25.7238 9.81715 26.6588 9.62072C26.7138 9.60501 26.761 9.59715 26.8081 9.58143C26.9338 9.56572 27.0831 9.54215 27.2246 9.54215C27.2796 9.54215 27.3424 9.52643 27.3896 9.52643C27.4288 9.52643 27.476 9.53429 27.5074 9.54215C27.6096 9.54215 27.7038 9.55787 27.806 9.57358C27.9396 9.58929 28.0731 9.61286 28.2146 9.65215C28.2696 9.66 28.3246 9.68358 28.3796 9.70715C28.5446 9.75429 28.7017 9.81715 28.8589 9.89572C28.8746 9.90358 28.8981 9.90358 28.8981 9.9193C28.9296 9.92715 28.9453 9.94287 28.9532 9.95072C29.1339 10.0372 29.2753 10.1393 29.4167 10.2572C29.4482 10.2807 29.4796 10.2964 29.5032 10.32L29.6839 10.5007C29.6289 10.4222 29.5817 10.3279 29.5189 10.2572C29.4953 10.2414 29.4717 10.21 29.4639 10.1864C29.3382 10.045 29.2124 9.9193 29.0553 9.79358C29.0317 9.77787 29.0003 9.74644 28.9689 9.72287C28.8196 9.62072 28.6703 9.51072 28.5053 9.42429C28.4896 9.41643 28.466 9.39286 28.4503 9.37714C28.4267 9.36929 28.4031 9.36929 28.3796 9.36143C28.2303 9.29072 28.081 9.22 27.9081 9.17285C27.8453 9.14928 27.7903 9.13357 27.7196 9.11C27.5938 9.07857 27.4524 9.06286 27.3188 9.03929C27.2167 9.02357 27.1145 9.01571 27.0124 9.01571C26.9653 9.01571 26.9338 9 26.8867 9C26.8395 9 26.7845 9.01571 26.7138 9.01571C26.5724 9.02357 26.431 9.03929 26.2895 9.055C26.2345 9.07072 26.1874 9.07857 26.1324 9.09429C25.1817 9.29072 24.3174 9.87215 23.8302 10.7836L1.20915 52.985C0.329132 54.6114 0.96557 56.6543 2.63131 57.5108C3.77847 58.1079 5.11421 57.9743 6.12779 57.3065C5.3185 57.5422 4.40705 57.4872 3.60561 57.0786L3.62918 57.0629ZM27.3974 53.7314C25.5902 53.7314 24.0974 52.27 24.0974 50.4942V25.9245L23.5473 26.946V50.8007C23.5473 52.6157 25.0638 54.1086 26.9103 54.1086C27.8217 54.1086 28.6467 53.7471 29.2596 53.1578C28.7174 53.5193 28.0889 53.7314 27.3974 53.7314ZM43.0019 51.9871C41.1869 51.9871 39.7019 50.5257 39.7019 48.7499V34.3554L39.1755 35.3847V49.2528C39.1755 51.1071 40.7155 52.6393 42.6091 52.6393C44.0941 52.6393 45.367 51.6807 45.8384 50.3685C45.2727 51.335 44.212 51.9871 43.0019 51.9871ZM29.1653 40.6098C30.6896 35.1909 30.6896 35.1909 29.1653 40.6098V40.6098ZM52.5957 11.0979C52.5957 11.0979 42.0434 12.8501 30.6896 14.7122V35.2936C29.1653 40.6098 29.1653 40.6098 39.8905 19.9137C39.9062 19.8902 39.9219 19.8666 39.9376 19.8509C40.4248 18.6487 41.6112 17.7923 42.9941 17.7923C44.8091 17.7923 46.2941 19.2537 46.2941 21.0295V48.7421C46.2941 50.5257 44.8091 51.9793 42.9941 51.9793C41.1791 51.9793 39.694 50.5178 39.694 48.7421V34.3475L30.9332 50.9892C30.8075 51.2171 30.6503 51.4292 30.4775 51.61C30.006 52.8435 28.8117 53.7314 27.3974 53.7314C25.5902 53.7314 24.0974 52.27 24.0974 50.4942V25.9245L8.1314 55.68C7.28281 57.2672 5.23992 57.8958 3.62133 57.055C1.99487 56.2143 1.35843 54.2107 2.22273 52.6235L21.7716 16.158C12.4136 17.6901 4.29705 19.0102 3.24418 19.1437C0.627708 19.4737 0.0384133 21.7131 0.0384133 21.7131C0.0384133 21.7131 -0.0480166 56.9843 0.0384133 58.7365C0.116986 60.4808 1.98702 60.8108 1.98702 60.8108C1.98702 60.8108 46.0898 61.1408 48.3685 60.8108C50.6549 60.4808 51.0714 57.9115 51.0714 57.9115L55.55 13.3294C55.385 10.4222 52.5957 11.0822 52.5957 11.0822V11.0979Z" fill="#0242CF"/>
</svg>
