<svg xmlns="http://www.w3.org/2000/svg" width="61" height="60" viewBox="0 0 61 60" fill="none">
  <path d="M19.5 4H8.5V17.5L19.5 25.6M19.5 4V25.6V4ZM41.5 4H52.5V17.5L41.5 25.6M41.5 4V25.6V4Z" fill="var(--main-color)"/>
  <path fill-rule="evenodd" clip-rule="evenodd" d="M30.5 25.6016C26.2741 25.6016 22.4191 27.1614 19.5 29.7266C16.1244 32.693 14 37.0037 14 41.8016C14 50.7486 21.3873 58.0016 30.5 58.0016C39.6127 58.0016 47 50.7486 47 41.8016C47 37.0037 44.8756 32.693 41.5 29.7266C38.5809 27.1614 34.7259 25.6016 30.5 25.6016ZM30.9754 31.4666C30.8258 31.0059 30.1741 31.0059 30.0244 31.4666L28.1425 37.2584C28.0756 37.4644 27.8836 37.6039 27.667 37.6039H21.5771C21.0928 37.6039 20.8914 38.2237 21.2832 38.5084L26.21 42.0879C26.3853 42.2152 26.4586 42.4409 26.3917 42.6469L24.5098 48.4387C24.3601 48.8994 24.8874 49.2824 25.2792 48.9977L30.206 45.4182C30.3813 45.2909 30.6186 45.2909 30.7938 45.4182L35.7206 48.9977C36.1125 49.2824 36.6397 48.8994 36.49 48.4387L34.6082 42.6469C34.5412 42.4409 34.6145 42.2152 34.7898 42.0879L39.7166 38.5084C40.1084 38.2237 39.9071 37.6039 39.4227 37.6039H33.3328C33.1162 37.6039 32.9242 37.4644 32.8573 37.2584L30.9754 31.4666Z" fill="var(--main-color)"/>
  <path opacity="0.4" d="M20.5 4H40.5V27C38 25.1842 34.3418 23.9737 30.5 23.9737C26.6582 23.9737 21.75 25.7895 20.5 27V4Z" fill="var(--main-color)"/>
</svg>