<svg width="48" height="48" viewBox="0 0 48 48" fill="none" xmlns="http://www.w3.org/2000/svg">
<path d="M3 12.0016C3 9.79248 4.79086 8.00162 7 8.00162H41C43.2091 8.00162 45 9.79248 45 12.0016V34.0016C45 36.2108 43.2091 38.0016 41 38.0016H22.6862C22.2415 38.0016 21.8094 38.1499 21.4583 38.4229L14.3602 43.9437C13.7541 44.4151 12.8649 44.0559 12.7563 43.2958L12.1227 38.8602C12.0523 38.3675 11.6304 38.0016 11.1327 38.0016H7C4.79086 38.0016 3 36.2108 3 34.0016V12.0016Z" fill="var(--main-color)"/>
<circle cx="15.5" cy="23.5" r="2.5" fill="white"/>
<circle cx="24.5" cy="23.5" r="2.5" fill="white"/>
<circle cx="33.5" cy="23.5" r="2.5" fill="white"/>
</svg>
