<svg width="70" height="70" viewBox="0 0 70 70" fill="none" xmlns="http://www.w3.org/2000/svg">
<mask id="mask0_186_36273" style="mask-type:alpha" maskUnits="userSpaceOnUse" x="1" y="1" width="68" height="68">
<path d="M33.5569 68.5569C52.0898 69.3539 67.7599 54.9761 68.5569 36.4431C69.3539 17.9102 54.9761 2.24013 36.4431 1.44312C17.9102 0.646107 2.24012 15.0239 1.44311 33.5569C0.646096 52.0898 15.0239 67.7599 33.5569 68.5569Z" fill="url(#paint0_linear_186_36273)"/>
</mask>
<g mask="url(#mask0_186_36273)">
<path d="M35 68.5879C53.5501 68.5879 68.5879 53.5501 68.5879 35C68.5879 16.4499 53.5501 1.41211 35 1.41211C16.4499 1.41211 1.41211 16.4499 1.41211 35C1.41211 53.5501 16.4499 68.5879 35 68.5879Z" fill="url(#paint1_linear_186_36273)"/>
<path fill-rule="evenodd" clip-rule="evenodd" d="M20.8571 54.4386C14.5344 49.7312 10.5774 42.0774 10.9416 33.6084C11.5261 20.0175 23.0175 9.47379 36.6083 10.0583C50.1991 10.6427 60.7429 22.1341 60.1584 35.7249C59.8057 43.9262 55.4813 51.0179 49.1206 55.2243C57.638 50.6342 63.5916 41.8044 64.0375 31.4358C64.7112 15.771 52.5585 2.52612 36.8937 1.85245C21.229 1.17879 7.98407 13.3315 7.3104 28.9962C6.85128 39.6721 12.3497 49.2241 20.8571 54.4386Z" fill="url(#paint2_linear_186_36273)"/>
<path d="M34.4918 59.275C48.0826 59.8595 59.574 49.3158 60.1585 35.725C60.7429 22.1341 50.1992 10.6428 36.6084 10.0583C23.0175 9.47381 11.5262 20.0175 10.9417 33.6084C10.3572 47.1992 20.901 58.6906 34.4918 59.275Z" fill="url(#paint3_linear_186_36273)"/>
<path d="M-27.8454 35.321C-32.8649 44.6572 -29.3655 56.2949 -20.0292 61.3144C-10.693 66.3338 0.944652 62.8344 5.96414 53.4982C10.9836 44.1619 7.4842 32.5243 -1.85205 27.5048C-11.1883 22.4853 -22.8259 25.9847 -27.8454 35.321Z" fill="url(#paint4_linear_186_36273)"/>
<path d="M94.1708 28.2582C100.556 35.7018 99.6987 46.9127 92.2551 53.2983C84.8115 59.6839 73.6007 58.8262 67.215 51.3826C60.8294 43.939 61.6871 32.7282 69.1307 26.3425C76.5743 19.9569 87.7852 20.8146 94.1708 28.2582Z" fill="url(#paint5_linear_186_36273)"/>
<path d="M24.5591 -25.4224C32.3161 -31.4235 43.4692 -30 49.4703 -22.243C55.4713 -14.486 54.0479 -3.33291 46.2909 2.66816C38.5339 8.66923 27.3808 7.24577 21.3797 -0.511225C15.3786 -8.26822 16.8021 -19.4213 24.5591 -25.4224Z" fill="url(#paint6_linear_186_36273)"/>
<path d="M23.1952 79.4598C22.7739 89.2581 30.3753 97.5427 40.1736 97.9641C49.9719 98.3855 58.2566 90.784 58.6779 80.9857C59.0993 71.1875 51.4978 62.9028 41.6996 62.4814C31.9013 62.06 23.6166 69.6615 23.1952 79.4598Z" fill="url(#paint7_linear_186_36273)"/>
<g filter="url(#filter0_f_186_36273)">
<path fill-rule="evenodd" clip-rule="evenodd" d="M18.9941 54.2005C33.1553 63.2088 51.9376 59.0322 60.9459 44.8715C62.7462 42.0417 64.0197 39.0272 64.7923 35.9438C64.3629 40.3674 62.913 44.7596 60.3637 48.766C51.7109 62.368 33.6703 66.3801 20.0681 57.7273C13.8697 53.7841 9.66276 47.8911 7.73828 41.3577C10.0995 46.4563 13.9011 50.9604 18.9941 54.2005Z" fill="#B6B6B6"/>
</g>
<g filter="url(#filter1_f_186_36273)">
<path d="M31.4826 61.6469C31.5328 62.5288 33.3608 63.142 35.5656 63.0166C37.7704 62.8911 39.517 62.0745 39.4668 61.1925C39.4167 60.3106 37.5886 59.6974 35.3839 59.8229C33.1791 59.9483 31.4325 60.765 31.4826 61.6469Z" fill="white"/>
</g>
</g>
<defs>
<filter id="filter0_f_186_36273" x="4.73828" y="32.9438" width="63.0542" height="32.3481" filterUnits="userSpaceOnUse" color-interpolation-filters="sRGB">
<feFlood flood-opacity="0" result="BackgroundImageFix"/>
<feBlend mode="normal" in="SourceGraphic" in2="BackgroundImageFix" result="shape"/>
<feGaussianBlur stdDeviation="1.5" result="effect1_foregroundBlur_186_36273"/>
</filter>
<filter id="filter1_f_186_36273" x="25.4814" y="53.8066" width="19.9863" height="15.2263" filterUnits="userSpaceOnUse" color-interpolation-filters="sRGB">
<feFlood flood-opacity="0" result="BackgroundImageFix"/>
<feBlend mode="normal" in="SourceGraphic" in2="BackgroundImageFix" result="shape"/>
<feGaussianBlur stdDeviation="3" result="effect1_foregroundBlur_186_36273"/>
</filter>
<linearGradient id="paint0_linear_186_36273" x1="20.1375" y1="8.34639" x2="44.0641" y2="66.2072" gradientUnits="userSpaceOnUse">
<stop stop-color="#F22427"/>
<stop offset="1" stop-color="#960204"/>
</linearGradient>
<linearGradient id="paint1_linear_186_36273" x1="28.7079" y1="6.55778" x2="45.3966" y2="65.7889" gradientUnits="userSpaceOnUse">
<stop stop-color="#BABABA"/>
<stop offset="0.538037" stop-color="#AAAAAA"/>
<stop offset="1" stop-color="#9D9D9D"/>
</linearGradient>
<linearGradient id="paint2_linear_186_36273" x1="28.9373" y1="3.46916" x2="38.5326" y2="60.4738" gradientUnits="userSpaceOnUse">
<stop stop-color="#DCDCDC"/>
<stop offset="0.743552" stop-color="#C2C2C2"/>
<stop offset="1" stop-color="#CDCDCD" stop-opacity="0"/>
</linearGradient>
<linearGradient id="paint3_linear_186_36273" x1="30.1694" y1="11.6563" x2="35.5173" y2="58.6479" gradientUnits="userSpaceOnUse">
<stop offset="0.349342" stop-color="#FDFDFD"/>
<stop offset="1" stop-color="#E1E1E1"/>
</linearGradient>
<linearGradient id="paint4_linear_186_36273" x1="9.74742" y1="40.5508" x2="-28.0715" y2="49.2971" gradientUnits="userSpaceOnUse">
<stop stop-color="#FBF9FD"/>
<stop offset="0.373872" stop-color="#EAEAEA"/>
</linearGradient>
<linearGradient id="paint5_linear_186_36273" x1="62.1375" y1="40.3055" x2="79" y2="41.9999" gradientUnits="userSpaceOnUse">
<stop stop-color="#FBF9FD"/>
<stop offset="0.744724" stop-color="#CDCDCD"/>
</linearGradient>
<linearGradient id="paint6_linear_186_36273" x1="36.9468" y1="5.59797" x2="36.9468" y2="-11.196" gradientUnits="userSpaceOnUse">
<stop offset="0.0664686" stop-color="#FBF9FD"/>
<stop offset="1" stop-color="#BFBFBF"/>
</linearGradient>
<linearGradient id="paint7_linear_186_36273" x1="41" y1="63.5" x2="39" y2="81.5" gradientUnits="userSpaceOnUse">
<stop stop-color="#DBDBDB"/>
<stop offset="0.373872" stop-color="#D6D6D6"/>
</linearGradient>
</defs>
</svg>
