<svg width="462" height="174" viewBox="0 0 462 174" fill="currentColor" xmlns="http://www.w3.org/2000/svg">
<path d="M52.7128 7.73499H29.8906C17.8784 7.73499 8.14062 17.4728 8.14062 29.485V146.659C8.14062 157.826 17.1927 166.878 28.3589 166.878H55.3167V104.078L79.6706 166.878H109.232C116.507 166.878 122.405 160.98 122.405 153.705V7.73499H75.0755V73.904L52.7128 7.73499Z" />
<path d="M453.426 43.8063C453.426 24.35 437.653 8.57747 418.197 8.57747H43.8063C24.35 8.57747 8.57746 24.35 8.57746 43.8063V130.194C8.57746 149.65 24.35 165.423 43.8063 165.423H418.197C437.653 165.423 453.426 149.65 453.426 130.194V43.8063ZM462.003 130.194C462.003 154.387 442.39 174 418.197 174H43.8063C19.6128 174 5.9209e-08 154.387 0 130.194V43.8063C0 19.6128 19.6128 0 43.8063 0H418.197C442.39 0 462.003 19.6128 462.003 43.8063V130.194Z" />
<path d="M295.297 23.4731H282.392V86.5619H294.54V56.4912L303.581 86.5619H316.167V23.4731H303.581V51.6719L295.297 23.4731Z" />
<path d="M321.106 86.5619V23.4731H349.623V34.3066H333.851V48.6449H348.508V59.797H333.851V75.8878H349.623V86.5619H321.106Z" />
<path d="M359.023 86.5619L352.013 23.4731H365.077L368.9 62.6646L374.158 23.4731H385.469L390.089 60.5935L394.391 23.4731H406.817L398.851 86.5619H382.92L379.574 59.797L375.91 86.5619H359.023Z" />
<path d="M274.108 114.362H263.354V106.237H256.424V141.127H263.354V128.701H259.929V119.301H274.108V150.527H245.431V96.6783H274.108V114.362ZM311.228 150.527H299.359L297.846 138.021H289.88L287.57 150.527H276.179L285.18 96.6783H302.625L311.228 150.527ZM333.074 125.614H333.712L339.268 96.6783H353.168V150.527H342.653V124.678H342.295L337.196 150.527H329.589L324.889 124.041H324.212V150.527H313.857V96.6783H327.478L333.074 125.614ZM369.697 150.527H358.505V96.6783H369.697V150.527ZM393.873 121.611V96.6783H404.786V150.527H393.873L386.066 124.997L385.628 150.527H375.114V96.6783H386.066L393.873 121.611ZM439.158 113.964H427.688V105.998H420.518V140.729H427.688V128.302H424.501V119.062H439.158V150.527H409.844V96.6783H439.158V113.964ZM293.425 109.025L290.995 128.143H296.751L294.261 109.025H293.425Z" />
<path d="M136.802 165.729C131.442 165.729 128.021 162.819 127.612 162.053C130.676 158.132 131.442 156.692 131.442 150.565V7.50525H213.54C225.214 7.50525 234.677 17.8878 234.677 29.5616V58.97H180.302V38.3688C180.302 33.8431 176.634 30.1743 172.108 30.1743C167.582 30.1743 163.913 33.8431 163.913 38.3688V136.627C163.913 141.533 167.891 145.511 172.797 145.511C177.704 145.511 181.681 141.533 181.681 136.627V101.092H174.329V74.2869H216.297C226.448 74.2869 234.677 82.5161 234.677 92.6672V146.736C234.677 157.225 226.174 165.729 215.684 165.729H136.802Z" />
</svg>
