<svg xmlns="http://www.w3.org/2000/svg" width="32" height="32" viewBox="0 0 32 32" fill="none">
  <g clip-path="url(#clip0_2627_26828)">
    <path d="M15.9993 4V28C11.3327 28 7.86502 21.8927 7.86502 21.8927H3.99935C3.26297 21.8927 2.66602 21.2958 2.66602 20.5594V11.3405C2.66602 10.6041 3.26297 10.0072 3.99935 10.0072H7.86502C7.86502 10.0072 11.3327 4 15.9993 4Z" fill="url(#paint0_linear_2627_26828)"/>
    <path d="M21.334 10C21.7495 10.371 22.1261 10.7865 22.4567 11.2392C23.4265 12.5669 24.0007 14.2149 24.0007 16C24.0007 17.7697 23.4363 19.4045 22.4819 20.7262C22.1452 21.1923 21.7601 21.6195 21.334 22" stroke="url(#paint1_linear_2627_26828)" stroke-width="1.8" stroke-linecap="round" stroke-linejoin="round"/>
    <path d="M22.8242 27.4573C26.7227 25.1303 29.3336 20.8701 29.3336 16.0001C29.3336 11.2058 26.8031 7.00246 23.005 4.65283" stroke="url(#paint2_linear_2627_26828)" stroke-width="1.8" stroke-linecap="round"/>
  </g>
  <defs>
    <linearGradient id="paint0_linear_2627_26828" x1="9.33268" y1="4" x2="9.33268" y2="28" gradientUnits="userSpaceOnUse">
      <stop stop-color="#FF7C7C"/>
      <stop offset="0.74876" stop-color="#F54545"/>
    </linearGradient>
    <linearGradient id="paint1_linear_2627_26828" x1="22.6673" y1="10" x2="22.6673" y2="22" gradientUnits="userSpaceOnUse">
      <stop stop-color="#FF7C7C"/>
      <stop offset="0.74876" stop-color="#F54545"/>
    </linearGradient>
    <linearGradient id="paint2_linear_2627_26828" x1="26.0789" y1="4.65283" x2="26.0789" y2="27.4573" gradientUnits="userSpaceOnUse">
      <stop stop-color="#FF7C7C"/>
      <stop offset="0.74876" stop-color="#F54545"/>
    </linearGradient>
    <clipPath id="clip0_2627_26828">
      <rect width="32" height="32" fill="white"/>
    </clipPath>
  </defs>
</svg>