<svg width="48" height="48" viewBox="0 0 48 48" fill="none" xmlns="http://www.w3.org/2000/svg">
<path opacity="0.4" d="M33.8263 47H9.17368C5.2116 47 2 43.7805 2 39.8086V8.19139C2 4.21953 5.2116 1 9.17368 1H33.8263C37.7884 1 41 4.21953 41 8.19139V39.8086C41 43.7805 37.7884 47 33.8263 47Z" fill="var(--main-color)"/>
<path d="M29.8868 14.2296H13.1132C11.9457 14.2296 11 13.2832 11 12.1148C11 10.9464 11.9457 10 13.1132 10H29.8868C31.0543 10 32 10.9464 32 12.1148C32 13.2832 31.0543 14.2296 29.8868 14.2296ZM29.8868 22.6148H13.1132C11.9457 22.6148 11 21.6684 11 20.5C11 19.3316 11.9457 18.3852 13.1132 18.3852H29.8868C31.0543 18.3852 32 19.3316 32 20.5C32 21.6684 31.0543 22.6148 29.8868 22.6148ZM21.146 31H13.1132C11.9457 31 11 30.0536 11 28.8852C11 27.7168 11.9457 26.7704 13.1132 26.7704H21.146C22.3136 26.7704 23.2592 27.7168 23.2592 28.8852C23.2592 30.0536 22.3109 31 21.146 31Z" fill="var(--main-color)"/>
<path fill-rule="evenodd" clip-rule="evenodd" d="M28.9289 43.0711C27.0536 41.1957 26 38.6522 26 36C26 33.3478 27.0536 30.8043 28.9289 28.9289C30.8043 27.0536 33.3478 26 36 26C38.6522 26 41.1957 27.0536 43.0711 28.9289C44.9464 30.8043 46 33.3478 46 36C46 38.6522 44.9464 41.1957 43.0711 43.0711C41.1957 44.9464 38.6522 46 36 46C33.3478 46 30.8043 44.9464 28.9289 43.0711ZM35.9196 39.658V40.2991C35.9196 40.7858 36.0172 41.235 36.2125 41.6466C36.4077 42.0542 36.6931 42.3807 37.0686 42.626C37.4441 42.8753 37.9078 43 38.4598 43C39.0043 43 39.4661 42.8753 39.8454 42.626C40.2246 42.3807 40.5119 42.0542 40.7071 41.6466C40.9024 41.235 41 40.7858 41 40.2991V39.658C41 39.1673 40.9024 38.7181 40.7071 38.3105C40.5156 37.8989 40.2302 37.5705 39.851 37.3251C39.4755 37.0798 39.0118 36.9571 38.4598 36.9571C37.9153 36.9571 37.4535 37.0817 37.0742 37.331C36.6988 37.5764 36.4115 37.9049 36.2125 38.3164C36.0172 38.724 35.9196 39.1712 35.9196 39.658ZM37.5586 40.2991V39.658C37.5586 39.3691 37.6243 39.1 37.7558 38.8507C37.8872 38.6014 38.1219 38.4767 38.4598 38.4767C38.8128 38.4767 39.0493 38.6014 39.1695 38.8507C39.2896 39.1 39.3497 39.3691 39.3497 39.658V40.2991C39.3497 40.588 39.2859 40.8551 39.1582 41.1005C39.0343 41.3458 38.8015 41.4685 38.4598 41.4685C38.1181 41.4685 37.8815 41.3438 37.7501 41.0945C37.6225 40.8452 37.5586 40.5801 37.5586 40.2991ZM30 32.7009V33.342C30 33.8288 30.0958 34.276 30.2873 34.6836C30.4825 35.0872 30.7679 35.4137 31.1434 35.663C31.5226 35.9084 31.9863 36.0311 32.5346 36.0311C33.0828 36.0311 33.5446 35.9104 33.9201 35.669C34.2994 35.4236 34.5866 35.0971 34.7819 34.6895C34.9809 34.2819 35.0804 33.8327 35.0804 33.342V32.7009C35.0804 32.2102 34.9828 31.761 34.7875 31.3534C34.5923 30.9419 34.3069 30.6134 33.9314 30.368C33.5559 30.1227 33.0903 30 32.5346 30C31.9976 30 31.5395 30.1227 31.1603 30.368C30.7848 30.6134 30.4975 30.9419 30.2985 31.3534C30.0995 31.761 30 32.2102 30 32.7009ZM31.6503 33.342V32.7009C31.6503 32.4199 31.7141 32.1528 31.8418 31.8995C31.9694 31.6463 32.2004 31.5196 32.5346 31.5196C32.8913 31.5196 33.1297 31.6443 33.2499 31.8936C33.37 32.1429 33.4301 32.412 33.4301 32.7009V33.342C33.4301 33.6309 33.3663 33.898 33.2386 34.1434C33.1147 34.3887 32.88 34.5114 32.5346 34.5114C32.2041 34.5114 31.9732 34.3887 31.8418 34.1434C31.7141 33.898 31.6503 33.6309 31.6503 33.342ZM38.6738 30.4215L30.7435 42.5785H32.2192L40.1495 30.4215H38.6738Z" fill="var(--main-color)"/>
</svg>
