<svg width="48" height="48" viewBox="0 0 48 48" fill="none" xmlns="http://www.w3.org/2000/svg">
<path d="M30 37L35 32L30.0004 27" stroke="var(--text_white, var(--text_color_L2))" stroke-width="2" stroke-linecap="round" stroke-linejoin="round"/>
<path d="M38 37L43 32L38.0004 27" stroke="var(--text_white, var(--text_color_L2))" stroke-width="2" stroke-linecap="round" stroke-linejoin="round"/>
<path d="M43 22V9C43 7.89543 42.1046 7 41 7H7C5.89543 7 5 7.89543 5 9V39C5 40.1046 5.89543 41 7 41H28.4706" stroke="var(--text_white, var(--text_color_L2))" stroke-width="2" stroke-linecap="round" stroke-linejoin="round"/>
<path d="M19 13V35" stroke="var(--text_white, var(--text_color_L2))" stroke-width="2" stroke-linecap="round" stroke-linejoin="round"/>
<path d="M24.5 15C24.5 15 19.4853 15 17 15C14.5147 15 12.5 17.0147 12.5 19.5C12.5 21.9853 14.5147 24 17 24" stroke="var(--text_white, var(--text_color_L2))" stroke-width="2" stroke-linecap="round" stroke-linejoin="round"/>
<path d="M13.5 33C13.5 33 18.5147 33 21 33C23.4853 33 25.5 30.9853 25.5 28.5C25.5 26.0147 23.4853 24 21 24H17" stroke="var(--text_white, var(--text_color_L2))" stroke-width="2" stroke-linecap="round" stroke-linejoin="round"/>
</svg>
