<svg xmlns="http://www.w3.org/2000/svg" width="36" height="38" viewBox="0 0 36 38" fill="none">
<path fill-rule="evenodd" clip-rule="evenodd" d="M18.2138 7.95772C18.2139 7.34191 17.9981 6.74166 17.5989 6.27114L14.2509 2.32449C11.8088 -0.554352 7.19912 1.22067 7.19912 5.03992C7.19912 6.89382 8.40058 8.52081 10.138 9.0197L15.0449 10.4287C16.4915 10.8441 17.9649 9.86246 18.1864 8.33581C18.2047 8.20978 18.2137 8.08342 18.2138 7.95772ZM18.2138 7.95772C18.2138 8.08342 18.2228 8.20978 18.2411 8.33581C18.4626 9.86246 19.936 10.8441 21.3826 10.4287L26.2895 9.0197C28.0269 8.52081 29.2284 6.89382 29.2284 5.03992C29.2284 1.22067 24.6188 -0.554352 22.1766 2.32449L18.8286 6.27114C18.4294 6.74166 18.2137 7.34191 18.2138 7.95772Z" fill="var(--text_color_L3)"/>
<path d="M16.1664 18.9561C16.1664 18.4038 15.7187 17.9561 15.1664 17.9561H2.49829C1.94601 17.9561 1.49829 18.4038 1.49829 18.9561V35.331C1.49829 36.8038 2.69221 37.9977 4.16499 37.9977H15.1664C15.7187 37.9977 16.1664 37.55 16.1664 36.9977L16.1664 18.9561Z" fill="var(--text_color_L3)"/>
<path d="M19.8339 36.9977C19.8339 37.55 20.2816 37.9977 20.8339 37.9977H31.8352C33.308 37.9977 34.5019 36.8038 34.5019 35.331V18.9561C34.5019 18.4038 34.0542 17.9561 33.5019 17.9561H20.8339C20.2816 17.9561 19.8339 18.4038 19.8339 18.9561L19.8339 36.9977Z" fill="var(--text_color_L3)"/>
<path d="M-0.00195312 10.2061C-0.00195312 9.37763 0.66962 8.70605 1.49805 8.70605H34.502C35.3304 8.70605 36.002 9.37763 36.002 10.2061V13.3727C36.002 14.2011 35.3304 14.8727 34.502 14.8727H1.49805C0.669622 14.8727 -0.00195312 14.2011 -0.00195312 13.3727V10.2061Z" fill="var(--text_color_L3)"/>
</svg>
