<svg width="40" height="41" viewBox="0 0 40 41" fill="none" xmlns="http://www.w3.org/2000/svg">
	<g id="app/game" clip-path="url(#clip0_6131_4738)">
		<g id="Vector">
			<path d="M11.4893 13.4156C10.8243 13.4089 10.1723 13.5999 9.61611 13.9645C9.05989 14.329 8.62455 14.8506 8.36537 15.4631C8.10619 16.0755 8.03487 16.7512 8.16046 17.4043C8.28604 18.0573 8.60288 18.6583 9.07072 19.131C9.53857 19.6036 10.1363 19.9266 10.7881 20.0588C11.4398 20.1911 12.1162 20.1267 12.7313 19.8737C13.3463 19.6208 13.8723 19.1908 14.2425 18.6384C14.6128 18.0859 14.8104 17.4359 14.8105 16.7708C14.8083 15.8875 14.4588 15.0405 13.8374 14.4127C13.216 13.785 12.3726 13.4268 11.4893 13.4156Z" fill="currentColor"/>
			<path d="M39.9999 11.0313C39.9976 9.10996 39.2334 7.268 37.8748 5.90944C36.5163 4.55088 34.6743 3.78665 32.753 3.7844H27.5329C26.9884 3.77764 26.4535 3.92731 25.9915 4.21562C25.5296 4.50394 25.1602 4.9188 24.9271 5.4109C24.6827 5.93994 24.2925 6.38835 23.8023 6.70357C23.3121 7.01879 22.7423 7.18776 22.1595 7.19068H17.6802C17.1118 7.15527 16.5639 6.96521 16.0956 6.64103C15.6273 6.31685 15.2566 5.87087 15.0233 5.35129C14.7802 4.88251 14.4139 4.4889 13.9637 4.21281C13.5136 3.93672 12.9967 3.7886 12.4686 3.7844H7.08672C5.16542 3.78665 3.32347 4.55088 1.96491 5.90944C0.606346 7.268 -0.157883 9.10996 -0.160137 11.0313V30.7025C-0.162217 31.5434 0.00311668 32.3763 0.326226 33.1526C0.649336 33.929 1.12376 34.6332 1.72183 35.2243C2.32519 35.8167 3.04002 36.2834 3.82495 36.5977C4.60988 36.912 5.44934 37.0675 6.29476 37.0552C9.8458 37.0552 11.4042 35.6161 12.5708 31.4178L13.8993 27.3814H25.949L27.2859 31.4689C28.5207 35.0966 29.9003 37.0637 33.6131 37.0637C35.3056 37.0592 36.9275 36.3849 38.1243 35.1881C39.321 33.9913 39.9954 32.3695 39.9999 30.677V11.0313ZM11.4893 22.536C10.3491 22.536 9.23447 22.1978 8.2864 21.5644C7.33833 20.9309 6.5994 20.0305 6.16305 18.977C5.7267 17.9236 5.61253 16.7644 5.83498 15.6461C6.05743 14.5278 6.60651 13.5005 7.41277 12.6943C8.21904 11.888 9.24629 11.3389 10.3646 11.1165C11.4829 10.894 12.6421 11.0082 13.6955 11.4446C14.749 11.8809 15.6494 12.6198 16.2829 13.5679C16.9163 14.516 17.2545 15.6306 17.2545 16.7708C17.2522 18.2991 16.6441 19.7642 15.5634 20.8449C14.4827 21.9256 13.0176 22.5337 11.4893 22.536ZM32.9148 17.9801H29.5596V21.3267C29.5596 21.4855 29.5284 21.6428 29.4676 21.7895C29.4068 21.9362 29.3177 22.0695 29.2055 22.1818C29.0932 22.2941 28.9599 22.3831 28.8132 22.4439C28.6665 22.5047 28.5092 22.536 28.3504 22.536C28.1916 22.536 28.0344 22.5047 27.8877 22.4439C27.7409 22.3831 27.6076 22.2941 27.4954 22.1818C27.3831 22.0695 27.294 21.9362 27.2332 21.7895C27.1725 21.6428 27.1412 21.4855 27.1412 21.3267V17.9801H23.786C23.4653 17.9801 23.1577 17.8527 22.9309 17.6259C22.7042 17.3991 22.5768 17.0915 22.5768 16.7708C22.5768 16.4501 22.7042 16.1426 22.9309 15.9158C23.1577 15.689 23.4653 15.5616 23.786 15.5616H27.1412V12.2064C27.1412 11.8857 27.2686 11.5781 27.4954 11.3514C27.7221 11.1246 28.0297 10.9972 28.3504 10.9972C28.6711 10.9972 28.9787 11.1246 29.2055 11.3514C29.4322 11.5781 29.5596 11.8857 29.5596 12.2064V15.5616H32.9148C33.2355 15.5616 33.5431 15.689 33.7699 15.9158C33.9966 16.1426 34.124 16.4501 34.124 16.7708C34.124 17.0915 33.9966 17.3991 33.7699 17.6259C33.5431 17.8527 33.2355 17.9801 32.9148 17.9801Z" fill="currentColor"/>
		</g>
	</g>
	<defs>
		<clipPath id="clip0_6131_4738">
			<rect width="40" height="40" fill="white" transform="translate(0 0.304688)"/>
		</clipPath>
	</defs>
	<linearGradient id="paint0_linear_6131_4729" x1="23.077" y1="3.88199" x2="23.077" y2="37.7282" gradientUnits="userSpaceOnUse">
		<stop stop-color="var(--bgColor-6)"/>
		<stop offset="0.985" stop-color="var(--bgColor-6)"/>
	</linearGradient>
</svg>
