<svg xmlns="http://www.w3.org/2000/svg" width="40" height="40" viewBox="0 0 40 40" fill="none">
<path d="M5.49547 32.6242C5.7552 32.2509 6.12989 31.9785 6.56811 31.8569C8.69306 31.2675 15.4021 29.5136 20.0003 29.5136C24.5984 29.5136 31.3075 31.2675 33.4325 31.8569C33.8707 31.9785 34.2454 32.2509 34.5051 32.6242L36.6188 35.6623C37.5414 36.9884 36.5925 38.8045 34.9771 38.8045H5.02348C3.40804 38.8045 2.45914 36.9884 3.38175 35.6623L5.49547 32.6242Z" fill="var(--text_color_L3)"/>
<path fill-rule="evenodd" clip-rule="evenodd" d="M30.0536 1.3266L19.0599 2.57018C11.5381 3.49927 6.83687 8.90685 6.83687 15.5775C6.83687 22.2481 12.3093 27.6557 19.0599 27.6557C25.2496 27.6557 30.3647 23.1095 31.1721 17.2119L32.8764 11.0433C33.0539 10.3999 32.869 9.71192 32.3918 9.2404L30.9088 7.77494C30.109 6.98461 30.1912 5.68044 31.084 4.99424L32.8764 3.49928C35.044 1.32659 31.9994 0.942053 30.0536 1.3266ZM23.4592 20.3337C22.788 22.4405 21.0715 23.9388 19.0598 23.9388C17.0481 23.9388 15.3315 22.4405 14.6604 20.3337C14.3252 19.2813 15.254 18.3643 16.3586 18.3643H21.761C22.8655 18.3643 23.7944 19.2813 23.4592 20.3337Z" fill="var(--text_color_L3)"/>
</svg>