<svg xmlns="http://www.w3.org/2000/svg" width="40" height="40" viewBox="0 0 40 40" fill="none">
  <g clip-path="url(#clip0_6079_60199)">
    <path d="M18.5142 4.69292L12.4561 10.7451L12.169 11.0459C8.98571 14.6647 9.11851 19.924 12.4132 23.2187C13.9519 24.7574 16.0068 25.6706 18.1801 25.7813C20.3534 25.8921 22.4906 25.1926 24.1778 23.8182L24.3672 23.6561L24.7832 23.2734L26.91 21.1466L32.4349 26.6696L22.7677 36.3367C22.0353 37.0689 21.042 37.4803 20.0063 37.4803C18.9705 37.4803 17.9772 37.0689 17.2448 36.3367L3.43736 22.5293C1.35745 20.452 0.134259 17.6689 0.0104128 14.732C-0.113434 11.795 0.871112 8.9188 2.76876 6.67382C4.66641 4.42885 7.33853 2.97911 10.2551 2.61219C13.1717 2.24526 16.1196 2.98794 18.5142 4.69292ZM36.2783 5.67135L36.6122 5.99359L36.7372 6.12249L37.0107 6.41152C37.3544 6.7943 37.6707 7.19661 37.9559 7.61064L37.7782 7.35871C37.8778 7.49737 37.9754 7.63798 38.0711 7.78055L37.9559 7.61064C38.0633 7.76688 38.1648 7.92311 38.2625 8.07935L38.0711 7.78055C38.1551 7.90749 38.2352 8.03443 38.3133 8.16528L38.2625 8.07935C38.3445 8.2141 38.4246 8.34886 38.5027 8.48556L38.3133 8.16528C38.4129 8.32738 38.5086 8.49338 38.5984 8.65938L38.5008 8.48556C38.573 8.61251 38.6414 8.73945 38.7078 8.86639L38.5984 8.65938C38.6765 8.80585 38.7546 8.95232 38.8269 9.1027L38.7097 8.86834C38.7976 9.03825 38.8796 9.21011 38.9597 9.38393L38.8269 9.1027C38.8913 9.2355 38.9538 9.37025 39.0124 9.50501L38.9597 9.38393C39.0417 9.56555 39.1198 9.74522 39.1921 9.93075L39.0124 9.50501C39.89 11.5108 40.1912 13.7215 39.8821 15.889C39.573 18.0565 38.6659 20.0949 37.2626 21.7754L36.915 22.1778L36.7294 22.3691L36.579 22.5293L33.8156 25.2888L28.2926 19.7658C27.9264 19.3997 27.4298 19.194 26.9119 19.194C26.3941 19.194 25.8974 19.3997 25.5312 19.7658L23.461 21.8379L23.0939 22.1758L22.9435 22.3047C21.6312 23.3734 19.9691 23.9173 18.2789 23.831C16.5887 23.7448 14.9906 23.0346 13.7939 21.8379C11.341 19.385 11.1262 15.5025 13.3193 12.7098L13.583 12.3934L13.8369 12.1259L20.057 5.90766L20.1254 5.84126L20.4496 5.5366C20.6933 5.31651 20.9461 5.10671 21.2073 4.90775L20.9554 5.10695C21.0921 4.99758 21.2288 4.89212 21.3655 4.78862L21.2093 4.90775C21.3323 4.81401 21.4573 4.72222 21.5842 4.63433L21.3675 4.79057C21.5059 4.68853 21.6465 4.58955 21.7893 4.49372L21.5842 4.63433C21.7164 4.54106 21.8506 4.45056 21.9865 4.36287L21.7893 4.49372C21.9299 4.39998 22.0705 4.31014 22.2131 4.22226L21.9865 4.36287C22.1233 4.27694 22.26 4.19297 22.3986 4.11289L22.2131 4.22226C22.3537 4.13633 22.4963 4.05431 22.6408 3.97619L22.3986 4.11289C22.5392 4.03087 22.6818 3.9508 22.8244 3.87659L22.6408 3.97423C22.7775 3.90002 22.9181 3.82581 23.0587 3.7555L22.8244 3.87659C22.965 3.80237 23.1075 3.73011 23.2501 3.66176L23.0587 3.7555L23.4923 3.55044L23.2501 3.66176C23.4005 3.59145 23.5528 3.5231 23.7052 3.4567L23.4923 3.55044C23.6427 3.48404 23.795 3.41959 23.9473 3.35905L23.7052 3.4567C23.8594 3.39225 24.0137 3.32976 24.17 3.27117L23.9473 3.35905C26.0117 2.54426 28.2642 2.3292 30.4455 2.73864C32.6267 3.14808 34.648 4.16536 36.2763 5.67331L36.2783 5.67135Z" fill="url(#paint0_linear_6079_60199)"/>
  </g>
  <defs>
    <linearGradient id="paint0_linear_6079_60199" x1="23.077" y1="3.0773" x2="23.077" y2="36.9235" gradientUnits="userSpaceOnUse">
      <stop stop-color="var(--tab1)"/>
      <stop offset="0.985" stop-color="var(--tab2)"/>
    </linearGradient>
    <clipPath id="clip0_6079_60199">
      <rect width="40" height="40" fill="white"/>
    </clipPath>
  </defs>
</svg>