<svg width="40" height="40" viewBox="0 0 40 40" fill="none" xmlns="http://www.w3.org/2000/svg">
<g id="Property 1=icon_sel_wallet">
<path id="Vector" d="M37.9143 33.7041C37.9143 34.2039 37.8288 34.6708 37.6578 35.1049C37.4868 35.5389 37.2435 35.9204 36.9278 36.2492C36.6122 36.578 36.2439 36.8345 35.823 37.0186C35.4021 37.2028 34.9418 37.2948 34.442 37.2948H5.79504C5.29523 37.2948 4.82173 37.2028 4.37453 37.0186C3.92734 36.8345 3.53275 36.578 3.19078 36.2492C2.8488 35.9204 2.57917 35.5389 2.38188 35.1049C2.18458 34.6708 2.08594 34.2039 2.08594 33.7041V14.0143C2.08594 13.0147 2.43449 12.1663 3.13159 11.4692C3.82869 10.7721 4.67705 10.4236 5.67667 10.4236H34.3236C35.3232 10.4236 36.1716 10.7721 36.8687 11.4692C37.5658 12.1663 37.9143 13.0147 37.9143 14.0143V19.3806H28.9572C27.9576 19.3806 27.1092 19.7226 26.4121 20.4066C25.715 21.0905 25.3665 21.9323 25.3665 22.9319C25.3928 23.6159 25.5375 24.2209 25.8005 24.747C26.011 25.1942 26.3595 25.6019 26.8462 25.9702C27.3328 26.3385 28.0365 26.5226 28.9572 26.5226H37.9143V33.7041ZM32.5479 8.60846H14.6338C16.0543 7.8719 17.3959 7.16165 18.6585 6.4777C19.7634 5.89897 20.8551 5.32025 21.9336 4.74152C23.0121 4.1628 23.8539 3.7156 24.4589 3.39993C25.3796 2.90013 26.2017 2.66995 26.9251 2.70941C27.6485 2.74887 28.2601 2.87382 28.7599 3.08427C29.3386 3.37363 29.8385 3.75506 30.2593 4.22856L32.5479 8.60846ZM27.1816 22.9319C27.1816 22.4321 27.3526 22.0112 27.6945 21.6692C28.0365 21.3273 28.4574 21.1563 28.9572 21.1563C29.457 21.1563 29.8779 21.3273 30.2199 21.6692C30.5619 22.0112 30.7329 22.4321 30.7329 22.9319C30.7329 23.4317 30.5619 23.8592 30.2199 24.2143C29.8779 24.5694 29.457 24.747 28.9572 24.747C28.4574 24.747 28.0365 24.5694 27.6945 24.2143C27.3526 23.8592 27.1816 23.4317 27.1816 22.9319Z" fill="url(#paint0_linear_6079_60201)"/>
</g>
<defs>
<linearGradient id="paint0_linear_6079_60201" x1="22.7562" y1="3.25598" x2="22.7562" y2="36.7439" gradientUnits="userSpaceOnUse">
      <stop stop-color="var(--tab1)"/>
      <stop offset="0.985" stop-color="var(--tab2)"/>
</linearGradient>
</defs>
</svg>
