<svg width="58" height="32" viewBox="0 0 58 32" fill="none" xmlns="http://www.w3.org/2000/svg">
<g id="Group 1420069277">
<path id="Rectangle 9958" d="M10 0H49.4694L53.4498 3.69622L58 7.71924L48 32H8.51783L4.14389 27.7198L0 23.743L10 0Z" fill="var(--main-color)"/>
<path id="Vector" d="M26.6406 24.8112C26.6406 25.6785 27.622 26.1594 28.3025 25.6652L28.3746 25.6085L38.2741 17.109C38.3823 17.0162 38.4704 16.9024 38.5332 16.7745C38.596 16.6466 38.6321 16.5072 38.6393 16.3649C38.6465 16.2226 38.6247 16.0803 38.5751 15.9468C38.5256 15.8132 38.4493 15.691 38.3511 15.5878L38.2741 15.515L28.3746 7.01552C27.7165 6.45131 26.7127 6.88252 26.6441 7.72113L26.6406 7.81213V24.8119V24.8112Z" fill="var(--bg_color_L2)"/>
</g>
</svg>
