<svg width="58" height="32" viewBox="0 0 58 32" fill="none" xmlns="http://www.w3.org/2000/svg">
<g id="Group 1420069276">
<path id="Rectangle 9958" d="M10 0H49.4694L53.4498 3.69622L58 7.71924L48 32H8.51783L4.14389 27.7198L0 23.743L10 0Z" fill="var(--main-color)"/>
<path id="Vector" d="M35 24.4992C35 25.3665 34.0186 25.8474 33.3382 25.3532L33.2661 25.2965L23.3665 16.797C23.2584 16.7042 23.1702 16.5904 23.1074 16.4625C23.0446 16.3346 23.0085 16.1952 23.0013 16.0529C22.9941 15.9106 23.016 15.7683 23.0655 15.6347C23.1151 15.5011 23.1913 15.379 23.2895 15.2758L23.3665 15.203L33.2661 6.70351C33.9241 6.1393 34.9279 6.5705 34.9965 7.40912L35 7.50012V24.4999V24.4992Z" fill="var(--bg_color_L2)"/>
</g>
</svg>
