<svg xmlns="http://www.w3.org/2000/svg" width="61" height="61" viewBox="0 0 61 61" fill="none">
<path d="M60.5 30.8047C60.5 47.3732 47.0685 60.8047 30.5 60.8047C13.9315 60.8047 0.5 47.3732 0.5 30.8047C0.5 14.2361 13.9315 0.804688 30.5 0.804688C47.0685 0.804688 60.5 14.2361 60.5 30.8047Z" fill="url(#paint0_linear_6048_105305)"/>
<path d="M31.4375 25.336C29.375 25.336 28 26.7109 28 28.4297V43.2109C28 44.9297 29.3749 46.3047 31.4375 46.3047C33.4999 46.3047 34.8749 44.9297 34.8749 43.211V28.4297C34.8749 26.711 33.5 25.336 31.4375 25.336ZM31.4375 20.1797C33.4999 20.1797 34.8749 18.8047 34.8749 16.7422C34.8749 14.6797 33.5 13.3047 31.4375 13.3047C29.375 13.3047 28 14.6797 28 16.7422C28 18.8047 29.3749 20.1797 31.4375 20.1797Z" fill="white"/>
<defs>
<linearGradient id="paint0_linear_6048_105305" x1="30.5" y1="0.804687" x2="30.5" y2="60.8047" gradientUnits="userSpaceOnUse">
<stop stop-color="#42BBFF"/>
<stop offset="1" stop-color="#1762F2"/>
</linearGradient>
</defs>
</svg>