<svg xmlns="http://www.w3.org/2000/svg" width="61" height="61" viewBox="0 0 61 61" fill="none">
<g clip-path="url(#clip0_6048_105312)">
<path d="M26.6817 15.5322H34.8635C35.576 15.5322 36.1818 15.9877 36.4064 16.6232H25.1388C25.3635 15.9876 25.9693 15.5322 26.6817 15.5322ZM21.0159 25.2868H25.0454V18.2595H36.4999V25.2868H40.0476C41.5105 25.2868 41.9817 25.5603 40.5934 26.9344L33.0444 34.3873C30.5105 36.8904 30.5415 36.8836 28.0121 34.3873L20.4644 26.9333C19.0761 25.5603 19.3956 25.2868 21.0159 25.2868ZM46.8636 43.0438C46.8636 44.1162 46.019 44.9869 44.9758 44.9869H16.0239C14.9807 44.9869 14.1362 44.1162 14.1362 43.0438V33.3272C14.1362 32.2548 14.9807 31.3842 16.0239 31.3842C17.067 31.3842 17.9136 32.2548 17.9136 33.3272V41.1011H43.0882V33.3272C43.0882 32.2548 43.9349 31.3842 44.9759 31.3842C46.019 31.3842 46.8636 32.2548 46.8636 33.3272V43.0438Z" fill="white"/>
<path d="M30.5001 0.804688C13.9314 0.804688 0.5 14.2362 0.5 30.8047C0.5 47.3734 13.9315 60.8048 30.5001 60.8048C47.0686 60.8048 60.5001 47.3733 60.5001 30.8047C60.5001 14.2362 47.0686 0.804688 30.5001 0.804688ZM26.6819 15.5321H34.8637C35.5762 15.5321 36.1819 15.9875 36.4066 16.623H25.1389C25.3636 15.9874 25.9694 15.5321 26.6819 15.5321ZM21.0161 25.2866H25.0455V18.2593H36.5001V25.2866H40.0477C41.5107 25.2866 41.9818 25.5601 40.5936 26.9342L33.0446 34.3871C30.5106 36.8903 30.5416 36.8835 28.0123 34.3871L20.4645 26.9331C19.0762 25.5601 19.3957 25.2866 21.0161 25.2866ZM46.8637 43.0436C46.8637 44.116 46.0191 44.9867 44.976 44.9867H16.0241C14.9808 44.9867 14.1364 44.116 14.1364 43.0436V33.327C14.1364 32.2546 14.9808 31.384 16.0241 31.384C17.0671 31.384 17.9138 32.2546 17.9138 33.327V41.1009H43.0883V33.327C43.0883 32.2546 43.9351 31.384 44.976 31.384C46.0191 31.384 46.8637 32.2546 46.8637 33.327V43.0436Z" fill="url(#paint0_linear_6048_105312)"/>
</g>
<defs>
<linearGradient id="paint0_linear_6048_105312" x1="30.5001" y1="0.804687" x2="30.5001" y2="60.8048" gradientUnits="userSpaceOnUse">
<stop stop-color="#2DE38B"/>
<stop offset="1" stop-color="#0FB6BC"/>
</linearGradient>
<clipPath id="clip0_6048_105312">
<rect width="60" height="60" fill="white" transform="translate(0.5 0.804688)"/>
</clipPath>
</defs>
</svg>