<svg xmlns="http://www.w3.org/2000/svg" width="60" height="61" viewBox="0 0 60 61" fill="none">
<g clip-path="url(#clip0_6101_28743)">
<circle cx="30" cy="30.8047" r="30" fill="url(#paint0_linear_6101_28743)"/>
<path d="M45.9969 40.8447V41.0788C46.001 41.0031 46.001 40.9273 45.9969 40.8516V40.8447ZM44.2065 17.4108C44.0435 17.3995 43.88 17.423 43.7269 17.4796C43.5738 17.5362 43.4348 17.6245 43.3193 17.7387C43.2037 17.8529 43.1143 17.9903 43.0571 18.1415C42.9998 18.2928 42.9761 18.4544 42.9874 18.6155V42.7103C42.9472 43.3317 42.6811 43.9177 42.2382 44.3605C41.7952 44.8033 41.2053 45.073 40.577 45.1198H19.3224C17.8664 45.1198 16.1805 43.9151 16.1805 42.7103V40.0048C16.1805 38.8001 17.6365 38.0635 19.0855 38.0635H39.3718C39.5348 38.0747 39.6984 38.0512 39.8515 37.9947C40.0045 37.9381 40.1435 37.8497 40.2591 37.7355C40.3746 37.6213 40.4641 37.484 40.5213 37.3327C40.5786 37.1815 40.6023 37.0198 40.591 36.8587V17.1836C40.604 16.5716 40.4842 15.9639 40.2398 15.4014C39.9954 14.839 39.632 14.3347 39.174 13.9225C38.716 13.5104 38.1741 13.1999 37.5846 13.0119C36.995 12.8239 36.3716 12.7628 35.7562 12.8327H19.3224C16.6473 12.8327 14 14.2922 14 17.1836V43.6741C14.2086 44.7626 14.7701 45.7544 15.5996 46.4996C16.4291 47.2448 17.4815 47.7029 18.5979 47.8047H40.591C41.8389 47.8058 43.039 47.3299 43.9401 46.4766C44.8412 45.6234 45.3735 44.4589 45.4257 43.2267V18.6568C45.4074 18.3432 45.2731 18.0471 45.0483 17.825C44.8235 17.6028 44.5239 17.4701 44.2065 17.4521V17.4108ZM39.532 40.528H19.8936C19.5703 40.528 19.2602 40.655 19.0316 40.8809C18.8029 41.1068 18.6745 41.4133 18.6745 41.7328C18.6745 42.0523 18.8029 42.3587 19.0316 42.5847C19.2602 42.8106 19.5703 42.9375 19.8936 42.9375H39.539C39.6991 42.9375 39.8576 42.9064 40.0056 42.8458C40.1535 42.7853 40.2879 42.6965 40.4011 42.5847C40.5143 42.4728 40.6041 42.34 40.6653 42.1938C40.7266 42.0477 40.7581 41.891 40.7581 41.7328C40.7581 41.5746 40.7266 41.4179 40.6653 41.2717C40.6041 41.1256 40.5143 40.9928 40.4011 40.8809C40.2879 40.769 40.1535 40.6803 40.0056 40.6197C39.8576 40.5592 39.6991 40.528 39.539 40.528H39.532Z" fill="white"/>
</g>
<defs>
<linearGradient id="paint0_linear_6101_28743" x1="30" y1="0.804687" x2="30" y2="60.8047" gradientUnits="userSpaceOnUse">
<stop stop-color="#FF6341"/>
<stop offset="1" stop-color="#FF2524"/>
</linearGradient>
<clipPath id="clip0_6101_28743">
<rect width="60" height="60" fill="white" transform="translate(0 0.804688)"/>
</clipPath>
</defs>
</svg>