<svg xmlns="http://www.w3.org/2000/svg" width="60" height="61" viewBox="0 0 60 61" fill="none">
  <g clip-path="url(#clip0_6101_28737)">
    <circle cx="30" cy="30.8047" r="30" fill="url(#paint0_linear_6101_28737)"/>
    <path d="M22.3857 46.3972C22.3333 46.3972 22.2632 46.4322 22.2107 46.4322C18.8157 44.7522 16.0508 41.9697 14.3532 38.5747C14.3532 38.5222 14.3882 38.4522 14.3882 38.3997C16.5233 39.0297 18.7283 39.5022 20.9157 39.8697C21.3007 42.0747 21.7557 44.2622 22.3857 46.3972ZM45.645 38.5922C43.9125 42.0747 41.025 44.8922 37.5075 46.5897C38.1725 44.3672 38.7325 42.1272 39.1 39.8697C41.305 39.5022 43.475 39.0297 45.61 38.3997C45.5925 38.4697 45.645 38.5397 45.645 38.5922ZM45.785 23.2972C43.58 22.6322 41.3575 22.0897 39.1 21.7047C38.7325 19.4472 38.19 17.2072 37.5075 15.0197C41.13 16.7522 44.0525 19.6747 45.785 23.2972ZM22.3875 15.2104C21.7575 17.3454 21.3025 19.5154 20.935 21.7204C18.6775 22.0704 16.4375 22.6304 14.215 23.2954C15.9125 19.7779 18.73 16.8904 22.2125 15.1579C22.265 15.1579 22.335 15.2104 22.3875 15.2104Z" fill="white"/>
    <path d="M36.111 21.3372C32.051 20.8822 27.956 20.8822 23.896 21.3372C24.3335 18.9397 24.8935 16.5422 25.681 14.2322C25.716 14.0922 25.6985 13.9872 25.716 13.8472C27.0985 13.5147 28.516 13.3047 30.0035 13.3047C31.4735 13.3047 32.9085 13.5147 34.2735 13.8472C34.291 13.9872 34.291 14.0922 34.326 14.2322C35.1135 16.5597 35.6735 18.9397 36.111 21.3372ZM20.5325 36.9157C18.1175 36.4782 15.7375 35.9182 13.4275 35.1307C13.2875 35.0957 13.1825 35.1132 13.0425 35.0957C12.71 33.7132 12.5 32.2957 12.5 30.8082C12.5 29.3382 12.71 27.9032 13.0425 26.5382C13.1825 26.5207 13.2875 26.5207 13.4275 26.4857C15.755 25.7157 18.1175 25.1382 20.5325 24.7007C20.095 28.7607 20.095 32.8557 20.5325 36.9157ZM47.5 30.8082C47.5 32.2957 47.29 33.7132 46.9575 35.0957C46.8175 35.1132 46.7125 35.0957 46.5725 35.1307C44.245 35.9007 41.865 36.4782 39.4675 36.9157C39.9225 32.8557 39.9225 28.7607 39.4675 24.7007C41.865 25.1382 44.2625 25.6982 46.5725 26.4857C46.7125 26.5207 46.8175 26.5382 46.9575 26.5382C47.29 27.9207 47.5 29.3382 47.5 30.8082ZM36.111 40.2722C35.6735 42.6872 35.1135 45.0672 34.326 47.3772C34.291 47.5172 34.291 47.6222 34.2735 47.7622C32.9085 48.0947 31.4735 48.3047 30.0035 48.3047C28.516 48.3047 27.0985 48.0947 25.716 47.7622C25.6985 47.6222 25.716 47.5172 25.681 47.3772C24.92 45.0537 24.3235 42.6795 23.896 40.2722C25.926 40.4997 27.956 40.6572 30.0035 40.6572C32.051 40.6572 34.0985 40.4997 36.111 40.2722ZM36.5852 37.3899C32.2124 37.9421 27.7876 37.9421 23.4148 37.3899C22.8626 33.0171 22.8626 28.5922 23.4148 24.2194C27.7876 23.6673 32.2124 23.6673 36.5852 24.2194C37.1375 28.5922 37.1375 33.0171 36.5852 37.3899Z" fill="white"/>
  </g>
  <defs>
    <linearGradient id="paint0_linear_6101_28737" x1="30" y1="0.804687" x2="30" y2="60.8047" gradientUnits="userSpaceOnUse">
      <stop stop-color="#6CEF1D"/>
      <stop offset="1" stop-color="#1AC81F"/>
    </linearGradient>
    <clipPath id="clip0_6101_28737">
      <rect width="60" height="60" fill="white" transform="translate(0 0.804688)"/>
    </clipPath>
  </defs>
</svg>