<svg xmlns="http://www.w3.org/2000/svg" width="50" height="53" viewBox="0 0 50 53" fill="none">
<g clip-path="url(#clip0_6079_59714)">
<path d="M36.9386 50.3403C35.4684 50.3406 34.0126 50.0512 32.6542 49.4887C31.2959 48.9261 30.0617 48.1015 29.0221 47.0619C27.9825 46.0224 27.1579 44.7881 26.5954 43.4298C26.0329 42.0715 25.7435 40.6156 25.7437 39.1454V30.4441C25.7437 30.1175 25.8081 29.794 25.9331 29.4922C26.0582 29.1905 26.2415 28.9163 26.4726 28.6854C26.7037 28.4545 26.978 28.2714 27.2798 28.1465C27.5817 28.0217 27.9052 27.9576 28.2319 27.9578H36.9386C38.6827 27.9584 40.4026 28.3665 41.961 29.1495C43.5195 29.9325 44.8734 31.0689 45.9149 32.4679C46.9563 33.8669 47.6565 35.4899 47.9595 37.2075C48.2626 38.9251 48.1602 40.6897 47.6604 42.3607C47.5841 42.6934 47.4403 43.0069 47.2377 43.2817C47.0351 43.5564 46.7781 43.7866 46.4828 43.9577C46.1875 44.1289 45.8601 44.2375 45.521 44.2767C45.1818 44.316 44.8383 44.285 44.5117 44.1857C44.1851 44.0865 43.8823 43.9211 43.6224 43.6999C43.3624 43.4786 43.1508 43.2062 43.0006 42.8997C42.8504 42.5931 42.7649 42.2589 42.7494 41.9179C42.7339 41.5769 42.7888 41.2364 42.9106 40.9175C43.0752 40.343 43.1589 39.7484 43.159 39.1509C43.159 37.5036 42.5046 35.9237 41.3398 34.7589C40.1749 33.594 38.5951 32.9396 36.9478 32.9396H30.7365V39.1509C30.7399 40.1174 30.9678 41.07 31.4022 41.9334C31.8365 42.7969 32.4655 43.5476 33.2396 44.1264C34.0136 44.7053 34.9116 45.0964 35.8626 45.269C36.8136 45.4416 37.7917 45.391 38.7198 45.121C39.0387 44.9992 39.3792 44.9444 39.7203 44.9599C40.0613 44.9754 40.3955 45.0609 40.702 45.211C41.0086 45.3612 41.281 45.5729 41.5022 45.8328C41.7235 46.0928 41.8888 46.3955 41.9881 46.7221C42.0873 47.0487 42.1183 47.3923 42.0791 47.7314C42.0398 48.0705 41.9313 48.3979 41.7601 48.6933C41.5889 48.9886 41.3588 49.2455 41.084 49.4481C40.8092 49.6507 40.4957 49.7946 40.163 49.8708C39.1226 50.1849 38.0418 50.3443 36.9551 50.344L36.9386 50.3403Z" fill="currentColor"/>
<path d="M40.669 25.4642H28.2319C27.9051 25.4642 27.5816 25.3998 27.2797 25.2748C26.9778 25.1497 26.7035 24.9664 26.4725 24.7354C26.2414 24.5044 26.0582 24.2301 25.9331 23.9282C25.8081 23.6263 25.7437 23.3027 25.7437 22.976V10.5315C25.7456 8.55421 26.5322 6.65848 27.9308 5.26064C29.3293 3.86281 31.2254 3.07714 33.2027 3.07617H40.6654C42.644 3.0752 44.542 3.86001 45.9421 5.25806C47.3422 6.65611 48.1298 8.55294 48.1317 10.5315V17.9942C48.1317 18.9742 47.9387 19.9446 47.5636 20.85C47.1886 21.7554 46.6389 22.5781 45.9459 23.2711C45.253 23.9641 44.4303 24.5138 43.5249 24.8888C42.6195 25.2638 41.649 25.4569 40.669 25.4569V25.4642ZM30.72 20.4897H40.669C41.3289 20.4897 41.9618 20.2275 42.4284 19.7609C42.8951 19.2943 43.1572 18.6614 43.1572 18.0015V10.5315C43.1572 9.87163 42.8951 9.23875 42.4284 8.77213C41.9618 8.30551 41.3289 8.04337 40.669 8.04337H33.2027C32.5436 8.04433 31.9119 8.30697 31.4463 8.77353C30.9808 9.2401 30.7196 9.87243 30.72 10.5315V20.4897ZM15.7929 50.3403H8.33022C7.35021 50.3403 6.37979 50.1473 5.47438 49.7723C4.56897 49.3972 3.74629 48.8475 3.05332 48.1546C2.36035 47.4616 1.81065 46.6389 1.43562 45.7335C1.06058 44.8281 0.867554 43.8577 0.867554 42.8777V35.415C0.867554 33.4358 1.6538 31.5376 3.05332 30.1381C4.45284 28.7386 6.351 27.9523 8.33022 27.9523H20.7692C21.0962 27.9523 21.4199 28.0168 21.722 28.1421C22.024 28.2674 22.2983 28.451 22.5293 28.6825C22.7602 28.914 22.9432 29.1887 23.0679 29.491C23.1925 29.7933 23.2563 30.1172 23.2555 30.4441V42.8831C23.2555 43.8631 23.0625 44.8336 22.6875 45.739C22.3125 46.6444 21.7628 47.4671 21.0698 48.16C20.3768 48.853 19.5541 49.4027 18.6487 49.7777C17.7433 50.1528 16.7729 50.3458 15.7929 50.3458V50.3403ZM8.33022 32.9268C7.67032 32.9268 7.03744 33.189 6.57082 33.6556C6.1042 34.1222 5.84205 34.7551 5.84205 35.415V42.8777C5.84205 43.2043 5.90643 43.5278 6.03149 43.8296C6.15655 44.1313 6.33986 44.4055 6.57093 44.6364C6.802 44.8673 7.07631 45.0504 7.37818 45.1753C7.68004 45.3001 8.00355 45.3642 8.33022 45.364H15.7929C16.1195 45.3642 16.4431 45.3001 16.7449 45.1753C17.0468 45.0504 17.3211 44.8673 17.5522 44.6364C17.7832 44.4055 17.9665 44.1313 18.0916 43.8296C18.2167 43.5278 18.281 43.2043 18.281 42.8777V32.9268H8.33022ZM20.7692 25.4642H8.33022C7.35021 25.4642 6.37979 25.2711 5.47438 24.8961C4.56897 24.5211 3.74629 23.9714 3.05332 23.2784C2.36035 22.5854 1.81065 21.7628 1.43562 20.8573C1.06058 19.9519 0.867554 18.9815 0.867554 18.0015V10.5315C0.869491 8.55357 1.65659 6.65729 3.0559 5.25935C4.45521 3.86141 6.35226 3.07617 8.33022 3.07617H15.7929C17.7708 3.07617 19.6679 3.86141 21.0672 5.25935C22.4665 6.65729 23.2536 8.55357 23.2555 10.5315V22.9687C23.2558 23.2954 23.1917 23.6189 23.0668 23.9207C22.942 24.2226 22.7589 24.4969 22.528 24.728C22.2971 24.9591 22.0229 25.1424 21.7211 25.2674C21.4193 25.3925 21.0959 25.4569 20.7692 25.4569V25.4642ZM8.33022 8.05067C7.67158 8.05067 7.03981 8.31181 6.5734 8.77685C6.10699 9.2419 5.84399 9.87289 5.84205 10.5315V17.9942C5.84205 18.6541 6.1042 19.287 6.57082 19.7536C7.03744 20.2202 7.67032 20.4824 8.33022 20.4824H18.281V10.5315C18.2791 9.87289 18.0161 9.2419 17.5497 8.77685C17.0833 8.31181 16.4515 8.05067 15.7929 8.05067H8.33022Z" fill="currentColor"/>
</g>
<defs>
<clipPath id="clip0_6079_59714">
<rect width="48.8807" height="51.4286" fill="white" transform="translate(0.499634 0.710938)"/>
</clipPath>
</defs>
</svg>