<svg xmlns="http://www.w3.org/2000/svg" width="60" height="61" viewBox="0 0 60 61" fill="none">
<g clip-path="url(#clip0_6048_105291)">
<path d="M17.0595 33.0852H13V23.9051H17.0595V33.0852ZM31.3884 46.8481C30.8154 48.4183 27.0175 48.2485 27.0175 48.2485C22.6469 42.6046 22.0527 37.2156 22.0527 37.2156L26.1901 37.2155C26.7528 40.9497 30.1951 43.8574 30.5821 44.4718C31.7914 45.8084 31.3884 46.8481 31.3884 46.8481ZM41.0244 41.5048C41.0244 41.5048 36.1659 35.2035 19.4262 34.4394L19.4219 22.6814C19.4219 22.6814 33.5527 22.1651 40.9649 13.3388C40.9649 13.3388 47.3047 11.8229 46.8209 28.4456C46.8209 28.4456 47.4953 39.8923 41.0244 41.5048Z" fill="white"/>
<path d="M29.9234 0.701172C13.3126 0.701172 -0.153076 14.1669 -0.153076 30.7777C-0.153076 47.3885 13.3126 60.8542 29.9234 60.8542C46.5343 60.8542 59.9999 47.3885 59.9999 30.7777C59.9999 14.1669 46.5343 0.701172 29.9234 0.701172ZM17.0595 33.0845H13V23.9044H17.0595V33.0845ZM31.3884 46.8475C30.8154 48.4177 27.0175 48.2478 27.0175 48.2478C22.6469 42.604 22.0527 37.2149 22.0527 37.2149L26.19 37.2149C26.7528 40.949 30.195 43.8567 30.5821 44.4712C31.7914 45.8078 31.3884 46.8475 31.3884 46.8475ZM41.0244 41.5041C41.0244 41.5041 36.1658 35.2029 19.4262 34.4388L19.4219 22.6808C19.4219 22.6808 33.5527 22.1645 40.9649 13.3382C40.9649 13.3382 47.3047 11.8223 46.8209 28.445C46.8206 28.4451 47.4953 39.8917 41.0244 41.5041Z" fill="url(#paint0_linear_6048_105291)"/>
</g>
<defs>
<linearGradient id="paint0_linear_6048_105291" x1="29.9234" y1="60.8542" x2="29.9234" y2="0.701172" gradientUnits="userSpaceOnUse">
<stop stop-color="#F26919"/>
<stop offset="1" stop-color="#FFBF22"/>
</linearGradient>
<clipPath id="clip0_6048_105291">
<rect width="60" height="60" fill="white" transform="translate(0 0.804688)"/>
</clipPath>
</defs>
</svg>