<svg xmlns="http://www.w3.org/2000/svg" width="61" height="61" viewBox="0 0 61 61" fill="none">
<g clip-path="url(#clip0_6101_28729)">
<circle cx="30.5" cy="30.8047" r="30" fill="url(#paint0_linear_6101_28729)"/>
<path d="M30.4427 18.1359C25.1577 18.1359 20.8738 22.3326 20.8738 27.5093C20.8738 32.6858 25.1577 36.8825 30.4427 36.8825C35.7275 36.8825 40.0115 32.6858 40.0115 27.5093C40.0094 22.3326 35.7275 18.1359 30.4427 18.1359ZM19.3926 31.1089V22.4539C19.2715 22.4539 19.1504 22.4581 19.0335 22.4686C20.9948 18.2101 25.3617 15.2437 30.4427 15.2437C35.5235 15.2437 39.8924 18.2101 41.8517 22.4686C41.7327 22.4602 41.6137 22.4539 41.4926 22.4539V31.1089C43.9321 31.1089 45.9126 29.1709 45.9126 26.7825C45.9126 25.159 44.9989 23.7459 43.6495 23.0041C41.7497 17.647 36.5626 13.8008 30.4427 13.8008C24.3226 13.8008 19.1376 17.647 17.2357 23.0041C15.8863 23.7437 14.9725 25.1589 14.9725 26.7803C14.9725 29.1709 16.951 31.1089 19.3926 31.1089ZM39.9902 36.0707C37.4891 38.3573 34.1338 39.7576 30.4427 39.7576C26.758 39.7576 23.4068 38.3637 20.9078 36.0836C17.4132 37.8441 14.8559 40.6808 13.9056 44.4385C13.4459 46.2564 15.0201 47.8008 16.8951 47.8008H44.1049C45.9799 47.8008 47.5544 46.2558 47.0891 44.4393C46.1242 40.6721 43.5251 37.8308 39.9902 36.0707Z" fill="white"/>
</g>
<defs>
<linearGradient id="paint0_linear_6101_28729" x1="30.5" y1="0.804688" x2="30.5" y2="60.8047" gradientUnits="userSpaceOnUse">
<stop stop-color="#42DDFF"/>
<stop offset="1" stop-color="#198AF3"/>
</linearGradient>
<clipPath id="clip0_6101_28729">
<rect width="60" height="60" fill="white" transform="translate(0.5 0.804688)"/>
</clipPath>
</defs>
</svg>