<svg width="26" height="26" viewBox="0 0 26 26"  xmlns="http://www.w3.org/2000/svg">
<path fill-rule="evenodd" clip-rule="evenodd" d="M20.5 4.32812C20.5 4.80026 20.4182 5.2533 20.268 5.67383H22.5C24.1569 5.67383 25.5 7.01697 25.5 8.67383V11.6738C25.5 13.3307 24.1569 14.3281 22.5 14.3281H14V7.32812H12.0378V14.3281H3.5C1.84315 14.3281 0.5 13.3307 0.5 11.6738V8.67383C0.5 7.01697 1.84315 5.67383 3.5 5.67383H5.732C5.5818 5.2533 5.5 4.80026 5.5 4.32812C5.5 2.11899 7.29086 0.328125 9.5 0.328125C11.006 0.328125 12.3176 1.16041 13 2.39012C13.6824 1.16041 14.994 0.328125 16.5 0.328125C18.7091 0.328125 20.5 2.11899 20.5 4.32812ZM19.5 4.32812C19.5 4.812 19.3854 5.26911 19.182 5.67383H13.818C13.6146 5.26911 13.5 4.812 13.5 4.32812C13.5 2.67127 14.8431 1.32812 16.5 1.32812C18.1569 1.32812 19.5 2.67127 19.5 4.32812ZM12.182 5.67383H6.81802C6.61455 5.26911 6.5 4.812 6.5 4.32812C6.5 2.67127 7.84315 1.32812 9.5 1.32812C11.1569 1.32812 12.5 2.67127 12.5 4.32812C12.5 4.812 12.3854 5.26911 12.182 5.67383Z" />
<path d="M1.5 15.6738H12.0378V25.6738H4.5C2.84315 25.6738 1.5 24.3307 1.5 22.6738V15.6738Z" />
<path d="M24.5 15.6738H14V25.6738H21.5C23.1569 25.6738 24.5 24.3307 24.5 22.6738V15.6738Z" />
</svg>
