<svg width="24" height="26" viewBox="0 0 24 26"  xmlns="http://www.w3.org/2000/svg">
<path d="M4.77118 12.3633C1.99794 13.2941 0 15.9142 0 19.001C0 22.867 3.13401 26.001 7 26.001H17C20.866 26.001 24 22.867 24 19.001C24 15.9142 22.0021 13.2941 19.2288 12.3633C17.5887 14.5707 14.9614 16.001 12 16.001C9.03864 16.001 6.41133 14.5707 4.77118 12.3633Z" />
<path fill-rule="evenodd" clip-rule="evenodd" d="M12 14C15.866 14 19 10.866 19 7C19 3.13401 15.866 0 12 0C8.13401 0 5 3.13401 5 7C5 10.866 8.13401 14 12 14ZM14 10C14 11.1046 13.1046 12 12 12C10.8954 12 10 11.1046 10 10H14Z" />
</svg>
