<svg width="28" height="27" viewBox="0 0 28 27" fill="none" xmlns="http://www.w3.org/2000/svg">
<path d="M14.4807 8.17647H4.22426C3.54422 8.17647 2.89203 8.44916 2.41116 8.93455C1.9303 9.41994 1.66016 10.0783 1.66016 10.7647V15.9412C1.66016 16.6276 1.9303 17.2859 2.41116 17.7713C2.89203 18.2567 3.54422 18.5294 4.22426 18.5294H5.50631L6.36289 23.4298C6.59698 24.621 6.36289 23.4298 6.59698 24.621C6.78836 24.9797 6.78836 25 6.78836 25H9.35246C9.69248 25 10.0186 24.8637 10.259 24.621C10.4994 24.3783 10.6345 24.0491 10.6345 23.7059V18.5294H14.4807L20.8909 23.7059V3L14.4807 8.17647ZM26.6602 13.3529C26.6602 15.5659 25.4294 17.5718 23.455 18.5294V8.17647C25.4166 9.14706 26.6602 11.1529 26.6602 13.3529Z" fill="#001534"/>
</svg>
