<svg width="26" height="24" viewBox="0 0 26 24"  xmlns="http://www.w3.org/2000/svg">
<path fill-rule="evenodd" clip-rule="evenodd" d="M4 0.5C1.79086 0.5 0 2.29086 0 4.5V19.5C0 21.7091 1.79086 23.5 4 23.5H22C24.2091 23.5 26 21.7091 26 19.5V16.5H21.5C19.0147 16.5 17 14.4853 17 12C17 9.51472 19.0147 7.5 21.5 7.5H26V4.5C26 2.29086 24.2091 0.5 22 0.5H4ZM5 5.5C4.44772 5.5 4 5.94772 4 6.5C4 7.05228 4.44772 7.5 5 7.5H12C12.5523 7.5 13 7.05228 13 6.5C13 5.94772 12.5523 5.5 12 5.5H5Z"/>
<path fill-rule="evenodd" clip-rule="evenodd" d="M26 9.5H21.5C20.1193 9.5 19 10.6193 19 12C19 13.3807 20.1193 14.5 21.5 14.5H26V9.5ZM23 12C23 12.5523 22.5523 13 22 13C21.4477 13 21 12.5523 21 12C21 11.4477 21.4477 11 22 11C22.5523 11 23 11.4477 23 12Z" />
</svg>
