<svg width="40" height="40" viewBox="0 0 40 40" fill="none" xmlns="http://www.w3.org/2000/svg">
<path d="M37.6336 21.5157L34.6828 21.5204V36.6392C34.6828 37.9338 33.6336 38.983 32.3391 38.983H24.3789V29.9392C24.3789 27.5157 22.4149 25.5509 19.9906 25.5509C18.7789 25.5509 17.682 26.0423 16.8875 26.836C16.0938 27.6306 15.6024 28.7274 15.6024 29.9392V38.9829H7.6429C6.34836 38.9829 5.29914 37.9337 5.29914 36.6392V21.5681L2.37414 21.5728C0.264765 21.5759 -0.79383 19.0259 0.697578 17.5345L16.9617 1.27031C18.6555 -0.423438 21.4016 -0.423438 23.0953 1.27031L39.3024 17.4774C40.7914 18.9665 39.7391 21.5118 37.6336 21.5157Z" fill="url(#paint0_linear_1077_133222)"/>
<defs>
<linearGradient id="paint0_linear_1077_133222" x1="40" y1="19.4917" x2="-9.23557e-08" y2="19.4917" gradientUnits="userSpaceOnUse">
<stop stop-color="#38B14F"/>
<stop offset="1" stop-color="#04CE86"/>
</linearGradient>
</defs>
</svg>
