<svg width="40" height="40" viewBox="0 0 40 40" fill="none" xmlns="http://www.w3.org/2000/svg">
<path d="M36.1539 16.3128C36.1578 14.1341 35.7259 11.977 34.8841 9.9708C32.194 3.52977 25.735 -0.463946 18.8278 0.0432388C11.9204 0.550424 6.10212 5.44542 4.36422 12.2116C2.62613 18.9779 5.35523 26.1096 11.1483 29.9398C9.76146 31.8377 9.01593 34.1354 9.02182 36.4936V36.5183C9.02617 38.4377 10.5852 40 12.497 40H27.5058C29.4172 40 30.9764 38.439 30.981 36.5183V36.2923C30.9462 34.0021 30.2064 31.7796 28.8642 29.9329C33.4137 26.9235 36.1543 21.803 36.1539 16.3128ZM25.7001 18.8299C24.8427 21.2626 22.5612 22.8874 20.0031 22.8874C17.4448 22.8874 15.1633 21.2626 14.3059 18.8299C14.0778 18.1705 14.4204 17.449 15.0724 17.215C15.7245 16.9813 16.4413 17.3229 16.6767 17.9797C17.1777 19.3995 18.5096 20.3479 20.0031 20.3479C21.4965 20.3479 22.8283 19.3995 23.3293 17.9797C23.5619 17.3196 24.2801 16.9746 24.9344 17.2082C25.249 17.3207 25.5065 17.5547 25.6502 17.8588C25.7214 18.0094 25.7624 18.1727 25.771 18.3393C25.7795 18.506 25.7554 18.6727 25.7001 18.8299Z" fill="url(#paint0_linear_973_66026)"/>
<defs>
<linearGradient id="paint0_linear_973_66026" x1="36.1539" y1="20.0002" x2="3.84619" y2="20.0002" gradientUnits="userSpaceOnUse">
<stop stop-color="#38B14F"/>
<stop offset="1" stop-color="#04CE86"/>
</linearGradient>
</defs>
</svg>
