<svg width="41" height="40" viewBox="0 0 41 40" fill="none" xmlns="http://www.w3.org/2000/svg">
<g clip-path="url(#clip0_973_66006)">
<path d="M10.882 11.009L17.822 5.57948C19.724 4.11808 22.2418 3.74164 24.4361 4.61653L35.4699 8.959C36.204 9.25331 36.9699 9.37941 37.7039 9.37941H39.5278C40.0559 9.37941 40.5 9.79783 40.5 10.3404V24.2946C40.5 24.8391 40.1658 25.1715 39.4997 25.5056C37.1358 26.2404 35.7099 26.4225 35.2259 26.0562C34.7419 25.6879 30.4559 20.3104 22.366 9.92591C22.0445 9.51849 21.4717 9.41236 21.0259 9.67772L15.146 13.063C14.5637 13.3945 13.9124 13.5859 13.2435 13.622C12.5746 13.6581 11.9065 13.5381 11.292 13.2713C10.6226 12.9495 10.3208 12.1606 10.604 11.4736C10.598 11.3033 10.718 11.1371 10.8839 11.0091L10.882 11.009ZM3.76998 25.4455L5.23995 23.5897C6.49984 21.9974 8.81054 21.729 10.4011 22.9901C10.4393 23.0204 10.4769 23.0514 10.5139 23.0832C11.0859 23.5897 18.034 29.966 18.6039 30.5568C19.7899 31.864 20.036 33.8099 19.1379 35.3678L18.9319 35.7481V35.792C19.9119 36.4667 31.9679 30.8872 32.7879 30.3846C33.8366 29.7214 34.1494 28.3327 33.4869 27.2831C33.4251 27.1853 33.3559 27.0924 33.2799 27.0053L31.9739 25.3576L21.388 12.0621C21.3331 11.9991 21.2586 11.9566 21.1765 11.9413C21.0945 11.926 21.0097 11.939 20.9359 11.978L15.868 14.8909C15.0698 15.3535 14.1784 15.6317 13.2589 15.7052C12.3395 15.7786 11.4153 15.6454 10.5539 15.3153C9.57402 14.975 8.83596 14.1742 8.46996 13.2032C8.32432 12.705 8.28166 12.1823 8.34458 11.667C8.4075 11.1517 8.57468 10.6547 8.83591 10.2062C8.95591 9.954 8.87601 9.65569 8.62992 9.53162C8.55003 9.4895 8.46601 9.4895 8.38396 9.4895H1.48003C0.942119 9.48622 0.503368 9.92002 0.5 10.4586V24.5208C0.705993 25.0215 1.15202 25.4456 1.68607 25.4456H3.76998V25.4455ZM6.97798 24.9111L5.56598 26.697C4.96197 27.4858 5.04204 28.649 5.80997 29.2735H5.85007L6.05 29.4377C6.42804 29.742 9.28603 31.6379 14.624 35.1233C15.43 35.7441 16.56 35.624 17.1641 34.7871C17.206 34.7097 17.2608 34.64 17.326 34.5809L17.568 34.1243C18.0208 33.3551 17.8885 32.3756 17.2481 31.754C16.722 31.2536 10.16 24.9111 9.31405 24.4104C8.5225 23.952 7.51256 24.1683 6.97798 24.9111Z" fill="url(#paint0_linear_973_66006)"/>
</g>
<defs>
<linearGradient id="paint0_linear_973_66006" x1="40.5" y1="19.9996" x2="0.5" y2="19.9996" gradientUnits="userSpaceOnUse">
<stop stop-color="#38B14F"/>
<stop offset="1" stop-color="#04CE86"/>
</linearGradient>
<clipPath id="clip0_973_66006">
<rect width="40" height="40" fill="white" transform="translate(0.5)"/>
</clipPath>
</defs>
</svg>
