<svg width="40" height="40" viewBox="0 0 40 40" fill="none" xmlns="http://www.w3.org/2000/svg">
<g clip-path="url(#clip0_973_66015)">
<path d="M40 35.7598C40 36.35 39.8985 36.9014 39.6954 37.4139C39.4923 37.9265 39.2033 38.3769 38.8284 38.7652C38.4535 39.1535 38.0161 39.4564 37.5162 39.6738C37.0163 39.8913 36.4695 40 35.8759 40H4.40529C3.81167 40 3.24929 39.8913 2.71816 39.6738C2.18702 39.4564 1.71837 39.1535 1.31221 38.7652C0.906052 38.3769 0.585809 37.9265 0.351486 37.4139C0.117162 36.9014 0 36.35 0 35.7598V14.2009C0 13.0205 0.413972 12.0187 1.24192 11.1955C2.06986 10.3723 3.07745 9.96074 4.26469 9.96074H35.7353C36.9225 9.96074 37.9301 10.3723 38.7581 11.1955C39.586 12.0187 40 13.0205 40 14.2009V20.5379H29.3617C28.1745 20.5379 27.1669 20.9418 26.3389 21.7494C25.511 22.5571 25.097 23.5511 25.097 24.7315C25.1283 25.5392 25.3001 26.2537 25.6125 26.8749C25.8625 27.403 26.2764 27.8845 26.8544 28.3194C27.4324 28.7543 28.2682 28.9717 29.3617 28.9717H40V35.7598ZM33.6264 6.97116H12.3498C14.0369 6.10138 15.6303 5.26265 17.13 4.455C18.4422 3.77159 19.7388 3.08819 21.0198 2.40479C22.3007 1.72139 23.3005 1.1933 24.0191 0.820537C25.1126 0.230326 26.089 -0.0414815 26.9482 0.00511416C27.8074 0.0517098 28.5338 0.199262 29.1274 0.447772C29.8147 0.789474 30.4083 1.2399 30.9082 1.79905L33.6264 6.97116ZM27.2528 24.7315C27.2528 24.1413 27.4559 23.6443 27.862 23.2405C28.2682 22.8367 28.7681 22.6347 29.3617 22.6347C29.9553 22.6347 30.4552 22.8367 30.8614 23.2405C31.2675 23.6443 31.4706 24.1413 31.4706 24.7315C31.4706 25.3218 31.2675 25.8265 30.8614 26.2459C30.4552 26.6653 29.9553 26.8749 29.3617 26.8749C28.7681 26.8749 28.2682 26.6653 27.862 26.2459C27.4559 25.8265 27.2528 25.3218 27.2528 24.7315Z" fill="url(#paint0_linear_973_66015)"/>
</g>
<defs>
<linearGradient id="paint0_linear_973_66015" x1="40" y1="20.0002" x2="-9.23557e-08" y2="20.0002" gradientUnits="userSpaceOnUse">
<stop stop-color="#38B14F"/>
<stop offset="1" stop-color="#04CE86"/>
</linearGradient>
<clipPath id="clip0_973_66015">
<rect width="40" height="40" fill="white"/>
</clipPath>
</defs>
</svg>
