<svg width="41" height="40" viewBox="0 0 41 40" fill="none" xmlns="http://www.w3.org/2000/svg">
<path d="M37.5 18.3337V34.5003C37.5 35.0256 37.3965 35.5458 37.1955 36.0311C36.9945 36.5164 36.6999 36.9573 36.3284 37.3288C35.957 37.7002 35.516 37.9948 35.0307 38.1959C34.5454 38.3969 34.0253 38.5003 33.5 38.5003H22V18.3337H37.5ZM19 18.3337V38.5003H7.5C6.97471 38.5003 6.45457 38.3969 5.96927 38.1959C5.48396 37.9948 5.04301 37.7002 4.67157 37.3288C4.30014 36.9573 4.0055 36.5164 3.80448 36.0311C3.60346 35.5458 3.5 35.0256 3.5 34.5003V18.3337H19ZM9.804 2.82133L9.936 2.91533L16.29 7.80033C16.7424 7.09452 17.3652 6.5139 18.1009 6.11196C18.8366 5.71002 19.6616 5.49968 20.5 5.50033C22.267 5.50033 23.82 6.41733 24.71 7.80133L31.064 2.91533C31.969 2.21933 33.244 2.41933 33.911 3.36333C34.004 3.49333 34.081 3.63533 34.143 3.78533L36.5 9.50033H38.5C39.0304 9.50033 39.5391 9.71105 39.9142 10.0861C40.2893 10.4612 40.5 10.9699 40.5 11.5003V13.5003C40.5 14.0308 40.2893 14.5395 39.9142 14.9145C39.5391 15.2896 39.0304 15.5003 38.5 15.5003H2.5C1.96957 15.5003 1.46086 15.2896 1.08579 14.9145C0.710713 14.5395 0.5 14.0308 0.5 13.5003V11.5003C0.5 10.9699 0.710713 10.4612 1.08579 10.0861C1.46086 9.71105 1.96957 9.50033 2.5 9.50033H4.5L6.857 3.78533C6.918 3.63533 6.996 3.49433 7.089 3.36333C7.724 2.46433 8.911 2.23933 9.804 2.82133Z" fill="url(#paint0_linear_973_66020)"/>
<defs>
<linearGradient id="paint0_linear_973_66020" x1="40.5" y1="20.5004" x2="0.5" y2="20.5004" gradientUnits="userSpaceOnUse">
<stop stop-color="#38B14F"/>
<stop offset="1" stop-color="#04CE86"/>
</linearGradient>
</defs>
</svg>
