<svg width="70" height="70" viewBox="0 0 70 70" fill="none" xmlns="http://www.w3.org/2000/svg">
<g clip-path="url(#clip0_16127_11867)">
<circle cx="35" cy="35" r="35" fill="#4DC0F1"/>
<path d="M25.1719 33.7969C25.537 33.7969 25.833 34.0929 25.833 34.458V37.502H27.7061C28.1051 37.502 28.4307 37.8275 28.4307 38.2266V41.502C28.4307 41.901 28.1051 42.2266 27.7061 42.2266H25.8711L25.8701 56.1172C25.8699 56.5129 25.5494 56.8328 25.1553 56.833H21.916C21.5201 56.833 21.1994 56.513 21.1992 56.1172L21.2021 42.2266H19.2256C18.825 42.2265 18.5 41.901 18.5 41.502V38.2266C18.5 37.8814 18.7438 37.5929 19.0674 37.5205C19.1181 37.5098 19.1703 37.502 19.2256 37.502H19.5938C23.3856 37.257 22.97 34.3807 25.0469 33.8105C25.0869 33.8028 25.1287 33.7969 25.1719 33.7969Z" fill="white"/>
<path d="M38.1582 37.3125C39.5449 37.3125 40.7963 37.8908 41.6885 38.8184C42.5791 37.8908 43.8305 37.3125 45.2188 37.3125H45.2627C47.3982 37.3125 49.2166 38.6824 49.8838 40.5898C50.0271 40.9966 50.1318 41.3927 50.1318 42.3232V55.9717C50.1318 56.3737 49.8071 56.6971 49.4082 56.6973H46.1318C45.7329 56.6971 45.4082 56.3737 45.4082 55.9717L45.3955 43.2812C45.3968 42.6559 44.9684 42.1183 44.2598 42.0566H43.6562C43.4236 42.0782 43.2217 42.1509 43.0537 42.2588C42.7133 42.4837 42.5191 42.8623 42.5205 43.2812L42.5225 56.041C42.504 56.4246 42.1893 56.7332 41.8027 56.7334H38.5264C38.1274 56.7333 37.8028 56.4079 37.8027 56.0059L37.79 43.2988C37.79 42.9168 37.6316 42.5683 37.3467 42.3418C37.1633 42.1954 36.9301 42.0979 36.6543 42.0732H36.0508C35.3913 42.1318 34.9733 42.6008 34.9209 43.1709C34.9163 43.2125 34.915 43.2542 34.915 43.2988L34.916 56.0693C34.8681 56.422 34.5681 56.6943 34.2031 56.6943H30.9277C30.5271 56.6943 30.2031 56.3709 30.2031 55.9688V38.1797C30.2033 37.7777 30.5272 37.4541 30.9277 37.4541H34.2031C34.5837 37.4541 34.8916 37.7487 34.9209 38.123V38.499C35.7775 37.7595 36.8931 37.3126 38.1133 37.3125H38.1582Z" fill="white"/>
<path d="M46.6494 13C47.0483 13.0002 47.373 13.3257 47.373 13.7246L47.3857 20.4854C47.3857 20.9106 47.7291 21.2529 48.1543 21.2529H49.5254C49.946 21.2529 50.2852 20.9171 50.293 20.498V13.7246C50.293 13.3256 50.6166 13.0001 51.0156 13H54.292C54.6924 13.0003 55.0156 13.3257 55.0156 13.7246V27.4258C55.0154 30.2468 53.0062 32.2559 50.1836 32.2559H44.8281C44.4275 32.2559 44.1035 31.9319 44.1035 31.5312V28.2578C44.1035 27.8587 44.4275 27.5332 44.8281 27.5332L49.6182 27.5166C49.6382 27.5135 49.6553 27.5089 49.6738 27.5059C50.0513 27.4581 50.3427 27.1388 50.3428 26.749C50.3428 26.3546 50.0451 26.0345 49.6631 25.9912C49.5989 25.979 47.5124 25.9785 47.4814 25.9785C44.6603 25.9785 42.6496 23.968 42.6494 21.1484V13.7246C42.6494 13.3256 42.9725 13.0001 43.373 13H46.6494Z" fill="white"/>
<path fill-rule="evenodd" clip-rule="evenodd" d="M22.8701 13C25.4926 13 27.3203 14.8257 27.3203 17.459V22.0801C27.3202 24.7132 25.4925 26.5332 22.8701 26.5332H19.7363L19.7246 31.5107C19.7246 31.9113 19.3991 32.2353 19 32.2354H15.6621C15.2956 32.2259 15.0001 31.904 15 31.5098V16.9824C15 16.9688 15.0019 16.9536 15.002 16.9385C15.002 16.9324 15.0001 16.926 15 16.9199V13.71C15.0001 13.3188 15.3173 13.0002 15.71 13H22.8701ZM19.7363 21.7949L21.8154 21.793C22.239 21.7928 22.582 21.448 22.582 21.0244V18.5117C22.582 18.0866 22.239 17.7443 21.8154 17.7441H19.7363V21.7949Z" fill="white"/>
<path fill-rule="evenodd" clip-rule="evenodd" d="M35.6523 13.0195C39.3655 13.0196 40.9188 14.922 40.9189 17.9355V30.3662C40.9187 31.3598 40.0543 32.1669 38.9883 32.167H33.0479C30.2176 32.1668 28.4717 30.2855 28.4717 27.6416V23.833C28.4717 21.1736 30.503 19.2793 33.3535 19.2793H35.4971C35.8234 19.2483 36.0913 18.9775 36.1299 18.6064V18.1836C36.0912 17.7942 35.8203 17.5442 35.4785 17.4902H31.1504C30.7253 17.4902 30.3801 17.1673 30.3799 16.7715V15.0254C30.3799 15.0163 30.3808 15.0072 30.3809 14.998C30.3809 14.9903 30.3799 14.9804 30.3799 14.9727V13.6982C30.3802 13.3242 30.7046 13.0197 31.1064 13.0195H35.6523ZM34.0371 23.6846C33.612 23.6847 33.2681 24.0055 33.2666 24.4014L33.2656 24.4062V24.9209L33.2637 26.5645C33.2637 26.5722 33.2656 26.5802 33.2656 26.5879V27.2051C33.2656 27.6025 33.612 27.9266 34.0371 27.9268H35.4014C35.7418 27.9266 36.0282 27.7182 36.1299 27.4316C36.1421 27.398 36.1535 27.3629 36.1611 27.3262C36.1673 27.2877 36.1729 27.2467 36.1729 27.2051V24.4062C36.1729 24.0073 35.828 23.6847 35.4014 23.6846H34.0371Z" fill="white"/>
</g>
<defs>
<clipPath id="clip0_16127_11867">
<rect width="70" height="70" fill="white"/>
</clipPath>
</defs>
</svg>
