<svg width="28" height="28" viewBox="0 0 28 28" fill="none" xmlns="http://www.w3.org/2000/svg">
<circle opacity="0.3" cx="14" cy="14" r="14" fill="white"/>
<g clip-path="url(#clip0_2814_9843)">
<path d="M25.1053 12.2521C24.9011 11.6787 24.3708 11.2734 23.7316 11.2734H23.7182C23.3103 11.2734 22.9295 11.4414 22.6715 11.7205C22.5373 11.5777 22.3749 11.4642 22.1947 11.3872C22.0145 11.3103 21.8202 11.2715 21.6243 11.2734H21.6105C21.2435 11.2734 20.9169 11.4129 20.6585 11.6227V11.5107C20.6542 11.4565 20.6293 11.406 20.5889 11.3697C20.5485 11.3333 20.4957 11.3138 20.4414 11.3152H19.4622C19.4331 11.3152 19.4043 11.3211 19.3775 11.3324C19.3507 11.3438 19.3265 11.3604 19.3062 11.3813C19.2859 11.4021 19.27 11.4269 19.2595 11.454C19.2489 11.4811 19.2439 11.5101 19.2447 11.5392V16.935C19.2447 17.0608 19.3399 17.1585 19.4622 17.1585H20.4414C20.5499 17.1585 20.6318 17.0745 20.6589 16.9768V13.021C20.6723 12.853 20.7946 12.7134 20.9988 12.6992H21.1754C21.2572 12.6992 21.3249 12.741 21.3796 12.7832C21.461 12.853 21.5153 12.9512 21.5153 13.0628V16.9354C21.5153 17.0612 21.6105 17.1452 21.7328 17.1452H22.7119C22.8343 17.1452 22.9157 17.047 22.9295 16.9354V13.0624C22.9278 13.0014 22.942 12.941 22.9706 12.8871C22.9992 12.8332 23.0413 12.7876 23.0927 12.7548C23.147 12.7268 23.2013 12.6988 23.2694 12.6988H23.446C23.6502 12.713 23.7863 12.8806 23.7863 13.0624V16.935C23.7863 17.0608 23.8811 17.1448 24.0034 17.1448H24.9825C25.0391 17.1455 25.0937 17.1238 25.1344 17.0845C25.1751 17.0453 25.1987 16.9915 25.2001 16.935V12.769C25.1729 12.4894 25.1458 12.3779 25.1053 12.2521ZM18.4422 11.3712H17.8847V10.4622C17.8847 10.3502 17.8029 10.2667 17.6943 10.2667H17.6534C17.0279 10.4347 17.1641 11.3014 16.0355 11.3712H15.886C15.8399 11.3838 15.7991 11.411 15.7697 11.4488C15.7404 11.4865 15.724 11.5327 15.7231 11.5805V12.5592C15.7231 12.685 15.8179 12.7828 15.9407 12.7828H16.5252V16.935C16.5252 17.0608 16.6204 17.1448 16.7428 17.1448H17.7081C17.7647 17.1455 17.8193 17.1238 17.86 17.0845C17.9007 17.0453 17.9243 16.9915 17.9257 16.935V12.797H18.4697C18.4988 12.797 18.5276 12.7911 18.5543 12.7798C18.5811 12.7684 18.6053 12.7519 18.6256 12.731C18.6459 12.7102 18.6618 12.6855 18.6724 12.6585C18.6829 12.6314 18.688 12.6025 18.6873 12.5734V11.5947C18.6601 11.4689 18.5649 11.3707 18.4426 11.3707" fill="#00CFF8"/>
<path d="M14.6274 11.1282H13.6358C13.5778 11.1283 13.5221 11.1513 13.4809 11.1922C13.4397 11.233 13.4162 11.2885 13.4157 11.3466V13.4733C13.4151 13.5352 13.3902 13.5944 13.3464 13.6381C13.3025 13.6817 13.2432 13.7064 13.1813 13.7068H12.7687C12.7068 13.7064 12.6475 13.6817 12.6036 13.6381C12.5598 13.5944 12.5349 13.5352 12.5343 13.4733V11.3612C12.5352 11.3321 12.5302 11.3032 12.5194 11.2762C12.5086 11.2492 12.4924 11.2246 12.4718 11.2041C12.4511 11.1837 12.4265 11.1676 12.3994 11.1571C12.3723 11.1465 12.3433 11.1417 12.3142 11.1428H11.3364C11.2783 11.1429 11.2226 11.1659 11.1814 11.2068C11.1402 11.2477 11.1168 11.3032 11.1162 11.3612V13.6775C11.1162 14.5515 11.7219 15.1778 12.5757 15.1778H13.2365C13.3468 15.1925 13.4433 15.2941 13.4433 15.4109C13.4433 15.5272 13.3605 15.6293 13.2365 15.6439H11.777C11.719 15.644 11.6633 15.667 11.6221 15.7079C11.5809 15.7488 11.5575 15.8043 11.5569 15.8623V16.9113C11.5569 17.0422 11.6534 17.1297 11.777 17.1297H13.4019C14.2557 17.1297 14.8613 16.5033 14.8613 15.6293V11.3319C14.8522 11.276 14.8239 11.2251 14.7811 11.1879C14.7384 11.1507 14.6841 11.1295 14.6274 11.1282ZM5.16774 11.1282H3.00657C2.8963 11.1282 2.7998 11.2303 2.7998 11.3466V16.9263C2.7998 17.0573 2.88251 17.1447 2.99236 17.1594H3.99777C4.05582 17.1593 4.11149 17.1363 4.15269 17.0954C4.1939 17.0545 4.21733 16.999 4.2179 16.941V15.3532H5.16817C5.95304 15.3532 6.50356 14.7845 6.50356 13.9691V12.5265C6.50356 11.6968 5.95304 11.1282 5.16817 11.1282H5.16774ZM5.08547 13.0072V13.6335C5.08479 13.6953 5.0599 13.7543 5.01616 13.7979C4.97241 13.8415 4.91331 13.8661 4.85156 13.8666H4.21833V12.5993H4.85156C4.97519 12.5993 5.08547 12.7013 5.08547 12.8327V13.0072ZM9.29839 15.513V14.7845C9.29771 14.7228 9.27283 14.6638 9.22908 14.6202C9.18534 14.5766 9.12623 14.5519 9.06448 14.5515H8.65137C8.5897 14.5519 8.53066 14.5766 8.48692 14.62C8.44319 14.6635 8.41825 14.7224 8.41747 14.7841V15.6586C8.41747 15.7895 8.52774 15.8916 8.65137 15.8916H9.06491C9.17476 15.8916 9.25747 15.8335 9.2846 15.7314C9.2846 15.7167 9.2846 15.7167 9.29882 15.7021V15.5125L9.29839 15.513ZM9.1334 11.1575C10.2762 11.1575 10.7583 11.7545 10.7583 12.716V16.5761C10.7583 16.8966 10.4968 17.1447 10.166 17.1447H8.34854C7.4814 17.1447 6.94424 16.5473 6.94424 15.7021V14.5804C6.94424 13.7361 7.56368 13.1386 8.44503 13.1386H9.10583C9.20233 13.1239 9.28504 13.0365 9.29882 12.9197V12.7741C9.28504 12.6432 9.20233 12.5704 9.10583 12.5557H7.75667C7.69484 12.5554 7.63563 12.5308 7.59179 12.4872C7.54795 12.4436 7.52301 12.3845 7.52233 12.3227V11.3759C7.52233 11.2596 7.61882 11.1575 7.74288 11.1575H9.1334Z" fill="#0F2855"/>
</g>
<defs>
<clipPath id="clip0_2814_9843">
<rect width="22.4" height="6.89231" fill="white" transform="translate(2.7998 10.2667)"/>
</clipPath>
</defs>
</svg>
