<svg width="100" height="50" viewBox="0 0 100 50" fill="none" xmlns="http://www.w3.org/2000/svg">
<path d="M71.4286 11H57.9592V13.3636H55.5102V16.9091H51.8367V32.2727H55.5102V34.6364H57.9592V37H75.102V34.6364H77.551V32.2727H80V21.6364H66.5306V26.3636H75.102V28.7273H73.8776V29.9091H71.4286V32.2727H61.6327V29.9091H60.4082V28.7273H57.9592V19.2727H60.4082V15.7273H72.6531V19.2727H77.551V14.5455H76.3265V13.3636H71.4286V11Z" fill="currentColor"/>
<path fill-rule="evenodd" clip-rule="evenodd" d="M20 13.3636H22.449V11H45.7143V14.5455H44.4898V16.9091H48.1633V26.3636H44.4898V29.9091H39.5918V32.2727H26.1224V37H20V13.3636ZM24.898 15.7273H39.5918V19.2727H42.0408V24H39.5918V27.5455H24.898V15.7273Z" fill="currentColor"/>
</svg>
