<svg width="70" height="70" viewBox="0 0 70 70" fill="none" xmlns="http://www.w3.org/2000/svg">
<g clip-path="url(#clip0_16127_11922)">
<path d="M35.0019 69.992C54.3274 69.992 69.9939 54.3255 69.9939 34.9999C69.9939 15.6743 54.3274 0.0078125 35.0019 0.0078125C15.6763 0.0078125 0.00976563 15.6743 0.00976563 34.9999C0.00976563 54.3255 15.6763 69.992 35.0019 69.992Z" fill="#5F259F"/>
<path d="M50.8811 25.8679C50.8811 24.4995 49.7082 23.3266 48.3398 23.3266H43.6481L32.8964 11.0109C31.919 9.83802 30.3551 9.44705 28.7912 9.83802L25.0769 11.0109C24.4905 11.2064 24.295 11.9884 24.686 12.3793L36.4151 23.5221H18.6259C18.0394 23.5221 17.6484 23.9131 17.6484 24.4995V26.4544C17.6484 27.8228 18.8214 28.9957 20.1898 28.9957H22.9266V38.3791C22.9266 45.4166 26.6408 49.5218 32.8964 49.5218C34.8513 49.5218 36.4151 49.3263 38.37 48.5444V54.7999C38.37 56.5593 39.7384 57.9277 41.4978 57.9277H44.2346C44.8211 57.9277 45.4075 57.3413 45.4075 56.7548V28.8002H49.9037C50.4902 28.8002 50.8811 28.4092 50.8811 27.8228V25.8679ZM38.37 42.6798C37.1971 43.2662 35.6332 43.4617 34.4603 43.4617C31.3325 43.4617 29.7686 41.8978 29.7686 38.3791V28.9957H38.37V42.6798Z" fill="white"/>
</g>
<defs>
<clipPath id="clip0_16127_11922">
<rect width="70" height="70" fill="white"/>
</clipPath>
</defs>
</svg>
