<svg width="28" height="28" viewBox="0 0 28 28" fill="none" xmlns="http://www.w3.org/2000/svg">
<g id="phonepe 1" clip-path="url(#clip0_2814_9852)">
<path id="Vector" d="M28 14C28 21.7328 21.7328 28 14 28C6.26719 28 0 21.7328 0 14C0 6.26719 6.26719 0 14 0C21.7328 0 28 6.26719 28 14Z" fill="#673AB7"/>
<path id="Vector_2" d="M19.9803 9.32971H17.1803C17.0682 9.32971 16.9643 9.2969 16.8686 9.23674C16.7729 9.17385 16.6826 9.08088 16.6006 8.95237L15.0092 6.39573L13.4178 3.83635C13.3576 3.72424 13.2811 3.64221 13.1854 3.58752C13.0896 3.53284 12.9748 3.50549 12.8408 3.50549H11.4846C11.3725 3.50549 11.2904 3.53284 11.2357 3.58752C11.1811 3.64221 11.151 3.72698 11.151 3.83635C11.151 3.89651 11.1592 3.95393 11.1729 4.00862C11.1865 4.06331 11.2111 4.11799 11.2385 4.16995L11.8619 5.09417L12.4854 6.01838C12.8982 6.63088 13.3248 7.21331 13.7678 7.76565C14.2107 8.31799 14.6701 8.84026 15.1432 9.33245H8.58887C8.44668 9.33245 8.34277 9.36526 8.27168 9.43362C8.20059 9.49924 8.16504 9.59768 8.16504 9.73166V10.6668C8.16504 10.8172 8.20059 10.9266 8.27168 11.0004C8.34277 11.0742 8.44941 11.1125 8.58887 11.1125H9.87949C9.94512 11.118 9.99707 11.1453 10.0299 11.1891C10.0627 11.2328 10.0791 11.2985 10.0791 11.3778V16.2285C10.0791 16.7453 10.1557 17.2102 10.3088 17.6231C10.4619 18.0332 10.6943 18.3887 11.0006 18.6867C11.3096 18.9875 11.6678 19.2145 12.0779 19.3621C12.4881 19.5125 12.9475 19.5891 13.4615 19.5891H14.1068C14.6127 19.5891 15.0338 19.5125 15.3756 19.3567C15.7174 19.2008 15.9771 18.9684 16.1549 18.6567H16.2424V22.7746C16.2424 22.9168 16.2779 23.0207 16.349 23.0918C16.4201 23.1629 16.5268 23.1985 16.6662 23.1985H17.8447C17.9869 23.1985 18.0908 23.1629 18.1619 23.0918C18.233 23.0235 18.2686 22.9168 18.2686 22.7746V11.3778C18.2686 11.2903 18.2904 11.2219 18.3287 11.1781C18.3697 11.1344 18.4299 11.1125 18.5119 11.1125H19.983C20.1252 11.1125 20.2291 11.077 20.3002 11.0059C20.3713 10.9348 20.4068 10.8309 20.4068 10.6887V9.73166C20.4068 9.59768 20.3713 9.49924 20.3002 9.43088C20.2264 9.36252 20.1197 9.32971 19.9803 9.32971ZM16.2424 15.9797C16.2424 16.2531 16.2041 16.4992 16.1275 16.718C16.051 16.934 15.9361 17.1227 15.7857 17.2813C15.6354 17.4399 15.4412 17.5602 15.2115 17.6395C14.9791 17.7188 14.7084 17.7598 14.3967 17.7598H13.7951C13.2318 17.7598 12.8107 17.6149 12.5264 17.325C12.2447 17.0352 12.1025 16.6031 12.1025 16.0235V11.375C12.1025 11.2875 12.1244 11.2192 12.1627 11.1754C12.2037 11.1317 12.2639 11.1098 12.3459 11.1098H15.9963C16.0783 11.1098 16.1385 11.1317 16.1795 11.1754C16.2205 11.2192 16.2424 11.2875 16.2424 11.375V15.9797Z" fill="white"/>
</g>
<defs>
<clipPath id="clip0_2814_9852">
<rect width="28" height="28" fill="white"/>
</clipPath>
</defs>
</svg>
