<svg width="40" height="40" viewBox="0 0 40 40" fill="none" xmlns="http://www.w3.org/2000/svg">
<g clip-path="url(#clip0_7207_64732)">
<path d="M18.5142 4.69585L12.4561 10.7481L12.169 11.0488C8.98571 14.6677 9.11851 19.927 12.4132 23.2216C13.9519 24.7604 16.0068 25.6735 18.1801 25.7843C20.3534 25.895 22.4906 25.1955 24.1778 23.8212L24.3672 23.6591L24.7832 23.2763L26.91 21.1495L32.4349 26.6725L22.7677 36.3396C22.0353 37.0719 21.042 37.4832 20.0063 37.4832C18.9705 37.4832 17.9772 37.0719 17.2448 36.3396L3.43736 22.5322C1.35745 20.455 0.134259 17.6718 0.0104128 14.7349C-0.113434 11.7979 0.871112 8.92173 2.76876 6.67675C4.66641 4.43178 7.33853 2.98204 10.2551 2.61512C13.1717 2.24819 16.1196 2.99087 18.5142 4.69585ZM36.2783 5.67428L36.6122 5.99652L36.7372 6.12542L37.0107 6.41445C37.3544 6.79723 37.6707 7.19954 37.9559 7.61357L37.7782 7.36164C37.8778 7.5003 37.9754 7.64091 38.0711 7.78348L37.9559 7.61357C38.0633 7.76981 38.1648 7.92604 38.2625 8.08228L38.0711 7.78348C38.1551 7.91042 38.2352 8.03736 38.3133 8.16821L38.2625 8.08228C38.3445 8.21703 38.4246 8.35179 38.5027 8.48849L38.3133 8.16821C38.4129 8.33031 38.5086 8.49631 38.5984 8.66231L38.5008 8.48849C38.573 8.61544 38.6414 8.74238 38.7078 8.86932L38.5984 8.66231C38.6765 8.80878 38.7546 8.95525 38.8269 9.10563L38.7097 8.87127C38.7976 9.04118 38.8796 9.21304 38.9597 9.38686L38.8269 9.10563C38.8913 9.23843 38.9538 9.37318 39.0124 9.50794L38.9597 9.38686C39.0417 9.56848 39.1198 9.74815 39.1921 9.93368L39.0124 9.50794C39.89 11.5138 40.1912 13.7245 39.8821 15.8919C39.573 18.0594 38.6659 20.0978 37.2626 21.7784L36.915 22.1807L36.7294 22.3721L36.579 22.5322L33.8156 25.2917L28.2926 19.7688C27.9264 19.4027 27.4298 19.197 26.9119 19.197C26.3941 19.197 25.8974 19.4027 25.5312 19.7688L23.461 21.8409L23.0939 22.1787L22.9435 22.3076C21.6312 23.3763 19.9691 23.9202 18.2789 23.834C16.5887 23.7477 14.9906 23.0376 13.7939 21.8409C11.341 19.388 11.1262 15.5055 13.3193 12.7127L13.583 12.3964L13.8369 12.1288L20.057 5.91059L20.1254 5.84419L20.4496 5.53953C20.6933 5.31944 20.9461 5.10964 21.2073 4.91068L20.9554 5.10988C21.0921 5.00051 21.2288 4.89505 21.3655 4.79155L21.2093 4.91068C21.3323 4.81694 21.4573 4.72515 21.5842 4.63726L21.3675 4.7935C21.5059 4.69146 21.6465 4.59248 21.7893 4.49665L21.5842 4.63726C21.7164 4.54399 21.8506 4.45349 21.9865 4.3658L21.7893 4.49665C21.9299 4.40291 22.0705 4.31307 22.2131 4.22519L21.9865 4.3658C22.1233 4.27987 22.26 4.19589 22.3986 4.11582L22.2131 4.22519C22.3537 4.13926 22.4963 4.05724 22.6408 3.97912L22.3986 4.11582C22.5392 4.0338 22.6818 3.95373 22.8244 3.87952L22.6408 3.97716C22.7775 3.90295 22.9181 3.82874 23.0587 3.75843L22.8244 3.87952C22.965 3.8053 23.1075 3.73304 23.2501 3.66469L23.0587 3.75843L23.4923 3.55337L23.2501 3.66469C23.4005 3.59438 23.5528 3.52603 23.7052 3.45963L23.4923 3.55337C23.6427 3.48697 23.795 3.42252 23.9473 3.36198L23.7052 3.45963C23.8594 3.39518 24.0137 3.33269 24.17 3.2741L23.9473 3.36198C26.0117 2.54719 28.2642 2.33213 30.4455 2.74157C32.6267 3.15101 34.648 4.16829 36.2763 5.67624L36.2783 5.67428Z" fill="url(#paint0_linear_7207_64732)"/>
</g>
<defs>
<linearGradient id="paint0_linear_7207_64732" x1="20" y1="37.4832" x2="20" y2="2.52344" gradientUnits="userSpaceOnUse">
<stop stop-color="#FF8080"/>
<stop offset="1" stop-color="#FCD4B5"/>
</linearGradient>
<clipPath id="clip0_7207_64732">
<rect width="40" height="40" fill="white"/>
</clipPath>
</defs>
</svg>
