<svg width="40" height="40" viewBox="0 0 40 40" fill="none" xmlns="http://www.w3.org/2000/svg">
<g clip-path="url(#clip0_7210_64751)">
<path d="M11.4895 13.111C10.8245 13.1042 10.1724 13.2952 9.61623 13.6598C9.06001 14.0243 8.62467 14.5459 8.36549 15.1584C8.10631 15.7708 8.03499 16.4465 8.16058 17.0996C8.28617 17.7526 8.603 18.3537 9.07085 18.8263C9.53869 19.299 10.1364 19.6219 10.7882 19.7541C11.44 19.8864 12.1163 19.822 12.7314 19.5691C13.3464 19.3161 13.8725 18.8861 14.2427 18.3337C14.6129 17.7812 14.8105 17.1312 14.8106 16.4661C14.8084 15.5828 14.4589 14.7358 13.8375 14.1081C13.2161 13.4803 12.3727 13.1221 11.4895 13.111Z" fill="url(#paint0_linear_7210_64751)"/>
<path d="M40 10.7266C39.9977 8.80527 39.2335 6.96332 37.875 5.60476C36.5164 4.24619 34.6744 3.48197 32.7531 3.47971H27.533C26.9886 3.47295 26.4536 3.62262 25.9917 3.91094C25.5298 4.19926 25.1603 4.61411 24.9272 5.10621C24.6828 5.63525 24.2926 6.08366 23.8024 6.39888C23.3123 6.7141 22.7424 6.88307 22.1596 6.88599H17.6804C17.1119 6.85058 16.564 6.66052 16.0957 6.33634C15.6275 6.01216 15.2567 5.56618 15.0235 5.0466C14.7804 4.57782 14.414 4.18421 13.9639 3.90812C13.5137 3.63203 12.9968 3.48391 12.4688 3.47971H7.08684C5.16555 3.48197 3.32359 4.24619 1.96503 5.60476C0.606468 6.96332 -0.157761 8.80527 -0.160015 10.7266V30.3978C-0.162095 31.2387 0.00323875 32.0716 0.326349 32.8479C0.649458 33.6243 1.12388 34.3285 1.72195 34.9196C2.32532 35.512 3.04014 35.9788 3.82507 36.293C4.61 36.6073 5.44946 36.7628 6.29488 36.7505C9.84593 36.7505 11.4043 35.3114 12.5709 31.1131L13.8994 27.0767H25.9491L27.2861 31.1642C28.5208 34.7919 29.9004 36.759 33.6132 36.759C35.3057 36.7545 36.9276 36.0802 38.1244 34.8834C39.3212 33.6867 39.9955 32.0648 40 30.3723V10.7266ZM11.4895 22.2313C10.3492 22.2313 9.23459 21.8932 8.28652 21.2597C7.33845 20.6262 6.59952 19.7258 6.16317 18.6724C5.72682 17.6189 5.61266 16.4597 5.8351 15.3414C6.05755 14.2231 6.60663 13.1959 7.4129 12.3896C8.21916 11.5833 9.24641 11.0342 10.3647 10.8118C11.4831 10.5893 12.6422 10.7035 13.6957 11.1399C14.7491 11.5762 15.6495 12.3151 16.283 13.2632C16.9165 14.2113 17.2546 15.3259 17.2546 16.4661C17.2523 17.9945 16.6442 19.4595 15.5635 20.5402C14.4828 21.6209 13.0178 22.229 11.4895 22.2313ZM32.9149 17.6754H29.5598V21.022C29.5598 21.1808 29.5285 21.3381 29.4677 21.4848C29.4069 21.6315 29.3179 21.7648 29.2056 21.8771C29.0933 21.9894 28.96 22.0785 28.8133 22.1392C28.6666 22.2 28.5093 22.2313 28.3505 22.2313C28.1917 22.2313 28.0345 22.2 27.8878 22.1392C27.7411 22.0785 27.6078 21.9894 27.4955 21.8771C27.3832 21.7648 27.2941 21.6315 27.2333 21.4848C27.1726 21.3381 27.1413 21.1808 27.1413 21.022V17.6754H23.7861C23.4654 17.6754 23.1578 17.548 22.9311 17.3212C22.7043 17.0944 22.5769 16.7869 22.5769 16.4661C22.5769 16.1454 22.7043 15.8379 22.9311 15.6111C23.1578 15.3843 23.4654 15.2569 23.7861 15.2569H27.1413V11.9017C27.1413 11.581 27.2687 11.2735 27.4955 11.0467C27.7222 10.8199 28.0298 10.6925 28.3505 10.6925C28.6712 10.6925 28.9788 10.8199 29.2056 11.0467C29.4324 11.2735 29.5598 11.581 29.5598 11.9017V15.2569H32.9149C33.2356 15.2569 33.5432 15.3843 33.77 15.6111C33.9968 15.8379 34.1242 16.1454 34.1242 16.4661C34.1242 16.7869 33.9968 17.0944 33.77 17.3212C33.5432 17.548 33.2356 17.6754 32.9149 17.6754Z" fill="url(#paint1_linear_7210_64751)"/>
</g>
<defs>
<linearGradient id="paint0_linear_7210_64751" x1="19.92" y1="36.759" x2="19.92" y2="3.47949" gradientUnits="userSpaceOnUse">
<stop stop-color="#FF8080"/>
<stop offset="1" stop-color="#FCD4B5"/>
</linearGradient>
<linearGradient id="paint1_linear_7210_64751" x1="19.92" y1="36.759" x2="19.92" y2="3.47949" gradientUnits="userSpaceOnUse">
<stop stop-color="#FF8080"/>
<stop offset="1" stop-color="#FCD4B5"/>
</linearGradient>
<clipPath id="clip0_7210_64751">
<rect width="40" height="40" fill="white"/>
</clipPath>
</defs>
</svg>
