<svg width="72" height="72" viewBox="0 0 72 72" fill="none" xmlns="http://www.w3.org/2000/svg">
<g id="Frame">
<path id="Vector" opacity="0.2" d="M49.2019 67.6444H15.7183C10.9987 67.6444 7.17188 63.8176 7.17188 59.098V19.7212C7.17188 15.0016 10.9987 11.1748 15.7183 11.1748H49.2019C53.9215 11.1748 57.7483 15.0016 57.7483 19.7212V59.098C57.7519 63.8176 53.9215 67.6444 49.2019 67.6444Z" fill="var(--main-color)"/>
<path id="Vector_2" opacity="0.2" d="M56.2865 61.1278H24.6245C19.9049 61.1278 16.0781 57.301 16.0781 52.5814V13.2046C16.0781 8.48501 19.9049 4.6582 24.6245 4.6582H56.2901C61.0097 4.6582 64.8365 8.48501 64.8365 13.2046V52.5814C64.8365 57.301 61.0097 61.1278 56.2865 61.1278V61.1278Z" fill="var(--main-color)"/>
<path id="Vector_3" opacity="0.2" d="M48.8339 11.1709H16.3979C16.1855 11.9341 16.0703 12.7369 16.0703 13.5649V52.2181C16.0703 57.1393 20.0591 61.1281 24.9803 61.1281H55.9223C56.4443 61.1281 56.9555 61.0813 57.4523 60.9949C57.6395 60.2713 57.7439 59.5153 57.7439 58.7341V20.0809C57.7439 15.1597 53.7551 11.1709 48.8339 11.1709V11.1709Z" fill="var(--main-color)"/>
<path id="Vector_4" d="M39.5473 35.7737H16.0753C14.4841 35.7737 13.1953 34.4849 13.1953 32.8937C13.1953 31.3025 14.4841 30.0137 16.0753 30.0137H39.5473C41.1385 30.0137 42.4273 31.3025 42.4273 32.8937C42.4273 34.4849 41.1349 35.7737 39.5473 35.7737ZM32.0737 48.9713H16.0753C14.4841 48.9713 13.1953 47.6825 13.1953 46.0913C13.1953 44.5001 14.4841 43.2113 16.0753 43.2113H32.0737C33.6649 43.2113 34.9537 44.5001 34.9537 46.0913C34.9537 47.6789 33.6649 48.9713 32.0737 48.9713Z" fill="var(--main-color)"/>
</g>
</svg>
