<svg width="72" height="72" viewBox="0 0 72 72" fill="none" xmlns="http://www.w3.org/2000/svg">
<g id="icon">
<path id="Vector" opacity="0.4" d="M63 21V51C63 60 58.5 66 48 66H24C13.5 66 9 60 9 51V21C9 12 13.5 6 24 6H48C58.5 6 63 12 63 21Z" fill="var(--main-color)" fill-opacity="0.6"/>
<path id="Vector_2" d="M46.5 6V29.58C46.5 30.9 44.94 31.56 43.98 30.69L37.02 24.27C36.744 24.0101 36.3791 23.8654 36 23.8654C35.6209 23.8654 35.256 24.0101 34.98 24.27L28.02 30.69C27.8054 30.8891 27.5372 31.021 27.2485 31.0695C26.9598 31.118 26.6632 31.081 26.3953 30.9629C26.1274 30.8449 25.8999 30.6511 25.7408 30.4054C25.5817 30.1596 25.498 29.8727 25.5 29.58V6H46.5ZM52.5 44.25H39.75C38.52 44.25 37.5 43.23 37.5 42C37.5 40.77 38.52 39.75 39.75 39.75H52.5C53.73 39.75 54.75 40.77 54.75 42C54.75 43.23 53.73 44.25 52.5 44.25ZM52.5 56.25H27C25.77 56.25 24.75 55.23 24.75 54C24.75 52.77 25.77 51.75 27 51.75H52.5C53.73 51.75 54.75 52.77 54.75 54C54.75 55.23 53.73 56.25 52.5 56.25Z" fill="var(--main-color)"/>
</g>
</svg>
