<svg width="42" height="42" viewBox="0 0 42 42" fill="none" xmlns="http://www.w3.org/2000/svg">
<g filter="url(#filter0_i_2239_90697)">
<path fill-rule="evenodd" clip-rule="evenodd" d="M12.4318 11.824C12.7829 11.1834 13.4553 10.7852 14.1857 10.7852H27.8165C28.547 10.7852 29.2193 11.1834 29.5704 11.824L32.8825 17.8677C33.2949 18.6202 33.1813 19.5519 32.6002 20.1833L22.4727 31.1864C21.6804 32.0471 20.3218 32.0471 19.5296 31.1864L9.40208 20.1833C8.82095 19.5519 8.70734 18.6202 9.11974 17.8677L12.4318 11.824Z" fill="#FFA522"/>
</g>
<path fill-rule="evenodd" clip-rule="evenodd" d="M21.0017 39.8549C31.4162 39.8549 39.8588 31.4123 39.8588 20.9978C39.8588 10.5833 31.4162 2.14062 21.0017 2.14062C10.5872 2.14062 2.14453 10.5833 2.14453 20.9978C2.14453 31.4123 10.5872 39.8549 21.0017 39.8549ZM14.1857 10.7812C13.4553 10.7812 12.7829 11.1795 12.4318 11.8201L9.11974 17.8638C8.70734 18.6163 8.82095 19.548 9.40208 20.1794L19.5296 31.1825C20.3218 32.0432 21.6804 32.0432 22.4727 31.1825L32.6002 20.1794C33.1813 19.548 33.2949 18.6163 32.8825 17.8638L29.5704 11.8201C29.2193 11.1795 28.547 10.7812 27.8165 10.7812H14.1857Z" fill="url(#paint0_linear_2239_90697)"/>
<defs>
<filter id="filter0_i_2239_90697" x="8.875" y="10.7852" width="24.2539" height="25.0469" filterUnits="userSpaceOnUse" color-interpolation-filters="sRGB">
<feFlood flood-opacity="0" result="BackgroundImageFix"/>
<feBlend mode="normal" in="SourceGraphic" in2="BackgroundImageFix" result="shape"/>
<feColorMatrix in="SourceAlpha" type="matrix" values="0 0 0 0 0 0 0 0 0 0 0 0 0 0 0 0 0 0 127 0" result="hardAlpha"/>
<feOffset dy="4"/>
<feGaussianBlur stdDeviation="2"/>
<feComposite in2="hardAlpha" operator="arithmetic" k2="-1" k3="1"/>
<feColorMatrix type="matrix" values="0 0 0 0 0.941176 0 0 0 0 0.482353 0 0 0 0 0.054902 0 0 0 0.25 0"/>
<feBlend mode="normal" in2="shape" result="effect1_innerShadow_2239_90697"/>
</filter>
<linearGradient id="paint0_linear_2239_90697" x1="21.0017" y1="2.14062" x2="21.0017" y2="39.8549" gradientUnits="userSpaceOnUse">
<stop stop-color="#FFF670"/>
<stop offset="1" stop-color="#FFD93E"/>
</linearGradient>
</defs>
</svg>
