<svg width="48" height="48" viewBox="0 0 48 48" fill="none" xmlns="http://www.w3.org/2000/svg">
<path fill-rule="evenodd" clip-rule="evenodd" d="M24 48C37.2548 48 48 37.2548 48 24C48 10.7452 37.2548 0 24 0C10.7452 0 0 10.7452 0 24C0 37.2548 10.7452 48 24 48ZM15.0028 11C14.2723 11 13.6 11.3982 13.2489 12.0388L8.69005 20.3575C8.27765 21.11 8.39126 22.0417 8.97239 22.6731L22.5284 37.4012C23.3207 38.262 24.6793 38.262 25.4716 37.4012L39.0276 22.6731C39.6087 22.0418 39.7223 21.11 39.3099 20.3575L34.7511 12.0388C34.4 11.3982 33.7277 11 32.9972 11H15.0028Z" fill="currentColor"/>
</svg>
