<svg xmlns="http://www.w3.org/2000/svg" width="100" height="100" viewBox="0 0 100 100" fill="none">
  <g clip-path="url(#clip0_4009_102098)">
    <path d="M49.7917 91.4583C72.8035 91.4583 91.4583 72.8035 91.4583 49.7917C91.4583 26.7798 72.8035 8.125 49.7917 8.125C26.7798 8.125 8.125 26.7798 8.125 49.7917C8.125 72.8035 26.7798 91.4583 49.7917 91.4583Z" fill="var(--norm_red-color)"/>
    <path fill-rule="evenodd" clip-rule="evenodd" d="M50 74.167C53.1066 74.167 55.625 71.6486 55.625 68.542C55.625 65.4354 53.1066 62.917 50 62.917C46.8934 62.917 44.375 65.4354 44.375 68.542C44.375 71.6486 46.8934 74.167 50 74.167Z" fill="white"/>
    <path d="M45.1195 27.6142C45.0544 26.1901 46.1914 25 47.6169 25H52.3831C53.8086 25 54.9456 26.1901 54.8805 27.6142L53.626 55.0571C53.5954 55.7245 53.0454 56.25 52.3773 56.25H47.6227C46.9546 56.25 46.4046 55.7245 46.374 55.0571L45.1195 27.6142Z" fill="white"/>
  </g>
  <defs>
    <clipPath id="clip0_4009_102098">
      <rect width="100" height="100" fill="white"/>
    </clipPath>
  </defs>
</svg>