<svg width="335" height="196" viewBox="0 0 335 196" fill="none" xmlns="http://www.w3.org/2000/svg">
<path d="M12.552 6.544H4.128V12.016C4.496 11.504 5.04 11.088 5.76 10.768C6.48 10.432 7.256 10.264 8.088 10.264C9.416 10.264 10.496 10.544 11.328 11.104C12.16 11.648 12.752 12.36 13.104 13.24C13.472 14.104 13.656 15.024 13.656 16C13.656 17.152 13.44 18.184 13.008 19.096C12.576 20.008 11.912 20.728 11.016 21.256C10.136 21.784 9.04 22.048 7.728 22.048C6.048 22.048 4.688 21.616 3.648 20.752C2.608 19.888 1.976 18.736 1.752 17.296H3.888C4.096 18.208 4.536 18.92 5.208 19.432C5.88 19.944 6.728 20.2 7.752 20.2C9.016 20.2 9.968 19.824 10.608 19.072C11.248 18.304 11.568 17.296 11.568 16.048C11.568 14.8 11.248 13.84 10.608 13.168C9.968 12.48 9.024 12.136 7.776 12.136C6.928 12.136 6.184 12.344 5.544 12.76C4.92 13.16 4.464 13.712 4.176 14.416H2.112V4.624H12.552V6.544Z" fill="#666666"/>
<path d="M0.96 60.136V58.48L9.384 46.816H12V58.24H14.4V60.136H12V64H9.84V60.136H0.96ZM9.936 49.096L3.48 58.24H9.936V49.096Z" fill="#666666"/>
<path d="M1.44 93.016C1.552 91.544 2.12 90.392 3.144 89.56C4.168 88.728 5.496 88.312 7.128 88.312C8.216 88.312 9.152 88.512 9.936 88.912C10.736 89.296 11.336 89.824 11.736 90.496C12.152 91.168 12.36 91.928 12.36 92.776C12.36 93.768 12.072 94.624 11.496 95.344C10.936 96.064 10.2 96.528 9.288 96.736V96.856C10.328 97.112 11.152 97.616 11.76 98.368C12.368 99.12 12.672 100.104 12.672 101.32C12.672 102.232 12.464 103.056 12.048 103.792C11.632 104.512 11.008 105.08 10.176 105.496C9.344 105.912 8.344 106.12 7.176 106.12C5.48 106.12 4.088 105.68 3 104.8C1.912 103.904 1.304 102.64 1.176 101.008H3.288C3.4 101.968 3.792 102.752 4.464 103.36C5.136 103.968 6.032 104.272 7.152 104.272C8.272 104.272 9.12 103.984 9.696 103.408C10.288 102.816 10.584 102.056 10.584 101.128C10.584 99.928 10.184 99.064 9.384 98.536C8.584 98.008 7.376 97.744 5.76 97.744H5.208V95.92H5.784C7.256 95.904 8.368 95.664 9.12 95.2C9.872 94.72 10.248 93.984 10.248 92.992C10.248 92.144 9.968 91.464 9.408 90.952C8.864 90.44 8.08 90.184 7.056 90.184C6.064 90.184 5.264 90.44 4.656 90.952C4.048 91.464 3.688 92.152 3.576 93.016H1.44Z" fill="#666666"/>
<path d="M1.224 146.248C3.256 144.616 4.848 143.28 6 142.24C7.152 141.184 8.12 140.088 8.904 138.952C9.704 137.8 10.104 136.672 10.104 135.568C10.104 134.528 9.848 133.712 9.336 133.12C8.84 132.512 8.032 132.208 6.912 132.208C5.824 132.208 4.976 132.552 4.368 133.24C3.776 133.912 3.456 134.816 3.408 135.952H1.296C1.36 134.16 1.904 132.776 2.928 131.8C3.952 130.824 5.272 130.336 6.888 130.336C8.536 130.336 9.84 130.792 10.8 131.704C11.776 132.616 12.264 133.872 12.264 135.472C12.264 136.8 11.864 138.096 11.064 139.36C10.28 140.608 9.384 141.712 8.376 142.672C7.368 143.616 6.08 144.72 4.512 145.984H12.768V147.808H1.224V146.248Z" fill="#666666"/>
<path d="M0.912 174.64V172.648H5.424V190H3.216V174.64H0.912Z" fill="#666666"/>
<rect x="35" y="5" width="300" height="18" rx="9" fill="#D9D9D9"/>
<rect x="35" y="5" width="300" height="18" rx="9" fill="#237C57"/>
<rect x="35" y="47" width="300" height="18" rx="9" fill="#D9D9D9"/>
<rect x="35" y="47" width="44" height="18" rx="9" fill="#237C57"/>
<rect x="35" y="89" width="300" height="18" rx="9" fill="#D9D9D9"/>
<rect x="35" y="131" width="300" height="18" rx="9" fill="#D9D9D9"/>
<rect x="35" y="173" width="300" height="18" rx="9" fill="#D9D9D9"/>
</svg>
