<svg width="100" height="50" viewBox="0 0 100 50" fill="none" xmlns="http://www.w3.org/2000/svg">
<path fill-rule="evenodd" clip-rule="evenodd" d="M44.0417 9.02619C44.2715 9.04529 44.5012 9.06439 44.7307 9.08548C47.4998 9.33925 50.1173 10.0688 52.4777 11.5842C53.9298 12.5163 55.1381 13.6997 56.0725 15.1559C56.2841 15.4857 56.4796 15.5136 56.775 15.2521C58.2471 13.9485 59.8902 12.9299 61.7487 12.2726C63.4611 11.6668 65.2242 11.4068 67.0371 11.5503C69.0027 11.7059 70.8508 12.2619 72.5687 13.2362C72.7917 13.3626 73.0151 13.4917 73.221 13.6431L73.2295 13.6493C73.3287 13.722 73.4557 13.8151 73.3831 13.983C73.3066 14.1599 73.1283 14.2646 72.9412 14.2557C72.6809 14.2434 72.4206 14.2275 72.1603 14.2115C71.5646 14.1751 70.9688 14.1386 70.3735 14.1457C66.4437 14.1928 62.8353 15.3175 59.5375 17.4484C58.4654 18.1412 57.466 18.928 56.5227 19.7875C56.4473 19.8563 56.3518 19.9138 56.2553 19.9462C56.1359 19.9864 56.0261 19.9839 55.9315 19.8498C54.1034 17.2604 51.6447 15.5227 48.6627 14.5038C46.9942 13.9336 45.2726 13.7112 43.5183 13.8737C40.4003 14.1626 37.6052 15.2543 35.2383 17.343C33.3672 18.9941 32.2284 21.0857 31.607 23.4782C31.2008 25.0423 31.0731 26.635 31.18 28.2444C31.2896 29.8959 31.673 31.4966 32.1329 33.0803C32.3087 33.686 32.4859 34.2914 32.663 34.8968C32.9497 35.8768 33.2366 36.8573 33.518 37.8389C33.6102 38.1604 33.6692 38.4932 33.7188 38.8244C33.7416 38.9765 33.7249 39.1422 33.6897 39.2932C33.6252 39.5696 33.353 39.7481 33.062 39.6613C32.7581 39.5708 32.4404 39.4569 32.1888 39.2717C30.8487 38.285 29.7179 37.0919 28.8009 35.7008C27.5615 33.8207 26.7864 31.7552 26.3495 29.554C26.0017 27.8019 25.9613 26.033 26.0252 24.2554C26.0993 22.1964 26.5246 20.2176 27.3819 18.3426C28.709 15.4397 30.7425 13.159 33.4768 11.5076C35.2076 10.4622 37.0646 9.72977 39.0487 9.34879C39.6037 9.2422 40.1679 9.18378 40.7321 9.12536C40.994 9.09824 41.256 9.07112 41.517 9.03918C41.5701 9.03266 41.6228 9.02306 41.6755 9.01345C41.6999 9.00899 41.7244 9.00453 41.7489 9.00038C42.4091 9 43.069 9 43.7291 9C43.8332 9.00885 43.9376 9.01753 44.0417 9.02619ZM40.996 41C40.9758 40.9972 40.9556 40.994 40.9354 40.9909C40.891 40.9839 40.8466 40.9768 40.8019 40.9741C40.5588 40.9593 40.4702 40.8818 40.4527 40.6385C40.4428 40.501 40.4434 40.3626 40.444 40.2244C40.4442 40.1909 40.4443 40.1574 40.4443 40.1239L40.4447 35.972V35.9642C40.4451 31.3125 40.4455 26.6608 40.4432 22.0091C40.4431 21.7054 40.5719 21.479 40.814 21.3326C41.0487 21.1905 41.3033 21.0746 41.5609 20.9786C42.7339 20.5415 43.949 20.288 45.194 20.1717C46.1669 20.0809 47.1405 20.0102 48.1172 20.0988C49.8071 20.2523 51.3448 20.7578 52.5209 22.0605C53.3191 22.9444 53.7804 24.0014 54.0269 25.1531C54.4337 27.0529 54.4287 28.9503 53.8922 30.826C53.5226 32.1178 52.8982 33.2687 51.8508 34.1458C50.8867 34.9532 49.7631 35.3844 48.5131 35.4897C47.2419 35.597 45.985 35.4876 44.7384 35.2322C44.7223 35.2288 44.7059 35.2272 44.6846 35.2251C44.6726 35.2239 44.659 35.2226 44.6431 35.2207C44.6414 35.241 44.6392 35.2606 44.6372 35.2799C44.6329 35.3197 44.6288 35.3577 44.6286 35.3957L44.6268 35.9559C44.6217 37.4849 44.6167 39.014 44.6158 40.5431C44.6156 40.7233 44.5798 40.8783 44.4412 41H40.996ZM44.6194 31.3881C44.6183 31.5549 44.6721 31.617 44.8277 31.6499C45.5257 31.7974 46.2268 31.9073 46.9432 31.8961C48.264 31.8753 49.1612 31.2682 49.6055 30.0213C50.0835 28.68 50.0754 27.2984 49.7628 25.9284C49.4529 24.5697 48.67 23.8467 47.0613 23.7192C46.2888 23.6579 45.5388 23.7893 44.791 23.9586C44.656 23.9892 44.6136 24.0446 44.6142 24.1836C44.6254 26.5852 44.6362 28.9867 44.6194 31.3881ZM56.0892 40.5577C56.0811 40.7508 56.1475 40.904 56.3229 40.9998C57.5638 40.9998 58.8047 40.9998 60.0456 40.9999C60.0659 40.966 60.0881 40.9327 60.1103 40.8994C60.1616 40.8225 60.2128 40.7457 60.2407 40.6611C60.2692 40.5743 60.2674 40.4763 60.2655 40.38C60.265 40.3557 60.2646 40.3316 60.2646 40.3078C60.2658 38.6976 60.2654 37.0876 60.2654 35.4774V35.2235C60.3058 35.2297 60.3429 35.2351 60.3779 35.2401C60.4439 35.2497 60.5021 35.2581 60.56 35.2687C61.8433 35.5022 63.1316 35.6207 64.4345 35.4519C66.3539 35.2033 67.8112 34.2505 68.7908 32.5833C69.517 31.3472 69.85 29.9884 69.9259 28.5715C70.0043 27.1093 69.9103 25.6573 69.424 24.2578C68.8666 22.6534 67.8809 21.4205 66.3028 20.7134C65.2872 20.2583 64.2097 20.083 63.1088 20.0655C61.4409 20.0391 59.7909 20.2099 58.1807 20.661C57.6628 20.8061 57.1579 21.0058 56.6599 21.2115C56.3118 21.3551 56.0858 21.6088 56.0861 22.0281C56.0901 28.1518 56.0891 34.2756 56.0894 40.3994C56.0894 40.4521 56.0914 40.5051 56.0892 40.5577ZM60.2497 24.2812C60.2479 24.0734 60.302 23.9882 60.5149 23.9412C61.2258 23.7847 61.9366 23.6634 62.6689 23.7161C64.2763 23.8318 65.1349 24.5285 65.4513 26.1034C65.711 27.3966 65.7048 28.7011 65.2766 29.9719C64.9332 30.9912 64.2487 31.645 63.1733 31.8418C62.5426 31.9572 61.9106 31.8904 61.2825 31.8009C61.1518 31.7824 61.0221 31.7561 60.8925 31.7297C60.7639 31.7036 60.6353 31.6775 60.5057 31.659C60.3143 31.6316 60.251 31.5482 60.2527 31.3495C60.2722 28.9942 60.2701 26.6365 60.2497 24.2812Z" fill="currentColor"/>
</svg>
