<svg xmlns="http://www.w3.org/2000/svg" width="61" height="60" viewBox="0 0 61 60" fill="none">
  <path opacity="0.4" d="M17.325 49.25C19.375 47.05 22.5 47.225 24.3 49.625L26.825 53C28.85 55.675 32.125 55.675 34.15 53L36.675 49.625C38.475 47.225 41.6 47.05 43.65 49.25C48.1 54 51.725 52.425 51.725 45.775V17.6C51.75 7.525 49.4 5 39.95 5H21.05C11.6 5 9.25 7.525 9.25 17.6V45.75C9.25 52.425 12.9 53.975 17.325 49.25Z" fill="var(--main-color)"/>
  <path d="M41.0756 29.375H27.3256C26.3006 29.375 25.4506 28.525 25.4506 27.5C25.4506 26.475 26.3006 25.625 27.3256 25.625H41.0756C42.1006 25.625 42.9506 26.475 42.9506 27.5C42.9506 28.525 42.1006 29.375 41.0756 29.375ZM41.0756 19.375H27.3256C26.3006 19.375 25.4506 18.525 25.4506 17.5C25.4506 16.475 26.3006 15.625 27.3256 15.625H41.0756C42.1006 15.625 42.9506 16.475 42.9506 17.5C42.9506 18.525 42.1006 19.375 41.0756 19.375ZM19.9531 20C18.5781 20 17.4531 18.875 17.4531 17.5C17.4531 16.125 18.5781 15 19.9531 15C21.3281 15 22.4531 16.125 22.4531 17.5C22.4531 18.875 21.3281 20 19.9531 20ZM19.9531 30C18.5781 30 17.4531 28.875 17.4531 27.5C17.4531 26.125 18.5781 25 19.9531 25C21.3281 25 22.4531 26.125 22.4531 27.5C22.4531 28.875 21.3281 30 19.9531 30Z" fill="var(--main-color)"/>
</svg>