<svg width="32" height="32" viewBox="0 0 32 32" fill="none" xmlns="http://www.w3.org/2000/svg">
<g id="icon">
<path id="Vector" d="M23.5553 1.77734H8.44423C3.91089 1.77734 0.888672 4.75066 0.888672 9.21062V18.1306C0.888672 22.5905 3.91089 25.5638 8.44423 25.5638V28.7304C8.44423 29.9197 9.78912 30.6333 10.7864 29.9643L17.5109 25.5638H23.5553C28.0887 25.5638 31.1109 22.5905 31.1109 18.1306V9.21062C31.1109 4.75066 28.0887 1.77734 23.5553 1.77734ZM15.9998 19.8699C15.6992 19.8699 15.4109 19.7525 15.1984 19.5434C14.9859 19.3343 14.8664 19.0507 14.8664 18.755C14.8664 18.4592 14.9859 18.1756 15.1984 17.9665C15.4109 17.7574 15.6992 17.64 15.9998 17.64C16.3004 17.64 16.5886 17.7574 16.8012 17.9665C17.0137 18.1756 17.1331 18.4592 17.1331 18.755C17.1331 19.0507 17.0137 19.3343 16.8012 19.5434C16.5886 19.7525 16.3004 19.8699 15.9998 19.8699ZM17.9038 13.7003C17.3144 14.0869 17.1331 14.3396 17.1331 14.7558V15.068C17.1331 15.6776 16.6193 16.183 15.9998 16.183C15.3802 16.183 14.8664 15.6776 14.8664 15.068V14.7558C14.8664 13.0313 16.1509 12.1839 16.6344 11.8569C17.1936 11.4852 17.3749 11.2325 17.3749 10.8459C17.3749 10.1026 16.7553 9.49309 15.9998 9.49309C15.2442 9.49309 14.6247 10.1026 14.6247 10.8459C14.6247 11.4555 14.1109 11.9609 13.4913 11.9609C12.8718 11.9609 12.358 11.4555 12.358 10.8459C12.358 8.86869 13.99 7.2631 15.9998 7.2631C18.0096 7.2631 19.6416 8.86869 19.6416 10.8459C19.6416 12.5407 18.3722 13.3881 17.9038 13.7003Z" fill="url(#paint0_linear_3029_65253)"/>
</g>
<defs>
<linearGradient id="paint0_linear_3029_65253" x1="15.9998" y1="1.77734" x2="15.9998" y2="30.2218" gradientUnits="userSpaceOnUse">
<stop stop-color="#FF8989"/>
<stop offset="1" stop-color="#FE6469"/>
</linearGradient>
</defs>
</svg>
