<svg xmlns="http://www.w3.org/2000/svg" width="31" height="31" viewBox="0 0 31 31" fill="none">
  <path opacity="0.5" d="M18.0625 5.07519L18.0625 17.5977H7.325C4.7375 17.5977 2.625 19.7102 2.625 22.2977V9.93769C2.625 8.45019 3.5375 7.12519 4.925 6.60019L14.85 2.85019C16.4 2.27519 18.0625 3.41269 18.0625 5.07519ZM27.6987 17.5977V20.1727C27.6987 20.8602 27.1487 21.4227 26.4487 21.4477H23.9987C22.6487 21.4477 21.4112 20.4602 21.2987 19.1102C21.2237 18.3227 21.5237 17.5852 22.0487 17.0727C22.5112 16.5977 23.1487 16.3227 23.8487 16.3227H26.4487C27.1487 16.3477 27.6987 16.9102 27.6987 17.5977Z" fill="var(--norm_secondary-color)"/>
  <path fill-rule="evenodd" clip-rule="evenodd" d="M21.3 19.1117C21.225 18.3242 21.525 17.5867 22.05 17.0742C22.5125 16.5992 23.15 16.3242 23.85 16.3242H26.375V14.5242C26.375 11.9367 24.2625 9.82422 21.675 9.82422H7.325C4.7375 9.82422 2.625 11.9367 2.625 14.5242V22.9367C2.625 25.5242 4.7375 27.6367 7.325 27.6367H21.675C24.2625 27.6367 26.375 25.5242 26.375 22.9367V21.4492H24C22.65 21.4492 21.4125 20.4617 21.3 19.1117ZM16.3145 17.0122H7.56445C7.05195 17.0122 6.62695 16.5872 6.62695 16.0747C6.62695 15.5622 7.05195 15.1372 7.56445 15.1372H16.3145C16.827 15.1372 17.252 15.5622 17.252 16.0747C17.252 16.5872 16.827 17.0122 16.3145 17.0122Z" fill="var(--norm_secondary-color)"/>
</svg>