<svg width="48" height="48" viewBox="0 0 48 48" fill="none" xmlns="http://www.w3.org/2000/svg">
<path opacity="0.4" d="M44 15.62V32.38C44 39.66 39.66 44 32.38 44H15.62C15.22 44 14.82 43.98 14.44 43.96C11.98 43.8 9.9 43.1 8.26 41.9C7.42 41.32 6.68 40.58 6.1 39.74C4.72 37.84 4 35.36 4 32.38V15.62C4 8.74 7.88 4.48 14.44 4.06C14.82 4.02 15.22 4 15.62 4H32.38C35.36 4 37.84 4.72 39.74 6.1C40.58 6.68 41.32 7.42 41.9 8.26C43.28 10.16 44 12.64 44 15.62Z" fill="var(--main-color)"/>
<path d="M16.32 13.2959H31.66C32.94 13.2959 33.98 14.3359 33.98 15.6159V18.1759C33.98 19.1159 33.4 20.2759 32.82 20.8559L27.82 25.2759C27.12 25.8559 26.66 27.0159 26.66 27.9559V32.9559C26.66 33.6559 26.2 34.5759 25.62 34.9359L24 35.9559C22.48 36.8959 20.4 35.8359 20.4 33.9759V27.8159C20.4 26.9959 19.94 25.9559 19.46 25.3759L15.04 20.7159C14.46 20.1559 14 19.0959 14 18.3959V15.7359C14 14.3359 15.04 13.2959 16.32 13.2959Z" fill="var(--main-color)"/>
</svg>
