<svg width="48" height="48" viewBox="0 0 48 48" fill="none" xmlns="http://www.w3.org/2000/svg">
<g clip-path="url(#clip0_5252_490)">
<path d="M23.9004 43.8999C34.9461 43.8999 43.9004 34.9456 43.9004 23.8999C43.9004 12.8542 34.9461 3.8999 23.9004 3.8999C12.8547 3.8999 3.90039 12.8542 3.90039 23.8999C3.90039 34.9456 12.8547 43.8999 23.9004 43.8999Z" fill="white"/>
<path d="M16.7676 23.2511L13.5 26.7099C18.3236 29.0681 22.5977 34.705 22.6805 34.5709C30.1493 22.4649 34.5062 21.3644 34.5062 21.3644C34.5062 21.3644 34.2349 19.4464 34.195 17.5911C34.1495 15.4796 34.3275 13.4031 34.195 13.5035C24.8589 20.5783 22.4183 29.0049 22.2137 28.7538C20.0353 26.081 17.8568 24.142 16.7676 23.2511Z" fill="#00BA82"/>
</g>
<defs>
<clipPath id="clip0_5252_490">
<rect width="48" height="48" fill="white"/>
</clipPath>
</defs>
</svg>
