<svg width="100" height="50" viewBox="0 0 100 50" fill="none" xmlns="http://www.w3.org/2000/svg">
<path d="M48.6816 25.4392H46.8146V27.1964H48.6816C48.915 27.1737 49.1403 27.0986 49.3406 26.9768C49.5603 26.7571 49.5603 26.6473 49.5603 26.3178C49.5375 26.0844 49.4624 25.8592 49.3406 25.6588C49.2538 25.5758 49.1497 25.5131 49.0358 25.4751C48.9218 25.4371 48.8009 25.4248 48.6816 25.4392Z" fill="currentColor"/>
<path d="M36.1619 32.1387C36.7164 33.345 37.3397 34.5184 38.0289 35.6532C38.1387 35.8728 38.2486 35.9827 38.3584 36.2023C38.0011 35.2715 37.7075 34.3175 37.4798 33.3468C37.1503 33.0173 36.6012 32.578 36.1619 32.1387Z" fill="currentColor"/>
<path d="M37.37 32.3584C36.9317 30.4491 36.7106 28.4965 36.711 26.5376C36.711 25.4393 36.8208 24.341 36.9306 23.2428C35.6239 21.2282 34.5898 19.0493 33.8555 16.763C33.3293 21.4859 33.9315 26.2662 35.6127 30.711C36.1619 31.2601 36.711 31.8092 37.37 32.3584Z" fill="currentColor"/>
<path d="M37.3699 24.1214C37.2727 24.9597 37.236 25.8038 37.2601 26.6474C37.2905 28.8282 37.5481 30.9998 38.0289 33.1272C41.3159 35.8226 45.2558 37.6031 49.4509 38.289C50.574 38.4976 51.7132 38.6078 52.8555 38.6185C55.0893 38.0351 57.2326 37.1482 59.2254 35.9827C54.914 35.8271 50.6972 34.6753 46.9054 32.6175C43.1136 30.5596 39.8499 27.6516 37.3699 24.1214Z" fill="currentColor"/>
<path d="M38.3584 34.0058C38.718 35.2919 39.196 36.5419 39.7861 37.7399C42.0445 38.5646 44.4139 39.0459 46.815 39.1676C48.1003 39.2098 49.3868 39.1363 50.659 38.948C50.2489 38.9238 49.8432 38.8501 49.4509 38.7283C45.4247 38.0784 41.6174 36.4575 38.3584 34.0058Z" fill="currentColor"/>
<path d="M50 6C46.2422 6 42.5687 7.11433 39.4442 9.20208C36.3196 11.2898 33.8844 14.2572 32.4463 17.729C31.0082 21.2008 30.632 25.0211 31.3651 28.7067C32.0982 32.3923 33.9078 35.7778 36.565 38.435C39.2222 41.0922 42.6076 42.9018 46.2933 43.6349C49.9789 44.368 53.7992 43.9918 57.271 42.5537C60.7428 41.1156 63.7102 38.6804 65.7979 35.5558C67.8857 32.4313 69 28.7578 69 25C68.9971 19.9618 66.9944 15.1307 63.4318 11.5682C59.8693 8.00562 55.0382 6.00291 50 6ZM63.948 29.3931H61.6416L59.0058 24.5607L53.5145 26.5376L57.9075 18.5202L63.948 29.3931ZM57.2486 10.7225L62.4104 20.1676H60.1041L57.7977 15.9942L53.6243 17.3121L57.2486 10.7225ZM52.7457 18.7399L55.6012 17.8613L54.3931 20.1676H52.0867L52.7457 18.7399ZM52.6358 27.9653L55.4913 27.0867L54.2832 29.3931H51.9769L52.6358 27.9653ZM51.6474 22.5838C51.6654 23.2995 51.4323 23.9989 50.9884 24.5607C51.2323 24.8664 51.4136 25.2171 51.5219 25.5929C51.6302 25.9687 51.6633 26.3621 51.6195 26.7508C51.5756 27.1394 51.4556 27.5155 51.2663 27.8577C51.077 28.1999 50.8221 28.5014 50.5162 28.7451C49.9968 29.1642 49.3495 29.3929 48.6821 29.3931H44.6185V21.9249H46.7052V23.4624H48.6821C48.9155 23.4397 49.1407 23.3646 49.341 23.2428C49.5607 23.0231 49.5607 22.9133 49.5607 22.5838C49.5607 22.3462 49.4836 22.115 49.341 21.9249C50.0453 21.7203 50.6872 21.3428 51.2081 20.8266C51.4845 21.3719 51.6347 21.9725 51.6474 22.5838ZM50.4393 10.6127V12.8092H47.0347C46.8013 12.832 46.5761 12.9071 46.3757 13.0289C46.1561 13.2486 46.1561 13.3584 46.1561 13.6879C46.1788 13.9212 46.2539 14.1465 46.3757 14.3468C46.5954 14.5665 46.7052 14.5665 47.0347 14.5665H48.133C48.9487 14.5773 49.7313 14.8904 50.3295 15.4451C50.6137 15.7351 50.8377 16.0785 50.9885 16.4555C51.1393 16.8325 51.2139 17.2356 51.2081 17.6416C51.1972 18.4573 50.8842 19.24 50.3295 19.8381C50.0395 20.1224 49.6961 20.3463 49.3191 20.4971C48.9421 20.6479 48.539 20.7226 48.133 20.7168H44.7283V18.5202H48.133C48.3663 18.4975 48.5916 18.4224 48.7919 18.3006C49.0116 18.0809 49.0116 17.9711 49.0116 17.6416C48.9888 17.4082 48.9137 17.183 48.7919 16.9827C48.7051 16.8996 48.601 16.8369 48.4871 16.7989C48.3731 16.7609 48.2522 16.7486 48.133 16.763H47.0347C46.219 16.7522 45.4363 16.4391 44.8382 15.8844C44.5539 15.5944 44.33 15.251 44.1792 14.874C44.0284 14.497 43.9537 14.0939 43.9595 13.6879C43.9704 12.8722 44.2835 12.0895 44.8382 11.4913C45.1281 11.2071 45.4715 10.9831 45.8485 10.8323C46.2256 10.6815 46.6287 10.6069 47.0347 10.6127H50.4393ZM65.2659 35.4335C65.0462 35.763 64.7168 36.2023 64.4971 36.5318C61.0413 38.2235 57.252 39.1239 53.4046 39.1676H53.0751C51.2776 39.6056 49.434 39.8268 47.5838 39.8266H46.7052C44.4946 39.7727 42.3069 39.3648 40.2254 38.6185C41.5349 40.2029 43.0492 41.6063 44.7283 42.7919C44.0694 42.5722 43.5202 42.3526 42.9711 42.1329C42.3336 41.6417 41.7452 41.09 41.2139 40.4855C41.4436 40.8695 41.7006 41.2365 41.9827 41.5838C38.8508 40.052 36.1936 37.6985 34.2948 34.7746C35.5794 35.7513 36.9815 36.563 38.4682 37.1907C38.1387 36.7514 37.9191 36.422 37.5896 35.9827C36.5771 34.4281 35.7305 32.7716 35.0636 31.0405C34.0876 29.9844 33.2057 28.8452 32.4278 27.6358C32.0739 27.1607 31.7789 26.6444 31.5491 26.0983V24.8902C31.5608 21.5618 32.4715 18.2985 34.185 15.4451C34.8329 17.9176 35.8314 20.2846 37.1503 22.474C38.0155 16.5682 40.8849 11.1396 45.2775 7.09827L46.4856 6.76879C41.6554 11.0125 38.5328 16.8674 37.6994 23.2428C40.0301 26.9592 43.2708 30.0192 47.1145 32.1333C50.9583 34.2474 55.278 35.3455 59.6647 35.3237H60.2139C62.4033 33.8306 64.2571 31.897 65.6565 29.6466C67.0559 27.3961 67.9703 24.8784 68.341 22.2543C68.4379 23.1661 68.4746 24.0834 68.4509 25C68.4384 28.6812 67.3296 32.2753 65.2659 35.3237C63.64 35.6654 61.9849 35.8493 60.3237 35.8728C58.7341 36.9873 56.9967 37.8744 55.1619 38.5087C58.722 38.2766 62.1801 37.2241 65.2659 35.4335Z" fill="currentColor"/>
</svg>
