<svg width="30" height="30" viewBox="0 0 30 30" fill="none" xmlns="http://www.w3.org/2000/svg">
<g id="Frame">
<path id="Subtract" fill-rule="evenodd" clip-rule="evenodd" d="M4.26288 4.9454C3.40437 5.19078 2.8125 5.97551 2.8125 6.8684V12.5036C2.8125 20.0174 7.72278 26.6878 15.0018 29.0624C22.2788 26.6878 27.1875 20.0188 27.1875 12.5069V6.868C27.1875 5.9753 26.5959 5.19069 25.7376 4.94514L15.5557 2.03222C15.1963 1.92941 14.8153 1.92936 14.4559 2.03208L4.26288 4.9454ZM22.2444 12.2443C22.7935 11.6951 22.7935 10.8047 22.2444 10.2555C21.6952 9.70637 20.8048 9.70637 20.2556 10.2555L13.75 16.7612L10.3694 13.3805C9.82019 12.8314 8.92981 12.8314 8.38063 13.3805C7.83146 13.9297 7.83146 14.8201 8.38063 15.3693L12.7556 19.7443C13.3048 20.2935 14.1952 20.2935 14.7444 19.7443L22.2444 12.2443Z" fill="currentColor"/>
</g>
</svg>
