<svg xmlns="http://www.w3.org/2000/svg" width="120" height="60" viewBox="0 0 120 60" fill="none">
<path d="M0 30C0 13.4315 13.4315 0 30 0H90C106.569 0 120 13.4315 120 30C120 46.5685 106.569 60 90 60H30C13.4315 60 0 46.5685 0 30Z" fill="var(--main-color)"/>
<path fill-rule="evenodd" clip-rule="evenodd" d="M57.3763 10.166C47.8724 10.166 40.168 17.8705 40.168 27.3743C40.168 36.8782 47.8724 44.5827 57.3763 44.5827C60.5588 44.5827 63.5396 43.7187 66.0968 42.2126L72.6931 48.8089C74.0599 50.1757 76.276 50.1757 77.6428 48.8089C79.0097 47.442 79.0097 45.2259 77.6428 43.8591L71.2883 37.5046C73.3613 34.6626 74.5846 31.1613 74.5846 27.3743C74.5846 17.8705 66.8802 10.166 57.3763 10.166ZM44.8346 27.3743C44.8346 20.4478 50.4498 14.8327 57.3763 14.8327C64.3028 14.8327 69.918 20.4478 69.918 27.3743C69.918 34.3009 64.3028 39.916 57.3763 39.916C50.4498 39.916 44.8346 34.3009 44.8346 27.3743Z" fill="var(--bg_color_L2)"/>
</svg>