<svg width="80" height="80" viewBox="0 0 80 80" fill="none" xmlns="http://www.w3.org/2000/svg">
<g id="Frame 1420069151">
<g id="Group 1420069177">
<g id="Union">
<path fill-rule="evenodd" clip-rule="evenodd" d="M16.6836 59.7951C11.6659 54.2964 8.61339 47.0368 8.61339 39.0771C8.61339 21.9116 22.803 7.99609 40.3066 7.99609C57.8104 7.99609 72 21.9116 72 39.0771C72 51.2146 64.9033 61.7226 54.5593 66.8395C48.2305 70.1337 41.0104 72 33.346 72C23.9549 72 15.2308 69.1982 7.99609 64.4004C7.99609 64.4004 12.8477 63.8721 16.6823 59.7963L16.6836 59.7951Z" fill="var(--main-color)"/>
<path d="M16.6836 59.7951L17.7316 60.8682L18.769 59.8551L17.7916 58.784L16.6836 59.7951ZM54.5593 66.8395L53.8942 65.495L53.8804 65.5018L53.8667 65.5089L54.5593 66.8395ZM7.99609 64.4004L7.8337 62.9093L3.71046 63.3583L7.16709 65.6506L7.99609 64.4004ZM16.6823 59.7963L15.6343 58.7232L15.6116 58.7453L15.5898 58.7684L16.6823 59.7963ZM17.7916 58.784C13.0136 53.5479 10.1134 46.6445 10.1134 39.0771H7.11339C7.11339 47.4291 10.3182 55.0448 15.5755 60.8061L17.7916 58.784ZM10.1134 39.0771C10.1134 22.7675 23.6037 9.49609 40.3066 9.49609V6.49609C22.0023 6.49609 7.11339 21.0557 7.11339 39.0771H10.1134ZM40.3066 9.49609C57.0097 9.49609 70.5 22.7675 70.5 39.0771H73.5C73.5 21.0557 58.6111 6.49609 40.3066 6.49609V9.49609ZM70.5 39.0771C70.5 50.6105 63.7577 60.6159 53.8942 65.495L55.2243 68.184C66.0489 62.8294 73.5 51.8186 73.5 39.0771H70.5ZM53.8667 65.5089C47.7475 68.694 40.7645 70.5 33.346 70.5V73.5C41.2563 73.5 48.7134 71.5733 55.2518 68.17L53.8667 65.5089ZM33.346 70.5C24.2571 70.5 15.8202 67.7891 8.8251 63.1503L7.16709 65.6506C14.6415 70.6072 23.6528 73.5 33.346 73.5V70.5ZM7.99609 64.4004C8.15848 65.8916 8.15904 65.8916 8.15963 65.8915C8.15984 65.8915 8.16044 65.8914 8.16088 65.8914C8.16175 65.8913 8.1627 65.8912 8.16373 65.8911C8.16578 65.8908 8.16812 65.8906 8.17077 65.8903C8.17606 65.8896 8.18254 65.8889 8.19018 65.888C8.20546 65.8861 8.22541 65.8836 8.24984 65.8804C8.29869 65.8738 8.36552 65.8643 8.44886 65.851C8.61546 65.8243 8.84854 65.7825 9.13628 65.7192C9.71099 65.5928 10.5086 65.3798 11.433 65.0294C13.2779 64.3299 15.6626 63.0692 17.7748 60.8241L15.5898 58.7684C13.8674 60.5992 11.909 61.6405 10.3695 62.2242C9.60163 62.5153 8.94666 62.6892 8.49186 62.7892C8.26485 62.8392 8.08894 62.8704 7.97524 62.8886C7.91843 62.8977 7.87728 62.9035 7.85319 62.9067C7.84115 62.9083 7.83339 62.9093 7.83008 62.9097C7.82842 62.9099 7.82788 62.9099 7.82848 62.9098C7.82878 62.9098 7.82936 62.9097 7.83023 62.9096C7.83067 62.9096 7.83117 62.9095 7.83175 62.9095C7.83204 62.9094 7.83253 62.9094 7.83267 62.9094C7.83318 62.9093 7.8337 62.9093 7.99609 64.4004ZM17.7303 60.8694L17.7316 60.8682L15.6355 58.7219L15.6343 58.7232L17.7303 60.8694Z" fill="#333333"/>
</g>
<path id="Vector" fill-rule="evenodd" clip-rule="evenodd" d="M55.1905 54.4608C63.39 46.2747 63.39 33.0023 55.1905 24.816C51.3884 21.0201 46.491 18.9856 41.514 18.7102C41.3638 14.9821 43.3739 12.4631 43.3837 12.4508L43.3817 12.4512L43.3832 12.4492C37.6631 13.5524 32.2009 16.3153 27.7716 20.7376C24.3748 24.1289 21.9561 28.1268 20.5142 32.3819C20.7253 31.8238 20.9606 31.2728 21.2203 30.7306C20.9214 31.4915 20.6514 32.269 20.4072 33.0644C18.0059 40.3424 19.7008 48.6727 25.4981 54.4608C33.6977 62.6472 46.9913 62.6472 55.1905 54.4608Z" fill="var(--bg_color_L2)"/>
<path id="Vector_2" fill-rule="evenodd" clip-rule="evenodd" d="M29.6875 37.4847V40.0889V41.8236C29.6875 43.555 31.0933 44.9586 32.8276 44.9586C34.5619 44.9586 35.9675 43.555 35.9675 41.8236V40.0863V37.4847C35.9675 35.7536 34.5619 34.3496 32.8276 34.3496C31.0933 34.3496 29.6875 35.7536 29.6875 37.4847Z" fill="var(--main-color)"/>
<path id="Vector_3" fill-rule="evenodd" clip-rule="evenodd" d="M45.2305 37.4847V40.0889V41.8236C45.2305 43.5551 46.6364 44.9586 48.3705 44.9586C50.1047 44.9586 51.5106 43.5551 51.5106 41.8236V40.0863V37.4847C51.5106 35.7536 50.1047 34.3496 48.3705 34.3496C46.6364 34.3496 45.2305 35.7536 45.2305 37.4847Z" fill="var(--main-color)"/>
</g>
</g>
</svg>
