<svg xmlns="http://www.w3.org/2000/svg" width="60" height="59" viewBox="0 0 60 59" fill="none">
  <path fill-rule="evenodd" clip-rule="evenodd" d="M40.5616 47.7085C46.9614 44.2361 51.2765 37.6807 51.2765 30.1657C51.2765 19.022 41.7881 9.98828 30.0836 9.98828C18.379 9.98828 8.89062 19.022 8.89062 30.1657C8.89062 37.6852 13.2109 44.2439 19.617 47.7148C17.0174 45.1944 15.4141 41.7394 15.4141 37.9279C15.4141 33.9619 17.411 32.4952 18.6745 31.7193C19.0718 31.4753 20.4928 31.2313 22.3354 30.9149C26.3524 30.2251 32.3735 29.1913 34.1617 27.0632C35.9014 24.9928 35.7509 23.2028 35.6543 22.0531C35.6061 21.479 35.5712 21.0646 35.7919 20.8546C36.4544 20.2243 37.4221 20.3954 40.6826 23.959C43.943 27.5225 44.7581 32.7574 44.7581 37.9279C44.7581 41.7363 43.1574 45.1887 40.5616 47.7085Z" fill="var(--main-color)"/>
  <g opacity="0.6">
    <path d="M28.8809 53.7847C40.4635 55.1654 51.4474 47.926 53.9875 36.8571C54.1796 36.02 54.3182 35.1837 54.4055 34.3513L52.8032 34.018C52.7395 35.0399 52.5917 36.0704 52.355 37.102C50.0167 47.2913 39.8412 53.9262 29.1704 52.5233L28.8809 53.7847Z" fill="var(--main-color)"/>
    <path d="M4 25.9591C4 24.8545 4.89543 23.9591 6 23.9591H8.5209C9.62547 23.9591 10.5209 24.8545 10.5209 25.9591V34.376C10.5209 35.4806 9.62547 36.376 8.5209 36.376H6C4.89543 36.376 4 35.4806 4 34.376V25.9591Z" fill="var(--main-color)"/>
    <path d="M49.6439 25.9591C49.6439 24.8545 50.5394 23.9591 51.6439 23.9591H54.1648C55.2694 23.9591 56.1648 24.8545 56.1648 25.9591V34.376C56.1648 35.4806 55.2694 36.376 54.1648 36.376H51.6439C50.5394 36.376 49.6439 35.4806 49.6439 34.376V25.9591Z" fill="var(--main-color)"/>
    <path d="M7.49783 28.6149C7.34553 27.6011 7.26673 26.5647 7.26673 25.5108C7.26673 13.5099 17.485 3.78125 30.0899 3.78125C42.6948 3.78125 52.913 13.5099 52.913 25.5108C52.913 26.5647 52.8342 27.6011 52.6819 28.6149H51.1434C51.3083 27.6031 51.3939 26.5665 51.3939 25.511C51.3939 14.3673 41.8568 5.33355 30.0922 5.33355C18.3277 5.33355 8.79063 14.3673 8.79063 25.511C8.79063 26.5665 8.87619 27.6031 9.04111 28.6149H7.49783Z" fill="var(--main-color)"/>
    <path d="M33.8935 53.574C33.5091 55.2489 31.7714 56.31 30.0122 55.9441C28.253 55.5782 27.1385 53.9237 27.5228 52.2488C27.9072 50.5739 29.6449 49.5128 31.4041 49.8787C33.1633 50.2447 34.2778 51.8991 33.8935 53.574Z" fill="var(--main-color)"/>
  </g>
  <path fill-rule="evenodd" clip-rule="evenodd" d="M34.8954 42.6172C33.7028 43.5506 31.9855 44.1363 30.0767 44.1363C28.1698 44.1363 26.4541 43.5518 25.2617 42.6201C25.6652 44.8046 27.6682 46.4644 30.0783 46.4644C32.4895 46.4644 34.4931 44.8031 34.8954 42.6172Z" fill="var(--main-color)"/>
</svg>