<svg width="100" height="50" viewBox="0 0 100 50" fill="none" xmlns="http://www.w3.org/2000/svg">
<path fill-rule="evenodd" clip-rule="evenodd" d="M58.6378 27.9743C58.7561 27.9887 58.9218 28.0286 59.064 28.1489C59.2449 28.3021 59.4121 28.4906 59.5179 28.7325C59.6262 28.9801 59.6543 29.2475 59.6112 29.5303C59.5302 30.0628 59.1919 30.6736 58.6355 31.4226C57.7997 32.5477 56.9444 33.0525 56.136 33.2744C55.7416 33.3827 55.3743 33.4192 55.0571 33.438C54.9386 33.4451 54.8341 33.4496 54.7389 33.4537C54.7086 33.455 54.6793 33.4563 54.6507 33.4576C54.6409 33.9671 54.7327 34.3274 54.9021 34.7798C55.0715 35.2322 55.2468 35.3985 55.4103 35.5286C55.5658 35.6523 55.8337 35.7403 56.0877 35.7403C56.3418 35.7403 57.2613 35.6938 58.1339 35.033C59.8483 33.7346 61.7155 31.5502 62.8294 29.9837C62.9921 29.755 63.3093 29.7014 63.538 29.8641C63.7667 30.0267 63.8202 30.3439 63.6576 30.5726C62.5133 32.1818 60.5769 34.4576 58.7474 35.8431C57.848 36.5242 56.8893 37.0572 56.0184 37.101C55.5615 37.124 55.03 37.1006 54.6507 36.7988C54.2794 36.5034 54.0468 36.1836 53.8437 35.6979C52.8698 33.3691 54.1343 30.7419 55.4418 29.5098C56.0886 28.9003 56.8071 28.4708 57.4133 28.2234C57.7152 28.1002 58.0049 28.0157 58.2559 27.982C58.3808 27.9653 58.5118 27.9589 58.6378 27.9743ZM54.793 32.4338C54.8636 32.4306 54.9321 32.4274 54.9968 32.4236C55.2835 32.4066 55.5708 32.3757 55.867 32.2944C56.4396 32.1372 57.1086 31.774 57.8197 30.8166C58.3642 30.0836 58.5659 29.645 58.6066 29.3774C58.6244 29.2603 58.6089 29.1901 58.5868 29.1396C58.5678 29.0961 58.5336 29.0444 58.4706 28.982C58.4506 28.9827 58.4243 28.9847 58.3911 28.9892C58.2502 29.0081 58.0463 29.0627 57.7973 29.1643C57.302 29.3664 56.6907 29.7292 56.1387 30.2494C55.5492 30.8049 55.0331 31.5311 54.793 32.4338ZM58.519 28.9837C58.519 28.9837 58.5177 28.9836 58.5153 28.9831C58.5179 28.9834 58.519 28.9837 58.519 28.9837Z" fill="currentColor"/>
<path fill-rule="evenodd" clip-rule="evenodd" d="M63.0189 26.6314C63.2995 26.635 63.524 26.8655 63.5203 27.1461C63.5067 28.1943 63.7472 30.7464 64.7679 32.5646C65.4103 33.7089 66.0199 34.2234 66.5146 34.4622C67.0088 34.7008 67.4516 34.6972 67.8562 34.677C68.1487 34.6623 68.9318 34.4225 69.9625 33.7639C70.9712 33.1194 72.1694 32.1032 73.2962 30.6075C73.4651 30.3834 73.7837 30.3386 74.0078 30.5075C74.2319 30.6763 74.2767 30.9949 74.1079 31.219C72.9059 32.8144 71.6173 33.9125 70.5096 34.6203C69.424 35.3139 68.4612 35.6642 67.9069 35.6919C67.4646 35.714 66.8065 35.7316 66.0728 35.3774C65.3397 35.0235 64.5943 34.3312 63.8818 33.062C62.7346 31.0185 62.4896 28.2582 62.5042 27.1329C62.5078 26.8523 62.7383 26.6277 63.0189 26.6314Z" fill="currentColor"/>
<path fill-rule="evenodd" clip-rule="evenodd" d="M69.7466 27.6102C69.9309 27.8218 69.9088 28.1428 69.6972 28.3271C68.6177 29.2673 66.9411 30.8663 65.4328 32.5958C63.9064 34.3459 62.62 36.1548 62.2307 37.5251C62.154 37.795 61.873 37.9517 61.6031 37.875C61.3331 37.7983 61.1765 37.5173 61.2531 37.2474C61.7107 35.6368 63.1412 33.6773 64.6669 31.9278C66.2108 30.1576 67.9215 28.526 69.0298 27.5608C69.2414 27.3765 69.5623 27.3986 69.7466 27.6102Z" fill="currentColor"/>
<path fill-rule="evenodd" clip-rule="evenodd" d="M76.0865 27.3011C76.2779 27.5063 76.2666 27.8278 76.0614 28.0192C75.5819 28.4662 74.9256 29.2791 74.541 30.2313C74.1589 31.1772 74.0644 32.2032 74.593 33.1604C74.7178 33.3863 74.8348 33.4897 74.9208 33.5365C74.9997 33.5795 75.0891 33.5955 75.2108 33.573C75.4913 33.5211 75.8802 33.2743 76.3412 32.8073C77.2401 31.8967 78.3428 30.1072 78.8678 29.0502C78.9926 28.7989 79.0966 29.0208 79.3479 29.1456C79.5992 29.2705 79.7018 29.5754 79.5769 29.8267C79.0293 30.9292 78.0709 32.5016 77.0644 33.5212C76.5727 34.0193 75.9977 34.4608 75.3957 34.5722C75.0762 34.6314 74.7448 34.5978 74.4347 34.4289C74.1319 34.264 73.892 33.9932 73.7034 33.6517C72.9788 32.3395 73.1454 30.9731 73.5988 29.8506C74.0497 28.7344 74.8034 27.8027 75.3684 27.2759C75.5736 27.0846 75.8951 27.0958 76.0865 27.3011Z" fill="currentColor"/>
<path fill-rule="evenodd" clip-rule="evenodd" d="M51.6463 16.5443C53.0342 17.0197 54.3627 17.9057 54.4965 19.4312C54.547 20.0067 54.4318 20.4933 54.1496 20.87C53.8709 21.2419 53.4755 21.445 53.0822 21.5484C52.3162 21.7499 51.419 21.6124 50.8428 21.4456C50.5733 21.3676 50.418 21.0858 50.496 20.8162C50.5741 20.5467 50.8558 20.3914 51.1254 20.4695C51.6218 20.6132 52.3124 20.7001 52.8238 20.5656C53.0691 20.5011 53.2348 20.3961 53.3363 20.2606C53.4342 20.13 53.5184 19.9098 53.4842 19.52C53.4063 18.6319 52.6178 17.9512 51.317 17.5057C50.0492 17.0715 48.4888 16.9374 47.2924 17.0186C46.1272 17.0975 44.6077 17.5669 43.4819 18.4333C42.3763 19.2841 41.6841 20.4809 41.9981 22.088C42.3097 23.6824 43.8561 24.2847 45.714 25.4088C46.0409 25.6066 46.5139 25.8437 46.8572 26.044C47.4473 26.3882 48.1802 26.8784 48.7203 27.2295C49.6941 27.8627 50.3005 28.6028 50.8428 29.3466C51.8785 30.7673 51.9751 33.3535 50.8857 35.546C49.7802 37.7709 47.2437 39.6757 42.6556 40.1778C39.808 40.4894 37.1325 39.5885 35.183 38.1555C33.2512 36.7356 31.945 34.7208 32.0154 32.7528C32.0567 31.5992 32.399 30.0475 33.4661 29.0545C34.5872 28.0113 36.3396 27.7272 38.8597 28.7883C39.1183 28.8972 39.2397 29.1951 39.1308 29.4537C39.0219 29.7124 38.724 29.8337 38.4653 29.7248C36.1584 28.7535 34.8806 29.1264 34.1584 29.7984C33.3823 30.5207 33.0684 31.7424 33.031 32.7891C32.9771 34.2932 34.234 35.9958 36.0177 37.3069C37.7836 38.605 39.3762 39.2923 42.5451 39.1676C45.714 39.043 49.0652 36.9261 49.9757 35.0938C50.9023 33.229 50.5737 31.2102 49.769 30.1063C49.3389 29.5164 48.6623 28.9777 47.8272 28.4348C47.3033 28.0942 46.7502 27.7718 46.1789 27.4388C45.8309 27.236 45.4761 27.0292 45.1172 26.812C43.3011 25.7132 41.4091 24.3723 41.0008 22.2829C40.595 20.2062 41.533 18.6508 42.8621 17.628C44.1709 16.6208 45.8906 16.095 47.2236 16.0047C48.5254 15.9164 50.2253 16.0576 51.6463 16.5443Z" fill="currentColor"/>
<path fill-rule="evenodd" clip-rule="evenodd" d="M79.5981 25.1503C79.8783 25.1669 80.0918 25.4075 80.0751 25.6877C79.9875 27.1605 79.7188 29.8122 79.2071 32.2659L79.1022 32.9034L80.051 31.8783C81.3688 30.4191 82.6968 28.8723 83.7031 27.6249C83.8793 27.4065 84.1992 27.3723 84.4176 27.5485C84.636 27.7247 84.6702 28.0446 84.494 28.263C83.1304 29.9533 81.1915 32.1771 79.4726 34.0079C79.4093 34.0754 79.3448 34.1428 79.2792 34.2102L79.016 35.0052C78.8356 35.5502 78.6323 36.0676 78.4021 36.5281C77.5274 38.2775 76.1804 40.1483 74.8715 41.6482C74.2145 42.401 73.5528 43.0768 72.9471 43.6078C72.3684 44.1152 71.7541 44.5688 71.1993 44.7748C70.2803 45.1162 69.123 45.1388 68.38 44.3493C67.5794 43.4986 67.7816 42.2986 68.3612 41.3159C68.6783 40.7782 69.271 40.2263 69.889 39.7129C70.5377 39.174 71.3413 38.5771 72.1905 37.9555C72.3654 37.8275 72.5424 37.6982 72.7209 37.5679C74.3017 36.4139 76.0003 35.1739 77.3686 33.9331L78.0513 33.3268C78.7618 30.6448 78.9563 27.3826 79.0607 25.6273C79.0774 25.3472 79.318 25.1336 79.5981 25.1503ZM78.0513 34.6859C77.8093 34.9053 77.5576 35.1245 77.2985 35.3429C77.1421 35.4749 76.9829 35.6066 76.8217 35.7379C76.651 35.8769 76.4779 36.0154 76.3032 36.1533C75.3231 36.9268 74.2903 37.6806 73.3223 38.3871C71.3897 39.7976 70.2859 40.5032 69.8066 41.3159C68.5363 43.2348 69.7173 44.0393 71.1993 43.4889C72.5702 42.9797 75.3265 39.9414 77.0921 36.8245C77.2352 36.572 77.3694 36.3211 77.4932 36.0736C77.5477 35.9646 77.601 35.8509 77.6531 35.7328C77.7945 35.4127 77.9271 35.061 78.0513 34.6859Z" fill="currentColor"/>
<path d="M87.2343 24.0565C87.2283 23.7119 87.6668 23.5609 87.8742 23.8361C87.967 23.9592 88.1285 24.0086 88.2742 23.9584C88.6001 23.8461 88.8793 24.2165 88.6816 24.4988C88.5932 24.6251 88.5962 24.794 88.6889 24.9171C88.8964 25.1923 88.6304 25.5722 88.3008 25.4715C88.1534 25.4264 87.9937 25.4814 87.9053 25.6077C87.7077 25.8901 87.2641 25.7545 87.2581 25.4099C87.2554 25.2558 87.1537 25.1209 87.0063 25.0759C86.6767 24.9751 86.6686 24.5114 86.9944 24.3992C87.1402 24.349 87.237 24.2107 87.2343 24.0565Z" fill="currentColor"/>
<path fill-rule="evenodd" clip-rule="evenodd" d="M24.735 14.9028C25.1553 14.9028 25.5714 14.9204 25.9827 14.9549V17.6766C25.5725 17.6343 25.1563 17.6127 24.735 17.6127C18.0937 17.6127 12.7098 22.9965 12.7098 29.6378C12.7098 36.2791 18.0937 41.6629 24.735 41.6629C27.1847 41.6629 29.4633 40.9304 31.3638 39.6725C31.6654 39.4728 31.9576 39.2599 32.2394 39.0345L33.4181 40.6524L33.8366 41.2267C33.5518 41.4507 33.2585 41.6644 32.9573 41.8673C32.7049 42.0374 32.4468 42.1998 32.1836 42.3544C29.9981 43.6373 27.4525 44.3729 24.735 44.3729C16.5971 44.3729 10 37.7758 10 29.6379C10 21.4999 16.5971 14.9028 24.735 14.9028ZM32.6407 20.5765C31.1721 19.2942 29.389 18.363 27.4223 17.9141V15.1473C31.322 15.8659 34.6838 18.1199 36.8576 21.2591L36.3249 21.7377L34.8216 23.0881C34.5821 22.7201 34.3231 22.366 34.0459 22.0274L34.197 21.7252L32.8421 20.1162L32.6407 20.5765Z" fill="currentColor"/>
<mask id="mask0_6245_8860" style="mask-type:alpha" maskUnits="userSpaceOnUse" x="10" y="14" width="27" height="31">
<path fill-rule="evenodd" clip-rule="evenodd" d="M33.8366 41.2267C31.3308 43.1974 28.1702 44.3729 24.735 44.3729C16.5971 44.3729 10 37.7758 10 29.6379C10 21.4999 16.5971 14.9028 24.735 14.9028C29.7603 14.9028 34.1981 17.4185 36.8576 21.2591L34.8216 23.0881C32.6769 19.7921 28.9605 17.6127 24.735 17.6127C18.0937 17.6127 12.7098 22.9965 12.7098 29.6378C12.7098 36.2791 18.0937 41.6629 24.735 41.6629C27.5736 41.6629 30.1824 40.6794 32.2394 39.0345L33.8366 41.2267Z" fill="#D9D9D9"/>
</mask>
<g mask="url(#mask0_6245_8860)">
<path fill-rule="evenodd" clip-rule="evenodd" d="M26.5135 41.536L26.5982 44.2459L26.566 44.2476C25.5271 44.3046 23.5736 44.4117 21.8136 44.0765C20.4562 43.818 18.8779 43.145 18.2568 42.8486L19.5271 40.5198C19.9929 40.7738 21.297 41.2904 22.6181 41.4936C23.9391 41.6969 25.7514 41.6207 26.5135 41.536ZM22.4989 42.1043C22.365 41.8748 22.0157 41.9508 21.9891 42.2151C21.9773 42.3334 21.8906 42.4305 21.7745 42.4558C21.5149 42.5122 21.4792 42.8679 21.7224 42.9748C21.8312 43.0226 21.8968 43.1351 21.8849 43.2533C21.8584 43.5176 22.1856 43.6615 22.3625 43.4632C22.4416 43.3746 22.5688 43.3469 22.6775 43.3947C22.9208 43.5016 23.1587 43.2349 23.0248 43.0054C22.9649 42.9028 22.9779 42.7733 23.057 42.6846C23.2338 42.4863 23.0537 42.1776 22.794 42.2341C22.6779 42.2593 22.5588 42.2069 22.4989 42.1043Z" fill="currentColor"/>
<path fill-rule="evenodd" clip-rule="evenodd" d="M15.1514 36.9193L12.9615 38.2989L12.9444 38.2732C12.3954 37.4455 11.3629 35.8891 10.7881 34.2781C10.3449 33.0357 10.136 31.4111 10.0798 30.7565L12.611 30.6766C12.6269 31.1828 12.8321 32.5061 13.3033 33.6919C13.7746 34.8777 14.7133 36.3328 15.1514 36.9193ZM12.4381 33.8083C12.3099 33.5757 11.9588 33.643 11.9258 33.9066C11.911 34.0245 11.822 34.1195 11.7053 34.1419C11.4444 34.1919 11.3999 34.5466 11.6404 34.6595C11.748 34.71 11.8108 34.824 11.7961 34.9419C11.763 35.2055 12.0866 35.3574 12.2683 35.1635C12.3496 35.0768 12.4774 35.0523 12.5849 35.1028C12.8255 35.2157 13.0699 34.9548 12.9417 34.7221C12.8843 34.6181 12.9005 34.4889 12.9818 34.4022C13.1634 34.2084 12.9909 33.8953 12.73 33.9453C12.6133 33.9677 12.4954 33.9124 12.4381 33.8083Z" fill="currentColor"/>
<path fill-rule="evenodd" clip-rule="evenodd" d="M13.5116 24.9897L11.248 23.7347L11.2623 23.7074L11.2623 23.7074C11.7233 22.8276 12.5903 21.1732 13.7254 19.8938C14.6009 18.907 15.9242 17.9416 16.4707 17.5772L17.7596 19.7571C17.3237 20.0149 16.2626 20.8319 15.4503 21.8159C14.6379 22.7999 13.8147 24.3233 13.5116 24.9897ZM14.5276 20.7395C14.3993 20.5068 14.0483 20.5741 14.0152 20.8378C14.0005 20.9557 13.9115 21.0506 13.7948 21.073C13.5338 21.1231 13.4894 21.4778 13.7299 21.5906C13.8375 21.6411 13.9003 21.7551 13.8855 21.873C13.8525 22.1366 14.1761 22.2885 14.3578 22.0947C14.439 22.008 14.5669 21.9834 14.6744 22.0339C14.9149 22.1468 15.1594 21.886 15.0311 21.6533C14.9738 21.5492 14.99 21.4201 15.0712 21.3334C15.2529 21.1395 15.0804 20.8264 14.8194 20.8765C14.7028 20.8989 14.5849 20.8436 14.5276 20.7395Z" fill="currentColor"/>
</g>
<path fill-rule="evenodd" clip-rule="evenodd" d="M23.8882 11.5576C23.9729 11.3036 23.9729 10.4991 23.9729 9.8216C23.9729 8.97476 25.9207 6.0955 27.0215 5.41803C28.1224 4.74056 30.0834 4.90993 30.8323 5.75677C31.469 6.47658 32.0885 8.32552 32.1873 9.18647H35.8287C36.4638 9.18647 38.7488 9.65224 38.7911 10.7108C38.8335 11.7693 37.6056 14.1405 36.8011 14.945C36.1575 15.5886 34.811 16.8222 34.2182 17.3585V18.2477C34.2182 18.2715 34.2284 18.3626 34.2431 18.4934C34.2645 18.6846 34.2954 18.9607 34.3179 19.2361C34.2775 19.0642 34.2174 18.915 34.1349 18.7982C33.7284 18.2223 33.4856 18.4171 33.4151 18.5865C33.3868 18.897 33.2118 19.7297 32.7376 20.5765C32.1448 21.6351 30.5358 21.8891 30.0701 21.8468C29.6653 21.81 29.4524 21.3574 29.07 20.5447C29.0124 20.4223 28.951 20.2917 28.8845 20.1531C28.6667 19.6994 28.3167 19.3313 27.9878 18.9853C27.5494 18.5242 27.1485 18.1025 27.1485 17.5702C27.1485 16.825 27.0355 15.4814 26.9791 14.9027H26.3863C26.4286 15.6366 26.4879 17.1976 26.3863 17.5702C26.3035 17.8739 25.8426 18.3757 25.4262 18.8289L25.4262 18.8289C25.2041 19.0708 24.9946 19.2988 24.862 19.4756C24.4809 19.9837 23.4647 21.3387 24.862 22.1008C26.0298 22.7378 27.8483 22.5171 28.5871 22.4274C28.7323 22.4098 28.8358 22.3972 28.8845 22.3972C28.9553 22.3972 29.0601 22.3827 29.1819 22.3658C29.5697 22.3121 30.1308 22.2343 30.3241 22.5243C30.5782 22.9053 31.8061 23.9215 32.0178 23.8369C32.0484 23.8246 32.0933 23.8053 32.1493 23.7783C32.0345 23.8762 31.9572 24.1211 31.8509 24.4574C31.6406 25.1229 31.3172 26.1465 30.3666 27.0972C28.8846 28.5791 27.2741 30.8233 27.5705 32.1359C27.8669 33.4485 28.251 40.0538 28.1224 41.2394C28.1087 41.3664 24.227 41.8322 23.9291 41.8322C23.8027 41.4729 23.6581 41.0818 23.5055 40.6692C22.7893 38.7322 21.8982 36.3222 21.8982 34.507C21.8982 33.3207 20.7126 34.8881 20.4162 36.5394C20.2504 37.463 20.1095 38.8129 20.0107 39.7586C19.9682 40.1657 19.9336 40.4979 19.9081 40.689C19.8152 40.6507 19.708 40.6082 19.59 40.5614C18.4894 40.1247 16.4481 39.315 16.2652 38.1061C16.182 37.5556 16.0126 33.3214 16.0973 31.289C16.1389 30.2903 16.4797 29.2041 16.7136 28.4584C16.7698 28.2795 16.8197 28.1202 16.858 27.9863C16.784 28.0502 16.6925 28.1413 16.5834 28.2499C16.2346 28.5973 15.706 29.1236 14.9964 29.5107C14.4158 29.8274 12.733 30.4898 12.7295 30.4476C12.6872 29.9395 12.6874 28.0711 12.8567 27.7746C12.8627 27.7643 12.9254 27.7767 13.0279 27.7972C13.3439 27.8601 14.0383 27.9984 14.6138 27.7746C15.2593 27.5236 16.1414 26.3928 16.7788 25.5756C17.0171 25.2702 17.2212 25.0085 17.366 24.853C17.765 24.4245 18.3689 23.8939 18.8916 23.4346C19.092 23.2585 19.2804 23.0929 19.4408 22.9476C19.9081 22.5242 21.6568 19.4786 21.6018 17.9936C21.5171 15.7071 21.6018 13.8441 22.32 13.5477C23.2624 13.1588 22.9567 12.7855 22.7435 12.7855C22.2977 12.7855 22.5368 12.6509 22.9093 12.4412C23.3184 12.2109 23.8882 11.8901 23.8882 11.5576ZM32.1872 11.0496C32.1448 10.852 32.2295 10.5161 32.907 10.7532C33.4253 10.9346 33.785 10.9574 34.0929 10.9769C34.288 10.9893 34.4624 11.0003 34.643 11.0496C34.7291 11.073 34.8266 11.0951 34.9296 11.1183C35.3843 11.2209 35.9446 11.3473 36.0827 11.7271C36.252 12.1928 35.0241 13.082 34.643 13.2937C34.262 13.5054 33.3304 13.8865 32.9917 14.0135C32.653 14.1405 31.8908 13.2514 31.9332 12.4469C31.9562 12.0085 32.0296 11.7713 32.0916 11.5708C32.1433 11.4034 32.1872 11.2616 32.1872 11.0496ZM23.0836 20.3648C23.1965 20.0825 23.4562 19.6027 23.5917 19.9414C23.7611 20.3648 23.8034 21.6774 23.5917 22.863C23.41 23.8807 22.0114 24.3368 21.4315 24.5259C21.3359 24.5571 21.2625 24.581 21.2206 24.599C20.9242 24.7261 20.8395 24.472 21.2206 23.9216C21.2828 23.8317 21.3676 23.7204 21.467 23.5899C21.9766 22.9208 22.871 21.7466 23.0836 20.3648ZM17.6637 26.8432L18.8916 25.6152C19.0045 25.5588 19.2388 25.4797 19.2727 25.6152C19.2811 25.6487 19.2861 25.7004 19.2925 25.765C19.3181 26.0274 19.3648 26.5034 19.7385 26.8432C19.8068 26.9053 19.9225 27.0125 20.0738 27.1526L20.0739 27.1527C20.9531 27.9671 23.0369 29.8973 24.0573 30.6116C25.7512 31.7972 27.5069 31.8449 27.5069 31.8449C27.5069 31.8449 27.5691 32.2737 27.5916 32.6917C27.4628 32.7273 27.2748 32.7902 27.0472 32.8664L27.0472 32.8664C26.5515 33.0323 25.8681 33.2611 25.2006 33.4062C24.0354 33.6594 22.1946 34.0179 21.8557 33.8296C21.7697 33.7818 21.8077 33.6262 21.8571 33.4236C21.8952 33.2671 21.9402 33.0826 21.9402 32.8981C21.9402 32.4747 21.8416 31.0973 21.3475 30.0188C20.8818 29.0026 20.1619 27.817 19.5267 27.4783C19.4424 27.4333 19.3617 27.3883 19.2839 27.3449L19.2838 27.3448L19.2838 27.3448C18.776 27.0614 18.3892 26.8455 17.8754 27.1396C17.7909 27.1879 17.5367 27.0549 17.6637 26.8432Z" fill="currentColor"/>
<path d="M34.1971 18.8035C34.4512 19.5233 34.4935 21.3016 34.0277 22.1061C33.4728 23.0646 32.3905 23.7151 31.9106 23.8845" stroke="#9EA2A8"/>
</svg>
