<svg width="32" height="33" viewBox="0 0 32 33" fill="none" xmlns="http://www.w3.org/2000/svg">
<path d="M20.5465 14.8334V12.6765H23.4902C24.239 12.6765 24.9572 12.974 25.4867 13.5035C26.0163 14.033 26.3137 14.7512 26.3137 15.5V28.6765C26.3137 29.4254 26.0163 30.1435 25.4867 30.6731C24.9572 31.2026 24.239 31.5 23.4902 31.5H8.50981C7.76096 31.5 7.04279 31.2026 6.51327 30.6731C5.98376 30.1435 5.68628 29.4254 5.68628 28.6765V15.5C5.68628 14.7512 5.98376 14.033 6.51327 13.5035C7.04279 12.974 7.76096 12.6765 8.50981 12.6765H11.4902V14.8334H8.78432C8.5347 14.8334 8.29531 14.9325 8.11881 15.109C7.9423 15.2855 7.84314 15.5249 7.84314 15.7746V28.402C7.84314 28.6516 7.9423 28.891 8.11881 29.0675C8.29531 29.244 8.5347 29.3432 8.78432 29.3432H23.2157C23.4653 29.3432 23.7047 29.244 23.8812 29.0675C24.0577 28.891 24.1569 28.6516 24.1569 28.402V15.7746C24.1569 15.5249 24.0577 15.2855 23.8812 15.109C23.7047 14.9325 23.4653 14.8334 23.2157 14.8334H20.5465Z" fill="var(--text_color_L1)"/>
<path d="M17.0611 5.72866V22.8525C17.0611 23.1339 16.9493 23.4038 16.7503 23.6028C16.5513 23.8018 16.2814 23.9136 16 23.9136C15.7186 23.9136 15.4487 23.8018 15.2497 23.6028C15.0507 23.4038 14.9389 23.1339 14.9389 22.8525V5.72866L11.7979 8.86959C11.5977 9.06279 11.3296 9.16962 11.0514 9.16707C10.7732 9.16452 10.5071 9.0528 10.3104 8.85596C10.1138 8.65913 10.0023 8.39293 10 8.11471C9.99775 7.83648 10.1048 7.56849 10.2982 7.36845L15.2501 2.41653C15.4491 2.21782 15.7188 2.1062 16 2.1062C16.2812 2.1062 16.5509 2.21782 16.7499 2.41653L21.7018 7.36845C21.8952 7.56849 22.0023 7.83648 22 8.11471C21.9977 8.39293 21.8862 8.65913 21.6896 8.85596C21.4929 9.0528 21.2268 9.16452 20.9486 9.16707C20.6704 9.16962 20.4023 9.06279 20.2021 8.86959L17.0611 5.72795V5.72866Z" fill="var(--text_color_L1)"/>
</svg>
