<svg width="86" height="31" viewBox="0 0 86 31"  xmlns="http://www.w3.org/2000/svg">
<path d="M52.5009 30.8676C49.438 30.8676 46.2408 30.0781 44.0314 27.8344C41.9104 25.6189 41.2918 22.6367 41.2918 19.5784C41.2918 16.5201 41.9161 13.1825 44.0314 10.8503C46.1466 8.51805 49.2734 7.76538 52.3372 7.76538C55.0237 7.76538 58.7255 8.6134 60.4935 10.8503C61.2156 11.764 62.3219 13.2008 62.6014 15.2873C62.6747 15.8347 62.2196 16.2848 61.6673 16.2848H57.0972C56.8383 16.2848 56.6255 16.0861 56.573 15.8326C56.1684 13.8805 54.326 12.2665 52.1606 12.2665C48.8235 12.2665 47.319 14.4733 47.319 19.3165C47.319 24.1597 48.7578 26.2315 52.5009 26.2315C54.8458 26.2315 56.244 24.9896 56.5853 22.8008C56.6253 22.5442 56.8394 22.345 57.099 22.345H61.5552C62.1493 22.345 62.6242 22.8616 62.5351 23.4491C62.4241 24.1811 62.2313 24.9988 61.7887 26.0061C61.1122 27.5458 59.0187 29.5199 56.8788 30.2443C55.6786 30.6598 54.2193 30.8676 52.5009 30.8676Z" />
<path d="M33.2079 30.5007C32.6604 30.494 32.22 30.0483 32.2201 29.5007L32.2203 9.90405C32.2203 9.35177 32.668 8.90406 33.2203 8.90406H37.0476C37.5999 8.90406 38.0476 9.35178 38.0476 9.90407L38.0474 29.5473C38.0473 30.1044 37.5922 30.554 37.0352 30.5473L33.2079 30.5007Z" />
<path d="M24.0902 30.4209C23.5379 30.4209 23.0902 29.9732 23.0902 29.4209V1C23.0902 0.447715 23.5379 0 24.0902 0H28.0485C28.6008 0 29.0485 0.447715 29.0485 1V29.4209C29.0485 29.9732 28.6008 30.4209 28.0485 30.4209H24.0902Z" />
<path d="M10.0831 31.0043C7.44449 31.0043 3.29021 30.3815 1.22499 27.736C0.803116 27.1459 0.276309 26.1228 0.0186782 25.1004C-0.0825116 24.6988 0.241294 24.3399 0.655435 24.3399C2.00096 24.3399 3.10323 24.3399 4.57008 24.3399C4.73837 24.3399 4.89385 24.426 4.9974 24.5587C5.60407 25.3359 6.57676 25.9178 7.27725 26.2037C8.06839 26.5158 9.48071 26.7409 10.5883 26.7409C11.6432 26.7409 12.5809 26.291 12.9765 25.8859C13.3721 25.4809 13.7052 24.9126 13.7052 24.2883C13.7052 22.3914 11.0563 21.7361 9.52875 21.4252C7.48157 20.9614 5.4499 20.7312 3.61066 19.6835C2.71403 19.1444 1.89747 18.6273 1.34367 17.776C0.816237 16.8963 0.552522 15.7897 0.552522 14.456C0.552522 13.0656 0.895352 11.8596 1.58101 10.838C2.26667 9.78812 3.28197 8.96521 4.62691 8.36931C5.99823 7.77341 7.65963 7.47546 9.61112 7.47546C11.3516 7.47546 12.8163 7.79148 14.1349 8.27387C15.4534 8.75626 16.5524 9.53402 17.4227 10.4421C18.1187 11.1249 18.7055 12.2119 19.0936 13.2482C19.2557 13.6809 18.9214 14.1209 18.4593 14.1209C16.8421 14.1209 15.4353 14.1209 14.2023 14.1209C14.0577 14.1209 13.9208 14.0581 13.8244 13.9504C12.8391 12.8499 11.6146 11.8105 9.61112 11.8105C7.50436 11.8105 6.27964 12.7115 6.27964 14.2986C6.27964 16.1735 9.16287 16.6652 11.1669 17.0533C13.171 17.4413 15.6506 18.2474 17.1255 19.1284C18.6004 20.0094 19.7378 21.7768 19.7378 23.8627C19.7378 26.8399 18.0235 28.9572 15.2903 30.0801C13.8662 30.6477 12.7217 31.0043 10.0831 31.0043Z" />
<path d="M75.4262 30.9415C70.8546 30.9415 66.9206 28.9652 65.261 24.5103C64.745 23.1252 64.487 21.5325 64.487 19.7319C64.487 16.6398 65.0917 13.479 67.1543 11.1309C69.217 8.78292 72.036 7.74658 75.0886 7.74658C76.8266 7.74658 78.7441 8.05618 80.0476 8.6379C81.3783 9.1919 82.4646 10.0229 83.3064 11.1309C85.5652 14.0109 85.8065 17.1558 85.664 20.9256L68.8049 20.7707V17.2804L81.8807 17.1558L79.8347 18.9245C79.8347 17.4849 79.997 16.9932 79.6994 15.2713C79.4018 13.5494 77.9921 11.6968 75.0886 11.6968C72.185 11.6968 70.328 12.8761 70.328 19.1583C70.328 25.4406 72.4541 26.6537 75.0886 26.6537C77.4224 26.6537 78.8236 25.5743 79.3185 24.4174C79.4078 24.2085 79.6023 24.0532 79.8294 24.0532H84.3669C84.9759 24.0532 85.4483 24.5979 85.2493 25.1735C84.0156 28.7407 79.5789 30.9415 75.4262 30.9415Z" />
<path d="M32.2202 0.138437H38.0478V6.16676C34.8293 6.16676 32.2202 3.55763 32.2202 0.33912V0.138437Z" />
</svg>
