<svg width="33" height="20" viewBox="0 0 33 20" fill="none" xmlns="http://www.w3.org/2000/svg">
<g id="Group 4535531">
<path id="Rectangle 6751" d="M2.09863 7.88843H8.50705V15.867H2.09863V7.88843Z" fill="#0E131B"/>
<path id="Rectangle 6752" d="M24.0322 7.88843H30.4406V15.867H24.0322V7.88843Z" fill="#0E131B"/>
<path id="Rectangle 6753" d="M11.0383 5.19067H21.8365V18.5647H11.0383V5.19067Z" fill="#0E131B"/>
<g id="Vector">
<path fill-rule="evenodd" clip-rule="evenodd" d="M30.2971 2.3297C30.2971 2.39842 30.293 2.46619 30.2849 2.53276C30.8442 3.09837 31.2973 3.92951 31.8118 5.33125C32.3285 6.73895 32.4046 8.32129 32.3407 9.60177C32.4355 9.94726 32.5144 10.3356 32.5694 10.7714V13.0225C32.5694 15.086 31.4333 16.3992 31.4333 16.3992C31.4333 16.3992 30.8735 16.9537 30.3097 17.1454C29.577 19.1804 28.4988 19.7759 28.0216 19.7759H22.1548C22.1548 19.7759 23.4803 18.8379 23.4803 11.897C23.4803 4.956 21.9654 4.01804 21.9654 4.01804H28.0216C28.5266 4.01803 29.7048 4.68503 30.4342 7.01953H30.6758C30.6758 7.01953 30.8316 7.0967 31.0557 7.30051C30.7808 6.13725 29.4016 4.32485 28.7821 4.01802C28.7791 4.01503 28.7761 4.01192 28.7732 4.0087C28.714 4.01487 28.6538 4.01804 28.5929 4.01804C27.6517 4.01804 26.8887 3.26214 26.8887 2.3297C26.8887 1.39725 27.6517 0.641357 28.5929 0.641357C29.5341 0.641357 30.2971 1.39725 30.2971 2.3297ZM25.553 9.31084C25.2916 9.13373 24.7591 9.00606 24.6599 9.10764C24.636 9.13206 24.6541 9.15518 24.6903 9.20143C24.734 9.25737 24.8042 9.34715 24.8586 9.51398C24.9004 9.61731 24.8737 9.77429 24.854 9.88977C24.8456 9.93902 24.8385 9.98075 24.8385 10.0075C24.8386 10.0454 24.8159 10.1024 24.7859 10.1774C24.6942 10.4072 24.535 10.8063 24.7591 11.3425C24.9581 11.7488 25.5781 11.6161 25.7515 11.5457C25.9249 11.4752 26.1001 11.2083 26.0492 11.1393C26.0275 11.1099 25.9947 11.078 25.9494 11.034C25.9214 11.0068 25.8886 10.975 25.8507 10.9362C25.7515 10.8346 25.7515 10.5298 26.0141 10.479C26.1505 10.4526 26.3379 10.5266 26.5589 10.6138C26.8159 10.7152 27.1184 10.8346 27.4386 10.8346C27.8356 10.8346 28.431 10.5298 28.431 10.5298C28.431 10.5298 28.5221 10.5145 28.3318 10.6314C27.34 11.2409 25.8513 12.7646 25.95 14.6387C25.9502 14.6427 25.9504 14.6476 25.9506 14.6531C25.9507 14.6567 25.9508 14.6606 25.9509 14.6647C25.9533 14.7407 25.9582 14.8979 26.0141 14.898C26.6533 14.8986 28.1816 14.8982 28.5303 14.898C28.5899 14.8979 28.5884 14.846 28.5853 14.7359C28.5845 14.7074 28.5836 14.675 28.5836 14.6387C28.498 13.7689 28.5508 13.4473 28.6254 12.9928L28.6295 12.9678C28.7009 12.5326 28.9088 12.1314 29.0774 11.8058C29.1147 11.7339 29.15 11.6657 29.1816 11.6016C29.2277 11.5078 29.2916 11.3921 29.36 11.2682C29.4984 11.0177 29.6552 10.7337 29.7212 10.5298C29.7508 10.4385 29.7894 10.3562 29.8264 10.2776C29.9127 10.0941 29.9896 9.93048 29.9197 9.71715C29.9061 9.67569 29.8921 9.63069 29.8776 9.58411C29.7857 9.28864 29.6739 8.9295 29.5233 9.00599C29.3489 9.09455 29.0463 9.20926 28.6295 9.20923C28.4479 9.20921 28.1247 9.14373 27.7736 9.07259C27.2821 8.97303 26.7359 8.86237 26.4462 8.90447C26.0672 8.95954 25.853 9.12907 25.7211 9.23341C25.6406 9.29706 25.5908 9.33646 25.553 9.31084Z" fill="url(#paint0_linear_1033_3253)"/>
<path fill-rule="evenodd" clip-rule="evenodd" d="M2.18178 17.1166C1.64543 16.9037 1.13614 16.3992 1.13614 16.3992C1.13614 16.3992 0 15.086 0 13.0225V10.7714C0.378714 7.7699 1.89357 7.01953 1.89357 7.01953H2.1784C2.54814 5.88765 3.10434 4.91135 3.92232 4.34519C4.30335 4.08145 4.76799 4.01804 5.23281 4.01804H10.7933C10.7933 4.01804 9.08913 4.4753 9.08913 11.897C9.08913 19.3186 10.604 19.7759 10.604 19.7759H5.23268C4.76786 19.7759 4.30626 19.7105 3.91363 19.464C3.10297 18.9551 2.55027 18.1415 2.18178 17.1166ZM2.69458 9.10764C2.79382 9.00606 3.32626 9.13373 3.58772 9.31084C3.62554 9.33646 3.67533 9.29706 3.75578 9.23341C3.88766 9.12907 4.10193 8.95954 4.4809 8.90447C4.77065 8.86237 5.31686 8.97303 5.80827 9.07259C6.15943 9.14373 6.48261 9.20921 6.66424 9.20923C7.08098 9.20926 7.38365 9.09455 7.55801 9.00599C7.70862 8.9295 7.82038 9.28865 7.91232 9.58412C7.92681 9.6307 7.94081 9.67569 7.95439 9.71715C8.02429 9.93048 7.94737 10.0941 7.8611 10.2776C7.82415 10.3562 7.78549 10.4385 7.75591 10.5298C7.6899 10.7337 7.53309 11.0177 7.39476 11.2682C7.32633 11.3921 7.26243 11.5078 7.21628 11.6016C7.18473 11.6657 7.14938 11.7339 7.11212 11.8059C6.94346 12.1314 6.73563 12.5326 6.66424 12.9678L6.66014 12.9928C6.58552 13.4473 6.5327 13.7689 6.61831 14.6387C6.61831 14.675 6.61922 14.7074 6.62003 14.7359C6.62314 14.846 6.62461 14.8979 6.565 14.898C6.21635 14.8982 4.68801 14.8986 4.04882 14.898C3.99294 14.8979 3.98802 14.7407 3.98565 14.6647C3.98532 14.6543 3.98504 14.6454 3.98469 14.6387C3.88603 12.7646 5.37467 11.2409 6.36651 10.6314C6.55677 10.5145 6.46575 10.5298 6.46575 10.5298C6.46575 10.5298 5.8703 10.8346 5.47333 10.8346C5.15309 10.8346 4.85065 10.7152 4.59358 10.6138C4.37265 10.5266 4.18523 10.4526 4.04882 10.479C3.7862 10.5298 3.7862 10.8346 3.88544 10.9362C3.92335 10.975 3.95614 11.0068 3.98414 11.034C4.02944 11.078 4.06223 11.1099 4.08393 11.1393C4.13478 11.2083 3.95963 11.4752 3.7862 11.5457C3.61278 11.6161 2.99282 11.7488 2.79378 11.3425C2.56968 10.8063 2.72892 10.4072 2.82066 10.1774C2.85057 10.1024 2.87331 10.0454 2.87324 10.0075C2.87319 9.98075 2.8803 9.93903 2.88869 9.88977C2.90837 9.77429 2.93513 9.61731 2.8933 9.51398C2.83887 9.34715 2.76869 9.25737 2.72496 9.20143C2.6888 9.15518 2.67073 9.13206 2.69458 9.10764Z" fill="url(#paint1_linear_1033_3253)"/>
<path fill-rule="evenodd" clip-rule="evenodd" d="M9.6572 11.897C9.6572 4.76841 11.1721 4.01804 11.1721 4.01804H21.5157C21.5157 4.01804 23.0305 4.76841 23.0305 11.897C23.0305 19.0255 21.5867 19.7759 21.5867 19.7759H10.9827C10.9827 19.7759 9.6572 19.0255 9.6572 11.897ZM11.3888 6.6613C11.5782 6.4737 12.5941 6.70948 13.093 7.03653C13.1651 7.08384 13.2601 7.01109 13.4136 6.89356C13.6653 6.70087 14.0741 6.38781 14.7972 6.28611C15.35 6.20836 16.3922 6.41271 17.3298 6.59657C17.9998 6.72795 18.6165 6.84886 18.963 6.84889C19.7582 6.84896 20.3357 6.63712 20.6684 6.47359C20.9557 6.33233 21.169 6.99555 21.3444 7.54119C21.372 7.62693 21.3988 7.71053 21.4247 7.78686C21.558 8.18081 21.4113 8.48296 21.2467 8.82187C21.1762 8.96701 21.1024 9.11889 21.046 9.2876C20.92 9.66403 20.6209 10.1884 20.3569 10.651C20.2264 10.8798 20.1044 11.0936 20.0163 11.2668C19.9562 11.385 19.8889 11.5108 19.8179 11.6434C19.4961 12.2446 19.0992 12.9861 18.963 13.7898L18.9552 13.8359C18.8128 14.6752 18.7121 15.2691 18.8754 16.8753C18.8754 16.9425 18.8771 17.0022 18.8787 17.0548C18.8846 17.2583 18.8874 17.354 18.7737 17.3541C18.1084 17.3545 15.1923 17.3552 13.9728 17.3541C13.8661 17.354 13.8568 17.0638 13.8522 16.9234C13.8516 16.9042 13.8511 16.8878 13.8504 16.8753C13.6622 13.4145 16.5025 10.6006 18.395 9.4752C18.758 9.2593 18.5843 9.2876 18.5843 9.2876C18.5843 9.2876 17.4482 9.85038 16.6907 9.85038C16.0797 9.85038 15.5027 9.62999 15.0122 9.44266C14.5906 9.28166 14.233 9.14508 13.9728 9.19381C13.4717 9.2876 13.4717 9.85038 13.661 10.038C13.7333 10.1096 13.7958 10.1684 13.8492 10.2186C13.9357 10.2999 13.9983 10.3588 14.0397 10.4132C14.1368 10.5405 13.8026 11.0334 13.4717 11.1635C13.1408 11.2937 11.9579 11.5387 11.5781 10.7883C11.1505 9.79812 11.4544 9.06125 11.6294 8.63671C11.6865 8.49827 11.7299 8.39304 11.7297 8.32307C11.7296 8.27364 11.7432 8.19662 11.7592 8.10565C11.7968 7.8924 11.8478 7.60249 11.768 7.41167C11.6641 7.10359 11.5302 6.9378 11.4468 6.8345C11.3778 6.74909 11.3433 6.70638 11.3888 6.6613Z" fill="url(#paint2_linear_1033_3253)"/>
</g>
</g>
<defs>
<linearGradient id="paint0_linear_1033_3253" x1="16.2847" y1="0.641357" x2="16.2847" y2="19.7759" gradientUnits="userSpaceOnUse">
<stop stop-color="#FB941B"/>
<stop offset="1" stop-color="#FF9C28"/>
</linearGradient>
<linearGradient id="paint1_linear_1033_3253" x1="16.2847" y1="0.641357" x2="16.2847" y2="19.7759" gradientUnits="userSpaceOnUse">
<stop stop-color="#FB941B"/>
<stop offset="1" stop-color="#FF9C28"/>
</linearGradient>
<linearGradient id="paint2_linear_1033_3253" x1="16.2847" y1="0.641357" x2="16.2847" y2="19.7759" gradientUnits="userSpaceOnUse">
<stop stop-color="#FB941B"/>
<stop offset="1" stop-color="#FF9C28"/>
</linearGradient>
</defs>
</svg>
