<svg xmlns="http://www.w3.org/2000/svg" width="48" height="48" viewBox="0 0 48 48" fill="none">
  <path fill-rule="evenodd" clip-rule="evenodd" d="M30.5807 40.7596C28.5427 41.5603 26.3232 42 24.001 42C21.7102 42 19.5194 41.5721 17.5041 40.7919C17.6912 40.6619 17.8138 40.4454 17.8138 40.2002V33.5958L19.7803 30.9393H28.3478L30.314 33.5952V40.2002C30.314 40.4261 30.418 40.6276 30.5807 40.7596ZM31.7524 40.2503C34.6556 38.8631 37.129 36.7209 38.9183 34.0778H31.7541V40.2002C31.7541 40.217 31.7535 40.2338 31.7524 40.2503ZM39.662 32.8809C41.1105 30.3323 41.9548 27.3955 42 24.2653C41.7916 24.3841 41.5286 24.3962 41.3018 24.2743L34.8635 20.8137L31.6365 22.1214L29.4966 30.0706L31.3971 32.6378H39.1226C39.3373 32.6378 39.5301 32.7318 39.662 32.8809ZM41.9747 23.0011C41.7722 19.2999 40.4515 15.8964 38.3447 13.1227L35.8071 19.686L41.9747 23.0011ZM37.5377 12.1347C37.3057 12.1823 37.1021 12.3433 37.0104 12.5805L34.347 19.4691L31.1511 20.7642L24.7839 15.747V12.5486L31.2539 8.03046C31.3926 7.93355 31.4868 7.79656 31.5316 7.64604C33.8387 8.71005 35.8823 10.2478 37.5377 12.1347ZM30.1192 7.06639L24.0712 11.2899L18.1179 6.98324C19.9615 6.34607 21.9408 6 24.001 6C26.149 6 28.2092 6.37623 30.1192 7.06639ZM16.8033 7.49658C14.47 8.51551 12.3945 10.0147 10.7018 11.8692C10.83 11.9491 10.9343 12.0698 10.9927 12.2216L13.7812 19.4692L16.9767 20.7641L23.3438 15.747V12.541L17.0991 8.0235C16.921 7.89472 16.8193 7.69968 16.8033 7.49658ZM9.74992 13.0018C7.69314 15.6627 6.3651 18.9154 6.06487 22.461L12.3052 19.6433L9.74992 13.0018ZM6 24.0003C6.00005 27.1541 6.81124 30.1184 8.23633 32.6961C8.32354 32.6586 8.41966 32.6378 8.52062 32.6378H16.7308L18.6317 30.0702L16.4919 22.1216L13.2369 20.8026L6.29682 23.9363C6.20036 23.9799 6.09937 24.0004 6 24.0003ZM9.08365 34.0778C10.9002 36.7612 13.4218 38.9283 16.3825 40.3132C16.3767 40.2764 16.3737 40.2386 16.3737 40.2002V34.0778H9.08365ZM28.159 29.4993L30.2154 21.8603L24.0638 17.013L17.9128 21.8598L19.9693 29.4993H28.159Z" fill="currentColor"/>
</svg>