<svg width="100" height="50" viewBox="0 0 100 50" fill="none" xmlns="http://www.w3.org/2000/svg">
<path fill-rule="evenodd" clip-rule="evenodd" d="M29.0777 11.3055C36.8551 10.5866 39.289 10.7395 39.415 16.2593C39.541 21.7791 39.2413 25.6941 32.5309 25.9013V29.9225V34.2044H29.0776C29.0777 26.6692 29.0777 19.071 29.0777 11.3055ZM32.6153 22.2102C35.4513 22.3654 35.8156 22.0272 35.8575 19.3824C35.8677 18.742 35.8669 18.101 35.8582 17.4605C35.8195 14.6403 35.4441 14.3347 32.6153 14.8919V22.2102ZM61.3405 11.0975C61.6053 11.0975 61.9395 11.0832 62.3244 11.0667C64.7917 10.9611 69.3413 10.7665 71.0119 13.6818C72.5615 16.386 71.9707 19.5961 69.817 22.2078C72.8746 24.775 72.5169 28.2863 71.5553 31.5055C71.1702 32.7945 69.1831 34.0206 67.7218 34.3851C65.7535 34.8761 61.3404 34.5069 61.3404 34.5069C61.3405 26.8356 61.3405 19.2014 61.3405 11.0975ZM64.8514 23.7742V31.5093C64.8868 31.5093 64.9271 31.5095 64.9717 31.5098C65.7213 31.5144 67.6819 31.5265 68.0151 30.4901C68.3682 29.392 68.752 26.7925 68.0015 25.1674C67.2511 23.5424 66.3541 23.3047 64.8514 23.7742ZM64.8048 21.137C65.2642 21.137 67.2014 20.9214 67.7587 19.6062C68.316 18.291 68.752 16.9831 67.7073 15.4577C66.6627 13.9324 64.8048 14.5048 64.8048 14.5048V21.137ZM84.4481 35.9482V39H16V35.9482H84.4481ZM45.3352 11.0984C43.9021 11.0984 42.9631 11.0667 41.7225 11.0984V34.1661H45.2984V25.2222C47.8101 24.7687 48.7427 25.7993 48.6796 28.0601C48.6402 29.4718 48.6497 30.8849 48.6592 32.3077L48.6592 32.3085C48.6634 32.9386 48.6676 33.5705 48.6676 34.2051H52.6219C52.3648 32.9226 52.4005 31.6022 52.4359 30.296C52.5065 27.6838 52.5757 25.1287 50.2975 23.0486C52.4583 20.7805 53.1759 16.7441 51.731 13.9452C50.2009 10.9815 47.8084 11.0984 45.3352 11.0984ZM48.6717 16.8885C48.6939 20.8126 48.5951 21.5931 45.2304 21.6571C45.2304 19.3881 45.2304 16.7306 45.2304 14.5048C47.0252 14.5048 48.6592 14.6866 48.6717 16.8885ZM23.8476 17.4073H26.8794C26.6814 13.7142 25.3735 11.5708 22.8953 11.2123C20.631 10.8848 18.5387 11.186 17.1024 13.1453C15.6698 15.0996 15.7605 18.7214 17.3857 20.8592C18.0493 21.7321 18.8059 22.5349 19.5624 23.3376C20.343 24.1658 21.1235 24.9939 21.8016 25.8989C22.5156 26.8519 23.0091 28.1447 23.0961 29.3214C23.142 29.9437 22.7576 31.3712 21.5552 31.3121C20.5777 31.1532 20.1418 30.9353 19.7058 29.8453C19.537 29.3388 19.5854 28.44 19.6159 27.8756C19.6248 27.7113 19.6321 27.5753 19.6321 27.4856H16.1138C16.0995 27.7324 16.079 27.9658 16.0594 28.1898C16.0191 28.6485 15.9823 29.0679 16.0092 29.4832C16.2182 32.6968 18.6357 34.753 22.0229 34.6363C24.9777 34.5346 26.8794 31.3121 26.8329 28.9659C26.7865 26.6196 25.5915 24.8316 24.2512 22.999C23.6338 22.1549 23.0247 21.534 22.4598 20.9583C21.7983 20.2841 21.1974 19.6716 20.7152 18.835C20.1361 17.8301 19.4878 16.5481 19.9238 15.4581C20.3598 14.3682 21.5611 14.0802 22.5473 14.5125C23.5023 14.9312 23.8476 15.7583 23.8476 16.7178C23.8476 16.9871 23.8066 17.2957 23.8476 17.4073ZM74.4219 11.534H84.3986V14.7742H78.193V21.0397H83.0441V24.0929H82.7052H78.3285V31.0495H84.4491V34.2047H74.4217C74.4219 26.7314 74.4219 19.2518 74.4219 11.534ZM54.8039 34.2047H58.2917V11.0984H54.8039V34.2047Z" fill="currentColor"/>
</svg>
