<svg xmlns="http://www.w3.org/2000/svg" width="100" height="50" viewBox="0 0 100 50" fill="none">
  <path fill-rule="evenodd" clip-rule="evenodd" d="M23.0777 11.3055C30.8551 10.5866 33.289 10.7395 33.415 16.2593C33.541 21.7791 33.2413 25.6941 26.5309 25.9013V29.9225V34.2044H23.0776C23.0777 26.6692 23.0777 19.071 23.0777 11.3055ZM26.6153 22.2102C29.4513 22.3654 29.8156 22.0272 29.8575 19.3824C29.8677 18.742 29.8669 18.101 29.8582 17.4605C29.8195 14.6403 29.4441 14.3347 26.6153 14.8919V22.2102ZM55.3405 11.0975C55.6053 11.0975 55.9395 11.0832 56.3244 11.0667C58.7917 10.9611 63.3413 10.7665 65.0119 13.6818C66.5615 16.386 65.9707 19.5961 63.817 22.2078C66.8746 24.775 66.5169 28.2863 65.5553 31.5055C65.1702 32.7945 63.1831 34.0206 61.7218 34.3851C59.7535 34.8761 55.3404 34.5069 55.3404 34.5069C55.3405 26.8356 55.3405 19.2014 55.3405 11.0975ZM58.8514 23.7742V31.5093C58.8868 31.5093 58.9271 31.5095 58.9717 31.5098C59.7213 31.5144 61.6819 31.5265 62.0151 30.4901C62.3682 29.392 62.752 26.7925 62.0015 25.1674C61.2511 23.5424 60.3541 23.3047 58.8514 23.7742ZM58.8048 21.137C59.2642 21.137 61.2014 20.9214 61.7587 19.6062C62.316 18.291 62.752 16.9831 61.7073 15.4577C60.6627 13.9324 58.8048 14.5048 58.8048 14.5048V21.137ZM89.5 35.9482V39H10V35.9482H89.5ZM39.3352 11.0984C37.9021 11.0984 36.9631 11.0667 35.7225 11.0984V34.1661H39.2984V25.2222C41.8101 24.7687 42.7427 25.7993 42.6796 28.0601C42.6402 29.4718 42.6497 30.8849 42.6592 32.3077C42.6634 32.9377 42.6676 33.5705 42.6676 34.2051H46.6219C46.3648 32.9226 46.4005 31.6022 46.4359 30.296C46.5065 27.6838 46.5757 25.1287 44.2975 23.0486C46.4583 20.7805 47.1759 16.7441 45.731 13.9452C44.2009 10.9815 41.8084 11.0984 39.3352 11.0984ZM42.6717 16.8885C42.6939 20.8126 42.5951 21.5931 39.2304 21.6571C39.2304 19.3881 39.2304 16.7306 39.2304 14.5048C41.0252 14.5048 42.6592 14.6866 42.6717 16.8885ZM17.8476 17.4073H20.8794C20.6814 13.7142 19.3735 11.5708 16.8953 11.2123C14.631 10.8848 12.5387 11.186 11.1024 13.1453C9.66978 15.0996 9.76047 18.7214 11.3857 20.8592C12.0493 21.7321 12.8059 22.5349 13.5624 23.3376C14.343 24.1658 15.1235 24.9939 15.8016 25.8989C16.5156 26.8519 17.0091 28.1447 17.0961 29.3214C17.142 29.9437 16.7576 31.3712 15.5552 31.3121C14.5777 31.1532 14.1418 30.9353 13.7058 29.8453C13.537 29.3388 13.5854 28.44 13.6159 27.8756C13.6248 27.7113 13.6321 27.5753 13.6321 27.4856H10.1138C10.0995 27.7324 10.079 27.9658 10.0594 28.1898C10.0191 28.6485 9.98227 29.0679 10.0092 29.4832C10.2182 32.6968 12.6357 34.753 16.0229 34.6363C18.9777 34.5346 20.8794 31.3121 20.8329 28.9659C20.7865 26.6196 19.5915 24.8316 18.2512 22.999C17.6338 22.1549 17.0247 21.534 16.4598 20.9583C15.7983 20.2841 15.1974 19.6716 14.7152 18.835C14.1361 17.8301 13.4878 16.5481 13.9238 15.4581C14.3598 14.3682 15.5611 14.0802 16.5473 14.5125C17.5023 14.9312 17.8476 15.7583 17.8476 16.7178C17.8476 16.9871 17.8066 17.2957 17.8476 17.4073ZM68.4219 11.534H78.3986V14.7742H72.193V21.0397H77.0441V24.0929H76.7052H72.3285V31.0495H78.4491V34.2047H68.4217C68.4219 26.7314 68.4219 19.2518 68.4219 11.534ZM48.8038 34.2047H52.2916V11.0984H48.8038V34.2047Z" fill="currentColor"/>
  <path d="M79 31.538C79 29.9182 79.2683 28.5361 79.8049 27.3915C80.3415 26.2253 81.3028 24.9403 82.689 23.5365C84.0528 22.1328 84.9919 20.9342 85.5061 19.9408C86.0427 18.9473 86.311 18.4108 86.311 17.331C86.311 16.3592 86.1433 15.6897 85.8079 15.3225C85.4949 14.9338 85.0254 14.7394 84.3994 14.7394C83.125 14.7394 82.4878 15.4845 82.4878 16.9746V19.4042H79V17.2014C79 15.3657 79.4695 13.962 80.4085 12.9901C81.3476 11.9967 82.7114 11.5 84.5 11.5C86.2886 11.5 87.6524 11.9967 88.5915 12.9901C89.5305 13.962 90 15.3657 90 17.2014C90 18.5836 89.6535 19.4333 88.9604 20.7506C88.2896 22.068 87.1159 23.5797 85.439 25.2858C84.3435 26.4088 83.6057 27.3267 83.2256 28.0394C82.8455 28.7304 82.6555 29.4755 82.6555 30.2746V30.7605H89.6646V33.9999H79V31.538Z" fill="currentColor"/>
</svg>