<svg xmlns="http://www.w3.org/2000/svg" width="168" height="32" viewBox="0 0 168 32" fill="none">
<path d="M16 0L19.5922 11.0557H31.2169L21.8123 17.8885L25.4046 28.9443L16 22.1115L6.59544 28.9443L10.1877 17.8885L0.783095 11.0557H12.4078L16 0Z" fill="#237C57"/>
<path d="M50 0L53.5922 11.0557H65.2169L55.8123 17.8885L59.4046 28.9443L50 22.1115L40.5954 28.9443L44.1877 17.8885L34.7831 11.0557H46.4078L50 0Z" fill="#237C57"/>
<path d="M84 0L87.5922 11.0557H99.2169L89.8123 17.8885L93.4046 28.9443L84 22.1115L74.5954 28.9443L78.1877 17.8885L68.7831 11.0557H80.4078L84 0Z" fill="#237C57"/>
<path d="M118 0L121.592 11.0557H133.217L123.812 17.8885L127.405 28.9443L118 22.1115L108.595 28.9443L112.188 17.8885L102.783 11.0557H114.408L118 0Z" fill="#237C57"/>
<path d="M152 0L155.592 11.0557H167.217L157.812 17.8885L161.405 28.9443L152 22.1115L142.595 28.9443L146.188 17.8885L136.783 11.0557H148.408L152 0Z" fill="#E0E0E0"/>
<path fill-rule="evenodd" clip-rule="evenodd" d="M155 9.23291L152 0L148.408 11.0557H136.783L146.188 17.8884L142.595 28.9443L152 22.1116L155 24.2913V9.23291Z" fill="#237C57"/>
</svg>