<svg xmlns="http://www.w3.org/2000/svg" width="138" height="24" viewBox="0 0 138 24" fill="none">
<path fill-rule="evenodd" clip-rule="evenodd" d="M12.6175 0L15.5961 9.16716H25.235L17.437 14.8328L20.4156 23.9999L12.6175 18.3343L4.81946 23.9999L7.79806 14.8328L0 9.16716H9.63893L12.6175 0ZM40.8096 0L43.7882 9.16716H53.4271L45.629 14.8328L48.6076 23.9999L40.8096 18.3343L33.0115 23.9999L35.9901 14.8328L28.192 9.16716H37.831L40.8096 0ZM71.9802 9.16716L69.0016 0L66.023 9.16716H56.3841L64.1821 14.8328L61.2035 23.9999L69.0016 18.3343L76.7997 23.9999L73.8211 14.8328L81.6191 9.16716H71.9802ZM97.1937 0L100.172 9.16716H109.811L102.013 14.8328L104.992 23.9999L97.1937 18.3343L89.3956 23.9999L92.3742 14.8328L84.5761 9.16716H94.2151L97.1937 0ZM128.364 9.16716L125.386 0L122.407 9.16716H112.768L120.566 14.8328L117.588 23.9999L125.386 18.3343L133.184 23.9999L130.205 14.8328L138.003 9.16716H128.364Z" fill="#237C57"/>
</svg>