<svg width="60" height="60" viewBox="0 0 60 60" fill="none" xmlns="http://www.w3.org/2000/svg">
<path fill-rule="evenodd" clip-rule="evenodd" d="M60 30C60 46.5684 46.5689 60 30.0003 60C13.4311 60 0 46.5684 0 30C0 13.4316 13.4311 0 30.0003 0C46.5689 0 60 13.4316 60 30ZM12.8438 34.4695L18.0305 28.9754C19.7594 30.3905 23.2172 33.4705 26.675 37.7161C26.7354 37.7902 26.9185 37.3878 27.2718 36.6113C28.8189 33.2115 33.6292 22.6402 45.6929 13.4919C45.8032 13.4083 45.778 14.2746 45.7395 15.601C45.7045 16.8053 45.6586 18.3888 45.6929 19.9848C45.7564 22.9318 46.1869 25.9784 46.1869 25.9784C46.1869 25.9784 39.2713 27.7266 27.4159 46.9562C27.3878 47.0018 27.0549 46.6275 26.474 45.9741C24.3405 43.575 18.8616 37.4137 12.8438 34.4695Z" fill="var(--main-color)"/>
</svg>
