<svg width="120" height="32" viewBox="0 0 120 32"  xmlns="http://www.w3.org/2000/svg">
<path fill-rule="evenodd" clip-rule="evenodd" d="M35.7749 4.67367C32.7837 4.73138 30.377 7.13393 30.377 10.0893C30.377 13.0446 32.7837 15.4472 35.7749 15.5049V15.506H35.885H36.8765L43.105 9.38088C43.3631 9.12705 43.7816 9.12705 44.0397 9.38088L49.0251 14.2835C49.2832 14.5373 49.2832 14.9489 49.0251 15.2028L48.7168 15.506H53.4009V4.67261H35.8878H35.885H35.8823H35.7749V4.67367ZM35.7748 16.5893L35.4711 16.888C35.213 17.1419 35.213 17.5534 35.4711 17.8072L40.4565 22.7099C40.7147 22.9637 41.1332 22.9637 41.3913 22.7099L47.6151 16.5893H48.5515H48.5537C51.5958 16.5893 54.0618 19.0145 54.0618 22.006C54.0618 24.9975 51.5958 27.4227 48.5537 27.4227H30.9278V16.5893H35.7748Z" />
<path d="M114.675 24.4823L116.915 18.2567H119.698L115.741 28.288C115.26 29.5154 114.682 30.4216 114.007 31.006C113.344 31.5906 112.531 31.8824 111.567 31.8824C110.821 31.8824 110.188 31.7247 109.67 31.4089L110.104 29.3396C110.549 29.5501 110.971 29.6555 111.369 29.6555C112.151 29.6555 112.79 29.1527 113.284 28.1473L113.483 27.7092L109.183 18.2567H112.128L114.675 24.4823Z" />
<path fill-rule="evenodd" clip-rule="evenodd" d="M81.7996 17.9945C83.3293 17.9945 84.594 18.4854 85.5937 19.4673C86.5814 20.4259 87.0753 21.6126 87.0754 23.0271C87.0754 24.4533 86.5815 25.6464 85.5937 26.6052C84.594 27.5753 83.3293 28.0604 81.7996 28.0604C80.27 28.0604 79.0052 27.5753 78.0054 26.6052C77.0176 25.6464 76.5237 24.4533 76.5237 23.0271C76.5238 21.6126 77.0177 20.4259 78.0054 19.4673C79.0052 18.4854 80.27 17.9945 81.7996 17.9945ZM81.7996 20.309C81.0168 20.309 80.3663 20.5724 79.8485 21.0984C79.3305 21.6127 79.0714 22.2556 79.0713 23.0271C79.0713 23.7871 79.3304 24.4363 79.8485 24.9741C80.3663 25.5 81.0168 25.7635 81.7996 25.7635C82.5583 25.7635 83.2032 25.5001 83.733 24.9741C84.263 24.4247 84.5278 23.7752 84.5278 23.0271C84.5277 22.2791 84.2629 21.6361 83.733 21.0984C83.2032 20.5723 82.5583 20.309 81.7996 20.309Z" />
<path fill-rule="evenodd" clip-rule="evenodd" d="M104.382 18.0122C105.816 18.0122 106.997 18.4447 107.924 19.3097C108.851 20.1749 109.315 21.3441 109.315 22.8172C109.315 23.1094 109.285 23.4717 109.225 23.9041H101.835C102.197 25.2603 103.154 25.9387 104.708 25.9388C105.852 25.9388 106.913 25.6172 107.888 24.9741L108.899 26.7098C107.647 27.5868 106.214 28.0257 104.6 28.0257C102.877 28.0257 101.552 27.5403 100.624 26.5699C99.7089 25.6114 99.2514 24.4307 99.2513 23.0278C99.2513 21.5665 99.7271 20.368 100.679 19.4327C101.63 18.4857 102.865 18.0122 104.382 18.0122ZM104.382 20.0638C103.745 20.0638 103.196 20.2448 102.738 20.6073C102.292 20.958 101.991 21.4434 101.835 22.0631H106.84C106.719 21.4434 106.442 20.958 106.009 20.6073C105.575 20.2449 105.033 20.0638 104.382 20.0638Z" />
<path d="M94.091 17.9945C95.1631 17.9945 96.0725 18.3395 96.8193 19.0291C97.5662 19.7189 97.9402 20.7011 97.9402 21.9755V27.8151H95.3919V22.6419C95.3919 21.8937 95.2054 21.3147 94.8322 20.9055C94.4587 20.4847 93.9529 20.2744 93.3145 20.2744C92.6399 20.2744 92.092 20.5025 91.6705 20.9585C91.2609 21.4027 91.0557 21.9811 91.0557 22.6942V27.8151H88.5081V18.2574H91.0013V19.5903C91.2664 19.111 91.6761 18.725 92.2303 18.4327C92.7841 18.1405 93.4047 17.9945 94.091 17.9945Z" />
<path d="M71.2126 17.9938C72.3931 17.9939 73.3502 18.3507 74.0849 19.0638C74.8437 19.777 75.2235 20.7705 75.2235 22.0448V27.8145H72.6759V22.5006C72.6759 21.7876 72.495 21.2383 72.1338 20.8525C71.7843 20.4667 71.3087 20.2737 70.7065 20.2737C70.0559 20.2737 69.532 20.484 69.1345 20.9048C68.737 21.314 68.538 21.8692 68.538 22.5706V27.8145H65.9904V22.5183C65.9904 21.8168 65.8098 21.267 65.4483 20.8695C65.0992 20.4722 64.6176 20.2738 64.0034 20.2737C63.3771 20.2737 62.8591 20.484 62.4497 20.9048C62.0522 21.3257 61.8532 21.8868 61.8532 22.5882V27.8145H59.3057V18.2567H61.7989V19.6249C62.0759 19.1222 62.4857 18.7242 63.0278 18.432C63.5696 18.1281 64.16 17.9821 64.7982 17.9938C65.4245 17.9938 65.9969 18.1397 66.5149 18.432C67.0447 18.7242 67.4358 19.1396 67.6888 19.6772C68.05 19.1511 68.5442 18.7419 69.1705 18.4497C69.797 18.1457 70.4778 17.9938 71.2126 17.9938Z" />
<path fill-rule="evenodd" clip-rule="evenodd" d="M85.4212 4.25536C86.8246 4.25537 87.9963 4.7563 88.9361 5.75808C89.8637 6.74792 90.3281 7.97338 90.3281 9.43403C90.3281 10.8826 89.8583 12.1081 88.9184 13.11C87.9785 14.112 86.8066 14.6127 85.4028 14.6127C84.17 14.6127 83.126 14.1538 82.2717 13.2363V15.5176L79.6902 18.0726V4.50876H82.2534V5.72207C83.1079 4.74429 84.1638 4.25536 85.4212 4.25536ZM84.9633 6.62764C84.1578 6.62764 83.4982 6.89895 82.9857 7.44218C82.473 7.98537 82.2167 8.65571 82.2167 9.45237C82.2167 10.2489 82.4731 10.9188 82.9857 11.4619C83.4982 12.0051 84.1578 12.2771 84.9633 12.2771C85.7812 12.2771 86.4467 12.0051 86.9592 11.4619C87.4718 10.9188 87.7282 10.2489 87.7282 9.45237C87.7282 8.6557 87.4719 7.98537 86.9592 7.44218C86.4467 6.89896 85.7812 6.62765 84.9633 6.62764Z" />
<path d="M63.6447 4.18335C65.0605 4.18335 66.2266 4.65415 67.1419 5.59571L65.86 7.24313C65.1643 6.59146 64.4012 6.26555 63.5713 6.26555C63.2418 6.2656 62.9674 6.35017 62.7479 6.51895C62.5405 6.67583 62.4362 6.86914 62.4361 7.09843C62.4361 7.50885 62.7293 7.81086 63.3152 8.004C64.6211 8.48685 65.4208 8.80699 65.714 8.96392C66.8368 9.54333 67.3981 10.3762 67.3981 11.4626C67.398 12.392 67.0319 13.1523 66.2996 13.7438C65.5915 14.3353 64.6335 14.631 63.4252 14.631C61.692 14.631 60.3187 13.9976 59.3057 12.7302L60.6786 11.1181C61.0326 11.5407 61.4539 11.8789 61.9422 12.1324C62.4426 12.3737 62.9432 12.4945 63.4436 12.4945C63.8341 12.4945 64.1576 12.4038 64.4137 12.2228C64.6822 12.0417 64.8165 11.8122 64.8165 11.5346C64.8164 11.1847 64.5785 10.9012 64.1025 10.684C63.9561 10.6237 63.5593 10.4723 62.9123 10.2309C62.3388 10.0257 61.911 9.8506 61.6304 9.70577C60.4832 9.16253 59.9096 8.31154 59.9096 7.15278C59.9096 6.29582 60.2513 5.58354 60.9347 5.01623C61.6062 4.46094 62.5095 4.18336 63.6447 4.18335Z" />
<path d="M71.2629 10.2132C71.2629 10.8409 71.4402 11.3418 71.7941 11.716C72.1481 12.0902 72.6364 12.2771 73.2588 12.2771C73.8815 12.2771 74.3697 12.0902 74.7235 11.716C75.0775 11.3418 75.2547 10.8409 75.2547 10.2132V4.50944H77.8362V10.2132C77.8362 11.6015 77.4271 12.6819 76.6093 13.4544C75.8036 14.2269 74.6869 14.6134 73.2588 14.6134C71.8307 14.6134 70.7076 14.227 69.8899 13.4544C69.0843 12.6698 68.6813 11.5893 68.6813 10.2132V4.50944H71.2629V10.2132Z" />
<path fill-rule="evenodd" clip-rule="evenodd" d="M96.4735 4.25536C97.9258 4.25536 99.1227 4.70183 100.062 5.59503C101.002 6.48831 101.473 7.69568 101.473 9.21664C101.473 9.51843 101.442 9.89296 101.38 10.3396H93.8919C94.2582 11.7397 95.2286 12.4401 96.8029 12.4401C97.9627 12.4401 99.0373 12.1081 100.026 11.4442L101.051 13.2363C99.7814 14.1417 98.329 14.5943 96.6936 14.5944C94.9482 14.5944 93.6049 14.0936 92.665 13.0916C91.7375 12.1018 91.2737 10.8825 91.2737 9.43403C91.2737 7.92518 91.7557 6.68779 92.7201 5.72207C93.6842 4.74434 94.9356 4.25541 96.4735 4.25536ZM96.4735 6.37357C95.8266 6.37361 95.2716 6.56125 94.8077 6.93539C94.3563 7.29754 94.0506 7.79831 93.8919 8.43811H98.964C98.8415 7.79837 98.5612 7.29753 98.1216 6.93539C97.682 6.56118 97.1327 6.37357 96.4735 6.37357Z" />
<path d="M110.021 9.70645C111.343 9.70661 112.414 10.7601 112.414 12.0597C112.414 13.3594 111.343 14.4135 110.021 14.4136C108.699 14.4136 107.628 13.3595 107.628 12.0597C107.628 10.76 108.699 9.70645 110.021 9.70645Z" fill="white"/>
<path d="M108.1 4.2377C108.503 4.2377 108.906 4.31022 109.308 4.45509L109.088 6.89938C108.649 6.76665 108.252 6.70033 107.898 6.70033C107.141 6.70038 106.543 6.95358 106.104 7.46052C105.677 7.95546 105.463 8.69824 105.463 9.68811V14.3776H102.882V4.50944H105.354V5.83145C105.951 4.76922 106.867 4.23775 108.1 4.2377Z" />
</svg>
