<svg width="100" height="50" viewBox="0 0 100 50" fill="none" xmlns="http://www.w3.org/2000/svg">
<path fill-rule="evenodd" clip-rule="evenodd" d="M68.0002 24.4287C68.0002 34.0544 59.9413 41.8575 50.0001 41.8575C49.0978 41.8575 48.211 41.7932 47.3444 41.6691V38.4839C48.2059 38.6355 49.0935 38.7147 50.0002 38.7147C58.1487 38.7147 64.7544 32.3187 64.7544 24.4289C64.7544 16.539 58.1487 10.143 50.0002 10.143C47.2482 10.143 44.6722 10.8726 42.4672 12.1428H37.2329C40.4934 8.96647 45.0096 7 50.0001 7C59.9413 7 68.0002 14.8031 68.0002 24.4287ZM42.0329 36.4548V40.0615C36.0882 37.2157 32 31.2845 32 24.4287C32 21.8834 32.5635 19.4656 33.5763 17.2857H37.22C35.9645 19.387 35.246 21.8267 35.246 24.4289C35.246 29.4771 37.9504 33.9138 42.0329 36.4548ZM55.6063 12.9997H34.8029L32.7374 16.1426C35.5353 16.1426 39.049 16.1305 42.6227 16.1132V41.8571L46.4588 43V16.0931C53.768 16.0518 60.3277 15.9998 60.3277 15.9998C60.3277 15.9998 59.8851 15.0632 58.8523 14.2855C57.8195 13.5077 56.7867 12.9997 55.6063 12.9997ZM51.4752 17.2855H47.6391V33.7142H56.3441C59.4565 33.7142 61.6556 30.7142 61.9506 28.857V26.2856C61.9506 23.5713 59.4424 22.5712 59.4424 22.5712C59.4424 22.5712 60.9179 21.7141 60.9179 19.4284V17.2855H57.2293V19.4284C57.2293 20.6855 55.9014 21.2855 55.1637 21.2855H51.4752V17.2855ZM55.9014 24.7141H51.4752V30.4285H55.7539C57.5244 30.4285 58.2621 28.857 58.2621 28.1427V26.9999C58.2621 25.7427 56.7867 24.7141 55.9014 24.7141Z" fill="currentColor"/>
</svg>
