<svg width="86" height="51" viewBox="0 0 86 51" fill="none" xmlns="http://www.w3.org/2000/svg">
<g filter="url(#filter0_d_6325_15449)">
<g filter="url(#filter1_di_6325_15449)">
<path fill-rule="evenodd" clip-rule="evenodd" d="M17.2706 0H4V3.5459C5.9579 3.54614 7.54501 5.1334 7.54501 7.09135C7.54501 9.04931 5.9579 10.6366 4 10.6368V13C5.9579 13.0002 7.54501 14.5875 7.54501 16.5455C7.54501 18.5034 5.9579 20.0907 4 20.0909V22.4551C5.95788 22.4553 7.54497 24.0426 7.54497 26.0005C7.54497 27.9585 5.95788 29.5457 4 29.546V31.9092C5.9579 31.9094 7.54501 33.4967 7.54501 35.4546C7.54501 37.4126 5.9579 38.9998 4 39.0001V42.5455H17.2706C18.0236 40.1481 20.2633 38.4091 22.9092 38.4091C25.555 38.4091 27.7947 40.1481 28.5477 42.5455H82V39.0001H81.9996C80.0415 39.0001 78.4541 37.4127 78.4541 35.4546C78.4541 33.4965 80.0415 31.9092 81.9996 31.9092H82V29.546H81.9995C80.0414 29.546 78.4541 27.9586 78.4541 26.0005C78.4541 24.0424 80.0414 22.4551 81.9995 22.4551H82V20.0909H81.9996C80.0415 20.0909 78.4541 18.5036 78.4541 16.5455C78.4541 14.5874 80.0415 13 81.9996 13H82V10.6368H81.9996C80.0415 10.6368 78.4541 9.04945 78.4541 7.09135C78.4541 5.13325 80.0415 3.5459 81.9996 3.5459H82V0H28.5477C27.7948 2.3974 25.5551 4.1364 22.9092 4.1364C20.2633 4.1364 18.0235 2.3974 17.2706 0ZM24.091 14.1818C24.091 13.5291 23.5619 13 22.9092 13C22.2565 13 21.7273 13.5291 21.7273 14.1818V16.5454C21.7273 17.1981 22.2565 17.7272 22.9092 17.7272C23.5619 17.7272 24.091 17.1981 24.091 16.5454V14.1818ZM22.9092 7.09091C23.5619 7.09091 24.091 7.62003 24.091 8.27273V10.6364C24.091 11.2891 23.5619 11.8182 22.9092 11.8182C22.2565 11.8182 21.7273 11.2891 21.7273 10.6364V8.27273C21.7273 7.62003 22.2565 7.09091 22.9092 7.09091ZM24.091 20.0909C24.091 19.4382 23.5619 18.9091 22.9092 18.9091C22.2565 18.9091 21.7273 19.4382 21.7273 20.0909V22.4546C21.7273 23.1073 22.2565 23.6364 22.9092 23.6364C23.5619 23.6364 24.091 23.1073 24.091 22.4546V20.0909ZM22.9092 24.8182C23.5619 24.8182 24.091 25.3473 24.091 26V28.3636C24.091 29.0163 23.5619 29.5455 22.9092 29.5455C22.2565 29.5455 21.7273 29.0163 21.7273 28.3636V26C21.7273 25.3473 22.2565 24.8182 22.9092 24.8182ZM24.0908 31.9094C24.0908 31.2567 23.5617 30.7275 22.909 30.7275C22.2563 30.7275 21.7272 31.2567 21.7272 31.9094V34.273C21.7272 34.9257 22.2563 35.4548 22.909 35.4548C23.5617 35.4548 24.0908 34.9257 24.0908 34.273V31.9094Z" fill="url(#paint0_linear_6325_15449)"/>
</g>
<g filter="url(#filter2_i_6325_15449)">
<path d="M50.2052 8.55435C50.3549 8.09369 51.0066 8.09369 51.1563 8.55435L53.6198 16.1364C53.6868 16.3424 53.8788 16.4819 54.0954 16.4819H62.0676C62.552 16.4819 62.7534 17.1017 62.3615 17.3864L55.9118 22.0724C55.7366 22.1997 55.6633 22.4254 55.7302 22.6314L58.1938 30.2135C58.3434 30.6741 57.8162 31.0572 57.4243 30.7725L50.9746 26.0865C50.7994 25.9592 50.5621 25.9592 50.3869 26.0865L43.9372 30.7725C43.5453 31.0572 43.0181 30.6741 43.1677 30.2135L45.6313 22.6314C45.6982 22.4254 45.6249 22.1997 45.4497 22.0724L39 17.3864C38.6081 17.1017 38.8095 16.4819 39.2939 16.4819H47.2661C47.4827 16.4819 47.6747 16.3424 47.7417 16.1364L50.2052 8.55435Z" fill="url(#paint1_linear_6325_15449)"/>
</g>
</g>
<defs>
<filter id="filter0_d_6325_15449" x="0" y="0" width="86" height="50.5459" filterUnits="userSpaceOnUse" color-interpolation-filters="sRGB">
<feFlood flood-opacity="0" result="BackgroundImageFix"/>
<feColorMatrix in="SourceAlpha" type="matrix" values="0 0 0 0 0 0 0 0 0 0 0 0 0 0 0 0 0 0 127 0" result="hardAlpha"/>
<feOffset dy="4"/>
<feGaussianBlur stdDeviation="2"/>
<feComposite in2="hardAlpha" operator="out"/>
<feColorMatrix type="matrix" values="0 0 0 0 0.976471 0 0 0 0 0.838431 0 0 0 0 0.34902 0 0 0 0.5 0"/>
<feBlend mode="normal" in2="BackgroundImageFix" result="effect1_dropShadow_6325_15449"/>
<feBlend mode="normal" in="SourceGraphic" in2="effect1_dropShadow_6325_15449" result="shape"/>
</filter>
<filter id="filter1_di_6325_15449" x="4" y="0" width="78" height="43.5459" filterUnits="userSpaceOnUse" color-interpolation-filters="sRGB">
<feFlood flood-opacity="0" result="BackgroundImageFix"/>
<feColorMatrix in="SourceAlpha" type="matrix" values="0 0 0 0 0 0 0 0 0 0 0 0 0 0 0 0 0 0 127 0" result="hardAlpha"/>
<feOffset dy="1"/>
<feComposite in2="hardAlpha" operator="out"/>
<feColorMatrix type="matrix" values="0 0 0 0 0.983333 0 0 0 0 0.580173 0 0 0 0 0.107503 0 0 0 1 0"/>
<feBlend mode="normal" in2="BackgroundImageFix" result="effect1_dropShadow_6325_15449"/>
<feBlend mode="normal" in="SourceGraphic" in2="effect1_dropShadow_6325_15449" result="shape"/>
<feColorMatrix in="SourceAlpha" type="matrix" values="0 0 0 0 0 0 0 0 0 0 0 0 0 0 0 0 0 0 127 0" result="hardAlpha"/>
<feOffset dy="1"/>
<feComposite in2="hardAlpha" operator="arithmetic" k2="-1" k3="1"/>
<feColorMatrix type="matrix" values="0 0 0 0 0.996078 0 0 0 0 0.992157 0 0 0 0 0.768627 0 0 0 1 0"/>
<feBlend mode="normal" in2="shape" result="effect2_innerShadow_6325_15449"/>
</filter>
<filter id="filter2_i_6325_15449" x="38.793" y="8.20898" width="23.7773" height="22.6611" filterUnits="userSpaceOnUse" color-interpolation-filters="sRGB">
<feFlood flood-opacity="0" result="BackgroundImageFix"/>
<feBlend mode="normal" in="SourceGraphic" in2="BackgroundImageFix" result="shape"/>
<feColorMatrix in="SourceAlpha" type="matrix" values="0 0 0 0 0 0 0 0 0 0 0 0 0 0 0 0 0 0 127 0" result="hardAlpha"/>
<feOffset dy="2"/>
<feComposite in2="hardAlpha" operator="arithmetic" k2="-1" k3="1"/>
<feColorMatrix type="matrix" values="0 0 0 0 0.829167 0 0 0 0 0.343619 0 0 0 0 0 0 0 0 1 0"/>
<feBlend mode="normal" in2="shape" result="effect1_innerShadow_6325_15449"/>
</filter>
<linearGradient id="paint0_linear_6325_15449" x1="4" y1="21.2727" x2="82" y2="21.2727" gradientUnits="userSpaceOnUse">
<stop stop-color="#FBE46B"/>
<stop offset="0.191469" stop-color="#FEFEC8"/>
<stop offset="0.316469" stop-color="#FAE061"/>
<stop offset="0.889385" stop-color="#E28B25"/>
<stop offset="1" stop-color="#F5C054"/>
</linearGradient>
<linearGradient id="paint1_linear_6325_15449" x1="50.6808" y1="7.09082" x2="50.6808" y2="34.2726" gradientUnits="userSpaceOnUse">
<stop stop-color="#FF7F22"/>
<stop offset="1" stop-color="#E36306"/>
</linearGradient>
</defs>
</svg>
