<svg width="48" height="48" viewBox="0 0 48 48" fill="none" xmlns="http://www.w3.org/2000/svg">
<g id="&#229;&#155;&#190;&#230;&#160;&#135;">
<path id="Vector" d="M45 6.85294C44.3684 5.66667 43.5263 4.48039 42.3684 3.5098C41.2105 2.64706 40.0526 2 38.6842 2C38.4737 2 38.4737 2 38.0526 2.21569L37.2105 9.65686C37.2105 9.87255 37.2105 9.87255 37.4211 9.87255H37.8421L44.5789 7.17647C44.7895 7.17647 45 7.17647 45 6.85294ZM44.3684 27.451C44.3684 26.6961 43.7368 26.1569 43.1053 26.1569H26.2632C25.5263 26.1569 25 26.8039 25 27.451C25 28.2059 25.6316 28.7451 26.2632 28.7451H43.1053C43.7368 28.7451 44.3684 28.2059 44.3684 27.451ZM40.8947 36.0784C40.8947 35.3235 40.2632 34.7843 39.6316 34.7843H26.2632C25.5263 34.7843 25 35.4314 25 36.0784C25 36.8333 25.6316 37.3726 26.2632 37.3726H39.6316C40.3684 37.3726 40.8947 36.8333 40.8947 36.0784ZM33.5263 44.7059C33.5263 43.951 32.8947 43.4118 32.2632 43.4118H26.2632C25.5263 43.4118 25 44.0588 25 44.7059C25 45.4608 25.6316 46 26.2632 46H32.2632C33 46 33.5263 45.3529 33.5263 44.7059Z" fill="var(--main-color)"/>
<g id="Group 4535476">
<path id="Vector_2" opacity="0.5" d="M42.7332 10.0921C42.5177 10.0921 40.0392 11.2677 35.2977 13.4051L36.1597 5.71043C36.1597 5.49669 36.1597 5.49669 35.9442 5.06921C35.9442 4.85547 35.7287 4.85547 35.2977 4.85547H34.1123C31.7415 4.85547 29.6941 5.71043 27.8621 7.20661C26.0302 8.7028 24.9526 10.7333 24.5215 13.1913C24.306 15.8631 24.737 18.2142 26.569 20.2448C28.0776 22.2753 30.3406 23.5578 33.1424 23.7715H34.3278C36.6986 23.7715 38.746 22.9165 40.578 21.4204C42.3021 19.9242 43.4875 17.8936 43.9186 15.5425C44.1341 14.0463 43.9186 12.2295 43.272 10.7333C43.1642 10.4127 42.9487 10.0921 42.7332 10.0921Z" fill="var(--main-color)"/>
<g id="Vector_3">
<path d="M5.44641 5H18.3778C20.3175 5 21.8261 6.60305 21.8261 8.52672V21.3511C21.8261 23.2748 20.2097 24.771 18.27 24.771H5.44641C3.50671 24.771 1.99805 23.1679 1.99805 21.2443V8.52672C1.99805 6.60305 3.50671 5 5.44641 5Z" fill="var(--main-color)"/>
<path d="M5.44641 27.3359H18.3778C20.3175 27.3359 21.8261 28.8321 21.7184 30.7557V43.5802C21.7184 45.5038 20.2097 47 18.27 47H5.44641C3.50671 47 1.99805 45.3969 1.99805 43.4733V30.7557C1.99805 28.8321 3.50671 27.3359 5.44641 27.3359Z" fill="var(--main-color)"/>
</g>
</g>
</g>
</svg>
