<svg xmlns="http://www.w3.org/2000/svg" width="36" height="36" viewBox="0 0 36 36" fill="none">
  <path d="M9.67074 29.1107L9.66322 29.1182L9.65598 29.126C9.02654 29.8017 8.45747 30.2157 7.98006 30.4218C7.50853 30.6254 7.16285 30.6135 6.91422 30.5064C6.6612 30.3975 6.39655 30.1416 6.18925 29.6333C5.98114 29.123 5.85 28.3992 5.85 27.45V10.56C5.85 7.52835 6.21824 5.86758 7.1019 4.92303C7.97224 3.99272 9.4962 3.6 12.33 3.6H23.67C26.5041 3.6 28.0275 3.99282 28.8959 4.92264C29.7774 5.86659 30.1425 7.52679 30.135 10.5585V10.56V27.435C30.135 28.3846 30.0047 29.1087 29.7975 29.6192C29.5911 30.1278 29.3276 30.383 29.076 30.4916C28.8287 30.5983 28.4837 30.6106 28.011 30.4067C27.5326 30.2004 26.9615 29.7861 26.3282 29.1102C25.6005 28.3296 24.6554 27.9468 23.7086 27.9984C22.7618 28.0499 21.8639 28.5332 21.225 29.385L21.2246 29.3856L19.7116 31.4079C19.7113 31.4083 19.711 31.4087 19.7107 31.4091C19.1996 32.0836 18.5725 32.3738 17.9925 32.3738C17.4125 32.3738 16.7854 32.0836 16.2743 31.4091C16.274 31.4087 16.2737 31.4083 16.2734 31.4079L14.7606 29.3858C14.7605 29.3857 14.7605 29.3856 14.7604 29.3856C13.4723 27.6623 11.1634 27.5349 9.67973 29.1017L9.67074 29.1107ZM9.57 16.5C9.57 17.6564 10.5136 18.6 11.67 18.6C12.8264 18.6 13.77 17.6564 13.77 16.5C13.77 15.3436 12.8264 14.4 11.67 14.4C10.5136 14.4 9.57 15.3436 9.57 16.5ZM9.57 10.5C9.57 11.6564 10.5136 12.6 11.67 12.6C12.8264 12.6 13.77 11.6564 13.77 10.5C13.77 9.34363 12.8264 8.4 11.67 8.4C10.5136 8.4 9.57 9.34363 9.57 10.5ZM16.095 18.225H24.345C25.2914 18.225 26.07 17.4464 26.07 16.5C26.07 15.5536 25.2914 14.775 24.345 14.775H16.095C15.1486 14.775 14.37 15.5536 14.37 16.5C14.37 17.4464 15.1486 18.225 16.095 18.225ZM16.095 12.225H24.345C25.2914 12.225 26.07 11.4464 26.07 10.5C26.07 9.55363 25.2914 8.775 24.345 8.775H16.095C15.1486 8.775 14.37 9.55363 14.37 10.5C14.37 11.4464 15.1486 12.225 16.095 12.225Z" stroke="currentColor" stroke-width="1.2"/>
</svg>