<svg xmlns="http://www.w3.org/2000/svg" width="32" height="32" viewBox="0 0 32 32" fill="none">
<path d="M23.5553 1.77783H8.44423C3.91089 1.77783 0.888672 4.75114 0.888672 9.21111V18.131C0.888672 22.591 3.91089 25.5643 8.44423 25.5643V28.7309C8.44423 29.9202 9.78912 30.6338 10.7864 29.9648L17.5109 25.5643H23.5553C28.0887 25.5643 31.1109 22.591 31.1109 18.131V9.21111C31.1109 4.75114 28.0887 1.77783 23.5553 1.77783ZM15.9998 19.8704C15.6992 19.8704 15.4109 19.753 15.1984 19.5439C14.9859 19.3348 14.8664 19.0512 14.8664 18.7554C14.8664 18.4597 14.9859 18.1761 15.1984 17.967C15.4109 17.7579 15.6992 17.6405 15.9998 17.6405C16.3004 17.6405 16.5886 17.7579 16.8012 17.967C17.0137 18.1761 17.1331 18.4597 17.1331 18.7554C17.1331 19.0512 17.0137 19.3348 16.8012 19.5439C16.5886 19.753 16.3004 19.8704 15.9998 19.8704ZM17.9038 13.7008C17.3144 14.0873 17.1331 14.3401 17.1331 14.7563V15.0685C17.1331 15.6781 16.6193 16.1835 15.9998 16.1835C15.3802 16.1835 14.8664 15.6781 14.8664 15.0685V14.7563C14.8664 13.0318 16.1509 12.1844 16.6344 11.8574C17.1936 11.4857 17.3749 11.233 17.3749 10.8464C17.3749 10.1031 16.7553 9.49358 15.9998 9.49358C15.2442 9.49358 14.6247 10.1031 14.6247 10.8464C14.6247 11.456 14.1109 11.9614 13.4913 11.9614C12.8718 11.9614 12.358 11.456 12.358 10.8464C12.358 8.86918 13.99 7.26359 15.9998 7.26359C18.0096 7.26359 19.6416 8.86918 19.6416 10.8464C19.6416 12.5412 18.3722 13.3886 17.9038 13.7008Z" fill="var(--main-color)"/>
</svg>