<svg width="100" height="48" viewBox="0 0 100 48" fill="none" xmlns="http://www.w3.org/2000/svg">
<mask id="mask0_1806_53025" style="mask-type:luminance" maskUnits="userSpaceOnUse" x="3" y="10" width="94" height="28">
<path d="M97 10.0298H3V37.9705H97V10.0298Z" fill="white"/>
</mask>
<g mask="url(#mask0_1806_53025)">
<path d="M16.4102 10.0298C23.8165 10.0298 29.8203 16.1852 29.8203 23.7778C29.8202 31.3704 23.8164 37.5249 16.4102 37.5249C9.00402 37.5248 3.00015 31.3703 3 23.7778C3 16.1852 9.00393 10.0299 16.4102 10.0298ZM22.5654 13.3813C22.0291 12.8319 21.1867 12.8319 20.6504 13.3813L16.3584 17.7808L12.0674 13.3813C11.531 12.8317 10.6877 12.8315 10.1514 13.3813L6.3457 17.2837C5.80945 17.8336 5.80934 18.6977 6.3457 19.2476L10.6367 23.647L6.3457 28.0464C5.80953 28.5963 5.80937 29.4604 6.3457 30.0103L10.1514 33.9116C10.6878 34.4615 11.531 34.4615 12.0674 33.9116L16.3584 29.5122L20.6504 33.9116C21.1867 34.4614 22.029 34.4613 22.5654 33.9116L26.3721 30.0103C26.9084 29.4605 26.9082 28.5963 26.3721 28.0464L22.0801 23.647L26.3721 19.2476C26.9084 18.6977 26.9082 17.8336 26.3721 17.2837L22.5654 13.3813Z" fill="currentColor"/>
<path d="M90.6144 10.0298C87.0894 10.0298 84.2285 12.9626 84.2285 16.5763C84.2285 20.19 87.0894 23.1229 90.6144 23.1229C94.1394 23.1229 97.0003 20.19 97.0003 16.5763C97.0003 12.9626 94.1394 10.0298 90.6144 10.0298ZM93.5519 17.8856C93.7051 18.0428 93.7051 18.3046 93.5519 18.4617L92.428 19.6139C92.2747 19.7711 92.0193 19.7711 91.866 19.6139L90.6144 18.3308L89.3628 19.6139C89.2095 19.7711 88.9541 19.7711 88.8008 19.6139L87.6769 18.4617C87.5236 18.3046 87.5236 18.0428 87.6769 17.8856L88.9285 16.6025L87.6769 15.3194C87.5236 15.1623 87.5236 14.9004 87.6769 14.7433L88.8008 13.5911C88.9541 13.434 89.2095 13.434 89.3628 13.5911L90.6144 14.8742L91.866 13.5911C92.0193 13.434 92.2747 13.434 92.428 13.5911L93.5519 14.7433C93.7051 14.9004 93.7051 15.1623 93.5519 15.3194L92.3003 16.6025L93.5519 17.8856Z" fill="currentColor"/>
<path d="M50.6132 26.2651H54.1893C54.3426 26.2651 54.4959 26.3699 54.5469 26.527L58.5317 37.4466C58.6339 37.7085 58.4296 37.9704 58.1741 37.9704H54.8535C54.7002 37.9704 54.5469 37.8656 54.4959 37.7085L54.1638 36.7658C54.1127 36.6087 53.9594 36.5039 53.8062 36.5039H50.9964C50.8431 36.5039 50.6899 36.6087 50.6388 36.7658L50.3067 37.7085C50.2556 37.8656 50.1024 37.9704 49.9491 37.9704H46.654C46.3986 37.9704 46.1942 37.7085 46.2964 37.4466L50.2556 26.5008C50.3067 26.3699 50.46 26.2651 50.6132 26.2651ZM53.1676 33.8329C53.423 33.8329 53.6018 33.5711 53.5252 33.3354L52.4268 29.8526H52.3502L51.2774 33.3354C51.2007 33.5973 51.3796 33.8329 51.635 33.8329H53.1676Z" fill="currentColor"/>
<path d="M60.2171 26.2651H62.8481C62.9758 26.2651 63.078 26.3175 63.1546 26.4223L66.2965 30.7692C66.4497 30.9787 66.7563 30.9787 66.9095 30.7692L70.0514 26.4223C70.128 26.3175 70.2302 26.2651 70.3579 26.2651H72.9633C73.1677 26.2651 73.3465 26.4484 73.3465 26.6579V37.5776C73.3465 37.7871 73.1677 37.9704 72.9633 37.9704H69.8726C69.6682 37.9704 69.4894 37.7871 69.4894 37.5776V35.2732L69.515 32.8641H69.4639L67.778 35.2208C67.7014 35.3256 67.5992 35.3779 67.4715 35.3779H65.6834C65.5557 35.3779 65.4535 35.3256 65.3769 35.2208L63.6911 32.8379L63.64 32.8641L63.6655 35.2732V37.5776C63.6655 37.7871 63.4867 37.9704 63.2824 37.9704H60.2171C60.0128 37.9704 59.834 37.7871 59.834 37.5776V26.6579C59.834 26.4223 59.9872 26.2651 60.2171 26.2651Z" fill="currentColor"/>
<path d="M93.246 30.8999H89.5933C89.5933 30.8999 88.8015 30.9523 88.8015 30.2453C88.8015 29.5382 89.5933 29.5382 89.5933 29.5382H96.6178C96.8221 29.5382 97.0009 29.3549 97.0009 29.1454V26.6316C97.0009 26.4221 96.8221 26.2388 96.6178 26.2388H89.3634C87.4988 26.2388 85.583 26.2388 85.583 30.1143C85.583 33.6233 87.4221 33.309 89.3123 33.309H92.9651C92.9651 33.309 93.7825 33.309 93.7825 33.9637C93.7825 34.6184 92.9906 34.6445 92.9906 34.6445H83.8205C83.8205 34.6445 83.8205 34.6445 83.795 34.6445H77.8433V33.7018C77.8433 33.4923 78.0221 33.309 78.2265 33.309H81.9047C82.1091 33.309 82.2879 33.1257 82.2879 32.9163V31.2403C82.2879 31.0308 82.1091 30.8475 81.9047 30.8475H77.8433V29.931C77.8433 29.7215 78.0221 29.5382 78.2265 29.5382H83.795C83.9993 29.5382 84.1781 29.3549 84.1781 29.1454V26.6316C84.1781 26.4221 83.9993 26.2388 83.795 26.2388H75.0335C74.8292 26.2388 74.6504 26.4221 74.6504 26.6316V37.5512C74.6504 37.7607 74.8292 37.944 75.0335 37.944H83.1308H83.8205H93.2205C95.1618 37.944 96.9754 37.944 96.9754 34.0684C97.0009 30.5857 95.0596 30.8999 93.246 30.8999Z" fill="currentColor"/>
<path d="M67.2678 22.835L65.1222 19.169C65.02 19.0118 64.8667 18.9071 64.6879 18.9071H63.5385C63.2575 18.9071 63.0276 19.1428 63.0276 19.4308V22.547C63.0276 22.835 62.7977 23.0707 62.5167 23.0707H59.5792C59.2983 23.0707 59.0684 22.835 59.0684 22.547V10.5799C59.0684 10.2918 59.2983 10.0562 59.5792 10.0562H66.8847C69.8222 10.0562 71.3037 12.282 71.3037 14.4816C71.3037 16.0004 70.614 17.5192 69.2347 18.331C69.2091 18.3572 69.1836 18.4096 69.2091 18.4357L71.3803 22.3113C71.5847 22.6517 71.3292 23.0969 70.9205 23.0969H67.7021C67.5233 23.0969 67.37 23.0183 67.2678 22.835ZM63.0276 15.8433C63.0276 15.8695 63.0531 15.8957 63.0787 15.8957H65.9651C66.9358 15.8957 67.4211 15.1886 67.4211 14.4816C67.4211 13.7746 66.9358 13.0676 65.9651 13.0676H63.5385C63.2575 13.0676 63.0276 13.3032 63.0276 13.5913V15.8433Z" fill="currentColor"/>
<path d="M82.2869 16.393C82.2614 16.3668 82.2614 16.3668 82.2614 16.3407C82.2614 16.3145 82.2614 16.3145 82.2869 16.2883C82.8999 15.6336 83.2576 14.5862 83.2576 13.5387C83.2576 11.1034 81.7249 10.0298 80.1923 10.0298H73.1679C72.8103 10.0298 72.5293 10.3178 72.5293 10.6844V22.4682C72.5293 22.8348 72.8103 23.1229 73.1679 23.1229H80.1923C82.5168 23.1229 83.5641 21.1851 83.5641 19.4044C83.5641 18.1737 83.0787 17.0739 82.2869 16.393ZM78.813 15.5289H76.0543V13.4078C76.0543 13.1983 76.2331 13.015 76.4374 13.015H78.813C79.707 13.015 80.1157 13.6435 80.1157 14.2719C80.1157 14.9004 79.707 15.5289 78.813 15.5289ZM76.4374 17.8333H78.813C79.707 17.8333 80.1157 18.4617 80.1157 19.0902C80.1157 19.6925 79.707 20.3471 78.813 20.3471H76.0543V18.2261C76.0543 18.0166 76.2331 17.8333 76.4374 17.8333Z" fill="currentColor"/>
<path d="M45.197 30.9528H41.059C40.7269 30.9528 40.4715 31.2147 40.4715 31.5551V33.0215C40.4715 33.362 40.7269 33.6238 41.059 33.6238H42.4383C42.4894 33.6238 42.5405 33.6762 42.5405 33.7286V34.488C42.5405 34.5142 42.5149 34.5665 42.4894 34.5927C42.1062 34.8022 41.672 34.9069 41.11 34.9069H41.0334C39.8329 34.9069 39.2198 34.8808 38.6579 34.8546C37.4829 34.776 36.6144 33.65 36.6144 32.1836V32.1574C36.6144 30.9005 37.3807 29.853 38.5557 29.5126C38.8367 29.434 43.3579 29.4078 45.0693 29.434C45.3503 29.434 45.5546 29.1984 45.5546 28.9365C45.5546 28.1771 45.5546 26.8154 45.5546 26.8154C45.5546 26.5274 45.3247 26.3179 45.0693 26.3179C43.3323 26.3179 38.6323 26.3179 38.5301 26.3441C35.4138 26.5797 33.166 29.0412 33.166 32.1574V32.1836C33.166 35.614 34.8519 37.735 37.7894 37.9707C37.9171 37.9707 38.8878 37.9969 40.3693 37.9969C40.9568 37.9969 41.4166 37.9969 41.4932 37.9969C41.5443 37.9969 41.5954 37.9969 41.672 37.9969C43.2301 37.9969 45.6312 36.3995 45.81 35.9282C45.8356 35.8758 45.81 31.6075 45.81 31.6075C45.7845 31.2147 45.5291 30.9528 45.197 30.9528Z" fill="currentColor"/>
<path d="M43.614 10.0298H33.882C33.601 10.0298 33.3711 10.2655 33.3711 10.5535V13.5387C33.3711 13.8268 33.601 14.0625 33.882 14.0625H36.2575C36.5385 14.0625 36.7684 14.2981 36.7684 14.5862V22.5992C36.7684 22.8872 36.9983 23.1229 37.2792 23.1229H40.1912C40.4722 23.1229 40.7021 22.8872 40.7021 22.5992V14.6124C40.7021 14.3243 40.932 14.0886 41.2129 14.0886H43.5885C43.8695 14.0886 44.0994 13.853 44.0994 13.5649V10.5535C44.1249 10.2655 43.895 10.0298 43.614 10.0298Z" fill="currentColor"/>
<path d="M54.2659 10.0562C53.985 10.0562 53.7551 10.2918 53.7551 10.5799V18.5929C53.7551 19.1428 53.5507 19.3523 52.9888 19.3523H50.2045C49.6426 19.3523 49.4382 19.1428 49.4382 18.5929V10.5799C49.4382 10.2918 49.2083 10.0562 48.9273 10.0562H45.9132C45.6322 10.0562 45.4023 10.2918 45.4023 10.5799V19.1166C45.4023 20.5044 45.7344 21.5257 46.373 22.1542C47.0116 22.8088 48.0589 23.1231 49.4382 23.1231H53.704C55.0833 23.1231 56.1306 22.7826 56.7692 22.1542C57.4078 21.4995 57.7398 20.4783 57.7398 19.1166V10.5799C57.7398 10.2918 57.51 10.0562 57.229 10.0562H54.2659Z" fill="currentColor"/>
</g>
</svg>
