<svg width="84" height="23" viewBox="0 0 84 23"  xmlns="http://www.w3.org/2000/svg">
<path d="M50.3409 0L45.3925 16.8746L40.2837 0H36.1115L30.5725 16.8746L26.0332 0H0V4.21861H8.19256V23H13.4068V4.21861H21.8821L27.4886 23H33.0488L38.0647 7.88885L42.8023 23H48.4004L55.7453 0H50.3409ZM56.8079 0V5.95247H62.1744V0H56.8079Z" />
<path d="M74.3028 11.5296L78.2979 5.93567H70.0633L65.5536 4.11987e-05H71.7843C73.2672 -0.00415631 74.734 0.31244 76.083 0.928151C78.8108 2.14733 80.9809 4.34728 82.1619 7.09159C82.7668 8.47349 83.0773 9.96625 83.0733 11.4747C83.0767 12.9886 82.7662 14.4867 82.1619 15.8748C81.6105 17.1793 80.8302 18.375 79.8584 19.4058L74.3028 11.5296Z" />
<path d="M65.9837 22.9828L70.4722 17.469L78.7533 20.4221C77.9397 21.0838 77.0439 21.6369 76.0871 22.0674C74.7364 22.6826 73.2684 22.9992 71.7843 22.9955L65.9837 22.9828Z" />
<path d="M56.8082 22.983V8.96018L62.4529 12.9595L62.4443 22.983H56.8082Z" />
</svg>
