<svg width="101" height="42" viewBox="0 0 101 42" fill="none" xmlns="http://www.w3.org/2000/svg">
<path d="M4.77191 37.2054H5.21241L4.20045 40.2351C4.09647 40.5464 3.92649 40.825 3.69049 41.0707C3.455 41.315 3.17621 41.5079 2.85412 41.6494C2.5341 41.7894 2.19271 41.8594 1.82994 41.8594C1.46875 41.8594 1.17437 41.7887 0.946813 41.6472C0.719255 41.5057 0.569323 41.3128 0.497015 41.0685C0.424708 40.8242 0.440545 40.5464 0.544527 40.2351L1.55648 37.2054H1.99698L0.99473 40.2061C0.913634 40.4489 0.898565 40.6656 0.949523 40.8562C1.00098 41.0454 1.11219 41.1944 1.28317 41.3031C1.45572 41.4118 1.68176 41.4662 1.96129 41.4662C2.24082 41.4662 2.50318 41.4118 2.74837 41.3031C2.99355 41.1944 3.20427 41.0454 3.38053 40.8562C3.55885 40.6656 3.68856 40.4489 3.76965 40.2061L4.77191 37.2054Z" fill="#E6EBF0"/>
<path d="M10.2499 37.2054L8.72153 41.7812H8.2928L6.72237 37.9494H6.68468L5.40481 41.7812H4.96431L6.49269 37.2054H6.91906L8.49742 41.0417H8.53511L9.81647 37.2054H10.2499Z" fill="#E6EBF0"/>
<path d="M11.973 37.2054L10.4447 41.7812H10.0042L11.5325 37.2054H11.973Z" fill="#E6EBF0"/>
<path d="M11.7273 41.7812L13.2557 37.2054H16.0471L15.9217 37.5808H13.5708L12.9954 39.3034H15.1273L15.0019 39.6788H12.8701L12.1678 41.7812H11.7273Z" fill="#E6EBF0"/>
<path d="M17.583 37.2054L16.0546 41.7812H15.6141L17.1425 37.2054H17.583Z" fill="#E6EBF0"/>
<path d="M17.3372 41.7812L18.8656 37.2054H21.6641L21.5387 37.5808H19.1807L18.6053 39.3034H20.8149L20.6895 39.6788H18.48L17.9031 41.4059H20.3082L20.1828 41.7812H17.3372Z" fill="#E6EBF0"/>
<path d="M22.6892 41.7812H21.2758L22.8042 37.2054H24.3024C24.7625 37.2054 25.1255 37.2963 25.3915 37.478C25.659 37.6597 25.8232 37.9204 25.8841 38.26C25.945 38.5996 25.8961 39.007 25.7374 39.4822C25.5772 39.9618 25.3501 40.3736 25.0561 40.7177C24.7642 41.0603 24.4173 41.3232 24.0153 41.5064C23.6149 41.6896 23.1729 41.7812 22.6892 41.7812ZM21.8417 41.4059H22.7887C23.2032 41.4059 23.5762 41.3284 23.9075 41.1735C24.2387 41.0186 24.5223 40.7974 24.7581 40.5099C24.9938 40.2224 25.1782 39.8799 25.311 39.4822C25.4413 39.0874 25.4856 38.7478 25.444 38.4633C25.404 38.1788 25.2758 37.9606 25.0596 37.8087C24.845 37.6567 24.5421 37.5808 24.1511 37.5808H23.1193L21.8417 41.4059Z" fill="#E6EBF0"/>
<path d="M27.9028 41.7812L29.4312 37.2054H30.9882C31.3306 37.2054 31.5955 37.268 31.783 37.3931C31.9725 37.5167 32.0899 37.685 32.1349 37.898C32.1816 38.111 32.1603 38.3509 32.0713 38.6175C31.9822 38.8841 31.8438 39.1247 31.6559 39.3392C31.4686 39.5522 31.2394 39.7212 30.9683 39.8463C30.6977 39.97 30.392 40.0318 30.0512 40.0318H28.8263L28.9517 39.6564H30.1648C30.4177 39.6564 30.6423 39.6117 30.8386 39.5224C31.0354 39.4315 31.2007 39.3079 31.3346 39.1515C31.4701 38.9951 31.5712 38.8171 31.6379 38.6175C31.7045 38.4179 31.7224 38.2399 31.6914 38.0835C31.6619 37.9271 31.5781 37.8042 31.44 37.7148C31.3033 37.6255 31.107 37.5808 30.8511 37.5808H29.7463L28.3433 41.7812H27.9028Z" fill="#E6EBF0"/>
<path d="M31.5634 41.7812H31.1017L34.385 37.2054H34.8562L35.0827 41.7812H34.621L34.4557 37.7484H34.4228L31.5634 41.7812ZM32.4814 40.0273H34.8747L34.7493 40.4027H32.356L32.4814 40.0273Z" fill="#E6EBF0"/>
<path d="M36.4933 37.2054H37.0021L37.7066 39.3771H37.749L39.9043 37.2054H40.4131L37.8058 39.7994L37.1439 41.7812H36.7057L37.3677 39.7994L36.4933 37.2054Z" fill="#E6EBF0"/>
<path d="M41.2405 37.2054H41.7493L42.1682 41.1914H42.2106L45.2922 37.2054H45.801L44.2726 41.7812H43.858L45.0916 38.088H45.0539L42.1926 41.7812H41.7921L41.398 38.088H41.3603L40.1267 41.7812H39.7121L41.2405 37.2054Z" fill="#E6EBF0"/>
<path d="M45.5552 41.7812L47.0836 37.2054H49.8821L49.7567 37.5808H47.3987L46.8234 39.3034H49.0329L48.9075 39.6788H46.698L46.1211 41.4059H48.5262L48.4008 41.7812H45.5552Z" fill="#E6EBF0"/>
<path d="M54.7794 37.2054L53.251 41.7812H52.8223L51.2519 37.9494H51.2142L49.9343 41.7812H49.4938L51.0222 37.2054H51.4486L53.0269 41.0417H53.0646L54.346 37.2054H54.7794Z" fill="#E6EBF0"/>
<path d="M55.6446 37.5808L55.77 37.2054H59.2681L59.1427 37.5808H57.6139L56.2109 41.7812H55.7704L57.1734 37.5808H55.6446Z" fill="#E6EBF0"/>
<path d="M62.4971 38.3494C62.5555 38.0947 62.5046 37.8921 62.3444 37.7416C62.1842 37.5912 61.9448 37.516 61.626 37.516C61.4014 37.516 61.1913 37.5525 60.9958 37.6255C60.8018 37.6985 60.6345 37.7997 60.4938 37.9293C60.3552 38.0574 60.2586 38.2034 60.2039 38.3672C60.1636 38.4879 60.1557 38.5937 60.1803 38.6845C60.2049 38.7754 60.2526 38.8536 60.3234 38.9191C60.3962 38.9832 60.4815 39.0383 60.5791 39.0845C60.6783 39.1306 60.7808 39.1694 60.8866 39.2006L61.3491 39.3392C61.4896 39.3794 61.6263 39.4308 61.7593 39.4933C61.8923 39.5559 62.0065 39.6348 62.1019 39.7302C62.1993 39.824 62.2636 39.9394 62.2948 40.0765C62.3281 40.212 62.3128 40.3751 62.2492 40.5658C62.1676 40.8101 62.0274 41.0298 61.8288 41.2249C61.6301 41.42 61.3868 41.5749 61.0988 41.6896C60.8113 41.8028 60.4932 41.8594 60.1446 41.8594C59.8164 41.8594 59.5485 41.808 59.341 41.7053C59.134 41.601 58.9919 41.4573 58.9149 41.2741C58.8379 41.0908 58.8311 40.8786 58.8944 40.6373H59.3467C59.3022 40.8175 59.314 40.9702 59.3822 41.0953C59.4503 41.2204 59.5614 41.3158 59.7154 41.3813C59.8699 41.4453 60.0555 41.4774 60.2722 41.4774C60.5125 41.4774 60.7387 41.4394 60.951 41.3634C61.1653 41.286 61.3487 41.1787 61.5013 41.0417C61.6559 40.9032 61.7638 40.7423 61.825 40.5591C61.8768 40.4042 61.8776 40.2746 61.8277 40.1703C61.7782 40.0646 61.6892 39.9759 61.5608 39.9044C61.4339 39.8329 61.2799 39.7696 61.0989 39.7145L60.5755 39.5537C60.2329 39.4464 59.9887 39.2982 59.843 39.109C59.6973 38.9199 59.6735 38.6786 59.7715 38.3851C59.8536 38.1394 59.9949 37.9234 60.1952 37.7372C60.3977 37.5495 60.6349 37.4035 60.9069 37.2993C61.1809 37.1935 61.4663 37.1406 61.7631 37.1406C62.0631 37.1406 62.311 37.1928 62.5071 37.297C62.7031 37.4013 62.838 37.545 62.9119 37.7282C62.9878 37.91 62.9917 38.117 62.9235 38.3494H62.4971Z" fill="#E6EBF0"/>
<path d="M66.7377 37.2054L65.2094 41.7812H64.7689L66.2972 37.2054H66.7377Z" fill="#E6EBF0"/>
<path d="M71.7776 37.2054L70.2492 41.7812H69.8205L68.2501 37.9494H68.2124L66.9325 41.7812H66.492L68.0204 37.2054H68.4467L70.0251 41.0417H70.0628L71.3442 37.2054H71.7776Z" fill="#E6EBF0"/>
<path d="M72.6428 37.5808L72.7681 37.2054H76.2662L76.1409 37.5808H74.6121L73.2091 41.7812H72.7686L74.1716 37.5808H72.6428Z" fill="#E6EBF0"/>
<path d="M75.7296 41.7812L77.258 37.2054H80.0564L79.9311 37.5808H77.5731L76.9977 39.3034H79.2073L79.0819 39.6788H76.8723L76.2955 41.4059H78.7005L78.5752 41.7812H75.7296Z" fill="#E6EBF0"/>
<path d="M79.6682 41.7812L81.1966 37.2054H82.7536C83.096 37.2054 83.3621 37.2643 83.5521 37.3819C83.7442 37.4981 83.8637 37.6597 83.9108 37.8668C83.9599 38.0723 83.9399 38.3084 83.8509 38.575C83.7618 38.8417 83.6243 39.077 83.4384 39.2811C83.254 39.4851 83.028 39.6445 82.7604 39.7592C82.4928 39.8739 82.1894 39.9312 81.8502 39.9312H80.524L80.6516 39.5492H81.9661C82.2173 39.5492 82.4394 39.5097 82.6322 39.4308C82.8266 39.3518 82.989 39.2394 83.1194 39.0934C83.2514 38.9474 83.3508 38.7746 83.4174 38.575C83.4841 38.3754 83.5007 38.2012 83.4672 38.0522C83.4342 37.9018 83.3474 37.7856 83.2067 37.7037C83.0676 37.6217 82.8709 37.5808 82.6165 37.5808H81.5117L80.1087 41.7812H79.6682ZM82.4849 39.7168L82.9825 41.7812H82.4737L81.9878 39.7168H82.4849Z" fill="#E6EBF0"/>
<path d="M83.8529 41.7812L85.3813 37.2054H88.1727L88.0474 37.5808H85.6965L85.1211 39.3034H87.2529L87.1275 39.6788H84.9957L84.2934 41.7812H83.8529Z" fill="#E6EBF0"/>
<path d="M87.1443 41.7812H86.6826L89.966 37.2054H90.4371L90.6636 41.7812H90.2019L90.0367 37.7484H90.0037L87.1443 41.7812ZM88.0623 40.0273H90.4556L90.3302 40.4027H87.9369L88.0623 40.0273Z" fill="#E6EBF0"/>
<path d="M96.0929 38.6354H95.6501C95.6693 38.479 95.6579 38.3345 95.6158 38.2019C95.5758 38.0679 95.508 37.9509 95.4126 37.8511C95.3172 37.7513 95.197 37.6739 95.0521 37.6188C94.9072 37.5636 94.7397 37.5361 94.5497 37.5361C94.245 37.5361 93.9419 37.6113 93.6404 37.7618C93.3405 37.9122 93.0664 38.1334 92.8181 38.4253C92.5719 38.7158 92.3784 39.0718 92.2376 39.4933C92.0958 39.9178 92.051 40.2753 92.1031 40.5658C92.1569 40.8562 92.2835 41.0767 92.4829 41.2271C92.6844 41.3761 92.9375 41.4506 93.2422 41.4506C93.4322 41.4506 93.6181 41.423 93.7998 41.3679C93.9815 41.3128 94.1532 41.2361 94.3148 41.1378C94.4769 41.038 94.6228 40.921 94.7524 40.787C94.8835 40.6529 94.9917 40.5077 95.0769 40.3513H95.5198C95.4104 40.5613 95.2711 40.7572 95.1021 40.9389C94.9351 41.1191 94.7457 41.277 94.534 41.4126C94.3238 41.5481 94.0985 41.6539 93.8579 41.7298C93.6174 41.8058 93.3684 41.8438 93.1108 41.8438C92.7057 41.8438 92.3781 41.7477 92.1282 41.5556C91.8788 41.3619 91.7233 41.0893 91.6617 40.7378C91.6017 40.3863 91.6515 39.9715 91.8112 39.4933C91.9709 39.0152 92.1982 38.6004 92.4931 38.2488C92.7895 37.8973 93.1269 37.6255 93.5051 37.4333C93.8839 37.2397 94.2758 37.1429 94.681 37.1429C94.9386 37.1429 95.1622 37.1808 95.352 37.2568C95.5423 37.3313 95.697 37.437 95.8161 37.5741C95.9373 37.7096 96.0212 37.8675 96.0678 38.0477C96.1159 38.228 96.1243 38.4238 96.0929 38.6354Z" fill="#E6EBF0"/>
<path d="M96.0769 41.7812L97.6052 37.2054H100.404L100.278 37.5808H97.9204L97.345 39.3034H99.5546L99.4292 39.6788H97.2196L96.6427 41.4059H99.0478L98.9224 41.7812H96.0769Z" fill="#E6EBF0"/>
<path d="M12.808 0H7.83297C5.44594 9.2466 0.671875 28.177 0.671875 29.9258C0.671875 31.6746 1.62669 31.9611 2.10409 31.8857H30.5223C31.6078 31.8857 32.2812 30.9309 32.4822 30.4535L39.8694 0H34.819L28.5624 25.7046H6.62689L12.808 0Z" fill="#9EA2A8"/>
<path d="M73.5643 0H43.4877L42.357 5.95501H67.5339C68.9209 5.95501 69.1671 6.35704 69.1169 6.55805L67.5339 13.3422H40.6986L36.2512 31.8857H41.5278L44.4676 19.1465H68.5138C70.2626 19.1465 71.3029 17.9404 71.6044 17.3374C72.5592 13.7443 74.6045 5.93994 75.1472 3.46748C75.69 0.995015 74.3181 0.125633 73.5643 0Z" fill="#9EA2A8"/>
<path d="M84.9466 0H79.5947L72.5089 31.8857H77.7855L84.9466 0Z" fill="#9EA2A8"/>
<path d="M101.001 16.1306L94.7443 0.300781L87.5078 31.5081L101.001 16.1306Z" fill="#107938"/>
<path d="M96.6285 16.2075L82.457 31.8112L89.9196 0.453125L96.6285 16.2075Z" fill="#EC7423"/>
</svg>
