<svg xmlns="http://www.w3.org/2000/svg" width="48" height="48" viewBox="0 0 48 48" fill="none">
<path d="M28.2599 22.6781C28.4475 21.9373 28.4395 21.1605 28.2366 20.4238C28.0337 19.6871 27.643 19.0157 27.1027 18.4754C26.5623 17.935 25.8909 17.5443 25.1542 17.3414C24.4175 17.1386 23.6407 17.1305 22.8999 17.3181C21.3599 17.6981 20.0999 18.9581 19.7199 20.4981C19.5324 21.2389 19.5404 22.0156 19.7433 22.7524C19.9461 23.4891 20.3369 24.1605 20.8772 24.7008C21.4175 25.2412 22.0889 25.6319 22.8257 25.8347C23.5624 26.0376 24.3392 26.0457 25.0799 25.8581C26.6399 25.4781 27.8999 24.2181 28.2599 22.6781Z" fill="var(--main-color)"/>
<path opacity="0.5" d="M12.0399 35.94C11.6799 35.94 11.2999 35.8 11.0199 35.54C9.09928 33.7565 7.56648 31.5966 6.51701 29.1949C5.46754 26.7931 4.92389 24.201 4.91992 21.58C4.91992 11.06 13.4799 2.5 23.9999 2.5C34.5199 2.5 43.0799 11.06 43.0799 21.58C43.0799 26.9 40.9399 31.82 37.0599 35.48C36.4599 36.04 35.4999 36.02 34.9399 35.42C34.3799 34.82 34.3999 33.86 34.9999 33.3C36.6096 31.807 37.8922 29.9965 38.7666 27.9826C39.641 25.9688 40.0882 23.7955 40.0799 21.6C40.0799 12.74 32.8599 5.52 23.9999 5.52C15.1399 5.52 7.91992 12.74 7.91992 21.6C7.91992 26.12 9.73992 30.28 13.0599 33.36C13.6599 33.92 13.6999 34.88 13.1399 35.48C12.8486 35.7729 12.453 35.9384 12.0399 35.94Z" fill="var(--main-color)"/>
<path d="M32 30.5979C31.7083 30.5977 31.423 30.5119 31.1795 30.3511C30.936 30.1904 30.7449 29.9618 30.63 29.6936C30.5151 29.4255 30.4813 29.1295 30.5328 28.8423C30.5844 28.5551 30.719 28.2894 30.92 28.0779C32.58 26.3179 33.5 23.9979 33.5 21.5979C33.5 16.3579 29.24 12.1179 24.02 12.1179C21.5074 12.1232 19.0992 13.1237 17.3225 14.9004C15.5458 16.6771 14.5453 19.0853 14.54 21.5979C14.54 24.0179 15.46 26.3179 17.12 28.0779C17.68 28.6779 17.66 29.6379 17.06 30.1979C16.46 30.7779 15.5 30.7379 14.94 30.1379C12.7596 27.8287 11.5434 24.7739 11.54 21.5979C11.54 14.7179 17.14 9.11792 24.02 9.11792C30.9 9.11792 36.5 14.7179 36.5 21.5979C36.5 24.7779 35.3 27.8179 33.1 30.1379C32.8087 30.4309 32.4131 30.5963 32 30.5979Z" fill="var(--main-color)"/>
<path d="M20.6004 33.322L17.7204 36.902C15.4404 39.762 17.4604 43.982 21.1204 43.982H26.8604C30.5204 43.982 32.5604 39.742 30.2604 36.902L27.3804 33.322C25.6604 31.142 22.3404 31.142 20.6004 33.322Z" fill="var(--main-color)"/>
</svg>