<svg width="48" height="48" viewBox="0 0 48 48" fill="none" xmlns="http://www.w3.org/2000/svg">
<path fill-rule="evenodd" clip-rule="evenodd" d="M48 24C48 37.2548 37.2548 48 24 48C10.7452 48 0 37.2548 0 24C0 10.7452 10.7452 0 24 0C37.2548 0 48 10.7452 48 24ZM26.1014 21.2149L32.7316 15.2706L14.4413 11.6125L26.1014 21.2149ZM35.0672 13.7646C34.9557 13.6994 34.8298 13.6506 34.6908 13.6228L11.706 9.02585C11.1479 8.91424 10.6909 9.17665 10.4502 9.57042C10.0728 9.87477 9.86981 10.396 10.0925 10.9501L22.4961 41.8149C22.812 42.6009 23.7011 42.7469 24.2811 42.3681C24.5174 42.3121 24.7439 42.1791 24.9273 41.9546L41.6796 21.4474C41.9048 21.1717 41.9816 20.8526 41.9453 20.553C42.0387 20.1556 41.9351 19.7107 41.5816 19.3908L35.6909 14.0611C35.5104 13.8978 35.2927 13.799 35.0672 13.7646ZM34.8833 16.0275L29.2389 21.0881L38.9707 19.7256L34.8833 16.0275ZM13.1172 13.1131L25.0686 22.9554L23.1715 38.132L13.1172 13.1131ZM38.8388 21.7637L25.1724 38.4932L27.0279 23.4171L38.8388 21.7637Z" fill="#221F2E"/>
</svg>
