<svg xmlns="http://www.w3.org/2000/svg" width="48" height="48" viewBox="0 0 48 48" fill="none">
<circle cx="24" cy="24" r="24" fill="var(--main-color)"/>
<path d="M35.3279 16.1143V10.4355H12.7242V16.1143H21.0574V19.8243C14.2835 20.1377 9.18262 21.5113 9.18262 23.1592C9.18262 24.8071 14.2835 26.1807 21.0574 26.4941V38.4008H26.9947V26.4914C33.7425 26.1732 38.8174 24.8023 38.8174 23.1592C38.8174 21.5161 33.7425 20.1446 26.9947 19.8269V16.1143H35.3279ZM36.2654 22.8238C36.2654 23.9076 32.3212 24.8167 26.9947 25.0691L26.6505 25.0841H26.6125L26.2895 25.0964H26.2546C26.0147 25.105 25.7717 25.1121 25.5255 25.1178H25.5104L25.1802 25.1248H25.087L24.8266 25.1285H23.1771L22.9193 25.1248H22.8297L22.5219 25.1184H22.4881C22.1231 25.1098 21.7636 25.0984 21.4094 25.0841H21.4048L21.0522 25.0685C15.6991 24.82 11.7294 23.9076 11.7294 22.8185C11.7294 21.7293 15.6997 20.8196 21.0522 20.5684V24.0126C21.9813 24.0624 22.9698 24.0898 23.9948 24.0898C25.0364 24.0898 26.0448 24.0619 26.9895 24.0099V20.5786C32.3207 20.8304 36.2654 21.74 36.2654 22.8238Z" fill="var(--bg_color_L2)"/>
</svg>