<svg xmlns="http://www.w3.org/2000/svg" width="48" height="48" viewBox="0 0 48 48" fill="none">
<path d="M23.3004 4.69612L12.7004 15.2961C12.3004 15.6961 12.3004 16.3161 12.7004 16.7161L15.2804 19.2961C15.6804 19.6961 16.3004 19.6961 16.7004 19.2961L23.2804 12.7161C23.6804 12.3161 24.3004 12.3161 24.7004 12.7161L31.2804 19.2961C31.6804 19.6961 32.3004 19.6961 32.7004 19.2961L35.2804 16.7161C35.6804 16.3161 35.6804 15.6961 35.2804 15.2961L24.7004 4.71612C24.3204 4.31612 23.6804 4.31612 23.3004 4.69612ZM23.3004 43.3001L12.7204 32.7201C12.3204 32.3201 12.3204 31.7001 12.7204 31.3001L15.3004 28.7201C15.7004 28.3201 16.3204 28.3201 16.7204 28.7201L23.3004 35.3001C23.7004 35.7001 24.3204 35.7001 24.7204 35.3001L31.3004 28.7201C31.7004 28.3201 32.3204 28.3201 32.7204 28.7201L35.3004 31.3001C35.7004 31.7001 35.7004 32.3201 35.3004 32.7201L24.7204 43.3001C24.3204 43.6801 23.6804 43.6801 23.3004 43.3001Z" fill="var(--main-color)"/>
<path opacity="0.5" d="M40.2004 20.196L43.2804 23.276C43.6804 23.676 43.6804 24.296 43.2804 24.696L40.2004 27.796C39.8004 28.196 39.1804 28.196 38.7804 27.796L35.7004 24.716C35.3004 24.316 35.3004 23.696 35.7004 23.296L38.7804 20.216C39.1804 19.816 39.8204 19.816 40.2004 20.196ZM9.20039 20.2L12.2804 23.28C12.6804 23.68 12.6804 24.3 12.2804 24.7L9.20039 27.8C8.80039 28.2 8.18039 28.2 7.78039 27.8L4.70039 24.72C4.30039 24.32 4.30039 23.7 4.70039 23.3L7.80039 20.2C8.18039 19.82 8.82039 19.82 9.20039 20.2ZM24.7004 19.76L28.2404 23.3C28.6404 23.7 28.6404 24.32 28.2404 24.72L24.7004 28.26C24.3004 28.66 23.6804 28.66 23.2804 28.26L19.7404 24.72C19.3404 24.32 19.3404 23.7 19.7404 23.3L23.2804 19.76C23.6804 19.36 24.3204 19.36 24.7004 19.76Z" fill="var(--main-color)"/>
</svg>