<svg xmlns="http://www.w3.org/2000/svg" width="42" height="42" viewBox="0 0 42 42" fill="none">
<circle opacity="0.5" cx="21" cy="21" r="20" stroke="var(--main-color)" stroke-width="2"/>
<path d="M31.1591 13.9751V9H11.1371V13.9751H18.5185V17.2253C12.5183 17.4999 8 18.7033 8 20.147C8 21.5907 12.5183 22.7942 18.5185 23.0687V33.5H23.7777V23.0664C29.7547 22.7876 34.25 21.5865 34.25 20.147C34.25 18.7075 29.7547 17.506 23.7777 17.2277V13.9751H31.1591ZM31.9895 19.8532C31.9895 20.8027 28.4958 21.5992 23.7777 21.8203L23.4727 21.8334H23.4391L23.153 21.8442H23.1221C22.9096 21.8517 22.6943 21.858 22.4763 21.863H22.4629L22.1704 21.8691H22.0878L21.8571 21.8724H20.3961L20.1677 21.8691H20.0884L19.8157 21.8634H19.7857C19.4625 21.8559 19.144 21.8459 18.8303 21.8334H18.8262L18.5138 21.8198C13.7722 21.602 10.2559 20.8027 10.2559 19.8485C10.2559 18.8943 13.7727 18.0974 18.5138 17.8773V20.8947C19.3369 20.9384 20.2125 20.9623 21.1204 20.9623C22.0431 20.9623 22.9362 20.9379 23.7731 20.8924V17.8862C28.4953 18.1068 31.9895 18.9037 31.9895 19.8532Z" fill="var(--main-color)"/>
</svg>