<svg width="48" height="48" viewBox="0 0 48 48" fill="none" xmlns="http://www.w3.org/2000/svg">
<g id="login_list_icon">
<path id="Vector" opacity="0.4" d="M36.656 11.34L13.176 34.82C12.296 35.7 10.816 35.58 10.096 34.54C7.61601 30.92 6.15601 26.64 6.15601 22.24V13.46C6.15601 11.82 7.39601 9.96 8.91601 9.34L20.056 4.78C21.2988 4.26503 22.6308 3.99998 23.976 3.99998C25.3212 3.99998 26.6533 4.26503 27.896 4.78L35.976 8.08C37.316 8.62 37.656 10.34 36.656 11.34Z" fill="currentColor"/>
<path id="Vector_2" d="M38.54 14.084C39.84 12.984 41.82 13.924 41.82 15.624V22.244C41.82 32.024 34.72 41.184 25.02 43.864C24.36 44.044 23.64 44.044 22.96 43.864C20.1526 43.0755 17.5242 41.7512 15.22 39.964C14.26 39.224 14.16 37.824 15 36.964C19.36 32.504 32.12 19.504 38.54 14.084Z" fill="currentColor"/>
</g>
</svg>
