<svg width="40" height="40" viewBox="0 0 40 40" fill="none" xmlns="http://www.w3.org/2000/svg">
<path d="M0 13.5467C0 12.8031 0.262051 12.1728 0.786154 11.658C1.31077 11.1426 1.94103 10.8851 2.67846 10.8851H5.3559V22.9487H2.67795C1.94103 22.9487 1.31077 22.6913 0.786154 22.1759C0.262051 21.6605 0 21.0308 0 20.2867V13.5467ZM29.7554 2.47078C30.9744 1.29744 32.0795 0.653342 33.0718 0.53847C34.0636 0.423598 34.9421 0.688726 35.7077 1.33232C36.4723 1.97642 37.1241 2.92103 37.6626 4.16565C38.201 5.41078 38.64 6.79898 38.9805 8.32975C39.3294 9.91631 39.5849 11.522 39.7456 13.1385C39.9154 14.8128 40.0005 16.4082 40.0005 17.9251C40.0005 19.4421 39.8944 20.959 39.6815 22.4759C39.4692 23.9928 39.1574 25.4164 38.7467 26.7477C38.3354 28.0785 37.8538 29.2446 37.301 30.2462C36.7487 31.2482 36.1323 31.9923 35.4523 32.4785C34.7723 32.9656 34.0421 33.1369 33.2626 32.9939C32.4836 32.8508 31.6687 32.2928 30.819 31.3195C29.9969 30.3467 28.8846 29.538 27.4821 28.8939C26.079 28.2503 24.5487 27.7062 22.8913 27.2631C21.2317 26.8189 19.5503 26.4605 17.8538 26.1892C16.1533 25.9174 14.5949 25.6744 13.1779 25.4595C11.761 25.2446 10.5779 25.0374 9.62872 24.8369C8.67949 24.6369 8.14769 24.3933 8.03436 24.1072V10.6703C8.14769 10.2698 8.59436 9.94052 9.37333 9.68309C10.1528 9.42565 11.1446 9.18206 12.3492 8.95334C13.5533 8.72411 14.9133 8.47386 16.4297 8.20206C17.9942 7.91848 19.5412 7.54573 21.0631 7.08565C22.6464 6.60931 24.1888 6.00634 25.6754 5.28257C27.1702 4.55759 28.5461 3.60948 29.7559 2.47078H29.7554ZM14.4528 28.7872C14.5944 29.1308 14.7646 29.5026 14.9626 29.9036C15.1685 30.3436 15.3956 30.7733 15.6431 31.1913C15.9625 31.7338 16.3029 32.2636 16.6636 32.7795C17.1446 33.4667 17.6338 34.1898 18.1297 34.9477C18.6256 35.7067 19.0015 36.3933 19.2559 37.0087C19.5113 37.6241 19.5892 38.1318 19.4897 38.5323C19.3908 38.9333 18.9872 39.1333 18.2785 39.1333H15.8554C15.2887 39.1333 14.7646 39.0262 14.2826 38.8118C13.8005 38.5964 13.3405 38.2682 12.901 37.8241C12.4621 37.3805 12.0087 36.8154 11.541 36.1282C11.0733 35.441 10.5703 34.6256 10.0318 33.681C9.38051 32.5939 8.92667 31.6421 8.67179 30.8267C8.41641 30.0108 8.24615 29.3308 8.16154 28.7872C8.04821 28.1574 8.04821 27.6139 8.16154 27.1559C8.3882 27.1846 8.65744 27.2415 8.96923 27.3277C9.2241 27.3846 9.5359 27.4559 9.90462 27.5421C10.2728 27.6282 10.6979 27.7139 11.1795 27.8C11.6615 27.9144 12.0933 28.0215 12.4759 28.1215C12.8585 28.2221 13.2056 28.3292 13.5174 28.4436C13.8325 28.5489 14.1445 28.6635 14.4528 28.7872Z" fill="url(#paint0_linear_19_15864)"/>
<defs>
<linearGradient id="paint0_linear_19_15864" x1="20.0003" y1="0.512421" x2="20.0003" y2="39.1333" gradientUnits="userSpaceOnUse">
<stop stop-color="#F84948"/>
<stop offset="1" stop-color="#FF7857"/>
</linearGradient>
</defs>
</svg>
