<svg xmlns="http://www.w3.org/2000/svg" width="36" height="36" viewBox="0 0 36 36" fill="none">
<g clip-path="url(#clip0_2123_4419)">
<path fill-rule="evenodd" clip-rule="evenodd" d="M13.4844 8.97668L23.8363 3L27.2956 8.99168L13.4844 8.97668Z" fill="#80849C"/>
<path d="M3 10.5C3 9.67155 3.67157 9 4.5 9H31.5C32.3284 9 33 9.67155 33 10.5V31.5C33 32.3284 32.3284 33 31.5 33H4.5C3.67157 33 3 32.3284 3 31.5V10.5Z" fill="#001534"/>
<path fill-rule="evenodd" clip-rule="evenodd" d="M33.5625 25.5H27C24.8254 25.5 23.0625 23.8211 23.0625 21.75C23.0625 19.679 24.8254 18 27 18H33.5625V25.5ZM26.3848 22.75C27.0061 22.75 27.5098 22.2463 27.5098 21.625C27.5098 21.0037 27.0061 20.5 26.3848 20.5C25.7634 20.5 25.2598 21.0037 25.2598 21.625C25.2598 22.2463 25.7634 22.75 26.3848 22.75Z" fill="#80849C"/>
</g>
<defs>
<clipPath id="clip0_2123_4419">
<rect width="36" height="36" fill="white"/>
</clipPath>
</defs>
</svg>