<svg width="48" height="48" viewBox="0 0 48 48" fill="none" xmlns="http://www.w3.org/2000/svg">
<path fill-rule="evenodd" clip-rule="evenodd" d="M31.9052 13.5132L28.7207 8.05765C28.5692 7.79815 28.3202 7.60915 28.0292 7.53415C27.7397 7.46215 27.4292 7.50415 27.1712 7.65865L17.4362 13.4997L31.9052 13.5132ZM10.5 15C9.675 15 9 14.325 9 13.5C9 12.675 9.675 12 10.5 12H15.555L20.565 9H10.5C8.28 9 6.435 10.62 6.075 12.75C6.06799 12.778 6.06016 12.8061 6.05228 12.8343L6.05228 12.8343C6.02643 12.9269 6 13.0215 6 13.125V36C6 38.475 8.025 40.5 10.5 40.5H36C37.65 40.5 39 39.15 39 37.5V34.5H35.25C31.53 34.5 28.5 31.47 28.5 27.75C28.5 24.03 31.53 21 35.25 21H39V18C39 16.35 37.65 15 36 15H10.5ZM34.5 12C34.5 10.485 33.375 9.225 31.905 9.03L34.5 13.5V12ZM35.25 23.25H40.875C41.496 23.25 42 23.754 42 24.375V31.125C42 31.746 41.496 32.25 40.875 32.25H35.25C32.769 32.25 30.75 30.231 30.75 27.75C30.75 25.269 32.769 23.25 35.25 23.25ZM33.75 27.75C33.75 28.578 34.422 29.25 35.25 29.25C36.078 29.25 36.75 28.578 36.75 27.75C36.75 26.922 36.078 26.25 35.25 26.25C34.422 26.25 33.75 26.922 33.75 27.75Z" fill="url(#paint0_linear_12182_56533)"/>
<defs>
<linearGradient id="paint0_linear_12182_56533" x1="26.0571" y1="40.5" x2="26.0571" y2="7.5" gradientUnits="userSpaceOnUse">
<stop offset="0.201885" stop-color="var(--main-color)"/>
<stop offset="1" stop-color="var(--main-color)"/>
</linearGradient>
</defs>
</svg>
