<svg width="48" height="49" viewBox="0 0 48 49" fill="none" xmlns="http://www.w3.org/2000/svg">
<path d="M6.14063 11.5725C6.14062 12.5106 6.60251 13.4394 7.49992 14.306C8.39732 15.1726 9.71267 15.96 11.3709 16.6233C13.029 17.2866 14.9976 17.8127 17.1641 18.1717C19.3307 18.5306 21.6527 18.7154 23.9978 18.7154C26.3428 18.7154 28.6649 18.5306 30.8314 18.1717C32.9979 17.8127 34.9665 17.2866 36.6247 16.6233C38.2829 15.96 39.5982 15.1726 40.4956 14.306C41.393 13.4394 41.8549 12.5106 41.8549 11.5725C41.8549 10.6345 41.393 9.7057 40.4956 8.83909C39.5982 7.97248 38.2829 7.18506 36.6247 6.52178C34.9665 5.85851 32.9979 5.33237 30.8314 4.97341C28.6649 4.61444 26.3428 4.42969 23.9978 4.42969C21.6527 4.42969 19.3307 4.61444 17.1641 4.97341C14.9976 5.33237 13.029 5.85851 11.3709 6.52178C9.71267 7.18506 8.39732 7.97248 7.49992 8.83909C6.60251 9.7057 6.14062 10.6345 6.14063 11.5725Z" fill="var(--main-color)"/>
<path opacity="0.4" d="M40.3692 17.2891C37.6138 19.8118 31.3192 21.5748 23.9978 21.5748C16.6763 21.5748 10.3817 19.8118 7.62634 17.2891C6.67098 18.1641 6.14062 19.1301 6.14062 20.1462C6.14062 24.0913 14.1357 27.2891 23.9978 27.2891C33.8598 27.2891 41.8549 24.0913 41.8549 20.1462C41.8549 19.1301 41.3246 18.1641 40.3692 17.2891Z" fill="var(--main-color)"/>
<path opacity="0.4" d="M40.3692 25.8555C37.6138 28.3782 31.3192 30.1412 23.9978 30.1412C16.6763 30.1412 10.3817 28.3782 7.62634 25.8555C6.67098 26.7305 6.14062 27.6965 6.14062 28.7126C6.14062 32.6577 14.1357 35.8555 23.9978 35.8555C33.8598 35.8555 41.8549 32.6577 41.8549 28.7126C41.8549 27.6965 41.3246 26.7305 40.3692 25.8555Z" fill="var(--main-color)"/>
<path opacity="0.4" d="M40.3692 34.4297C37.6138 36.9525 31.3192 38.7154 23.9978 38.7154C16.6763 38.7154 10.3817 36.9525 7.62634 34.4297C6.67098 35.3047 6.14062 36.2708 6.14062 37.2868C6.14062 41.2319 14.1357 44.4297 23.9978 44.4297C33.8598 44.4297 41.8549 41.2319 41.8549 37.2868C41.8549 36.2708 41.3246 35.3047 40.3692 34.4297Z" fill="var(--main-color)"/>
</svg>
