<svg width="48" height="49" viewBox="0 0 48 49" fill="none" xmlns="http://www.w3.org/2000/svg">
<g clip-path="url(#clip0_4808_6957)">
<rect opacity="0.4" x="4" y="4.42969" width="40" height="40" rx="4" fill="var(--main-color)"/>
<path d="M12 14.4297C13.1046 14.4297 14 13.5343 14 12.4297C14 11.3251 13.1046 10.4297 12 10.4297C10.8954 10.4297 10 11.3251 10 12.4297C10 13.5343 10.8954 14.4297 12 14.4297Z" fill="weal4"/>
<path d="M12 38.4297C13.1046 38.4297 14 37.5343 14 36.4297C14 35.3251 13.1046 34.4297 12 34.4297C10.8954 34.4297 10 35.3251 10 36.4297C10 37.5343 10.8954 38.4297 12 38.4297Z" fill="var(--main-color)"/>
<path d="M36 14.4297C37.1046 14.4297 38 13.5343 38 12.4297C38 11.3251 37.1046 10.4297 36 10.4297C34.8954 10.4297 34 11.3251 34 12.4297C34 13.5343 34.8954 14.4297 36 14.4297Z" fill="var(--main-color)"/>
<path d="M36 38.4297C37.1046 38.4297 38 37.5343 38 36.4297C38 35.3251 37.1046 34.4297 36 34.4297C34.8954 34.4297 34 35.3251 34 36.4297C34 37.5343 34.8954 38.4297 36 38.4297Z" fill="var(--main-color)"/>
<path d="M24 33.4297C28.9706 33.4297 33 29.4003 33 24.4297C33 19.4591 28.9706 15.4297 24 15.4297C19.0294 15.4297 15 19.4591 15 24.4297C15 29.4003 19.0294 33.4297 24 33.4297Z" fill="var(--main-color)" stroke="var(--main-color)" stroke-width="2" stroke-linecap="round" stroke-linejoin="round"/>
</g>
<defs>
<clipPath id="clip0_4808_6957">
<rect y="0.429688" width="48" height="48" rx="16" fill="white"/>
</clipPath>
</defs>
</svg>
