<svg width="48" height="48" viewBox="0 0 48 48" fill="none" xmlns="http://www.w3.org/2000/svg">
<path opacity="0.4" d="M2 10C2 7.79086 3.79086 6 6 6H36.5C38.7091 6 40.5 7.79086 40.5 10V38C40.5 40.2091 38.7091 42 36.5 42H6C3.79086 42 2 40.2091 2 38V10Z" fill="#F3BD0B"/>
<path opacity="0.4" d="M28.6576 32.8055H41.536C43.6288 32.8055 45.3256 31.1087 45.3256 29.0159V19.2095C45.3256 17.1167 43.6288 15.4199 41.536 15.4199H28.6576C23.8576 15.4199 19.9648 19.3127 19.9648 24.1127C19.9648 28.9127 23.8552 32.8055 28.6576 32.8055Z" fill="#F3BD0B"/>
<path fill-rule="evenodd" clip-rule="evenodd" d="M28.6576 15.4219H40.4249V32.8075H28.6576C23.8576 32.8075 19.9648 28.9147 19.9648 24.1147C19.9648 19.3147 23.8576 15.4219 28.6576 15.4219ZM27.629 25.6672C27.2162 25.2544 26.9844 24.6946 26.9844 24.111C26.9844 23.5273 27.2162 22.9675 27.629 22.5548C28.0417 22.142 28.6015 21.9102 29.1852 21.9102C29.7689 21.9102 30.3287 22.142 30.7414 22.5548C31.1541 22.9675 31.386 23.5273 31.386 24.111C31.386 24.6946 31.1541 25.2544 30.7414 25.6672C30.3287 26.0799 29.7689 26.3118 29.1852 26.3118C28.6015 26.3118 28.0417 26.0799 27.629 25.6672Z" fill="#F3BD0B"/>
</svg>
