<svg width="48" height="48" viewBox="0 0 48 48" fill="none" xmlns="http://www.w3.org/2000/svg">
<g id="icon">
<g id="icon_2">
<path id="Subtract" opacity="0.4" fill-rule="evenodd" clip-rule="evenodd" d="M44.7999 31.9998V15.1998C44.7999 9.5006 41.3263 5.52778 35.9599 4.90378C35.4607 4.82058 34.9408 4.7998 34.4 4.7998H13.6C13.0176 4.7998 12.456 4.8414 11.9152 4.9246C6.61115 5.5902 3.19995 9.5422 3.19995 15.1998V17.9495C4.85682 15.8064 7.64257 14.3998 10.8 14.3998C13.3476 14.3998 15.6406 15.307 17.3107 16.7758C18.9667 18.259 20 20.2892 20 22.5356V29.7357V35.0637C20 38.2949 17.8696 41.0867 14.783 42.3998H34.4C40.6399 42.3998 44.7999 38.2398 44.7999 31.9998Z" fill="#F95959"/>
<path id="Vector" d="M18.3999 30.3999V34.5154C18.3999 37.9858 14.8184 40.7999 10.3999 40.7999C5.98144 40.7999 2.3999 37.9858 2.3999 34.5154V30.3999C2.3999 33.8703 5.98144 36.3507 10.3999 36.3507C14.8184 36.3507 18.3999 33.8703 18.3999 30.3999Z" fill="#F95959"/>
<path id="Vector_2" opacity="0.4" d="M18.3999 23.1997V29.3833C18.3999 33.2418 14.8184 35.9997 10.3999 35.9997C5.98144 35.9997 2.3999 33.2418 2.3999 29.3833V23.1997C2.3999 24.3251 2.70759 25.364 3.24913 26.2544C4.56606 28.431 7.27375 29.8161 10.3999 29.8161C13.5261 29.8161 16.2337 28.431 17.5507 26.2544C18.0922 25.364 18.3999 24.3251 18.3999 23.1997Z" fill="#F95959"/>
<path id="Vector_3" d="M18.3999 23.7853C18.3999 24.9104 18.0922 25.9489 17.5507 26.8391C16.2337 29.0151 13.5261 30.3998 10.3999 30.3998C7.27375 30.3998 4.56606 29.0151 3.24913 26.8391C2.70759 25.9489 2.3999 24.9104 2.3999 23.7853C2.3999 19.9278 5.98144 16.7998 10.3999 16.7998C12.6153 16.7998 14.6091 17.5787 16.0614 18.8398C17.5014 20.1133 18.3999 21.8565 18.3999 23.7853Z" fill="#F95959"/>
<path id="Vector_4" d="M44.8 18.3999H36.64C33.648 18.3999 31.2 20.7399 31.2 23.5999C31.2 26.4599 33.648 28.7999 36.64 28.7999H44.8" fill="#F95959"/>
</g>
</g>
</svg>
