<svg width="48" height="48" viewBox="0 0 48 48" fill="none" xmlns="http://www.w3.org/2000/svg">
<g id="icon">
<path id="Vector" opacity="0.8" d="M25.7999 5.03627L25.7399 5.17627L19.9399 18.6363H14.2399C12.8799 18.6363 11.5999 18.8963 10.3999 19.4163L13.8999 11.0563L13.9799 10.8763L14.0999 10.5563C14.1599 10.4163 14.1999 10.2963 14.2599 10.1963C16.8799 4.13627 19.8399 2.75627 25.7999 5.03627Z" fill="#F87700"/>
<path id="Vector_2" d="M36.5782 19.04C35.6782 18.78 34.7382 18.64 33.7582 18.64H19.9382L25.7382 5.18004L25.7982 5.04004C26.0782 5.14004 26.3782 5.28004 26.6782 5.38004L31.0982 7.24004C33.5582 8.26004 35.2782 9.32004 36.3382 10.6C36.5182 10.84 36.6782 11.06 36.8382 11.32C37.0182 11.6 37.1582 11.88 37.2382 12.18C37.3182 12.36 37.3782 12.52 37.4182 12.7C37.9382 14.4 37.6182 16.46 36.5782 19.04Z" fill="#F87700"/>
<path id="Vector_3" opacity="0.4" d="M43.5158 28.3996V32.2996C43.5158 32.6996 43.4958 33.0996 43.4758 33.4796C43.0958 40.4796 39.1958 43.9996 31.7958 43.9996H16.1958C15.6958 43.9996 15.2358 43.9597 14.7758 43.8997C8.41583 43.4797 5.01583 40.0797 4.57583 33.7197C4.51583 33.2397 4.47583 32.7796 4.47583 32.2996V28.3996C4.47583 24.3796 6.91583 20.9196 10.3958 19.4196C11.5958 18.8996 12.8758 18.6396 14.2358 18.6396H33.7558C34.7358 18.6396 35.6758 18.7796 36.5758 19.0396C38.582 19.6518 40.3388 20.8914 41.588 22.5762C42.8372 24.261 43.513 26.3022 43.5158 28.3996Z" fill="#F87700"/>
<path id="Vector_4" opacity="0.6" d="M13.8958 11.0625L10.3958 19.4225C8.64005 20.1778 7.14384 21.4307 6.09182 23.0265C5.03981 24.6223 4.47804 26.4911 4.47583 28.4025V22.5425C4.47583 16.8625 8.51583 12.1225 13.8958 11.0625ZM43.5198 22.5405V28.4005C43.517 26.3031 42.8412 24.2619 41.592 22.577C40.3428 20.8922 38.586 19.6526 36.5798 19.0405C37.6198 16.4605 37.9398 14.4005 37.4198 12.7005C37.3798 12.5205 37.3198 12.3605 37.2398 12.1805C39.1338 13.168 40.7208 14.656 41.828 16.4826C42.9353 18.3092 43.5204 20.4045 43.5198 22.5405Z" fill="#F87700"/>
</g>
</svg>
