<svg xmlns="http://www.w3.org/2000/svg" width="48" height="48" viewBox="0 0 48 48" fill="none">
  <path fill-rule="evenodd" clip-rule="evenodd"
    d="M17 7H31V10C31 11.1046 31.8954 12 33 12C34.1046 12 35 11.1046 35 10V7H39C41.2091 7 43 8.79086 43 11V16H5V11C5 8.79086 6.79086 7 9 7H13V10C13 11.1046 13.8954 12 15 12C16.1046 12 17 11.1046 17 10V7ZM5 18V39C5 41.2091 6.79086 43 9 43H39C41.2091 43 43 41.2091 43 39V18H5Z"
    fill="var(--main-color)" />
  <path fill-rule="evenodd" clip-rule="evenodd"
    d="M32.6961 24.2821C33.0926 24.6666 33.1024 25.2997 32.7179 25.6961L22.0512 36.6961C21.8629 36.8904 21.6039 37 21.3333 37C21.0628 37 20.8038 36.8904 20.6154 36.6961L15.2821 31.1961C14.8976 30.7997 14.9074 30.1666 15.3039 29.7821C15.7003 29.3976 16.3334 29.4074 16.7179 29.8039L21.3333 32.5635L31.2821 24.3039C31.6666 23.9074 32.2997 23.8976 32.6961 24.2821Z"
    fill="#221F2E" />
  <path
    d="M13.5 6C13.5 5.17157 14.1716 4.5 15 4.5C15.8284 4.5 16.5 5.17157 16.5 6V10C16.5 10.8284 15.8284 11.5 15 11.5C14.1716 11.5 13.5 10.8284 13.5 10V6Z"
    fill="var(--main-color)" />
  <path
    d="M31.5 6C31.5 5.17157 32.1716 4.5 33 4.5C33.8284 4.5 34.5 5.17157 34.5 6V10C34.5 10.8284 33.8284 11.5 33 11.5C32.1716 11.5 31.5 10.8284 31.5 10V6Z"
    fill="var(--main-color)" />
</svg>