<svg width="48" height="48" viewBox="0 0 48 48" fill="none" xmlns="http://www.w3.org/2000/svg">
<g id="Frame">
<path id="Vector" d="M41.175 44.2923H6.91875C5.11875 44.2923 3.65625 42.8298 3.65625 41.0298V6.8251C3.65625 4.99697 5.14688 3.50635 6.975 3.50635H41.1562C42.9656 3.50635 44.4375 4.97822 44.4375 6.7876V41.0251C44.4375 42.8251 42.975 44.2923 41.175 44.2923ZM6.97031 5.38135C6.17344 5.38135 5.52656 6.02822 5.52656 6.8251V41.0251C5.52656 41.7892 6.15 42.4126 6.91406 42.4126H41.1703C41.9344 42.4126 42.5578 41.7892 42.5578 41.0251V6.7876C42.5578 6.01416 41.925 5.38135 41.1516 5.38135H6.97031Z" fill="#F95959"/>
<path id="Vector_2" d="M9.01367 8.98145H38.9527V38.9205H9.01367V8.98145Z" fill="#F95959"/>
<path id="Vector_3" d="M7.26562 13.9546H10.7344V20.953H7.26562V13.9546ZM7.26562 26.9624H10.7344V33.9608H7.26562V26.9624Z" fill="white"/>
<path id="Vector_4" d="M38.2684 7.90771H9.88555C8.87305 7.90771 8.05742 8.72803 8.05742 9.73584V12.7405H7.25586C6.76367 12.7405 6.36523 13.139 6.36523 13.6312V21.0421C6.36523 21.5343 6.76367 21.9327 7.25586 21.9327H8.05742V25.8655H7.25586C6.76367 25.8655 6.36523 26.264 6.36523 26.7562V34.1671C6.36523 34.6593 6.76367 35.0577 7.25586 35.0577H8.05742V38.1374C8.05742 39.103 8.84023 39.8905 9.81055 39.8905H38.2871C39.2527 39.8905 40.0402 39.1077 40.0402 38.1374V9.67959C40.0355 8.6999 39.2434 7.90771 38.2684 7.90771ZM7.77148 20.339V14.3343C7.77148 14.2312 7.85586 14.1468 7.95898 14.1468H10.073C10.1762 14.1468 10.2605 14.2312 10.2605 14.3343V20.339C10.2605 20.4421 10.1762 20.5265 10.073 20.5265H7.95898C7.85586 20.5265 7.77148 20.4421 7.77148 20.339ZM7.77148 33.464V27.4593C7.77148 27.3562 7.85586 27.2718 7.95898 27.2718H10.073C10.1762 27.2718 10.2605 27.3562 10.2605 27.4593V33.464C10.2605 33.5671 10.1762 33.6515 10.073 33.6515H7.95898C7.85586 33.6515 7.77148 33.5671 7.77148 33.464ZM38.1605 38.0155H9.92773V35.0577H10.7574C11.2496 35.0577 11.648 34.6593 11.648 34.1671V26.7562C11.648 26.264 11.2496 25.8655 10.7574 25.8655H9.92773V21.9327H10.7574C11.2496 21.9327 11.648 21.5343 11.648 21.0421V13.6312C11.648 13.139 11.2496 12.7405 10.7574 12.7405H9.92773V9.78271H38.1605V38.0155Z" fill="#F95959"/>
<path id="Vector_5" d="M21.5059 23.9579C21.5059 24.7446 21.6608 25.5236 21.9619 26.2504C22.2629 26.9772 22.7042 27.6376 23.2605 28.1939C23.8168 28.7502 24.4772 29.1915 25.204 29.4925C25.9308 29.7936 26.7098 29.9485 27.4965 29.9485C28.2832 29.9485 29.0622 29.7936 29.789 29.4925C30.5158 29.1915 31.1762 28.7502 31.7325 28.1939C32.2888 27.6376 32.73 26.9772 33.0311 26.2504C33.3322 25.5236 33.4871 24.7446 33.4871 23.9579C33.4871 22.3691 32.856 20.8454 31.7325 19.7219C30.609 18.5984 29.0853 17.9673 27.4965 17.9673C25.9077 17.9673 24.3839 18.5984 23.2605 19.7219C22.137 20.8454 21.5059 22.3691 21.5059 23.9579Z" fill="white"/>
<path id="Vector_6" d="M36.2442 27.5905L34.6224 26.653C34.9739 25.8046 35.1708 24.8718 35.1708 23.8968C35.1708 22.9218 34.9739 21.989 34.6224 21.1405L36.2442 20.203C36.6942 19.9452 36.8442 19.3687 36.5864 18.9233C36.3286 18.4733 35.7521 18.3233 35.3067 18.5812L33.6849 19.5187C32.5505 18.0421 30.8536 17.0155 28.9177 16.7624V14.8921C28.9177 14.3765 28.4958 13.9546 27.9802 13.9546C27.4646 13.9546 27.0427 14.3765 27.0427 14.8921V16.7624C25.1067 17.0155 23.4099 18.0421 22.2755 19.5187L20.6536 18.5812C20.2036 18.3233 19.6317 18.478 19.3739 18.9233C19.1161 19.3733 19.2708 19.9452 19.7161 20.203L21.338 21.1405C20.9864 21.989 20.7895 22.9218 20.7895 23.8968C20.7895 24.8718 20.9864 25.8046 21.338 26.653L19.7161 27.5905C19.2661 27.8483 19.1161 28.4249 19.3739 28.8702C19.5474 29.1702 19.8614 29.339 20.1849 29.339C20.3442 29.339 20.5036 29.2968 20.6536 29.2124L22.2755 28.2749C23.4099 29.7515 25.1067 30.778 27.0427 31.0312V32.9062C27.0427 33.4218 27.4646 33.8437 27.9802 33.8437C28.4958 33.8437 28.9177 33.4218 28.9177 32.9062V31.0358C30.8536 30.7827 32.5505 29.7562 33.6849 28.2796L35.3067 29.2171C35.4521 29.3015 35.6161 29.3437 35.7755 29.3437C36.0989 29.3437 36.413 29.1749 36.5864 28.8749C36.8442 28.4202 36.6942 27.8483 36.2442 27.5905ZM27.9755 29.264C25.013 29.264 22.613 26.864 22.613 23.9015C22.613 20.939 25.013 18.539 27.9755 18.539C30.938 18.539 33.338 20.939 33.338 23.9015C33.338 26.864 30.938 29.264 27.9755 29.264Z" fill="white"/>
<path id="Vector_7" d="M27.9563 27.7642C25.8235 27.7642 24.0891 26.0298 24.0891 23.897C24.0891 21.7642 25.8235 20.0298 27.9563 20.0298C30.0891 20.0298 31.8235 21.7642 31.8235 23.897C31.8235 26.0298 30.0844 27.7642 27.9563 27.7642ZM27.9563 21.9095C26.8594 21.9095 25.9641 22.8001 25.9641 23.9017C25.9641 24.9985 26.8547 25.8938 27.9563 25.8938C29.0579 25.8938 29.9485 25.0032 29.9485 23.9017C29.9438 22.8001 29.0532 21.9095 27.9563 21.9095Z" fill="#F95959"/>
</g>
</svg>
