<svg xmlns="http://www.w3.org/2000/svg" width="48" height="48" viewBox="0 0 48 48" fill="none">
  <path
    d="M41.175 44.2918H6.91875C5.11875 44.2918 3.65625 42.8293 3.65625 41.0293V6.82461C3.65625 4.99648 5.14688 3.50586 6.975 3.50586H41.1562C42.9656 3.50586 44.4375 4.97773 44.4375 6.78711V41.0246C44.4375 42.8246 42.975 44.2918 41.175 44.2918ZM6.97031 5.38086C6.17344 5.38086 5.52656 6.02773 5.52656 6.82461V41.0246C5.52656 41.7887 6.15 42.4121 6.91406 42.4121H41.1703C41.9344 42.4121 42.5578 41.7887 42.5578 41.0246V6.78711C42.5578 6.01367 41.925 5.38086 41.1516 5.38086H6.97031Z"
    fill="var(--main-color)" />
  <path d="M9.01562 8.98047H38.9547V38.9195H9.01562V8.98047Z" fill="var(--main-color)" />
  <path d="M7.26562 13.9551H10.7344V20.9535H7.26562V13.9551ZM7.26562 26.9629H10.7344V33.9613H7.26562V26.9629Z"
    fill="#221F2E" />
  <path
    d="M38.2703 7.9082H9.8875C8.875 7.9082 8.05937 8.72852 8.05937 9.73633V12.741H7.25781C6.76562 12.741 6.36719 13.1395 6.36719 13.6316V21.0426C6.36719 21.5348 6.76562 21.9332 7.25781 21.9332H8.05937V25.866H7.25781C6.76562 25.866 6.36719 26.2645 6.36719 26.7566V34.1676C6.36719 34.6598 6.76562 35.0582 7.25781 35.0582H8.05937V38.1379C8.05937 39.1035 8.84219 39.891 9.8125 39.891H38.2891C39.2547 39.891 40.0422 39.1082 40.0422 38.1379V9.68008C40.0375 8.70039 39.2453 7.9082 38.2703 7.9082ZM7.77344 20.3395V14.3348C7.77344 14.2316 7.85781 14.1473 7.96094 14.1473H10.075C10.1781 14.1473 10.2625 14.2316 10.2625 14.3348V20.3395C10.2625 20.4426 10.1781 20.527 10.075 20.527H7.96094C7.85781 20.527 7.77344 20.4426 7.77344 20.3395ZM7.77344 33.4645V27.4598C7.77344 27.3566 7.85781 27.2723 7.96094 27.2723H10.075C10.1781 27.2723 10.2625 27.3566 10.2625 27.4598V33.4645C10.2625 33.5676 10.1781 33.652 10.075 33.652H7.96094C7.85781 33.652 7.77344 33.5676 7.77344 33.4645ZM38.1625 38.016H9.92969V35.0582H10.7594C11.2516 35.0582 11.65 34.6598 11.65 34.1676V26.7566C11.65 26.2645 11.2516 25.866 10.7594 25.866H9.92969V21.9332H10.7594C11.2516 21.9332 11.65 21.5348 11.65 21.0426V13.6316C11.65 13.1395 11.2516 12.741 10.7594 12.741H9.92969V9.7832H38.1625V38.016Z"
    fill="var(--main-color)" />
  <path
    d="M21.5078 23.9574C21.5078 24.7441 21.6628 25.5231 21.9638 26.2499C22.2649 26.9768 22.7061 27.6372 23.2624 28.1934C23.8187 28.7497 24.4791 29.191 25.2059 29.492C25.9327 29.7931 26.7117 29.948 27.4984 29.948C28.2851 29.948 29.0641 29.7931 29.791 29.492C30.5178 29.191 31.1782 28.7497 31.7345 28.1934C32.2907 27.6372 32.732 26.9768 33.0331 26.2499C33.3341 25.5231 33.4891 24.7441 33.4891 23.9574C33.4891 22.3686 32.8579 20.8449 31.7345 19.7214C30.611 18.598 29.0872 17.9668 27.4984 17.9668C25.9096 17.9668 24.3859 18.598 23.2624 19.7214C22.139 20.8449 21.5078 22.3686 21.5078 23.9574Z"
    fill="#221F2E" />
  <path
    d="M36.2462 27.591L34.6243 26.6535C34.9759 25.8051 35.1728 24.8723 35.1728 23.8973C35.1728 22.9223 34.9759 21.9895 34.6243 21.141L36.2462 20.2035C36.6962 19.9457 36.8462 19.3691 36.5884 18.9238C36.3306 18.4738 35.754 18.3238 35.3087 18.5816L33.6868 19.5191C32.5524 18.0426 30.8556 17.016 28.9196 16.7629V14.8926C28.9196 14.377 28.4978 13.9551 27.9821 13.9551C27.4665 13.9551 27.0446 14.377 27.0446 14.8926V16.7629C25.1087 17.016 23.4118 18.0426 22.2774 19.5191L20.6556 18.5816C20.2056 18.3238 19.6337 18.4785 19.3759 18.9238C19.1181 19.3738 19.2728 19.9457 19.7181 20.2035L21.3399 21.141C20.9884 21.9895 20.7915 22.9223 20.7915 23.8973C20.7915 24.8723 20.9884 25.8051 21.3399 26.6535L19.7181 27.591C19.2681 27.8488 19.1181 28.4254 19.3759 28.8707C19.5493 29.1707 19.8634 29.3395 20.1868 29.3395C20.3462 29.3395 20.5056 29.2973 20.6556 29.2129L22.2774 28.2754C23.4118 29.752 25.1087 30.7785 27.0446 31.0316V32.9066C27.0446 33.4223 27.4665 33.8441 27.9821 33.8441C28.4978 33.8441 28.9196 33.4223 28.9196 32.9066V31.0363C30.8556 30.7832 32.5524 29.7566 33.6868 28.2801L35.3087 29.2176C35.454 29.302 35.6181 29.3441 35.7774 29.3441C36.1009 29.3441 36.4149 29.1754 36.5884 28.8754C36.8462 28.4207 36.6962 27.8488 36.2462 27.591ZM27.9774 29.2645C25.0149 29.2645 22.6149 26.8645 22.6149 23.902C22.6149 20.9395 25.0149 18.5395 27.9774 18.5395C30.9399 18.5395 33.3399 20.9395 33.3399 23.902C33.3399 26.8645 30.9399 29.2645 27.9774 29.2645Z"
    fill="#221F2E" />
  <path
    d="M27.9531 27.7637C25.8203 27.7637 24.0859 26.0293 24.0859 23.8965C24.0859 21.7637 25.8203 20.0293 27.9531 20.0293C30.0859 20.0293 31.8203 21.7637 31.8203 23.8965C31.8203 26.0293 30.0813 27.7637 27.9531 27.7637ZM27.9531 21.909C26.8563 21.909 25.9609 22.7996 25.9609 23.9012C25.9609 24.998 26.8516 25.8934 27.9531 25.8934C29.0547 25.8934 29.9453 25.0027 29.9453 23.9012C29.9406 22.7996 29.05 21.909 27.9531 21.909Z"
    fill="var(--main-color)" />
</svg>