<svg xmlns="http://www.w3.org/2000/svg" width="48" height="48" viewBox="0 0 48 48" fill="none">
  <path opacity="0.4"
    d="M42.1803 43C42.1803 43.56 41.7403 44 41.1803 44H6.82031C6.26031 44 5.82031 43.56 5.82031 43C5.82031 34.72 13.9803 28 24.0003 28C26.0603 28 28.0603 28.28 29.9003 28.82C28.7203 30.22 28.0003 32.04 28.0003 34C28.0003 35.5 28.4203 36.92 29.1603 38.12C29.5603 38.8 30.0803 39.42 30.6803 39.94C32.0803 41.22 33.9403 42 36.0003 42C38.2403 42 40.2603 41.08 41.7003 39.6C42.0203 40.68 42.1803 41.82 42.1803 43Z"
    fill="var(--main-color)" />
  <path
    d="M41.94 28.66C41.1961 27.8195 40.2815 27.1475 39.2571 26.6888C38.2328 26.2301 37.1224 25.9953 36 26C34.9491 25.9987 33.9082 26.2047 32.937 26.6063C31.9658 27.0079 31.0833 27.5971 30.3402 28.3402C29.5971 29.0833 29.0079 29.9658 28.6063 30.937C28.2047 31.9082 27.9987 32.9491 28 34C28 35.5 28.42 36.92 29.16 38.12C29.56 38.8 30.08 39.42 30.68 39.94C32.08 41.22 33.94 42 36 42C38.92 42 41.46 40.44 42.84 38.12C43.26 37.44 43.58 36.66 43.76 35.86C43.92 35.26 44 34.64 44 34C44 31.96 43.22 30.08 41.94 28.66ZM39 35.46H37.5V37.02C37.5 37.84 36.82 38.52 36 38.52C35.18 38.52 34.5 37.84 34.5 37.02V35.46H33C32.18 35.46 31.5 34.78 31.5 33.96C31.5 33.14 32.18 32.46 33 32.46H34.5V31.04C34.5 30.22 35.18 29.54 36 29.54C36.82 29.54 37.5 30.22 37.5 31.04V32.46H39C39.82 32.46 40.5 33.14 40.5 33.96C40.5 34.78 39.82 35.46 39 35.46ZM24 24C26.6522 24 29.1957 22.9464 31.0711 21.0711C32.9464 19.1957 34 16.6522 34 14C34 11.3478 32.9464 8.8043 31.0711 6.92893C29.1957 5.05357 26.6522 4 24 4C21.3478 4 18.8043 5.05357 16.9289 6.92893C15.0536 8.8043 14 11.3478 14 14C14 16.6522 15.0536 19.1957 16.9289 21.0711C18.8043 22.9464 21.3478 24 24 24Z"
    fill="var(--main-color)" />
</svg>