<svg width="48" height="48" viewBox="0 0 48 48" fill="none" xmlns="http://www.w3.org/2000/svg">
<g id="logo">
<g id="icon">
<ellipse id="Ellipse 315" cx="24" cy="24.005" rx="18" ry="17.8488" stroke="#FE6868"/>
<path id="Subtract" fill-rule="evenodd" clip-rule="evenodd" d="M24 41.8538C33.9411 41.8538 42 33.8626 42 24.005C42 14.1474 33.9411 6.15625 24 6.15625C14.0589 6.15625 6 14.1474 6 24.005C6 33.8626 14.0589 41.8538 24 41.8538ZM27.695 20.2582C29.1348 21.6473 30.605 23.0657 30.9686 24.2357C31.8261 26.9953 30.214 29.1047 27.5731 29.1047C26.3543 29.1047 25.5007 28.5988 24.9348 28.0538C24.8988 28.3954 24.9022 28.8583 25.0286 29.3597C25.2343 30.1757 25.8001 30.8896 26.0572 31.1446V31.6546H21.9429V31.1446C22.2001 30.8896 22.6806 30.2252 22.9715 29.3597C23.1357 28.8713 23.1601 28.383 23.1117 28.0273C22.5608 28.5822 21.7345 29.1047 20.5764 29.1047C18.107 29.1047 16.0833 27.1281 17.0437 24.2357C17.4482 23.0175 18.9112 21.6047 20.3334 20.2313C20.6173 19.9571 20.8996 19.6846 21.1715 19.4154C22.613 17.9885 23.7554 16.6492 23.9699 16.3978C23.9935 16.3701 24.0058 16.3556 24.0061 16.3556C24.0064 16.3556 24.0181 16.3694 24.0404 16.3959C24.2493 16.6429 25.3886 17.9907 26.8286 19.4154C27.1097 19.6935 27.4019 19.9754 27.695 20.2582Z" fill="#FE6868"/>
<g id="Vector">
<path d="M18.4804 7.06917C18.4447 6.91493 18.5365 6.76114 18.6891 6.72516C19.2219 6.59948 20.502 6.32678 22.228 6.15328C23.954 5.97978 25.2633 5.99219 25.8107 6.00927C25.9674 6.01417 26.0885 6.14656 26.0848 6.30476L25.9999 9.91235C25.9968 10.0424 25.9097 10.1543 25.7846 10.185C25.3101 10.3016 24.0877 10.5796 22.6949 10.7196C21.302 10.8596 20.0482 10.8306 19.5597 10.8108C19.431 10.8055 19.323 10.7133 19.2937 10.5865L18.4804 7.06917Z" fill="white"/>
<path d="M29.4981 40.9561C29.5332 41.1105 29.4408 41.2639 29.2881 41.2993C28.7548 41.423 27.4736 41.6908 25.747 41.8577C24.0203 42.0247 22.7111 42.0073 22.1637 41.9881C22.007 41.9826 21.8865 41.8498 21.8908 41.6916L21.9897 38.0844C21.9932 37.9543 22.0808 37.8428 22.206 37.8125C22.6809 37.6977 23.9044 37.4244 25.2978 37.2897C26.6912 37.155 27.9449 37.1888 28.4333 37.2104C28.562 37.2162 28.6696 37.3089 28.6984 37.4358L29.4981 40.9561Z" fill="white"/>
<path d="M41.4847 28.0003C41.6335 28.0476 41.7169 28.2035 41.6699 28.3532C41.5067 28.8727 41.0904 30.1027 40.3611 31.6618C39.6319 33.2209 38.9539 34.3306 38.6593 34.7896C38.5745 34.9219 38.4005 34.9595 38.268 34.8774L35.1735 32.9594C35.064 32.8915 35.0129 32.76 35.0506 32.6359C35.1921 32.1699 35.5743 30.9877 36.1622 29.7307C36.7502 28.4737 37.4135 27.4207 37.6808 27.0126C37.752 26.9039 37.8863 26.8576 38.0093 26.8967L41.4847 28.0003Z" fill="white"/>
<path d="M40.5733 17.1763C40.7126 17.1047 40.769 16.9368 40.6974 16.7973C40.449 16.3124 39.8307 15.1688 38.8482 13.7526C37.8657 12.3364 37.0097 11.3549 36.6419 10.9514C36.536 10.8353 36.3578 10.8275 36.2406 10.9309L33.5151 13.3345C33.4184 13.4199 33.3899 13.5581 33.4479 13.6738C33.666 14.1094 34.2426 15.2119 35.0348 16.3538C35.827 17.4958 36.6592 18.424 36.9914 18.7817C37.0797 18.8767 37.2201 18.8998 37.335 18.8407L40.5733 17.1763Z" fill="white"/>
<path d="M7.53139 31.2649C7.39403 31.3402 7.34212 31.5095 7.41735 31.6471C7.67879 32.1251 8.32773 33.252 9.34808 34.6417C10.3684 36.0313 11.2506 36.9898 11.6292 37.3834C11.7381 37.4966 11.9165 37.4996 12.031 37.3931L14.6904 34.9182C14.7849 34.8303 14.8097 34.6914 14.7486 34.5773C14.5189 34.1477 13.9128 33.0609 13.0899 31.9402C12.2671 30.8196 11.4102 29.9138 11.0685 29.5651C10.9777 29.4724 10.8368 29.4531 10.7234 29.5153L7.53139 31.2649Z" fill="white"/>
<path d="M6.4089 20.1019C6.26025 20.054 6.17752 19.8977 6.22514 19.7482C6.39038 19.2295 6.81179 18.0011 7.54743 16.445C8.28307 14.8888 8.96565 13.7819 9.26205 13.3241C9.34747 13.1921 9.52155 13.1552 9.65374 13.2379L12.7403 15.1683C12.8496 15.2366 12.9001 15.3684 12.862 15.4922C12.7185 15.9577 12.3315 17.1384 11.7384 18.393C11.1453 19.6476 10.4776 20.6979 10.2086 21.105C10.137 21.2133 10.0025 21.2591 9.87971 21.2195L6.4089 20.1019Z" fill="white"/>
</g>
<g id="Mask group">
<mask id="mask0_4737_1112" style="mask-type:alpha" maskUnits="userSpaceOnUse" x="11" y="11" width="26" height="26">
<path id="Subtract_2" fill-rule="evenodd" clip-rule="evenodd" d="M24 36.7541C31.1008 36.7541 36.8571 31.0461 36.8571 24.005C36.8571 16.9638 31.1008 11.2559 24 11.2559C16.8992 11.2559 11.1428 16.9638 11.1428 24.005C11.1428 31.0461 16.8992 36.7541 24 36.7541ZM24 35.7342C30.5327 35.7342 35.8285 30.4828 35.8285 24.005C35.8285 17.5271 30.5327 12.2758 24 12.2758C17.4672 12.2758 12.1714 17.5271 12.1714 24.005C12.1714 30.4828 17.4672 35.7342 24 35.7342Z" fill="white"/>
</mask>
<g mask="url(#mask0_4737_1112)">
<g id="Vector_2">
<path d="M21.4325 11.0016L24.5175 10.9331L24.5636 12.9725L21.4786 13.041L21.4325 11.0016Z" fill="white"/>
<path d="M28.3349 11.3944L31.1998 12.531L30.4356 14.4249L27.5707 13.2883L28.3349 11.3944Z" fill="white"/>
<path d="M17.4335 12.2146L14.9323 14.0065L16.137 15.66L18.6382 13.868L17.4335 12.2146Z" fill="white"/>
<path d="M12.3395 17.3757L11.1427 20.196L13.0388 20.9871L14.2356 18.1668L12.3395 17.3757Z" fill="white"/>
<path d="M10.8855 23.7503L10.8855 26.81L12.9426 26.81V23.7503L10.8855 23.7503Z" fill="white"/>
<path d="M12.523 30.4226L14.2119 32.9834L15.9336 31.8669L14.2447 29.3061L12.523 30.4226Z" fill="white"/>
<path d="M16.7998 35.5876L19.6634 36.7274L20.4297 34.8344L17.5661 33.6946L16.7998 35.5876Z" fill="white"/>
<path d="M23.4855 37.2641L26.5708 37.3113L26.6026 35.2717L23.5173 35.2245L23.4855 37.2641Z" fill="white"/>
<path d="M30.5956 35.8644L33.1064 34.0858L31.9106 32.4259L29.3998 34.2045L30.5956 35.8644Z" fill="white"/>
<path d="M35.2485 31.0907L36.5998 28.3399L34.7504 27.4466L33.3991 30.1974L35.2485 31.0907Z" fill="white"/>
<path d="M37.3947 24.5151L37.3713 21.4554L35.3142 21.4709L35.3377 24.5306L37.3947 24.5151Z" fill="white"/>
<path d="M35.8267 17.7539L34.0845 15.2284L32.3866 16.3801L34.1288 18.9056L35.8267 17.7539Z" fill="white"/>
</g>
</g>
</g>
</g>
</g>
</svg>
