<svg xmlns="http://www.w3.org/2000/svg" width="36" height="35" viewBox="0 0 36 35" fill="none">
  <path
    d="M10.6044 1.59427C10.3396 1.03582 10.5807 0.369864 11.1427 0.10682C11.7048 -0.156224 12.3751 0.08325 12.6399 0.6417L15.6149 6.91678C15.8796 7.47523 15.6386 8.14119 15.0765 8.40423C14.5144 8.66727 13.8441 8.4278 13.5794 7.86935L10.6044 1.59427Z"
    fill="var(--main-color)" />
  <path
    d="M24.9957 1.59427C25.2605 1.03582 25.0194 0.369864 24.4573 0.10682C23.8953 -0.156224 23.225 0.08325 22.9602 0.6417L19.9605 6.96891C19.6958 7.52736 19.9368 8.19331 20.4989 8.45635C21.061 8.7194 21.7313 8.47992 21.996 7.92147L24.9957 1.59427Z"
    fill="var(--main-color)" />
  <path fill-rule="evenodd" clip-rule="evenodd"
    d="M5.625 6.89572C2.5184 6.89572 0 9.39782 0 12.4843V29.2501C0 32.3366 2.5184 34.8387 5.625 34.8387H30.375C33.4816 34.8387 36 32.3366 36 29.2501V12.4843C36 9.39782 33.4816 6.89572 30.375 6.89572H5.625ZM8.4375 9.13116C5.3309 9.13116 2.8125 11.6333 2.8125 14.7198V27.0147C2.8125 30.1012 5.3309 32.6033 8.4375 32.6033H27.5625C30.6691 32.6033 33.1875 30.1012 33.1875 27.0147V14.7198C33.1875 11.6333 30.6691 9.13116 27.5625 9.13116H8.4375Z"
    fill="var(--main-color)" />
  <path fill-rule="evenodd" clip-rule="evenodd"
    d="M10.8065 10.8086C7.59964 10.8086 5 13.4082 5 16.615V25.1211C5 28.3279 7.59964 30.9275 10.8065 30.9275H25.0685C28.2754 30.9275 30.875 28.3279 30.875 25.1211V16.615C30.875 13.4082 28.2754 10.8086 25.0685 10.8086H10.8065ZM21.3776 22.5791C22.8784 21.6765 22.8784 19.5008 21.3776 18.5982L17.5195 16.2782C15.9715 15.3473 14 16.4623 14 18.2686L14 22.9087C14 24.715 15.9715 25.83 17.5195 24.8991L21.3776 22.5791Z"
    fill="var(--main-color)" />
</svg>