<svg width="48" height="48" viewBox="0 0 48 48" fill="none" xmlns="http://www.w3.org/2000/svg">
<g id="ICON">
<path id="Vector" opacity="0.4" d="M44 18V32.92C44 37.5 40.28 41.2 35.7 41.2H12.3C7.72 41.2 4 37.5 4 32.92V18H44Z" fill="#5CA6FF"/>
<path id="Vector_2" d="M44 15.0759V17.9959H4V15.0759C4 10.4959 7.72 6.7959 12.3 6.7959H35.7C40.28 6.7959 44 10.4959 44 15.0759ZM16 34.4999H12C11.18 34.4999 10.5 33.8199 10.5 32.9999C10.5 32.1799 11.18 31.4999 12 31.4999H16C16.82 31.4999 17.5 32.1799 17.5 32.9999C17.5 33.8199 16.82 34.4999 16 34.4999ZM29 34.4999H21C20.18 34.4999 19.5 33.8199 19.5 32.9999C19.5 32.1799 20.18 31.4999 21 31.4999H29C29.82 31.4999 30.5 32.1799 30.5 32.9999C30.5 33.8199 29.82 34.4999 29 34.4999Z" fill="#5CA6FF"/>
</g>
</svg>
