<svg width="48" height="48" viewBox="0 0 48 48" fill="none" xmlns="http://www.w3.org/2000/svg">
<g id="icon">
<g id="logo">
<g id="icon_2">
<path id="Subtract" fill-rule="evenodd" clip-rule="evenodd" d="M30.5805 40.7597C28.5425 41.5603 26.3231 42 24.001 42C21.7101 42 19.5193 41.5721 17.5039 40.7919C17.6911 40.6619 17.8136 40.4454 17.8136 40.2002V33.5958L19.7801 30.9394H28.3476L30.3138 33.5953V40.2002C30.3138 40.4261 30.4178 40.6277 30.5805 40.7597ZM31.7521 40.2504C34.6555 38.8632 37.1289 36.721 38.9182 34.0779H31.7539V40.2002C31.7539 40.2171 31.7533 40.2338 31.7521 40.2504ZM39.6619 32.8811C41.1105 30.3324 41.9548 27.3955 42 24.2652C41.7916 24.3841 41.5285 24.3963 41.3016 24.2743L34.8633 20.8137L31.6362 22.1215L29.4963 30.0706L31.3968 32.6379H39.1223C39.3371 32.6379 39.53 32.7319 39.6619 32.8811ZM41.9747 23.0013C41.7722 19.2999 40.4515 15.8963 38.3445 13.1225L35.8069 19.6861L41.9747 23.0013ZM37.5376 12.1347C37.3056 12.1823 37.1019 12.3432 37.0101 12.5806L34.3468 19.4692L31.1509 20.7643L24.7836 15.747V12.5487L31.2536 8.03049C31.3924 7.93356 31.4866 7.79652 31.5314 7.64595C33.8386 8.70996 35.8822 10.2478 37.5376 12.1347ZM30.1191 7.06635L24.0709 11.29L18.1177 6.98331C19.9613 6.34609 21.9407 6 24.001 6C26.149 6 28.2091 6.37622 30.1191 7.06635ZM16.803 7.49668C14.4698 8.51564 12.3944 10.0148 10.7017 11.8693C10.8299 11.9492 10.9341 12.0699 10.9925 12.2217L13.7809 19.4692L16.9764 20.7642L23.3435 15.747V12.5411L17.0988 8.02354C16.9208 7.89477 16.8191 7.69976 16.803 7.49668ZM9.74975 13.002C7.69308 15.6628 6.36511 18.9155 6.06488 22.461L12.305 19.6433L9.74975 13.002ZM6 24.0003C6.00006 27.1541 6.81123 30.1184 8.2363 32.6961C8.32346 32.6586 8.41949 32.6379 8.52038 32.6379H16.7306L18.6314 30.0702L16.4917 22.1217L13.2367 20.8026L6.29658 23.9363C6.2002 23.9799 6.09929 24.0004 6 24.0003ZM9.08367 34.0779C10.9002 36.7611 13.4217 38.9282 16.3823 40.3131C16.3765 40.2763 16.3735 40.2386 16.3735 40.2002V34.0779H9.08367ZM28.1588 29.4994L30.2152 21.8603L24.0636 17.013L17.9126 21.8599L19.9691 29.4994H28.1588Z" fill="#FE6868"/>
</g>
</g>
</g>
</svg>
