<svg width="48" height="48" viewBox="0 0 48 48" fill="none" xmlns="http://www.w3.org/2000/svg">
<g id="icon">
<g id="Group">
<path id="Vector" d="M24 31.2C31.0692 31.2 36.8 25.4141 36.8 18.2769V4H11.2V18.2769C11.2 25.4141 16.9307 31.2 24 31.2Z" fill="#F95959"/>
<g id="Group_2">
<path id="Vector (Stroke)" opacity="0.4" fill-rule="evenodd" clip-rule="evenodd" d="M2.3999 10.9999C2.3999 10.1162 3.11625 9.3999 3.9999 9.3999H11.9999C12.8836 9.3999 13.5999 10.1162 13.5999 10.9999V20.9999C13.5999 21.8836 12.8836 22.5999 11.9999 22.5999C6.96185 22.5999 2.3999 18.3875 2.3999 10.9999ZM5.68953 12.5999C6.13886 16.4504 8.21154 18.5047 10.3999 19.1622V12.5999H5.68953Z" fill="#F95959"/>
<path id="Vector (Stroke)_2" opacity="0.4" fill-rule="evenodd" clip-rule="evenodd" d="M34.3999 10.9999C34.3999 10.1162 35.1162 9.3999 35.9999 9.3999H43.9999C44.8836 9.3999 45.5999 10.1162 45.5999 10.9999C45.5999 18.3875 41.038 22.5999 35.9999 22.5999C35.1162 22.5999 34.3999 21.8836 34.3999 20.9999V10.9999ZM37.5999 12.5999V19.1622C39.7883 18.5047 41.8609 16.4504 42.3103 12.5999H37.5999Z" fill="#F95959"/>
<path id="Vector (Stroke)_3" opacity="0.4" fill-rule="evenodd" clip-rule="evenodd" d="M23.9999 28.7998C24.8836 28.7998 25.5999 29.6753 25.5999 30.7554V35.6442C25.5999 36.7243 24.8836 37.5998 23.9999 37.5998C23.1162 37.5998 22.3999 36.7243 22.3999 35.6442V30.7554C22.3999 29.6753 23.1162 28.7998 23.9999 28.7998Z" fill="#F95959"/>
</g>
<path id="Vector_2" d="M16.5942 43.6C15.1176 43.6 14.1502 42.0548 14.7951 40.7265L16.543 37.1265C16.8775 36.4374 17.5762 36 18.3422 36H29.429C30.1747 36 30.8585 36.4149 31.2029 37.0763L33.0775 40.6763C33.7708 42.0078 32.8047 43.6 31.3036 43.6H16.5942Z" fill="#F95959"/>
</g>
</g>
</svg>
