<svg width="40" height="40" viewBox="0 0 40 40" fill="none" xmlns="http://www.w3.org/2000/svg">
<path fill-rule="evenodd" clip-rule="evenodd" d="M20.2138 8.95674C20.2139 8.34093 19.9981 7.74069 19.5989 7.27016L16.2509 3.32352C13.8088 0.444672 9.19912 2.2197 9.19912 6.03895C9.19912 7.89284 10.4006 9.51984 12.138 10.0187L17.0449 11.4277C18.4915 11.8431 19.9649 10.8615 20.1864 9.33484C20.2047 9.2088 20.2137 9.08245 20.2138 8.95674ZM20.2138 8.95674C20.2138 9.08245 20.2228 9.2088 20.2411 9.33484C20.4626 10.8615 21.936 11.8431 23.3826 11.4277L28.2895 10.0187C30.0269 9.51984 31.2284 7.89284 31.2284 6.03895C31.2284 2.2197 26.6188 0.444672 24.1766 3.32352L20.8286 7.27016C20.4294 7.74069 20.2137 8.34093 20.2138 8.95674Z" fill="#D9CEC2"/>
<path d="M18.1664 19.9551C18.1664 19.4028 17.7187 18.9551 17.1664 18.9551H4.49829C3.94601 18.9551 3.49829 19.4028 3.49829 19.9551V36.33C3.49829 37.8028 4.69221 38.9967 6.16499 38.9967H17.1664C17.7187 38.9967 18.1664 38.549 18.1664 37.9967L18.1664 19.9551Z" fill="#D9CEC2"/>
<path d="M21.8339 37.9967C21.8339 38.549 22.2816 38.9967 22.8339 38.9967H33.8352C35.308 38.9967 36.5019 37.8028 36.5019 36.33V19.9551C36.5019 19.4028 36.0542 18.9551 35.5019 18.9551H22.8339C22.2816 18.9551 21.8339 19.4028 21.8339 19.9551L21.8339 37.9967Z" fill="#D9CEC2"/>
<path d="M1.99805 11.2051C1.99805 10.3766 2.66962 9.70508 3.49805 9.70508H36.502C37.3304 9.70508 38.002 10.3767 38.002 11.2051V14.3717C38.002 15.2002 37.3304 15.8717 36.502 15.8717H3.49805C2.66962 15.8717 1.99805 15.2002 1.99805 14.3717V11.2051Z" fill="#D9CEC2"/>
</svg>
