<svg xmlns="http://www.w3.org/2000/svg" width="40" height="41" viewBox="0 0 40 41" fill="none">
	<g clip-path="url(#clip0_4631_1572)">
		<path d="M11.4893 13.611C10.8243 13.6042 10.1723 13.7952 9.61611 14.1598C9.05989 14.5243 8.62455 15.0459 8.36537 15.6584C8.10619 16.2708 8.03487 16.9465 8.16046 17.5996C8.28604 18.2526 8.60288 18.8537 9.07072 19.3263C9.53857 19.799 10.1363 20.1219 10.7881 20.2541C11.4398 20.3864 12.1162 20.322 12.7313 20.0691C13.3463 19.8161 13.8723 19.3861 14.2425 18.8337C14.6128 18.2812 14.8104 17.6312 14.8105 16.9661C14.8083 16.0828 14.4588 15.2358 13.8374 14.6081C13.216 13.9803 12.3726 13.6221 11.4893 13.611Z" fill="#896646"/>
		<path d="M39.9999 11.2266C39.9976 9.30527 39.2334 7.46332 37.8748 6.10476C36.5163 4.74619 34.6743 3.98197 32.753 3.97971H27.5329C26.9884 3.97295 26.4535 4.12262 25.9915 4.41094C25.5296 4.69926 25.1602 5.11411 24.9271 5.60621C24.6827 6.13525 24.2925 6.58366 23.8023 6.89888C23.3121 7.2141 22.7423 7.38307 22.1595 7.38599H17.6802C17.1118 7.35058 16.5639 7.16052 16.0956 6.83634C15.6273 6.51216 15.2566 6.06618 15.0233 5.5466C14.7802 5.07782 14.4139 4.68421 13.9637 4.40812C13.5136 4.13203 12.9967 3.98391 12.4686 3.97971H7.08672C5.16542 3.98197 3.32347 4.74619 1.96491 6.10476C0.606346 7.46332 -0.157883 9.30527 -0.160137 11.2266V30.8978C-0.162217 31.7387 0.00311668 32.5716 0.326226 33.3479C0.649336 34.1243 1.12376 34.8285 1.72183 35.4196C2.32519 36.012 3.04002 36.4788 3.82495 36.793C4.60988 37.1073 5.44934 37.2628 6.29476 37.2505C9.8458 37.2505 11.4042 35.8114 12.5708 31.6131L13.8993 27.5767H25.949L27.2859 31.6642C28.5207 35.2919 29.9003 37.259 33.6131 37.259C35.3056 37.2545 36.9275 36.5802 38.1243 35.3834C39.321 34.1867 39.9954 32.5648 39.9999 30.8723V11.2266ZM11.4893 22.7313C10.3491 22.7313 9.23447 22.3932 8.2864 21.7597C7.33833 21.1262 6.5994 20.2258 6.16305 19.1724C5.7267 18.1189 5.61253 16.9597 5.83498 15.8414C6.05743 14.7231 6.60651 13.6959 7.41277 12.8896C8.21904 12.0833 9.24629 11.5342 10.3646 11.3118C11.4829 11.0893 12.6421 11.2035 13.6955 11.6399C14.749 12.0762 15.6494 12.8151 16.2829 13.7632C16.9163 14.7113 17.2545 15.8259 17.2545 16.9661C17.2522 18.4945 16.6441 19.9595 15.5634 21.0402C14.4827 22.1209 13.0176 22.729 11.4893 22.7313ZM32.9148 18.1754H29.5596V21.522C29.5596 21.6808 29.5284 21.8381 29.4676 21.9848C29.4068 22.1315 29.3177 22.2648 29.2055 22.3771C29.0932 22.4894 28.9599 22.5785 28.8132 22.6392C28.6665 22.7 28.5092 22.7313 28.3504 22.7313C28.1916 22.7313 28.0344 22.7 27.8877 22.6392C27.7409 22.5785 27.6076 22.4894 27.4954 22.3771C27.3831 22.2648 27.294 22.1315 27.2332 21.9848C27.1725 21.8381 27.1412 21.6808 27.1412 21.522V18.1754H23.786C23.4653 18.1754 23.1577 18.048 22.9309 17.8212C22.7042 17.5944 22.5768 17.2869 22.5768 16.9661C22.5768 16.6454 22.7042 16.3379 22.9309 16.1111C23.1577 15.8843 23.4653 15.7569 23.786 15.7569H27.1412V12.4017C27.1412 12.081 27.2686 11.7735 27.4954 11.5467C27.7221 11.3199 28.0297 11.1925 28.3504 11.1925C28.6711 11.1925 28.9787 11.3199 29.2055 11.5467C29.4322 11.7735 29.5596 12.081 29.5596 12.4017V15.7569H32.9148C33.2355 15.7569 33.5431 15.8843 33.7699 16.1111C33.9966 16.3379 34.124 16.6454 34.124 16.9661C34.124 17.2869 33.9966 17.5944 33.7699 17.8212C33.5431 18.048 33.2355 18.1754 32.9148 18.1754Z" fill="#896646"/>
	</g>
	<defs>
		<clipPath id="clip0_4631_1572">
			<rect width="40" height="40" fill="white" transform="translate(0 0.5)"/>
		</clipPath>
	</defs>
</svg>