<svg width="40" height="40" viewBox="0 0 40 40" fill="none" xmlns="http://www.w3.org/2000/svg">
<g clip-path="url(#clip0_7144_68950)">
<path d="M11.4893 13.108C10.8243 13.1013 10.1723 13.2923 9.61611 13.6568C9.05989 14.0214 8.62455 14.543 8.36537 15.1555C8.10619 15.7679 8.03487 16.4436 8.16046 17.0966C8.28604 17.7497 8.60288 18.3507 9.07072 18.8234C9.53857 19.296 10.1363 19.619 10.7881 19.7512C11.4398 19.8835 12.1162 19.819 12.7313 19.5661C13.3463 19.3132 13.8723 18.8832 14.2425 18.3307C14.6128 17.7783 14.8104 17.1282 14.8105 16.4632C14.8083 15.5799 14.4588 14.7329 13.8374 14.1051C13.216 13.4774 12.3726 13.1192 11.4893 13.108Z" fill="url(#paint0_linear_7144_68950)"/>
<path d="M39.9999 10.7236C39.9976 8.80234 39.2334 6.96039 37.8748 5.60183C36.5163 4.24326 34.6743 3.47904 32.753 3.47678H27.5329C26.9884 3.47002 26.4535 3.61969 25.9915 3.90801C25.5296 4.19633 25.1602 4.61118 24.9271 5.10328C24.6827 5.63232 24.2925 6.08073 23.8023 6.39595C23.3121 6.71117 22.7423 6.88014 22.1595 6.88306H17.6802C17.1118 6.84765 16.5639 6.65759 16.0956 6.33341C15.6273 6.00923 15.2566 5.56325 15.0233 5.04367C14.7802 4.57489 14.4139 4.18128 13.9637 3.90519C13.5136 3.6291 12.9967 3.48098 12.4686 3.47678H7.08672C5.16542 3.47904 3.32347 4.24326 1.96491 5.60183C0.606346 6.96039 -0.157883 8.80234 -0.160137 10.7236V30.3949C-0.162217 31.2358 0.00311668 32.0687 0.326226 32.845C0.649336 33.6214 1.12376 34.3256 1.72183 34.9167C2.32519 35.509 3.04002 35.9758 3.82495 36.2901C4.60988 36.6044 5.44934 36.7599 6.29476 36.7476C9.8458 36.7476 11.4042 35.3084 12.5708 31.1102L13.8993 27.0738H25.949L27.2859 31.1613C28.5207 34.789 29.9003 36.7561 33.6131 36.7561C35.3056 36.7516 36.9275 36.0773 38.1243 34.8805C39.321 33.6837 39.9954 32.0618 39.9999 30.3693V10.7236ZM11.4893 22.2283C10.3491 22.2283 9.23447 21.8902 8.2864 21.2567C7.33833 20.6233 6.5994 19.7229 6.16305 18.6694C5.7267 17.616 5.61253 16.4568 5.83498 15.3385C6.05743 14.2202 6.60651 13.1929 7.41277 12.3867C8.21904 11.5804 9.24629 11.0313 10.3646 10.8089C11.4829 10.5864 12.6421 10.7006 13.6955 11.1369C14.749 11.5733 15.6494 12.3122 16.2829 13.2603C16.9163 14.2084 17.2545 15.323 17.2545 16.4632C17.2522 17.9915 16.6441 19.4566 15.5634 20.5373C14.4827 21.618 13.0176 22.2261 11.4893 22.2283ZM32.9148 17.6724H29.5596V21.0191C29.5596 21.1779 29.5284 21.3352 29.4676 21.4819C29.4068 21.6286 29.3177 21.7619 29.2055 21.8742C29.0932 21.9865 28.9599 22.0755 28.8132 22.1363C28.6665 22.1971 28.5092 22.2283 28.3504 22.2283C28.1916 22.2283 28.0344 22.1971 27.8877 22.1363C27.7409 22.0755 27.6076 21.9865 27.4954 21.8742C27.3831 21.7619 27.294 21.6286 27.2332 21.4819C27.1725 21.3352 27.1412 21.1779 27.1412 21.0191V17.6724H23.786C23.4653 17.6724 23.1577 17.545 22.9309 17.3183C22.7042 17.0915 22.5768 16.7839 22.5768 16.4632C22.5768 16.1425 22.7042 15.8349 22.9309 15.6082C23.1577 15.3814 23.4653 15.254 23.786 15.254H27.1412V11.8988C27.1412 11.5781 27.2686 11.2705 27.4954 11.0437C27.7221 10.817 28.0297 10.6896 28.3504 10.6896C28.6711 10.6896 28.9787 10.817 29.2055 11.0437C29.4322 11.2705 29.5596 11.5781 29.5596 11.8988V15.254H32.9148C33.2355 15.254 33.5431 15.3814 33.7699 15.6082C33.9966 15.8349 34.124 16.1425 34.124 16.4632C34.124 16.7839 33.9966 17.0915 33.7699 17.3183C33.5431 17.545 33.2355 17.6724 32.9148 17.6724Z" fill="url(#paint1_linear_7144_68950)"/>
</g>
<defs>
<linearGradient id="paint0_linear_7144_68950" x1="39.9999" y1="20.1165" x2="-0.160156" y2="20.1165" gradientUnits="userSpaceOnUse">
<stop stop-color="#D9AD82"/>
<stop offset="1" stop-color="#B1835A"/>
</linearGradient>
<linearGradient id="paint1_linear_7144_68950" x1="39.9999" y1="20.1165" x2="-0.160156" y2="20.1165" gradientUnits="userSpaceOnUse">
<stop stop-color="#D9AD82"/>
<stop offset="1" stop-color="#B1835A"/>
</linearGradient>
<clipPath id="clip0_7144_68950">
<rect width="40" height="40" fill="white"/>
</clipPath>
</defs>
</svg>
