<svg width="40" height="40" viewBox="0 0 40 40" fill="none" xmlns="http://www.w3.org/2000/svg">
<path d="M5.49498 32.6242C5.75471 32.2509 6.1294 31.9785 6.56763 31.8569C8.69257 31.2675 15.4017 29.5136 19.9998 29.5136C24.5979 29.5136 31.307 31.2675 33.432 31.8569C33.8702 31.9785 34.2449 32.2509 34.5046 32.6242L36.6183 35.6623C37.5409 36.9884 36.592 38.8045 34.9766 38.8045H5.02299C3.40756 38.8045 2.45866 36.9884 3.38126 35.6623L5.49498 32.6242Z" fill="url(#paint0_linear_4630_1837)"/>
<path fill-rule="evenodd" clip-rule="evenodd" d="M30.0531 1.3266L19.0595 2.57018C11.5376 3.49927 6.83639 8.90685 6.83639 15.5775C6.83639 22.2481 12.3088 27.6557 19.0595 27.6557C25.2491 27.6557 30.3642 23.1095 31.1716 17.2119L32.8759 11.0433C33.0534 10.3999 32.8685 9.71192 32.3914 9.2404L30.9083 7.77494C30.1085 6.98461 30.1907 5.68044 31.0835 4.99424L32.8759 3.49928C35.0435 1.32659 31.9989 0.942053 30.0531 1.3266ZM23.4587 20.3337C22.7876 22.4405 21.071 23.9388 19.0593 23.9388C17.0476 23.9388 15.331 22.4405 14.6599 20.3337C14.3247 19.2813 15.2535 18.3643 16.3581 18.3643H21.7605C22.865 18.3643 23.7939 19.2813 23.4587 20.3337Z" fill="url(#paint1_linear_4630_1837)"/>
<defs>
<linearGradient id="paint0_linear_4630_1837" x1="3.01953" y1="16.6815" x2="36.869" y2="14.7429" gradientUnits="userSpaceOnUse">
<stop stop-color="#D9B38C"/>
<stop offset="1" stop-color="#F2D5B2"/>
</linearGradient>
<linearGradient id="paint1_linear_4630_1837" x1="3.01953" y1="16.6815" x2="36.869" y2="14.7429" gradientUnits="userSpaceOnUse">
<stop stop-color="#D9B38C"/>
<stop offset="1" stop-color="#F2D5B2"/>
</linearGradient>
</defs>
</svg>
