<svg width="40" height="40" viewBox="0 0 40 40" fill="none" xmlns="http://www.w3.org/2000/svg">
<path d="M37.9143 33.7021C37.9143 34.202 37.8288 34.6689 37.6578 35.1029C37.4868 35.537 37.2435 35.9184 36.9278 36.2472C36.6122 36.576 36.2439 36.8325 35.823 37.0167C35.4021 37.2008 34.9418 37.2929 34.442 37.2929H5.79504C5.29523 37.2929 4.82173 37.2008 4.37453 37.0167C3.92734 36.8325 3.53275 36.576 3.19078 36.2472C2.8488 35.9184 2.57917 35.537 2.38188 35.1029C2.18458 34.6689 2.08594 34.202 2.08594 33.7021V14.0123C2.08594 13.0127 2.43449 12.1644 3.13159 11.4673C3.82869 10.7702 4.67705 10.4216 5.67667 10.4216H34.3236C35.3232 10.4216 36.1716 10.7702 36.8687 11.4673C37.5658 12.1644 37.9143 13.0127 37.9143 14.0123C37.9143 16.9761 35.5117 19.3787 32.5479 19.3787H28.9572C27.9576 19.3787 27.1092 19.7207 26.4121 20.4046C25.715 21.0886 25.3665 21.9303 25.3665 22.93C25.3928 23.6139 25.5375 24.2189 25.8005 24.7451C26.011 25.1923 26.3595 25.6 26.8462 25.9683C27.3328 26.3366 28.0365 26.5207 28.9572 26.5207H30.7328C34.6991 26.5207 37.9143 29.7359 37.9143 33.7021ZM30.4183 4.53075C31.3874 6.38543 30.0419 8.60651 27.9493 8.60651H19.1878C18.0248 8.60651 17.6359 7.02965 18.6585 6.47575C19.7634 5.89702 20.8551 5.3183 21.9336 4.73957C23.0121 4.16085 23.8539 3.71365 24.4589 3.39798C25.3796 2.89817 26.2017 2.668 26.9251 2.70746C27.6485 2.74691 28.2601 2.87187 28.7599 3.08231C29.2337 3.31922 29.6547 3.61785 30.0227 3.9782C30.1855 4.13765 30.3127 4.32875 30.4183 4.53075ZM27.1816 22.93C27.1816 22.4302 27.3526 22.0093 27.6945 21.6673C28.0365 21.3253 28.4574 21.1543 28.9572 21.1543C29.457 21.1543 29.8779 21.3253 30.2199 21.6673C30.5619 22.0093 30.7329 22.4302 30.7329 22.93C30.7329 23.4298 30.5619 23.8572 30.2199 24.2124C29.8779 24.5675 29.457 24.7451 28.9572 24.7451C28.4574 24.7451 28.0365 24.5675 27.6945 24.2124C27.3526 23.8572 27.1816 23.4298 27.1816 22.93Z" fill="url(#paint0_linear_4630_1843)"/>
<defs>
<linearGradient id="paint0_linear_4630_1843" x1="2.08594" y1="16.946" x2="37.7603" y2="14.6023" gradientUnits="userSpaceOnUse">
<stop stop-color="#D9B38C"/>
<stop offset="1" stop-color="#F2D5B2"/>
</linearGradient>
</defs>
</svg>
