<svg width="100" height="50" viewBox="0 0 100 50" fill="none" xmlns="http://www.w3.org/2000/svg">
<path d="M31.3955 19.4099C31.5576 18.7315 31.7555 17.8605 32.0367 17.1285C33.3081 13.8227 35.2543 10.9423 37.9113 8.56318C39.7459 6.92055 41.8281 5.62745 44.12 4.68695C45.6216 4.07077 47.1788 3.65248 48.7881 3.3717C49.6859 3.21508 50.5891 3.14517 51.4857 3.05807C52.5222 2.95722 53.5837 2.96295 54.6855 3.27734C54.1667 3.55659 53.6305 3.68915 53.1337 3.8706C49.8331 5.07507 46.8048 6.77118 43.9767 8.80652C42.4172 9.92885 40.9117 11.1272 39.4952 12.4379C38.4127 13.4395 37.2785 14.3938 36.2873 15.4802C34.7614 17.153 33.125 18.7341 31.8053 20.5846C31.6632 20.784 31.354 21.234 31.1713 21.4055C31.1712 20.6415 31.2334 20.0883 31.3955 19.4099Z" fill="currentColor"/>
<path d="M30.9781 28.4726C30.8024 27.8702 30.659 27.5658 30.5918 26.9446C30.4817 25.9319 30.8719 24.938 31.4981 24.2091C32.6065 22.9194 33.6263 21.5599 34.7219 20.2576C36.5522 18.0813 38.5432 16.0609 40.6316 14.1424C41.9937 12.891 43.4578 11.74 44.9756 10.6513C46.5444 9.52587 48.1576 8.48604 49.8566 7.58603C51.8673 6.52061 53.9576 5.61068 56.1812 5.04798C57.2033 4.78936 58.2363 4.57124 59.2608 4.32179C59.6116 4.23622 59.8774 4.46466 60.1667 4.55405C60.6376 4.69921 61.0618 4.98991 61.513 5.20307C61.62 5.25349 61.7421 5.26878 61.7204 5.41509C61.7 5.55414 61.5763 5.57171 61.4601 5.58699C58.5512 5.97205 55.854 7.04206 53.248 8.27709C50.7679 9.45214 48.4365 10.9034 46.2261 12.5533C43.4736 14.6077 40.8904 16.8394 38.5278 19.3095C37.0849 20.818 35.7077 22.3884 34.4105 24.0318C33.2462 25.5068 32.1112 26.9985 31.0149 28.5212C30.9936 28.5502 30.9781 28.4726 30.9781 28.4726Z" fill="currentColor"/>
<path fill-rule="evenodd" clip-rule="evenodd" d="M26.0273 42.9075C25.9936 43.0364 25.9561 43.3709 26.1486 43.3786C26.4528 42.9221 26.8233 42.4911 27.1911 42.0633C27.2911 41.9469 27.3909 41.8308 27.4891 41.7145C28.8338 40.1227 30.3226 38.6676 31.9281 37.3318C32.0186 37.2565 32.1024 37.1878 32.1826 37.122C32.43 36.9191 32.6427 36.7446 32.9096 36.4948C33.1437 36.2759 33.4904 36.0899 33.7488 36.5158C34.4372 37.6496 35.1832 38.7609 36.0778 39.7441C37.3503 41.1423 38.7507 42.422 40.3658 43.4359C42.2444 44.6147 44.1964 45.6423 46.376 46.2142C46.6209 46.2785 46.887 46.3676 47.1472 46.4547C47.4959 46.5714 47.834 46.6846 48.0966 46.7299C48.555 46.809 49.9071 47 50.6797 47H53.7702C53.9227 47 54.2131 46.974 54.573 46.9418C54.8392 46.918 55.1434 46.8908 55.4581 46.8682C56.0034 46.829 56.5205 46.6823 57.0391 46.5353C57.2244 46.4827 57.41 46.4301 57.597 46.3823C59.658 45.8563 61.5818 45.0323 63.3766 43.9248C64.4995 43.2319 65.5352 42.4213 66.5655 41.5873C67.8484 40.5494 68.8521 39.293 69.8213 38.0312C70.6692 36.9276 71.3638 35.6769 71.9274 34.3746C72.4582 33.148 72.9353 31.916 73.2556 30.6149C73.4571 29.7971 73.5827 28.9731 73.7086 28.1472C73.7466 27.8984 73.7845 27.6494 73.8246 27.4003C74.1317 25.4926 73.988 23.6051 73.7562 21.7359C73.536 19.96 73.0029 18.2272 72.2998 16.5609C71.4372 14.5171 70.2625 12.6579 68.8988 10.9076C68.1951 10.004 67.3485 9.24222 66.5019 8.48049C66.2072 8.21526 65.9124 7.95004 65.6237 7.67883C65.3019 7.37628 64.8951 7.07373 64.5042 7.13906C64.1268 7.2021 63.7479 7.25315 63.3687 7.30422C62.8104 7.37942 62.2516 7.45469 61.6965 7.56843C59.3794 8.04327 57.1705 8.80155 55.018 9.74816C50.5844 11.6979 46.7098 14.4858 43.153 17.6851C40.7166 19.8771 38.4443 22.2455 36.4027 24.8245C34.7741 26.882 33.1863 28.9639 31.7292 31.1406C29.8687 33.9197 28.5545 36.9681 27.2515 40.0245C27.1326 40.3032 26.9824 40.6522 26.8283 41.0104C26.4515 41.8859 26.0512 42.8161 26.0273 42.9075ZM53.7245 31.5618C54.5942 31.5285 55.1205 31.5084 56.088 30.7647C56.2615 30.6314 56.481 30.4538 56.6429 30.2945C56.6609 30.2696 56.6738 30.2524 56.6738 30.2524C56.6738 30.2524 56.6921 30.2618 56.6675 30.3827C56.6429 30.5035 56.4743 30.9557 56.4393 30.9909C56.4267 31.0035 56.3784 31.1255 56.3106 31.2966C56.1897 31.6019 56.0069 32.0633 55.8556 32.3363C55.2985 33.3413 54.5101 34.1802 53.6227 34.89C52.2131 36.0177 50.6833 36.9353 48.7522 36.8657C48.3352 36.8508 47.9175 36.8545 47.4998 36.8582C47.13 36.8615 46.7602 36.8647 46.3907 36.8551C45.9723 36.844 45.7228 36.9372 45.5791 37.388C45.4205 37.8847 45.1974 38.3622 44.9746 38.8388C44.9119 38.9731 44.8491 39.1073 44.7879 39.2418C44.6175 39.6158 44.6836 39.7927 45.1367 39.785C45.9932 39.7705 46.8504 39.7705 47.7068 39.7831C49.4232 39.8083 51.1067 39.5983 52.7319 39.0497C54.3107 38.5168 55.7181 37.6817 57.0697 36.7087C58.9889 35.3274 60.5739 33.6714 61.7097 31.6257C62.2456 30.6601 62.6462 29.6285 63.0467 28.5972C63.1315 28.3789 63.2163 28.1605 63.3024 27.9428C63.7786 26.7384 64.2761 25.5421 64.7736 24.3459C65.3463 22.9686 65.9191 21.5914 66.4593 20.2018C66.8174 19.2812 66.8197 18.2979 66.4075 17.3345C65.718 15.7236 64.2801 15.3805 62.7743 15.298C61.2035 15.2121 59.6248 15.2453 58.0491 15.2784C57.8879 15.2818 57.7268 15.2852 57.5658 15.2884C57.0237 15.2994 56.4793 15.415 55.9434 15.5288C55.9026 15.5375 55.8619 15.5461 55.8212 15.5547C54.621 15.8084 53.5563 16.3837 52.621 17.1305C51.4718 18.0485 50.3812 19.0501 49.7987 20.4505C49.6244 20.8695 49.447 21.2873 49.2697 21.7052C48.802 22.8072 48.3342 23.9091 47.9228 25.0312C47.8356 25.269 47.7388 25.5044 47.642 25.7399C47.2483 26.6979 46.8538 27.6578 47.0972 28.7905C47.4754 30.5508 48.4385 31.4344 50.1896 31.5394C50.7605 31.5736 51.3341 31.5639 51.9078 31.5542C52.47 31.5447 53.0322 31.5352 53.5918 31.5669C53.637 31.5651 53.6812 31.5634 53.7245 31.5618Z" fill="currentColor"/>
<path d="M59.0025 18.3861C60.3689 18.2047 61.3648 19.322 60.6084 20.8837C59.8289 22.4927 59.2073 24.18 58.3682 25.7562C57.5496 27.2942 56.1589 28.1071 54.3588 28.0757C53.2172 28.0559 52.472 26.9397 52.9167 25.9323C53.702 24.1533 54.5361 22.3949 55.3253 20.6178C55.7471 19.6685 57.8606 18.1527 59.0025 18.3861Z" fill="currentColor"/>
</svg>
