<svg width="100" height="48" viewBox="0 0 100 48" fill="none" xmlns="http://www.w3.org/2000/svg">
<g id="WM&#231;&#156;&#159;&#228;&#186;&#186;&#232;&#167;&#134;&#232;&#174;&#175;">
<path id="Union" fill-rule="evenodd" clip-rule="evenodd" d="M37.2305 9.94264C40.6064 6.87323 45.0886 5 50 5C60.4766 5 69 13.5234 68.9999 24.0001C68.9999 27.5644 68.0125 30.902 66.2982 33.7555C65.7399 34.6846 65.1048 35.5625 64.4011 36.38L60.5296 26.3465L57.055 35.236H56.9975L53.523 26.3598L50.3033 34.6258H47.4335L53.5067 19.0436L53.5106 19.034L53.523 19.0385L53.5353 19.0343L53.5394 19.0444L57.0264 27.9924L60.5134 19.0445L60.5173 19.0344L60.5297 19.0387L60.5421 19.0344L60.546 19.0445L65.0141 30.467C65.8722 28.4825 66.3488 26.296 66.3488 24C66.3488 14.9852 59.0148 7.65114 50 7.65114C45.4048 7.65114 41.2473 9.55742 38.2743 12.6198L37.2305 9.94264ZM50 40.3488C54.4864 40.3488 58.556 38.532 61.513 35.596L62.5491 38.2531C59.1995 41.2058 54.8057 43.0001 50 43.0001C39.5234 43.0001 31 34.4767 31 24C31 20.5145 31.9444 17.2458 33.5893 14.4346C34.1322 13.5067 34.7514 12.6289 35.4385 11.8096L39.3835 21.9325L42.8581 13.0165H42.9155L46.3901 21.9325L49.631 13.6161H52.5033L46.4064 29.2611L46.4025 29.2712L46.3901 29.2669L46.3777 29.2712L46.3738 29.2611L42.8868 20.3131L39.3998 29.2611L39.3959 29.2712L39.3835 29.2669L39.3711 29.2712L39.3672 29.2611L34.8875 17.7657C34.0915 19.6879 33.6511 21.7933 33.6511 23.9999C33.6511 33.0147 40.9852 40.3488 50 40.3488Z" fill="currentColor"/>
</g>
</svg>
