<svg width="100" height="50" viewBox="0 0 100 50" fill="none" xmlns="http://www.w3.org/2000/svg">
<path d="M46.1445 18.5129C42.3913 17.775 39.1313 16.3627 36.2798 14.1038C35.6913 13.6377 35.1737 13.0828 34.569 12.6404C33.6978 12.0027 33.7852 11.4302 34.5749 10.8284C34.603 10.8069 34.6234 10.7758 34.6501 10.7522C35.4502 10.0394 36.1447 8.98273 37.0794 8.70649C38.1137 8.40065 38.6128 9.80744 39.4301 10.365C40.9056 11.3721 42.3936 12.3154 44.3078 12.9522C43.5099 10.8946 42.9813 8.97082 42.5415 7.01792C42.3008 5.94932 42.5517 5.41832 43.6922 5.18443C44.7824 4.96075 46.0262 4.23331 46.9141 4.60299C47.8308 4.9848 47.4498 6.48501 47.7317 7.47444C48.2851 9.41733 48.9212 11.32 49.98 13.221C51.1034 11.3704 51.7331 9.45202 52.2411 7.48976C52.4093 6.84043 52.6153 6.17088 52.6051 5.51346C52.588 4.41357 53.1871 4.42208 53.9722 4.61554C54.7762 4.81368 55.5676 5.07993 56.382 5.2138C57.5128 5.39981 57.6655 6.00955 57.4534 6.98941C57.0293 8.95081 56.5033 10.8803 55.6778 12.9662C58.0078 12.1615 59.8623 11.0133 61.5178 9.53183C62.7602 8.42003 62.8123 8.36341 63.9953 9.49246C66.8368 12.2045 66.862 11.4092 63.8936 13.9418C61.0716 16.3493 57.7095 17.7691 53.8436 18.5022C55.2509 20.0322 56.7426 21.2132 58.3628 22.2454C58.812 22.5317 58.9992 22.0518 59.2344 21.8423C61.8856 19.4827 64.8982 17.7216 68.2477 16.4859C68.937 16.2316 69.2878 16.3206 69.4964 17.0384C69.792 18.0557 70.1382 19.0598 70.4912 20.0599C70.6989 20.6488 70.5417 20.918 69.9114 21.1274C67.7425 21.8483 65.7713 22.9486 63.9636 24.3271C63.8318 24.4278 63.7182 24.5514 63.5087 24.7453C65.6761 25.5557 67.8145 25.9922 70.0088 26.1101C70.8765 26.1567 71.112 26.4198 70.9544 27.2507C70.7633 28.2576 70.594 29.2661 70.3618 30.2671C70.2193 30.8813 69.9689 31.0332 69.3282 30.9762C63.025 30.4152 57.4677 28.1252 52.6355 24.1353C51.9466 23.5664 51.2556 22.9844 50.6624 22.3246C50.155 21.7606 49.8748 21.7887 49.3399 22.3229C45.5431 26.1157 41.0209 28.7207 35.7756 30.0972C34.0668 30.5457 32.3298 30.8347 30.5649 30.9864C30.0213 31.0332 29.801 30.8943 29.67 30.3699C29.3955 29.2689 29.196 28.1601 29.0262 27.0398C28.9267 26.3834 29.0965 26.1695 29.773 26.1342C31.8329 26.0265 33.8459 25.6372 35.8032 24.992C35.999 24.9275 36.2449 24.9385 36.4014 24.6233C34.5781 23.1361 32.5406 21.9773 30.291 21.2056C29.5334 20.9457 29.2383 20.6443 29.5375 19.8662C29.8801 18.9754 30.185 18.0683 30.4543 17.1536C30.6802 16.3867 31.0271 16.2075 31.8376 16.5127C35.1096 17.7444 38.0931 19.4319 40.6467 21.7853C41.2675 22.3574 41.6523 22.298 42.2612 21.8545C43.6105 20.8718 44.9138 19.8509 46.1445 18.5129Z" fill="currentColor"/>
<path d="M49.9974 33.6367C51.5887 31.6098 53.1375 29.7046 54.5987 27.7368C55.0811 27.0872 55.4161 27.0876 56.054 27.4935C56.9573 28.0679 57.9194 28.5702 58.9022 29.0027C59.5866 29.3036 59.53 29.5247 59.1154 30.0429C57.0922 32.573 55.1292 35.1497 53.1043 37.6785C52.6498 38.2459 52.4731 38.8063 52.4904 39.5144C52.5321 41.2095 52.4794 42.9068 52.5165 44.6022C52.5301 45.2272 52.3502 45.5129 51.6797 45.4967C50.5637 45.4699 49.4458 45.4673 48.3297 45.499C47.6725 45.5175 47.4657 45.2741 47.48 44.6307C47.5201 42.8293 47.4774 41.0265 47.5043 39.2247C47.5121 38.6992 47.3686 38.2857 47.0401 37.8709C44.9624 35.2478 42.9206 32.5973 40.8312 29.9831C40.4192 29.4679 40.501 29.2849 41.0708 29.0175C42.1092 28.5306 43.1363 28.0051 44.1068 27.4011C44.6662 27.053 44.9253 27.1257 45.3074 27.6293C46.8124 29.6111 48.3668 31.5566 49.9974 33.6367Z" fill="currentColor"/>
</svg>
